<?xml version="1.0" encoding="UTF-8" standalone="no"?>
<!DOCTYPE svg PUBLIC "-//W3C//DTD SVG 1.1//EN"
 "http://www.w3.org/Graphics/SVG/1.1/DTD/svg11.dtd">
<!-- Generated by graphviz version 2.43.0 (0)
 -->
<!-- Title: hops::MHO_ChannelQuantity Pages: 1 -->
<svg width="351pt" height="137pt"
 viewBox="0.00 0.00 351.00 137.00" xmlns="http://www.w3.org/2000/svg" xmlns:xlink="http://www.w3.org/1999/xlink">
<g id="graph0" class="graph" transform="scale(1 1) rotate(0) translate(4 133)">
<title>hops::MHO_ChannelQuantity</title>
<polygon fill="white" stroke="transparent" points="-4,4 -4,-133 347,-133 347,4 -4,4"/>
<!-- Node1 -->
<g id="node1" class="node">
<title>Node1</title>
<g id="a_node1"><a xlink:title="class for storing and mapping per&#45;channel control quantities (a typical task for fourfit control file...">
<polygon fill="#bfbfbf" stroke="black" points="0,-55 0,-74 142,-74 142,-55 0,-55"/>
<text text-anchor="middle" x="71" y="-62" font-family="FreeSans" font-size="10.00">hops::MHO_ChannelQuantity</text>
</a>
</g>
</g>
<!-- Node2 -->
<g id="node2" class="node">
<title>Node2</title>
<g id="a_node2"><a xlink:href="classhops_1_1MHO__ChannelLabelerBuilder.html" target="_top" xlink:title="Class MHO_ChannelLabelerBuilder.">
<polygon fill="white" stroke="black" points="191.5,-98.5 191.5,-128.5 329.5,-128.5 329.5,-98.5 191.5,-98.5"/>
<text text-anchor="start" x="199.5" y="-116.5" font-family="FreeSans" font-size="10.00">hops::MHO_ChannelLabeler</text>
<text text-anchor="middle" x="260.5" y="-105.5" font-family="FreeSans" font-size="10.00">Builder</text>
</a>
</g>
</g>
<!-- Node1&#45;&gt;Node2 -->
<g id="edge1" class="edge">
<title>Node1&#45;&gt;Node2</title>
<path fill="none" stroke="midnightblue" d="M118.31,-76.6C143.59,-83.21 175.11,-91.45 201.96,-98.46"/>
<polygon fill="midnightblue" stroke="midnightblue" points="119.16,-73.21 108.6,-74.06 117.39,-79.98 119.16,-73.21"/>
</g>
<!-- Node3 -->
<g id="node3" class="node">
<title>Node3</title>
<g id="a_node3"><a xlink:href="classhops_1_1MHO__ManualChannelDelayCorrectionBuilder.html" target="_top" xlink:title="Class MHO_ManualChannelDelayCorrectionBuilder.">
<polygon fill="white" stroke="black" points="180,-49.5 180,-79.5 341,-79.5 341,-49.5 180,-49.5"/>
<text text-anchor="start" x="188" y="-67.5" font-family="FreeSans" font-size="10.00">hops::MHO_ManualChannelDelay</text>
<text text-anchor="middle" x="260.5" y="-56.5" font-family="FreeSans" font-size="10.00">CorrectionBuilder</text>
</a>
</g>
</g>
<!-- Node1&#45;&gt;Node3 -->
<g id="edge2" class="edge">
<title>Node1&#45;&gt;Node3</title>
<path fill="none" stroke="midnightblue" d="M152.26,-64.5C161.36,-64.5 170.63,-64.5 179.73,-64.5"/>
<polygon fill="midnightblue" stroke="midnightblue" points="152.08,-61 142.08,-64.5 152.08,-68 152.08,-61"/>
</g>
<!-- Node4 -->
<g id="node4" class="node">
<title>Node4</title>
<g id="a_node4"><a xlink:href="classhops_1_1MHO__ManualChannelPhaseCorrectionBuilder.html" target="_top" xlink:title="Class MHO_ManualChannelPhaseCorrectionBuilder.">
<polygon fill="white" stroke="black" points="178,-0.5 178,-30.5 343,-30.5 343,-0.5 178,-0.5"/>
<text text-anchor="start" x="186" y="-18.5" font-family="FreeSans" font-size="10.00">hops::MHO_ManualChannelPhase</text>
<text text-anchor="middle" x="260.5" y="-7.5" font-family="FreeSans" font-size="10.00">CorrectionBuilder</text>
</a>
</g>
</g>
<!-- Node1&#45;&gt;Node4 -->
<g id="edge3" class="edge">
<title>Node1&#45;&gt;Node4</title>
<path fill="none" stroke="midnightblue" d="M118.31,-52.4C143.59,-45.79 175.11,-37.55 201.96,-30.54"/>
<polygon fill="midnightblue" stroke="midnightblue" points="117.39,-49.02 108.6,-54.94 119.16,-55.79 117.39,-49.02"/>
</g>
</g>
</svg>
