<?xml version="1.0" encoding="UTF-8" standalone="no"?>
<!DOCTYPE svg PUBLIC "-//W3C//DTD SVG 1.1//EN"
 "http://www.w3.org/Graphics/SVG/1.1/DTD/svg11.dtd">
<!-- Generated by graphviz version 2.43.0 (0)
 -->
<!-- Title: hops::MHO_BinaryFileStreamerMultiType&lt; XValueType, XValueTypeS... &gt; Pages: 1 -->
<svg width="563pt" height="88pt"
 viewBox="0.00 0.00 563.00 88.00" xmlns="http://www.w3.org/2000/svg" xmlns:xlink="http://www.w3.org/1999/xlink">
<g id="graph0" class="graph" transform="scale(1 1) rotate(0) translate(4 84)">
<title>hops::MHO_BinaryFileStreamerMultiType&lt; XValueType, XValueTypeS... &gt;</title>
<polygon fill="white" stroke="transparent" points="-4,4 -4,-84 559,-84 559,4 -4,4"/>
<!-- Node1 -->
<g id="node1" class="node">
<title>Node1</title>
<g id="a_node1"><a xlink:title="Class MHO_BinaryFileStreamerMultiType&lt;XValueType, XValueTypeS...&gt; sets up the typelist recursion.">
<polygon fill="#bfbfbf" stroke="black" points="378,-19 378,-60 555,-60 555,-19 378,-19"/>
<text text-anchor="start" x="386" y="-48" font-family="FreeSans" font-size="10.00">hops::MHO_BinaryFileStreamer</text>
<text text-anchor="start" x="386" y="-37" font-family="FreeSans" font-size="10.00">MultiType&lt; XValueType, XValueType</text>
<text text-anchor="middle" x="466.5" y="-26" font-family="FreeSans" font-size="10.00">S... &gt;</text>
</a>
</g>
</g>
<!-- Node2 -->
<g id="node2" class="node">
<title>Node2</title>
<g id="a_node2"><a xlink:href="classhops_1_1MHO__BinaryFileStreamerMultiType_3_01XValueType_01_4.html" target="_top" xlink:title="Class MHO_BinaryFileStreamerMultiType&lt;XValueType&gt; declare the specialization for the base case of the...">
<polygon fill="white" stroke="black" points="189,-49.5 189,-79.5 342,-79.5 342,-49.5 189,-49.5"/>
<text text-anchor="start" x="197" y="-67.5" font-family="FreeSans" font-size="10.00">hops::MHO_BinaryFileStreamer</text>
<text text-anchor="middle" x="265.5" y="-56.5" font-family="FreeSans" font-size="10.00">MultiType&lt; XValueType &gt;</text>
</a>
</g>
</g>
<!-- Node2&#45;&gt;Node1 -->
<g id="edge1" class="edge">
<title>Node2&#45;&gt;Node1</title>
<path fill="none" stroke="midnightblue" d="M351.95,-53.77C360.47,-52.69 369.14,-51.61 377.69,-50.53"/>
<polygon fill="midnightblue" stroke="midnightblue" points="351.5,-50.29 342.02,-55.01 352.38,-57.24 351.5,-50.29"/>
</g>
<!-- Node3 -->
<g id="node3" class="node">
<title>Node3</title>
<g id="a_node3"><a xlink:href="classhops_1_1MHO__BinaryFileStreamerSingleType.html" target="_top" xlink:title="Class MHO_BinaryFileStreamerSingleType &#45; template class for a single&#45;type streamer,...">
<polygon fill="white" stroke="black" points="0,-49.5 0,-79.5 153,-79.5 153,-49.5 0,-49.5"/>
<text text-anchor="start" x="8" y="-67.5" font-family="FreeSans" font-size="10.00">hops::MHO_BinaryFileStreamer</text>
<text text-anchor="middle" x="76.5" y="-56.5" font-family="FreeSans" font-size="10.00">SingleType&lt; XValueType &gt;</text>
</a>
</g>
</g>
<!-- Node3&#45;&gt;Node2 -->
<g id="edge2" class="edge">
<title>Node3&#45;&gt;Node2</title>
<path fill="none" stroke="midnightblue" d="M163.3,-64.5C171.77,-64.5 180.33,-64.5 188.7,-64.5"/>
<polygon fill="midnightblue" stroke="midnightblue" points="163.02,-61 153.02,-64.5 163.02,-68 163.02,-61"/>
</g>
<!-- Node4 -->
<g id="node4" class="node">
<title>Node4</title>
<g id="a_node4"><a xlink:href="classhops_1_1MHO__BinaryFileStreamerMultiType.html" target="_top" xlink:title=" ">
<polygon fill="white" stroke="black" points="189,-0.5 189,-30.5 342,-30.5 342,-0.5 189,-0.5"/>
<text text-anchor="start" x="197" y="-18.5" font-family="FreeSans" font-size="10.00">hops::MHO_BinaryFileStreamer</text>
<text text-anchor="middle" x="265.5" y="-7.5" font-family="FreeSans" font-size="10.00">MultiType&lt; XValueTypeS... &gt;</text>
</a>
</g>
</g>
<!-- Node4&#45;&gt;Node1 -->
<g id="edge3" class="edge">
<title>Node4&#45;&gt;Node1</title>
<path fill="none" stroke="midnightblue" d="M351.95,-25.81C360.47,-26.83 369.14,-27.88 377.69,-28.91"/>
<polygon fill="midnightblue" stroke="midnightblue" points="352.36,-22.33 342.02,-24.61 351.53,-29.28 352.36,-22.33"/>
</g>
</g>
</svg>
