<?xml version="1.0" encoding="UTF-8" standalone="no"?>
<!DOCTYPE svg PUBLIC "-//W3C//DTD SVG 1.1//EN"
 "http://www.w3.org/Graphics/SVG/1.1/DTD/svg11.dtd">
<!-- Generated by graphviz version 2.43.0 (0)
 -->
<!-- Title: hops::MHO_OpenCLComplexPointwiseMultiply Pages: 1 -->
<svg width="569pt" height="94pt"
 viewBox="0.00 0.00 569.00 94.00" xmlns="http://www.w3.org/2000/svg" xmlns:xlink="http://www.w3.org/1999/xlink">
<g id="graph0" class="graph" transform="scale(1 1) rotate(0) translate(4 90)">
<title>hops::MHO_OpenCLComplexPointwiseMultiply</title>
<polygon fill="white" stroke="transparent" points="-4,4 -4,-90 565,-90 565,4 -4,4"/>
<!-- Node1 -->
<g id="node1" class="node">
<title>Node1</title>
<g id="a_node1"><a xlink:title=" ">
<polygon fill="#bfbfbf" stroke="black" points="374,-28 374,-58 561,-58 561,-28 374,-28"/>
<text text-anchor="start" x="382" y="-46" font-family="FreeSans" font-size="10.00">hops::MHO_OpenCLComplexPointwise</text>
<text text-anchor="middle" x="467.5" y="-35" font-family="FreeSans" font-size="10.00">Multiply</text>
</a>
</g>
</g>
<!-- Node2 -->
<g id="node2" class="node">
<title>Node2</title>
<g id="a_node2"><a xlink:href="classhops_1_1MHO__BinaryOperator.html" target="_top" xlink:title=" ">
<polygon fill="white" stroke="black" points="144,-0.5 144,-85.5 338,-85.5 338,-0.5 144,-0.5"/>
<text text-anchor="start" x="152" y="-73.5" font-family="FreeSans" font-size="10.00">hops::MHO_BinaryOperator</text>
<text text-anchor="start" x="152" y="-62.5" font-family="FreeSans" font-size="10.00">&lt; MHO_NDArrayWrapper&lt; std</text>
<text text-anchor="start" x="152" y="-51.5" font-family="FreeSans" font-size="10.00">::complex&lt; XFloatType &gt;,</text>
<text text-anchor="start" x="152" y="-40.5" font-family="FreeSans" font-size="10.00"> RANK &gt;, MHO_NDArrayWrapper</text>
<text text-anchor="start" x="152" y="-29.5" font-family="FreeSans" font-size="10.00">&lt; std::complex&lt; XFloatType &gt;</text>
<text text-anchor="start" x="152" y="-18.5" font-family="FreeSans" font-size="10.00">, RANK &gt;, MHO_NDArrayWrapper</text>
<text text-anchor="middle" x="241" y="-7.5" font-family="FreeSans" font-size="10.00">&lt; std::complex&lt; XFloatType &gt;, RANK &gt; &gt;</text>
</a>
</g>
</g>
<!-- Node2&#45;&gt;Node1 -->
<g id="edge1" class="edge">
<title>Node2&#45;&gt;Node1</title>
<path fill="none" stroke="midnightblue" d="M348.45,-43C356.89,-43 365.38,-43 373.72,-43"/>
<polygon fill="midnightblue" stroke="midnightblue" points="348.19,-39.5 338.19,-43 348.19,-46.5 348.19,-39.5"/>
</g>
<!-- Node3 -->
<g id="node3" class="node">
<title>Node3</title>
<g id="a_node3"><a xlink:href="classhops_1_1MHO__Operator.html" target="_top" xlink:title="Class MHO_Operator.">
<polygon fill="white" stroke="black" points="0,-33.5 0,-52.5 108,-52.5 108,-33.5 0,-33.5"/>
<text text-anchor="middle" x="54" y="-40.5" font-family="FreeSans" font-size="10.00">hops::MHO_Operator</text>
</a>
</g>
</g>
<!-- Node3&#45;&gt;Node2 -->
<g id="edge2" class="edge">
<title>Node3&#45;&gt;Node2</title>
<path fill="none" stroke="midnightblue" d="M118.05,-43C126.44,-43 135.2,-43 143.99,-43"/>
<polygon fill="midnightblue" stroke="midnightblue" points="118.01,-39.5 108.01,-43 118.01,-46.5 118.01,-39.5"/>
</g>
</g>
</svg>
