<?xml version="1.0" encoding="UTF-8" standalone="no"?>
<!DOCTYPE svg PUBLIC "-//W3C//DTD SVG 1.1//EN"
 "http://www.w3.org/Graphics/SVG/1.1/DTD/svg11.dtd">
<!-- Generated by graphviz version 2.43.0 (0)
 -->
<!-- Title: hops::MHO_BinaryOperator&lt; XArgType1, XArgType2, XArgType3 &gt; Pages: 1 -->
<svg width="143pt" height="106pt"
 viewBox="0.00 0.00 143.00 106.00" xmlns="http://www.w3.org/2000/svg" xmlns:xlink="http://www.w3.org/1999/xlink">
<g id="graph0" class="graph" transform="scale(1 1) rotate(0) translate(4 102)">
<title>hops::MHO_BinaryOperator&lt; XArgType1, XArgType2, XArgType3 &gt;</title>
<polygon fill="white" stroke="transparent" points="-4,4 -4,-102 139,-102 139,4 -4,4"/>
<!-- Node1 -->
<g id="node1" class="node">
<title>Node1</title>
<g id="a_node1"><a xlink:title="Class MHO_BinaryOperator.">
<polygon fill="#bfbfbf" stroke="black" points="0,-0.5 0,-41.5 135,-41.5 135,-0.5 0,-0.5"/>
<text text-anchor="start" x="8" y="-29.5" font-family="FreeSans" font-size="10.00">hops::MHO_BinaryOperator</text>
<text text-anchor="start" x="8" y="-18.5" font-family="FreeSans" font-size="10.00">&lt; XArgType1, XArgType2,</text>
<text text-anchor="middle" x="67.5" y="-7.5" font-family="FreeSans" font-size="10.00"> XArgType3 &gt;</text>
</a>
</g>
</g>
<!-- Node2 -->
<g id="node2" class="node">
<title>Node2</title>
<g id="a_node2"><a xlink:href="classhops_1_1MHO__Operator.html" target="_top" xlink:title="Class MHO_Operator.">
<polygon fill="white" stroke="black" points="13.5,-78.5 13.5,-97.5 121.5,-97.5 121.5,-78.5 13.5,-78.5"/>
<text text-anchor="middle" x="67.5" y="-85.5" font-family="FreeSans" font-size="10.00">hops::MHO_Operator</text>
</a>
</g>
</g>
<!-- Node2&#45;&gt;Node1 -->
<g id="edge1" class="edge">
<title>Node2&#45;&gt;Node1</title>
<path fill="none" stroke="midnightblue" d="M67.5,-68.04C67.5,-59.71 67.5,-49.94 67.5,-41.54"/>
<polygon fill="midnightblue" stroke="midnightblue" points="64,-68.23 67.5,-78.23 71,-68.23 64,-68.23"/>
</g>
</g>
</svg>
