<?xml version="1.0" encoding="UTF-8" standalone="no"?>
<!DOCTYPE svg PUBLIC "-//W3C//DTD SVG 1.1//EN"
 "http://www.w3.org/Graphics/SVG/1.1/DTD/svg11.dtd">
<!-- Generated by graphviz version 2.43.0 (0)
 -->
<!-- Title: hops::MHO_ExtremaSearch&lt; XArgType &gt; Pages: 1 -->
<svg width="161pt" height="162pt"
 viewBox="0.00 0.00 161.00 162.00" xmlns="http://www.w3.org/2000/svg" xmlns:xlink="http://www.w3.org/1999/xlink">
<g id="graph0" class="graph" transform="scale(1 1) rotate(0) translate(4 158)">
<title>hops::MHO_ExtremaSearch&lt; XArgType &gt;</title>
<polygon fill="white" stroke="transparent" points="-4,4 -4,-158 157,-158 157,4 -4,4"/>
<!-- Node1 -->
<g id="node1" class="node">
<title>Node1</title>
<g id="a_node1"><a xlink:title="Class MHO_ExtremaSearch.">
<polygon fill="#bfbfbf" stroke="black" points="8,-0.5 8,-30.5 145,-30.5 145,-0.5 8,-0.5"/>
<text text-anchor="start" x="16" y="-18.5" font-family="FreeSans" font-size="10.00">hops::MHO_ExtremaSearch</text>
<text text-anchor="middle" x="76.5" y="-7.5" font-family="FreeSans" font-size="10.00">&lt; XArgType &gt;</text>
</a>
</g>
</g>
<!-- Node2 -->
<g id="node2" class="node">
<title>Node2</title>
<g id="a_node2"><a xlink:href="classhops_1_1MHO__InspectingOperator.html" target="_top" xlink:title="Class MHO_InspectingOperator.">
<polygon fill="white" stroke="black" points="0,-67.5 0,-97.5 153,-97.5 153,-67.5 0,-67.5"/>
<text text-anchor="start" x="8" y="-85.5" font-family="FreeSans" font-size="10.00">hops::MHO_InspectingOperator</text>
<text text-anchor="middle" x="76.5" y="-74.5" font-family="FreeSans" font-size="10.00">&lt; XArgType &gt;</text>
</a>
</g>
</g>
<!-- Node2&#45;&gt;Node1 -->
<g id="edge1" class="edge">
<title>Node2&#45;&gt;Node1</title>
<path fill="none" stroke="midnightblue" d="M76.5,-57.11C76.5,-48.15 76.5,-38.32 76.5,-30.58"/>
<polygon fill="midnightblue" stroke="midnightblue" points="73,-57.4 76.5,-67.4 80,-57.4 73,-57.4"/>
</g>
<!-- Node3 -->
<g id="node3" class="node">
<title>Node3</title>
<g id="a_node3"><a xlink:href="classhops_1_1MHO__Operator.html" target="_top" xlink:title="Class MHO_Operator.">
<polygon fill="white" stroke="black" points="22.5,-134.5 22.5,-153.5 130.5,-153.5 130.5,-134.5 22.5,-134.5"/>
<text text-anchor="middle" x="76.5" y="-141.5" font-family="FreeSans" font-size="10.00">hops::MHO_Operator</text>
</a>
</g>
</g>
<!-- Node3&#45;&gt;Node2 -->
<g id="edge2" class="edge">
<title>Node3&#45;&gt;Node2</title>
<path fill="none" stroke="midnightblue" d="M76.5,-124.23C76.5,-115.59 76.5,-105.5 76.5,-97.52"/>
<polygon fill="midnightblue" stroke="midnightblue" points="73,-124.48 76.5,-134.48 80,-124.48 73,-124.48"/>
</g>
</g>
</svg>
