<?xml version="1.0" encoding="UTF-8" standalone="no"?>
<!DOCTYPE svg PUBLIC "-//W3C//DTD SVG 1.1//EN"
 "http://www.w3.org/Graphics/SVG/1.1/DTD/svg11.dtd">
<!-- Generated by graphviz version 2.43.0 (0)
 -->
<!-- Title: hops::MHO_AxisPack&lt; XAxisTypeS &gt; Pages: 1 -->
<svg width="479pt" height="532pt"
 viewBox="0.00 0.00 479.00 532.00" xmlns="http://www.w3.org/2000/svg" xmlns:xlink="http://www.w3.org/1999/xlink">
<g id="graph0" class="graph" transform="scale(1 1) rotate(0) translate(4 528)">
<title>hops::MHO_AxisPack&lt; XAxisTypeS &gt;</title>
<polygon fill="white" stroke="transparent" points="-4,4 -4,-528 475,-528 475,4 -4,4"/>
<!-- Node1 -->
<g id="node1" class="node">
<title>Node1</title>
<g id="a_node1"><a xlink:title="Class MHO_AxisPack.">
<polygon fill="#bfbfbf" stroke="black" points="168,-258 168,-288 280,-288 280,-258 168,-258"/>
<text text-anchor="start" x="176" y="-276" font-family="FreeSans" font-size="10.00">hops::MHO_AxisPack</text>
<text text-anchor="middle" x="224" y="-265" font-family="FreeSans" font-size="10.00">&lt; XAxisTypeS &gt;</text>
</a>
</g>
</g>
<!-- Node4 -->
<g id="node4" class="node">
<title>Node4</title>
<g id="a_node4"><a xlink:href="classhops_1_1MHO__TableContainer.html" target="_top" xlink:title=" ">
<polygon fill="white" stroke="black" points="325.5,-482.5 325.5,-523.5 461.5,-523.5 461.5,-482.5 325.5,-482.5"/>
<text text-anchor="start" x="333.5" y="-511.5" font-family="FreeSans" font-size="10.00">hops::MHO_TableContainer</text>
<text text-anchor="start" x="333.5" y="-500.5" font-family="FreeSans" font-size="10.00">&lt; double, MHO_AxisPack</text>
<text text-anchor="middle" x="393.5" y="-489.5" font-family="FreeSans" font-size="10.00">&lt; MHO_Axis&lt; double &gt; &gt; &gt;</text>
</a>
</g>
</g>
<!-- Node1&#45;&gt;Node4 -->
<g id="edge3" class="edge">
<title>Node1&#45;&gt;Node4</title>
<path fill="none" stroke="midnightblue" d="M229.96,-297.92C239.48,-339.64 264.18,-423.87 316,-473 319.73,-476.53 323.92,-479.67 328.37,-482.44"/>
<polygon fill="midnightblue" stroke="midnightblue" points="233.35,-297.07 227.8,-288.05 226.51,-298.56 233.35,-297.07"/>
</g>
<!-- Node5 -->
<g id="node5" class="node">
<title>Node5</title>
<g id="a_node5"><a xlink:href="classhops_1_1MHO__TableContainer.html" target="_top" xlink:title=" ">
<polygon fill="white" stroke="black" points="325.5,-422.5 325.5,-463.5 461.5,-463.5 461.5,-422.5 325.5,-422.5"/>
<text text-anchor="start" x="333.5" y="-451.5" font-family="FreeSans" font-size="10.00">hops::MHO_TableContainer</text>
<text text-anchor="start" x="333.5" y="-440.5" font-family="FreeSans" font-size="10.00">&lt; visibility_element_type,</text>
<text text-anchor="middle" x="393.5" y="-429.5" font-family="FreeSans" font-size="10.00"> mbd_dr_axis_pack &gt;</text>
</a>
</g>
</g>
<!-- Node1&#45;&gt;Node5 -->
<g id="edge4" class="edge">
<title>Node1&#45;&gt;Node5</title>
<path fill="none" stroke="midnightblue" d="M235.18,-297.48C249.16,-328.36 277.08,-381.26 316,-413 320.31,-416.52 325.09,-419.66 330.08,-422.46"/>
<polygon fill="midnightblue" stroke="midnightblue" points="238.36,-296.02 231.13,-288.28 231.95,-298.84 238.36,-296.02"/>
</g>
<!-- Node6 -->
<g id="node6" class="node">
<title>Node6</title>
<g id="a_node6"><a xlink:href="classhops_1_1MHO__TableContainer.html" target="_top" xlink:title=" ">
<polygon fill="white" stroke="black" points="325.5,-373 325.5,-403 461.5,-403 461.5,-373 325.5,-373"/>
<text text-anchor="start" x="333.5" y="-391" font-family="FreeSans" font-size="10.00">hops::MHO_TableContainer</text>
<text text-anchor="middle" x="393.5" y="-380" font-family="FreeSans" font-size="10.00">&lt; double, mbd_axis_pack &gt;</text>
</a>
</g>
</g>
<!-- Node1&#45;&gt;Node6 -->
<g id="edge5" class="edge">
<title>Node1&#45;&gt;Node6</title>
<path fill="none" stroke="midnightblue" d="M242.98,-296.06C259.86,-316.3 286.83,-345.2 316,-363 322.2,-366.78 329.04,-370.06 336,-372.88"/>
<polygon fill="midnightblue" stroke="midnightblue" points="245.63,-293.78 236.6,-288.25 240.21,-298.21 245.63,-293.78"/>
</g>
<!-- Node7 -->
<g id="node7" class="node">
<title>Node7</title>
<g id="a_node7"><a xlink:href="classhops_1_1MHO__TableContainer.html" target="_top" xlink:title=" ">
<polygon fill="white" stroke="black" points="320.5,-312.5 320.5,-353.5 466.5,-353.5 466.5,-312.5 320.5,-312.5"/>
<text text-anchor="start" x="328.5" y="-341.5" font-family="FreeSans" font-size="10.00">hops::MHO_TableContainer</text>
<text text-anchor="start" x="328.5" y="-330.5" font-family="FreeSans" font-size="10.00">&lt; pcal_phasor_type, multitone</text>
<text text-anchor="middle" x="393.5" y="-319.5" font-family="FreeSans" font-size="10.00">_pcal_axis_type &gt;</text>
</a>
</g>
</g>
<!-- Node1&#45;&gt;Node7 -->
<g id="edge6" class="edge">
<title>Node1&#45;&gt;Node7</title>
<path fill="none" stroke="midnightblue" d="M276.69,-291.51C295.18,-298.14 316.12,-305.64 335.06,-312.42"/>
<polygon fill="midnightblue" stroke="midnightblue" points="277.86,-288.22 267.27,-288.14 275.5,-294.81 277.86,-288.22"/>
</g>
<!-- Node8 -->
<g id="node8" class="node">
<title>Node8</title>
<g id="a_node8"><a xlink:href="classhops_1_1MHO__TableContainer.html" target="_top" xlink:title=" ">
<polygon fill="white" stroke="black" points="325.5,-252.5 325.5,-293.5 461.5,-293.5 461.5,-252.5 325.5,-252.5"/>
<text text-anchor="start" x="333.5" y="-281.5" font-family="FreeSans" font-size="10.00">hops::MHO_TableContainer</text>
<text text-anchor="start" x="333.5" y="-270.5" font-family="FreeSans" font-size="10.00">&lt; visibility_element_type,</text>
<text text-anchor="middle" x="393.5" y="-259.5" font-family="FreeSans" font-size="10.00"> mbd_axis_pack &gt;</text>
</a>
</g>
</g>
<!-- Node1&#45;&gt;Node8 -->
<g id="edge7" class="edge">
<title>Node1&#45;&gt;Node8</title>
<path fill="none" stroke="midnightblue" d="M290.61,-273C302,-273 313.86,-273 325.29,-273"/>
<polygon fill="midnightblue" stroke="midnightblue" points="290.31,-269.5 280.31,-273 290.31,-276.5 290.31,-269.5"/>
</g>
<!-- Node9 -->
<g id="node9" class="node">
<title>Node9</title>
<g id="a_node9"><a xlink:href="classhops_1_1MHO__TableContainer.html" target="_top" xlink:title=" ">
<polygon fill="white" stroke="black" points="325.5,-192.5 325.5,-233.5 461.5,-233.5 461.5,-192.5 325.5,-192.5"/>
<text text-anchor="start" x="333.5" y="-221.5" font-family="FreeSans" font-size="10.00">hops::MHO_TableContainer</text>
<text text-anchor="start" x="333.5" y="-210.5" font-family="FreeSans" font-size="10.00">&lt; weight_element_type,</text>
<text text-anchor="middle" x="393.5" y="-199.5" font-family="FreeSans" font-size="10.00"> baseline_axis_pack &gt;</text>
</a>
</g>
</g>
<!-- Node1&#45;&gt;Node9 -->
<g id="edge8" class="edge">
<title>Node1&#45;&gt;Node9</title>
<path fill="none" stroke="midnightblue" d="M276.69,-254.49C295.18,-247.86 316.12,-240.36 335.06,-233.58"/>
<polygon fill="midnightblue" stroke="midnightblue" points="275.5,-251.19 267.27,-257.86 277.86,-257.78 275.5,-251.19"/>
</g>
<!-- Node10 -->
<g id="node10" class="node">
<title>Node10</title>
<g id="a_node10"><a xlink:href="classhops_1_1MHO__TableContainer.html" target="_top" xlink:title=" ">
<polygon fill="white" stroke="black" points="316,-121 316,-173 471,-173 471,-121 316,-121"/>
<text text-anchor="start" x="324" y="-161" font-family="FreeSans" font-size="10.00">hops::MHO_TableContainer</text>
<text text-anchor="start" x="324" y="-150" font-family="FreeSans" font-size="10.00">&lt; std::complex&lt; double</text>
<text text-anchor="start" x="324" y="-139" font-family="FreeSans" font-size="10.00"> &gt;, MHO_AxisPack&lt; MHO_Axis</text>
<text text-anchor="middle" x="393.5" y="-128" font-family="FreeSans" font-size="10.00">&lt; double &gt; &gt; &gt;</text>
</a>
</g>
</g>
<!-- Node1&#45;&gt;Node10 -->
<g id="edge9" class="edge">
<title>Node1&#45;&gt;Node10</title>
<path fill="none" stroke="midnightblue" d="M244.13,-250.11C261.41,-230.46 288.3,-202.35 316,-183 321.05,-179.47 326.51,-176.13 332.1,-173.01"/>
<polygon fill="midnightblue" stroke="midnightblue" points="241.46,-247.84 237.56,-257.7 246.75,-252.43 241.46,-247.84"/>
</g>
<!-- Node11 -->
<g id="node11" class="node">
<title>Node11</title>
<g id="a_node11"><a xlink:href="classhops_1_1MHO__TableContainer.html" target="_top" xlink:title=" ">
<polygon fill="white" stroke="black" points="325.5,-60.5 325.5,-101.5 461.5,-101.5 461.5,-60.5 325.5,-60.5"/>
<text text-anchor="start" x="333.5" y="-89.5" font-family="FreeSans" font-size="10.00">hops::MHO_TableContainer</text>
<text text-anchor="start" x="333.5" y="-78.5" font-family="FreeSans" font-size="10.00">&lt; std::complex&lt; double</text>
<text text-anchor="middle" x="393.5" y="-67.5" font-family="FreeSans" font-size="10.00"> &gt;, pcal_axis_pack &gt;</text>
</a>
</g>
</g>
<!-- Node1&#45;&gt;Node11 -->
<g id="edge10" class="edge">
<title>Node1&#45;&gt;Node11</title>
<path fill="none" stroke="midnightblue" d="M232.86,-248.32C245.22,-213.23 272.38,-148.98 316,-111 319.98,-107.53 324.41,-104.44 329.07,-101.69"/>
<polygon fill="midnightblue" stroke="midnightblue" points="229.54,-247.21 229.64,-257.8 236.17,-249.46 229.54,-247.21"/>
</g>
<!-- Node12 -->
<g id="node12" class="node">
<title>Node12</title>
<g id="a_node12"><a xlink:href="classhops_1_1MHO__TableContainer.html" target="_top" xlink:title=" ">
<polygon fill="white" stroke="black" points="325.5,-0.5 325.5,-41.5 461.5,-41.5 461.5,-0.5 325.5,-0.5"/>
<text text-anchor="start" x="333.5" y="-29.5" font-family="FreeSans" font-size="10.00">hops::MHO_TableContainer</text>
<text text-anchor="start" x="333.5" y="-18.5" font-family="FreeSans" font-size="10.00">&lt; visibility_element_type,</text>
<text text-anchor="middle" x="393.5" y="-7.5" font-family="FreeSans" font-size="10.00"> baseline_axis_pack &gt;</text>
</a>
</g>
</g>
<!-- Node1&#45;&gt;Node12 -->
<g id="edge11" class="edge">
<title>Node1&#45;&gt;Node12</title>
<path fill="none" stroke="midnightblue" d="M228.69,-247.92C236.63,-202.64 259.4,-106.74 316,-51 319.56,-47.5 323.57,-44.39 327.85,-41.64"/>
<polygon fill="midnightblue" stroke="midnightblue" points="225.24,-247.36 227.06,-257.79 232.15,-248.5 225.24,-247.36"/>
</g>
<!-- Node2 -->
<g id="node2" class="node">
<title>Node2</title>
<g id="a_node2"><a xlink:title=" ">
<polygon fill="white" stroke="#bfbfbf" points="0,-282.5 0,-301.5 132,-301.5 132,-282.5 0,-282.5"/>
<text text-anchor="middle" x="66" y="-289.5" font-family="FreeSans" font-size="10.00">std::tuple&lt; XAxisTypeS... &gt;</text>
</a>
</g>
</g>
<!-- Node2&#45;&gt;Node1 -->
<g id="edge1" class="edge">
<title>Node2&#45;&gt;Node1</title>
<path fill="none" stroke="midnightblue" d="M142.33,-282.83C150.95,-281.78 159.61,-280.72 167.9,-279.71"/>
<polygon fill="midnightblue" stroke="midnightblue" points="141.76,-279.37 132.25,-284.05 142.6,-286.32 141.76,-279.37"/>
</g>
<!-- Node3 -->
<g id="node3" class="node">
<title>Node3</title>
<g id="a_node3"><a xlink:href="classhops_1_1MHO__Serializable.html" target="_top" xlink:title="Class MHO_Serializable.">
<polygon fill="white" stroke="black" points="6,-244.5 6,-263.5 126,-263.5 126,-244.5 6,-244.5"/>
<text text-anchor="middle" x="66" y="-251.5" font-family="FreeSans" font-size="10.00">hops::MHO_Serializable</text>
</a>
</g>
</g>
<!-- Node3&#45;&gt;Node1 -->
<g id="edge2" class="edge">
<title>Node3&#45;&gt;Node1</title>
<path fill="none" stroke="midnightblue" d="M136.42,-262.46C146.95,-263.74 157.68,-265.04 167.85,-266.28"/>
<polygon fill="midnightblue" stroke="midnightblue" points="136.77,-258.97 126.42,-261.24 135.93,-265.92 136.77,-258.97"/>
</g>
</g>
</svg>
