<?xml version="1.0" encoding="UTF-8" standalone="no"?>
<!DOCTYPE svg PUBLIC "-//W3C//DTD SVG 1.1//EN"
 "http://www.w3.org/Graphics/SVG/1.1/DTD/svg11.dtd">
<!-- Generated by graphviz version 2.43.0 (0)
 -->
<!-- Title: hops::MHO_HDF5Converter Pages: 1 -->
<svg width="361pt" height="88pt"
 viewBox="0.00 0.00 361.00 88.00" xmlns="http://www.w3.org/2000/svg" xmlns:xlink="http://www.w3.org/1999/xlink">
<g id="graph0" class="graph" transform="scale(1 1) rotate(0) translate(4 84)">
<title>hops::MHO_HDF5Converter</title>
<polygon fill="white" stroke="transparent" points="-4,4 -4,-84 357,-84 357,4 -4,4"/>
<!-- Node1 -->
<g id="node1" class="node">
<title>Node1</title>
<g id="a_node1"><a xlink:title=" ">
<polygon fill="#bfbfbf" stroke="black" points="0,-30 0,-49 138,-49 138,-30 0,-30"/>
<text text-anchor="middle" x="69" y="-37" font-family="FreeSans" font-size="10.00">hops::MHO_HDF5Converter</text>
</a>
</g>
</g>
<!-- Node2 -->
<g id="node2" class="node">
<title>Node2</title>
<g id="a_node2"><a xlink:href="classhops_1_1MHO__ContainerHDF5Converter.html" target="_top" xlink:title="Converts a given ndarray&#45;based container into a HDF5 representation &#45; export only for now.">
<polygon fill="white" stroke="black" points="174,-49.5 174,-79.5 353,-79.5 353,-49.5 174,-49.5"/>
<text text-anchor="start" x="182" y="-67.5" font-family="FreeSans" font-size="10.00">hops::MHO_ContainerHDF5Converter</text>
<text text-anchor="middle" x="263.5" y="-56.5" font-family="FreeSans" font-size="10.00">&lt; XContainerType &gt;</text>
</a>
</g>
</g>
<!-- Node1&#45;&gt;Node2 -->
<g id="edge1" class="edge">
<title>Node1&#45;&gt;Node2</title>
<path fill="none" stroke="midnightblue" d="M148.31,-49.67C156.73,-50.76 165.35,-51.88 173.89,-52.99"/>
<polygon fill="midnightblue" stroke="midnightblue" points="148.51,-46.17 138.14,-48.35 147.61,-53.11 148.51,-46.17"/>
</g>
<!-- Node3 -->
<g id="node3" class="node">
<title>Node3</title>
<g id="a_node3"><a xlink:href="classhops_1_1MHO__ContainerHDF5Converter_3_01MHO__ObjectTags_01_4.html" target="_top" xlink:title=" ">
<polygon fill="white" stroke="black" points="174,-0.5 174,-30.5 353,-30.5 353,-0.5 174,-0.5"/>
<text text-anchor="start" x="182" y="-18.5" font-family="FreeSans" font-size="10.00">hops::MHO_ContainerHDF5Converter</text>
<text text-anchor="middle" x="263.5" y="-7.5" font-family="FreeSans" font-size="10.00">&lt; MHO_ObjectTags &gt;</text>
</a>
</g>
</g>
<!-- Node1&#45;&gt;Node3 -->
<g id="edge2" class="edge">
<title>Node1&#45;&gt;Node3</title>
<path fill="none" stroke="midnightblue" d="M148.31,-29.74C156.73,-28.69 165.35,-27.61 173.89,-26.55"/>
<polygon fill="midnightblue" stroke="midnightblue" points="147.63,-26.29 138.14,-31 148.5,-33.24 147.63,-26.29"/>
</g>
</g>
</svg>
