<?xml version="1.0" encoding="UTF-8" standalone="no"?>
<!DOCTYPE svg PUBLIC "-//W3C//DTD SVG 1.1//EN"
 "http://www.w3.org/Graphics/SVG/1.1/DTD/svg11.dtd">
<!-- Generated by graphviz version 2.43.0 (0)
 -->
<!-- Title: hops::MHO_MD5HashGeneratorMultiType&lt; XValueType, XValueTypeS... &gt; Pages: 1 -->
<svg width="551pt" height="88pt"
 viewBox="0.00 0.00 551.00 88.00" xmlns="http://www.w3.org/2000/svg" xmlns:xlink="http://www.w3.org/1999/xlink">
<g id="graph0" class="graph" transform="scale(1 1) rotate(0) translate(4 84)">
<title>hops::MHO_MD5HashGeneratorMultiType&lt; XValueType, XValueTypeS... &gt;</title>
<polygon fill="white" stroke="transparent" points="-4,4 -4,-84 547,-84 547,4 -4,4"/>
<!-- Node1 -->
<g id="node1" class="node">
<title>Node1</title>
<g id="a_node1"><a xlink:title="Class MHO_MD5HashGeneratorMultiType&lt;XValueType, XValueTypeS...&gt; carry out the typelist recursion.">
<polygon fill="#bfbfbf" stroke="black" points="386,-19 386,-60 543,-60 543,-19 386,-19"/>
<text text-anchor="start" x="394" y="-48" font-family="FreeSans" font-size="10.00">hops::MHO_MD5HashGenerator</text>
<text text-anchor="start" x="394" y="-37" font-family="FreeSans" font-size="10.00">MultiType&lt; XValueType,</text>
<text text-anchor="middle" x="464.5" y="-26" font-family="FreeSans" font-size="10.00"> XValueTypeS... &gt;</text>
</a>
</g>
</g>
<!-- Node2 -->
<g id="node2" class="node">
<title>Node2</title>
<g id="a_node2"><a xlink:href="classhops_1_1MHO__MD5HashGeneratorMultiType_3_01XValueType_01_4.html" target="_top" xlink:title="Class MHO_MD5HashGeneratorMultiType&lt;XValueType&gt; declares the specialization for the base case of the ...">
<polygon fill="white" stroke="black" points="193,-49.5 193,-79.5 350,-79.5 350,-49.5 193,-49.5"/>
<text text-anchor="start" x="201" y="-67.5" font-family="FreeSans" font-size="10.00">hops::MHO_MD5HashGenerator</text>
<text text-anchor="middle" x="271.5" y="-56.5" font-family="FreeSans" font-size="10.00">MultiType&lt; XValueType &gt;</text>
</a>
</g>
</g>
<!-- Node2&#45;&gt;Node1 -->
<g id="edge1" class="edge">
<title>Node2&#45;&gt;Node1</title>
<path fill="none" stroke="midnightblue" d="M360.19,-53.02C368.76,-51.9 377.42,-50.77 385.88,-49.66"/>
<polygon fill="midnightblue" stroke="midnightblue" points="359.65,-49.56 350.19,-54.33 360.56,-56.5 359.65,-49.56"/>
</g>
<!-- Node3 -->
<g id="node3" class="node">
<title>Node3</title>
<g id="a_node3"><a xlink:href="classhops_1_1MHO__MD5HashGeneratorSingleType.html" target="_top" xlink:title="Class MHO_MD5HashGeneratorSingleType &#45; template class for a single&#45;type streamer, generic for most PO...">
<polygon fill="white" stroke="black" points="0,-49.5 0,-79.5 157,-79.5 157,-49.5 0,-49.5"/>
<text text-anchor="start" x="8" y="-67.5" font-family="FreeSans" font-size="10.00">hops::MHO_MD5HashGenerator</text>
<text text-anchor="middle" x="78.5" y="-56.5" font-family="FreeSans" font-size="10.00">SingleType&lt; XValueType &gt;</text>
</a>
</g>
</g>
<!-- Node3&#45;&gt;Node2 -->
<g id="edge2" class="edge">
<title>Node3&#45;&gt;Node2</title>
<path fill="none" stroke="midnightblue" d="M167.19,-64.5C175.76,-64.5 184.42,-64.5 192.88,-64.5"/>
<polygon fill="midnightblue" stroke="midnightblue" points="167.19,-61 157.19,-64.5 167.19,-68 167.19,-61"/>
</g>
<!-- Node4 -->
<g id="node4" class="node">
<title>Node4</title>
<g id="a_node4"><a xlink:href="classhops_1_1MHO__MD5HashGeneratorMultiType.html" target="_top" xlink:title=" ">
<polygon fill="white" stroke="black" points="193,-0.5 193,-30.5 350,-30.5 350,-0.5 193,-0.5"/>
<text text-anchor="start" x="201" y="-18.5" font-family="FreeSans" font-size="10.00">hops::MHO_MD5HashGenerator</text>
<text text-anchor="middle" x="271.5" y="-7.5" font-family="FreeSans" font-size="10.00">MultiType&lt; XValueTypeS... &gt;</text>
</a>
</g>
</g>
<!-- Node4&#45;&gt;Node1 -->
<g id="edge3" class="edge">
<title>Node4&#45;&gt;Node1</title>
<path fill="none" stroke="midnightblue" d="M360.19,-26.52C368.76,-27.6 377.42,-28.68 385.88,-29.75"/>
<polygon fill="midnightblue" stroke="midnightblue" points="360.55,-23.04 350.19,-25.26 359.67,-29.98 360.55,-23.04"/>
</g>
</g>
</svg>
