<?xml version="1.0" encoding="UTF-8" standalone="no"?>
<!DOCTYPE svg PUBLIC "-//W3C//DTD SVG 1.1//EN"
 "http://www.w3.org/Graphics/SVG/1.1/DTD/svg11.dtd">
<!-- Generated by graphviz version 2.43.0 (0)
 -->
<!-- Title: hops::MHO_JSONWrapper Pages: 1 -->
<svg width="678pt" height="731pt"
 viewBox="0.00 0.00 678.00 731.00" xmlns="http://www.w3.org/2000/svg" xmlns:xlink="http://www.w3.org/1999/xlink">
<g id="graph0" class="graph" transform="scale(1 1) rotate(0) translate(4 727)">
<title>hops::MHO_JSONWrapper</title>
<polygon fill="white" stroke="transparent" points="-4,4 -4,-727 674,-727 674,4 -4,4"/>
<!-- Node1 -->
<g id="node1" class="node">
<title>Node1</title>
<g id="a_node1"><a xlink:title=" ">
<polygon fill="#bfbfbf" stroke="black" points="0,-336.5 0,-355.5 134,-355.5 134,-336.5 0,-336.5"/>
<text text-anchor="middle" x="67" y="-343.5" font-family="FreeSans" font-size="10.00">hops::MHO_JSONWrapper</text>
</a>
</g>
</g>
<!-- Node2 -->
<g id="node2" class="node">
<title>Node2</title>
<g id="a_node2"><a xlink:href="classhops_1_1MHO__Taggable.html" target="_top" xlink:title="Class MHO_Taggable.">
<polygon fill="white" stroke="black" points="170,-336.5 170,-355.5 280,-355.5 280,-336.5 170,-336.5"/>
<text text-anchor="middle" x="225" y="-343.5" font-family="FreeSans" font-size="10.00">hops::MHO_Taggable</text>
</a>
</g>
</g>
<!-- Node1&#45;&gt;Node2 -->
<g id="edge1" class="edge">
<title>Node1&#45;&gt;Node2</title>
<path fill="none" stroke="midnightblue" d="M144.17,-346C152.73,-346 161.32,-346 169.53,-346"/>
<polygon fill="midnightblue" stroke="midnightblue" points="144.16,-342.5 134.16,-346 144.16,-349.5 144.16,-342.5"/>
</g>
<!-- Node3 -->
<g id="node3" class="node">
<title>Node3</title>
<g id="a_node3"><a xlink:href="classhops_1_1MHO__TableContainer.html" target="_top" xlink:title=" ">
<polygon fill="white" stroke="black" points="328,-681.5 328,-722.5 464,-722.5 464,-681.5 328,-681.5"/>
<text text-anchor="start" x="336" y="-710.5" font-family="FreeSans" font-size="10.00">hops::MHO_TableContainer</text>
<text text-anchor="start" x="336" y="-699.5" font-family="FreeSans" font-size="10.00">&lt; double, MHO_AxisPack</text>
<text text-anchor="middle" x="396" y="-688.5" font-family="FreeSans" font-size="10.00">&lt; MHO_Axis&lt; double &gt; &gt; &gt;</text>
</a>
</g>
</g>
<!-- Node2&#45;&gt;Node3 -->
<g id="edge2" class="edge">
<title>Node2&#45;&gt;Node3</title>
<path fill="none" stroke="midnightblue" d="M225.63,-366.03C225.7,-421.92 233.52,-581.41 316,-672 319.46,-675.8 323.45,-679.12 327.76,-682.02"/>
<polygon fill="midnightblue" stroke="midnightblue" points="229.13,-365.76 225.71,-355.74 222.14,-365.71 229.13,-365.76"/>
</g>
<!-- Node4 -->
<g id="node4" class="node">
<title>Node4</title>
<g id="a_node4"><a xlink:href="classhops_1_1MHO__TableContainer.html" target="_top" xlink:title=" ">
<polygon fill="white" stroke="black" points="328,-621.5 328,-662.5 464,-662.5 464,-621.5 328,-621.5"/>
<text text-anchor="start" x="336" y="-650.5" font-family="FreeSans" font-size="10.00">hops::MHO_TableContainer</text>
<text text-anchor="start" x="336" y="-639.5" font-family="FreeSans" font-size="10.00">&lt; visibility_element_type,</text>
<text text-anchor="middle" x="396" y="-628.5" font-family="FreeSans" font-size="10.00"> mbd_dr_axis_pack &gt;</text>
</a>
</g>
</g>
<!-- Node2&#45;&gt;Node4 -->
<g id="edge3" class="edge">
<title>Node2&#45;&gt;Node4</title>
<path fill="none" stroke="midnightblue" d="M227.11,-365.84C230.86,-414.41 247.09,-540.51 316,-612 319.56,-615.7 323.63,-618.94 327.99,-621.79"/>
<polygon fill="midnightblue" stroke="midnightblue" points="230.59,-365.46 226.42,-355.72 223.6,-365.93 230.59,-365.46"/>
</g>
<!-- Node5 -->
<g id="node5" class="node">
<title>Node5</title>
<g id="a_node5"><a xlink:href="classhops_1_1MHO__TableContainer.html" target="_top" xlink:title=" ">
<polygon fill="white" stroke="black" points="328,-572 328,-602 464,-602 464,-572 328,-572"/>
<text text-anchor="start" x="336" y="-590" font-family="FreeSans" font-size="10.00">hops::MHO_TableContainer</text>
<text text-anchor="middle" x="396" y="-579" font-family="FreeSans" font-size="10.00">&lt; double, mbd_axis_pack &gt;</text>
</a>
</g>
</g>
<!-- Node2&#45;&gt;Node5 -->
<g id="edge4" class="edge">
<title>Node2&#45;&gt;Node5</title>
<path fill="none" stroke="midnightblue" d="M228.64,-365.96C235.31,-408.32 256.71,-507.73 316,-562 320.24,-565.89 325.09,-569.17 330.25,-571.94"/>
<polygon fill="midnightblue" stroke="midnightblue" points="232.07,-365.22 227.16,-355.83 225.15,-366.23 232.07,-365.22"/>
</g>
<!-- Node6 -->
<g id="node6" class="node">
<title>Node6</title>
<g id="a_node6"><a xlink:href="classhops_1_1MHO__TableContainer.html" target="_top" xlink:title=" ">
<polygon fill="white" stroke="black" points="323,-511.5 323,-552.5 469,-552.5 469,-511.5 323,-511.5"/>
<text text-anchor="start" x="331" y="-540.5" font-family="FreeSans" font-size="10.00">hops::MHO_TableContainer</text>
<text text-anchor="start" x="331" y="-529.5" font-family="FreeSans" font-size="10.00">&lt; pcal_phasor_type, multitone</text>
<text text-anchor="middle" x="396" y="-518.5" font-family="FreeSans" font-size="10.00">_pcal_axis_type &gt;</text>
</a>
</g>
</g>
<!-- Node2&#45;&gt;Node6 -->
<g id="edge5" class="edge">
<title>Node2&#45;&gt;Node6</title>
<path fill="none" stroke="midnightblue" d="M232.24,-365.23C243.75,-397.79 271.29,-463.94 316,-502 320.13,-505.52 324.72,-508.65 329.55,-511.42"/>
<polygon fill="midnightblue" stroke="midnightblue" points="235.49,-363.9 228.96,-355.56 228.86,-366.16 235.49,-363.9"/>
</g>
<!-- Node7 -->
<g id="node7" class="node">
<title>Node7</title>
<g id="a_node7"><a xlink:href="classhops_1_1MHO__TableContainer.html" target="_top" xlink:title=" ">
<polygon fill="white" stroke="black" points="328,-451.5 328,-492.5 464,-492.5 464,-451.5 328,-451.5"/>
<text text-anchor="start" x="336" y="-480.5" font-family="FreeSans" font-size="10.00">hops::MHO_TableContainer</text>
<text text-anchor="start" x="336" y="-469.5" font-family="FreeSans" font-size="10.00">&lt; visibility_element_type,</text>
<text text-anchor="middle" x="396" y="-458.5" font-family="FreeSans" font-size="10.00"> mbd_axis_pack &gt;</text>
</a>
</g>
</g>
<!-- Node2&#45;&gt;Node7 -->
<g id="edge6" class="edge">
<title>Node2&#45;&gt;Node7</title>
<path fill="none" stroke="midnightblue" d="M238.55,-363.67C254.42,-384.88 283.62,-420.3 316,-442 321.12,-445.43 326.68,-448.54 332.41,-451.35"/>
<polygon fill="midnightblue" stroke="midnightblue" points="241.32,-361.53 232.59,-355.53 235.67,-365.67 241.32,-361.53"/>
</g>
<!-- Node8 -->
<g id="node8" class="node">
<title>Node8</title>
<g id="a_node8"><a xlink:href="classhops_1_1MHO__TableContainer.html" target="_top" xlink:title=" ">
<polygon fill="white" stroke="black" points="328,-391.5 328,-432.5 464,-432.5 464,-391.5 328,-391.5"/>
<text text-anchor="start" x="336" y="-420.5" font-family="FreeSans" font-size="10.00">hops::MHO_TableContainer</text>
<text text-anchor="start" x="336" y="-409.5" font-family="FreeSans" font-size="10.00">&lt; weight_element_type,</text>
<text text-anchor="middle" x="396" y="-398.5" font-family="FreeSans" font-size="10.00"> baseline_axis_pack &gt;</text>
</a>
</g>
</g>
<!-- Node2&#45;&gt;Node8 -->
<g id="edge7" class="edge">
<title>Node2&#45;&gt;Node8</title>
<path fill="none" stroke="midnightblue" d="M259.12,-359.41C276.1,-366.24 297.13,-374.64 316,-382 323.93,-385.09 332.32,-388.32 340.56,-391.47"/>
<polygon fill="midnightblue" stroke="midnightblue" points="260.22,-356.08 249.64,-355.59 257.61,-362.57 260.22,-356.08"/>
</g>
<!-- Node9 -->
<g id="node9" class="node">
<title>Node9</title>
<g id="a_node9"><a xlink:href="classhops_1_1MHO__TableContainer.html" target="_top" xlink:title=" ">
<polygon fill="white" stroke="black" points="318.5,-320 318.5,-372 473.5,-372 473.5,-320 318.5,-320"/>
<text text-anchor="start" x="326.5" y="-360" font-family="FreeSans" font-size="10.00">hops::MHO_TableContainer</text>
<text text-anchor="start" x="326.5" y="-349" font-family="FreeSans" font-size="10.00">&lt; std::complex&lt; double</text>
<text text-anchor="start" x="326.5" y="-338" font-family="FreeSans" font-size="10.00"> &gt;, MHO_AxisPack&lt; MHO_Axis</text>
<text text-anchor="middle" x="396" y="-327" font-family="FreeSans" font-size="10.00">&lt; double &gt; &gt; &gt;</text>
</a>
</g>
</g>
<!-- Node2&#45;&gt;Node9 -->
<g id="edge8" class="edge">
<title>Node2&#45;&gt;Node9</title>
<path fill="none" stroke="midnightblue" d="M290.48,-346C299.56,-346 308.96,-346 318.23,-346"/>
<polygon fill="midnightblue" stroke="midnightblue" points="290.4,-342.5 280.4,-346 290.4,-349.5 290.4,-342.5"/>
</g>
<!-- Node10 -->
<g id="node10" class="node">
<title>Node10</title>
<g id="a_node10"><a xlink:href="classhops_1_1MHO__TableContainer.html" target="_top" xlink:title=" ">
<polygon fill="white" stroke="black" points="328,-259.5 328,-300.5 464,-300.5 464,-259.5 328,-259.5"/>
<text text-anchor="start" x="336" y="-288.5" font-family="FreeSans" font-size="10.00">hops::MHO_TableContainer</text>
<text text-anchor="start" x="336" y="-277.5" font-family="FreeSans" font-size="10.00">&lt; std::complex&lt; double</text>
<text text-anchor="middle" x="396" y="-266.5" font-family="FreeSans" font-size="10.00"> &gt;, pcal_axis_pack &gt;</text>
</a>
</g>
</g>
<!-- Node2&#45;&gt;Node10 -->
<g id="edge9" class="edge">
<title>Node2&#45;&gt;Node10</title>
<path fill="none" stroke="midnightblue" d="M260.15,-332.66C283.77,-323.44 315.65,-310.99 342.48,-300.51"/>
<polygon fill="midnightblue" stroke="midnightblue" points="258.62,-329.51 250.57,-336.4 261.16,-336.03 258.62,-329.51"/>
</g>
<!-- Node11 -->
<g id="node11" class="node">
<title>Node11</title>
<g id="a_node11"><a xlink:href="classhops_1_1MHO__TableContainer.html" target="_top" xlink:title=" ">
<polygon fill="white" stroke="black" points="328,-199.5 328,-240.5 464,-240.5 464,-199.5 328,-199.5"/>
<text text-anchor="start" x="336" y="-228.5" font-family="FreeSans" font-size="10.00">hops::MHO_TableContainer</text>
<text text-anchor="start" x="336" y="-217.5" font-family="FreeSans" font-size="10.00">&lt; visibility_element_type,</text>
<text text-anchor="middle" x="396" y="-206.5" font-family="FreeSans" font-size="10.00"> baseline_axis_pack &gt;</text>
</a>
</g>
</g>
<!-- Node2&#45;&gt;Node11 -->
<g id="edge10" class="edge">
<title>Node2&#45;&gt;Node11</title>
<path fill="none" stroke="midnightblue" d="M238.55,-328.33C254.42,-307.12 283.62,-271.7 316,-250 321.12,-246.57 326.68,-243.46 332.41,-240.65"/>
<polygon fill="midnightblue" stroke="midnightblue" points="235.67,-326.33 232.59,-336.47 241.32,-330.47 235.67,-326.33"/>
</g>
<!-- Node12 -->
<g id="node12" class="node">
<title>Node12</title>
<g id="a_node12"><a xlink:href="classhops_1_1MHO__ObjectTags.html" target="_top" xlink:title="Class MHO_ObjectTags.">
<polygon fill="white" stroke="black" points="335.5,-161.5 335.5,-180.5 456.5,-180.5 456.5,-161.5 335.5,-161.5"/>
<text text-anchor="middle" x="396" y="-168.5" font-family="FreeSans" font-size="10.00">hops::MHO_ObjectTags</text>
</a>
</g>
</g>
<!-- Node2&#45;&gt;Node12 -->
<g id="edge11" class="edge">
<title>Node2&#45;&gt;Node12</title>
<path fill="none" stroke="midnightblue" d="M231.75,-326.15C242.51,-292.66 268.97,-225.15 316,-190 321.76,-185.69 328.36,-182.35 335.24,-179.75"/>
<polygon fill="midnightblue" stroke="midnightblue" points="228.28,-325.52 228.69,-336.11 234.97,-327.58 228.28,-325.52"/>
</g>
<!-- Node13 -->
<g id="node13" class="node">
<title>Node13</title>
<g id="a_node13"><a xlink:href="classhops_1_1MHO__ScalarContainer.html" target="_top" xlink:title="MHO_ScalarContainer, and wrapper class for storage of a scalar object.">
<polygon fill="white" stroke="black" points="326,-112 326,-142 466,-142 466,-112 326,-112"/>
<text text-anchor="start" x="334" y="-130" font-family="FreeSans" font-size="10.00">hops::MHO_ScalarContainer</text>
<text text-anchor="middle" x="396" y="-119" font-family="FreeSans" font-size="10.00">&lt; XValueType &gt;</text>
</a>
</g>
</g>
<!-- Node2&#45;&gt;Node13 -->
<g id="edge12" class="edge">
<title>Node2&#45;&gt;Node13</title>
<path fill="none" stroke="midnightblue" d="M229.61,-326.46C237.83,-287.52 261.59,-199.87 316,-152 320.43,-148.1 325.46,-144.82 330.8,-142.04"/>
<polygon fill="midnightblue" stroke="midnightblue" points="226.18,-325.79 227.66,-336.29 233.04,-327.16 226.18,-325.79"/>
</g>
<!-- Node14 -->
<g id="node14" class="node">
<title>Node14</title>
<g id="a_node14"><a xlink:href="classhops_1_1MHO__TableContainer.html" target="_top" xlink:title="Class MHO_TableContainer.">
<polygon fill="white" stroke="black" points="316,-63 316,-93 476,-93 476,-63 316,-63"/>
<text text-anchor="start" x="324" y="-81" font-family="FreeSans" font-size="10.00">hops::MHO_TableContainer</text>
<text text-anchor="middle" x="396" y="-70" font-family="FreeSans" font-size="10.00">&lt; XValueType, XAxisPackType &gt;</text>
</a>
</g>
</g>
<!-- Node2&#45;&gt;Node14 -->
<g id="edge13" class="edge">
<title>Node2&#45;&gt;Node14</title>
<path fill="none" stroke="midnightblue" d="M227.55,-326.42C232.23,-280.62 250.25,-165.66 316,-103 320.06,-99.13 324.72,-95.86 329.7,-93.09"/>
<polygon fill="midnightblue" stroke="midnightblue" points="224.05,-326.22 226.63,-336.5 231.02,-326.86 224.05,-326.22"/>
</g>
<!-- Node15 -->
<g id="node15" class="node">
<title>Node15</title>
<g id="a_node15"><a xlink:href="classhops_1_1MHO__VectorContainer.html" target="_top" xlink:title="MHO_VectorContainer &#45; basis for for axis data objects in HOPS4, it is an 1&#45;dimensional array object,...">
<polygon fill="white" stroke="black" points="326,-14 326,-44 466,-44 466,-14 326,-14"/>
<text text-anchor="start" x="334" y="-32" font-family="FreeSans" font-size="10.00">hops::MHO_VectorContainer</text>
<text text-anchor="middle" x="396" y="-21" font-family="FreeSans" font-size="10.00">&lt; XValueType &gt;</text>
</a>
</g>
</g>
<!-- Node2&#45;&gt;Node15 -->
<g id="edge14" class="edge">
<title>Node2&#45;&gt;Node15</title>
<path fill="none" stroke="midnightblue" d="M226.14,-326.11C227.61,-273.91 238.87,-131.71 316,-54 319.85,-50.12 324.3,-46.84 329.08,-44.07"/>
<polygon fill="midnightblue" stroke="midnightblue" points="222.64,-326.28 225.95,-336.34 229.64,-326.41 222.64,-326.28"/>
</g>
<!-- Node16 -->
<g id="node16" class="node">
<title>Node16</title>
<g id="a_node16"><a xlink:href="classhops_1_1MHO__Axis.html" target="_top" xlink:title=" ">
<polygon fill="white" stroke="black" points="524,-38.5 524,-57.5 658,-57.5 658,-38.5 524,-38.5"/>
<text text-anchor="middle" x="591" y="-45.5" font-family="FreeSans" font-size="10.00">hops::MHO_Axis&lt; double &gt;</text>
</a>
</g>
</g>
<!-- Node15&#45;&gt;Node16 -->
<g id="edge15" class="edge">
<title>Node15&#45;&gt;Node16</title>
<path fill="none" stroke="midnightblue" d="M476.41,-36.82C492.21,-38.37 508.64,-39.99 523.93,-41.5"/>
<polygon fill="midnightblue" stroke="midnightblue" points="476.43,-33.3 466.13,-35.81 475.74,-40.27 476.43,-33.3"/>
</g>
<!-- Node17 -->
<g id="node17" class="node">
<title>Node17</title>
<g id="a_node17"><a xlink:href="classhops_1_1MHO__Axis.html" target="_top" xlink:title="Class MHO_Axis.">
<polygon fill="white" stroke="black" points="512,-0.5 512,-19.5 670,-19.5 670,-0.5 512,-0.5"/>
<text text-anchor="middle" x="591" y="-7.5" font-family="FreeSans" font-size="10.00">hops::MHO_Axis&lt; XValueType &gt;</text>
</a>
</g>
</g>
<!-- Node15&#45;&gt;Node17 -->
<g id="edge16" class="edge">
<title>Node15&#45;&gt;Node17</title>
<path fill="none" stroke="midnightblue" d="M476.33,-21.19C488.06,-20.04 500.14,-18.85 511.84,-17.69"/>
<polygon fill="midnightblue" stroke="midnightblue" points="475.74,-17.73 466.13,-22.19 476.43,-24.7 475.74,-17.73"/>
</g>
</g>
</svg>
