<?xml version="1.0" encoding="UTF-8" standalone="no"?>
<!DOCTYPE svg PUBLIC "-//W3C//DTD SVG 1.1//EN"
 "http://www.w3.org/Graphics/SVG/1.1/DTD/svg11.dtd">
<!-- Generated by graphviz version 2.43.0 (0)
 -->
<!-- Title: hops::MHO_MBDelaySearchCUDA Pages: 1 -->
<svg width="176pt" height="207pt"
 viewBox="0.00 0.00 176.00 207.00" xmlns="http://www.w3.org/2000/svg" xmlns:xlink="http://www.w3.org/1999/xlink">
<g id="graph0" class="graph" transform="scale(1 1) rotate(0) translate(4 203)">
<title>hops::MHO_MBDelaySearchCUDA</title>
<polygon fill="white" stroke="transparent" points="-4,4 -4,-203 172,-203 172,4 -4,4"/>
<!-- Node1 -->
<g id="node1" class="node">
<title>Node1</title>
<g id="a_node1"><a xlink:title="Class MHO_MBDelaySearchCUDA.">
<polygon fill="#bfbfbf" stroke="black" points="0,-0.5 0,-19.5 168,-19.5 168,-0.5 0,-0.5"/>
<text text-anchor="middle" x="84" y="-7.5" font-family="FreeSans" font-size="10.00">hops::MHO_MBDelaySearchCUDA</text>
</a>
</g>
</g>
<!-- Node2 -->
<g id="node2" class="node">
<title>Node2</title>
<g id="a_node2"><a xlink:href="classhops_1_1MHO__MBDelaySearch.html" target="_top" xlink:title="Class MHO_MBDelaySearch.">
<polygon fill="white" stroke="black" points="14,-56.5 14,-75.5 154,-75.5 154,-56.5 14,-56.5"/>
<text text-anchor="middle" x="84" y="-63.5" font-family="FreeSans" font-size="10.00">hops::MHO_MBDelaySearch</text>
</a>
</g>
</g>
<!-- Node2&#45;&gt;Node1 -->
<g id="edge1" class="edge">
<title>Node2&#45;&gt;Node1</title>
<path fill="none" stroke="midnightblue" d="M84,-45.8C84,-36.91 84,-26.78 84,-19.75"/>
<polygon fill="midnightblue" stroke="midnightblue" points="80.5,-46.08 84,-56.08 87.5,-46.08 80.5,-46.08"/>
</g>
<!-- Node3 -->
<g id="node3" class="node">
<title>Node3</title>
<g id="a_node3"><a xlink:href="classhops_1_1MHO__InspectingOperator.html" target="_top" xlink:title=" ">
<polygon fill="white" stroke="black" points="7.5,-112.5 7.5,-142.5 160.5,-142.5 160.5,-112.5 7.5,-112.5"/>
<text text-anchor="start" x="15.5" y="-130.5" font-family="FreeSans" font-size="10.00">hops::MHO_InspectingOperator</text>
<text text-anchor="middle" x="84" y="-119.5" font-family="FreeSans" font-size="10.00">&lt; visibility_type &gt;</text>
</a>
</g>
</g>
<!-- Node3&#45;&gt;Node2 -->
<g id="edge2" class="edge">
<title>Node3&#45;&gt;Node2</title>
<path fill="none" stroke="midnightblue" d="M84,-102.29C84,-92.86 84,-82.65 84,-75.66"/>
<polygon fill="midnightblue" stroke="midnightblue" points="80.5,-102.4 84,-112.4 87.5,-102.4 80.5,-102.4"/>
</g>
<!-- Node4 -->
<g id="node4" class="node">
<title>Node4</title>
<g id="a_node4"><a xlink:href="classhops_1_1MHO__Operator.html" target="_top" xlink:title="Class MHO_Operator.">
<polygon fill="white" stroke="black" points="30,-179.5 30,-198.5 138,-198.5 138,-179.5 30,-179.5"/>
<text text-anchor="middle" x="84" y="-186.5" font-family="FreeSans" font-size="10.00">hops::MHO_Operator</text>
</a>
</g>
</g>
<!-- Node4&#45;&gt;Node3 -->
<g id="edge3" class="edge">
<title>Node4&#45;&gt;Node3</title>
<path fill="none" stroke="midnightblue" d="M84,-169.23C84,-160.59 84,-150.5 84,-142.52"/>
<polygon fill="midnightblue" stroke="midnightblue" points="80.5,-169.48 84,-179.48 87.5,-169.48 80.5,-169.48"/>
</g>
</g>
</svg>
