<?xml version="1.0" encoding="UTF-8" standalone="no"?>
<!DOCTYPE svg PUBLIC "-//W3C//DTD SVG 1.1//EN"
 "http://www.w3.org/Graphics/SVG/1.1/DTD/svg11.dtd">
<!-- Generated by graphviz version 2.43.0 (0)
 -->
<!-- Title: hops::MHO_UnaryOperator&lt; XArgType &gt; Pages: 1 -->
<svg width="492pt" height="296pt"
 viewBox="0.00 0.00 492.00 296.00" xmlns="http://www.w3.org/2000/svg" xmlns:xlink="http://www.w3.org/1999/xlink">
<g id="graph0" class="graph" transform="scale(1 1) rotate(0) translate(4 292)">
<title>hops::MHO_UnaryOperator&lt; XArgType &gt;</title>
<polygon fill="white" stroke="transparent" points="-4,4 -4,-292 488,-292 488,4 -4,4"/>
<!-- Node1 -->
<g id="node1" class="node">
<title>Node1</title>
<g id="a_node1"><a xlink:title="Class MHO_UnaryOperator.">
<polygon fill="#bfbfbf" stroke="black" points="144,-134.5 144,-164.5 278,-164.5 278,-134.5 144,-134.5"/>
<text text-anchor="start" x="152" y="-152.5" font-family="FreeSans" font-size="10.00">hops::MHO_UnaryOperator</text>
<text text-anchor="middle" x="211" y="-141.5" font-family="FreeSans" font-size="10.00">&lt; XArgType &gt;</text>
</a>
</g>
</g>
<!-- Node3 -->
<g id="node3" class="node">
<title>Node3</title>
<g id="a_node3"><a xlink:href="classhops_1_1MHO__MultidimensionalFastFourierTransform.html" target="_top" xlink:title=" ">
<polygon fill="white" stroke="black" points="314.5,-257.5 314.5,-287.5 483.5,-287.5 483.5,-257.5 314.5,-257.5"/>
<text text-anchor="start" x="322.5" y="-275.5" font-family="FreeSans" font-size="10.00">hops::MHO_Multidimensional</text>
<text text-anchor="middle" x="399" y="-264.5" font-family="FreeSans" font-size="10.00">FastFourierTransform&lt; mbd_type &gt;</text>
</a>
</g>
</g>
<!-- Node1&#45;&gt;Node3 -->
<g id="edge2" class="edge">
<title>Node1&#45;&gt;Node3</title>
<path fill="none" stroke="midnightblue" d="M229.99,-172.65C248.67,-195.17 279.9,-228.78 314,-248.5 319.91,-251.92 326.33,-254.87 332.91,-257.43"/>
<polygon fill="midnightblue" stroke="midnightblue" points="232.49,-170.17 223.46,-164.61 227.05,-174.58 232.49,-170.17"/>
</g>
<!-- Node4 -->
<g id="node4" class="node">
<title>Node4</title>
<g id="a_node4"><a xlink:href="classhops_1_1MHO__MultidimensionalFastFourierTransform.html" target="_top" xlink:title=" ">
<polygon fill="white" stroke="black" points="315,-208.5 315,-238.5 483,-238.5 483,-208.5 315,-208.5"/>
<text text-anchor="start" x="323" y="-226.5" font-family="FreeSans" font-size="10.00">hops::MHO_Multidimensional</text>
<text text-anchor="middle" x="399" y="-215.5" font-family="FreeSans" font-size="10.00">FastFourierTransform&lt; pcal_type &gt;</text>
</a>
</g>
</g>
<!-- Node1&#45;&gt;Node4 -->
<g id="edge3" class="edge">
<title>Node1&#45;&gt;Node4</title>
<path fill="none" stroke="midnightblue" d="M248.52,-169.36C267.65,-179.27 291.69,-190.92 314,-199.5 322.35,-202.71 331.32,-205.72 340.17,-208.44"/>
<polygon fill="midnightblue" stroke="midnightblue" points="250.03,-166.2 239.54,-164.66 246.78,-172.4 250.03,-166.2"/>
</g>
<!-- Node5 -->
<g id="node5" class="node">
<title>Node5</title>
<g id="a_node5"><a xlink:href="classhops_1_1MHO__EndZeroPadder.html" target="_top" xlink:title="Class MHO_EndZeroPadder.">
<polygon fill="white" stroke="black" points="330.5,-159.5 330.5,-189.5 467.5,-189.5 467.5,-159.5 330.5,-159.5"/>
<text text-anchor="start" x="338.5" y="-177.5" font-family="FreeSans" font-size="10.00">hops::MHO_EndZeroPadder</text>
<text text-anchor="middle" x="399" y="-166.5" font-family="FreeSans" font-size="10.00">&lt; XArgType &gt;</text>
</a>
</g>
</g>
<!-- Node1&#45;&gt;Node5 -->
<g id="edge4" class="edge">
<title>Node1&#45;&gt;Node5</title>
<path fill="none" stroke="midnightblue" d="M288.14,-159.73C302.08,-161.61 316.55,-163.55 330.23,-165.39"/>
<polygon fill="midnightblue" stroke="midnightblue" points="288.48,-156.25 278.1,-158.38 287.54,-163.19 288.48,-156.25"/>
</g>
<!-- Node6 -->
<g id="node6" class="node">
<title>Node6</title>
<g id="a_node6"><a xlink:href="classhops_1_1MHO__MultidimensionalFastFourierTransform.html" target="_top" xlink:title="Class MHO_MultidimensionalFastFourierTransform.">
<polygon fill="white" stroke="black" points="314,-110.5 314,-140.5 484,-140.5 484,-110.5 314,-110.5"/>
<text text-anchor="start" x="322" y="-128.5" font-family="FreeSans" font-size="10.00">hops::MHO_Multidimensional</text>
<text text-anchor="middle" x="399" y="-117.5" font-family="FreeSans" font-size="10.00">FastFourierTransform&lt; XArgType &gt;</text>
</a>
</g>
</g>
<!-- Node1&#45;&gt;Node6 -->
<g id="edge5" class="edge">
<title>Node1&#45;&gt;Node6</title>
<path fill="none" stroke="midnightblue" d="M288.28,-139.66C296.73,-138.57 305.36,-137.45 313.89,-136.35"/>
<polygon fill="midnightblue" stroke="midnightblue" points="287.57,-136.22 278.1,-140.97 288.47,-143.16 287.57,-136.22"/>
</g>
<!-- Node7 -->
<g id="node7" class="node">
<title>Node7</title>
<g id="a_node7"><a xlink:href="classhops_1_1MHO__MultidimensionalFastFourierTransformFFTW.html" target="_top" xlink:title="Class MHO_MultidimensionalFastFourierTransformFFTW.">
<polygon fill="white" stroke="black" points="327.5,-50 327.5,-91 470.5,-91 470.5,-50 327.5,-50"/>
<text text-anchor="start" x="335.5" y="-79" font-family="FreeSans" font-size="10.00">hops::MHO_Multidimensional</text>
<text text-anchor="start" x="335.5" y="-68" font-family="FreeSans" font-size="10.00">FastFourierTransformFFTW</text>
<text text-anchor="middle" x="399" y="-57" font-family="FreeSans" font-size="10.00">&lt; XArgType &gt;</text>
</a>
</g>
</g>
<!-- Node1&#45;&gt;Node7 -->
<g id="edge6" class="edge">
<title>Node1&#45;&gt;Node7</title>
<path fill="none" stroke="midnightblue" d="M250.7,-129.73C269.58,-120.39 292.75,-109.37 314,-100.5 321.72,-97.28 329.92,-94.08 338.05,-91.04"/>
<polygon fill="midnightblue" stroke="midnightblue" points="248.92,-126.71 241.53,-134.3 252.04,-132.97 248.92,-126.71"/>
</g>
<!-- Node8 -->
<g id="node8" class="node">
<title>Node8</title>
<g id="a_node8"><a xlink:href="classhops_1_1MHO__SelectRepack.html" target="_top" xlink:title="Class MHO_SelectRepack.">
<polygon fill="white" stroke="black" points="333.5,-0.5 333.5,-30.5 464.5,-30.5 464.5,-0.5 333.5,-0.5"/>
<text text-anchor="start" x="341.5" y="-18.5" font-family="FreeSans" font-size="10.00">hops::MHO_SelectRepack</text>
<text text-anchor="middle" x="399" y="-7.5" font-family="FreeSans" font-size="10.00">&lt; XArgType &gt;</text>
</a>
</g>
</g>
<!-- Node1&#45;&gt;Node8 -->
<g id="edge7" class="edge">
<title>Node1&#45;&gt;Node8</title>
<path fill="none" stroke="midnightblue" d="M228.09,-125.99C246.21,-101.24 277.88,-62.84 314,-40.5 320.21,-36.66 327.05,-33.38 334.05,-30.58"/>
<polygon fill="midnightblue" stroke="midnightblue" points="225.02,-124.27 222.04,-134.44 230.71,-128.34 225.02,-124.27"/>
</g>
<!-- Node2 -->
<g id="node2" class="node">
<title>Node2</title>
<g id="a_node2"><a xlink:href="classhops_1_1MHO__Operator.html" target="_top" xlink:title="Class MHO_Operator.">
<polygon fill="white" stroke="black" points="0,-140 0,-159 108,-159 108,-140 0,-140"/>
<text text-anchor="middle" x="54" y="-147" font-family="FreeSans" font-size="10.00">hops::MHO_Operator</text>
</a>
</g>
</g>
<!-- Node2&#45;&gt;Node1 -->
<g id="edge1" class="edge">
<title>Node2&#45;&gt;Node1</title>
<path fill="none" stroke="midnightblue" d="M118.46,-149.5C126.87,-149.5 135.51,-149.5 143.96,-149.5"/>
<polygon fill="midnightblue" stroke="midnightblue" points="118.34,-146 108.34,-149.5 118.34,-153 118.34,-146"/>
</g>
</g>
</svg>
