<?xml version="1.0" encoding="UTF-8" standalone="no"?>
<!DOCTYPE svg PUBLIC "-//W3C//DTD SVG 1.1//EN"
 "http://www.w3.org/Graphics/SVG/1.1/DTD/svg11.dtd">
<!-- Generated by graphviz version 2.43.0 (0)
 -->
<!-- Title: hops::MHO_VectorContainer&lt; XValueType &gt; Pages: 1 -->
<svg width="869pt" height="151pt"
 viewBox="0.00 0.00 869.00 151.00" xmlns="http://www.w3.org/2000/svg" xmlns:xlink="http://www.w3.org/1999/xlink">
<g id="graph0" class="graph" transform="scale(1 1) rotate(0) translate(4 147)">
<title>hops::MHO_VectorContainer&lt; XValueType &gt;</title>
<polygon fill="white" stroke="transparent" points="-4,4 -4,-147 865,-147 865,4 -4,4"/>
<!-- Node1 -->
<g id="node1" class="node">
<title>Node1</title>
<g id="a_node1"><a xlink:title="MHO_VectorContainer &#45; basis for for axis data objects in HOPS4, it is an 1&#45;dimensional array object,...">
<polygon fill="#bfbfbf" stroke="black" points="527,-74 527,-104 667,-104 667,-74 527,-74"/>
<text text-anchor="start" x="535" y="-92" font-family="FreeSans" font-size="10.00">hops::MHO_VectorContainer</text>
<text text-anchor="middle" x="597" y="-81" font-family="FreeSans" font-size="10.00">&lt; XValueType &gt;</text>
</a>
</g>
</g>
<!-- Node9 -->
<g id="node9" class="node">
<title>Node9</title>
<g id="a_node9"><a xlink:href="classhops_1_1MHO__Axis.html" target="_top" xlink:title=" ">
<polygon fill="white" stroke="black" points="715,-98.5 715,-117.5 849,-117.5 849,-98.5 715,-98.5"/>
<text text-anchor="middle" x="782" y="-105.5" font-family="FreeSans" font-size="10.00">hops::MHO_Axis&lt; double &gt;</text>
</a>
</g>
</g>
<!-- Node1&#45;&gt;Node9 -->
<g id="edge8" class="edge">
<title>Node1&#45;&gt;Node9</title>
<path fill="none" stroke="midnightblue" d="M677.15,-97.22C689.69,-98.52 702.54,-99.85 714.74,-101.12"/>
<polygon fill="midnightblue" stroke="midnightblue" points="677.49,-93.73 667.18,-96.18 676.77,-100.7 677.49,-93.73"/>
</g>
<!-- Node10 -->
<g id="node10" class="node">
<title>Node10</title>
<g id="a_node10"><a xlink:href="classhops_1_1MHO__Axis.html" target="_top" xlink:title="Class MHO_Axis.">
<polygon fill="white" stroke="black" points="703,-60.5 703,-79.5 861,-79.5 861,-60.5 703,-60.5"/>
<text text-anchor="middle" x="782" y="-67.5" font-family="FreeSans" font-size="10.00">hops::MHO_Axis&lt; XValueType &gt;</text>
</a>
</g>
</g>
<!-- Node1&#45;&gt;Node10 -->
<g id="edge9" class="edge">
<title>Node1&#45;&gt;Node10</title>
<path fill="none" stroke="midnightblue" d="M677.39,-80.76C685.82,-79.88 694.4,-78.99 702.83,-78.12"/>
<polygon fill="midnightblue" stroke="midnightblue" points="676.77,-77.3 667.18,-81.82 677.49,-84.27 676.77,-77.3"/>
</g>
<!-- Node2 -->
<g id="node2" class="node">
<title>Node2</title>
<g id="a_node2"><a xlink:href="classhops_1_1MHO__VectorContainerBase.html" target="_top" xlink:title=" ">
<polygon fill="white" stroke="black" points="328,-123.5 328,-142.5 491,-142.5 491,-123.5 328,-123.5"/>
<text text-anchor="middle" x="409.5" y="-130.5" font-family="FreeSans" font-size="10.00">hops::MHO_VectorContainerBase</text>
</a>
</g>
</g>
<!-- Node2&#45;&gt;Node1 -->
<g id="edge1" class="edge">
<title>Node2&#45;&gt;Node1</title>
<path fill="none" stroke="midnightblue" d="M460.85,-121.13C470.84,-118.77 481.25,-116.31 491,-114 504.58,-110.78 519.15,-107.32 532.99,-104.02"/>
<polygon fill="midnightblue" stroke="midnightblue" points="459.97,-117.74 451.04,-123.45 461.58,-124.56 459.97,-117.74"/>
</g>
<!-- Node3 -->
<g id="node3" class="node">
<title>Node3</title>
<g id="a_node3"><a xlink:href="classhops_1_1MHO__NDArrayWrapper_3_01XValueType_00_011_01_4.html" target="_top" xlink:title="Class MHO_NDArrayWrapper&lt;XValueType, 1&gt; specialization for a RANK&#45;1 (i.e. a vector)">
<polygon fill="white" stroke="black" points="338,-74 338,-104 481,-104 481,-74 338,-74"/>
<text text-anchor="start" x="346" y="-92" font-family="FreeSans" font-size="10.00">hops::MHO_NDArrayWrapper</text>
<text text-anchor="middle" x="409.5" y="-81" font-family="FreeSans" font-size="10.00">&lt; XValueType, 1 &gt;</text>
</a>
</g>
</g>
<!-- Node3&#45;&gt;Node1 -->
<g id="edge2" class="edge">
<title>Node3&#45;&gt;Node1</title>
<path fill="none" stroke="midnightblue" d="M491.42,-89C503.2,-89 515.24,-89 526.76,-89"/>
<polygon fill="midnightblue" stroke="midnightblue" points="491.16,-85.5 481.16,-89 491.16,-92.5 491.16,-85.5"/>
</g>
<!-- Node4 -->
<g id="node4" class="node">
<title>Node4</title>
<g id="a_node4"><a xlink:href="classhops_1_1MHO__ExtensibleElement.html" target="_top" xlink:title="Class MHO_ExtensibleElement.">
<polygon fill="white" stroke="black" points="142,-79.5 142,-98.5 292,-98.5 292,-79.5 142,-79.5"/>
<text text-anchor="middle" x="217" y="-86.5" font-family="FreeSans" font-size="10.00">hops::MHO_ExtensibleElement</text>
</a>
</g>
</g>
<!-- Node4&#45;&gt;Node3 -->
<g id="edge3" class="edge">
<title>Node4&#45;&gt;Node3</title>
<path fill="none" stroke="midnightblue" d="M302.52,-89C314.35,-89 326.4,-89 337.94,-89"/>
<polygon fill="midnightblue" stroke="midnightblue" points="302.2,-85.5 292.2,-89 302.2,-92.5 302.2,-85.5"/>
</g>
<!-- Node5 -->
<g id="node5" class="node">
<title>Node5</title>
<g id="a_node5"><a xlink:href="classhops_1_1MHO__Element.html" target="_top" xlink:title="Class MHO_Element.">
<polygon fill="white" stroke="black" points="0,-79.5 0,-98.5 106,-98.5 106,-79.5 0,-79.5"/>
<text text-anchor="middle" x="53" y="-86.5" font-family="FreeSans" font-size="10.00">hops::MHO_Element</text>
</a>
</g>
</g>
<!-- Node5&#45;&gt;Node4 -->
<g id="edge4" class="edge">
<title>Node5&#45;&gt;Node4</title>
<path fill="none" stroke="midnightblue" d="M116.21,-89C124.59,-89 133.26,-89 141.82,-89"/>
<polygon fill="midnightblue" stroke="midnightblue" points="116.15,-85.5 106.15,-89 116.15,-92.5 116.15,-85.5"/>
</g>
<!-- Node6 -->
<g id="node6" class="node">
<title>Node6</title>
<g id="a_node6"><a xlink:href="classhops_1_1MHO__Taggable.html" target="_top" xlink:title="Class MHO_Taggable.">
<polygon fill="white" stroke="black" points="354.5,-35.5 354.5,-54.5 464.5,-54.5 464.5,-35.5 354.5,-35.5"/>
<text text-anchor="middle" x="409.5" y="-42.5" font-family="FreeSans" font-size="10.00">hops::MHO_Taggable</text>
</a>
</g>
</g>
<!-- Node6&#45;&gt;Node1 -->
<g id="edge5" class="edge">
<title>Node6&#45;&gt;Node1</title>
<path fill="none" stroke="midnightblue" d="M460.85,-56.87C470.84,-59.23 481.25,-61.69 491,-64 504.58,-67.22 519.15,-70.68 532.99,-73.98"/>
<polygon fill="midnightblue" stroke="midnightblue" points="461.58,-53.44 451.04,-54.55 459.97,-60.26 461.58,-53.44"/>
</g>
<!-- Node7 -->
<g id="node7" class="node">
<title>Node7</title>
<g id="a_node7"><a xlink:href="classhops_1_1MHO__JSONWrapper.html" target="_top" xlink:title=" ">
<polygon fill="white" stroke="black" points="150,-38.5 150,-57.5 284,-57.5 284,-38.5 150,-38.5"/>
<text text-anchor="middle" x="217" y="-45.5" font-family="FreeSans" font-size="10.00">hops::MHO_JSONWrapper</text>
</a>
</g>
</g>
<!-- Node7&#45;&gt;Node6 -->
<g id="edge6" class="edge">
<title>Node7&#45;&gt;Node6</title>
<path fill="none" stroke="midnightblue" d="M294.2,-46.8C314.39,-46.48 335.76,-46.15 354.5,-45.85"/>
<polygon fill="midnightblue" stroke="midnightblue" points="294.04,-43.3 284.09,-46.96 294.15,-50.3 294.04,-43.3"/>
</g>
<!-- Node8 -->
<g id="node8" class="node">
<title>Node8</title>
<g id="a_node8"><a xlink:href="classhops_1_1MHO__Serializable.html" target="_top" xlink:title="Class MHO_Serializable.">
<polygon fill="white" stroke="black" points="157,-0.5 157,-19.5 277,-19.5 277,-0.5 157,-0.5"/>
<text text-anchor="middle" x="217" y="-7.5" font-family="FreeSans" font-size="10.00">hops::MHO_Serializable</text>
</a>
</g>
</g>
<!-- Node8&#45;&gt;Node6 -->
<g id="edge7" class="edge">
<title>Node8&#45;&gt;Node6</title>
<path fill="none" stroke="midnightblue" d="M279.85,-21.36C304.68,-25.93 332.98,-31.13 356.71,-35.48"/>
<polygon fill="midnightblue" stroke="midnightblue" points="280.27,-17.88 269.8,-19.52 279.01,-24.77 280.27,-17.88"/>
</g>
</g>
</svg>
