<?xml version="1.0" encoding="UTF-8" standalone="no"?>
<!DOCTYPE svg PUBLIC "-//W3C//DTD SVG 1.1//EN"
 "http://www.w3.org/Graphics/SVG/1.1/DTD/svg11.dtd">
<!-- Generated by graphviz version 2.43.0 (0)
 -->
<!-- Title: hops::MHO_Axis&lt; XValueType &gt; Pages: 1 -->
<svg width="894pt" height="154pt"
 viewBox="0.00 0.00 894.00 154.00" xmlns="http://www.w3.org/2000/svg" xmlns:xlink="http://www.w3.org/1999/xlink">
<g id="graph0" class="graph" transform="scale(1 1) rotate(0) translate(4 150)">
<title>hops::MHO_Axis&lt; XValueType &gt;</title>
<polygon fill="white" stroke="transparent" points="-4,4 -4,-150 890,-150 890,4 -4,4"/>
<!-- Node1 -->
<g id="node1" class="node">
<title>Node1</title>
<g id="a_node1"><a xlink:title="Class MHO_Axis.">
<polygon fill="#bfbfbf" stroke="black" points="728,-60.5 728,-79.5 886,-79.5 886,-60.5 728,-60.5"/>
<text text-anchor="middle" x="807" y="-67.5" font-family="FreeSans" font-size="10.00">hops::MHO_Axis&lt; XValueType &gt;</text>
</a>
</g>
</g>
<!-- Node2 -->
<g id="node2" class="node">
<title>Node2</title>
<g id="a_node2"><a xlink:href="classhops_1_1MHO__AxisBase.html" target="_top" xlink:title=" ">
<polygon fill="white" stroke="black" points="553.5,-126.5 553.5,-145.5 665.5,-145.5 665.5,-126.5 553.5,-126.5"/>
<text text-anchor="middle" x="609.5" y="-133.5" font-family="FreeSans" font-size="10.00">hops::MHO_AxisBase</text>
</a>
</g>
</g>
<!-- Node2&#45;&gt;Node1 -->
<g id="edge1" class="edge">
<title>Node2&#45;&gt;Node1</title>
<path fill="none" stroke="midnightblue" d="M667.16,-124.04C675.55,-121.91 684.04,-119.55 692,-117 725.64,-106.22 763.27,-89.81 785.78,-79.51"/>
<polygon fill="midnightblue" stroke="midnightblue" points="666.28,-120.65 657.4,-126.44 667.95,-127.45 666.28,-120.65"/>
</g>
<!-- Node3 -->
<g id="node3" class="node">
<title>Node3</title>
<g id="a_node3"><a xlink:href="classhops_1_1MHO__VectorContainer.html" target="_top" xlink:title="MHO_VectorContainer &#45; basis for for axis data objects in HOPS4, it is an 1&#45;dimensional array object,...">
<polygon fill="white" stroke="black" points="539.5,-77 539.5,-107 679.5,-107 679.5,-77 539.5,-77"/>
<text text-anchor="start" x="547.5" y="-95" font-family="FreeSans" font-size="10.00">hops::MHO_VectorContainer</text>
<text text-anchor="middle" x="609.5" y="-84" font-family="FreeSans" font-size="10.00">&lt; XValueType &gt;</text>
</a>
</g>
</g>
<!-- Node3&#45;&gt;Node1 -->
<g id="edge2" class="edge">
<title>Node3&#45;&gt;Node1</title>
<path fill="none" stroke="midnightblue" d="M689.7,-83.09C702.3,-81.67 715.32,-80.2 727.89,-78.79"/>
<polygon fill="midnightblue" stroke="midnightblue" points="689.25,-79.62 679.7,-84.21 690.03,-86.57 689.25,-79.62"/>
</g>
<!-- Node4 -->
<g id="node4" class="node">
<title>Node4</title>
<g id="a_node4"><a xlink:href="classhops_1_1MHO__VectorContainerBase.html" target="_top" xlink:title=" ">
<polygon fill="white" stroke="black" points="328,-126.5 328,-145.5 491,-145.5 491,-126.5 328,-126.5"/>
<text text-anchor="middle" x="409.5" y="-133.5" font-family="FreeSans" font-size="10.00">hops::MHO_VectorContainerBase</text>
</a>
</g>
</g>
<!-- Node4&#45;&gt;Node3 -->
<g id="edge3" class="edge">
<title>Node4&#45;&gt;Node3</title>
<path fill="none" stroke="midnightblue" d="M463.34,-124.26C487.09,-118.98 515.41,-112.69 540.71,-107.07"/>
<polygon fill="midnightblue" stroke="midnightblue" points="462.47,-120.87 453.46,-126.45 463.98,-127.7 462.47,-120.87"/>
</g>
<!-- Node5 -->
<g id="node5" class="node">
<title>Node5</title>
<g id="a_node5"><a xlink:href="classhops_1_1MHO__NDArrayWrapper_3_01XValueType_00_011_01_4.html" target="_top" xlink:title="Class MHO_NDArrayWrapper&lt;XValueType, 1&gt; specialization for a RANK&#45;1 (i.e. a vector)">
<polygon fill="white" stroke="black" points="338,-77 338,-107 481,-107 481,-77 338,-77"/>
<text text-anchor="start" x="346" y="-95" font-family="FreeSans" font-size="10.00">hops::MHO_NDArrayWrapper</text>
<text text-anchor="middle" x="409.5" y="-84" font-family="FreeSans" font-size="10.00">&lt; XValueType, 1 &gt;</text>
</a>
</g>
</g>
<!-- Node5&#45;&gt;Node3 -->
<g id="edge4" class="edge">
<title>Node5&#45;&gt;Node3</title>
<path fill="none" stroke="midnightblue" d="M491.45,-92C507.3,-92 523.79,-92 539.21,-92"/>
<polygon fill="midnightblue" stroke="midnightblue" points="491.14,-88.5 481.14,-92 491.14,-95.5 491.14,-88.5"/>
</g>
<!-- Node6 -->
<g id="node6" class="node">
<title>Node6</title>
<g id="a_node6"><a xlink:href="classhops_1_1MHO__ExtensibleElement.html" target="_top" xlink:title="Class MHO_ExtensibleElement.">
<polygon fill="white" stroke="black" points="142,-82.5 142,-101.5 292,-101.5 292,-82.5 142,-82.5"/>
<text text-anchor="middle" x="217" y="-89.5" font-family="FreeSans" font-size="10.00">hops::MHO_ExtensibleElement</text>
</a>
</g>
</g>
<!-- Node6&#45;&gt;Node5 -->
<g id="edge5" class="edge">
<title>Node6&#45;&gt;Node5</title>
<path fill="none" stroke="midnightblue" d="M302.52,-92C314.35,-92 326.4,-92 337.94,-92"/>
<polygon fill="midnightblue" stroke="midnightblue" points="302.2,-88.5 292.2,-92 302.2,-95.5 302.2,-88.5"/>
</g>
<!-- Node7 -->
<g id="node7" class="node">
<title>Node7</title>
<g id="a_node7"><a xlink:href="classhops_1_1MHO__Element.html" target="_top" xlink:title="Class MHO_Element.">
<polygon fill="white" stroke="black" points="0,-82.5 0,-101.5 106,-101.5 106,-82.5 0,-82.5"/>
<text text-anchor="middle" x="53" y="-89.5" font-family="FreeSans" font-size="10.00">hops::MHO_Element</text>
</a>
</g>
</g>
<!-- Node7&#45;&gt;Node6 -->
<g id="edge6" class="edge">
<title>Node7&#45;&gt;Node6</title>
<path fill="none" stroke="midnightblue" d="M116.21,-92C124.59,-92 133.26,-92 141.82,-92"/>
<polygon fill="midnightblue" stroke="midnightblue" points="116.15,-88.5 106.15,-92 116.15,-95.5 116.15,-88.5"/>
</g>
<!-- Node8 -->
<g id="node8" class="node">
<title>Node8</title>
<g id="a_node8"><a xlink:href="classhops_1_1MHO__Taggable.html" target="_top" xlink:title="Class MHO_Taggable.">
<polygon fill="white" stroke="black" points="354.5,-38.5 354.5,-57.5 464.5,-57.5 464.5,-38.5 354.5,-38.5"/>
<text text-anchor="middle" x="409.5" y="-45.5" font-family="FreeSans" font-size="10.00">hops::MHO_Taggable</text>
</a>
</g>
</g>
<!-- Node8&#45;&gt;Node3 -->
<g id="edge7" class="edge">
<title>Node8&#45;&gt;Node3</title>
<path fill="none" stroke="midnightblue" d="M463.34,-59.74C487.09,-65.02 515.41,-71.31 540.71,-76.93"/>
<polygon fill="midnightblue" stroke="midnightblue" points="463.98,-56.3 453.46,-57.55 462.47,-63.13 463.98,-56.3"/>
</g>
<!-- Node9 -->
<g id="node9" class="node">
<title>Node9</title>
<g id="a_node9"><a xlink:href="classhops_1_1MHO__JSONWrapper.html" target="_top" xlink:title=" ">
<polygon fill="white" stroke="black" points="150,-41.5 150,-60.5 284,-60.5 284,-41.5 150,-41.5"/>
<text text-anchor="middle" x="217" y="-48.5" font-family="FreeSans" font-size="10.00">hops::MHO_JSONWrapper</text>
</a>
</g>
</g>
<!-- Node9&#45;&gt;Node8 -->
<g id="edge8" class="edge">
<title>Node9&#45;&gt;Node8</title>
<path fill="none" stroke="midnightblue" d="M294.2,-49.8C314.39,-49.48 335.76,-49.15 354.5,-48.85"/>
<polygon fill="midnightblue" stroke="midnightblue" points="294.04,-46.3 284.09,-49.96 294.15,-53.3 294.04,-46.3"/>
</g>
<!-- Node10 -->
<g id="node10" class="node">
<title>Node10</title>
<g id="a_node10"><a xlink:href="classhops_1_1MHO__Serializable.html" target="_top" xlink:title="Class MHO_Serializable.">
<polygon fill="white" stroke="black" points="157,-3.5 157,-22.5 277,-22.5 277,-3.5 157,-3.5"/>
<text text-anchor="middle" x="217" y="-10.5" font-family="FreeSans" font-size="10.00">hops::MHO_Serializable</text>
</a>
</g>
</g>
<!-- Node10&#45;&gt;Node8 -->
<g id="edge9" class="edge">
<title>Node10&#45;&gt;Node8</title>
<path fill="none" stroke="midnightblue" d="M279.85,-24.36C304.68,-28.93 332.98,-34.13 356.71,-38.48"/>
<polygon fill="midnightblue" stroke="midnightblue" points="280.27,-20.88 269.8,-22.52 279.01,-27.77 280.27,-20.88"/>
</g>
<!-- Node11 -->
<g id="node11" class="node">
<title>Node11</title>
<g id="a_node11"><a xlink:href="classhops_1_1MHO__IndexLabelInterface.html" target="_top" xlink:title="Class MHO_IndexLabelInterface &#45; adds indexes associated with key:value pairs (used by MHO_Axis) const...">
<polygon fill="white" stroke="black" points="531.5,-38.5 531.5,-57.5 687.5,-57.5 687.5,-38.5 531.5,-38.5"/>
<text text-anchor="middle" x="609.5" y="-45.5" font-family="FreeSans" font-size="10.00">hops::MHO_IndexLabelInterface</text>
</a>
</g>
</g>
<!-- Node11&#45;&gt;Node1 -->
<g id="edge10" class="edge">
<title>Node11&#45;&gt;Node1</title>
<path fill="none" stroke="midnightblue" d="M698.01,-57.85C707.9,-58.96 717.93,-60.09 727.69,-61.19"/>
<polygon fill="midnightblue" stroke="midnightblue" points="698.1,-54.34 687.77,-56.69 697.31,-61.29 698.1,-54.34"/>
</g>
<!-- Node12 -->
<g id="node12" class="node">
<title>Node12</title>
<g id="a_node12"><a xlink:href="classhops_1_1MHO__IntervalLabelInterface.html" target="_top" xlink:title="Class MHO_IntervalLabelInterface &#45; adds intervals with associated key:value pairs (used by MHO_Axis) ...">
<polygon fill="white" stroke="black" points="527,-0.5 527,-19.5 692,-19.5 692,-0.5 527,-0.5"/>
<text text-anchor="middle" x="609.5" y="-7.5" font-family="FreeSans" font-size="10.00">hops::MHO_IntervalLabelInterface</text>
</a>
</g>
</g>
<!-- Node12&#45;&gt;Node1 -->
<g id="edge11" class="edge">
<title>Node12&#45;&gt;Node1</title>
<path fill="none" stroke="midnightblue" d="M665.51,-21.91C674.41,-24.09 683.5,-26.49 692,-29 723.47,-38.29 758.92,-51.48 781.81,-60.37"/>
<polygon fill="midnightblue" stroke="midnightblue" points="666.12,-18.45 655.58,-19.52 664.49,-25.26 666.12,-18.45"/>
</g>
</g>
</svg>
