<?xml version="1.0" encoding="UTF-8" standalone="no"?>
<!DOCTYPE svg PUBLIC "-//W3C//DTD SVG 1.1//EN"
 "http://www.w3.org/Graphics/SVG/1.1/DTD/svg11.dtd">
<!-- Generated by graphviz version 2.43.0 (0)
 -->
<!-- Title: afio.afio.AFIOStructureBase Pages: 1 -->
<svg width="418pt" height="218pt"
 viewBox="0.00 0.00 418.00 218.00" xmlns="http://www.w3.org/2000/svg" xmlns:xlink="http://www.w3.org/1999/xlink">
<g id="graph0" class="graph" transform="scale(1 1) rotate(0) translate(4 214)">
<title>afio.afio.AFIOStructureBase</title>
<polygon fill="white" stroke="transparent" points="-4,4 -4,-214 414,-214 414,4 -4,4"/>
<!-- Node1 -->
<g id="node1" class="node">
<title>Node1</title>
<g id="a_node1"><a xlink:title=" ">
<polygon fill="#bfbfbf" stroke="black" points="125,-95.5 125,-114.5 262,-114.5 262,-95.5 125,-95.5"/>
<text text-anchor="middle" x="193.5" y="-102.5" font-family="FreeSans" font-size="10.00">afio.afio.AFIOStructureBase</text>
</a>
</g>
</g>
<!-- Node3 -->
<g id="node3" class="node">
<title>Node3</title>
<g id="a_node3"><a xlink:href="classafio_1_1afio_1_1afile__structure.html" target="_top" xlink:title=" ">
<polygon fill="white" stroke="black" points="298,-190.5 298,-209.5 410,-209.5 410,-190.5 298,-190.5"/>
<text text-anchor="middle" x="354" y="-197.5" font-family="FreeSans" font-size="10.00">afio.afio.afile_structure</text>
</a>
</g>
</g>
<!-- Node1&#45;&gt;Node3 -->
<g id="edge2" class="edge">
<title>Node1&#45;&gt;Node3</title>
<path fill="none" stroke="midnightblue" d="M212.9,-121.2C232.76,-138.01 265.87,-164.15 298,-181 304.89,-184.61 312.61,-187.77 320.04,-190.42"/>
<polygon fill="midnightblue" stroke="midnightblue" points="215.11,-118.48 205.25,-114.62 210.55,-123.79 215.11,-118.48"/>
</g>
<!-- Node4 -->
<g id="node4" class="node">
<title>Node4</title>
<g id="a_node4"><a xlink:href="classafio_1_1afio_1_1corelsum.html" target="_top" xlink:title=" ">
<polygon fill="white" stroke="black" points="308.5,-152.5 308.5,-171.5 399.5,-171.5 399.5,-152.5 308.5,-152.5"/>
<text text-anchor="middle" x="354" y="-159.5" font-family="FreeSans" font-size="10.00">afio.afio.corelsum</text>
</a>
</g>
</g>
<!-- Node1&#45;&gt;Node4 -->
<g id="edge3" class="edge">
<title>Node1&#45;&gt;Node4</title>
<path fill="none" stroke="midnightblue" d="M229.6,-118.08C249.61,-125.48 275.17,-134.87 298,-143 306.76,-146.12 316.32,-149.45 324.98,-152.44"/>
<polygon fill="midnightblue" stroke="midnightblue" points="230.56,-114.7 219.97,-114.51 228.13,-121.27 230.56,-114.7"/>
</g>
<!-- Node5 -->
<g id="node5" class="node">
<title>Node5</title>
<g id="a_node5"><a xlink:href="classafio_1_1afio_1_1fringesum.html" target="_top" xlink:title=" ">
<polygon fill="white" stroke="black" points="307,-114.5 307,-133.5 401,-133.5 401,-114.5 307,-114.5"/>
<text text-anchor="middle" x="354" y="-121.5" font-family="FreeSans" font-size="10.00">afio.afio.fringesum</text>
</a>
</g>
</g>
<!-- Node1&#45;&gt;Node5 -->
<g id="edge4" class="edge">
<title>Node1&#45;&gt;Node5</title>
<path fill="none" stroke="midnightblue" d="M272.42,-114.34C284.11,-115.74 295.85,-117.15 306.6,-118.44"/>
<polygon fill="midnightblue" stroke="midnightblue" points="272.52,-110.83 262.18,-113.11 271.69,-117.78 272.52,-110.83"/>
</g>
<!-- Node6 -->
<g id="node6" class="node">
<title>Node6</title>
<g id="a_node6"><a xlink:href="classafio_1_1afio_1_1quadsum.html" target="_top" xlink:title=" ">
<polygon fill="white" stroke="black" points="308.5,-76.5 308.5,-95.5 399.5,-95.5 399.5,-76.5 308.5,-76.5"/>
<text text-anchor="middle" x="354" y="-83.5" font-family="FreeSans" font-size="10.00">afio.afio.quadsum</text>
</a>
</g>
</g>
<!-- Node1&#45;&gt;Node6 -->
<g id="edge5" class="edge">
<title>Node1&#45;&gt;Node6</title>
<path fill="none" stroke="midnightblue" d="M272.14,-95.69C284.61,-94.2 297.12,-92.7 308.46,-91.34"/>
<polygon fill="midnightblue" stroke="midnightblue" points="271.69,-92.22 262.18,-96.89 272.52,-99.17 271.69,-92.22"/>
</g>
<!-- Node7 -->
<g id="node7" class="node">
<title>Node7</title>
<g id="a_node7"><a xlink:href="classafio_1_1afio_1_1rootsum.html" target="_top" xlink:title=" ">
<polygon fill="white" stroke="black" points="311,-38.5 311,-57.5 397,-57.5 397,-38.5 311,-38.5"/>
<text text-anchor="middle" x="354" y="-45.5" font-family="FreeSans" font-size="10.00">afio.afio.rootsum</text>
</a>
</g>
</g>
<!-- Node1&#45;&gt;Node7 -->
<g id="edge6" class="edge">
<title>Node1&#45;&gt;Node7</title>
<path fill="none" stroke="midnightblue" d="M229.6,-91.92C249.61,-84.52 275.17,-75.13 298,-67 306.76,-63.88 316.32,-60.55 324.98,-57.56"/>
<polygon fill="midnightblue" stroke="midnightblue" points="228.13,-88.73 219.97,-95.49 230.56,-95.3 228.13,-88.73"/>
</g>
<!-- Node8 -->
<g id="node8" class="node">
<title>Node8</title>
<g id="a_node8"><a xlink:href="classafio_1_1afio_1_1trianglesum.html" target="_top" xlink:title=" ">
<polygon fill="white" stroke="black" points="303.5,-0.5 303.5,-19.5 404.5,-19.5 404.5,-0.5 303.5,-0.5"/>
<text text-anchor="middle" x="354" y="-7.5" font-family="FreeSans" font-size="10.00">afio.afio.trianglesum</text>
</a>
</g>
</g>
<!-- Node1&#45;&gt;Node8 -->
<g id="edge7" class="edge">
<title>Node1&#45;&gt;Node8</title>
<path fill="none" stroke="midnightblue" d="M212.9,-88.8C232.76,-71.99 265.87,-45.85 298,-29 304.89,-25.39 312.61,-22.23 320.04,-19.58"/>
<polygon fill="midnightblue" stroke="midnightblue" points="210.55,-86.21 205.25,-95.38 215.11,-91.52 210.55,-86.21"/>
</g>
<!-- Node2 -->
<g id="node2" class="node">
<title>Node2</title>
<g id="a_node2"><a xlink:title=" ">
<polygon fill="white" stroke="#bfbfbf" points="0,-95.5 0,-114.5 89,-114.5 89,-95.5 0,-95.5"/>
<text text-anchor="middle" x="44.5" y="-102.5" font-family="FreeSans" font-size="10.00">ctypes::Structure</text>
</a>
</g>
</g>
<!-- Node2&#45;&gt;Node1 -->
<g id="edge1" class="edge">
<title>Node2&#45;&gt;Node1</title>
<path fill="none" stroke="midnightblue" d="M99.22,-105C107.6,-105 116.36,-105 125,-105"/>
<polygon fill="midnightblue" stroke="midnightblue" points="99.21,-101.5 89.21,-105 99.21,-108.5 99.21,-101.5"/>
</g>
</g>
</svg>
