<?xml version="1.0" encoding="UTF-8" standalone="no"?>
<!DOCTYPE svg PUBLIC "-//W3C//DTD SVG 1.1//EN"
 "http://www.w3.org/Graphics/SVG/1.1/DTD/svg11.dtd">
<!-- Generated by graphviz version 2.43.0 (0)
 -->
<!-- Title: hops::MHO_MultidimensionalFastFourierTransform&lt; XArgType &gt; Pages: 1 -->
<svg width="507pt" height="100pt"
 viewBox="0.00 0.00 507.00 99.50" xmlns="http://www.w3.org/2000/svg" xmlns:xlink="http://www.w3.org/1999/xlink">
<g id="graph0" class="graph" transform="scale(1 1) rotate(0) translate(4 95.5)">
<title>hops::MHO_MultidimensionalFastFourierTransform&lt; XArgType &gt;</title>
<polygon fill="white" stroke="transparent" points="-4,4 -4,-95.5 503,-95.5 503,4 -4,4"/>
<!-- Node1 -->
<g id="node1" class="node">
<title>Node1</title>
<g id="a_node1"><a xlink:title="Class MHO_MultidimensionalFastFourierTransform.">
<polygon fill="#bfbfbf" stroke="black" points="329,-33 329,-63 499,-63 499,-33 329,-33"/>
<text text-anchor="start" x="337" y="-51" font-family="FreeSans" font-size="10.00">hops::MHO_Multidimensional</text>
<text text-anchor="middle" x="414" y="-40" font-family="FreeSans" font-size="10.00">FastFourierTransform&lt; XArgType &gt;</text>
</a>
</g>
</g>
<!-- Node2 -->
<g id="node2" class="node">
<title>Node2</title>
<g id="a_node2"><a xlink:href="classhops_1_1MHO__UnaryOperator.html" target="_top" xlink:title="Class MHO_UnaryOperator.">
<polygon fill="white" stroke="black" points="151.5,-61 151.5,-91 285.5,-91 285.5,-61 151.5,-61"/>
<text text-anchor="start" x="159.5" y="-79" font-family="FreeSans" font-size="10.00">hops::MHO_UnaryOperator</text>
<text text-anchor="middle" x="218.5" y="-68" font-family="FreeSans" font-size="10.00">&lt; XArgType &gt;</text>
</a>
</g>
</g>
<!-- Node2&#45;&gt;Node1 -->
<g id="edge1" class="edge">
<title>Node2&#45;&gt;Node1</title>
<path fill="none" stroke="midnightblue" d="M295.47,-65.01C306.39,-63.43 317.69,-61.79 328.77,-60.19"/>
<polygon fill="midnightblue" stroke="midnightblue" points="294.95,-61.55 285.55,-66.44 295.95,-68.47 294.95,-61.55"/>
</g>
<!-- Node3 -->
<g id="node3" class="node">
<title>Node3</title>
<g id="a_node3"><a xlink:href="classhops_1_1MHO__Operator.html" target="_top" xlink:title="Class MHO_Operator.">
<polygon fill="white" stroke="black" points="0,-66.5 0,-85.5 108,-85.5 108,-66.5 0,-66.5"/>
<text text-anchor="middle" x="54" y="-73.5" font-family="FreeSans" font-size="10.00">hops::MHO_Operator</text>
</a>
</g>
</g>
<!-- Node3&#45;&gt;Node2 -->
<g id="edge2" class="edge">
<title>Node3&#45;&gt;Node2</title>
<path fill="none" stroke="midnightblue" d="M118.42,-76C129.24,-76 140.5,-76 151.39,-76"/>
<polygon fill="midnightblue" stroke="midnightblue" points="118.21,-72.5 108.21,-76 118.21,-79.5 118.21,-72.5"/>
</g>
<!-- Node4 -->
<g id="node4" class="node">
<title>Node4</title>
<g id="a_node4"><a xlink:href="classhops_1_1MHO__MultidimensionalFastFourierTransformInterface.html" target="_top" xlink:title="Class MHO_MultidimensionalFastFourierTransformInterface.">
<polygon fill="white" stroke="black" points="144,-0.5 144,-41.5 293,-41.5 293,-0.5 144,-0.5"/>
<text text-anchor="start" x="152" y="-29.5" font-family="FreeSans" font-size="10.00">hops::MHO_Multidimensional</text>
<text text-anchor="start" x="152" y="-18.5" font-family="FreeSans" font-size="10.00">FastFourierTransformInterface</text>
<text text-anchor="middle" x="218.5" y="-7.5" font-family="FreeSans" font-size="10.00">&lt; XArgType &gt;</text>
</a>
</g>
</g>
<!-- Node4&#45;&gt;Node1 -->
<g id="edge3" class="edge">
<title>Node4&#45;&gt;Node1</title>
<path fill="none" stroke="midnightblue" d="M303.12,-32.67C311.64,-33.86 320.3,-35.06 328.82,-36.25"/>
<polygon fill="midnightblue" stroke="midnightblue" points="303.59,-29.2 293.21,-31.28 302.63,-36.13 303.59,-29.2"/>
</g>
</g>
</svg>
