<?xml version="1.0" encoding="UTF-8" standalone="no"?>
<!DOCTYPE svg PUBLIC "-//W3C//DTD SVG 1.1//EN"
 "http://www.w3.org/Graphics/SVG/1.1/DTD/svg11.dtd">
<!-- Generated by graphviz version 2.43.0 (0)
 -->
<!-- Title: hops::MHO_UnaryInPlaceOperator&lt; XArgType &gt; Pages: 1 -->
<svg width="534pt" height="88pt"
 viewBox="0.00 0.00 534.00 88.00" xmlns="http://www.w3.org/2000/svg" xmlns:xlink="http://www.w3.org/1999/xlink">
<g id="graph0" class="graph" transform="scale(1 1) rotate(0) translate(4 84)">
<title>hops::MHO_UnaryInPlaceOperator&lt; XArgType &gt;</title>
<polygon fill="white" stroke="transparent" points="-4,4 -4,-84 530,-84 530,4 -4,4"/>
<!-- Node1 -->
<g id="node1" class="node">
<title>Node1</title>
<g id="a_node1"><a xlink:title="Class MHO_UnaryInPlaceOperator.">
<polygon fill="#bfbfbf" stroke="black" points="144,-24.5 144,-54.5 311,-54.5 311,-24.5 144,-24.5"/>
<text text-anchor="start" x="152" y="-42.5" font-family="FreeSans" font-size="10.00">hops::MHO_UnaryInPlaceOperator</text>
<text text-anchor="middle" x="227.5" y="-31.5" font-family="FreeSans" font-size="10.00">&lt; XArgType &gt;</text>
</a>
</g>
</g>
<!-- Node3 -->
<g id="node3" class="node">
<title>Node3</title>
<g id="a_node3"><a xlink:href="classhops_1_1MHO__OpenCLFastFourierTransformRadix2Stage.html" target="_top" xlink:title=" ">
<polygon fill="white" stroke="black" points="349,-49.5 349,-79.5 524,-79.5 524,-49.5 349,-49.5"/>
<text text-anchor="start" x="357" y="-67.5" font-family="FreeSans" font-size="10.00">hops::MHO_OpenCLFastFourier</text>
<text text-anchor="middle" x="436.5" y="-56.5" font-family="FreeSans" font-size="10.00">TransformRadix2Stage&lt; XArgType &gt;</text>
</a>
</g>
</g>
<!-- Node1&#45;&gt;Node3 -->
<g id="edge2" class="edge">
<title>Node1&#45;&gt;Node3</title>
<path fill="none" stroke="midnightblue" d="M321.15,-50.69C330.37,-51.8 339.7,-52.93 348.86,-54.04"/>
<polygon fill="midnightblue" stroke="midnightblue" points="321.55,-47.21 311.2,-49.49 320.71,-54.16 321.55,-47.21"/>
</g>
<!-- Node4 -->
<g id="node4" class="node">
<title>Node4</title>
<g id="a_node4"><a xlink:href="classhops_1_1MHO__OpenCLMultidimensionalFastFourierTransform.html" target="_top" xlink:title=" ">
<polygon fill="white" stroke="black" points="347,-0.5 347,-30.5 526,-30.5 526,-0.5 347,-0.5"/>
<text text-anchor="start" x="355" y="-18.5" font-family="FreeSans" font-size="10.00">hops::MHO_OpenCLMultidimensional</text>
<text text-anchor="middle" x="436.5" y="-7.5" font-family="FreeSans" font-size="10.00">FastFourierTransform&lt; XArgType &gt;</text>
</a>
</g>
</g>
<!-- Node1&#45;&gt;Node4 -->
<g id="edge3" class="edge">
<title>Node1&#45;&gt;Node4</title>
<path fill="none" stroke="midnightblue" d="M321.16,-28.76C329.69,-27.77 338.32,-26.77 346.82,-25.78"/>
<polygon fill="midnightblue" stroke="midnightblue" points="320.73,-25.28 311.2,-29.91 321.54,-32.24 320.73,-25.28"/>
</g>
<!-- Node2 -->
<g id="node2" class="node">
<title>Node2</title>
<g id="a_node2"><a xlink:href="classhops_1_1MHO__Operator.html" target="_top" xlink:title="Class MHO_Operator.">
<polygon fill="white" stroke="black" points="0,-30 0,-49 108,-49 108,-30 0,-30"/>
<text text-anchor="middle" x="54" y="-37" font-family="FreeSans" font-size="10.00">hops::MHO_Operator</text>
</a>
</g>
</g>
<!-- Node2&#45;&gt;Node1 -->
<g id="edge1" class="edge">
<title>Node2&#45;&gt;Node1</title>
<path fill="none" stroke="midnightblue" d="M118.33,-39.5C126.67,-39.5 135.32,-39.5 143.93,-39.5"/>
<polygon fill="midnightblue" stroke="midnightblue" points="118.32,-36 108.32,-39.5 118.32,-43 118.32,-36"/>
</g>
</g>
</svg>
