<?xml version="1.0" encoding="UTF-8" standalone="no"?>
<!DOCTYPE svg PUBLIC "-//W3C//DTD SVG 1.1//EN"
 "http://www.w3.org/Graphics/SVG/1.1/DTD/svg11.dtd">
<!-- Generated by graphviz version 2.43.0 (0)
 -->
<!-- Title: ffcontrol.ffcontrol.FFControlStructureBase Pages: 1 -->
<svg width="417pt" height="166pt"
 viewBox="0.00 0.00 417.00 165.50" xmlns="http://www.w3.org/2000/svg" xmlns:xlink="http://www.w3.org/1999/xlink">
<g id="graph0" class="graph" transform="scale(1 1) rotate(0) translate(4 161.5)">
<title>ffcontrol.ffcontrol.FFControlStructureBase</title>
<polygon fill="white" stroke="transparent" points="-4,4 -4,-161.5 413,-161.5 413,4 -4,4"/>
<!-- Node1 -->
<g id="node1" class="node">
<title>Node1</title>
<g id="a_node1"><a xlink:title="general records and utils">
<polygon fill="#bfbfbf" stroke="black" points="123,-61 123,-91 256,-91 256,-61 123,-61"/>
<text text-anchor="start" x="131" y="-79" font-family="FreeSans" font-size="10.00">ffcontrol.ffcontrol.FFControl</text>
<text text-anchor="middle" x="189.5" y="-68" font-family="FreeSans" font-size="10.00">StructureBase</text>
</a>
</g>
</g>
<!-- Node3 -->
<g id="node3" class="node">
<title>Node3</title>
<g id="a_node3"><a xlink:href="classffcontrol_1_1ffcontrol_1_1c__block.html" target="_top" xlink:title=" ">
<polygon fill="white" stroke="black" points="303,-127 303,-157 398,-157 398,-127 303,-127"/>
<text text-anchor="start" x="311" y="-145" font-family="FreeSans" font-size="10.00">ffcontrol.ffcontrol.c</text>
<text text-anchor="middle" x="350.5" y="-134" font-family="FreeSans" font-size="10.00">_block</text>
</a>
</g>
</g>
<!-- Node1&#45;&gt;Node3 -->
<g id="edge2" class="edge">
<title>Node1&#45;&gt;Node3</title>
<path fill="none" stroke="midnightblue" d="M236.4,-95.05C260.81,-105.18 290.4,-117.47 313.19,-126.93"/>
<polygon fill="midnightblue" stroke="midnightblue" points="237.56,-91.74 226.98,-91.14 234.87,-98.21 237.56,-91.74"/>
</g>
<!-- Node4 -->
<g id="node4" class="node">
<title>Node4</title>
<g id="a_node4"><a xlink:href="classffcontrol_1_1ffcontrol_1_1dstats.html" target="_top" xlink:title=" ">
<polygon fill="white" stroke="black" points="292,-88.5 292,-107.5 409,-107.5 409,-88.5 292,-88.5"/>
<text text-anchor="middle" x="350.5" y="-95.5" font-family="FreeSans" font-size="10.00">ffcontrol.ffcontrol.dstats</text>
</a>
</g>
</g>
<!-- Node1&#45;&gt;Node4 -->
<g id="edge3" class="edge">
<title>Node1&#45;&gt;Node4</title>
<path fill="none" stroke="midnightblue" d="M266.2,-86.47C274.86,-87.67 283.57,-88.88 291.94,-90.04"/>
<polygon fill="midnightblue" stroke="midnightblue" points="266.47,-82.98 256.09,-85.08 265.52,-89.91 266.47,-82.98"/>
</g>
<!-- Node5 -->
<g id="node5" class="node">
<title>Node5</title>
<g id="a_node5"><a xlink:href="classffcontrol_1_1ffcontrol_1_1gat__struct.html" target="_top" xlink:title=" ">
<polygon fill="white" stroke="black" points="298.5,-39 298.5,-69 402.5,-69 402.5,-39 298.5,-39"/>
<text text-anchor="start" x="306.5" y="-57" font-family="FreeSans" font-size="10.00">ffcontrol.ffcontrol.gat</text>
<text text-anchor="middle" x="350.5" y="-46" font-family="FreeSans" font-size="10.00">_struct</text>
</a>
</g>
</g>
<!-- Node1&#45;&gt;Node5 -->
<g id="edge4" class="edge">
<title>Node1&#45;&gt;Node5</title>
<path fill="none" stroke="midnightblue" d="M266.03,-65.55C276.91,-64.04 287.88,-62.53 298.14,-61.11"/>
<polygon fill="midnightblue" stroke="midnightblue" points="265.52,-62.09 256.09,-66.92 266.47,-69.02 265.52,-62.09"/>
</g>
<!-- Node6 -->
<g id="node6" class="node">
<title>Node6</title>
<g id="a_node6"><a xlink:href="classffcontrol_1_1ffcontrol_1_1istats.html" target="_top" xlink:title=" ">
<polygon fill="white" stroke="black" points="293.5,-0.5 293.5,-19.5 407.5,-19.5 407.5,-0.5 293.5,-0.5"/>
<text text-anchor="middle" x="350.5" y="-7.5" font-family="FreeSans" font-size="10.00">ffcontrol.ffcontrol.istats</text>
</a>
</g>
</g>
<!-- Node1&#45;&gt;Node6 -->
<g id="edge5" class="edge">
<title>Node1&#45;&gt;Node6</title>
<path fill="none" stroke="midnightblue" d="M229.82,-56.52C248.45,-47.61 271.14,-37.24 292,-29 300.51,-25.64 309.87,-22.37 318.53,-19.51"/>
<polygon fill="midnightblue" stroke="midnightblue" points="228.24,-53.39 220.75,-60.88 231.28,-59.7 228.24,-53.39"/>
</g>
<!-- Node2 -->
<g id="node2" class="node">
<title>Node2</title>
<g id="a_node2"><a xlink:title=" ">
<polygon fill="white" stroke="#bfbfbf" points="0,-66.5 0,-85.5 87,-85.5 87,-66.5 0,-66.5"/>
<text text-anchor="middle" x="43.5" y="-73.5" font-family="FreeSans" font-size="10.00">ctypes.Structure</text>
</a>
</g>
</g>
<!-- Node2&#45;&gt;Node1 -->
<g id="edge1" class="edge">
<title>Node2&#45;&gt;Node1</title>
<path fill="none" stroke="midnightblue" d="M97.55,-76C105.8,-76 114.42,-76 122.91,-76"/>
<polygon fill="midnightblue" stroke="midnightblue" points="97.31,-72.5 87.31,-76 97.31,-79.5 97.31,-72.5"/>
</g>
</g>
</svg>
