<?xml version="1.0" encoding="UTF-8" standalone="no"?>
<!DOCTYPE svg PUBLIC "-//W3C//DTD SVG 1.1//EN"
 "http://www.w3.org/Graphics/SVG/1.1/DTD/svg11.dtd">
<!-- Generated by graphviz version 2.43.0 (0)
 -->
<!-- Title: hops::MHO_BinaryFileStreamer Pages: 1 -->
<svg width="304pt" height="95pt"
 viewBox="0.00 0.00 304.00 95.00" xmlns="http://www.w3.org/2000/svg" xmlns:xlink="http://www.w3.org/1999/xlink">
<g id="graph0" class="graph" transform="scale(1 1) rotate(0) translate(4 91)">
<title>hops::MHO_BinaryFileStreamer</title>
<polygon fill="white" stroke="transparent" points="-4,4 -4,-91 300,-91 300,4 -4,4"/>
<!-- Node1 -->
<g id="node1" class="node">
<title>Node1</title>
<g id="a_node1"><a xlink:title="Class MHO_BinaryFileStreamer declare the concrete class which does the work for file streams.">
<polygon fill="#bfbfbf" stroke="black" points="64.5,-0.5 64.5,-19.5 217.5,-19.5 217.5,-0.5 64.5,-0.5"/>
<text text-anchor="middle" x="141" y="-7.5" font-family="FreeSans" font-size="10.00">hops::MHO_BinaryFileStreamer</text>
</a>
</g>
</g>
<!-- Node2 -->
<g id="node2" class="node">
<title>Node2</title>
<g id="a_node2"><a xlink:href="classhops_1_1MHO__FileStreamer.html" target="_top" xlink:title="Class MHO_FileStreamer.">
<polygon fill="white" stroke="black" points="0,-62 0,-81 126,-81 126,-62 0,-62"/>
<text text-anchor="middle" x="63" y="-69" font-family="FreeSans" font-size="10.00">hops::MHO_FileStreamer</text>
</a>
</g>
</g>
<!-- Node2&#45;&gt;Node1 -->
<g id="edge1" class="edge">
<title>Node2&#45;&gt;Node1</title>
<path fill="none" stroke="midnightblue" d="M82.28,-55.79C97.24,-44.38 117.46,-28.96 129.85,-19.51"/>
<polygon fill="midnightblue" stroke="midnightblue" points="80,-53.13 74.18,-61.98 84.25,-58.69 80,-53.13"/>
</g>
<!-- Node3 -->
<g id="node3" class="node">
<title>Node3</title>
<g id="a_node3"><a xlink:href="classhops_1_1MHO__BinaryFileStreamerMultiType.html" target="_top" xlink:title="Class MHO_BinaryFileStreamerMultiType declares a multi&#45;type streamer with a variadic template paramet...">
<polygon fill="white" stroke="black" points="144,-56.5 144,-86.5 296,-86.5 296,-56.5 144,-56.5"/>
<text text-anchor="start" x="152" y="-74.5" font-family="FreeSans" font-size="10.00">MHO_BinaryFileStreamerBasic</text>
<text text-anchor="middle" x="220" y="-63.5" font-family="FreeSans" font-size="10.00">Types</text>
</a>
</g>
</g>
<!-- Node3&#45;&gt;Node1 -->
<g id="edge2" class="edge">
<title>Node3&#45;&gt;Node1</title>
<path fill="none" stroke="midnightblue" d="M193.03,-50.19C179.2,-39.77 163.08,-27.63 152.5,-19.66"/>
<polygon fill="midnightblue" stroke="midnightblue" points="191.18,-53.18 201.28,-56.4 195.4,-47.59 191.18,-53.18"/>
</g>
</g>
</svg>
