<?xml version="1.0" encoding="UTF-8" standalone="no"?>
<!DOCTYPE svg PUBLIC "-//W3C//DTD SVG 1.1//EN"
 "http://www.w3.org/Graphics/SVG/1.1/DTD/svg11.dtd">
<!-- Generated by graphviz version 2.43.0 (0)
 -->
<!-- Title: hops::MHO_FastFourierTransform&lt; XFloatType &gt; Pages: 1 -->
<svg width="172pt" height="184pt"
 viewBox="0.00 0.00 172.00 184.00" xmlns="http://www.w3.org/2000/svg" xmlns:xlink="http://www.w3.org/1999/xlink">
<g id="graph0" class="graph" transform="scale(1 1) rotate(0) translate(4 180)">
<title>hops::MHO_FastFourierTransform&lt; XFloatType &gt;</title>
<polygon fill="white" stroke="transparent" points="-4,4 -4,-180 168,-180 168,4 -4,4"/>
<!-- Node1 -->
<g id="node1" class="node">
<title>Node1</title>
<g id="a_node1"><a xlink:title="Class MHO_FastFourierTransform.">
<polygon fill="#bfbfbf" stroke="black" points="0,-0.5 0,-30.5 164,-30.5 164,-0.5 0,-0.5"/>
<text text-anchor="start" x="8" y="-18.5" font-family="FreeSans" font-size="10.00">hops::MHO_FastFourierTransform</text>
<text text-anchor="middle" x="82" y="-7.5" font-family="FreeSans" font-size="10.00">&lt; XFloatType &gt;</text>
</a>
</g>
</g>
<!-- Node2 -->
<g id="node2" class="node">
<title>Node2</title>
<g id="a_node2"><a xlink:href="classhops_1_1MHO__UnaryOperator.html" target="_top" xlink:title=" ">
<polygon fill="white" stroke="black" points="15,-67.5 15,-119.5 149,-119.5 149,-67.5 15,-67.5"/>
<text text-anchor="start" x="23" y="-107.5" font-family="FreeSans" font-size="10.00">hops::MHO_UnaryOperator</text>
<text text-anchor="start" x="23" y="-96.5" font-family="FreeSans" font-size="10.00">&lt; MHO_NDArrayWrapper&lt;</text>
<text text-anchor="start" x="23" y="-85.5" font-family="FreeSans" font-size="10.00"> std::complex&lt; XFloatType</text>
<text text-anchor="middle" x="82" y="-74.5" font-family="FreeSans" font-size="10.00"> &gt;, 1 &gt; &gt;</text>
</a>
</g>
</g>
<!-- Node2&#45;&gt;Node1 -->
<g id="edge1" class="edge">
<title>Node2&#45;&gt;Node1</title>
<path fill="none" stroke="midnightblue" d="M82,-56.96C82,-47.72 82,-38.28 82,-30.85"/>
<polygon fill="midnightblue" stroke="midnightblue" points="78.5,-57.19 82,-67.19 85.5,-57.19 78.5,-57.19"/>
</g>
<!-- Node3 -->
<g id="node3" class="node">
<title>Node3</title>
<g id="a_node3"><a xlink:href="classhops_1_1MHO__Operator.html" target="_top" xlink:title="Class MHO_Operator.">
<polygon fill="white" stroke="black" points="28,-156.5 28,-175.5 136,-175.5 136,-156.5 28,-156.5"/>
<text text-anchor="middle" x="82" y="-163.5" font-family="FreeSans" font-size="10.00">hops::MHO_Operator</text>
</a>
</g>
</g>
<!-- Node3&#45;&gt;Node2 -->
<g id="edge2" class="edge">
<title>Node3&#45;&gt;Node2</title>
<path fill="none" stroke="midnightblue" d="M82,-146.1C82,-137.96 82,-128.33 82,-119.6"/>
<polygon fill="midnightblue" stroke="midnightblue" points="78.5,-146.36 82,-156.36 85.5,-146.36 78.5,-146.36"/>
</g>
</g>
</svg>
