<?xml version="1.0" encoding="UTF-8" standalone="no"?>
<!DOCTYPE svg PUBLIC "-//W3C//DTD SVG 1.1//EN"
 "http://www.w3.org/Graphics/SVG/1.1/DTD/svg11.dtd">
<!-- Generated by graphviz version 2.43.0 (0)
 -->
<!-- Title: hops::MHO_BinaryFileStreamerSingleType&lt; XValueType &gt; Pages: 1 -->
<svg width="185pt" height="184pt"
 viewBox="0.00 0.00 185.00 184.00" xmlns="http://www.w3.org/2000/svg" xmlns:xlink="http://www.w3.org/1999/xlink">
<g id="graph0" class="graph" transform="scale(1 1) rotate(0) translate(4 180)">
<title>hops::MHO_BinaryFileStreamerSingleType&lt; XValueType &gt;</title>
<polygon fill="white" stroke="transparent" points="-4,4 -4,-180 181,-180 181,4 -4,4"/>
<!-- Node1 -->
<g id="node1" class="node">
<title>Node1</title>
<g id="a_node1"><a xlink:title="Class MHO_BinaryFileStreamerSingleType &#45; template class for a single&#45;type streamer,...">
<polygon fill="#bfbfbf" stroke="black" points="12,-145.5 12,-175.5 165,-175.5 165,-145.5 12,-145.5"/>
<text text-anchor="start" x="20" y="-163.5" font-family="FreeSans" font-size="10.00">hops::MHO_BinaryFileStreamer</text>
<text text-anchor="middle" x="88.5" y="-152.5" font-family="FreeSans" font-size="10.00">SingleType&lt; XValueType &gt;</text>
</a>
</g>
</g>
<!-- Node2 -->
<g id="node2" class="node">
<title>Node2</title>
<g id="a_node2"><a xlink:href="classhops_1_1MHO__BinaryFileStreamerMultiType_3_01XValueType_01_4.html" target="_top" xlink:title="Class MHO_BinaryFileStreamerMultiType&lt;XValueType&gt; declare the specialization for the base case of the...">
<polygon fill="white" stroke="black" points="12,-78.5 12,-108.5 165,-108.5 165,-78.5 12,-78.5"/>
<text text-anchor="start" x="20" y="-96.5" font-family="FreeSans" font-size="10.00">hops::MHO_BinaryFileStreamer</text>
<text text-anchor="middle" x="88.5" y="-85.5" font-family="FreeSans" font-size="10.00">MultiType&lt; XValueType &gt;</text>
</a>
</g>
</g>
<!-- Node1&#45;&gt;Node2 -->
<g id="edge1" class="edge">
<title>Node1&#45;&gt;Node2</title>
<path fill="none" stroke="midnightblue" d="M88.5,-135.11C88.5,-126.15 88.5,-116.32 88.5,-108.58"/>
<polygon fill="midnightblue" stroke="midnightblue" points="85,-135.4 88.5,-145.4 92,-135.4 85,-135.4"/>
</g>
<!-- Node3 -->
<g id="node3" class="node">
<title>Node3</title>
<g id="a_node3"><a xlink:href="classhops_1_1MHO__BinaryFileStreamerMultiType_3_01XValueType_00_01XValueTypeS_8_8_8_01_4.html" target="_top" xlink:title="Class MHO_BinaryFileStreamerMultiType&lt;XValueType, XValueTypeS...&gt; sets up the typelist recursion.">
<polygon fill="white" stroke="black" points="0,-0.5 0,-41.5 177,-41.5 177,-0.5 0,-0.5"/>
<text text-anchor="start" x="8" y="-29.5" font-family="FreeSans" font-size="10.00">hops::MHO_BinaryFileStreamer</text>
<text text-anchor="start" x="8" y="-18.5" font-family="FreeSans" font-size="10.00">MultiType&lt; XValueType, XValueType</text>
<text text-anchor="middle" x="88.5" y="-7.5" font-family="FreeSans" font-size="10.00">S... &gt;</text>
</a>
</g>
</g>
<!-- Node2&#45;&gt;Node3 -->
<g id="edge2" class="edge">
<title>Node2&#45;&gt;Node3</title>
<path fill="none" stroke="midnightblue" d="M88.5,-67.98C88.5,-59.35 88.5,-49.76 88.5,-41.59"/>
<polygon fill="midnightblue" stroke="midnightblue" points="85,-68.23 88.5,-78.23 92,-68.23 85,-68.23"/>
</g>
</g>
</svg>
