<?xml version="1.0" encoding="UTF-8" standalone="no"?>
<!DOCTYPE svg PUBLIC "-//W3C//DTD SVG 1.1//EN"
 "http://www.w3.org/Graphics/SVG/1.1/DTD/svg11.dtd">
<!-- Generated by graphviz version 2.43.0 (0)
 -->
<!-- Title: hops::MHO_NDArrayWrapper&lt; XValueType, 1 &gt; Pages: 1 -->
<svg width="318pt" height="274pt"
 viewBox="0.00 0.00 318.00 274.00" xmlns="http://www.w3.org/2000/svg" xmlns:xlink="http://www.w3.org/1999/xlink">
<g id="graph0" class="graph" transform="scale(1 1) rotate(0) translate(4 270)">
<title>hops::MHO_NDArrayWrapper&lt; XValueType, 1 &gt;</title>
<polygon fill="white" stroke="transparent" points="-4,4 -4,-270 314,-270 314,4 -4,4"/>
<!-- Node1 -->
<g id="node1" class="node">
<title>Node1</title>
<g id="a_node1"><a xlink:title="Class MHO_NDArrayWrapper&lt;XValueType, 1&gt; specialization for a RANK&#45;1 (i.e. a vector)">
<polygon fill="#bfbfbf" stroke="black" points="77.5,-123.5 77.5,-153.5 220.5,-153.5 220.5,-123.5 77.5,-123.5"/>
<text text-anchor="start" x="85.5" y="-141.5" font-family="FreeSans" font-size="10.00">hops::MHO_NDArrayWrapper</text>
<text text-anchor="middle" x="149" y="-130.5" font-family="FreeSans" font-size="10.00">&lt; XValueType, 1 &gt;</text>
</a>
</g>
</g>
<!-- Node4 -->
<g id="node4" class="node">
<title>Node4</title>
<g id="a_node4"><a xlink:href="classhops_1_1MHO__VectorContainer.html" target="_top" xlink:title="MHO_VectorContainer &#45; basis for for axis data objects in HOPS4, it is an 1&#45;dimensional array object,...">
<polygon fill="white" stroke="black" points="79,-56.5 79,-86.5 219,-86.5 219,-56.5 79,-56.5"/>
<text text-anchor="start" x="87" y="-74.5" font-family="FreeSans" font-size="10.00">hops::MHO_VectorContainer</text>
<text text-anchor="middle" x="149" y="-63.5" font-family="FreeSans" font-size="10.00">&lt; XValueType &gt;</text>
</a>
</g>
</g>
<!-- Node1&#45;&gt;Node4 -->
<g id="edge3" class="edge">
<title>Node1&#45;&gt;Node4</title>
<path fill="none" stroke="midnightblue" d="M149,-113.11C149,-104.15 149,-94.32 149,-86.58"/>
<polygon fill="midnightblue" stroke="midnightblue" points="145.5,-113.4 149,-123.4 152.5,-113.4 145.5,-113.4"/>
</g>
<!-- Node2 -->
<g id="node2" class="node">
<title>Node2</title>
<g id="a_node2"><a xlink:href="classhops_1_1MHO__ExtensibleElement.html" target="_top" xlink:title="Class MHO_ExtensibleElement.">
<polygon fill="white" stroke="black" points="74,-190.5 74,-209.5 224,-209.5 224,-190.5 74,-190.5"/>
<text text-anchor="middle" x="149" y="-197.5" font-family="FreeSans" font-size="10.00">hops::MHO_ExtensibleElement</text>
</a>
</g>
</g>
<!-- Node2&#45;&gt;Node1 -->
<g id="edge1" class="edge">
<title>Node2&#45;&gt;Node1</title>
<path fill="none" stroke="midnightblue" d="M149,-180.23C149,-171.59 149,-161.5 149,-153.52"/>
<polygon fill="midnightblue" stroke="midnightblue" points="145.5,-180.48 149,-190.48 152.5,-180.48 145.5,-180.48"/>
</g>
<!-- Node3 -->
<g id="node3" class="node">
<title>Node3</title>
<g id="a_node3"><a xlink:href="classhops_1_1MHO__Element.html" target="_top" xlink:title="Class MHO_Element.">
<polygon fill="white" stroke="black" points="96,-246.5 96,-265.5 202,-265.5 202,-246.5 96,-246.5"/>
<text text-anchor="middle" x="149" y="-253.5" font-family="FreeSans" font-size="10.00">hops::MHO_Element</text>
</a>
</g>
</g>
<!-- Node3&#45;&gt;Node2 -->
<g id="edge2" class="edge">
<title>Node3&#45;&gt;Node2</title>
<path fill="none" stroke="midnightblue" d="M149,-235.8C149,-226.91 149,-216.78 149,-209.75"/>
<polygon fill="midnightblue" stroke="midnightblue" points="145.5,-236.08 149,-246.08 152.5,-236.08 145.5,-236.08"/>
</g>
<!-- Node5 -->
<g id="node5" class="node">
<title>Node5</title>
<g id="a_node5"><a xlink:href="classhops_1_1MHO__Axis.html" target="_top" xlink:title=" ">
<polygon fill="white" stroke="black" points="0,-0.5 0,-19.5 134,-19.5 134,-0.5 0,-0.5"/>
<text text-anchor="middle" x="67" y="-7.5" font-family="FreeSans" font-size="10.00">hops::MHO_Axis&lt; double &gt;</text>
</a>
</g>
</g>
<!-- Node4&#45;&gt;Node5 -->
<g id="edge4" class="edge">
<title>Node4&#45;&gt;Node5</title>
<path fill="none" stroke="midnightblue" d="M121.41,-50.48C106.97,-40 90.03,-27.71 78.93,-19.66"/>
<polygon fill="midnightblue" stroke="midnightblue" points="119.42,-53.36 129.57,-56.4 123.53,-47.69 119.42,-53.36"/>
</g>
<!-- Node6 -->
<g id="node6" class="node">
<title>Node6</title>
<g id="a_node6"><a xlink:href="classhops_1_1MHO__Axis.html" target="_top" xlink:title="Class MHO_Axis.">
<polygon fill="white" stroke="black" points="152,-0.5 152,-19.5 310,-19.5 310,-0.5 152,-0.5"/>
<text text-anchor="middle" x="231" y="-7.5" font-family="FreeSans" font-size="10.00">hops::MHO_Axis&lt; XValueType &gt;</text>
</a>
</g>
</g>
<!-- Node4&#45;&gt;Node6 -->
<g id="edge5" class="edge">
<title>Node4&#45;&gt;Node6</title>
<path fill="none" stroke="midnightblue" d="M176.59,-50.48C191.03,-40 207.97,-27.71 219.07,-19.66"/>
<polygon fill="midnightblue" stroke="midnightblue" points="174.47,-47.69 168.43,-56.4 178.58,-53.36 174.47,-47.69"/>
</g>
</g>
</svg>
