<?xml version="1.0" encoding="UTF-8" standalone="no"?>
<!DOCTYPE svg PUBLIC "-//W3C//DTD SVG 1.1//EN"
 "http://www.w3.org/Graphics/SVG/1.1/DTD/svg11.dtd">
<!-- Generated by graphviz version 2.43.0 (0)
 -->
<!-- Title: hops::MHO_ManualChannelPhaseCorrectionBuilder Pages: 1 -->
<svg width="306pt" height="95pt"
 viewBox="0.00 0.00 306.00 95.00" xmlns="http://www.w3.org/2000/svg" xmlns:xlink="http://www.w3.org/1999/xlink">
<g id="graph0" class="graph" transform="scale(1 1) rotate(0) translate(4 91)">
<title>hops::MHO_ManualChannelPhaseCorrectionBuilder</title>
<polygon fill="white" stroke="transparent" points="-4,4 -4,-91 302,-91 302,4 -4,4"/>
<!-- Node1 -->
<g id="node1" class="node">
<title>Node1</title>
<g id="a_node1"><a xlink:title="Class MHO_ManualChannelPhaseCorrectionBuilder.">
<polygon fill="#bfbfbf" stroke="black" points="65.5,-0.5 65.5,-30.5 230.5,-30.5 230.5,-0.5 65.5,-0.5"/>
<text text-anchor="start" x="73.5" y="-18.5" font-family="FreeSans" font-size="10.00">hops::MHO_ManualChannelPhase</text>
<text text-anchor="middle" x="148" y="-7.5" font-family="FreeSans" font-size="10.00">CorrectionBuilder</text>
</a>
</g>
</g>
<!-- Node2 -->
<g id="node2" class="node">
<title>Node2</title>
<g id="a_node2"><a xlink:href="classhops_1_1MHO__OperatorBuilder.html" target="_top" xlink:title="Abtract base class for a builder object (creates an operator for later use)">
<polygon fill="white" stroke="black" points="0,-67.5 0,-86.5 138,-86.5 138,-67.5 0,-67.5"/>
<text text-anchor="middle" x="69" y="-74.5" font-family="FreeSans" font-size="10.00">hops::MHO_OperatorBuilder</text>
</a>
</g>
</g>
<!-- Node2&#45;&gt;Node1 -->
<g id="edge1" class="edge">
<title>Node2&#45;&gt;Node1</title>
<path fill="none" stroke="midnightblue" d="M88.66,-61.2C101.11,-51.81 117.13,-39.75 129.38,-30.52"/>
<polygon fill="midnightblue" stroke="midnightblue" points="86.2,-58.66 80.32,-67.48 90.41,-64.25 86.2,-58.66"/>
</g>
<!-- Node3 -->
<g id="node3" class="node">
<title>Node3</title>
<g id="a_node3"><a xlink:href="classhops_1_1MHO__ChannelQuantity.html" target="_top" xlink:title="class for storing and mapping per&#45;channel control quantities (a typical task for fourfit control file...">
<polygon fill="white" stroke="black" points="156,-67.5 156,-86.5 298,-86.5 298,-67.5 156,-67.5"/>
<text text-anchor="middle" x="227" y="-74.5" font-family="FreeSans" font-size="10.00">hops::MHO_ChannelQuantity</text>
</a>
</g>
</g>
<!-- Node3&#45;&gt;Node1 -->
<g id="edge2" class="edge">
<title>Node3&#45;&gt;Node1</title>
<path fill="none" stroke="midnightblue" d="M207.34,-61.2C194.89,-51.81 178.87,-39.75 166.62,-30.52"/>
<polygon fill="midnightblue" stroke="midnightblue" points="205.59,-64.25 215.68,-67.48 209.8,-58.66 205.59,-64.25"/>
</g>
</g>
</svg>
