<?xml version="1.0" encoding="UTF-8" standalone="no"?>
<!DOCTYPE svg PUBLIC "-//W3C//DTD SVG 1.1//EN"
 "http://www.w3.org/Graphics/SVG/1.1/DTD/svg11.dtd">
<!-- Generated by graphviz version 2.43.0 (0)
 -->
<!-- Title: hops::MHO_WeightChannelizer Pages: 1 -->
<svg width="173pt" height="162pt"
 viewBox="0.00 0.00 173.00 162.00" xmlns="http://www.w3.org/2000/svg" xmlns:xlink="http://www.w3.org/1999/xlink">
<g id="graph0" class="graph" transform="scale(1 1) rotate(0) translate(4 158)">
<title>hops::MHO_WeightChannelizer</title>
<polygon fill="white" stroke="transparent" points="-4,4 -4,-158 169,-158 169,4 -4,4"/>
<!-- Node1 -->
<g id="node1" class="node">
<title>Node1</title>
<g id="a_node1"><a xlink:title="collects unchannelized (3d) weight data and groups by channel (but all channels must be of equal size...">
<polygon fill="#bfbfbf" stroke="black" points="7,-0.5 7,-19.5 158,-19.5 158,-0.5 7,-0.5"/>
<text text-anchor="middle" x="82.5" y="-7.5" font-family="FreeSans" font-size="10.00">hops::MHO_WeightChannelizer</text>
</a>
</g>
</g>
<!-- Node2 -->
<g id="node2" class="node">
<title>Node2</title>
<g id="a_node2"><a xlink:href="classhops_1_1MHO__TransformingOperator.html" target="_top" xlink:title=" ">
<polygon fill="white" stroke="black" points="0,-56.5 0,-97.5 165,-97.5 165,-56.5 0,-56.5"/>
<text text-anchor="start" x="8" y="-85.5" font-family="FreeSans" font-size="10.00">hops::MHO_TransformingOperator</text>
<text text-anchor="start" x="8" y="-74.5" font-family="FreeSans" font-size="10.00">&lt; uch_weight_store_type, weight</text>
<text text-anchor="middle" x="82.5" y="-63.5" font-family="FreeSans" font-size="10.00">_store_type &gt;</text>
</a>
</g>
</g>
<!-- Node2&#45;&gt;Node1 -->
<g id="edge1" class="edge">
<title>Node2&#45;&gt;Node1</title>
<path fill="none" stroke="midnightblue" d="M82.5,-46.26C82.5,-36.56 82.5,-26.52 82.5,-19.65"/>
<polygon fill="midnightblue" stroke="midnightblue" points="79,-46.5 82.5,-56.5 86,-46.5 79,-46.5"/>
</g>
<!-- Node3 -->
<g id="node3" class="node">
<title>Node3</title>
<g id="a_node3"><a xlink:href="classhops_1_1MHO__Operator.html" target="_top" xlink:title="Class MHO_Operator.">
<polygon fill="white" stroke="black" points="28.5,-134.5 28.5,-153.5 136.5,-153.5 136.5,-134.5 28.5,-134.5"/>
<text text-anchor="middle" x="82.5" y="-141.5" font-family="FreeSans" font-size="10.00">hops::MHO_Operator</text>
</a>
</g>
</g>
<!-- Node3&#45;&gt;Node2 -->
<g id="edge2" class="edge">
<title>Node3&#45;&gt;Node2</title>
<path fill="none" stroke="midnightblue" d="M82.5,-124.04C82.5,-115.71 82.5,-105.94 82.5,-97.54"/>
<polygon fill="midnightblue" stroke="midnightblue" points="79,-124.23 82.5,-134.23 86,-124.23 79,-124.23"/>
</g>
</g>
</svg>
