<?xml version="1.0" encoding="UTF-8" standalone="no"?>
<!DOCTYPE svg PUBLIC "-//W3C//DTD SVG 1.1//EN"
 "http://www.w3.org/Graphics/SVG/1.1/DTD/svg11.dtd">
<!-- Generated by graphviz version 2.43.0 (0)
 -->
<!-- Title: hops::MHO_MultidimensionalFastFourierTransformInterface&lt; XArgType &gt; Pages: 1 -->
<svg width="378pt" height="406pt"
 viewBox="0.00 0.00 378.00 406.00" xmlns="http://www.w3.org/2000/svg" xmlns:xlink="http://www.w3.org/1999/xlink">
<g id="graph0" class="graph" transform="scale(1 1) rotate(0) translate(4 402)">
<title>hops::MHO_MultidimensionalFastFourierTransformInterface&lt; XArgType &gt;</title>
<polygon fill="white" stroke="transparent" points="-4,4 -4,-402 374,-402 374,4 -4,4"/>
<!-- Node1 -->
<g id="node1" class="node">
<title>Node1</title>
<g id="a_node1"><a xlink:title="Class MHO_MultidimensionalFastFourierTransformInterface.">
<polygon fill="#bfbfbf" stroke="black" points="0,-178 0,-219 149,-219 149,-178 0,-178"/>
<text text-anchor="start" x="8" y="-207" font-family="FreeSans" font-size="10.00">hops::MHO_Multidimensional</text>
<text text-anchor="start" x="8" y="-196" font-family="FreeSans" font-size="10.00">FastFourierTransformInterface</text>
<text text-anchor="middle" x="74.5" y="-185" font-family="FreeSans" font-size="10.00">&lt; XArgType &gt;</text>
</a>
</g>
</g>
<!-- Node2 -->
<g id="node2" class="node">
<title>Node2</title>
<g id="a_node2"><a xlink:href="classhops_1_1MHO__MultidimensionalFastFourierTransform.html" target="_top" xlink:title=" ">
<polygon fill="white" stroke="black" points="193,-367.5 193,-397.5 362,-397.5 362,-367.5 193,-367.5"/>
<text text-anchor="start" x="201" y="-385.5" font-family="FreeSans" font-size="10.00">hops::MHO_Multidimensional</text>
<text text-anchor="middle" x="277.5" y="-374.5" font-family="FreeSans" font-size="10.00">FastFourierTransform&lt; mbd_type &gt;</text>
</a>
</g>
</g>
<!-- Node1&#45;&gt;Node2 -->
<g id="edge1" class="edge">
<title>Node1&#45;&gt;Node2</title>
<path fill="none" stroke="midnightblue" d="M88.26,-228.52C105.13,-264.58 138.28,-324.34 185,-357.5 190.51,-361.41 196.6,-364.7 202.94,-367.49"/>
<polygon fill="midnightblue" stroke="midnightblue" points="91.27,-226.67 83.94,-219.02 84.89,-229.57 91.27,-226.67"/>
</g>
<!-- Node3 -->
<g id="node3" class="node">
<title>Node3</title>
<g id="a_node3"><a xlink:href="classhops_1_1MHO__MultidimensionalFastFourierTransform.html" target="_top" xlink:title=" ">
<polygon fill="white" stroke="black" points="206,-307 206,-348 349,-348 349,-307 206,-307"/>
<text text-anchor="start" x="214" y="-336" font-family="FreeSans" font-size="10.00">hops::MHO_Multidimensional</text>
<text text-anchor="start" x="214" y="-325" font-family="FreeSans" font-size="10.00">FastFourierTransform&lt; hops</text>
<text text-anchor="middle" x="277.5" y="-314" font-family="FreeSans" font-size="10.00">::MHO_TableContainer &gt;</text>
</a>
</g>
</g>
<!-- Node1&#45;&gt;Node3 -->
<g id="edge2" class="edge">
<title>Node1&#45;&gt;Node3</title>
<path fill="none" stroke="midnightblue" d="M100.18,-226.51C120.9,-248.51 152.29,-278.51 185,-297.5 191.51,-301.28 198.55,-304.65 205.75,-307.65"/>
<polygon fill="midnightblue" stroke="midnightblue" points="102.67,-224.05 93.31,-219.09 97.53,-228.8 102.67,-224.05"/>
</g>
<!-- Node4 -->
<g id="node4" class="node">
<title>Node4</title>
<g id="a_node4"><a xlink:href="classhops_1_1MHO__MultidimensionalFastFourierTransform.html" target="_top" xlink:title=" ">
<polygon fill="white" stroke="black" points="185,-257.5 185,-287.5 370,-287.5 370,-257.5 185,-257.5"/>
<text text-anchor="start" x="193" y="-275.5" font-family="FreeSans" font-size="10.00">hops::MHO_Multidimensional</text>
<text text-anchor="middle" x="277.5" y="-264.5" font-family="FreeSans" font-size="10.00">FastFourierTransform&lt; visibility_type &gt;</text>
</a>
</g>
</g>
<!-- Node1&#45;&gt;Node4 -->
<g id="edge3" class="edge">
<title>Node1&#45;&gt;Node4</title>
<path fill="none" stroke="midnightblue" d="M125.25,-223.4C143.72,-232.07 165.04,-241.39 185,-248.5 193.97,-251.7 203.58,-254.68 213.06,-257.38"/>
<polygon fill="midnightblue" stroke="midnightblue" points="126.68,-220.21 116.15,-219.08 123.68,-226.53 126.68,-220.21"/>
</g>
<!-- Node5 -->
<g id="node5" class="node">
<title>Node5</title>
<g id="a_node5"><a xlink:href="classhops_1_1MHO__MultidimensionalFastFourierTransform.html" target="_top" xlink:title=" ">
<polygon fill="white" stroke="black" points="193.5,-208.5 193.5,-238.5 361.5,-238.5 361.5,-208.5 193.5,-208.5"/>
<text text-anchor="start" x="201.5" y="-226.5" font-family="FreeSans" font-size="10.00">hops::MHO_Multidimensional</text>
<text text-anchor="middle" x="277.5" y="-215.5" font-family="FreeSans" font-size="10.00">FastFourierTransform&lt; pcal_type &gt;</text>
</a>
</g>
</g>
<!-- Node1&#45;&gt;Node5 -->
<g id="edge4" class="edge">
<title>Node1&#45;&gt;Node5</title>
<path fill="none" stroke="midnightblue" d="M159.4,-208.94C170.61,-210.33 182.1,-211.76 193.29,-213.15"/>
<polygon fill="midnightblue" stroke="midnightblue" points="159.56,-205.43 149.2,-207.67 158.7,-212.37 159.56,-205.43"/>
</g>
<!-- Node6 -->
<g id="node6" class="node">
<title>Node6</title>
<g id="a_node6"><a xlink:href="classhops_1_1MHO__MultidimensionalFastFourierTransform.html" target="_top" xlink:title="Class MHO_MultidimensionalFastFourierTransform.">
<polygon fill="white" stroke="black" points="192.5,-159.5 192.5,-189.5 362.5,-189.5 362.5,-159.5 192.5,-159.5"/>
<text text-anchor="start" x="200.5" y="-177.5" font-family="FreeSans" font-size="10.00">hops::MHO_Multidimensional</text>
<text text-anchor="middle" x="277.5" y="-166.5" font-family="FreeSans" font-size="10.00">FastFourierTransform&lt; XArgType &gt;</text>
</a>
</g>
</g>
<!-- Node1&#45;&gt;Node6 -->
<g id="edge5" class="edge">
<title>Node1&#45;&gt;Node6</title>
<path fill="none" stroke="midnightblue" d="M159.16,-188.51C170.1,-187.2 181.32,-185.87 192.27,-184.56"/>
<polygon fill="midnightblue" stroke="midnightblue" points="158.72,-185.04 149.2,-189.7 159.55,-191.99 158.72,-185.04"/>
</g>
<!-- Node7 -->
<g id="node7" class="node">
<title>Node7</title>
<g id="a_node7"><a xlink:href="classhops_1_1MHO__MultidimensionalFastFourierTransformFFTW.html" target="_top" xlink:title="Class MHO_MultidimensionalFastFourierTransformFFTW.">
<polygon fill="white" stroke="black" points="206,-99 206,-140 349,-140 349,-99 206,-99"/>
<text text-anchor="start" x="214" y="-128" font-family="FreeSans" font-size="10.00">hops::MHO_Multidimensional</text>
<text text-anchor="start" x="214" y="-117" font-family="FreeSans" font-size="10.00">FastFourierTransformFFTW</text>
<text text-anchor="middle" x="277.5" y="-106" font-family="FreeSans" font-size="10.00">&lt; XArgType &gt;</text>
</a>
</g>
</g>
<!-- Node1&#45;&gt;Node7 -->
<g id="edge6" class="edge">
<title>Node1&#45;&gt;Node7</title>
<path fill="none" stroke="midnightblue" d="M129.65,-173.66C147.18,-165.91 166.79,-157.56 185,-150.5 194.07,-146.98 203.73,-143.47 213.24,-140.14"/>
<polygon fill="midnightblue" stroke="midnightblue" points="127.87,-170.62 120.15,-177.88 130.71,-177.02 127.87,-170.62"/>
</g>
<!-- Node8 -->
<g id="node8" class="node">
<title>Node8</title>
<g id="a_node8"><a xlink:href="classhops_1_1MHO__OpenCLFastFourierTransformRadix2Stage.html" target="_top" xlink:title=" ">
<polygon fill="white" stroke="black" points="190,-49.5 190,-79.5 365,-79.5 365,-49.5 190,-49.5"/>
<text text-anchor="start" x="198" y="-67.5" font-family="FreeSans" font-size="10.00">hops::MHO_OpenCLFastFourier</text>
<text text-anchor="middle" x="277.5" y="-56.5" font-family="FreeSans" font-size="10.00">TransformRadix2Stage&lt; XArgType &gt;</text>
</a>
</g>
</g>
<!-- Node1&#45;&gt;Node8 -->
<g id="edge7" class="edge">
<title>Node1&#45;&gt;Node8</title>
<path fill="none" stroke="midnightblue" d="M97.27,-169.62C117.42,-144.86 149.55,-110.03 185,-89.5 191.7,-85.62 199.02,-82.32 206.51,-79.53"/>
<polygon fill="midnightblue" stroke="midnightblue" points="94.41,-167.6 90.91,-177.6 99.88,-171.96 94.41,-167.6"/>
</g>
<!-- Node9 -->
<g id="node9" class="node">
<title>Node9</title>
<g id="a_node9"><a xlink:href="classhops_1_1MHO__OpenCLMultidimensionalFastFourierTransform.html" target="_top" xlink:title=" ">
<polygon fill="white" stroke="black" points="188,-0.5 188,-30.5 367,-30.5 367,-0.5 188,-0.5"/>
<text text-anchor="start" x="196" y="-18.5" font-family="FreeSans" font-size="10.00">hops::MHO_OpenCLMultidimensional</text>
<text text-anchor="middle" x="277.5" y="-7.5" font-family="FreeSans" font-size="10.00">FastFourierTransform&lt; XArgType &gt;</text>
</a>
</g>
</g>
<!-- Node1&#45;&gt;Node9 -->
<g id="edge8" class="edge">
<title>Node1&#45;&gt;Node9</title>
<path fill="none" stroke="midnightblue" d="M88.45,-168.38C105.41,-132.52 138.55,-73.36 185,-40.5 190.51,-36.6 196.61,-33.31 202.95,-30.53"/>
<polygon fill="midnightblue" stroke="midnightblue" points="85.1,-167.29 84.09,-177.84 91.46,-170.22 85.1,-167.29"/>
</g>
</g>
</svg>
