<?xml version="1.0" encoding="UTF-8" standalone="no"?>
<!DOCTYPE svg PUBLIC "-//W3C//DTD SVG 1.1//EN"
 "http://www.w3.org/Graphics/SVG/1.1/DTD/svg11.dtd">
<!-- Generated by graphviz version 2.43.0 (0)
 -->
<!-- Title: hops::MHO_SingleSidebandNormFX Pages: 1 -->
<svg width="146pt" height="218pt"
 viewBox="0.00 0.00 146.00 218.00" xmlns="http://www.w3.org/2000/svg" xmlns:xlink="http://www.w3.org/1999/xlink">
<g id="graph0" class="graph" transform="scale(1 1) rotate(0) translate(4 214)">
<title>hops::MHO_SingleSidebandNormFX</title>
<polygon fill="white" stroke="transparent" points="-4,4 -4,-214 142,-214 142,4 -4,4"/>
<!-- Node1 -->
<g id="node1" class="node">
<title>Node1</title>
<g id="a_node1"><a xlink:title="Class MHO_SingleSidebandNormFX.">
<polygon fill="#bfbfbf" stroke="black" points="0,-0.5 0,-30.5 138,-30.5 138,-0.5 0,-0.5"/>
<text text-anchor="start" x="8" y="-18.5" font-family="FreeSans" font-size="10.00">hops::MHO_SingleSideband</text>
<text text-anchor="middle" x="69" y="-7.5" font-family="FreeSans" font-size="10.00">NormFX</text>
</a>
</g>
</g>
<!-- Node2 -->
<g id="node2" class="node">
<title>Node2</title>
<g id="a_node2"><a xlink:href="classhops_1_1MHO__NormFX.html" target="_top" xlink:title="Class MHO_NormFX.">
<polygon fill="white" stroke="black" points="15.5,-67.5 15.5,-86.5 122.5,-86.5 122.5,-67.5 15.5,-67.5"/>
<text text-anchor="middle" x="69" y="-74.5" font-family="FreeSans" font-size="10.00">hops::MHO_NormFX</text>
</a>
</g>
</g>
<!-- Node2&#45;&gt;Node1 -->
<g id="edge1" class="edge">
<title>Node2&#45;&gt;Node1</title>
<path fill="none" stroke="midnightblue" d="M69,-57.23C69,-48.59 69,-38.5 69,-30.52"/>
<polygon fill="midnightblue" stroke="midnightblue" points="65.5,-57.48 69,-67.48 72.5,-57.48 65.5,-57.48"/>
</g>
<!-- Node3 -->
<g id="node3" class="node">
<title>Node3</title>
<g id="a_node3"><a xlink:href="classhops_1_1MHO__UnaryOperator.html" target="_top" xlink:title=" ">
<polygon fill="white" stroke="black" points="2,-123.5 2,-153.5 136,-153.5 136,-123.5 2,-123.5"/>
<text text-anchor="start" x="10" y="-141.5" font-family="FreeSans" font-size="10.00">hops::MHO_UnaryOperator</text>
<text text-anchor="middle" x="69" y="-130.5" font-family="FreeSans" font-size="10.00">&lt; visibility_type &gt;</text>
</a>
</g>
</g>
<!-- Node3&#45;&gt;Node2 -->
<g id="edge2" class="edge">
<title>Node3&#45;&gt;Node2</title>
<path fill="none" stroke="midnightblue" d="M69,-113.29C69,-103.86 69,-93.65 69,-86.66"/>
<polygon fill="midnightblue" stroke="midnightblue" points="65.5,-113.4 69,-123.4 72.5,-113.4 65.5,-113.4"/>
</g>
<!-- Node4 -->
<g id="node4" class="node">
<title>Node4</title>
<g id="a_node4"><a xlink:href="classhops_1_1MHO__Operator.html" target="_top" xlink:title="Class MHO_Operator.">
<polygon fill="white" stroke="black" points="15,-190.5 15,-209.5 123,-209.5 123,-190.5 15,-190.5"/>
<text text-anchor="middle" x="69" y="-197.5" font-family="FreeSans" font-size="10.00">hops::MHO_Operator</text>
</a>
</g>
</g>
<!-- Node4&#45;&gt;Node3 -->
<g id="edge3" class="edge">
<title>Node4&#45;&gt;Node3</title>
<path fill="none" stroke="midnightblue" d="M69,-180.23C69,-171.59 69,-161.5 69,-153.52"/>
<polygon fill="midnightblue" stroke="midnightblue" points="65.5,-180.48 69,-190.48 72.5,-180.48 65.5,-180.48"/>
</g>
</g>
</svg>
