<?xml version="1.0" encoding="UTF-8" standalone="no"?>
<!DOCTYPE svg PUBLIC "-//W3C//DTD SVG 1.1//EN"
 "http://www.w3.org/Graphics/SVG/1.1/DTD/svg11.dtd">
<!-- Generated by graphviz version 2.43.0 (0)
 -->
<!-- Title: hops::MHO_ExtendedElement&lt; XExtensionType &gt; Pages: 1 -->
<svg width="218pt" height="95pt"
 viewBox="0.00 0.00 218.00 95.00" xmlns="http://www.w3.org/2000/svg" xmlns:xlink="http://www.w3.org/1999/xlink">
<g id="graph0" class="graph" transform="scale(1 1) rotate(0) translate(4 91)">
<title>hops::MHO_ExtendedElement&lt; XExtensionType &gt;</title>
<polygon fill="white" stroke="transparent" points="-4,4 -4,-91 214,-91 214,4 -4,4"/>
<!-- Node1 -->
<g id="node1" class="node">
<title>Node1</title>
<g id="a_node1"><a xlink:title="Class MHO_ExtendedElement.">
<polygon fill="#bfbfbf" stroke="black" points="37,-0.5 37,-30.5 183,-30.5 183,-0.5 37,-0.5"/>
<text text-anchor="start" x="45" y="-18.5" font-family="FreeSans" font-size="10.00">hops::MHO_ExtendedElement</text>
<text text-anchor="middle" x="110" y="-7.5" font-family="FreeSans" font-size="10.00">&lt; XExtensionType &gt;</text>
</a>
</g>
</g>
<!-- Node2 -->
<g id="node2" class="node">
<title>Node2</title>
<g id="a_node2"><a xlink:href="classhops_1_1MHO__Element.html" target="_top" xlink:title="Class MHO_Element.">
<polygon fill="white" stroke="black" points="0,-67.5 0,-86.5 106,-86.5 106,-67.5 0,-67.5"/>
<text text-anchor="middle" x="53" y="-74.5" font-family="FreeSans" font-size="10.00">hops::MHO_Element</text>
</a>
</g>
</g>
<!-- Node2&#45;&gt;Node1 -->
<g id="edge1" class="edge">
<title>Node2&#45;&gt;Node1</title>
<path fill="none" stroke="midnightblue" d="M68.24,-60.09C77.06,-50.88 88.07,-39.39 96.57,-30.52"/>
<polygon fill="midnightblue" stroke="midnightblue" points="65.56,-57.83 61.17,-67.48 70.61,-62.68 65.56,-57.83"/>
</g>
<!-- Node3 -->
<g id="node3" class="node">
<title>Node3</title>
<g id="a_node3"><a xlink:href="classXExtensionType.html" target="_top" xlink:title=" ">
<polygon fill="white" stroke="black" points="124,-67.5 124,-86.5 210,-86.5 210,-67.5 124,-67.5"/>
<text text-anchor="middle" x="167" y="-74.5" font-family="FreeSans" font-size="10.00">XExtensionType</text>
</a>
</g>
</g>
<!-- Node3&#45;&gt;Node1 -->
<g id="edge2" class="edge">
<title>Node3&#45;&gt;Node1</title>
<path fill="none" stroke="midnightblue" d="M151.76,-60.09C142.94,-50.88 131.93,-39.39 123.43,-30.52"/>
<polygon fill="midnightblue" stroke="midnightblue" points="149.39,-62.68 158.83,-67.48 154.44,-57.83 149.39,-62.68"/>
</g>
</g>
</svg>
