<?xml version="1.0" encoding="UTF-8" standalone="no"?>
<!DOCTYPE svg PUBLIC "-//W3C//DTD SVG 1.1//EN"
 "http://www.w3.org/Graphics/SVG/1.1/DTD/svg11.dtd">
<!-- Generated by graphviz version 2.43.0 (0)
 -->
<!-- Title: hops::MHO_ContainerDictionary Pages: 1 -->
<svg width="174pt" height="207pt"
 viewBox="0.00 0.00 174.00 207.00" xmlns="http://www.w3.org/2000/svg" xmlns:xlink="http://www.w3.org/1999/xlink">
<g id="graph0" class="graph" transform="scale(1 1) rotate(0) translate(4 203)">
<title>hops::MHO_ContainerDictionary</title>
<polygon fill="white" stroke="transparent" points="-4,4 -4,-203 170,-203 170,4 -4,4"/>
<!-- Node1 -->
<g id="node1" class="node">
<title>Node1</title>
<g id="a_node1"><a xlink:title="Class MHO_ContainerDictionary.">
<polygon fill="#bfbfbf" stroke="black" points="5.5,-123.5 5.5,-142.5 160.5,-142.5 160.5,-123.5 5.5,-123.5"/>
<text text-anchor="middle" x="83" y="-130.5" font-family="FreeSans" font-size="10.00">hops::MHO_ContainerDictionary</text>
</a>
</g>
</g>
<!-- Node3 -->
<g id="node3" class="node">
<title>Node3</title>
<g id="a_node3"><a xlink:href="classhops_1_1MHO__ContainerFileInterface.html" target="_top" xlink:title="Class MHO_ContainerFileInterface &#45; a MHO_ContainerDictionary which can read/write objects to file.">
<polygon fill="white" stroke="black" points="0,-67.5 0,-86.5 166,-86.5 166,-67.5 0,-67.5"/>
<text text-anchor="middle" x="83" y="-74.5" font-family="FreeSans" font-size="10.00">hops::MHO_ContainerFileInterface</text>
</a>
</g>
</g>
<!-- Node1&#45;&gt;Node3 -->
<g id="edge2" class="edge">
<title>Node1&#45;&gt;Node3</title>
<path fill="none" stroke="midnightblue" d="M83,-112.8C83,-103.91 83,-93.78 83,-86.75"/>
<polygon fill="midnightblue" stroke="midnightblue" points="79.5,-113.08 83,-123.08 86.5,-113.08 79.5,-113.08"/>
</g>
<!-- Node2 -->
<g id="node2" class="node">
<title>Node2</title>
<g id="a_node2"><a xlink:href="classhops_1_1MHO__ClassIdentityMap.html" target="_top" xlink:title="Class MHO_ClassIdentityMap.">
<polygon fill="white" stroke="black" points="10,-179.5 10,-198.5 156,-198.5 156,-179.5 10,-179.5"/>
<text text-anchor="middle" x="83" y="-186.5" font-family="FreeSans" font-size="10.00">hops::MHO_ClassIdentityMap</text>
</a>
</g>
</g>
<!-- Node2&#45;&gt;Node1 -->
<g id="edge1" class="edge">
<title>Node2&#45;&gt;Node1</title>
<path fill="none" stroke="midnightblue" d="M83,-168.8C83,-159.91 83,-149.78 83,-142.75"/>
<polygon fill="midnightblue" stroke="midnightblue" points="79.5,-169.08 83,-179.08 86.5,-169.08 79.5,-169.08"/>
</g>
<!-- Node4 -->
<g id="node4" class="node">
<title>Node4</title>
<g id="a_node4"><a xlink:href="classhops_1_1MHO__HDF5ContainerFileInterface.html" target="_top" xlink:title="Class to convert a HOPS4 file to HDF5.">
<polygon fill="white" stroke="black" points="6.5,-0.5 6.5,-30.5 159.5,-30.5 159.5,-0.5 6.5,-0.5"/>
<text text-anchor="start" x="14.5" y="-18.5" font-family="FreeSans" font-size="10.00">hops::MHO_HDF5ContainerFile</text>
<text text-anchor="middle" x="83" y="-7.5" font-family="FreeSans" font-size="10.00">Interface</text>
</a>
</g>
</g>
<!-- Node3&#45;&gt;Node4 -->
<g id="edge3" class="edge">
<title>Node3&#45;&gt;Node4</title>
<path fill="none" stroke="midnightblue" d="M83,-57.23C83,-48.59 83,-38.5 83,-30.52"/>
<polygon fill="midnightblue" stroke="midnightblue" points="79.5,-57.48 83,-67.48 86.5,-57.48 79.5,-57.48"/>
</g>
</g>
</svg>
