<?xml version="1.0" encoding="UTF-8" standalone="no"?>
<!DOCTYPE svg PUBLIC "-//W3C//DTD SVG 1.1//EN"
 "http://www.w3.org/Graphics/SVG/1.1/DTD/svg11.dtd">
<!-- Generated by graphviz version 2.43.0 (0)
 -->
<!-- Title: hops::MHO_MD5HashGeneratorMultiType&lt; XValueType &gt; Pages: 1 -->
<svg width="165pt" height="184pt"
 viewBox="0.00 0.00 165.00 184.00" xmlns="http://www.w3.org/2000/svg" xmlns:xlink="http://www.w3.org/1999/xlink">
<g id="graph0" class="graph" transform="scale(1 1) rotate(0) translate(4 180)">
<title>hops::MHO_MD5HashGeneratorMultiType&lt; XValueType &gt;</title>
<polygon fill="white" stroke="transparent" points="-4,4 -4,-180 161,-180 161,4 -4,4"/>
<!-- Node1 -->
<g id="node1" class="node">
<title>Node1</title>
<g id="a_node1"><a xlink:title="Class MHO_MD5HashGeneratorMultiType&lt;XValueType&gt; declares the specialization for the base case of the ...">
<polygon fill="#bfbfbf" stroke="black" points="0,-78.5 0,-108.5 157,-108.5 157,-78.5 0,-78.5"/>
<text text-anchor="start" x="8" y="-96.5" font-family="FreeSans" font-size="10.00">hops::MHO_MD5HashGenerator</text>
<text text-anchor="middle" x="78.5" y="-85.5" font-family="FreeSans" font-size="10.00">MultiType&lt; XValueType &gt;</text>
</a>
</g>
</g>
<!-- Node3 -->
<g id="node3" class="node">
<title>Node3</title>
<g id="a_node3"><a xlink:href="classhops_1_1MHO__MD5HashGeneratorMultiType_3_01XValueType_00_01XValueTypeS_8_8_8_01_4.html" target="_top" xlink:title="Class MHO_MD5HashGeneratorMultiType&lt;XValueType, XValueTypeS...&gt; carry out the typelist recursion.">
<polygon fill="white" stroke="black" points="0,-0.5 0,-41.5 157,-41.5 157,-0.5 0,-0.5"/>
<text text-anchor="start" x="8" y="-29.5" font-family="FreeSans" font-size="10.00">hops::MHO_MD5HashGenerator</text>
<text text-anchor="start" x="8" y="-18.5" font-family="FreeSans" font-size="10.00">MultiType&lt; XValueType,</text>
<text text-anchor="middle" x="78.5" y="-7.5" font-family="FreeSans" font-size="10.00"> XValueTypeS... &gt;</text>
</a>
</g>
</g>
<!-- Node1&#45;&gt;Node3 -->
<g id="edge2" class="edge">
<title>Node1&#45;&gt;Node3</title>
<path fill="none" stroke="midnightblue" d="M78.5,-67.98C78.5,-59.35 78.5,-49.76 78.5,-41.59"/>
<polygon fill="midnightblue" stroke="midnightblue" points="75,-68.23 78.5,-78.23 82,-68.23 75,-68.23"/>
</g>
<!-- Node2 -->
<g id="node2" class="node">
<title>Node2</title>
<g id="a_node2"><a xlink:href="classhops_1_1MHO__MD5HashGeneratorSingleType.html" target="_top" xlink:title="Class MHO_MD5HashGeneratorSingleType &#45; template class for a single&#45;type streamer, generic for most PO...">
<polygon fill="white" stroke="black" points="0,-145.5 0,-175.5 157,-175.5 157,-145.5 0,-145.5"/>
<text text-anchor="start" x="8" y="-163.5" font-family="FreeSans" font-size="10.00">hops::MHO_MD5HashGenerator</text>
<text text-anchor="middle" x="78.5" y="-152.5" font-family="FreeSans" font-size="10.00">SingleType&lt; XValueType &gt;</text>
</a>
</g>
</g>
<!-- Node2&#45;&gt;Node1 -->
<g id="edge1" class="edge">
<title>Node2&#45;&gt;Node1</title>
<path fill="none" stroke="midnightblue" d="M78.5,-135.11C78.5,-126.15 78.5,-116.32 78.5,-108.58"/>
<polygon fill="midnightblue" stroke="midnightblue" points="75,-135.4 78.5,-145.4 82,-135.4 75,-135.4"/>
</g>
</g>
</svg>
