<?xml version="1.0" encoding="UTF-8" standalone="no"?>
<!DOCTYPE svg PUBLIC "-//W3C//DTD SVG 1.1//EN"
 "http://www.w3.org/Graphics/SVG/1.1/DTD/svg11.dtd">
<!-- Generated by graphviz version 2.43.0 (0)
 -->
<!-- Title: hops::MHO_OperatorBuilder Pages: 1 -->
<svg width="352pt" height="858pt"
 viewBox="0.00 0.00 352.00 858.00" xmlns="http://www.w3.org/2000/svg" xmlns:xlink="http://www.w3.org/1999/xlink">
<g id="graph0" class="graph" transform="scale(1 1) rotate(0) translate(4 854)">
<title>hops::MHO_OperatorBuilder</title>
<polygon fill="white" stroke="transparent" points="-4,4 -4,-854 348,-854 348,4 -4,4"/>
<!-- Node1 -->
<g id="node1" class="node">
<title>Node1</title>
<g id="a_node1"><a xlink:title="Abtract base class for a builder object (creates an operator for later use)">
<polygon fill="#bfbfbf" stroke="black" points="0,-416 0,-435 138,-435 138,-416 0,-416"/>
<text text-anchor="middle" x="69" y="-423" font-family="FreeSans" font-size="10.00">hops::MHO_OperatorBuilder</text>
</a>
</g>
</g>
<!-- Node2 -->
<g id="node2" class="node">
<title>Node2</title>
<g id="a_node2"><a xlink:href="classhops_1_1MHO__ChannelLabelerBuilder.html" target="_top" xlink:title="Class MHO_ChannelLabelerBuilder.">
<polygon fill="white" stroke="black" points="190,-819.5 190,-849.5 328,-849.5 328,-819.5 190,-819.5"/>
<text text-anchor="start" x="198" y="-837.5" font-family="FreeSans" font-size="10.00">hops::MHO_ChannelLabeler</text>
<text text-anchor="middle" x="259" y="-826.5" font-family="FreeSans" font-size="10.00">Builder</text>
</a>
</g>
</g>
<!-- Node1&#45;&gt;Node2 -->
<g id="edge1" class="edge">
<title>Node1&#45;&gt;Node2</title>
<path fill="none" stroke="midnightblue" d="M72.78,-445.47C83.07,-516.69 121.17,-756.9 174,-810.5 178.58,-815.14 183.99,-818.91 189.82,-821.95"/>
<polygon fill="midnightblue" stroke="midnightblue" points="76.19,-444.61 71.32,-435.2 69.26,-445.6 76.19,-444.61"/>
</g>
<!-- Node3 -->
<g id="node3" class="node">
<title>Node3</title>
<g id="a_node3"><a xlink:href="classhops_1_1MHO__CircularFieldRotationBuilder.html" target="_top" xlink:title="Class MHO_CircularFieldRotationBuilder.">
<polygon fill="white" stroke="black" points="178.5,-770.5 178.5,-800.5 339.5,-800.5 339.5,-770.5 178.5,-770.5"/>
<text text-anchor="start" x="186.5" y="-788.5" font-family="FreeSans" font-size="10.00">hops::MHO_CircularFieldRotation</text>
<text text-anchor="middle" x="259" y="-777.5" font-family="FreeSans" font-size="10.00">Builder</text>
</a>
</g>
</g>
<!-- Node1&#45;&gt;Node3 -->
<g id="edge2" class="edge">
<title>Node1&#45;&gt;Node3</title>
<path fill="none" stroke="midnightblue" d="M70.06,-445.33C71.33,-502.72 83.03,-670.59 174,-760.5 177.9,-764.35 182.36,-767.61 187.15,-770.38"/>
<polygon fill="midnightblue" stroke="midnightblue" points="73.55,-445.06 69.92,-435.1 66.55,-445.15 73.55,-445.06"/>
</g>
<!-- Node4 -->
<g id="node4" class="node">
<title>Node4</title>
<g id="a_node4"><a xlink:href="classhops_1_1MHO__DCBlockBuilder.html" target="_top" xlink:title="Class MHO_DCBlockBuilder.">
<polygon fill="white" stroke="black" points="189.5,-732 189.5,-751 328.5,-751 328.5,-732 189.5,-732"/>
<text text-anchor="middle" x="259" y="-739" font-family="FreeSans" font-size="10.00">hops::MHO_DCBlockBuilder</text>
</a>
</g>
</g>
<!-- Node1&#45;&gt;Node4 -->
<g id="edge3" class="edge">
<title>Node1&#45;&gt;Node4</title>
<path fill="none" stroke="midnightblue" d="M70.68,-445.48C73.65,-499.09 89.48,-647.13 174,-722.5 178.58,-726.58 183.84,-729.84 189.46,-732.44"/>
<polygon fill="midnightblue" stroke="midnightblue" points="74.17,-445.1 70.22,-435.27 67.18,-445.42 74.17,-445.1"/>
</g>
<!-- Node5 -->
<g id="node5" class="node">
<title>Node5</title>
<g id="a_node5"><a xlink:href="classhops_1_1MHO__DataSelectionBuilder.html" target="_top" xlink:title="Class MHO_DataSelectionBuilder.">
<polygon fill="white" stroke="black" points="178.5,-694 178.5,-713 339.5,-713 339.5,-694 178.5,-694"/>
<text text-anchor="middle" x="259" y="-701" font-family="FreeSans" font-size="10.00">hops::MHO_DataSelectionBuilder</text>
</a>
</g>
</g>
<!-- Node1&#45;&gt;Node5 -->
<g id="edge4" class="edge">
<title>Node1&#45;&gt;Node5</title>
<path fill="none" stroke="midnightblue" d="M71.81,-445.19C77.37,-493.82 98.71,-620.35 174,-684.5 178.44,-688.28 183.47,-691.35 188.82,-693.84"/>
<polygon fill="midnightblue" stroke="midnightblue" points="75.27,-444.65 70.75,-435.06 68.31,-445.37 75.27,-444.65"/>
</g>
<!-- Node6 -->
<g id="node6" class="node">
<title>Node6</title>
<g id="a_node6"><a xlink:href="classhops_1_1MHO__LSBOffsetBuilder.html" target="_top" xlink:title="Class MHO_LSBOffsetBuilder.">
<polygon fill="white" stroke="black" points="186,-656 186,-675 332,-675 332,-656 186,-656"/>
<text text-anchor="middle" x="259" y="-663" font-family="FreeSans" font-size="10.00">hops::MHO_LSBOffsetBuilder</text>
</a>
</g>
</g>
<!-- Node1&#45;&gt;Node6 -->
<g id="edge5" class="edge">
<title>Node1&#45;&gt;Node6</title>
<path fill="none" stroke="midnightblue" d="M73.31,-445.22C81.7,-488.77 108,-593.49 174,-646.5 178.78,-650.34 184.18,-653.44 189.89,-655.93"/>
<polygon fill="midnightblue" stroke="midnightblue" points="76.74,-444.53 71.51,-435.31 69.85,-445.78 76.74,-444.53"/>
</g>
<!-- Node7 -->
<g id="node7" class="node">
<title>Node7</title>
<g id="a_node7"><a xlink:href="classhops_1_1MHO__LinearDParCorrectionBuilder.html" target="_top" xlink:title="Class MHO_LinearDParCorrectionBuilder.">
<polygon fill="white" stroke="black" points="177,-606.5 177,-636.5 341,-636.5 341,-606.5 177,-606.5"/>
<text text-anchor="start" x="185" y="-624.5" font-family="FreeSans" font-size="10.00">hops::MHO_LinearDParCorrection</text>
<text text-anchor="middle" x="259" y="-613.5" font-family="FreeSans" font-size="10.00">Builder</text>
</a>
</g>
</g>
<!-- Node1&#45;&gt;Node7 -->
<g id="edge6" class="edge">
<title>Node1&#45;&gt;Node7</title>
<path fill="none" stroke="midnightblue" d="M76.24,-444.68C88.84,-480.31 120.74,-556.79 174,-597.5 178.46,-600.91 183.38,-603.83 188.55,-606.34"/>
<polygon fill="midnightblue" stroke="midnightblue" points="79.49,-443.35 72.95,-435.02 72.87,-445.61 79.49,-443.35"/>
</g>
<!-- Node8 -->
<g id="node8" class="node">
<title>Node8</title>
<g id="a_node8"><a xlink:href="classhops_1_1MHO__ManualChannelDelayCorrectionBuilder.html" target="_top" xlink:title="Class MHO_ManualChannelDelayCorrectionBuilder.">
<polygon fill="white" stroke="black" points="178.5,-557.5 178.5,-587.5 339.5,-587.5 339.5,-557.5 178.5,-557.5"/>
<text text-anchor="start" x="186.5" y="-575.5" font-family="FreeSans" font-size="10.00">hops::MHO_ManualChannelDelay</text>
<text text-anchor="middle" x="259" y="-564.5" font-family="FreeSans" font-size="10.00">CorrectionBuilder</text>
</a>
</g>
</g>
<!-- Node1&#45;&gt;Node8 -->
<g id="edge7" class="edge">
<title>Node1&#45;&gt;Node8</title>
<path fill="none" stroke="midnightblue" d="M80.66,-444C97.18,-471.03 131.53,-521.06 174,-548.5 179.35,-551.96 185.21,-554.93 191.26,-557.47"/>
<polygon fill="midnightblue" stroke="midnightblue" points="83.52,-441.97 75.4,-435.17 77.51,-445.55 83.52,-441.97"/>
</g>
<!-- Node9 -->
<g id="node9" class="node">
<title>Node9</title>
<g id="a_node9"><a xlink:href="classhops_1_1MHO__ManualChannelPhaseCorrectionBuilder.html" target="_top" xlink:title="Class MHO_ManualChannelPhaseCorrectionBuilder.">
<polygon fill="white" stroke="black" points="176.5,-508.5 176.5,-538.5 341.5,-538.5 341.5,-508.5 176.5,-508.5"/>
<text text-anchor="start" x="184.5" y="-526.5" font-family="FreeSans" font-size="10.00">hops::MHO_ManualChannelPhase</text>
<text text-anchor="middle" x="259" y="-515.5" font-family="FreeSans" font-size="10.00">CorrectionBuilder</text>
</a>
</g>
</g>
<!-- Node1&#45;&gt;Node9 -->
<g id="edge8" class="edge">
<title>Node1&#45;&gt;Node9</title>
<path fill="none" stroke="midnightblue" d="M88.41,-441.58C108.29,-458.2 141.5,-483.87 174,-499.5 180.97,-502.85 188.5,-505.82 196.08,-508.43"/>
<polygon fill="midnightblue" stroke="midnightblue" points="90.63,-438.88 80.74,-435.07 86.1,-444.21 90.63,-438.88"/>
</g>
<!-- Node10 -->
<g id="node10" class="node">
<title>Node10</title>
<g id="a_node10"><a xlink:href="classhops_1_1MHO__ManualPolDelayCorrectionBuilder.html" target="_top" xlink:title="Class MHO_ManualPolDelayCorrectionBuilder.">
<polygon fill="white" stroke="black" points="189,-459.5 189,-489.5 329,-489.5 329,-459.5 189,-459.5"/>
<text text-anchor="start" x="197" y="-477.5" font-family="FreeSans" font-size="10.00">hops::MHO_ManualPolDelay</text>
<text text-anchor="middle" x="259" y="-466.5" font-family="FreeSans" font-size="10.00">CorrectionBuilder</text>
</a>
</g>
</g>
<!-- Node1&#45;&gt;Node10 -->
<g id="edge9" class="edge">
<title>Node1&#45;&gt;Node10</title>
<path fill="none" stroke="midnightblue" d="M116.43,-437.6C141.78,-444.21 173.39,-452.45 200.31,-459.46"/>
<polygon fill="midnightblue" stroke="midnightblue" points="117.25,-434.2 106.69,-435.06 115.49,-440.97 117.25,-434.2"/>
</g>
<!-- Node11 -->
<g id="node11" class="node">
<title>Node11</title>
<g id="a_node11"><a xlink:href="classhops_1_1MHO__ManualPolPhaseCorrectionBuilder.html" target="_top" xlink:title="Class MHO_ManualPolPhaseCorrectionBuilder.">
<polygon fill="white" stroke="black" points="187,-410.5 187,-440.5 331,-440.5 331,-410.5 187,-410.5"/>
<text text-anchor="start" x="195" y="-428.5" font-family="FreeSans" font-size="10.00">hops::MHO_ManualPolPhase</text>
<text text-anchor="middle" x="259" y="-417.5" font-family="FreeSans" font-size="10.00">CorrectionBuilder</text>
</a>
</g>
</g>
<!-- Node1&#45;&gt;Node11 -->
<g id="edge10" class="edge">
<title>Node1&#45;&gt;Node11</title>
<path fill="none" stroke="midnightblue" d="M148.3,-425.5C161.11,-425.5 174.31,-425.5 186.93,-425.5"/>
<polygon fill="midnightblue" stroke="midnightblue" points="148.14,-422 138.14,-425.5 148.14,-429 148.14,-422"/>
</g>
<!-- Node12 -->
<g id="node12" class="node">
<title>Node12</title>
<g id="a_node12"><a xlink:href="classhops_1_1MHO__MinWeightBuilder.html" target="_top" xlink:title="Class MHO_MinWeightBuilder.">
<polygon fill="white" stroke="black" points="186,-372 186,-391 332,-391 332,-372 186,-372"/>
<text text-anchor="middle" x="259" y="-379" font-family="FreeSans" font-size="10.00">hops::MHO_MinWeightBuilder</text>
</a>
</g>
</g>
<!-- Node1&#45;&gt;Node12 -->
<g id="edge11" class="edge">
<title>Node1&#45;&gt;Node12</title>
<path fill="none" stroke="midnightblue" d="M120.74,-413.62C151.03,-406.54 188.97,-397.66 217.29,-391.03"/>
<polygon fill="midnightblue" stroke="midnightblue" points="119.73,-410.27 110.79,-415.95 121.33,-417.08 119.73,-410.27"/>
</g>
<!-- Node13 -->
<g id="node13" class="node">
<title>Node13</title>
<g id="a_node13"><a xlink:href="classhops_1_1MHO__MixedPolYShiftBuilder.html" target="_top" xlink:title="Class MHO_MixedPolYShiftBuilder.">
<polygon fill="white" stroke="black" points="190.5,-322.5 190.5,-352.5 327.5,-352.5 327.5,-322.5 190.5,-322.5"/>
<text text-anchor="start" x="198.5" y="-340.5" font-family="FreeSans" font-size="10.00">hops::MHO_MixedPolYShift</text>
<text text-anchor="middle" x="259" y="-329.5" font-family="FreeSans" font-size="10.00">Builder</text>
</a>
</g>
</g>
<!-- Node1&#45;&gt;Node13 -->
<g id="edge12" class="edge">
<title>Node1&#45;&gt;Node13</title>
<path fill="none" stroke="midnightblue" d="M91.46,-410.26C111.89,-396.29 143.9,-375.83 174,-362.5 182.35,-358.8 191.4,-355.47 200.36,-352.52"/>
<polygon fill="midnightblue" stroke="midnightblue" points="89.42,-407.41 83.19,-415.98 93.4,-413.17 89.42,-407.41"/>
</g>
<!-- Node14 -->
<g id="node14" class="node">
<title>Node14</title>
<g id="a_node14"><a xlink:href="classhops_1_1MHO__MultitonePhaseCorrectionBuilder.html" target="_top" xlink:title="Class MHO_MultitonePhaseCorrectionBuilder.">
<polygon fill="white" stroke="black" points="190,-273.5 190,-303.5 328,-303.5 328,-273.5 190,-273.5"/>
<text text-anchor="start" x="198" y="-291.5" font-family="FreeSans" font-size="10.00">hops::MHO_MultitonePhase</text>
<text text-anchor="middle" x="259" y="-280.5" font-family="FreeSans" font-size="10.00">CorrectionBuilder</text>
</a>
</g>
</g>
<!-- Node1&#45;&gt;Node14 -->
<g id="edge13" class="edge">
<title>Node1&#45;&gt;Node14</title>
<path fill="none" stroke="midnightblue" d="M82.1,-407.31C99.53,-382.51 134.03,-338.33 174,-313.5 180.2,-309.65 187.03,-306.36 194.04,-303.56"/>
<polygon fill="midnightblue" stroke="midnightblue" points="79.05,-405.56 76.28,-415.79 84.83,-409.52 79.05,-405.56"/>
</g>
<!-- Node15 -->
<g id="node15" class="node">
<title>Node15</title>
<g id="a_node15"><a xlink:href="classhops_1_1MHO__NotchesBuilder.html" target="_top" xlink:title="Class MHO_NotchesBuilder.">
<polygon fill="white" stroke="black" points="190.5,-235 190.5,-254 327.5,-254 327.5,-235 190.5,-235"/>
<text text-anchor="middle" x="259" y="-242" font-family="FreeSans" font-size="10.00">hops::MHO_NotchesBuilder</text>
</a>
</g>
</g>
<!-- Node1&#45;&gt;Node15 -->
<g id="edge14" class="edge">
<title>Node1&#45;&gt;Node15</title>
<path fill="none" stroke="midnightblue" d="M76.99,-405.92C90.27,-371.63 122.52,-300.91 174,-264.5 180.12,-260.17 187.05,-256.77 194.25,-254.1"/>
<polygon fill="midnightblue" stroke="midnightblue" points="73.56,-405.09 73.34,-415.68 80.12,-407.54 73.56,-405.09"/>
</g>
<!-- Node16 -->
<g id="node16" class="node">
<title>Node16</title>
<g id="a_node16"><a xlink:href="classhops_1_1MHO__PassbandBuilder.html" target="_top" xlink:title="Class MHO_PassbandBuilder.">
<polygon fill="white" stroke="black" points="187,-197 187,-216 331,-216 331,-197 187,-197"/>
<text text-anchor="middle" x="259" y="-204" font-family="FreeSans" font-size="10.00">hops::MHO_PassbandBuilder</text>
</a>
</g>
</g>
<!-- Node1&#45;&gt;Node16 -->
<g id="edge15" class="edge">
<title>Node1&#45;&gt;Node16</title>
<path fill="none" stroke="midnightblue" d="M74.37,-405.73C84.41,-365.19 113.09,-272.46 174,-225.5 178.97,-221.67 184.58,-218.58 190.47,-216.09"/>
<polygon fill="midnightblue" stroke="midnightblue" points="70.91,-405.17 72.02,-415.71 77.72,-406.78 70.91,-405.17"/>
</g>
<!-- Node17 -->
<g id="node17" class="node">
<title>Node17</title>
<g id="a_node17"><a xlink:href="classhops_1_1MHO__PolProductSummationBuilder.html" target="_top" xlink:title="Class MHO_PolProductSummationBuilder.">
<polygon fill="white" stroke="black" points="175,-147.5 175,-177.5 343,-177.5 343,-147.5 175,-147.5"/>
<text text-anchor="start" x="183" y="-165.5" font-family="FreeSans" font-size="10.00">hops::MHO_PolProductSummation</text>
<text text-anchor="middle" x="259" y="-154.5" font-family="FreeSans" font-size="10.00">Builder</text>
</a>
</g>
</g>
<!-- Node1&#45;&gt;Node17 -->
<g id="edge16" class="edge">
<title>Node1&#45;&gt;Node17</title>
<path fill="none" stroke="midnightblue" d="M72.94,-405.56C80.72,-359.98 106.11,-247.53 174,-187.5 178.33,-183.67 183.23,-180.43 188.43,-177.68"/>
<polygon fill="midnightblue" stroke="midnightblue" points="69.45,-405.2 71.33,-415.63 76.36,-406.31 69.45,-405.2"/>
</g>
<!-- Node18 -->
<g id="node18" class="node">
<title>Node18</title>
<g id="a_node18"><a xlink:href="classhops_1_1MHO__PythonOperatorBuilder.html" target="_top" xlink:title=" ">
<polygon fill="white" stroke="black" points="190,-98.5 190,-128.5 328,-128.5 328,-98.5 190,-98.5"/>
<text text-anchor="start" x="198" y="-116.5" font-family="FreeSans" font-size="10.00">hops::MHO_PythonOperator</text>
<text text-anchor="middle" x="259" y="-105.5" font-family="FreeSans" font-size="10.00">Builder</text>
</a>
</g>
</g>
<!-- Node1&#45;&gt;Node18 -->
<g id="edge17" class="edge">
<title>Node1&#45;&gt;Node18</title>
<path fill="none" stroke="midnightblue" d="M71.24,-405.8C75.56,-354.13 94.43,-213.55 174,-138.5 178.65,-134.12 184.03,-130.5 189.79,-127.51"/>
<polygon fill="midnightblue" stroke="midnightblue" points="67.74,-405.7 70.49,-415.93 74.72,-406.22 67.74,-405.7"/>
</g>
<!-- Node19 -->
<g id="node19" class="node">
<title>Node19</title>
<g id="a_node19"><a xlink:href="classhops_1_1MHO__SamplerLabelerBuilder.html" target="_top" xlink:title="Class MHO_SamplerLabelerBuilder.">
<polygon fill="white" stroke="black" points="189.5,-49.5 189.5,-79.5 328.5,-79.5 328.5,-49.5 189.5,-49.5"/>
<text text-anchor="start" x="197.5" y="-67.5" font-family="FreeSans" font-size="10.00">hops::MHO_SamplerLabeler</text>
<text text-anchor="middle" x="259" y="-56.5" font-family="FreeSans" font-size="10.00">Builder</text>
</a>
</g>
</g>
<!-- Node1&#45;&gt;Node19 -->
<g id="edge18" class="edge">
<title>Node1&#45;&gt;Node19</title>
<path fill="none" stroke="midnightblue" d="M70.04,-405.61C71.25,-348.06 82.82,-179.69 174,-89.5 178.44,-85.11 183.6,-81.49 189.16,-78.5"/>
<polygon fill="midnightblue" stroke="midnightblue" points="66.53,-405.83 69.91,-415.87 73.53,-405.91 66.53,-405.83"/>
</g>
<!-- Node20 -->
<g id="node20" class="node">
<title>Node20</title>
<g id="a_node20"><a xlink:href="classhops_1_1MHO__StationDelayCorrectionBuilder.html" target="_top" xlink:title="Class MHO_StationDelayCorrectionBuilder.">
<polygon fill="white" stroke="black" points="174,-0.5 174,-30.5 344,-30.5 344,-0.5 174,-0.5"/>
<text text-anchor="start" x="182" y="-18.5" font-family="FreeSans" font-size="10.00">hops::MHO_StationDelayCorrection</text>
<text text-anchor="middle" x="259" y="-7.5" font-family="FreeSans" font-size="10.00">Builder</text>
</a>
</g>
</g>
<!-- Node1&#45;&gt;Node20 -->
<g id="edge19" class="edge">
<title>Node1&#45;&gt;Node20</title>
<path fill="none" stroke="midnightblue" d="M72.8,-405.55C83.16,-334.4 121.47,-94.39 174,-40.5 177.72,-36.69 181.99,-33.45 186.59,-30.7"/>
<polygon fill="midnightblue" stroke="midnightblue" points="69.28,-405.41 71.33,-415.81 76.21,-406.4 69.28,-405.41"/>
</g>
</g>
</svg>
