<?xml version="1.0" encoding="UTF-8" standalone="no"?>
<!DOCTYPE svg PUBLIC "-//W3C//DTD SVG 1.1//EN"
 "http://www.w3.org/Graphics/SVG/1.1/DTD/svg11.dtd">
<!-- Generated by graphviz version 2.43.0 (0)
 -->
<!-- Title: hops::MHO_IntervalLabelInterface Pages: 1 -->
<svg width="318pt" height="84pt"
 viewBox="0.00 0.00 318.00 84.00" xmlns="http://www.w3.org/2000/svg" xmlns:xlink="http://www.w3.org/1999/xlink">
<g id="graph0" class="graph" transform="scale(1 1) rotate(0) translate(4 80)">
<title>hops::MHO_IntervalLabelInterface</title>
<polygon fill="white" stroke="transparent" points="-4,4 -4,-80 314,-80 314,4 -4,4"/>
<!-- Node1 -->
<g id="node1" class="node">
<title>Node1</title>
<g id="a_node1"><a xlink:title="Class MHO_IntervalLabelInterface &#45; adds intervals with associated key:value pairs (used by MHO_Axis) ...">
<polygon fill="#bfbfbf" stroke="black" points="66.5,-56.5 66.5,-75.5 231.5,-75.5 231.5,-56.5 66.5,-56.5"/>
<text text-anchor="middle" x="149" y="-63.5" font-family="FreeSans" font-size="10.00">hops::MHO_IntervalLabelInterface</text>
</a>
</g>
</g>
<!-- Node2 -->
<g id="node2" class="node">
<title>Node2</title>
<g id="a_node2"><a xlink:href="classhops_1_1MHO__Axis.html" target="_top" xlink:title=" ">
<polygon fill="white" stroke="black" points="0,-0.5 0,-19.5 134,-19.5 134,-0.5 0,-0.5"/>
<text text-anchor="middle" x="67" y="-7.5" font-family="FreeSans" font-size="10.00">hops::MHO_Axis&lt; double &gt;</text>
</a>
</g>
</g>
<!-- Node1&#45;&gt;Node2 -->
<g id="edge1" class="edge">
<title>Node1&#45;&gt;Node2</title>
<path fill="none" stroke="midnightblue" d="M127.17,-50.62C112.19,-40.76 92.8,-27.99 80.14,-19.65"/>
<polygon fill="midnightblue" stroke="midnightblue" points="125.55,-53.75 135.83,-56.32 129.4,-47.9 125.55,-53.75"/>
</g>
<!-- Node3 -->
<g id="node3" class="node">
<title>Node3</title>
<g id="a_node3"><a xlink:href="classhops_1_1MHO__Axis.html" target="_top" xlink:title="Class MHO_Axis.">
<polygon fill="white" stroke="black" points="152,-0.5 152,-19.5 310,-19.5 310,-0.5 152,-0.5"/>
<text text-anchor="middle" x="231" y="-7.5" font-family="FreeSans" font-size="10.00">hops::MHO_Axis&lt; XValueType &gt;</text>
</a>
</g>
</g>
<!-- Node1&#45;&gt;Node3 -->
<g id="edge2" class="edge">
<title>Node1&#45;&gt;Node3</title>
<path fill="none" stroke="midnightblue" d="M170.83,-50.62C185.81,-40.76 205.2,-27.99 217.86,-19.65"/>
<polygon fill="midnightblue" stroke="midnightblue" points="168.6,-47.9 162.17,-56.32 172.45,-53.75 168.6,-47.9"/>
</g>
</g>
</svg>
