<?xml version="1.0" encoding="UTF-8" standalone="no"?>
<!DOCTYPE svg PUBLIC "-//W3C//DTD SVG 1.1//EN"
 "http://www.w3.org/Graphics/SVG/1.1/DTD/svg11.dtd">
<!-- Generated by graphviz version 2.43.0 (0)
 -->
<!-- Title: hops::MHO_UnaryFunctor&lt; XArrayType &gt; Pages: 1 -->
<svg width="328pt" height="137pt"
 viewBox="0.00 0.00 328.00 137.00" xmlns="http://www.w3.org/2000/svg" xmlns:xlink="http://www.w3.org/1999/xlink">
<g id="graph0" class="graph" transform="scale(1 1) rotate(0) translate(4 133)">
<title>hops::MHO_UnaryFunctor&lt; XArrayType &gt;</title>
<polygon fill="white" stroke="transparent" points="-4,4 -4,-133 324,-133 324,4 -4,4"/>
<!-- Node1 -->
<g id="node1" class="node">
<title>Node1</title>
<g id="a_node1"><a xlink:title="Class MHO_UnaryFunctor.">
<polygon fill="#bfbfbf" stroke="black" points="0,-49.5 0,-79.5 129,-79.5 129,-49.5 0,-49.5"/>
<text text-anchor="start" x="8" y="-67.5" font-family="FreeSans" font-size="10.00">hops::MHO_UnaryFunctor</text>
<text text-anchor="middle" x="64.5" y="-56.5" font-family="FreeSans" font-size="10.00">&lt; XArrayType &gt;</text>
</a>
</g>
</g>
<!-- Node2 -->
<g id="node2" class="node">
<title>Node2</title>
<g id="a_node2"><a xlink:href="classhops_1_1MHO__AbsoluteValue.html" target="_top" xlink:title="Class MHO_AbsoluteValue.">
<polygon fill="white" stroke="black" points="175.5,-98.5 175.5,-128.5 309.5,-128.5 309.5,-98.5 175.5,-98.5"/>
<text text-anchor="start" x="183.5" y="-116.5" font-family="FreeSans" font-size="10.00">hops::MHO_AbsoluteValue</text>
<text text-anchor="middle" x="242.5" y="-105.5" font-family="FreeSans" font-size="10.00">&lt; XArrayType &gt;</text>
</a>
</g>
</g>
<!-- Node1&#45;&gt;Node2 -->
<g id="edge1" class="edge">
<title>Node1&#45;&gt;Node2</title>
<path fill="none" stroke="midnightblue" d="M129.51,-82.32C148.51,-87.61 169.13,-93.35 187.44,-98.45"/>
<polygon fill="midnightblue" stroke="midnightblue" points="130.31,-78.91 119.74,-79.6 128.44,-85.66 130.31,-78.91"/>
</g>
<!-- Node3 -->
<g id="node3" class="node">
<title>Node3</title>
<g id="a_node3"><a xlink:href="classhops_1_1MHO__ComplexConjugator.html" target="_top" xlink:title="Class MHO_ComplexConjugator.">
<polygon fill="white" stroke="black" points="165,-49.5 165,-79.5 320,-79.5 320,-49.5 165,-49.5"/>
<text text-anchor="start" x="173" y="-67.5" font-family="FreeSans" font-size="10.00">hops::MHO_ComplexConjugator</text>
<text text-anchor="middle" x="242.5" y="-56.5" font-family="FreeSans" font-size="10.00">&lt; XArrayType &gt;</text>
</a>
</g>
</g>
<!-- Node1&#45;&gt;Node3 -->
<g id="edge2" class="edge">
<title>Node1&#45;&gt;Node3</title>
<path fill="none" stroke="midnightblue" d="M139.25,-64.5C147.71,-64.5 156.35,-64.5 164.85,-64.5"/>
<polygon fill="midnightblue" stroke="midnightblue" points="139.04,-61 129.04,-64.5 139.04,-68 139.04,-61"/>
</g>
<!-- Node4 -->
<g id="node4" class="node">
<title>Node4</title>
<g id="a_node4"><a xlink:href="classhops_1_1MHO__NaNMasker.html" target="_top" xlink:title="Class MHO_NaNMasker.">
<polygon fill="white" stroke="black" points="181,-0.5 181,-30.5 304,-30.5 304,-0.5 181,-0.5"/>
<text text-anchor="start" x="189" y="-18.5" font-family="FreeSans" font-size="10.00">hops::MHO_NaNMasker</text>
<text text-anchor="middle" x="242.5" y="-7.5" font-family="FreeSans" font-size="10.00">&lt; XArrayType &gt;</text>
</a>
</g>
</g>
<!-- Node1&#45;&gt;Node4 -->
<g id="edge3" class="edge">
<title>Node1&#45;&gt;Node4</title>
<path fill="none" stroke="midnightblue" d="M129.51,-46.68C148.51,-41.39 169.13,-35.65 187.44,-30.55"/>
<polygon fill="midnightblue" stroke="midnightblue" points="128.44,-43.34 119.74,-49.4 130.31,-50.09 128.44,-43.34"/>
</g>
</g>
</svg>
