<?xml version="1.0" encoding="UTF-8" standalone="no"?>
<!DOCTYPE svg PUBLIC "-//W3C//DTD SVG 1.1//EN"
 "http://www.w3.org/Graphics/SVG/1.1/DTD/svg11.dtd">
<!-- Generated by graphviz version 2.43.0 (0)
 -->
<!-- Title: hops::MHO_TableContainer&lt; XValueType, XAxisPackType &gt; Pages: 1 -->
<svg width="690pt" height="183pt"
 viewBox="0.00 0.00 690.00 183.00" xmlns="http://www.w3.org/2000/svg" xmlns:xlink="http://www.w3.org/1999/xlink">
<g id="graph0" class="graph" transform="scale(1 1) rotate(0) translate(4 179)">
<title>hops::MHO_TableContainer&lt; XValueType, XAxisPackType &gt;</title>
<polygon fill="white" stroke="transparent" points="-4,4 -4,-179 686,-179 686,4 -4,4"/>
<!-- Node1 -->
<g id="node1" class="node">
<title>Node1</title>
<g id="a_node1"><a xlink:title="Class MHO_TableContainer.">
<polygon fill="#bfbfbf" stroke="black" points="522,-76 522,-106 682,-106 682,-76 522,-76"/>
<text text-anchor="start" x="530" y="-94" font-family="FreeSans" font-size="10.00">hops::MHO_TableContainer</text>
<text text-anchor="middle" x="602" y="-83" font-family="FreeSans" font-size="10.00">&lt; XValueType, XAxisPackType &gt;</text>
</a>
</g>
</g>
<!-- Node2 -->
<g id="node2" class="node">
<title>Node2</title>
<g id="a_node2"><a xlink:href="classhops_1_1MHO__TableContainerBase.html" target="_top" xlink:title=" ">
<polygon fill="white" stroke="black" points="328,-155.5 328,-174.5 486,-174.5 486,-155.5 328,-155.5"/>
<text text-anchor="middle" x="407" y="-162.5" font-family="FreeSans" font-size="10.00">hops::MHO_TableContainerBase</text>
</a>
</g>
</g>
<!-- Node2&#45;&gt;Node1 -->
<g id="edge1" class="edge">
<title>Node2&#45;&gt;Node1</title>
<path fill="none" stroke="midnightblue" d="M464,-152.85C471.47,-150.8 478.97,-148.51 486,-146 516.85,-135 550.47,-118.34 573.34,-106.23"/>
<polygon fill="midnightblue" stroke="midnightblue" points="463.03,-149.48 454.25,-155.41 464.81,-156.26 463.03,-149.48"/>
</g>
<!-- Node3 -->
<g id="node3" class="node">
<title>Node3</title>
<g id="a_node3"><a xlink:href="classhops_1_1MHO__NDArrayWrapper.html" target="_top" xlink:title=" ">
<polygon fill="white" stroke="black" points="331,-95.5 331,-136.5 483,-136.5 483,-95.5 331,-95.5"/>
<text text-anchor="start" x="339" y="-124.5" font-family="FreeSans" font-size="10.00">hops::MHO_NDArrayWrapper</text>
<text text-anchor="start" x="339" y="-113.5" font-family="FreeSans" font-size="10.00">&lt; XValueType, XAxisPackType</text>
<text text-anchor="middle" x="407" y="-102.5" font-family="FreeSans" font-size="10.00">::NAXES::value &gt;</text>
</a>
</g>
</g>
<!-- Node3&#45;&gt;Node1 -->
<g id="edge2" class="edge">
<title>Node3&#45;&gt;Node1</title>
<path fill="none" stroke="midnightblue" d="M493.38,-104.94C502.87,-103.71 512.49,-102.46 521.89,-101.25"/>
<polygon fill="midnightblue" stroke="midnightblue" points="492.64,-101.51 483.17,-106.26 493.54,-108.45 492.64,-101.51"/>
</g>
<!-- Node4 -->
<g id="node4" class="node">
<title>Node4</title>
<g id="a_node4"><a xlink:href="classhops_1_1MHO__ExtensibleElement.html" target="_top" xlink:title="Class MHO_ExtensibleElement.">
<polygon fill="white" stroke="black" points="142,-106.5 142,-125.5 292,-125.5 292,-106.5 142,-106.5"/>
<text text-anchor="middle" x="217" y="-113.5" font-family="FreeSans" font-size="10.00">hops::MHO_ExtensibleElement</text>
</a>
</g>
</g>
<!-- Node4&#45;&gt;Node3 -->
<g id="edge3" class="edge">
<title>Node4&#45;&gt;Node3</title>
<path fill="none" stroke="midnightblue" d="M302.28,-116C311.78,-116 321.42,-116 330.8,-116"/>
<polygon fill="midnightblue" stroke="midnightblue" points="302.03,-112.5 292.03,-116 302.03,-119.5 302.03,-112.5"/>
</g>
<!-- Node5 -->
<g id="node5" class="node">
<title>Node5</title>
<g id="a_node5"><a xlink:href="classhops_1_1MHO__Element.html" target="_top" xlink:title="Class MHO_Element.">
<polygon fill="white" stroke="black" points="0,-106.5 0,-125.5 106,-125.5 106,-106.5 0,-106.5"/>
<text text-anchor="middle" x="53" y="-113.5" font-family="FreeSans" font-size="10.00">hops::MHO_Element</text>
</a>
</g>
</g>
<!-- Node5&#45;&gt;Node4 -->
<g id="edge4" class="edge">
<title>Node5&#45;&gt;Node4</title>
<path fill="none" stroke="midnightblue" d="M116.21,-116C124.59,-116 133.26,-116 141.82,-116"/>
<polygon fill="midnightblue" stroke="midnightblue" points="116.15,-112.5 106.15,-116 116.15,-119.5 116.15,-112.5"/>
</g>
<!-- Node6 -->
<g id="node6" class="node">
<title>Node6</title>
<g id="a_node6"><a xlink:href="classXAxisPackType.html" target="_top" xlink:title=" ">
<polygon fill="white" stroke="black" points="364,-57.5 364,-76.5 450,-76.5 450,-57.5 364,-57.5"/>
<text text-anchor="middle" x="407" y="-64.5" font-family="FreeSans" font-size="10.00">XAxisPackType</text>
</a>
</g>
</g>
<!-- Node6&#45;&gt;Node1 -->
<g id="edge5" class="edge">
<title>Node6&#45;&gt;Node1</title>
<path fill="none" stroke="midnightblue" d="M460.53,-73.53C479.42,-75.88 501.17,-78.59 521.82,-81.15"/>
<polygon fill="midnightblue" stroke="midnightblue" points="460.71,-70.03 450.35,-72.27 459.85,-76.97 460.71,-70.03"/>
</g>
<!-- Node7 -->
<g id="node7" class="node">
<title>Node7</title>
<g id="a_node7"><a xlink:href="classhops_1_1MHO__Taggable.html" target="_top" xlink:title="Class MHO_Taggable.">
<polygon fill="white" stroke="black" points="352,-19.5 352,-38.5 462,-38.5 462,-19.5 352,-19.5"/>
<text text-anchor="middle" x="407" y="-26.5" font-family="FreeSans" font-size="10.00">hops::MHO_Taggable</text>
</a>
</g>
</g>
<!-- Node7&#45;&gt;Node1 -->
<g id="edge6" class="edge">
<title>Node7&#45;&gt;Node1</title>
<path fill="none" stroke="midnightblue" d="M460.94,-40.99C469.37,-43.16 477.96,-45.53 486,-48 512.49,-56.15 541.73,-67.11 564.1,-75.92"/>
<polygon fill="midnightblue" stroke="midnightblue" points="461.71,-37.58 451.16,-38.54 460.01,-44.37 461.71,-37.58"/>
</g>
<!-- Node8 -->
<g id="node8" class="node">
<title>Node8</title>
<g id="a_node8"><a xlink:href="classhops_1_1MHO__JSONWrapper.html" target="_top" xlink:title=" ">
<polygon fill="white" stroke="black" points="150,-38.5 150,-57.5 284,-57.5 284,-38.5 150,-38.5"/>
<text text-anchor="middle" x="217" y="-45.5" font-family="FreeSans" font-size="10.00">hops::MHO_JSONWrapper</text>
</a>
</g>
</g>
<!-- Node8&#45;&gt;Node7 -->
<g id="edge7" class="edge">
<title>Node8&#45;&gt;Node7</title>
<path fill="none" stroke="midnightblue" d="M294.04,-40.31C313.44,-38.35 333.89,-36.29 351.94,-34.46"/>
<polygon fill="midnightblue" stroke="midnightblue" points="293.61,-36.84 284.02,-41.33 294.32,-43.8 293.61,-36.84"/>
</g>
<!-- Node9 -->
<g id="node9" class="node">
<title>Node9</title>
<g id="a_node9"><a xlink:href="classhops_1_1MHO__Serializable.html" target="_top" xlink:title="Class MHO_Serializable.">
<polygon fill="white" stroke="black" points="157,-0.5 157,-19.5 277,-19.5 277,-0.5 157,-0.5"/>
<text text-anchor="middle" x="217" y="-7.5" font-family="FreeSans" font-size="10.00">hops::MHO_Serializable</text>
</a>
</g>
</g>
<!-- Node9&#45;&gt;Node7 -->
<g id="edge8" class="edge">
<title>Node9&#45;&gt;Node7</title>
<path fill="none" stroke="midnightblue" d="M287.2,-16.99C308.53,-19.15 331.7,-21.49 351.86,-23.53"/>
<polygon fill="midnightblue" stroke="midnightblue" points="287.53,-13.51 277.23,-15.99 286.82,-20.47 287.53,-13.51"/>
</g>
</g>
</svg>
