<?xml version="1.0" encoding="UTF-8" standalone="no"?>
<!DOCTYPE svg PUBLIC "-//W3C//DTD SVG 1.1//EN"
 "http://www.w3.org/Graphics/SVG/1.1/DTD/svg11.dtd">
<!-- Generated by graphviz version 2.43.0 (0)
 -->
<!-- Title: hops::MHO_Element Pages: 1 -->
<svg width="878pt" height="694pt"
 viewBox="0.00 0.00 878.00 693.50" xmlns="http://www.w3.org/2000/svg" xmlns:xlink="http://www.w3.org/1999/xlink">
<g id="graph0" class="graph" transform="scale(1 1) rotate(0) translate(4 689.5)">
<title>hops::MHO_Element</title>
<polygon fill="white" stroke="transparent" points="-4,4 -4,-689.5 874,-689.5 874,4 -4,4"/>
<!-- Node1 -->
<g id="node1" class="node">
<title>Node1</title>
<g id="a_node1"><a xlink:title="Class MHO_Element.">
<polygon fill="#bfbfbf" stroke="black" points="0,-342.5 0,-361.5 106,-361.5 106,-342.5 0,-342.5"/>
<text text-anchor="middle" x="53" y="-349.5" font-family="FreeSans" font-size="10.00">hops::MHO_Element</text>
</a>
</g>
</g>
<!-- Node2 -->
<g id="node2" class="node">
<title>Node2</title>
<g id="a_node2"><a xlink:href="classhops_1_1MHO__ExtendedElement.html" target="_top" xlink:title="Class MHO_ExtendedElement.">
<polygon fill="white" stroke="black" points="144,-359 144,-389 290,-389 290,-359 144,-359"/>
<text text-anchor="start" x="152" y="-377" font-family="FreeSans" font-size="10.00">hops::MHO_ExtendedElement</text>
<text text-anchor="middle" x="217" y="-366" font-family="FreeSans" font-size="10.00">&lt; XExtensionType &gt;</text>
</a>
</g>
</g>
<!-- Node1&#45;&gt;Node2 -->
<g id="edge1" class="edge">
<title>Node1&#45;&gt;Node2</title>
<path fill="none" stroke="midnightblue" d="M116.21,-360.45C125.26,-361.68 134.65,-362.95 143.88,-364.21"/>
<polygon fill="midnightblue" stroke="midnightblue" points="116.53,-356.96 106.15,-359.08 115.59,-363.9 116.53,-356.96"/>
</g>
<!-- Node3 -->
<g id="node3" class="node">
<title>Node3</title>
<g id="a_node3"><a xlink:href="classhops_1_1MHO__ExtensibleElement.html" target="_top" xlink:title="Class MHO_ExtensibleElement.">
<polygon fill="white" stroke="black" points="142,-320.5 142,-339.5 292,-339.5 292,-320.5 142,-320.5"/>
<text text-anchor="middle" x="217" y="-327.5" font-family="FreeSans" font-size="10.00">hops::MHO_ExtensibleElement</text>
</a>
</g>
</g>
<!-- Node1&#45;&gt;Node3 -->
<g id="edge2" class="edge">
<title>Node1&#45;&gt;Node3</title>
<path fill="none" stroke="midnightblue" d="M116.14,-343.56C125.89,-342.24 136.02,-340.86 145.93,-339.52"/>
<polygon fill="midnightblue" stroke="midnightblue" points="115.59,-340.1 106.15,-344.92 116.53,-347.04 115.59,-340.1"/>
</g>
<!-- Node4 -->
<g id="node4" class="node">
<title>Node4</title>
<g id="a_node4"><a xlink:href="classhops_1_1MHO__NDArrayWrapper.html" target="_top" xlink:title=" ">
<polygon fill="white" stroke="black" points="328,-558.5 328,-599.5 480,-599.5 480,-558.5 328,-558.5"/>
<text text-anchor="start" x="336" y="-587.5" font-family="FreeSans" font-size="10.00">hops::MHO_NDArrayWrapper</text>
<text text-anchor="start" x="336" y="-576.5" font-family="FreeSans" font-size="10.00">&lt; XValueType, XAxisPackType</text>
<text text-anchor="middle" x="404" y="-565.5" font-family="FreeSans" font-size="10.00">::NAXES::value &gt;</text>
</a>
</g>
</g>
<!-- Node3&#45;&gt;Node4 -->
<g id="edge3" class="edge">
<title>Node3&#45;&gt;Node4</title>
<path fill="none" stroke="midnightblue" d="M283.82,-344.21C286.72,-345.92 289.46,-347.85 292,-350 321.42,-374.96 311.37,-394.18 328,-429 350.21,-475.5 377.56,-529.41 392.33,-558.25"/>
<polygon fill="midnightblue" stroke="midnightblue" points="285.28,-341.02 274.78,-339.65 282.13,-347.27 285.28,-341.02"/>
</g>
<!-- Node6 -->
<g id="node6" class="node">
<title>Node6</title>
<g id="a_node6"><a xlink:href="classhops_1_1MHO__NDArrayWrapper.html" target="_top" xlink:title=" ">
<polygon fill="white" stroke="black" points="332.5,-389 332.5,-419 475.5,-419 475.5,-389 332.5,-389"/>
<text text-anchor="start" x="340.5" y="-407" font-family="FreeSans" font-size="10.00">hops::MHO_NDArrayWrapper</text>
<text text-anchor="middle" x="404" y="-396" font-family="FreeSans" font-size="10.00">&lt; double, 3 &gt;</text>
</a>
</g>
</g>
<!-- Node3&#45;&gt;Node6 -->
<g id="edge5" class="edge">
<title>Node3&#45;&gt;Node6</title>
<path fill="none" stroke="midnightblue" d="M275.18,-342.76C280.99,-344.85 286.7,-347.25 292,-350 310.48,-359.61 309.74,-369.97 328,-380 334.11,-383.36 340.76,-386.33 347.5,-388.93"/>
<polygon fill="midnightblue" stroke="midnightblue" points="275.93,-339.32 265.34,-339.53 273.75,-345.97 275.93,-339.32"/>
</g>
<!-- Node7 -->
<g id="node7" class="node">
<title>Node7</title>
<g id="a_node7"><a xlink:href="classhops_1_1MHO__NDArrayWrapper.html" target="_top" xlink:title="Class MHO_NDArrayWrapper.">
<polygon fill="white" stroke="black" points="332.5,-340 332.5,-370 475.5,-370 475.5,-340 332.5,-340"/>
<text text-anchor="start" x="340.5" y="-358" font-family="FreeSans" font-size="10.00">hops::MHO_NDArrayWrapper</text>
<text text-anchor="middle" x="404" y="-347" font-family="FreeSans" font-size="10.00">&lt; XValueType, RANK &gt;</text>
</a>
</g>
</g>
<!-- Node3&#45;&gt;Node7 -->
<g id="edge6" class="edge">
<title>Node3&#45;&gt;Node7</title>
<path fill="none" stroke="midnightblue" d="M298.7,-340.9C309.93,-342.42 321.4,-343.97 332.42,-345.46"/>
<polygon fill="midnightblue" stroke="midnightblue" points="298.85,-337.39 288.47,-339.52 297.91,-344.33 298.85,-337.39"/>
</g>
<!-- Node17 -->
<g id="node17" class="node">
<title>Node17</title>
<g id="a_node17"><a xlink:href="classhops_1_1MHO__NDArrayWrapper_3_01XValueType_00_010_01_4.html" target="_top" xlink:title="Class MHO_NDArrayWrapper&lt;XValueType, 0&gt; specialization for a RANK&#45;0 (i.e. a scalar)">
<polygon fill="white" stroke="black" points="332.5,-291 332.5,-321 475.5,-321 475.5,-291 332.5,-291"/>
<text text-anchor="start" x="340.5" y="-309" font-family="FreeSans" font-size="10.00">hops::MHO_NDArrayWrapper</text>
<text text-anchor="middle" x="404" y="-298" font-family="FreeSans" font-size="10.00">&lt; XValueType, 0 &gt;</text>
</a>
</g>
</g>
<!-- Node3&#45;&gt;Node17 -->
<g id="edge16" class="edge">
<title>Node3&#45;&gt;Node17</title>
<path fill="none" stroke="midnightblue" d="M301.61,-319.15C311.9,-317.82 322.35,-316.46 332.42,-315.16"/>
<polygon fill="midnightblue" stroke="midnightblue" points="300.85,-315.72 291.38,-320.48 301.75,-322.66 300.85,-315.72"/>
</g>
<!-- Node19 -->
<g id="node19" class="node">
<title>Node19</title>
<g id="a_node19"><a xlink:href="classhops_1_1MHO__NDArrayWrapper_3_01XValueType_00_011_01_4.html" target="_top" xlink:title="Class MHO_NDArrayWrapper&lt;XValueType, 1&gt; specialization for a RANK&#45;1 (i.e. a vector)">
<polygon fill="white" stroke="black" points="332.5,-242 332.5,-272 475.5,-272 475.5,-242 332.5,-242"/>
<text text-anchor="start" x="340.5" y="-260" font-family="FreeSans" font-size="10.00">hops::MHO_NDArrayWrapper</text>
<text text-anchor="middle" x="404" y="-249" font-family="FreeSans" font-size="10.00">&lt; XValueType, 1 &gt;</text>
</a>
</g>
</g>
<!-- Node3&#45;&gt;Node19 -->
<g id="edge18" class="edge">
<title>Node3&#45;&gt;Node19</title>
<path fill="none" stroke="midnightblue" d="M247.59,-316.23C269.56,-306.21 300.38,-292.6 328,-282 336.84,-278.61 346.36,-275.22 355.56,-272.1"/>
<polygon fill="midnightblue" stroke="midnightblue" points="246.08,-313.07 238.45,-320.42 249,-319.43 246.08,-313.07"/>
</g>
<!-- Node23 -->
<g id="node23" class="node">
<title>Node23</title>
<g id="a_node23"><a xlink:href="classhops_1_1MHO__ObjectTags.html" target="_top" xlink:title="Class MHO_ObjectTags.">
<polygon fill="white" stroke="black" points="343.5,-203.5 343.5,-222.5 464.5,-222.5 464.5,-203.5 343.5,-203.5"/>
<text text-anchor="middle" x="404" y="-210.5" font-family="FreeSans" font-size="10.00">hops::MHO_ObjectTags</text>
</a>
</g>
</g>
<!-- Node3&#45;&gt;Node23 -->
<g id="edge22" class="edge">
<title>Node3&#45;&gt;Node23</title>
<path fill="none" stroke="midnightblue" d="M232.68,-312.88C252.25,-291.12 288.99,-253.89 328,-233 336.08,-228.67 345.16,-225.24 354.13,-222.52"/>
<polygon fill="midnightblue" stroke="midnightblue" points="230.04,-310.58 226.05,-320.39 235.29,-315.21 230.04,-310.58"/>
</g>
<!-- Node5 -->
<g id="node5" class="node">
<title>Node5</title>
<g id="a_node5"><a xlink:href="classhops_1_1MHO__TableContainer.html" target="_top" xlink:title="Class MHO_TableContainer.">
<polygon fill="white" stroke="black" points="516,-655 516,-685 676,-685 676,-655 516,-655"/>
<text text-anchor="start" x="524" y="-673" font-family="FreeSans" font-size="10.00">hops::MHO_TableContainer</text>
<text text-anchor="middle" x="596" y="-662" font-family="FreeSans" font-size="10.00">&lt; XValueType, XAxisPackType &gt;</text>
</a>
</g>
</g>
<!-- Node4&#45;&gt;Node5 -->
<g id="edge4" class="edge">
<title>Node4&#45;&gt;Node5</title>
<path fill="none" stroke="midnightblue" d="M444.08,-605.24C464.82,-618.39 491.12,-633.84 516,-645 524.14,-648.65 532.97,-652 541.68,-654.98"/>
<polygon fill="midnightblue" stroke="midnightblue" points="445.85,-602.22 435.54,-599.77 442.07,-608.11 445.85,-602.22"/>
</g>
<!-- Node8 -->
<g id="node8" class="node">
<title>Node8</title>
<g id="a_node8"><a xlink:href="classhops_1_1MHO__TableContainer.html" target="_top" xlink:title=" ">
<polygon fill="white" stroke="black" points="528,-594.5 528,-635.5 664,-635.5 664,-594.5 528,-594.5"/>
<text text-anchor="start" x="536" y="-623.5" font-family="FreeSans" font-size="10.00">hops::MHO_TableContainer</text>
<text text-anchor="start" x="536" y="-612.5" font-family="FreeSans" font-size="10.00">&lt; double, MHO_AxisPack</text>
<text text-anchor="middle" x="596" y="-601.5" font-family="FreeSans" font-size="10.00">&lt; MHO_Axis&lt; double &gt; &gt; &gt;</text>
</a>
</g>
</g>
<!-- Node7&#45;&gt;Node8 -->
<g id="edge7" class="edge">
<title>Node7&#45;&gt;Node8</title>
<path fill="none" stroke="midnightblue" d="M476.72,-376.56C477.87,-377.65 478.96,-378.8 480,-380 540.4,-450.07 457.06,-513.71 516,-585 519.37,-589.07 523.35,-592.59 527.7,-595.63"/>
<polygon fill="midnightblue" stroke="midnightblue" points="478.51,-373.52 468.47,-370.14 474.21,-379.05 478.51,-373.52"/>
</g>
<!-- Node9 -->
<g id="node9" class="node">
<title>Node9</title>
<g id="a_node9"><a xlink:href="classhops_1_1MHO__TableContainer.html" target="_top" xlink:title=" ">
<polygon fill="white" stroke="black" points="528,-534.5 528,-575.5 664,-575.5 664,-534.5 528,-534.5"/>
<text text-anchor="start" x="536" y="-563.5" font-family="FreeSans" font-size="10.00">hops::MHO_TableContainer</text>
<text text-anchor="start" x="536" y="-552.5" font-family="FreeSans" font-size="10.00">&lt; visibility_element_type,</text>
<text text-anchor="middle" x="596" y="-541.5" font-family="FreeSans" font-size="10.00"> mbd_dr_axis_pack &gt;</text>
</a>
</g>
</g>
<!-- Node7&#45;&gt;Node9 -->
<g id="edge8" class="edge">
<title>Node7&#45;&gt;Node9</title>
<path fill="none" stroke="midnightblue" d="M476.15,-376.25C477.49,-377.44 478.78,-378.68 480,-380 525.08,-428.76 471.94,-475.33 516,-525 519.41,-528.84 523.36,-532.19 527.64,-535.12"/>
<polygon fill="midnightblue" stroke="midnightblue" points="477.97,-373.25 467.83,-370.18 473.84,-378.91 477.97,-373.25"/>
</g>
<!-- Node10 -->
<g id="node10" class="node">
<title>Node10</title>
<g id="a_node10"><a xlink:href="classhops_1_1MHO__TableContainer.html" target="_top" xlink:title=" ">
<polygon fill="white" stroke="black" points="528,-485 528,-515 664,-515 664,-485 528,-485"/>
<text text-anchor="start" x="536" y="-503" font-family="FreeSans" font-size="10.00">hops::MHO_TableContainer</text>
<text text-anchor="middle" x="596" y="-492" font-family="FreeSans" font-size="10.00">&lt; double, mbd_axis_pack &gt;</text>
</a>
</g>
</g>
<!-- Node7&#45;&gt;Node10 -->
<g id="edge9" class="edge">
<title>Node7&#45;&gt;Node10</title>
<path fill="none" stroke="midnightblue" d="M474.76,-375.54C476.6,-376.93 478.35,-378.42 480,-380 512.57,-411.27 483.2,-443.97 516,-475 520.08,-478.86 524.74,-482.12 529.73,-484.87"/>
<polygon fill="midnightblue" stroke="midnightblue" points="476.55,-372.53 466.26,-370.03 472.75,-378.41 476.55,-372.53"/>
</g>
<!-- Node11 -->
<g id="node11" class="node">
<title>Node11</title>
<g id="a_node11"><a xlink:href="classhops_1_1MHO__TableContainer.html" target="_top" xlink:title=" ">
<polygon fill="white" stroke="black" points="523,-424.5 523,-465.5 669,-465.5 669,-424.5 523,-424.5"/>
<text text-anchor="start" x="531" y="-453.5" font-family="FreeSans" font-size="10.00">hops::MHO_TableContainer</text>
<text text-anchor="start" x="531" y="-442.5" font-family="FreeSans" font-size="10.00">&lt; pcal_phasor_type, multitone</text>
<text text-anchor="middle" x="596" y="-431.5" font-family="FreeSans" font-size="10.00">_pcal_axis_type &gt;</text>
</a>
</g>
</g>
<!-- Node7&#45;&gt;Node11 -->
<g id="edge10" class="edge">
<title>Node7&#45;&gt;Node11</title>
<path fill="none" stroke="midnightblue" d="M469.32,-374.23C473.01,-376.01 476.6,-377.93 480,-380 499.06,-391.6 497.18,-403.01 516,-415 521.44,-418.47 527.35,-421.63 533.4,-424.49"/>
<polygon fill="midnightblue" stroke="midnightblue" points="470.52,-370.94 459.96,-370.1 467.69,-377.34 470.52,-370.94"/>
</g>
<!-- Node12 -->
<g id="node12" class="node">
<title>Node12</title>
<g id="a_node12"><a xlink:href="classhops_1_1MHO__TableContainer.html" target="_top" xlink:title=" ">
<polygon fill="white" stroke="black" points="528,-364.5 528,-405.5 664,-405.5 664,-364.5 528,-364.5"/>
<text text-anchor="start" x="536" y="-393.5" font-family="FreeSans" font-size="10.00">hops::MHO_TableContainer</text>
<text text-anchor="start" x="536" y="-382.5" font-family="FreeSans" font-size="10.00">&lt; visibility_element_type,</text>
<text text-anchor="middle" x="596" y="-371.5" font-family="FreeSans" font-size="10.00"> mbd_axis_pack &gt;</text>
</a>
</g>
</g>
<!-- Node7&#45;&gt;Node12 -->
<g id="edge11" class="edge">
<title>Node7&#45;&gt;Node12</title>
<path fill="none" stroke="midnightblue" d="M485.87,-367.77C499.91,-369.99 514.36,-372.27 527.97,-374.42"/>
<polygon fill="midnightblue" stroke="midnightblue" points="486.17,-364.27 475.75,-366.17 485.08,-371.19 486.17,-364.27"/>
</g>
<!-- Node13 -->
<g id="node13" class="node">
<title>Node13</title>
<g id="a_node13"><a xlink:href="classhops_1_1MHO__TableContainer.html" target="_top" xlink:title=" ">
<polygon fill="white" stroke="black" points="528,-304.5 528,-345.5 664,-345.5 664,-304.5 528,-304.5"/>
<text text-anchor="start" x="536" y="-333.5" font-family="FreeSans" font-size="10.00">hops::MHO_TableContainer</text>
<text text-anchor="start" x="536" y="-322.5" font-family="FreeSans" font-size="10.00">&lt; weight_element_type,</text>
<text text-anchor="middle" x="596" y="-311.5" font-family="FreeSans" font-size="10.00"> baseline_axis_pack &gt;</text>
</a>
</g>
</g>
<!-- Node7&#45;&gt;Node13 -->
<g id="edge12" class="edge">
<title>Node7&#45;&gt;Node13</title>
<path fill="none" stroke="midnightblue" d="M485.87,-342.23C499.91,-340.01 514.36,-337.73 527.97,-335.58"/>
<polygon fill="midnightblue" stroke="midnightblue" points="485.08,-338.81 475.75,-343.83 486.17,-345.73 485.08,-338.81"/>
</g>
<!-- Node14 -->
<g id="node14" class="node">
<title>Node14</title>
<g id="a_node14"><a xlink:href="classhops_1_1MHO__TableContainer.html" target="_top" xlink:title=" ">
<polygon fill="white" stroke="black" points="518.5,-233 518.5,-285 673.5,-285 673.5,-233 518.5,-233"/>
<text text-anchor="start" x="526.5" y="-273" font-family="FreeSans" font-size="10.00">hops::MHO_TableContainer</text>
<text text-anchor="start" x="526.5" y="-262" font-family="FreeSans" font-size="10.00">&lt; std::complex&lt; double</text>
<text text-anchor="start" x="526.5" y="-251" font-family="FreeSans" font-size="10.00"> &gt;, MHO_AxisPack&lt; MHO_Axis</text>
<text text-anchor="middle" x="596" y="-240" font-family="FreeSans" font-size="10.00">&lt; double &gt; &gt; &gt;</text>
</a>
</g>
</g>
<!-- Node7&#45;&gt;Node14 -->
<g id="edge13" class="edge">
<title>Node7&#45;&gt;Node14</title>
<path fill="none" stroke="midnightblue" d="M471.24,-335.8C474.26,-334.31 477.2,-332.71 480,-331 499.32,-319.22 497.41,-307.9 516,-295 521.08,-291.48 526.55,-288.16 532.17,-285.07"/>
<polygon fill="midnightblue" stroke="midnightblue" points="469.66,-332.68 461.98,-339.98 472.54,-339.06 469.66,-332.68"/>
</g>
<!-- Node15 -->
<g id="node15" class="node">
<title>Node15</title>
<g id="a_node15"><a xlink:href="classhops_1_1MHO__TableContainer.html" target="_top" xlink:title=" ">
<polygon fill="white" stroke="black" points="528,-172.5 528,-213.5 664,-213.5 664,-172.5 528,-172.5"/>
<text text-anchor="start" x="536" y="-201.5" font-family="FreeSans" font-size="10.00">hops::MHO_TableContainer</text>
<text text-anchor="start" x="536" y="-190.5" font-family="FreeSans" font-size="10.00">&lt; std::complex&lt; double</text>
<text text-anchor="middle" x="596" y="-179.5" font-family="FreeSans" font-size="10.00"> &gt;, pcal_axis_pack &gt;</text>
</a>
</g>
</g>
<!-- Node7&#45;&gt;Node15 -->
<g id="edge14" class="edge">
<title>Node7&#45;&gt;Node15</title>
<path fill="none" stroke="midnightblue" d="M476.57,-334.09C477.76,-333.11 478.9,-332.08 480,-331 515.74,-295.79 481.41,-260.34 516,-224 519.76,-220.05 524.08,-216.6 528.73,-213.58"/>
<polygon fill="midnightblue" stroke="midnightblue" points="474.39,-331.35 468.2,-339.94 478.4,-337.09 474.39,-331.35"/>
</g>
<!-- Node16 -->
<g id="node16" class="node">
<title>Node16</title>
<g id="a_node16"><a xlink:href="classhops_1_1MHO__TableContainer.html" target="_top" xlink:title=" ">
<polygon fill="white" stroke="black" points="528,-112.5 528,-153.5 664,-153.5 664,-112.5 528,-112.5"/>
<text text-anchor="start" x="536" y="-141.5" font-family="FreeSans" font-size="10.00">hops::MHO_TableContainer</text>
<text text-anchor="start" x="536" y="-130.5" font-family="FreeSans" font-size="10.00">&lt; visibility_element_type,</text>
<text text-anchor="middle" x="596" y="-119.5" font-family="FreeSans" font-size="10.00"> baseline_axis_pack &gt;</text>
</a>
</g>
</g>
<!-- Node7&#45;&gt;Node16 -->
<g id="edge15" class="edge">
<title>Node7&#45;&gt;Node16</title>
<path fill="none" stroke="midnightblue" d="M477.25,-333.79C478.21,-332.9 479.12,-331.97 480,-331 531.27,-274.41 466.25,-220.94 516,-163 519.44,-158.99 523.48,-155.52 527.87,-152.51"/>
<polygon fill="midnightblue" stroke="midnightblue" points="475.1,-331.03 469.34,-339.93 479.39,-336.57 475.1,-331.03"/>
</g>
<!-- Node18 -->
<g id="node18" class="node">
<title>Node18</title>
<g id="a_node18"><a xlink:href="classhops_1_1MHO__ScalarContainer.html" target="_top" xlink:title="MHO_ScalarContainer, and wrapper class for storage of a scalar object.">
<polygon fill="white" stroke="black" points="526,-63 526,-93 666,-93 666,-63 526,-63"/>
<text text-anchor="start" x="534" y="-81" font-family="FreeSans" font-size="10.00">hops::MHO_ScalarContainer</text>
<text text-anchor="middle" x="596" y="-70" font-family="FreeSans" font-size="10.00">&lt; XValueType &gt;</text>
</a>
</g>
</g>
<!-- Node17&#45;&gt;Node18 -->
<g id="edge17" class="edge">
<title>Node17&#45;&gt;Node18</title>
<path fill="none" stroke="midnightblue" d="M477.27,-284.81C478.22,-283.91 479.13,-282.97 480,-282 534.1,-221.52 461.8,-163.39 516,-103 519.46,-99.15 523.51,-95.88 527.91,-93.12"/>
<polygon fill="midnightblue" stroke="midnightblue" points="475.11,-282.05 469.39,-290.97 479.42,-287.57 475.11,-282.05"/>
</g>
<!-- Node20 -->
<g id="node20" class="node">
<title>Node20</title>
<g id="a_node20"><a xlink:href="classhops_1_1MHO__VectorContainer.html" target="_top" xlink:title="MHO_VectorContainer &#45; basis for for axis data objects in HOPS4, it is an 1&#45;dimensional array object,...">
<polygon fill="white" stroke="black" points="526,-14 526,-44 666,-44 666,-14 526,-14"/>
<text text-anchor="start" x="534" y="-32" font-family="FreeSans" font-size="10.00">hops::MHO_VectorContainer</text>
<text text-anchor="middle" x="596" y="-21" font-family="FreeSans" font-size="10.00">&lt; XValueType &gt;</text>
</a>
</g>
</g>
<!-- Node19&#45;&gt;Node20 -->
<g id="edge19" class="edge">
<title>Node19&#45;&gt;Node20</title>
<path fill="none" stroke="midnightblue" d="M476.22,-235.82C477.55,-234.61 478.81,-233.34 480,-232 533.48,-171.55 462.06,-114.04 516,-54 519.46,-50.15 523.51,-46.88 527.92,-44.12"/>
<polygon fill="midnightblue" stroke="midnightblue" points="473.91,-233.18 468.01,-241.99 478.11,-238.78 473.91,-233.18"/>
</g>
<!-- Node21 -->
<g id="node21" class="node">
<title>Node21</title>
<g id="a_node21"><a xlink:href="classhops_1_1MHO__Axis.html" target="_top" xlink:title=" ">
<polygon fill="white" stroke="black" points="724,-38.5 724,-57.5 858,-57.5 858,-38.5 724,-38.5"/>
<text text-anchor="middle" x="791" y="-45.5" font-family="FreeSans" font-size="10.00">hops::MHO_Axis&lt; double &gt;</text>
</a>
</g>
</g>
<!-- Node20&#45;&gt;Node21 -->
<g id="edge20" class="edge">
<title>Node20&#45;&gt;Node21</title>
<path fill="none" stroke="midnightblue" d="M676.41,-36.82C692.21,-38.37 708.64,-39.99 723.93,-41.5"/>
<polygon fill="midnightblue" stroke="midnightblue" points="676.43,-33.3 666.13,-35.81 675.74,-40.27 676.43,-33.3"/>
</g>
<!-- Node22 -->
<g id="node22" class="node">
<title>Node22</title>
<g id="a_node22"><a xlink:href="classhops_1_1MHO__Axis.html" target="_top" xlink:title="Class MHO_Axis.">
<polygon fill="white" stroke="black" points="712,-0.5 712,-19.5 870,-19.5 870,-0.5 712,-0.5"/>
<text text-anchor="middle" x="791" y="-7.5" font-family="FreeSans" font-size="10.00">hops::MHO_Axis&lt; XValueType &gt;</text>
</a>
</g>
</g>
<!-- Node20&#45;&gt;Node22 -->
<g id="edge21" class="edge">
<title>Node20&#45;&gt;Node22</title>
<path fill="none" stroke="midnightblue" d="M676.33,-21.19C688.06,-20.04 700.14,-18.85 711.84,-17.69"/>
<polygon fill="midnightblue" stroke="midnightblue" points="675.74,-17.73 666.13,-22.19 676.43,-24.7 675.74,-17.73"/>
</g>
</g>
</svg>
