<?xml version="1.0" encoding="UTF-8" standalone="no"?>
<!DOCTYPE svg PUBLIC "-//W3C//DTD SVG 1.1//EN"
 "http://www.w3.org/Graphics/SVG/1.1/DTD/svg11.dtd">
<!-- Generated by graphviz version 2.43.0 (0)
 -->
<!-- Title: hops::MHO_PhaseCalibrationTrim Pages: 1 -->
<svg width="172pt" height="151pt"
 viewBox="0.00 0.00 172.00 151.00" xmlns="http://www.w3.org/2000/svg" xmlns:xlink="http://www.w3.org/1999/xlink">
<g id="graph0" class="graph" transform="scale(1 1) rotate(0) translate(4 147)">
<title>hops::MHO_PhaseCalibrationTrim</title>
<polygon fill="white" stroke="transparent" points="-4,4 -4,-147 168,-147 168,4 -4,4"/>
<!-- Node1 -->
<g id="node1" class="node">
<title>Node1</title>
<g id="a_node1"><a xlink:title="Class MHO_PhaseCalibrationTrim.">
<polygon fill="#bfbfbf" stroke="black" points="0,-0.5 0,-19.5 164,-19.5 164,-0.5 0,-0.5"/>
<text text-anchor="middle" x="82" y="-7.5" font-family="FreeSans" font-size="10.00">hops::MHO_PhaseCalibrationTrim</text>
</a>
</g>
</g>
<!-- Node2 -->
<g id="node2" class="node">
<title>Node2</title>
<g id="a_node2"><a xlink:href="classhops_1_1MHO__UnaryOperator.html" target="_top" xlink:title=" ">
<polygon fill="white" stroke="black" points="15,-56.5 15,-86.5 149,-86.5 149,-56.5 15,-56.5"/>
<text text-anchor="start" x="23" y="-74.5" font-family="FreeSans" font-size="10.00">hops::MHO_UnaryOperator</text>
<text text-anchor="middle" x="82" y="-63.5" font-family="FreeSans" font-size="10.00">&lt; multitone_pcal_type &gt;</text>
</a>
</g>
</g>
<!-- Node2&#45;&gt;Node1 -->
<g id="edge1" class="edge">
<title>Node2&#45;&gt;Node1</title>
<path fill="none" stroke="midnightblue" d="M82,-46.29C82,-36.86 82,-26.65 82,-19.66"/>
<polygon fill="midnightblue" stroke="midnightblue" points="78.5,-46.4 82,-56.4 85.5,-46.4 78.5,-46.4"/>
</g>
<!-- Node3 -->
<g id="node3" class="node">
<title>Node3</title>
<g id="a_node3"><a xlink:href="classhops_1_1MHO__Operator.html" target="_top" xlink:title="Class MHO_Operator.">
<polygon fill="white" stroke="black" points="28,-123.5 28,-142.5 136,-142.5 136,-123.5 28,-123.5"/>
<text text-anchor="middle" x="82" y="-130.5" font-family="FreeSans" font-size="10.00">hops::MHO_Operator</text>
</a>
</g>
</g>
<!-- Node3&#45;&gt;Node2 -->
<g id="edge2" class="edge">
<title>Node3&#45;&gt;Node2</title>
<path fill="none" stroke="midnightblue" d="M82,-113.23C82,-104.59 82,-94.5 82,-86.52"/>
<polygon fill="midnightblue" stroke="midnightblue" points="78.5,-113.48 82,-123.48 85.5,-113.48 78.5,-113.48"/>
</g>
</g>
</svg>
