<?xml version="1.0" encoding="UTF-8" standalone="no"?>
<!DOCTYPE svg PUBLIC "-//W3C//DTD SVG 1.1//EN"
 "http://www.w3.org/Graphics/SVG/1.1/DTD/svg11.dtd">
<!-- Generated by graphviz version 2.43.0 (0)
 -->
<!-- Title: hops::MHO_TableContainerBase Pages: 1 -->
<svg width="362pt" height="582pt"
 viewBox="0.00 0.00 362.00 581.50" xmlns="http://www.w3.org/2000/svg" xmlns:xlink="http://www.w3.org/1999/xlink">
<g id="graph0" class="graph" transform="scale(1 1) rotate(0) translate(4 577.5)">
<title>hops::MHO_TableContainerBase</title>
<polygon fill="white" stroke="transparent" points="-4,4 -4,-577.5 358,-577.5 358,4 -4,4"/>
<!-- Node1 -->
<g id="node1" class="node">
<title>Node1</title>
<g id="a_node1"><a xlink:title=" ">
<polygon fill="#bfbfbf" stroke="black" points="0,-283 0,-302 158,-302 158,-283 0,-283"/>
<text text-anchor="middle" x="79" y="-290" font-family="FreeSans" font-size="10.00">hops::MHO_TableContainerBase</text>
</a>
</g>
</g>
<!-- Node2 -->
<g id="node2" class="node">
<title>Node2</title>
<g id="a_node2"><a xlink:href="classhops_1_1MHO__TableContainer.html" target="_top" xlink:title=" ">
<polygon fill="white" stroke="black" points="206,-532 206,-573 342,-573 342,-532 206,-532"/>
<text text-anchor="start" x="214" y="-561" font-family="FreeSans" font-size="10.00">hops::MHO_TableContainer</text>
<text text-anchor="start" x="214" y="-550" font-family="FreeSans" font-size="10.00">&lt; double, MHO_AxisPack</text>
<text text-anchor="middle" x="274" y="-539" font-family="FreeSans" font-size="10.00">&lt; MHO_Axis&lt; double &gt; &gt; &gt;</text>
</a>
</g>
</g>
<!-- Node1&#45;&gt;Node2 -->
<g id="edge1" class="edge">
<title>Node1&#45;&gt;Node2</title>
<path fill="none" stroke="midnightblue" d="M84.56,-312.35C95.66,-356.32 128.11,-462.72 194,-522.5 197.91,-526.05 202.29,-529.19 206.91,-531.98"/>
<polygon fill="midnightblue" stroke="midnightblue" points="87.9,-311.26 82.14,-302.36 81.1,-312.91 87.9,-311.26"/>
</g>
<!-- Node3 -->
<g id="node3" class="node">
<title>Node3</title>
<g id="a_node3"><a xlink:href="classhops_1_1MHO__TableContainer.html" target="_top" xlink:title=" ">
<polygon fill="white" stroke="black" points="206,-472 206,-513 342,-513 342,-472 206,-472"/>
<text text-anchor="start" x="214" y="-501" font-family="FreeSans" font-size="10.00">hops::MHO_TableContainer</text>
<text text-anchor="start" x="214" y="-490" font-family="FreeSans" font-size="10.00">&lt; visibility_element_type,</text>
<text text-anchor="middle" x="274" y="-479" font-family="FreeSans" font-size="10.00"> mbd_dr_axis_pack &gt;</text>
</a>
</g>
</g>
<!-- Node1&#45;&gt;Node3 -->
<g id="edge2" class="edge">
<title>Node1&#45;&gt;Node3</title>
<path fill="none" stroke="midnightblue" d="M87.99,-311.53C103.47,-346.26 140.8,-420.22 194,-462.5 198.36,-465.97 203.17,-469.07 208.2,-471.83"/>
<polygon fill="midnightblue" stroke="midnightblue" points="91.08,-309.87 83.89,-302.09 84.66,-312.65 91.08,-309.87"/>
</g>
<!-- Node4 -->
<g id="node4" class="node">
<title>Node4</title>
<g id="a_node4"><a xlink:href="classhops_1_1MHO__TableContainer.html" target="_top" xlink:title=" ">
<polygon fill="white" stroke="black" points="206,-422.5 206,-452.5 342,-452.5 342,-422.5 206,-422.5"/>
<text text-anchor="start" x="214" y="-440.5" font-family="FreeSans" font-size="10.00">hops::MHO_TableContainer</text>
<text text-anchor="middle" x="274" y="-429.5" font-family="FreeSans" font-size="10.00">&lt; double, mbd_axis_pack &gt;</text>
</a>
</g>
</g>
<!-- Node1&#45;&gt;Node4 -->
<g id="edge3" class="edge">
<title>Node1&#45;&gt;Node4</title>
<path fill="none" stroke="midnightblue" d="M92.36,-310.4C111.3,-336.52 149.97,-384.97 194,-412.5 200.1,-416.31 206.83,-419.59 213.71,-422.4"/>
<polygon fill="midnightblue" stroke="midnightblue" points="95.15,-308.28 86.51,-302.16 89.45,-312.34 95.15,-308.28"/>
</g>
<!-- Node5 -->
<g id="node5" class="node">
<title>Node5</title>
<g id="a_node5"><a xlink:href="classhops_1_1MHO__TableContainer.html" target="_top" xlink:title=" ">
<polygon fill="white" stroke="black" points="201,-362 201,-403 347,-403 347,-362 201,-362"/>
<text text-anchor="start" x="209" y="-391" font-family="FreeSans" font-size="10.00">hops::MHO_TableContainer</text>
<text text-anchor="start" x="209" y="-380" font-family="FreeSans" font-size="10.00">&lt; pcal_phasor_type, multitone</text>
<text text-anchor="middle" x="274" y="-369" font-family="FreeSans" font-size="10.00">_pcal_axis_type &gt;</text>
</a>
</g>
</g>
<!-- Node1&#45;&gt;Node5 -->
<g id="edge4" class="edge">
<title>Node1&#45;&gt;Node5</title>
<path fill="none" stroke="midnightblue" d="M105.4,-307.01C128.21,-319.76 162.82,-338.44 194,-352.5 201.09,-355.7 208.63,-358.86 216.13,-361.86"/>
<polygon fill="midnightblue" stroke="midnightblue" points="107.11,-303.96 96.68,-302.1 103.67,-310.06 107.11,-303.96"/>
</g>
<!-- Node6 -->
<g id="node6" class="node">
<title>Node6</title>
<g id="a_node6"><a xlink:href="classhops_1_1MHO__TableContainer.html" target="_top" xlink:title=" ">
<polygon fill="white" stroke="black" points="206,-302 206,-343 342,-343 342,-302 206,-302"/>
<text text-anchor="start" x="214" y="-331" font-family="FreeSans" font-size="10.00">hops::MHO_TableContainer</text>
<text text-anchor="start" x="214" y="-320" font-family="FreeSans" font-size="10.00">&lt; visibility_element_type,</text>
<text text-anchor="middle" x="274" y="-309" font-family="FreeSans" font-size="10.00"> mbd_axis_pack &gt;</text>
</a>
</g>
</g>
<!-- Node1&#45;&gt;Node6 -->
<g id="edge5" class="edge">
<title>Node1&#45;&gt;Node6</title>
<path fill="none" stroke="midnightblue" d="M151.62,-303.63C169.35,-306.39 188.29,-309.33 205.81,-312.06"/>
<polygon fill="midnightblue" stroke="midnightblue" points="151.75,-300.11 141.33,-302.03 150.68,-307.03 151.75,-300.11"/>
</g>
<!-- Node7 -->
<g id="node7" class="node">
<title>Node7</title>
<g id="a_node7"><a xlink:href="classhops_1_1MHO__TableContainer.html" target="_top" xlink:title=" ">
<polygon fill="white" stroke="black" points="206,-242 206,-283 342,-283 342,-242 206,-242"/>
<text text-anchor="start" x="214" y="-271" font-family="FreeSans" font-size="10.00">hops::MHO_TableContainer</text>
<text text-anchor="start" x="214" y="-260" font-family="FreeSans" font-size="10.00">&lt; weight_element_type,</text>
<text text-anchor="middle" x="274" y="-249" font-family="FreeSans" font-size="10.00"> baseline_axis_pack &gt;</text>
</a>
</g>
</g>
<!-- Node1&#45;&gt;Node7 -->
<g id="edge6" class="edge">
<title>Node1&#45;&gt;Node7</title>
<path fill="none" stroke="midnightblue" d="M151.62,-281.37C169.35,-278.61 188.29,-275.67 205.81,-272.94"/>
<polygon fill="midnightblue" stroke="midnightblue" points="150.68,-277.97 141.33,-282.97 151.75,-284.89 150.68,-277.97"/>
</g>
<!-- Node8 -->
<g id="node8" class="node">
<title>Node8</title>
<g id="a_node8"><a xlink:href="classhops_1_1MHO__TableContainer.html" target="_top" xlink:title=" ">
<polygon fill="white" stroke="black" points="196.5,-170.5 196.5,-222.5 351.5,-222.5 351.5,-170.5 196.5,-170.5"/>
<text text-anchor="start" x="204.5" y="-210.5" font-family="FreeSans" font-size="10.00">hops::MHO_TableContainer</text>
<text text-anchor="start" x="204.5" y="-199.5" font-family="FreeSans" font-size="10.00">&lt; std::complex&lt; double</text>
<text text-anchor="start" x="204.5" y="-188.5" font-family="FreeSans" font-size="10.00"> &gt;, MHO_AxisPack&lt; MHO_Axis</text>
<text text-anchor="middle" x="274" y="-177.5" font-family="FreeSans" font-size="10.00">&lt; double &gt; &gt; &gt;</text>
</a>
</g>
</g>
<!-- Node1&#45;&gt;Node8 -->
<g id="edge7" class="edge">
<title>Node1&#45;&gt;Node8</title>
<path fill="none" stroke="midnightblue" d="M106.42,-278.05C129.39,-265.62 163.64,-247.39 194,-232.5 200.63,-229.25 207.62,-225.92 214.58,-222.67"/>
<polygon fill="midnightblue" stroke="midnightblue" points="104.73,-274.98 97.61,-282.83 108.07,-281.13 104.73,-274.98"/>
</g>
<!-- Node9 -->
<g id="node9" class="node">
<title>Node9</title>
<g id="a_node9"><a xlink:href="classhops_1_1MHO__TableContainer.html" target="_top" xlink:title=" ">
<polygon fill="white" stroke="black" points="206,-110 206,-151 342,-151 342,-110 206,-110"/>
<text text-anchor="start" x="214" y="-139" font-family="FreeSans" font-size="10.00">hops::MHO_TableContainer</text>
<text text-anchor="start" x="214" y="-128" font-family="FreeSans" font-size="10.00">&lt; std::complex&lt; double</text>
<text text-anchor="middle" x="274" y="-117" font-family="FreeSans" font-size="10.00"> &gt;, pcal_axis_pack &gt;</text>
</a>
</g>
</g>
<!-- Node1&#45;&gt;Node9 -->
<g id="edge8" class="edge">
<title>Node1&#45;&gt;Node9</title>
<path fill="none" stroke="midnightblue" d="M91.68,-274.14C110.25,-246.28 149.04,-193.21 194,-161.5 199.42,-157.68 205.37,-154.24 211.51,-151.17"/>
<polygon fill="midnightblue" stroke="midnightblue" points="88.52,-272.58 85.98,-282.87 94.38,-276.41 88.52,-272.58"/>
</g>
<!-- Node10 -->
<g id="node10" class="node">
<title>Node10</title>
<g id="a_node10"><a xlink:href="classhops_1_1MHO__TableContainer.html" target="_top" xlink:title=" ">
<polygon fill="white" stroke="black" points="206,-50 206,-91 342,-91 342,-50 206,-50"/>
<text text-anchor="start" x="214" y="-79" font-family="FreeSans" font-size="10.00">hops::MHO_TableContainer</text>
<text text-anchor="start" x="214" y="-68" font-family="FreeSans" font-size="10.00">&lt; visibility_element_type,</text>
<text text-anchor="middle" x="274" y="-57" font-family="FreeSans" font-size="10.00"> baseline_axis_pack &gt;</text>
</a>
</g>
</g>
<!-- Node1&#45;&gt;Node10 -->
<g id="edge9" class="edge">
<title>Node1&#45;&gt;Node10</title>
<path fill="none" stroke="midnightblue" d="M86.54,-273.1C100.39,-234.81 136.22,-149.06 194,-100.5 198.16,-97.01 202.76,-93.9 207.6,-91.13"/>
<polygon fill="midnightblue" stroke="midnightblue" points="83.23,-271.97 83.22,-282.57 89.83,-274.29 83.23,-271.97"/>
</g>
<!-- Node11 -->
<g id="node11" class="node">
<title>Node11</title>
<g id="a_node11"><a xlink:href="classhops_1_1MHO__TableContainer.html" target="_top" xlink:title="Class MHO_TableContainer.">
<polygon fill="white" stroke="black" points="194,-0.5 194,-30.5 354,-30.5 354,-0.5 194,-0.5"/>
<text text-anchor="start" x="202" y="-18.5" font-family="FreeSans" font-size="10.00">hops::MHO_TableContainer</text>
<text text-anchor="middle" x="274" y="-7.5" font-family="FreeSans" font-size="10.00">&lt; XValueType, XAxisPackType &gt;</text>
</a>
</g>
</g>
<!-- Node1&#45;&gt;Node11 -->
<g id="edge10" class="edge">
<title>Node1&#45;&gt;Node11</title>
<path fill="none" stroke="midnightblue" d="M83.29,-272.74C92.2,-225.5 121.2,-105.16 194,-40.5 198.3,-36.68 203.19,-33.44 208.37,-30.7"/>
<polygon fill="midnightblue" stroke="midnightblue" points="79.8,-272.4 81.49,-282.86 86.69,-273.63 79.8,-272.4"/>
</g>
</g>
</svg>
