<?xml version="1.0" encoding="UTF-8" standalone="no"?>
<!DOCTYPE svg PUBLIC "-//W3C//DTD SVG 1.1//EN"
 "http://www.w3.org/Graphics/SVG/1.1/DTD/svg11.dtd">
<!-- Generated by graphviz version 2.43.0 (0)
 -->
<!-- Title: hops::MHO_ScalarContainer&lt; XValueType &gt; Pages: 1 -->
<svg width="674pt" height="151pt"
 viewBox="0.00 0.00 674.00 151.00" xmlns="http://www.w3.org/2000/svg" xmlns:xlink="http://www.w3.org/1999/xlink">
<g id="graph0" class="graph" transform="scale(1 1) rotate(0) translate(4 147)">
<title>hops::MHO_ScalarContainer&lt; XValueType &gt;</title>
<polygon fill="white" stroke="transparent" points="-4,4 -4,-147 670,-147 670,4 -4,4"/>
<!-- Node1 -->
<g id="node1" class="node">
<title>Node1</title>
<g id="a_node1"><a xlink:title="MHO_ScalarContainer, and wrapper class for storage of a scalar object.">
<polygon fill="#bfbfbf" stroke="black" points="526,-74 526,-104 666,-104 666,-74 526,-74"/>
<text text-anchor="start" x="534" y="-92" font-family="FreeSans" font-size="10.00">hops::MHO_ScalarContainer</text>
<text text-anchor="middle" x="596" y="-81" font-family="FreeSans" font-size="10.00">&lt; XValueType &gt;</text>
</a>
</g>
</g>
<!-- Node2 -->
<g id="node2" class="node">
<title>Node2</title>
<g id="a_node2"><a xlink:href="classhops_1_1MHO__ScalarContainerBase.html" target="_top" xlink:title=" ">
<polygon fill="white" stroke="black" points="328,-123.5 328,-142.5 490,-142.5 490,-123.5 328,-123.5"/>
<text text-anchor="middle" x="409" y="-130.5" font-family="FreeSans" font-size="10.00">hops::MHO_ScalarContainerBase</text>
</a>
</g>
</g>
<!-- Node2&#45;&gt;Node1 -->
<g id="edge1" class="edge">
<title>Node2&#45;&gt;Node1</title>
<path fill="none" stroke="midnightblue" d="M460.04,-121.12C469.97,-118.76 480.31,-116.3 490,-114 503.58,-110.77 518.15,-107.3 531.98,-104.01"/>
<polygon fill="midnightblue" stroke="midnightblue" points="459.21,-117.72 450.29,-123.44 460.83,-124.53 459.21,-117.72"/>
</g>
<!-- Node3 -->
<g id="node3" class="node">
<title>Node3</title>
<g id="a_node3"><a xlink:href="classhops_1_1MHO__NDArrayWrapper_3_01XValueType_00_010_01_4.html" target="_top" xlink:title="Class MHO_NDArrayWrapper&lt;XValueType, 0&gt; specialization for a RANK&#45;0 (i.e. a scalar)">
<polygon fill="white" stroke="black" points="337.5,-74 337.5,-104 480.5,-104 480.5,-74 337.5,-74"/>
<text text-anchor="start" x="345.5" y="-92" font-family="FreeSans" font-size="10.00">hops::MHO_NDArrayWrapper</text>
<text text-anchor="middle" x="409" y="-81" font-family="FreeSans" font-size="10.00">&lt; XValueType, 0 &gt;</text>
</a>
</g>
</g>
<!-- Node3&#45;&gt;Node1 -->
<g id="edge2" class="edge">
<title>Node3&#45;&gt;Node1</title>
<path fill="none" stroke="midnightblue" d="M490.89,-89C502.54,-89 514.44,-89 525.83,-89"/>
<polygon fill="midnightblue" stroke="midnightblue" points="490.73,-85.5 480.73,-89 490.73,-92.5 490.73,-85.5"/>
</g>
<!-- Node4 -->
<g id="node4" class="node">
<title>Node4</title>
<g id="a_node4"><a xlink:href="classhops_1_1MHO__ExtensibleElement.html" target="_top" xlink:title="Class MHO_ExtensibleElement.">
<polygon fill="white" stroke="black" points="142,-79.5 142,-98.5 292,-98.5 292,-79.5 142,-79.5"/>
<text text-anchor="middle" x="217" y="-86.5" font-family="FreeSans" font-size="10.00">hops::MHO_ExtensibleElement</text>
</a>
</g>
</g>
<!-- Node4&#45;&gt;Node3 -->
<g id="edge3" class="edge">
<title>Node4&#45;&gt;Node3</title>
<path fill="none" stroke="midnightblue" d="M302.22,-89C313.94,-89 325.88,-89 337.31,-89"/>
<polygon fill="midnightblue" stroke="midnightblue" points="302,-85.5 292,-89 302,-92.5 302,-85.5"/>
</g>
<!-- Node5 -->
<g id="node5" class="node">
<title>Node5</title>
<g id="a_node5"><a xlink:href="classhops_1_1MHO__Element.html" target="_top" xlink:title="Class MHO_Element.">
<polygon fill="white" stroke="black" points="0,-79.5 0,-98.5 106,-98.5 106,-79.5 0,-79.5"/>
<text text-anchor="middle" x="53" y="-86.5" font-family="FreeSans" font-size="10.00">hops::MHO_Element</text>
</a>
</g>
</g>
<!-- Node5&#45;&gt;Node4 -->
<g id="edge4" class="edge">
<title>Node5&#45;&gt;Node4</title>
<path fill="none" stroke="midnightblue" d="M116.21,-89C124.59,-89 133.26,-89 141.82,-89"/>
<polygon fill="midnightblue" stroke="midnightblue" points="116.15,-85.5 106.15,-89 116.15,-92.5 116.15,-85.5"/>
</g>
<!-- Node6 -->
<g id="node6" class="node">
<title>Node6</title>
<g id="a_node6"><a xlink:href="classhops_1_1MHO__Taggable.html" target="_top" xlink:title="Class MHO_Taggable.">
<polygon fill="white" stroke="black" points="354,-35.5 354,-54.5 464,-54.5 464,-35.5 354,-35.5"/>
<text text-anchor="middle" x="409" y="-42.5" font-family="FreeSans" font-size="10.00">hops::MHO_Taggable</text>
</a>
</g>
</g>
<!-- Node6&#45;&gt;Node1 -->
<g id="edge5" class="edge">
<title>Node6&#45;&gt;Node1</title>
<path fill="none" stroke="midnightblue" d="M460.04,-56.88C469.97,-59.24 480.31,-61.7 490,-64 503.58,-67.23 518.15,-70.7 531.98,-73.99"/>
<polygon fill="midnightblue" stroke="midnightblue" points="460.83,-53.47 450.29,-54.56 459.21,-60.28 460.83,-53.47"/>
</g>
<!-- Node7 -->
<g id="node7" class="node">
<title>Node7</title>
<g id="a_node7"><a xlink:href="classhops_1_1MHO__JSONWrapper.html" target="_top" xlink:title=" ">
<polygon fill="white" stroke="black" points="150,-38.5 150,-57.5 284,-57.5 284,-38.5 150,-38.5"/>
<text text-anchor="middle" x="217" y="-45.5" font-family="FreeSans" font-size="10.00">hops::MHO_JSONWrapper</text>
</a>
</g>
</g>
<!-- Node7&#45;&gt;Node6 -->
<g id="edge6" class="edge">
<title>Node7&#45;&gt;Node6</title>
<path fill="none" stroke="midnightblue" d="M294.21,-46.8C314.23,-46.48 335.4,-46.15 353.98,-45.85"/>
<polygon fill="midnightblue" stroke="midnightblue" points="294.13,-43.3 284.19,-46.95 294.24,-50.3 294.13,-43.3"/>
</g>
<!-- Node8 -->
<g id="node8" class="node">
<title>Node8</title>
<g id="a_node8"><a xlink:href="classhops_1_1MHO__Serializable.html" target="_top" xlink:title="Class MHO_Serializable.">
<polygon fill="white" stroke="black" points="157,-0.5 157,-19.5 277,-19.5 277,-0.5 157,-0.5"/>
<text text-anchor="middle" x="217" y="-7.5" font-family="FreeSans" font-size="10.00">hops::MHO_Serializable</text>
</a>
</g>
</g>
<!-- Node8&#45;&gt;Node6 -->
<g id="edge7" class="edge">
<title>Node8&#45;&gt;Node6</title>
<path fill="none" stroke="midnightblue" d="M279.69,-21.36C304.45,-25.93 332.68,-31.13 356.34,-35.48"/>
<polygon fill="midnightblue" stroke="midnightblue" points="280.14,-17.89 269.67,-19.52 278.87,-24.77 280.14,-17.89"/>
</g>
</g>
</svg>
