<?xml version="1.0" encoding="UTF-8" standalone="no"?>
<!DOCTYPE svg PUBLIC "-//W3C//DTD SVG 1.1//EN"
 "http://www.w3.org/Graphics/SVG/1.1/DTD/svg11.dtd">
<!-- Generated by graphviz version 2.43.0 (0)
 -->
<!-- Title: hops::MHO_Operator Pages: 1 -->
<svg width="590pt" height="1475pt"
 viewBox="0.00 0.00 590.00 1474.50" xmlns="http://www.w3.org/2000/svg" xmlns:xlink="http://www.w3.org/1999/xlink">
<g id="graph0" class="graph" transform="scale(1 1) rotate(0) translate(4 1470.5)">
<title>hops::MHO_Operator</title>
<polygon fill="white" stroke="transparent" points="-4,4 -4,-1470.5 586,-1470.5 586,4 -4,4"/>
<!-- Node1 -->
<g id="node1" class="node">
<title>Node1</title>
<g id="a_node1"><a xlink:title="Class MHO_Operator.">
<polygon fill="#bfbfbf" stroke="black" points="0,-537 0,-556 108,-556 108,-537 0,-537"/>
<text text-anchor="middle" x="54" y="-544" font-family="FreeSans" font-size="10.00">hops::MHO_Operator</text>
</a>
</g>
</g>
<!-- Node2 -->
<g id="node2" class="node">
<title>Node2</title>
<g id="a_node2"><a xlink:href="classhops_1_1MHO__BinaryOperator.html" target="_top" xlink:title=" ">
<polygon fill="white" stroke="black" points="184,-1425 184,-1466 319,-1466 319,-1425 184,-1425"/>
<text text-anchor="start" x="192" y="-1454" font-family="FreeSans" font-size="10.00">hops::MHO_BinaryOperator</text>
<text text-anchor="start" x="192" y="-1443" font-family="FreeSans" font-size="10.00">&lt; visibility_type, weight</text>
<text text-anchor="middle" x="251.5" y="-1432" font-family="FreeSans" font-size="10.00">_type, sbd_type &gt;</text>
</a>
</g>
</g>
<!-- Node1&#45;&gt;Node2 -->
<g id="edge1" class="edge">
<title>Node1&#45;&gt;Node2</title>
<path fill="none" stroke="midnightblue" d="M55.72,-566.57C60.34,-690.46 87.45,-1348.24 144,-1415.5 154.14,-1427.56 168.71,-1434.97 183.83,-1439.47"/>
<polygon fill="midnightblue" stroke="midnightblue" points="59.21,-566.15 55.34,-556.28 52.21,-566.4 59.21,-566.15"/>
</g>
<!-- Node4 -->
<g id="node4" class="node">
<title>Node4</title>
<g id="a_node4"><a xlink:href="classhops_1_1MHO__BinaryOperator.html" target="_top" xlink:title=" ">
<polygon fill="white" stroke="black" points="154.5,-1321 154.5,-1406 348.5,-1406 348.5,-1321 154.5,-1321"/>
<text text-anchor="start" x="162.5" y="-1394" font-family="FreeSans" font-size="10.00">hops::MHO_BinaryOperator</text>
<text text-anchor="start" x="162.5" y="-1383" font-family="FreeSans" font-size="10.00">&lt; MHO_NDArrayWrapper&lt; std</text>
<text text-anchor="start" x="162.5" y="-1372" font-family="FreeSans" font-size="10.00">::complex&lt; XFloatType &gt;,</text>
<text text-anchor="start" x="162.5" y="-1361" font-family="FreeSans" font-size="10.00"> RANK &gt;, MHO_NDArrayWrapper</text>
<text text-anchor="start" x="162.5" y="-1350" font-family="FreeSans" font-size="10.00">&lt; std::complex&lt; XFloatType &gt;</text>
<text text-anchor="start" x="162.5" y="-1339" font-family="FreeSans" font-size="10.00">, RANK &gt;, MHO_NDArrayWrapper</text>
<text text-anchor="middle" x="251.5" y="-1328" font-family="FreeSans" font-size="10.00">&lt; std::complex&lt; XFloatType &gt;, RANK &gt; &gt;</text>
</a>
</g>
</g>
<!-- Node1&#45;&gt;Node4 -->
<g id="edge3" class="edge">
<title>Node1&#45;&gt;Node4</title>
<path fill="none" stroke="midnightblue" d="M54.81,-566.19C54.12,-673.41 55.55,-1186.61 144,-1311.5 146.97,-1315.7 150.38,-1319.57 154.11,-1323.14"/>
<polygon fill="midnightblue" stroke="midnightblue" points="58.31,-566.15 54.89,-556.13 51.31,-566.1 58.31,-566.15"/>
</g>
<!-- Node6 -->
<g id="node6" class="node">
<title>Node6</title>
<g id="a_node6"><a xlink:href="classhops_1_1MHO__InspectingOperator.html" target="_top" xlink:title=" ">
<polygon fill="white" stroke="black" points="175,-1271.5 175,-1301.5 328,-1301.5 328,-1271.5 175,-1271.5"/>
<text text-anchor="start" x="183" y="-1289.5" font-family="FreeSans" font-size="10.00">hops::MHO_InspectingOperator</text>
<text text-anchor="middle" x="251.5" y="-1278.5" font-family="FreeSans" font-size="10.00">&lt; visibility_type &gt;</text>
</a>
</g>
</g>
<!-- Node1&#45;&gt;Node6 -->
<g id="edge5" class="edge">
<title>Node1&#45;&gt;Node6</title>
<path fill="none" stroke="midnightblue" d="M54.68,-566.56C53.45,-670.47 52.92,-1146.79 144,-1254.5 152.17,-1264.16 163.12,-1270.97 174.91,-1275.75"/>
<polygon fill="midnightblue" stroke="midnightblue" points="58.19,-566.3 54.82,-556.25 51.19,-566.2 58.19,-566.3"/>
</g>
<!-- Node10 -->
<g id="node9" class="node">
<title>Node10</title>
<g id="a_node9"><a xlink:href="classhops_1_1MHO__TransformingOperator.html" target="_top" xlink:title=" ">
<polygon fill="white" stroke="black" points="169,-1204 169,-1245 334,-1245 334,-1204 169,-1204"/>
<text text-anchor="start" x="177" y="-1233" font-family="FreeSans" font-size="10.00">hops::MHO_TransformingOperator</text>
<text text-anchor="start" x="177" y="-1222" font-family="FreeSans" font-size="10.00">&lt; uch_visibility_store_type,</text>
<text text-anchor="middle" x="251.5" y="-1211" font-family="FreeSans" font-size="10.00"> visibility_store_type &gt;</text>
</a>
</g>
</g>
<!-- Node1&#45;&gt;Node10 -->
<g id="edge8" class="edge">
<title>Node1&#45;&gt;Node10</title>
<path fill="none" stroke="midnightblue" d="M55.18,-566.15C56.46,-662.26 66.46,-1082.24 144,-1181.5 151.3,-1190.85 160.97,-1198.18 171.49,-1203.91"/>
<polygon fill="midnightblue" stroke="midnightblue" points="58.68,-566.04 55.07,-556.08 51.68,-566.12 58.68,-566.04"/>
</g>
<!-- Node12 -->
<g id="node11" class="node">
<title>Node12</title>
<g id="a_node11"><a xlink:href="classhops_1_1MHO__TransformingOperator.html" target="_top" xlink:title=" ">
<polygon fill="white" stroke="black" points="169,-1131 169,-1172 334,-1172 334,-1131 169,-1131"/>
<text text-anchor="start" x="177" y="-1160" font-family="FreeSans" font-size="10.00">hops::MHO_TransformingOperator</text>
<text text-anchor="start" x="177" y="-1149" font-family="FreeSans" font-size="10.00">&lt; uch_weight_store_type, weight</text>
<text text-anchor="middle" x="251.5" y="-1138" font-family="FreeSans" font-size="10.00">_store_type &gt;</text>
</a>
</g>
</g>
<!-- Node1&#45;&gt;Node12 -->
<g id="edge10" class="edge">
<title>Node1&#45;&gt;Node12</title>
<path fill="none" stroke="midnightblue" d="M55.91,-566.56C60.27,-654.66 81.41,-1006.86 144,-1094.5 155.34,-1110.37 172.49,-1122.23 189.74,-1130.9"/>
<polygon fill="midnightblue" stroke="midnightblue" points="59.4,-566.15 55.43,-556.33 52.41,-566.49 59.4,-566.15"/>
</g>
<!-- Node14 -->
<g id="node13" class="node">
<title>Node14</title>
<g id="a_node13"><a xlink:href="classhops_1_1MHO__TransformingOperator.html" target="_top" xlink:title=" ">
<polygon fill="white" stroke="black" points="169,-1054.5 169,-1084.5 334,-1084.5 334,-1054.5 169,-1054.5"/>
<text text-anchor="start" x="177" y="-1072.5" font-family="FreeSans" font-size="10.00">hops::MHO_TransformingOperator</text>
<text text-anchor="middle" x="251.5" y="-1061.5" font-family="FreeSans" font-size="10.00">&lt; visibility_type, sbd_type &gt;</text>
</a>
</g>
</g>
<!-- Node1&#45;&gt;Node14 -->
<g id="edge12" class="edge">
<title>Node1&#45;&gt;Node14</title>
<path fill="none" stroke="midnightblue" d="M57.03,-566.44C65.15,-643.27 97.13,-919.51 144,-992.5 161.88,-1020.34 193.67,-1041.34 217.88,-1054.33"/>
<polygon fill="midnightblue" stroke="midnightblue" points="60.49,-565.82 55.97,-556.23 53.52,-566.54 60.49,-565.82"/>
</g>
<!-- Node16 -->
<g id="node15" class="node">
<title>Node16</title>
<g id="a_node15"><a xlink:href="classhops_1_1MHO__UnaryOperator.html" target="_top" xlink:title=" ">
<polygon fill="white" stroke="black" points="184.5,-952.5 184.5,-982.5 318.5,-982.5 318.5,-952.5 184.5,-952.5"/>
<text text-anchor="start" x="192.5" y="-970.5" font-family="FreeSans" font-size="10.00">hops::MHO_UnaryOperator</text>
<text text-anchor="middle" x="251.5" y="-959.5" font-family="FreeSans" font-size="10.00">&lt; multitone_pcal_type &gt;</text>
</a>
</g>
</g>
<!-- Node1&#45;&gt;Node16 -->
<g id="edge14" class="edge">
<title>Node1&#45;&gt;Node16</title>
<path fill="none" stroke="midnightblue" d="M56.93,-566.68C64.2,-638.68 92.22,-881.57 144,-936.5 154.7,-947.85 169.29,-955.12 184.24,-959.76"/>
<polygon fill="midnightblue" stroke="midnightblue" points="60.37,-565.92 55.91,-556.31 53.4,-566.6 60.37,-565.92"/>
</g>
<!-- Node18 -->
<g id="node17" class="node">
<title>Node18</title>
<g id="a_node17"><a xlink:href="classhops_1_1MHO__UnaryOperator.html" target="_top" xlink:title=" ">
<polygon fill="white" stroke="black" points="184.5,-896.5 184.5,-926.5 318.5,-926.5 318.5,-896.5 184.5,-896.5"/>
<text text-anchor="start" x="192.5" y="-914.5" font-family="FreeSans" font-size="10.00">hops::MHO_UnaryOperator</text>
<text text-anchor="middle" x="251.5" y="-903.5" font-family="FreeSans" font-size="10.00">&lt; XArrayType &gt;</text>
</a>
</g>
</g>
<!-- Node1&#45;&gt;Node18 -->
<g id="edge16" class="edge">
<title>Node1&#45;&gt;Node18</title>
<path fill="none" stroke="midnightblue" d="M62.97,-566C77.67,-601.41 110.59,-678.4 144,-740.5 175.98,-799.94 220.27,-866.95 240.14,-896.33"/>
<polygon fill="midnightblue" stroke="midnightblue" points="66.06,-564.31 59.02,-556.4 59.59,-566.98 66.06,-564.31"/>
</g>
<!-- Node27 -->
<g id="node26" class="node">
<title>Node27</title>
<g id="a_node26"><a xlink:href="classhops_1_1MHO__UnaryOperator.html" target="_top" xlink:title=" ">
<polygon fill="white" stroke="black" points="175.5,-700.5 175.5,-730.5 327.5,-730.5 327.5,-700.5 175.5,-700.5"/>
<text text-anchor="start" x="183.5" y="-718.5" font-family="FreeSans" font-size="10.00">hops::MHO_UnaryOperator</text>
<text text-anchor="middle" x="251.5" y="-707.5" font-family="FreeSans" font-size="10.00">&lt; hops::MHO_TableContainer &gt;</text>
</a>
</g>
</g>
<!-- Node1&#45;&gt;Node27 -->
<g id="edge25" class="edge">
<title>Node1&#45;&gt;Node27</title>
<path fill="none" stroke="midnightblue" d="M61.29,-565.89C72.56,-597.43 99.3,-659.52 144,-691.5 153.33,-698.17 164.19,-703.03 175.35,-706.56"/>
<polygon fill="midnightblue" stroke="midnightblue" points="64.49,-564.44 57.94,-556.11 57.87,-566.71 64.49,-564.44"/>
</g>
<!-- Node34 -->
<g id="node33" class="node">
<title>Node34</title>
<g id="a_node33"><a xlink:href="classhops_1_1MHO__UnaryOperator.html" target="_top" xlink:title=" ">
<polygon fill="white" stroke="black" points="184.5,-651.5 184.5,-681.5 318.5,-681.5 318.5,-651.5 184.5,-651.5"/>
<text text-anchor="start" x="192.5" y="-669.5" font-family="FreeSans" font-size="10.00">hops::MHO_UnaryOperator</text>
<text text-anchor="middle" x="251.5" y="-658.5" font-family="FreeSans" font-size="10.00">&lt; weight_type &gt;</text>
</a>
</g>
</g>
<!-- Node1&#45;&gt;Node34 -->
<g id="edge32" class="edge">
<title>Node1&#45;&gt;Node34</title>
<path fill="none" stroke="midnightblue" d="M66.65,-564.62C81.76,-586.58 110.22,-623.05 144,-642.5 156.24,-649.55 170.37,-654.52 184.26,-658.04"/>
<polygon fill="midnightblue" stroke="midnightblue" points="69.48,-562.55 61.01,-556.19 63.66,-566.44 69.48,-562.55"/>
</g>
<!-- Node36 -->
<g id="node35" class="node">
<title>Node36</title>
<g id="a_node35"><a xlink:href="classhops_1_1MHO__UnaryOperator.html" target="_top" xlink:title=" ">
<polygon fill="white" stroke="black" points="184.5,-580.5 184.5,-632.5 318.5,-632.5 318.5,-580.5 184.5,-580.5"/>
<text text-anchor="start" x="192.5" y="-620.5" font-family="FreeSans" font-size="10.00">hops::MHO_UnaryOperator</text>
<text text-anchor="start" x="192.5" y="-609.5" font-family="FreeSans" font-size="10.00">&lt; MHO_NDArrayWrapper&lt;</text>
<text text-anchor="start" x="192.5" y="-598.5" font-family="FreeSans" font-size="10.00"> std::complex&lt; XFloatType</text>
<text text-anchor="middle" x="251.5" y="-587.5" font-family="FreeSans" font-size="10.00"> &gt;, 1 &gt; &gt;</text>
</a>
</g>
</g>
<!-- Node1&#45;&gt;Node36 -->
<g id="edge34" class="edge">
<title>Node1&#45;&gt;Node36</title>
<path fill="none" stroke="midnightblue" d="M95.73,-559C121.38,-566.87 155.06,-577.21 184.46,-586.23"/>
<polygon fill="midnightblue" stroke="midnightblue" points="96.56,-555.6 85.98,-556.01 94.51,-562.29 96.56,-555.6"/>
</g>
<!-- Node38 -->
<g id="node37" class="node">
<title>Node38</title>
<g id="a_node37"><a xlink:href="classhops_1_1MHO__UnaryOperator.html" target="_top" xlink:title=" ">
<polygon fill="white" stroke="red" points="184.5,-531.5 184.5,-561.5 318.5,-561.5 318.5,-531.5 184.5,-531.5"/>
<text text-anchor="start" x="192.5" y="-549.5" font-family="FreeSans" font-size="10.00">hops::MHO_UnaryOperator</text>
<text text-anchor="middle" x="251.5" y="-538.5" font-family="FreeSans" font-size="10.00">&lt; visibility_type &gt;</text>
</a>
</g>
</g>
<!-- Node1&#45;&gt;Node38 -->
<g id="edge36" class="edge">
<title>Node1&#45;&gt;Node38</title>
<path fill="none" stroke="midnightblue" d="M118.32,-546.5C139.47,-546.5 163.08,-546.5 184.42,-546.5"/>
<polygon fill="midnightblue" stroke="midnightblue" points="118.16,-543 108.16,-546.5 118.16,-550 118.16,-543"/>
</g>
<!-- Node58 -->
<g id="node39" class="node">
<title>Node58</title>
<g id="a_node39"><a xlink:href="classhops_1_1MHO__UnaryOperator.html" target="_top" xlink:title=" ">
<polygon fill="white" stroke="red" points="184.5,-460.5 184.5,-512.5 318.5,-512.5 318.5,-460.5 184.5,-460.5"/>
<text text-anchor="start" x="192.5" y="-500.5" font-family="FreeSans" font-size="10.00">hops::MHO_UnaryOperator</text>
<text text-anchor="start" x="192.5" y="-489.5" font-family="FreeSans" font-size="10.00">&lt; MHO_TableContainer&lt;</text>
<text text-anchor="start" x="192.5" y="-478.5" font-family="FreeSans" font-size="10.00"> visibility_element_type,</text>
<text text-anchor="middle" x="251.5" y="-467.5" font-family="FreeSans" font-size="10.00"> mbd_axis_pack &gt; &gt;</text>
</a>
</g>
</g>
<!-- Node1&#45;&gt;Node58 -->
<g id="edge38" class="edge">
<title>Node1&#45;&gt;Node58</title>
<path fill="none" stroke="midnightblue" d="M95.73,-534C121.38,-526.13 155.06,-515.79 184.46,-506.77"/>
<polygon fill="midnightblue" stroke="midnightblue" points="94.51,-530.71 85.98,-536.99 96.56,-537.4 94.51,-530.71"/>
</g>
<!-- Node60 -->
<g id="node40" class="node">
<title>Node60</title>
<g id="a_node40"><a xlink:href="classhops_1_1MHO__BinaryOperator.html" target="_top" xlink:title="Class MHO_BinaryOperator.">
<polygon fill="white" stroke="black" points="184,-400 184,-441 319,-441 319,-400 184,-400"/>
<text text-anchor="start" x="192" y="-429" font-family="FreeSans" font-size="10.00">hops::MHO_BinaryOperator</text>
<text text-anchor="start" x="192" y="-418" font-family="FreeSans" font-size="10.00">&lt; XArgType1, XArgType2,</text>
<text text-anchor="middle" x="251.5" y="-407" font-family="FreeSans" font-size="10.00"> XArgType3 &gt;</text>
</a>
</g>
</g>
<!-- Node1&#45;&gt;Node60 -->
<g id="edge39" class="edge">
<title>Node1&#45;&gt;Node60</title>
<path fill="none" stroke="midnightblue" d="M67.13,-528.58C82.55,-507.16 111.14,-471.68 144,-451.5 156.14,-444.04 170.17,-438.31 183.97,-433.92"/>
<polygon fill="midnightblue" stroke="midnightblue" points="64.23,-526.62 61.35,-536.82 69.96,-530.64 64.23,-526.62"/>
</g>
<!-- Node61 -->
<g id="node41" class="node">
<title>Node61</title>
<g id="a_node41"><a xlink:href="classhops_1_1MHO__InspectingOperator.html" target="_top" xlink:title="Class MHO_InspectingOperator.">
<polygon fill="white" stroke="red" points="175,-350.5 175,-380.5 328,-380.5 328,-350.5 175,-350.5"/>
<text text-anchor="start" x="183" y="-368.5" font-family="FreeSans" font-size="10.00">hops::MHO_InspectingOperator</text>
<text text-anchor="middle" x="251.5" y="-357.5" font-family="FreeSans" font-size="10.00">&lt; XArgType &gt;</text>
</a>
</g>
</g>
<!-- Node1&#45;&gt;Node61 -->
<g id="edge40" class="edge">
<title>Node1&#45;&gt;Node61</title>
<path fill="none" stroke="midnightblue" d="M60.45,-527.11C70.86,-493.75 96.86,-425.7 144,-390.5 153.13,-383.68 163.83,-378.69 174.86,-375.03"/>
<polygon fill="midnightblue" stroke="midnightblue" points="57,-526.41 57.51,-536.99 63.71,-528.41 57,-526.41"/>
</g>
<!-- Node64 -->
<g id="node42" class="node">
<title>Node64</title>
<g id="a_node42"><a xlink:href="classhops_1_1MHO__InterpolateFringePeak.html" target="_top" xlink:title="Class MHO_InterpolateFringePeak.">
<polygon fill="white" stroke="black" points="168.5,-312 168.5,-331 334.5,-331 334.5,-312 168.5,-312"/>
<text text-anchor="middle" x="251.5" y="-319" font-family="FreeSans" font-size="10.00">hops::MHO_InterpolateFringePeak</text>
</a>
</g>
</g>
<!-- Node1&#45;&gt;Node64 -->
<g id="edge41" class="edge">
<title>Node1&#45;&gt;Node64</title>
<path fill="none" stroke="midnightblue" d="M57.44,-526.73C63.66,-485.29 84.12,-389.28 144,-341.5 151.21,-335.75 159.56,-331.47 168.35,-328.31"/>
<polygon fill="midnightblue" stroke="midnightblue" points="53.94,-526.49 56.04,-536.88 60.87,-527.45 53.94,-526.49"/>
</g>
<!-- Node65 -->
<g id="node43" class="node">
<title>Node65</title>
<g id="a_node43"><a xlink:href="classhops_1_1MHO__OpenCLBatchedMultidimensionalFastFourierTransform.html" target="_top" xlink:title=" ">
<polygon fill="white" stroke="black" points="144,-262.5 144,-292.5 359,-292.5 359,-262.5 144,-262.5"/>
<text text-anchor="start" x="152" y="-280.5" font-family="FreeSans" font-size="10.00">hops::MHO_OpenCLBatchedMultidimensional</text>
<text text-anchor="middle" x="251.5" y="-269.5" font-family="FreeSans" font-size="10.00">FastFourierTransform&lt; XArgType &gt;</text>
</a>
</g>
</g>
<!-- Node1&#45;&gt;Node65 -->
<g id="edge42" class="edge">
<title>Node1&#45;&gt;Node65</title>
<path fill="none" stroke="midnightblue" d="M56.1,-526.8C59.8,-480.29 75.76,-363.05 144,-302.5 148.33,-298.66 153.14,-295.37 158.26,-292.57"/>
<polygon fill="midnightblue" stroke="midnightblue" points="52.61,-526.57 55.41,-536.79 59.59,-527.05 52.61,-526.57"/>
</g>
<!-- Node66 -->
<g id="node44" class="node">
<title>Node66</title>
<g id="a_node44"><a xlink:href="classhops_1_1MHO__PyGenericOperator.html" target="_top" xlink:title="this class allows a user to inject a python function of the form: func(fringe_data_interface) into th...">
<polygon fill="white" stroke="black" points="175,-224 175,-243 328,-243 328,-224 175,-224"/>
<text text-anchor="middle" x="251.5" y="-231" font-family="FreeSans" font-size="10.00">hops::MHO_PyGenericOperator</text>
</a>
</g>
</g>
<!-- Node1&#45;&gt;Node66 -->
<g id="edge43" class="edge">
<title>Node1&#45;&gt;Node66</title>
<path fill="none" stroke="midnightblue" d="M54.47,-526.6C54.21,-473.21 61.38,-325.95 144,-252.5 152.77,-244.7 163.61,-239.58 174.98,-236.29"/>
<polygon fill="midnightblue" stroke="midnightblue" points="50.97,-526.82 54.62,-536.76 57.97,-526.71 50.97,-526.82"/>
</g>
<!-- Node67 -->
<g id="node45" class="node">
<title>Node67</title>
<g id="a_node45"><a xlink:href="classhops_1_1MHO__PyOperator.html" target="_top" xlink:title="trampoline for generic data operator">
<polygon fill="white" stroke="black" points="192,-186 192,-205 311,-205 311,-186 192,-186"/>
<text text-anchor="middle" x="251.5" y="-193" font-family="FreeSans" font-size="10.00">hops::MHO_PyOperator</text>
</a>
</g>
</g>
<!-- Node1&#45;&gt;Node67 -->
<g id="edge44" class="edge">
<title>Node1&#45;&gt;Node67</title>
<path fill="none" stroke="midnightblue" d="M57.53,-526.67C66.2,-461.83 96.83,-257.81 144,-214.5 156.94,-202.62 174.63,-196.89 191.88,-194.39"/>
<polygon fill="midnightblue" stroke="midnightblue" points="54.03,-526.41 56.2,-536.78 60.97,-527.32 54.03,-526.41"/>
</g>
<!-- Node68 -->
<g id="node46" class="node">
<title>Node68</title>
<g id="a_node46"><a xlink:href="classhops_1_1MHO__PyUnaryTableOperator.html" target="_top" xlink:title=" ">
<polygon fill="white" stroke="black" points="167,-148 167,-167 336,-167 336,-148 167,-148"/>
<text text-anchor="middle" x="251.5" y="-155" font-family="FreeSans" font-size="10.00">hops::MHO_PyUnaryTableOperator</text>
</a>
</g>
</g>
<!-- Node1&#45;&gt;Node68 -->
<g id="edge45" class="edge">
<title>Node1&#45;&gt;Node68</title>
<path fill="none" stroke="midnightblue" d="M56.94,-526.7C64.17,-457.17 91.84,-225.64 144,-176.5 150.56,-170.32 158.41,-165.79 166.82,-162.5"/>
<polygon fill="midnightblue" stroke="midnightblue" points="53.45,-526.45 55.92,-536.75 60.41,-527.16 53.45,-526.45"/>
</g>
<!-- Node69 -->
<g id="node47" class="node">
<title>Node69</title>
<g id="a_node47"><a xlink:href="classhops_1_1MHO__TransformingOperator.html" target="_top" xlink:title="Class MHO_TransformingOperator.">
<polygon fill="white" stroke="red" points="169,-98.5 169,-128.5 334,-128.5 334,-98.5 169,-98.5"/>
<text text-anchor="start" x="177" y="-116.5" font-family="FreeSans" font-size="10.00">hops::MHO_TransformingOperator</text>
<text text-anchor="middle" x="251.5" y="-105.5" font-family="FreeSans" font-size="10.00">&lt; XArgType1, XArgType2 &gt;</text>
</a>
</g>
</g>
<!-- Node1&#45;&gt;Node69 -->
<g id="edge46" class="edge">
<title>Node1&#45;&gt;Node69</title>
<path fill="none" stroke="midnightblue" d="M56.57,-526.73C62.82,-452.96 88.36,-195.02 144,-138.5 150.99,-131.39 159.6,-126.15 168.86,-122.31"/>
<polygon fill="midnightblue" stroke="midnightblue" points="53.06,-526.68 55.73,-536.93 60.04,-527.26 53.06,-526.68"/>
</g>
<!-- Node71 -->
<g id="node48" class="node">
<title>Node71</title>
<g id="a_node48"><a xlink:href="classhops_1_1MHO__UnaryInPlaceOperator.html" target="_top" xlink:title="Class MHO_UnaryInPlaceOperator.">
<polygon fill="white" stroke="red" points="168,-49.5 168,-79.5 335,-79.5 335,-49.5 168,-49.5"/>
<text text-anchor="start" x="176" y="-67.5" font-family="FreeSans" font-size="10.00">hops::MHO_UnaryInPlaceOperator</text>
<text text-anchor="middle" x="251.5" y="-56.5" font-family="FreeSans" font-size="10.00">&lt; XArgType &gt;</text>
</a>
</g>
</g>
<!-- Node1&#45;&gt;Node71 -->
<g id="edge47" class="edge">
<title>Node1&#45;&gt;Node71</title>
<path fill="none" stroke="midnightblue" d="M56.03,-526.89C60.6,-447.72 81.62,-152.76 144,-88.5 150.73,-81.56 159.01,-76.44 167.95,-72.68"/>
<polygon fill="midnightblue" stroke="midnightblue" points="52.53,-526.78 55.47,-536.96 59.52,-527.17 52.53,-526.78"/>
</g>
<!-- Node74 -->
<g id="node49" class="node">
<title>Node74</title>
<g id="a_node49"><a xlink:href="classhops_1_1MHO__UnaryOperator.html" target="_top" xlink:title="Class MHO_UnaryOperator.">
<polygon fill="white" stroke="red" points="184.5,-0.5 184.5,-30.5 318.5,-30.5 318.5,-0.5 184.5,-0.5"/>
<text text-anchor="start" x="192.5" y="-18.5" font-family="FreeSans" font-size="10.00">hops::MHO_UnaryOperator</text>
<text text-anchor="middle" x="251.5" y="-7.5" font-family="FreeSans" font-size="10.00">&lt; XArgType &gt;</text>
</a>
</g>
</g>
<!-- Node1&#45;&gt;Node74 -->
<g id="edge48" class="edge">
<title>Node1&#45;&gt;Node74</title>
<path fill="none" stroke="midnightblue" d="M55.64,-526.72C58.78,-442.1 75.32,-111.55 144,-39.5 154.66,-28.32 169.32,-21.82 184.37,-18.17"/>
<polygon fill="midnightblue" stroke="midnightblue" points="52.14,-526.67 55.29,-536.78 59.13,-526.91 52.14,-526.67"/>
</g>
<!-- Node3 -->
<g id="node3" class="node">
<title>Node3</title>
<g id="a_node3"><a xlink:href="classhops_1_1MHO__DelayRate.html" target="_top" xlink:title="Class MHO_DelayRate.">
<polygon fill="white" stroke="black" points="431,-1436 431,-1455 546,-1455 546,-1436 431,-1436"/>
<text text-anchor="middle" x="488.5" y="-1443" font-family="FreeSans" font-size="10.00">hops::MHO_DelayRate</text>
</a>
</g>
</g>
<!-- Node2&#45;&gt;Node3 -->
<g id="edge2" class="edge">
<title>Node2&#45;&gt;Node3</title>
<path fill="none" stroke="midnightblue" d="M329.32,-1445.5C362.45,-1445.5 400.49,-1445.5 430.97,-1445.5"/>
<polygon fill="midnightblue" stroke="midnightblue" points="329.21,-1442 319.21,-1445.5 329.21,-1449 329.21,-1442"/>
</g>
<!-- Node5 -->
<g id="node5" class="node">
<title>Node5</title>
<g id="a_node5"><a xlink:href="classhops_1_1MHO__OpenCLComplexPointwiseMultiply.html" target="_top" xlink:title=" ">
<polygon fill="white" stroke="black" points="395,-1370.5 395,-1400.5 582,-1400.5 582,-1370.5 395,-1370.5"/>
<text text-anchor="start" x="403" y="-1388.5" font-family="FreeSans" font-size="10.00">hops::MHO_OpenCLComplexPointwise</text>
<text text-anchor="middle" x="488.5" y="-1377.5" font-family="FreeSans" font-size="10.00">Multiply</text>
</a>
</g>
</g>
<!-- Node4&#45;&gt;Node5 -->
<g id="edge4" class="edge">
<title>Node4&#45;&gt;Node5</title>
<path fill="none" stroke="midnightblue" d="M358.8,-1373.45C370.81,-1374.58 382.98,-1375.72 394.8,-1376.82"/>
<polygon fill="midnightblue" stroke="midnightblue" points="359.04,-1369.96 348.76,-1372.51 358.39,-1376.93 359.04,-1369.96"/>
</g>
<!-- Node7 -->
<g id="node7" class="node">
<title>Node7</title>
<g id="a_node7"><a xlink:href="classhops_1_1MHO__EstimatePCManual.html" target="_top" xlink:title="Class MHO_EstimatePCManual.">
<polygon fill="white" stroke="black" points="411.5,-1332 411.5,-1351 565.5,-1351 565.5,-1332 411.5,-1332"/>
<text text-anchor="middle" x="488.5" y="-1339" font-family="FreeSans" font-size="10.00">hops::MHO_EstimatePCManual</text>
</a>
</g>
</g>
<!-- Node6&#45;&gt;Node7 -->
<g id="edge6" class="edge">
<title>Node6&#45;&gt;Node7</title>
<path fill="none" stroke="midnightblue" d="M329.58,-1303.96C339.51,-1306.39 349.51,-1308.94 359,-1311.5 375.15,-1315.86 378.79,-1318.37 395,-1322.5 408.5,-1325.94 423.24,-1329.19 436.9,-1332"/>
<polygon fill="midnightblue" stroke="midnightblue" points="330.25,-1300.52 319.71,-1301.57 328.6,-1307.32 330.25,-1300.52"/>
</g>
<!-- Node8 -->
<g id="node8" class="node">
<title>Node8</title>
<g id="a_node8"><a xlink:href="classhops_1_1MHO__MBDelaySearch.html" target="_top" xlink:title="Class MHO_MBDelaySearch.">
<polygon fill="white" stroke="red" points="418.5,-1294 418.5,-1313 558.5,-1313 558.5,-1294 418.5,-1294"/>
<text text-anchor="middle" x="488.5" y="-1301" font-family="FreeSans" font-size="10.00">hops::MHO_MBDelaySearch</text>
</a>
</g>
</g>
<!-- Node6&#45;&gt;Node8 -->
<g id="edge7" class="edge">
<title>Node6&#45;&gt;Node8</title>
<path fill="none" stroke="midnightblue" d="M338.14,-1292.69C364.52,-1294.6 393.23,-1296.68 418.36,-1298.5"/>
<polygon fill="midnightblue" stroke="midnightblue" points="338.38,-1289.2 328.15,-1291.97 337.87,-1296.18 338.38,-1289.2"/>
</g>
<!-- Node11 -->
<g id="node10" class="node">
<title>Node11</title>
<g id="a_node10"><a xlink:href="classhops_1_1MHO__VisibilityChannelizer.html" target="_top" xlink:title="Class MHO_VisibilityChannelizer.">
<polygon fill="white" stroke="black" points="410,-1256 410,-1275 567,-1275 567,-1256 410,-1256"/>
<text text-anchor="middle" x="488.5" y="-1263" font-family="FreeSans" font-size="10.00">hops::MHO_VisibilityChannelizer</text>
</a>
</g>
</g>
<!-- Node10&#45;&gt;Node11 -->
<g id="edge9" class="edge">
<title>Node10&#45;&gt;Node11</title>
<path fill="none" stroke="midnightblue" d="M344.12,-1240.49C374.19,-1245.73 406.63,-1251.39 433.04,-1256"/>
<polygon fill="midnightblue" stroke="midnightblue" points="344.48,-1237 334.03,-1238.72 343.28,-1243.89 344.48,-1237"/>
</g>
<!-- Node13 -->
<g id="node12" class="node">
<title>Node13</title>
<g id="a_node12"><a xlink:href="classhops_1_1MHO__WeightChannelizer.html" target="_top" xlink:title="collects unchannelized (3d) weight data and groups by channel (but all channels must be of equal size...">
<polygon fill="white" stroke="black" points="413,-1218 413,-1237 564,-1237 564,-1218 413,-1218"/>
<text text-anchor="middle" x="488.5" y="-1225" font-family="FreeSans" font-size="10.00">hops::MHO_WeightChannelizer</text>
</a>
</g>
</g>
<!-- Node12&#45;&gt;Node13 -->
<g id="edge11" class="edge">
<title>Node12&#45;&gt;Node13</title>
<path fill="none" stroke="midnightblue" d="M313.22,-1176.07C349.99,-1190.9 390.62,-1207.19 395,-1208.5 407.09,-1212.13 420.28,-1215.29 432.81,-1217.94"/>
<polygon fill="midnightblue" stroke="midnightblue" points="314.07,-1172.64 303.49,-1172.14 311.45,-1179.13 314.07,-1172.64"/>
</g>
<!-- Node15 -->
<g id="node14" class="node">
<title>Node15</title>
<g id="a_node14"><a xlink:href="classhops_1_1MHO__SBDTableGenerator.html" target="_top" xlink:title="Class MHO_SBDTableGenerator.">
<polygon fill="white" stroke="black" points="409.5,-1180 409.5,-1199 567.5,-1199 567.5,-1180 409.5,-1180"/>
<text text-anchor="middle" x="488.5" y="-1187" font-family="FreeSans" font-size="10.00">hops::MHO_SBDTableGenerator</text>
</a>
</g>
</g>
<!-- Node14&#45;&gt;Node15 -->
<g id="edge13" class="edge">
<title>Node14&#45;&gt;Node15</title>
<path fill="none" stroke="midnightblue" d="M303.91,-1088.55C322.45,-1096.92 342.79,-1107.96 359,-1121.5 379.74,-1138.82 372.25,-1155.92 395,-1170.5 401.07,-1174.39 407.79,-1177.51 414.75,-1180"/>
<polygon fill="midnightblue" stroke="midnightblue" points="305.25,-1085.32 294.69,-1084.54 302.46,-1091.74 305.25,-1085.32"/>
</g>
<!-- Node17 -->
<g id="node16" class="node">
<title>Node17</title>
<g id="a_node16"><a xlink:href="classhops_1_1MHO__PhaseCalibrationTrim.html" target="_top" xlink:title="Class MHO_PhaseCalibrationTrim.">
<polygon fill="white" stroke="black" points="406.5,-1142 406.5,-1161 570.5,-1161 570.5,-1142 406.5,-1142"/>
<text text-anchor="middle" x="488.5" y="-1149" font-family="FreeSans" font-size="10.00">hops::MHO_PhaseCalibrationTrim</text>
</a>
</g>
</g>
<!-- Node16&#45;&gt;Node17 -->
<g id="edge15" class="edge">
<title>Node16&#45;&gt;Node17</title>
<path fill="none" stroke="midnightblue" d="M289.89,-987.79C312.41,-1001.58 340.26,-1021.63 359,-1045.5 384.84,-1078.42 362.74,-1105.85 395,-1132.5 399.55,-1136.26 404.65,-1139.34 410.05,-1141.85"/>
<polygon fill="midnightblue" stroke="midnightblue" points="291.62,-984.75 281.24,-982.64 288.04,-990.76 291.62,-984.75"/>
</g>
<!-- Node19 -->
<g id="node18" class="node">
<title>Node19</title>
<g id="a_node18"><a xlink:href="classhops_1_1MHO__ChannelLabeler.html" target="_top" xlink:title="Class MHO_ChannelLabeler.">
<polygon fill="white" stroke="black" points="419.5,-1092.5 419.5,-1122.5 557.5,-1122.5 557.5,-1092.5 419.5,-1092.5"/>
<text text-anchor="start" x="427.5" y="-1110.5" font-family="FreeSans" font-size="10.00">hops::MHO_ChannelLabeler</text>
<text text-anchor="middle" x="488.5" y="-1099.5" font-family="FreeSans" font-size="10.00">&lt; XArrayType &gt;</text>
</a>
</g>
</g>
<!-- Node18&#45;&gt;Node19 -->
<g id="edge17" class="edge">
<title>Node18&#45;&gt;Node19</title>
<path fill="none" stroke="midnightblue" d="M328.31,-923.62C339.75,-928.28 350.54,-934.69 359,-943.5 403.51,-989.83 349.62,-1038.02 395,-1083.5 401.8,-1090.31 410.26,-1095.27 419.29,-1098.86"/>
<polygon fill="midnightblue" stroke="midnightblue" points="329.17,-920.21 318.57,-920.11 326.79,-926.8 329.17,-920.21"/>
</g>
<!-- Node20 -->
<g id="node19" class="node">
<title>Node20</title>
<g id="a_node19"><a xlink:href="classhops_1_1MHO__CyclicRotator.html" target="_top" xlink:title="Class MHO_CyclicRotator.">
<polygon fill="white" stroke="black" points="424.5,-1043.5 424.5,-1073.5 552.5,-1073.5 552.5,-1043.5 424.5,-1043.5"/>
<text text-anchor="start" x="432.5" y="-1061.5" font-family="FreeSans" font-size="10.00">hops::MHO_CyclicRotator</text>
<text text-anchor="middle" x="488.5" y="-1050.5" font-family="FreeSans" font-size="10.00">&lt; XArrayType &gt;</text>
</a>
</g>
</g>
<!-- Node18&#45;&gt;Node20 -->
<g id="edge18" class="edge">
<title>Node18&#45;&gt;Node20</title>
<path fill="none" stroke="midnightblue" d="M328.25,-924.89C339.49,-929.41 350.22,-935.44 359,-943.5 391.03,-972.92 362.41,-1005.69 395,-1034.5 403.33,-1041.86 413.63,-1047.02 424.31,-1050.61"/>
<polygon fill="midnightblue" stroke="midnightblue" points="329.32,-921.55 318.72,-921.44 326.94,-928.14 329.32,-921.55"/>
</g>
<!-- Node21 -->
<g id="node20" class="node">
<title>Node21</title>
<g id="a_node20"><a xlink:href="classhops_1_1MHO__DoubleSidebandChannelLabeler.html" target="_top" xlink:title="Class MHO_DoubleSidebandChannelLabeler.">
<polygon fill="white" stroke="black" points="413,-994.5 413,-1024.5 564,-1024.5 564,-994.5 413,-994.5"/>
<text text-anchor="start" x="421" y="-1012.5" font-family="FreeSans" font-size="10.00">hops::MHO_DoubleSideband</text>
<text text-anchor="middle" x="488.5" y="-1001.5" font-family="FreeSans" font-size="10.00">ChannelLabeler&lt; XArrayType &gt;</text>
</a>
</g>
</g>
<!-- Node18&#45;&gt;Node21 -->
<g id="edge19" class="edge">
<title>Node18&#45;&gt;Node21</title>
<path fill="none" stroke="midnightblue" d="M328.23,-928.35C339.01,-932.41 349.61,-937.39 359,-943.5 379.6,-956.91 374.14,-972.48 395,-985.5 400.49,-988.93 406.45,-991.87 412.62,-994.39"/>
<polygon fill="midnightblue" stroke="midnightblue" points="329.33,-925.03 318.73,-925.02 327.01,-931.63 329.33,-925.03"/>
</g>
<!-- Node22 -->
<g id="node21" class="node">
<title>Node22</title>
<g id="a_node21"><a xlink:href="classhops_1_1MHO__FunctorBroadcaster.html" target="_top" xlink:title="Class MHO_FunctorBroadcaster.">
<polygon fill="white" stroke="black" points="410.5,-945.5 410.5,-975.5 566.5,-975.5 566.5,-945.5 410.5,-945.5"/>
<text text-anchor="start" x="418.5" y="-963.5" font-family="FreeSans" font-size="10.00">hops::MHO_FunctorBroadcaster</text>
<text text-anchor="middle" x="488.5" y="-952.5" font-family="FreeSans" font-size="10.00">&lt; XArrayType, XFunctorType &gt;</text>
</a>
</g>
</g>
<!-- Node18&#45;&gt;Node22 -->
<g id="edge20" class="edge">
<title>Node18&#45;&gt;Node22</title>
<path fill="none" stroke="midnightblue" d="M328.66,-927.38C356.49,-933.18 387.86,-939.72 415.32,-945.45"/>
<polygon fill="midnightblue" stroke="midnightblue" points="329.09,-923.89 318.59,-925.28 327.66,-930.75 329.09,-923.89"/>
</g>
<!-- Node23 -->
<g id="node22" class="node">
<title>Node23</title>
<g id="a_node22"><a xlink:href="classhops_1_1MHO__OpenCLScalarMultiply.html" target="_top" xlink:title=" ">
<polygon fill="white" stroke="black" points="405,-896.5 405,-926.5 572,-926.5 572,-896.5 405,-896.5"/>
<text text-anchor="start" x="413" y="-914.5" font-family="FreeSans" font-size="10.00">hops::MHO_OpenCLScalarMultiply</text>
<text text-anchor="middle" x="488.5" y="-903.5" font-family="FreeSans" font-size="10.00">&lt; XFactorType, XArrayType &gt;</text>
</a>
</g>
</g>
<!-- Node18&#45;&gt;Node23 -->
<g id="edge21" class="edge">
<title>Node18&#45;&gt;Node23</title>
<path fill="none" stroke="midnightblue" d="M328.81,-911.5C353.08,-911.5 380.03,-911.5 404.73,-911.5"/>
<polygon fill="midnightblue" stroke="midnightblue" points="328.59,-908 318.59,-911.5 328.59,-915 328.59,-908"/>
</g>
<!-- Node24 -->
<g id="node23" class="node">
<title>Node24</title>
<g id="a_node23"><a xlink:href="classhops_1_1MHO__Reducer.html" target="_top" xlink:title="Class MHO_Reducer.">
<polygon fill="white" stroke="black" points="417,-847.5 417,-877.5 560,-877.5 560,-847.5 417,-847.5"/>
<text text-anchor="start" x="425" y="-865.5" font-family="FreeSans" font-size="10.00">hops::MHO_Reducer&lt;</text>
<text text-anchor="middle" x="488.5" y="-854.5" font-family="FreeSans" font-size="10.00"> XArrayType, XFunctorType &gt;</text>
</a>
</g>
</g>
<!-- Node18&#45;&gt;Node24 -->
<g id="edge22" class="edge">
<title>Node18&#45;&gt;Node24</title>
<path fill="none" stroke="midnightblue" d="M328.47,-895.66C356.91,-889.73 389.07,-883.02 416.98,-877.2"/>
<polygon fill="midnightblue" stroke="midnightblue" points="327.66,-892.25 318.59,-897.72 329.09,-899.11 327.66,-892.25"/>
</g>
<!-- Node25 -->
<g id="node24" class="node">
<title>Node25</title>
<g id="a_node24"><a xlink:href="classhops_1_1MHO__SamplerLabeler.html" target="_top" xlink:title="Class MHO_SamplerLabeler.">
<polygon fill="white" stroke="black" points="419,-798.5 419,-828.5 558,-828.5 558,-798.5 419,-798.5"/>
<text text-anchor="start" x="427" y="-816.5" font-family="FreeSans" font-size="10.00">hops::MHO_SamplerLabeler</text>
<text text-anchor="middle" x="488.5" y="-805.5" font-family="FreeSans" font-size="10.00">&lt; XArrayType &gt;</text>
</a>
</g>
</g>
<!-- Node18&#45;&gt;Node25 -->
<g id="edge23" class="edge">
<title>Node18&#45;&gt;Node25</title>
<path fill="none" stroke="midnightblue" d="M286.71,-891.4C315,-875.4 356.63,-853.32 395,-838.5 404.47,-834.84 414.67,-831.51 424.73,-828.55"/>
<polygon fill="midnightblue" stroke="midnightblue" points="284.96,-888.36 278.01,-896.36 288.43,-894.44 284.96,-888.36"/>
</g>
<!-- Node26 -->
<g id="node25" class="node">
<title>Node26</title>
<g id="a_node25"><a xlink:href="classhops_1_1MHO__SubSample.html" target="_top" xlink:title="Class MHO_SubSample.">
<polygon fill="white" stroke="black" points="428,-749.5 428,-779.5 549,-779.5 549,-749.5 428,-749.5"/>
<text text-anchor="start" x="436" y="-767.5" font-family="FreeSans" font-size="10.00">hops::MHO_SubSample</text>
<text text-anchor="middle" x="488.5" y="-756.5" font-family="FreeSans" font-size="10.00">&lt; XArrayType &gt;</text>
</a>
</g>
</g>
<!-- Node18&#45;&gt;Node26 -->
<g id="edge24" class="edge">
<title>Node18&#45;&gt;Node26</title>
<path fill="none" stroke="midnightblue" d="M272.86,-888.74C298.66,-861.27 345.73,-815.53 395,-789.5 405.15,-784.14 416.55,-779.85 427.78,-776.45"/>
<polygon fill="midnightblue" stroke="midnightblue" points="270.08,-886.59 265.86,-896.3 275.22,-891.34 270.08,-886.59"/>
</g>
<!-- Node28 -->
<g id="node27" class="node">
<title>Node28</title>
<g id="a_node27"><a xlink:href="classhops_1_1MHO__CyclicRotator.html" target="_top" xlink:title=" ">
<polygon fill="white" stroke="black" points="412.5,-700.5 412.5,-730.5 564.5,-730.5 564.5,-700.5 412.5,-700.5"/>
<text text-anchor="start" x="420.5" y="-718.5" font-family="FreeSans" font-size="10.00">hops::MHO_CyclicRotator</text>
<text text-anchor="middle" x="488.5" y="-707.5" font-family="FreeSans" font-size="10.00">&lt; hops::MHO_TableContainer &gt;</text>
</a>
</g>
</g>
<!-- Node27&#45;&gt;Node28 -->
<g id="edge26" class="edge">
<title>Node27&#45;&gt;Node28</title>
<path fill="none" stroke="midnightblue" d="M337.83,-715.5C362.24,-715.5 388.66,-715.5 412.4,-715.5"/>
<polygon fill="midnightblue" stroke="midnightblue" points="337.5,-712 327.5,-715.5 337.5,-719 337.5,-712"/>
</g>
<!-- Node29 -->
<g id="node28" class="node">
<title>Node29</title>
<g id="a_node28"><a xlink:href="classhops_1_1MHO__EndZeroPadder.html" target="_top" xlink:title=" ">
<polygon fill="white" stroke="black" points="412.5,-651.5 412.5,-681.5 564.5,-681.5 564.5,-651.5 412.5,-651.5"/>
<text text-anchor="start" x="420.5" y="-669.5" font-family="FreeSans" font-size="10.00">hops::MHO_EndZeroPadder</text>
<text text-anchor="middle" x="488.5" y="-658.5" font-family="FreeSans" font-size="10.00">&lt; hops::MHO_TableContainer &gt;</text>
</a>
</g>
</g>
<!-- Node27&#45;&gt;Node29 -->
<g id="edge27" class="edge">
<title>Node27&#45;&gt;Node29</title>
<path fill="none" stroke="midnightblue" d="M334.57,-698.39C360.94,-692.89 389.94,-686.84 415.53,-681.51"/>
<polygon fill="midnightblue" stroke="midnightblue" points="333.68,-695 324.6,-700.47 335.11,-701.85 333.68,-695"/>
</g>
<!-- Node30 -->
<g id="node29" class="node">
<title>Node30</title>
<g id="a_node29"><a xlink:href="classhops_1_1MHO__FunctorBroadcaster.html" target="_top" xlink:title=" ">
<polygon fill="white" stroke="black" points="410.5,-591 410.5,-632 566.5,-632 566.5,-591 410.5,-591"/>
<text text-anchor="start" x="418.5" y="-620" font-family="FreeSans" font-size="10.00">hops::MHO_FunctorBroadcaster</text>
<text text-anchor="start" x="418.5" y="-609" font-family="FreeSans" font-size="10.00">&lt; hops::MHO_TableContainer,</text>
<text text-anchor="middle" x="488.5" y="-598" font-family="FreeSans" font-size="10.00"> hops::MHO_NaNMasker &gt;</text>
</a>
</g>
</g>
<!-- Node27&#45;&gt;Node30 -->
<g id="edge28" class="edge">
<title>Node27&#45;&gt;Node30</title>
<path fill="none" stroke="midnightblue" d="M337.21,-702.43C344.89,-699.48 352.29,-695.89 359,-691.5 381.61,-676.7 373.17,-658.43 395,-642.5 400.34,-638.61 406.19,-635.18 412.29,-632.17"/>
<polygon fill="midnightblue" stroke="midnightblue" points="336.04,-699.13 327.74,-705.7 338.33,-705.74 336.04,-699.13"/>
</g>
<!-- Node31 -->
<g id="node30" class="node">
<title>Node31</title>
<g id="a_node30"><a xlink:href="classhops_1_1MHO__MultidimensionalFastFourierTransform.html" target="_top" xlink:title=" ">
<polygon fill="white" stroke="black" points="417,-531 417,-572 560,-572 560,-531 417,-531"/>
<text text-anchor="start" x="425" y="-560" font-family="FreeSans" font-size="10.00">hops::MHO_Multidimensional</text>
<text text-anchor="start" x="425" y="-549" font-family="FreeSans" font-size="10.00">FastFourierTransform&lt; hops</text>
<text text-anchor="middle" x="488.5" y="-538" font-family="FreeSans" font-size="10.00">::MHO_TableContainer &gt;</text>
</a>
</g>
</g>
<!-- Node27&#45;&gt;Node31 -->
<g id="edge29" class="edge">
<title>Node27&#45;&gt;Node31</title>
<path fill="none" stroke="midnightblue" d="M337.28,-705.22C345.22,-701.76 352.65,-697.27 359,-691.5 397.05,-656.89 358.58,-617.83 395,-581.5 401.22,-575.3 408.72,-570.38 416.74,-566.48"/>
<polygon fill="midnightblue" stroke="midnightblue" points="335.87,-702.02 327.76,-708.84 338.35,-708.56 335.87,-702.02"/>
</g>
<!-- Node32 -->
<g id="node31" class="node">
<title>Node32</title>
<g id="a_node31"><a xlink:href="classhops_1_1MHO__Reducer.html" target="_top" xlink:title=" ">
<polygon fill="white" stroke="black" points="414.5,-471 414.5,-512 562.5,-512 562.5,-471 414.5,-471"/>
<text text-anchor="start" x="422.5" y="-500" font-family="FreeSans" font-size="10.00">hops::MHO_Reducer&lt;</text>
<text text-anchor="start" x="422.5" y="-489" font-family="FreeSans" font-size="10.00"> hops::MHO_TableContainer,</text>
<text text-anchor="middle" x="488.5" y="-478" font-family="FreeSans" font-size="10.00"> hops::MHO_CompoundSum &gt;</text>
</a>
</g>
</g>
<!-- Node27&#45;&gt;Node32 -->
<g id="edge30" class="edge">
<title>Node27&#45;&gt;Node32</title>
<path fill="none" stroke="midnightblue" d="M337.11,-706.27C345.24,-702.63 352.76,-697.82 359,-691.5 413.26,-636.54 343.33,-578.9 395,-521.5 400.42,-515.48 407.06,-510.66 414.27,-506.8"/>
<polygon fill="midnightblue" stroke="midnightblue" points="335.77,-703.04 327.71,-709.91 338.3,-709.57 335.77,-703.04"/>
</g>
<!-- Node33 -->
<g id="node32" class="node">
<title>Node33</title>
<g id="a_node32"><a xlink:href="classhops_1_1MHO__SubSample.html" target="_top" xlink:title=" ">
<polygon fill="white" stroke="black" points="412.5,-421.5 412.5,-451.5 564.5,-451.5 564.5,-421.5 412.5,-421.5"/>
<text text-anchor="start" x="420.5" y="-439.5" font-family="FreeSans" font-size="10.00">hops::MHO_SubSample</text>
<text text-anchor="middle" x="488.5" y="-428.5" font-family="FreeSans" font-size="10.00">&lt; hops::MHO_TableContainer &gt;</text>
</a>
</g>
</g>
<!-- Node27&#45;&gt;Node33 -->
<g id="edge31" class="edge">
<title>Node27&#45;&gt;Node33</title>
<path fill="none" stroke="midnightblue" d="M337.07,-706.77C345.29,-703.05 352.84,-698.09 359,-691.5 429.69,-615.95 325.92,-538.53 395,-461.5 399.89,-456.05 405.83,-451.74 412.31,-448.33"/>
<polygon fill="midnightblue" stroke="midnightblue" points="335.62,-703.59 327.56,-710.47 338.15,-710.11 335.62,-703.59"/>
</g>
<!-- Node35 -->
<g id="node34" class="node">
<title>Node35</title>
<g id="a_node34"><a xlink:href="classhops_1_1MHO__MinWeight.html" target="_top" xlink:title="Class MHO_MinWeight.">
<polygon fill="white" stroke="black" points="430.5,-383 430.5,-402 546.5,-402 546.5,-383 430.5,-383"/>
<text text-anchor="middle" x="488.5" y="-390" font-family="FreeSans" font-size="10.00">hops::MHO_MinWeight</text>
</a>
</g>
</g>
<!-- Node34&#45;&gt;Node35 -->
<g id="edge33" class="edge">
<title>Node34&#45;&gt;Node35</title>
<path fill="none" stroke="midnightblue" d="M328.34,-661.21C339.89,-657.3 350.7,-651.37 359,-642.5 429.69,-566.95 323.98,-487.74 395,-412.5 404.25,-402.7 417.06,-397.13 430.21,-394.08"/>
<polygon fill="midnightblue" stroke="midnightblue" points="327.15,-657.91 318.5,-664.04 329.08,-664.64 327.15,-657.91"/>
</g>
<!-- Node37 -->
<g id="node36" class="node">
<title>Node37</title>
<g id="a_node36"><a xlink:href="classhops_1_1MHO__FastFourierTransform.html" target="_top" xlink:title="Class MHO_FastFourierTransform.">
<polygon fill="white" stroke="black" points="406.5,-333.5 406.5,-363.5 570.5,-363.5 570.5,-333.5 406.5,-333.5"/>
<text text-anchor="start" x="414.5" y="-351.5" font-family="FreeSans" font-size="10.00">hops::MHO_FastFourierTransform</text>
<text text-anchor="middle" x="488.5" y="-340.5" font-family="FreeSans" font-size="10.00">&lt; XFloatType &gt;</text>
</a>
</g>
</g>
<!-- Node36&#45;&gt;Node37 -->
<g id="edge35" class="edge">
<title>Node36&#45;&gt;Node37</title>
<path fill="none" stroke="midnightblue" d="M328.17,-592.98C339.84,-587.93 350.73,-581 359,-571.5 417.75,-504.05 334.47,-439.35 395,-373.5 398.49,-369.7 402.49,-366.46 406.83,-363.69"/>
<polygon fill="midnightblue" stroke="midnightblue" points="326.76,-589.78 318.69,-596.65 329.28,-596.31 326.76,-589.78"/>
</g>
<!-- Node39 -->
<g id="node38" class="node">
<title>Node39</title>
<g id="a_node38"><a xlink:href="classhops_1_1MHO__MultidimensionalFastFourierTransform.html" target="_top" xlink:title=" ">
<polygon fill="white" stroke="black" points="396,-284.5 396,-314.5 581,-314.5 581,-284.5 396,-284.5"/>
<text text-anchor="start" x="404" y="-302.5" font-family="FreeSans" font-size="10.00">hops::MHO_Multidimensional</text>
<text text-anchor="middle" x="488.5" y="-291.5" font-family="FreeSans" font-size="10.00">FastFourierTransform&lt; visibility_type &gt;</text>
</a>
</g>
</g>
<!-- Node38&#45;&gt;Node39 -->
<g id="edge37" class="edge">
<title>Node38&#45;&gt;Node39</title>
<path fill="none" stroke="midnightblue" d="M328.38,-540.97C339.87,-537.08 350.65,-531.21 359,-522.5 421.18,-457.6 333.87,-389.39 395,-323.5 398.16,-320.09 401.73,-317.15 405.6,-314.6"/>
<polygon fill="midnightblue" stroke="midnightblue" points="327.23,-537.66 318.59,-543.8 329.17,-544.38 327.23,-537.66"/>
</g>
</g>
</svg>
