<?xml version="1.0" encoding="UTF-8" standalone="no"?>
<!DOCTYPE svg PUBLIC "-//W3C//DTD SVG 1.1//EN"
 "http://www.w3.org/Graphics/SVG/1.1/DTD/svg11.dtd">
<!-- Generated by graphviz version 2.43.0 (0)
 -->
<!-- Title: hops::MHO_DelayRate Pages: 1 -->
<svg width="143pt" height="162pt"
 viewBox="0.00 0.00 143.00 162.00" xmlns="http://www.w3.org/2000/svg" xmlns:xlink="http://www.w3.org/1999/xlink">
<g id="graph0" class="graph" transform="scale(1 1) rotate(0) translate(4 158)">
<title>hops::MHO_DelayRate</title>
<polygon fill="white" stroke="transparent" points="-4,4 -4,-158 139,-158 139,4 -4,4"/>
<!-- Node1 -->
<g id="node1" class="node">
<title>Node1</title>
<g id="a_node1"><a xlink:title="Class MHO_DelayRate.">
<polygon fill="#bfbfbf" stroke="black" points="10,-0.5 10,-19.5 125,-19.5 125,-0.5 10,-0.5"/>
<text text-anchor="middle" x="67.5" y="-7.5" font-family="FreeSans" font-size="10.00">hops::MHO_DelayRate</text>
</a>
</g>
</g>
<!-- Node2 -->
<g id="node2" class="node">
<title>Node2</title>
<g id="a_node2"><a xlink:href="classhops_1_1MHO__BinaryOperator.html" target="_top" xlink:title=" ">
<polygon fill="white" stroke="black" points="0,-56.5 0,-97.5 135,-97.5 135,-56.5 0,-56.5"/>
<text text-anchor="start" x="8" y="-85.5" font-family="FreeSans" font-size="10.00">hops::MHO_BinaryOperator</text>
<text text-anchor="start" x="8" y="-74.5" font-family="FreeSans" font-size="10.00">&lt; visibility_type, weight</text>
<text text-anchor="middle" x="67.5" y="-63.5" font-family="FreeSans" font-size="10.00">_type, sbd_type &gt;</text>
</a>
</g>
</g>
<!-- Node2&#45;&gt;Node1 -->
<g id="edge1" class="edge">
<title>Node2&#45;&gt;Node1</title>
<path fill="none" stroke="midnightblue" d="M67.5,-46.26C67.5,-36.56 67.5,-26.52 67.5,-19.65"/>
<polygon fill="midnightblue" stroke="midnightblue" points="64,-46.5 67.5,-56.5 71,-46.5 64,-46.5"/>
</g>
<!-- Node3 -->
<g id="node3" class="node">
<title>Node3</title>
<g id="a_node3"><a xlink:href="classhops_1_1MHO__Operator.html" target="_top" xlink:title="Class MHO_Operator.">
<polygon fill="white" stroke="black" points="13.5,-134.5 13.5,-153.5 121.5,-153.5 121.5,-134.5 13.5,-134.5"/>
<text text-anchor="middle" x="67.5" y="-141.5" font-family="FreeSans" font-size="10.00">hops::MHO_Operator</text>
</a>
</g>
</g>
<!-- Node3&#45;&gt;Node2 -->
<g id="edge2" class="edge">
<title>Node3&#45;&gt;Node2</title>
<path fill="none" stroke="midnightblue" d="M67.5,-124.04C67.5,-115.71 67.5,-105.94 67.5,-97.54"/>
<polygon fill="midnightblue" stroke="midnightblue" points="64,-124.23 67.5,-134.23 71,-124.23 64,-124.23"/>
</g>
</g>
</svg>
