<?xml version="1.0" encoding="UTF-8" standalone="no"?>
<!DOCTYPE svg PUBLIC "-//W3C//DTD SVG 1.1//EN"
 "http://www.w3.org/Graphics/SVG/1.1/DTD/svg11.dtd">
<!-- Generated by graphviz version 2.43.0 (0)
 -->
<!-- Title: vexpy.vexpy.VexStructureBase Pages: 1 -->
<svg width="438pt" height="203pt"
 viewBox="0.00 0.00 438.00 203.00" xmlns="http://www.w3.org/2000/svg" xmlns:xlink="http://www.w3.org/1999/xlink">
<g id="graph0" class="graph" transform="scale(1 1) rotate(0) translate(4 199)">
<title>vexpy.vexpy.VexStructureBase</title>
<polygon fill="white" stroke="transparent" points="-4,4 -4,-199 434,-199 434,4 -4,4"/>
<!-- Node1 -->
<g id="node1" class="node">
<title>Node1</title>
<g id="a_node1"><a xlink:title="general records and utils">
<polygon fill="#bfbfbf" stroke="black" points="123,-93.5 123,-112.5 272,-112.5 272,-93.5 123,-93.5"/>
<text text-anchor="middle" x="197.5" y="-100.5" font-family="FreeSans" font-size="10.00">vexpy.vexpy.VexStructureBase</text>
</a>
</g>
</g>
<!-- Node3 -->
<g id="node3" class="node">
<title>Node3</title>
<g id="a_node3"><a xlink:href="classvexpy_1_1vexpy_1_1chan__struct.html" target="_top" xlink:title=" ">
<polygon fill="white" stroke="black" points="308,-175.5 308,-194.5 430,-194.5 430,-175.5 308,-175.5"/>
<text text-anchor="middle" x="369" y="-182.5" font-family="FreeSans" font-size="10.00">vexpy.vexpy.chan_struct</text>
</a>
</g>
</g>
<!-- Node1&#45;&gt;Node3 -->
<g id="edge2" class="edge">
<title>Node1&#45;&gt;Node3</title>
<path fill="none" stroke="midnightblue" d="M221.34,-118.09C242.98,-131.91 276.73,-152.25 308,-166 316.1,-169.56 325.08,-172.77 333.58,-175.5"/>
<polygon fill="midnightblue" stroke="midnightblue" points="223.15,-115.09 212.85,-112.6 219.35,-120.97 223.15,-115.09"/>
</g>
<!-- Node4 -->
<g id="node4" class="node">
<title>Node4</title>
<g id="a_node4"><a xlink:href="classvexpy_1_1vexpy_1_1scan__struct.html" target="_top" xlink:title=" ">
<polygon fill="white" stroke="black" points="308,-137.5 308,-156.5 430,-156.5 430,-137.5 308,-137.5"/>
<text text-anchor="middle" x="369" y="-144.5" font-family="FreeSans" font-size="10.00">vexpy.vexpy.scan_struct</text>
</a>
</g>
</g>
<!-- Node1&#45;&gt;Node4 -->
<g id="edge3" class="edge">
<title>Node1&#45;&gt;Node4</title>
<path fill="none" stroke="midnightblue" d="M244.97,-115.06C272.15,-122.12 305.99,-130.9 331.29,-137.47"/>
<polygon fill="midnightblue" stroke="midnightblue" points="245.84,-111.67 235.28,-112.55 244.08,-118.45 245.84,-111.67"/>
</g>
<!-- Node5 -->
<g id="node5" class="node">
<title>Node5</title>
<g id="a_node5"><a xlink:href="classvexpy_1_1vexpy_1_1source__struct.html" target="_top" xlink:title=" ">
<polygon fill="white" stroke="black" points="319,-88 319,-118 419,-118 419,-88 319,-88"/>
<text text-anchor="start" x="327" y="-106" font-family="FreeSans" font-size="10.00">vexpy.vexpy.source</text>
<text text-anchor="middle" x="369" y="-95" font-family="FreeSans" font-size="10.00">_struct</text>
</a>
</g>
</g>
<!-- Node1&#45;&gt;Node5 -->
<g id="edge4" class="edge">
<title>Node1&#45;&gt;Node5</title>
<path fill="none" stroke="midnightblue" d="M282.71,-103C295.06,-103 307.44,-103 318.77,-103"/>
<polygon fill="midnightblue" stroke="midnightblue" points="282.35,-99.5 272.35,-103 282.35,-106.5 282.35,-99.5"/>
</g>
<!-- Node6 -->
<g id="node6" class="node">
<title>Node6</title>
<g id="a_node6"><a xlink:href="classvexpy_1_1vexpy_1_1station__struct.html" target="_top" xlink:title=" ">
<polygon fill="white" stroke="black" points="319,-39 319,-69 419,-69 419,-39 319,-39"/>
<text text-anchor="start" x="327" y="-57" font-family="FreeSans" font-size="10.00">vexpy.vexpy.station</text>
<text text-anchor="middle" x="369" y="-46" font-family="FreeSans" font-size="10.00">_struct</text>
</a>
</g>
</g>
<!-- Node1&#45;&gt;Node6 -->
<g id="edge5" class="edge">
<title>Node1&#45;&gt;Node6</title>
<path fill="none" stroke="midnightblue" d="M241.32,-90.62C264.95,-83.79 294.39,-75.28 318.94,-68.18"/>
<polygon fill="midnightblue" stroke="midnightblue" points="240.22,-87.3 231.58,-93.44 242.16,-94.02 240.22,-87.3"/>
</g>
<!-- Node7 -->
<g id="node7" class="node">
<title>Node7</title>
<g id="a_node7"><a xlink:href="classvexpy_1_1vexpy_1_1vex.html" target="_top" xlink:title=" ">
<polygon fill="white" stroke="black" points="326,-0.5 326,-19.5 412,-19.5 412,-0.5 326,-0.5"/>
<text text-anchor="middle" x="369" y="-7.5" font-family="FreeSans" font-size="10.00">vexpy.vexpy.vex</text>
</a>
</g>
</g>
<!-- Node1&#45;&gt;Node7 -->
<g id="edge6" class="edge">
<title>Node1&#45;&gt;Node7</title>
<path fill="none" stroke="midnightblue" d="M218.18,-87.12C239.32,-70.71 274.41,-45.24 308,-29 315.57,-25.34 324.02,-22.16 332.13,-19.5"/>
<polygon fill="midnightblue" stroke="midnightblue" points="215.97,-84.41 210.28,-93.35 220.3,-89.91 215.97,-84.41"/>
</g>
<!-- Node2 -->
<g id="node2" class="node">
<title>Node2</title>
<g id="a_node2"><a xlink:title=" ">
<polygon fill="white" stroke="#bfbfbf" points="0,-93.5 0,-112.5 87,-112.5 87,-93.5 0,-93.5"/>
<text text-anchor="middle" x="43.5" y="-100.5" font-family="FreeSans" font-size="10.00">ctypes.Structure</text>
</a>
</g>
</g>
<!-- Node2&#45;&gt;Node1 -->
<g id="edge1" class="edge">
<title>Node2&#45;&gt;Node1</title>
<path fill="none" stroke="midnightblue" d="M97.46,-103C105.72,-103 114.38,-103 122.99,-103"/>
<polygon fill="midnightblue" stroke="midnightblue" points="97.25,-99.5 87.24,-103 97.24,-106.5 97.25,-99.5"/>
</g>
</g>
</svg>
