<?xml version="1.0" encoding="UTF-8" standalone="no"?>
<!DOCTYPE svg PUBLIC "-//W3C//DTD SVG 1.1//EN"
 "http://www.w3.org/Graphics/SVG/1.1/DTD/svg11.dtd">
<!-- Generated by graphviz version 2.43.0 (0)
 -->
<!-- Title: hops::MHO_VisibilityChannelizer Pages: 1 -->
<svg width="510pt" height="50pt"
 viewBox="0.00 0.00 510.00 50.00" xmlns="http://www.w3.org/2000/svg" xmlns:xlink="http://www.w3.org/1999/xlink">
<g id="graph0" class="graph" transform="scale(1 1) rotate(0) translate(4 46)">
<title>hops::MHO_VisibilityChannelizer</title>
<polygon fill="white" stroke="transparent" points="-4,4 -4,-46 506,-46 506,4 -4,4"/>
<!-- Node1 -->
<g id="node1" class="node">
<title>Node1</title>
<g id="a_node1"><a xlink:title="Class MHO_VisibilityChannelizer.">
<polygon fill="#bfbfbf" stroke="black" points="345,-11.5 345,-30.5 502,-30.5 502,-11.5 345,-11.5"/>
<text text-anchor="middle" x="423.5" y="-18.5" font-family="FreeSans" font-size="10.00">hops::MHO_VisibilityChannelizer</text>
</a>
</g>
</g>
<!-- Node2 -->
<g id="node2" class="node">
<title>Node2</title>
<g id="a_node2"><a xlink:href="classhops_1_1MHO__TransformingOperator.html" target="_top" xlink:title=" ">
<polygon fill="white" stroke="black" points="144,-0.5 144,-41.5 309,-41.5 309,-0.5 144,-0.5"/>
<text text-anchor="start" x="152" y="-29.5" font-family="FreeSans" font-size="10.00">hops::MHO_TransformingOperator</text>
<text text-anchor="start" x="152" y="-18.5" font-family="FreeSans" font-size="10.00">&lt; uch_visibility_store_type,</text>
<text text-anchor="middle" x="226.5" y="-7.5" font-family="FreeSans" font-size="10.00"> visibility_store_type &gt;</text>
</a>
</g>
</g>
<!-- Node2&#45;&gt;Node1 -->
<g id="edge1" class="edge">
<title>Node2&#45;&gt;Node1</title>
<path fill="none" stroke="midnightblue" d="M319.08,-21C327.64,-21 336.27,-21 344.69,-21"/>
<polygon fill="midnightblue" stroke="midnightblue" points="319.07,-17.5 309.07,-21 319.07,-24.5 319.07,-17.5"/>
</g>
<!-- Node3 -->
<g id="node3" class="node">
<title>Node3</title>
<g id="a_node3"><a xlink:href="classhops_1_1MHO__Operator.html" target="_top" xlink:title="Class MHO_Operator.">
<polygon fill="white" stroke="black" points="0,-11.5 0,-30.5 108,-30.5 108,-11.5 0,-11.5"/>
<text text-anchor="middle" x="54" y="-18.5" font-family="FreeSans" font-size="10.00">hops::MHO_Operator</text>
</a>
</g>
</g>
<!-- Node3&#45;&gt;Node2 -->
<g id="edge2" class="edge">
<title>Node3&#45;&gt;Node2</title>
<path fill="none" stroke="midnightblue" d="M118.05,-21C126.42,-21 135.09,-21 143.72,-21"/>
<polygon fill="midnightblue" stroke="midnightblue" points="118.01,-17.5 108.01,-21 118.01,-24.5 118.01,-17.5"/>
</g>
</g>
</svg>
