<?xml version="1.0" encoding="UTF-8" standalone="no"?>
<!DOCTYPE svg PUBLIC "-//W3C//DTD SVG 1.1//EN"
 "http://www.w3.org/Graphics/SVG/1.1/DTD/svg11.dtd">
<!-- Generated by graphviz version 2.43.0 (0)
 -->
<!-- Title: hops::MHO_ObjectTags Pages: 1 -->
<svg width="434pt" height="140pt"
 viewBox="0.00 0.00 434.00 140.00" xmlns="http://www.w3.org/2000/svg" xmlns:xlink="http://www.w3.org/1999/xlink">
<g id="graph0" class="graph" transform="scale(1 1) rotate(0) translate(4 136)">
<title>hops::MHO_ObjectTags</title>
<polygon fill="white" stroke="transparent" points="-4,4 -4,-136 430,-136 430,4 -4,4"/>
<!-- Node1 -->
<g id="node1" class="node">
<title>Node1</title>
<g id="a_node1"><a xlink:title="Class MHO_ObjectTags.">
<polygon fill="#bfbfbf" stroke="black" points="216.5,-0.5 216.5,-19.5 337.5,-19.5 337.5,-0.5 216.5,-0.5"/>
<text text-anchor="middle" x="277" y="-7.5" font-family="FreeSans" font-size="10.00">hops::MHO_ObjectTags</text>
</a>
</g>
</g>
<!-- Node2 -->
<g id="node2" class="node">
<title>Node2</title>
<g id="a_node2"><a xlink:href="classhops_1_1MHO__Taggable.html" target="_top" xlink:title="Class MHO_Taggable.">
<polygon fill="white" stroke="black" points="148,-56.5 148,-75.5 258,-75.5 258,-56.5 148,-56.5"/>
<text text-anchor="middle" x="203" y="-63.5" font-family="FreeSans" font-size="10.00">hops::MHO_Taggable</text>
</a>
</g>
</g>
<!-- Node2&#45;&gt;Node1 -->
<g id="edge1" class="edge">
<title>Node2&#45;&gt;Node1</title>
<path fill="none" stroke="midnightblue" d="M223.03,-50.38C236.41,-40.62 253.56,-28.11 264.89,-19.83"/>
<polygon fill="midnightblue" stroke="midnightblue" points="220.9,-47.6 214.89,-56.32 225.03,-53.26 220.9,-47.6"/>
</g>
<!-- Node3 -->
<g id="node3" class="node">
<title>Node3</title>
<g id="a_node3"><a xlink:href="classhops_1_1MHO__JSONWrapper.html" target="_top" xlink:title=" ">
<polygon fill="white" stroke="black" points="0,-112.5 0,-131.5 134,-131.5 134,-112.5 0,-112.5"/>
<text text-anchor="middle" x="67" y="-119.5" font-family="FreeSans" font-size="10.00">hops::MHO_JSONWrapper</text>
</a>
</g>
</g>
<!-- Node3&#45;&gt;Node2 -->
<g id="edge2" class="edge">
<title>Node3&#45;&gt;Node2</title>
<path fill="none" stroke="midnightblue" d="M98.13,-108.64C123.66,-98.5 159.11,-84.43 181.55,-75.52"/>
<polygon fill="midnightblue" stroke="midnightblue" points="96.55,-105.5 88.55,-112.44 99.14,-112.01 96.55,-105.5"/>
</g>
<!-- Node4 -->
<g id="node4" class="node">
<title>Node4</title>
<g id="a_node4"><a xlink:href="classhops_1_1MHO__Serializable.html" target="_top" xlink:title="Class MHO_Serializable.">
<polygon fill="white" stroke="black" points="152,-112.5 152,-131.5 272,-131.5 272,-112.5 152,-112.5"/>
<text text-anchor="middle" x="212" y="-119.5" font-family="FreeSans" font-size="10.00">hops::MHO_Serializable</text>
</a>
</g>
</g>
<!-- Node4&#45;&gt;Node2 -->
<g id="edge3" class="edge">
<title>Node4&#45;&gt;Node2</title>
<path fill="none" stroke="midnightblue" d="M208.85,-102.1C207.36,-93.14 205.64,-82.86 204.46,-75.75"/>
<polygon fill="midnightblue" stroke="midnightblue" points="205.42,-102.79 210.51,-112.08 212.32,-101.64 205.42,-102.79"/>
</g>
<!-- Node5 -->
<g id="node5" class="node">
<title>Node5</title>
<g id="a_node5"><a xlink:href="classhops_1_1MHO__ExtensibleElement.html" target="_top" xlink:title="Class MHO_ExtensibleElement.">
<polygon fill="white" stroke="black" points="276,-56.5 276,-75.5 426,-75.5 426,-56.5 276,-56.5"/>
<text text-anchor="middle" x="351" y="-63.5" font-family="FreeSans" font-size="10.00">hops::MHO_ExtensibleElement</text>
</a>
</g>
</g>
<!-- Node5&#45;&gt;Node1 -->
<g id="edge4" class="edge">
<title>Node5&#45;&gt;Node1</title>
<path fill="none" stroke="midnightblue" d="M330.97,-50.38C317.59,-40.62 300.44,-28.11 289.11,-19.83"/>
<polygon fill="midnightblue" stroke="midnightblue" points="328.97,-53.26 339.11,-56.32 333.1,-47.6 328.97,-53.26"/>
</g>
<!-- Node6 -->
<g id="node6" class="node">
<title>Node6</title>
<g id="a_node6"><a xlink:href="classhops_1_1MHO__Element.html" target="_top" xlink:title="Class MHO_Element.">
<polygon fill="white" stroke="black" points="298,-112.5 298,-131.5 404,-131.5 404,-112.5 298,-112.5"/>
<text text-anchor="middle" x="351" y="-119.5" font-family="FreeSans" font-size="10.00">hops::MHO_Element</text>
</a>
</g>
</g>
<!-- Node6&#45;&gt;Node5 -->
<g id="edge5" class="edge">
<title>Node6&#45;&gt;Node5</title>
<path fill="none" stroke="midnightblue" d="M351,-101.8C351,-92.91 351,-82.78 351,-75.75"/>
<polygon fill="midnightblue" stroke="midnightblue" points="347.5,-102.08 351,-112.08 354.5,-102.08 347.5,-102.08"/>
</g>
</g>
</svg>
