<?xml version="1.0" encoding="UTF-8" standalone="no"?>
<!DOCTYPE svg PUBLIC "-//W3C//DTD SVG 1.1//EN"
 "http://www.w3.org/Graphics/SVG/1.1/DTD/svg11.dtd">
<!-- Generated by graphviz version 2.43.0 (0)
 -->
<!-- Title: hops::MHO_JSONConverter Pages: 1 -->
<svg width="365pt" height="88pt"
 viewBox="0.00 0.00 365.00 88.00" xmlns="http://www.w3.org/2000/svg" xmlns:xlink="http://www.w3.org/1999/xlink">
<g id="graph0" class="graph" transform="scale(1 1) rotate(0) translate(4 84)">
<title>hops::MHO_JSONConverter</title>
<polygon fill="white" stroke="transparent" points="-4,4 -4,-84 361,-84 361,4 -4,4"/>
<!-- Node1 -->
<g id="node1" class="node">
<title>Node1</title>
<g id="a_node1"><a xlink:title="Class MHO_JSONConverter.">
<polygon fill="#bfbfbf" stroke="black" points="0,-30 0,-49 140,-49 140,-30 0,-30"/>
<text text-anchor="middle" x="70" y="-37" font-family="FreeSans" font-size="10.00">hops::MHO_JSONConverter</text>
</a>
</g>
</g>
<!-- Node2 -->
<g id="node2" class="node">
<title>Node2</title>
<g id="a_node2"><a xlink:href="classhops_1_1MHO__ContainerJSONConverter.html" target="_top" xlink:title="Class MHO_ContainerJSONConverter.">
<polygon fill="white" stroke="black" points="176,-49.5 176,-79.5 357,-79.5 357,-49.5 176,-49.5"/>
<text text-anchor="start" x="184" y="-67.5" font-family="FreeSans" font-size="10.00">hops::MHO_ContainerJSONConverter</text>
<text text-anchor="middle" x="266.5" y="-56.5" font-family="FreeSans" font-size="10.00">&lt; XContainerType &gt;</text>
</a>
</g>
</g>
<!-- Node1&#45;&gt;Node2 -->
<g id="edge1" class="edge">
<title>Node1&#45;&gt;Node2</title>
<path fill="none" stroke="midnightblue" d="M150.29,-49.69C158.71,-50.77 167.32,-51.88 175.85,-52.98"/>
<polygon fill="midnightblue" stroke="midnightblue" points="150.49,-46.19 140.12,-48.38 149.59,-53.13 150.49,-46.19"/>
</g>
<!-- Node3 -->
<g id="node3" class="node">
<title>Node3</title>
<g id="a_node3"><a xlink:href="classhops_1_1MHO__ContainerJSONConverter_3_01MHO__ObjectTags_01_4.html" target="_top" xlink:title="Class MHO_ContainerJSONConverter&lt;MHO_ObjectTags&gt;">
<polygon fill="white" stroke="black" points="176,-0.5 176,-30.5 357,-30.5 357,-0.5 176,-0.5"/>
<text text-anchor="start" x="184" y="-18.5" font-family="FreeSans" font-size="10.00">hops::MHO_ContainerJSONConverter</text>
<text text-anchor="middle" x="266.5" y="-7.5" font-family="FreeSans" font-size="10.00">&lt; MHO_ObjectTags &gt;</text>
</a>
</g>
</g>
<!-- Node1&#45;&gt;Node3 -->
<g id="edge2" class="edge">
<title>Node1&#45;&gt;Node3</title>
<path fill="none" stroke="midnightblue" d="M150.29,-29.72C158.71,-28.68 167.32,-27.61 175.85,-26.56"/>
<polygon fill="midnightblue" stroke="midnightblue" points="149.62,-26.27 140.12,-30.97 150.47,-33.22 149.62,-26.27"/>
</g>
</g>
</svg>
