<?xml version="1.0" encoding="UTF-8" standalone="no"?>
<!DOCTYPE svg PUBLIC "-//W3C//DTD SVG 1.1//EN"
 "http://www.w3.org/Graphics/SVG/1.1/DTD/svg11.dtd">
<!-- Generated by graphviz version 2.43.0 (0)
 -->
<!-- Title: hops::MHO_Serializable Pages: 1 -->
<svg width="666pt" height="718pt"
 viewBox="0.00 0.00 666.00 718.00" xmlns="http://www.w3.org/2000/svg" xmlns:xlink="http://www.w3.org/1999/xlink">
<g id="graph0" class="graph" transform="scale(1 1) rotate(0) translate(4 714)">
<title>hops::MHO_Serializable</title>
<polygon fill="white" stroke="transparent" points="-4,4 -4,-714 662,-714 662,4 -4,4"/>
<!-- Node1 -->
<g id="node1" class="node">
<title>Node1</title>
<g id="a_node1"><a xlink:title="Class MHO_Serializable.">
<polygon fill="#bfbfbf" stroke="black" points="0,-383.5 0,-402.5 120,-402.5 120,-383.5 0,-383.5"/>
<text text-anchor="middle" x="60" y="-390.5" font-family="FreeSans" font-size="10.00">hops::MHO_Serializable</text>
</a>
</g>
</g>
<!-- Node2 -->
<g id="node2" class="node">
<title>Node2</title>
<g id="a_node2"><a xlink:href="classhops_1_1MHO__AxisPack.html" target="_top" xlink:title="Class MHO_AxisPack.">
<polygon fill="white" stroke="black" points="156,-411 156,-441 268,-441 268,-411 156,-411"/>
<text text-anchor="start" x="164" y="-429" font-family="FreeSans" font-size="10.00">hops::MHO_AxisPack</text>
<text text-anchor="middle" x="212" y="-418" font-family="FreeSans" font-size="10.00">&lt; XAxisTypeS &gt;</text>
</a>
</g>
</g>
<!-- Node1&#45;&gt;Node2 -->
<g id="edge1" class="edge">
<title>Node1&#45;&gt;Node2</title>
<path fill="none" stroke="midnightblue" d="M114.46,-404.76C127.92,-407.72 142.4,-410.91 155.95,-413.89"/>
<polygon fill="midnightblue" stroke="midnightblue" points="114.9,-401.28 104.39,-402.54 113.4,-408.11 114.9,-401.28"/>
</g>
<!-- Node12 -->
<g id="node12" class="node">
<title>Node12</title>
<g id="a_node12"><a xlink:href="classhops_1_1MHO__Taggable.html" target="_top" xlink:title="Class MHO_Taggable.">
<polygon fill="white" stroke="black" points="157,-361.5 157,-380.5 267,-380.5 267,-361.5 157,-361.5"/>
<text text-anchor="middle" x="212" y="-368.5" font-family="FreeSans" font-size="10.00">hops::MHO_Taggable</text>
</a>
</g>
</g>
<!-- Node1&#45;&gt;Node12 -->
<g id="edge11" class="edge">
<title>Node1&#45;&gt;Node12</title>
<path fill="none" stroke="midnightblue" d="M130.19,-382.85C139.03,-381.56 147.98,-380.24 156.54,-378.99"/>
<polygon fill="midnightblue" stroke="midnightblue" points="129.67,-379.39 120.28,-384.31 130.69,-386.32 129.67,-379.39"/>
</g>
<!-- Node3 -->
<g id="node3" class="node">
<title>Node3</title>
<g id="a_node3"><a xlink:href="classhops_1_1MHO__TableContainer.html" target="_top" xlink:title=" ">
<polygon fill="white" stroke="black" points="316,-668.5 316,-709.5 452,-709.5 452,-668.5 316,-668.5"/>
<text text-anchor="start" x="324" y="-697.5" font-family="FreeSans" font-size="10.00">hops::MHO_TableContainer</text>
<text text-anchor="start" x="324" y="-686.5" font-family="FreeSans" font-size="10.00">&lt; double, MHO_AxisPack</text>
<text text-anchor="middle" x="384" y="-675.5" font-family="FreeSans" font-size="10.00">&lt; MHO_Axis&lt; double &gt; &gt; &gt;</text>
</a>
</g>
</g>
<!-- Node2&#45;&gt;Node3 -->
<g id="edge2" class="edge">
<title>Node2&#45;&gt;Node3</title>
<path fill="none" stroke="midnightblue" d="M216.06,-451.03C223.08,-498.06 244.61,-600.17 304,-659 307.54,-662.51 311.54,-665.62 315.81,-668.37"/>
<polygon fill="midnightblue" stroke="midnightblue" points="219.52,-450.51 214.67,-441.09 212.59,-451.48 219.52,-450.51"/>
</g>
<!-- Node4 -->
<g id="node4" class="node">
<title>Node4</title>
<g id="a_node4"><a xlink:href="classhops_1_1MHO__TableContainer.html" target="_top" xlink:title=" ">
<polygon fill="white" stroke="black" points="316,-608.5 316,-649.5 452,-649.5 452,-608.5 316,-608.5"/>
<text text-anchor="start" x="324" y="-637.5" font-family="FreeSans" font-size="10.00">hops::MHO_TableContainer</text>
<text text-anchor="start" x="324" y="-626.5" font-family="FreeSans" font-size="10.00">&lt; visibility_element_type,</text>
<text text-anchor="middle" x="384" y="-615.5" font-family="FreeSans" font-size="10.00"> mbd_dr_axis_pack &gt;</text>
</a>
</g>
</g>
<!-- Node2&#45;&gt;Node4 -->
<g id="edge3" class="edge">
<title>Node2&#45;&gt;Node4</title>
<path fill="none" stroke="midnightblue" d="M219.9,-451.01C231.4,-488.21 257.87,-558.15 304,-599 307.95,-602.5 312.36,-605.61 317.01,-608.37"/>
<polygon fill="midnightblue" stroke="midnightblue" points="223.14,-449.59 216.93,-441 216.43,-451.58 223.14,-449.59"/>
</g>
<!-- Node5 -->
<g id="node5" class="node">
<title>Node5</title>
<g id="a_node5"><a xlink:href="classhops_1_1MHO__TableContainer.html" target="_top" xlink:title=" ">
<polygon fill="white" stroke="black" points="316,-559 316,-589 452,-589 452,-559 316,-559"/>
<text text-anchor="start" x="324" y="-577" font-family="FreeSans" font-size="10.00">hops::MHO_TableContainer</text>
<text text-anchor="middle" x="384" y="-566" font-family="FreeSans" font-size="10.00">&lt; double, mbd_axis_pack &gt;</text>
</a>
</g>
</g>
<!-- Node2&#45;&gt;Node5 -->
<g id="edge4" class="edge">
<title>Node2&#45;&gt;Node5</title>
<path fill="none" stroke="midnightblue" d="M224.95,-450.33C239.79,-478.11 267.65,-523.04 304,-549 309.39,-552.85 315.39,-556.12 321.61,-558.9"/>
<polygon fill="midnightblue" stroke="midnightblue" points="227.96,-448.54 220.25,-441.28 221.75,-451.77 227.96,-448.54"/>
</g>
<!-- Node6 -->
<g id="node6" class="node">
<title>Node6</title>
<g id="a_node6"><a xlink:href="classhops_1_1MHO__TableContainer.html" target="_top" xlink:title=" ">
<polygon fill="white" stroke="black" points="311,-498.5 311,-539.5 457,-539.5 457,-498.5 311,-498.5"/>
<text text-anchor="start" x="319" y="-527.5" font-family="FreeSans" font-size="10.00">hops::MHO_TableContainer</text>
<text text-anchor="start" x="319" y="-516.5" font-family="FreeSans" font-size="10.00">&lt; pcal_phasor_type, multitone</text>
<text text-anchor="middle" x="384" y="-505.5" font-family="FreeSans" font-size="10.00">_pcal_axis_type &gt;</text>
</a>
</g>
</g>
<!-- Node2&#45;&gt;Node6 -->
<g id="edge5" class="edge">
<title>Node2&#45;&gt;Node6</title>
<path fill="none" stroke="midnightblue" d="M240.09,-447.36C257.63,-460.51 281.35,-477.08 304,-489 310.36,-492.35 317.18,-495.51 324.05,-498.44"/>
<polygon fill="midnightblue" stroke="midnightblue" points="242.09,-444.48 232.01,-441.21 237.85,-450.05 242.09,-444.48"/>
</g>
<!-- Node7 -->
<g id="node7" class="node">
<title>Node7</title>
<g id="a_node7"><a xlink:href="classhops_1_1MHO__TableContainer.html" target="_top" xlink:title=" ">
<polygon fill="white" stroke="black" points="316,-438.5 316,-479.5 452,-479.5 452,-438.5 316,-438.5"/>
<text text-anchor="start" x="324" y="-467.5" font-family="FreeSans" font-size="10.00">hops::MHO_TableContainer</text>
<text text-anchor="start" x="324" y="-456.5" font-family="FreeSans" font-size="10.00">&lt; visibility_element_type,</text>
<text text-anchor="middle" x="384" y="-445.5" font-family="FreeSans" font-size="10.00"> mbd_axis_pack &gt;</text>
</a>
</g>
</g>
<!-- Node2&#45;&gt;Node7 -->
<g id="edge6" class="edge">
<title>Node2&#45;&gt;Node7</title>
<path fill="none" stroke="midnightblue" d="M278.37,-438.69C290.67,-441.08 303.56,-443.58 315.91,-445.98"/>
<polygon fill="midnightblue" stroke="midnightblue" points="278.68,-435.18 268.19,-436.71 277.34,-442.06 278.68,-435.18"/>
</g>
<!-- Node8 -->
<g id="node8" class="node">
<title>Node8</title>
<g id="a_node8"><a xlink:href="classhops_1_1MHO__TableContainer.html" target="_top" xlink:title=" ">
<polygon fill="white" stroke="black" points="316,-378.5 316,-419.5 452,-419.5 452,-378.5 316,-378.5"/>
<text text-anchor="start" x="324" y="-407.5" font-family="FreeSans" font-size="10.00">hops::MHO_TableContainer</text>
<text text-anchor="start" x="324" y="-396.5" font-family="FreeSans" font-size="10.00">&lt; weight_element_type,</text>
<text text-anchor="middle" x="384" y="-385.5" font-family="FreeSans" font-size="10.00"> baseline_axis_pack &gt;</text>
</a>
</g>
</g>
<!-- Node2&#45;&gt;Node8 -->
<g id="edge7" class="edge">
<title>Node2&#45;&gt;Node8</title>
<path fill="none" stroke="midnightblue" d="M278.37,-415.62C290.67,-413.66 303.56,-411.62 315.91,-409.66"/>
<polygon fill="midnightblue" stroke="midnightblue" points="277.52,-412.21 268.19,-417.23 278.62,-419.12 277.52,-412.21"/>
</g>
<!-- Node9 -->
<g id="node9" class="node">
<title>Node9</title>
<g id="a_node9"><a xlink:href="classhops_1_1MHO__TableContainer.html" target="_top" xlink:title=" ">
<polygon fill="white" stroke="black" points="306.5,-307 306.5,-359 461.5,-359 461.5,-307 306.5,-307"/>
<text text-anchor="start" x="314.5" y="-347" font-family="FreeSans" font-size="10.00">hops::MHO_TableContainer</text>
<text text-anchor="start" x="314.5" y="-336" font-family="FreeSans" font-size="10.00">&lt; std::complex&lt; double</text>
<text text-anchor="start" x="314.5" y="-325" font-family="FreeSans" font-size="10.00"> &gt;, MHO_AxisPack&lt; MHO_Axis</text>
<text text-anchor="middle" x="384" y="-314" font-family="FreeSans" font-size="10.00">&lt; double &gt; &gt; &gt;</text>
</a>
</g>
</g>
<!-- Node2&#45;&gt;Node9 -->
<g id="edge8" class="edge">
<title>Node2&#45;&gt;Node9</title>
<path fill="none" stroke="midnightblue" d="M244.76,-405.49C266.14,-391.8 292.46,-375.21 304,-369 310.24,-365.64 316.85,-362.31 323.48,-359.09"/>
<polygon fill="midnightblue" stroke="midnightblue" points="242.78,-402.6 236.25,-410.95 246.56,-408.49 242.78,-402.6"/>
</g>
<!-- Node10 -->
<g id="node10" class="node">
<title>Node10</title>
<g id="a_node10"><a xlink:href="classhops_1_1MHO__TableContainer.html" target="_top" xlink:title=" ">
<polygon fill="white" stroke="black" points="316,-246.5 316,-287.5 452,-287.5 452,-246.5 316,-246.5"/>
<text text-anchor="start" x="324" y="-275.5" font-family="FreeSans" font-size="10.00">hops::MHO_TableContainer</text>
<text text-anchor="start" x="324" y="-264.5" font-family="FreeSans" font-size="10.00">&lt; std::complex&lt; double</text>
<text text-anchor="middle" x="384" y="-253.5" font-family="FreeSans" font-size="10.00"> &gt;, pcal_axis_pack &gt;</text>
</a>
</g>
</g>
<!-- Node2&#45;&gt;Node10 -->
<g id="edge9" class="edge">
<title>Node2&#45;&gt;Node10</title>
<path fill="none" stroke="midnightblue" d="M251.65,-405.18C257.67,-400.74 263.4,-395.66 268,-390 295.68,-355.92 272.97,-329.06 304,-298 307.96,-294.04 312.48,-290.57 317.31,-287.54"/>
<polygon fill="midnightblue" stroke="midnightblue" points="249.66,-402.3 243.36,-410.82 253.6,-408.09 249.66,-402.3"/>
</g>
<!-- Node11 -->
<g id="node11" class="node">
<title>Node11</title>
<g id="a_node11"><a xlink:href="classhops_1_1MHO__TableContainer.html" target="_top" xlink:title=" ">
<polygon fill="white" stroke="black" points="316,-186.5 316,-227.5 452,-227.5 452,-186.5 316,-186.5"/>
<text text-anchor="start" x="324" y="-215.5" font-family="FreeSans" font-size="10.00">hops::MHO_TableContainer</text>
<text text-anchor="start" x="324" y="-204.5" font-family="FreeSans" font-size="10.00">&lt; visibility_element_type,</text>
<text text-anchor="middle" x="384" y="-193.5" font-family="FreeSans" font-size="10.00"> baseline_axis_pack &gt;</text>
</a>
</g>
</g>
<!-- Node2&#45;&gt;Node11 -->
<g id="edge10" class="edge">
<title>Node2&#45;&gt;Node11</title>
<path fill="none" stroke="midnightblue" d="M253.31,-404.97C258.88,-400.64 264.04,-395.65 268,-390 308.09,-332.79 257.96,-289.54 304,-237 307.48,-233.03 311.54,-229.58 315.96,-226.59"/>
<polygon fill="midnightblue" stroke="midnightblue" points="251.13,-402.22 244.95,-410.83 255.15,-407.96 251.13,-402.22"/>
</g>
<!-- Node12&#45;&gt;Node3 -->
<g id="edge12" class="edge">
<title>Node12&#45;&gt;Node3</title>
<path fill="none" stroke="midnightblue" d="M249.79,-385.47C256.81,-389.8 263.4,-395.25 268,-402 332.97,-497.3 232.06,-568.85 304,-659 307.39,-663.24 311.44,-666.89 315.91,-670.01"/>
<polygon fill="midnightblue" stroke="midnightblue" points="251.24,-382.27 240.78,-380.57 247.89,-388.42 251.24,-382.27"/>
</g>
<!-- Node12&#45;&gt;Node4 -->
<g id="edge13" class="edge">
<title>Node12&#45;&gt;Node4</title>
<path fill="none" stroke="midnightblue" d="M249.38,-385.5C256.49,-389.84 263.21,-395.28 268,-402 319.65,-474.48 247.05,-530.6 304,-599 307.38,-603.06 311.37,-606.57 315.73,-609.61"/>
<polygon fill="midnightblue" stroke="midnightblue" points="250.75,-382.26 240.29,-380.57 247.42,-388.41 250.75,-382.26"/>
</g>
<!-- Node12&#45;&gt;Node5 -->
<g id="edge14" class="edge">
<title>Node12&#45;&gt;Node5</title>
<path fill="none" stroke="midnightblue" d="M248.69,-385.47C255.96,-389.84 262.92,-395.31 268,-402 308.65,-455.59 258.04,-499.89 304,-549 307.64,-552.89 311.87,-556.17 316.46,-558.95"/>
<polygon fill="midnightblue" stroke="midnightblue" points="249.9,-382.15 239.44,-380.51 246.59,-388.32 249.9,-382.15"/>
</g>
<!-- Node12&#45;&gt;Node6 -->
<g id="edge15" class="edge">
<title>Node12&#45;&gt;Node6</title>
<path fill="none" stroke="midnightblue" d="M246.65,-385.3C254.4,-389.78 262.1,-395.34 268,-402 295.75,-433.32 273.98,-459.85 304,-489 307.58,-492.47 311.6,-495.56 315.88,-498.29"/>
<polygon fill="midnightblue" stroke="midnightblue" points="248.1,-382.11 237.62,-380.53 244.83,-388.3 248.1,-382.11"/>
</g>
<!-- Node12&#45;&gt;Node7 -->
<g id="edge16" class="edge">
<title>Node12&#45;&gt;Node7</title>
<path fill="none" stroke="midnightblue" d="M240.34,-385.49C249.31,-390.48 259.21,-396.26 268,-402 284.75,-412.93 286.48,-419.36 304,-429 310.17,-432.4 316.8,-435.57 323.51,-438.49"/>
<polygon fill="midnightblue" stroke="midnightblue" points="241.89,-382.35 231.44,-380.61 238.53,-388.48 241.89,-382.35"/>
</g>
<!-- Node12&#45;&gt;Node8 -->
<g id="edge17" class="edge">
<title>Node12&#45;&gt;Node8</title>
<path fill="none" stroke="midnightblue" d="M277.22,-381.58C289.85,-383.66 303.12,-385.84 315.84,-387.94"/>
<polygon fill="midnightblue" stroke="midnightblue" points="277.69,-378.11 267.26,-379.94 276.55,-385.02 277.69,-378.11"/>
</g>
<!-- Node12&#45;&gt;Node9 -->
<g id="edge18" class="edge">
<title>Node12&#45;&gt;Node9</title>
<path fill="none" stroke="midnightblue" d="M265.91,-359.17C278.73,-356.31 292.69,-353.19 306.36,-350.13"/>
<polygon fill="midnightblue" stroke="midnightblue" points="264.89,-355.81 255.9,-361.41 266.42,-362.65 264.89,-355.81"/>
</g>
<!-- Node12&#45;&gt;Node10 -->
<g id="edge19" class="edge">
<title>Node12&#45;&gt;Node10</title>
<path fill="none" stroke="midnightblue" d="M230.58,-354.19C248.09,-338.13 276.29,-314.05 304,-298 310.5,-294.23 317.55,-290.74 324.67,-287.55"/>
<polygon fill="midnightblue" stroke="midnightblue" points="227.82,-351.98 222.89,-361.36 232.59,-357.1 227.82,-351.98"/>
</g>
<!-- Node12&#45;&gt;Node11 -->
<g id="edge20" class="edge">
<title>Node12&#45;&gt;Node11</title>
<path fill="none" stroke="midnightblue" d="M221.22,-352.11C234.6,-323.41 263.71,-268.83 304,-237 308.37,-233.54 313.19,-230.45 318.22,-227.7"/>
<polygon fill="midnightblue" stroke="midnightblue" points="217.94,-350.87 217.01,-361.42 224.32,-353.75 217.94,-350.87"/>
</g>
<!-- Node13 -->
<g id="node13" class="node">
<title>Node13</title>
<g id="a_node13"><a xlink:href="classhops_1_1MHO__ObjectTags.html" target="_top" xlink:title="Class MHO_ObjectTags.">
<polygon fill="white" stroke="black" points="323.5,-0.5 323.5,-19.5 444.5,-19.5 444.5,-0.5 323.5,-0.5"/>
<text text-anchor="middle" x="384" y="-7.5" font-family="FreeSans" font-size="10.00">hops::MHO_ObjectTags</text>
</a>
</g>
</g>
<!-- Node12&#45;&gt;Node13 -->
<g id="edge21" class="edge">
<title>Node12&#45;&gt;Node13</title>
<path fill="none" stroke="midnightblue" d="M215.61,-351.12C224.65,-285.17 256.72,-75.16 304,-29 309.45,-23.68 316.12,-19.76 323.24,-16.88"/>
<polygon fill="midnightblue" stroke="midnightblue" points="212.09,-351 214.23,-361.38 219.03,-351.93 212.09,-351"/>
</g>
<!-- Node14 -->
<g id="node14" class="node">
<title>Node14</title>
<g id="a_node14"><a xlink:href="classhops_1_1MHO__ScalarContainer.html" target="_top" xlink:title="MHO_ScalarContainer, and wrapper class for storage of a scalar object.">
<polygon fill="white" stroke="black" points="314,-137 314,-167 454,-167 454,-137 314,-137"/>
<text text-anchor="start" x="322" y="-155" font-family="FreeSans" font-size="10.00">hops::MHO_ScalarContainer</text>
<text text-anchor="middle" x="384" y="-144" font-family="FreeSans" font-size="10.00">&lt; XValueType &gt;</text>
</a>
</g>
</g>
<!-- Node12&#45;&gt;Node14 -->
<g id="edge22" class="edge">
<title>Node12&#45;&gt;Node14</title>
<path fill="none" stroke="midnightblue" d="M216.72,-351.46C225.15,-312.51 249.38,-224.85 304,-177 308.44,-173.11 313.48,-169.83 318.82,-167.06"/>
<polygon fill="midnightblue" stroke="midnightblue" points="213.28,-350.79 214.71,-361.28 220.14,-352.19 213.28,-350.79"/>
</g>
<!-- Node15 -->
<g id="node15" class="node">
<title>Node15</title>
<g id="a_node15"><a xlink:href="classhops_1_1MHO__TableContainer.html" target="_top" xlink:title="Class MHO_TableContainer.">
<polygon fill="white" stroke="black" points="304,-88 304,-118 464,-118 464,-88 304,-88"/>
<text text-anchor="start" x="312" y="-106" font-family="FreeSans" font-size="10.00">hops::MHO_TableContainer</text>
<text text-anchor="middle" x="384" y="-95" font-family="FreeSans" font-size="10.00">&lt; XValueType, XAxisPackType &gt;</text>
</a>
</g>
</g>
<!-- Node12&#45;&gt;Node15 -->
<g id="edge23" class="edge">
<title>Node12&#45;&gt;Node15</title>
<path fill="none" stroke="midnightblue" d="M214.64,-351.41C219.52,-305.61 238.04,-190.62 304,-128 308.07,-124.14 312.73,-120.87 317.71,-118.11"/>
<polygon fill="midnightblue" stroke="midnightblue" points="211.14,-351.21 213.67,-361.5 218.11,-351.88 211.14,-351.21"/>
</g>
<!-- Node16 -->
<g id="node16" class="node">
<title>Node16</title>
<g id="a_node16"><a xlink:href="classhops_1_1MHO__VectorContainer.html" target="_top" xlink:title="MHO_VectorContainer &#45; basis for for axis data objects in HOPS4, it is an 1&#45;dimensional array object,...">
<polygon fill="white" stroke="black" points="314,-39 314,-69 454,-69 454,-39 314,-39"/>
<text text-anchor="start" x="322" y="-57" font-family="FreeSans" font-size="10.00">hops::MHO_VectorContainer</text>
<text text-anchor="middle" x="384" y="-46" font-family="FreeSans" font-size="10.00">&lt; XValueType &gt;</text>
</a>
</g>
</g>
<!-- Node12&#45;&gt;Node16 -->
<g id="edge24" class="edge">
<title>Node12&#45;&gt;Node16</title>
<path fill="none" stroke="midnightblue" d="M213.22,-351.1C214.88,-298.89 226.68,-156.66 304,-79 307.86,-75.13 312.31,-71.85 317.1,-69.08"/>
<polygon fill="midnightblue" stroke="midnightblue" points="209.71,-351.26 212.99,-361.34 216.71,-351.42 209.71,-351.26"/>
</g>
<!-- Node17 -->
<g id="node17" class="node">
<title>Node17</title>
<g id="a_node17"><a xlink:href="classhops_1_1MHO__Axis.html" target="_top" xlink:title=" ">
<polygon fill="white" stroke="black" points="512,-63.5 512,-82.5 646,-82.5 646,-63.5 512,-63.5"/>
<text text-anchor="middle" x="579" y="-70.5" font-family="FreeSans" font-size="10.00">hops::MHO_Axis&lt; double &gt;</text>
</a>
</g>
</g>
<!-- Node16&#45;&gt;Node17 -->
<g id="edge25" class="edge">
<title>Node16&#45;&gt;Node17</title>
<path fill="none" stroke="midnightblue" d="M464.41,-61.82C480.21,-63.37 496.64,-64.99 511.93,-66.5"/>
<polygon fill="midnightblue" stroke="midnightblue" points="464.43,-58.3 454.13,-60.81 463.74,-65.27 464.43,-58.3"/>
</g>
<!-- Node18 -->
<g id="node18" class="node">
<title>Node18</title>
<g id="a_node18"><a xlink:href="classhops_1_1MHO__Axis.html" target="_top" xlink:title="Class MHO_Axis.">
<polygon fill="white" stroke="black" points="500,-25.5 500,-44.5 658,-44.5 658,-25.5 500,-25.5"/>
<text text-anchor="middle" x="579" y="-32.5" font-family="FreeSans" font-size="10.00">hops::MHO_Axis&lt; XValueType &gt;</text>
</a>
</g>
</g>
<!-- Node16&#45;&gt;Node18 -->
<g id="edge26" class="edge">
<title>Node16&#45;&gt;Node18</title>
<path fill="none" stroke="midnightblue" d="M464.33,-46.19C476.06,-45.04 488.14,-43.85 499.84,-42.69"/>
<polygon fill="midnightblue" stroke="midnightblue" points="463.74,-42.73 454.13,-47.19 464.43,-49.7 463.74,-42.73"/>
</g>
</g>
</svg>
