<?xml version="1.0" encoding="UTF-8" standalone="no"?>
<!DOCTYPE svg PUBLIC "-//W3C//DTD SVG 1.1//EN"
 "http://www.w3.org/Graphics/SVG/1.1/DTD/svg11.dtd">
<!-- Generated by graphviz version 2.43.0 (0)
 -->
<!-- Title: hops::MHO_OpenCLFastFourierTransformRadix2Stage&lt; XArgType &gt; Pages: 1 -->
<svg width="530pt" height="100pt"
 viewBox="0.00 0.00 530.00 99.50" xmlns="http://www.w3.org/2000/svg" xmlns:xlink="http://www.w3.org/1999/xlink">
<g id="graph0" class="graph" transform="scale(1 1) rotate(0) translate(4 95.5)">
<title>hops::MHO_OpenCLFastFourierTransformRadix2Stage&lt; XArgType &gt;</title>
<polygon fill="white" stroke="transparent" points="-4,4 -4,-95.5 526,-95.5 526,4 -4,4"/>
<!-- Node1 -->
<g id="node1" class="node">
<title>Node1</title>
<g id="a_node1"><a xlink:title=" ">
<polygon fill="#bfbfbf" stroke="black" points="347,-33 347,-63 522,-63 522,-33 347,-33"/>
<text text-anchor="start" x="355" y="-51" font-family="FreeSans" font-size="10.00">hops::MHO_OpenCLFastFourier</text>
<text text-anchor="middle" x="434.5" y="-40" font-family="FreeSans" font-size="10.00">TransformRadix2Stage&lt; XArgType &gt;</text>
</a>
</g>
</g>
<!-- Node2 -->
<g id="node2" class="node">
<title>Node2</title>
<g id="a_node2"><a xlink:href="classhops_1_1MHO__UnaryInPlaceOperator.html" target="_top" xlink:title="Class MHO_UnaryInPlaceOperator.">
<polygon fill="white" stroke="black" points="144,-61 144,-91 311,-91 311,-61 144,-61"/>
<text text-anchor="start" x="152" y="-79" font-family="FreeSans" font-size="10.00">hops::MHO_UnaryInPlaceOperator</text>
<text text-anchor="middle" x="227.5" y="-68" font-family="FreeSans" font-size="10.00">&lt; XArgType &gt;</text>
</a>
</g>
</g>
<!-- Node2&#45;&gt;Node1 -->
<g id="edge1" class="edge">
<title>Node2&#45;&gt;Node1</title>
<path fill="none" stroke="midnightblue" d="M321.21,-63.34C329.7,-62.18 338.28,-61.01 346.72,-59.85"/>
<polygon fill="midnightblue" stroke="midnightblue" points="320.72,-59.87 311.29,-64.69 321.67,-66.81 320.72,-59.87"/>
</g>
<!-- Node3 -->
<g id="node3" class="node">
<title>Node3</title>
<g id="a_node3"><a xlink:href="classhops_1_1MHO__Operator.html" target="_top" xlink:title="Class MHO_Operator.">
<polygon fill="white" stroke="black" points="0,-66.5 0,-85.5 108,-85.5 108,-66.5 0,-66.5"/>
<text text-anchor="middle" x="54" y="-73.5" font-family="FreeSans" font-size="10.00">hops::MHO_Operator</text>
</a>
</g>
</g>
<!-- Node3&#45;&gt;Node2 -->
<g id="edge2" class="edge">
<title>Node3&#45;&gt;Node2</title>
<path fill="none" stroke="midnightblue" d="M118.33,-76C126.67,-76 135.32,-76 143.93,-76"/>
<polygon fill="midnightblue" stroke="midnightblue" points="118.32,-72.5 108.32,-76 118.32,-79.5 118.32,-72.5"/>
</g>
<!-- Node4 -->
<g id="node4" class="node">
<title>Node4</title>
<g id="a_node4"><a xlink:href="classhops_1_1MHO__MultidimensionalFastFourierTransformInterface.html" target="_top" xlink:title="Class MHO_MultidimensionalFastFourierTransformInterface.">
<polygon fill="white" stroke="black" points="153,-0.5 153,-41.5 302,-41.5 302,-0.5 153,-0.5"/>
<text text-anchor="start" x="161" y="-29.5" font-family="FreeSans" font-size="10.00">hops::MHO_Multidimensional</text>
<text text-anchor="start" x="161" y="-18.5" font-family="FreeSans" font-size="10.00">FastFourierTransformInterface</text>
<text text-anchor="middle" x="227.5" y="-7.5" font-family="FreeSans" font-size="10.00">&lt; XArgType &gt;</text>
</a>
</g>
</g>
<!-- Node4&#45;&gt;Node1 -->
<g id="edge3" class="edge">
<title>Node4&#45;&gt;Node1</title>
<path fill="none" stroke="midnightblue" d="M312.16,-32.02C323.59,-33.52 335.34,-35.07 346.82,-36.58"/>
<polygon fill="midnightblue" stroke="midnightblue" points="312.59,-28.55 302.22,-30.71 311.68,-35.49 312.59,-28.55"/>
</g>
</g>
</svg>
