<?xml version="1.0" encoding="UTF-8" standalone="no"?>
<!DOCTYPE svg PUBLIC "-//W3C//DTD SVG 1.1//EN"
 "http://www.w3.org/Graphics/SVG/1.1/DTD/svg11.dtd">
<!-- Generated by graphviz version 2.43.0 (0)
 -->
<!-- Title: hops::MHO_NDArrayWrapper&lt; XValueType, RANK &gt; Pages: 1 -->
<svg width="670pt" height="532pt"
 viewBox="0.00 0.00 670.00 532.00" xmlns="http://www.w3.org/2000/svg" xmlns:xlink="http://www.w3.org/1999/xlink">
<g id="graph0" class="graph" transform="scale(1 1) rotate(0) translate(4 528)">
<title>hops::MHO_NDArrayWrapper&lt; XValueType, RANK &gt;</title>
<polygon fill="white" stroke="transparent" points="-4,4 -4,-528 666,-528 666,4 -4,4"/>
<!-- Node1 -->
<g id="node1" class="node">
<title>Node1</title>
<g id="a_node1"><a xlink:title="Class MHO_NDArrayWrapper.">
<polygon fill="#bfbfbf" stroke="black" points="328,-258 328,-288 471,-288 471,-258 328,-258"/>
<text text-anchor="start" x="336" y="-276" font-family="FreeSans" font-size="10.00">hops::MHO_NDArrayWrapper</text>
<text text-anchor="middle" x="399.5" y="-265" font-family="FreeSans" font-size="10.00">&lt; XValueType, RANK &gt;</text>
</a>
</g>
</g>
<!-- Node4 -->
<g id="node4" class="node">
<title>Node4</title>
<g id="a_node4"><a xlink:href="classhops_1_1MHO__TableContainer.html" target="_top" xlink:title=" ">
<polygon fill="white" stroke="black" points="516.5,-482.5 516.5,-523.5 652.5,-523.5 652.5,-482.5 516.5,-482.5"/>
<text text-anchor="start" x="524.5" y="-511.5" font-family="FreeSans" font-size="10.00">hops::MHO_TableContainer</text>
<text text-anchor="start" x="524.5" y="-500.5" font-family="FreeSans" font-size="10.00">&lt; double, MHO_AxisPack</text>
<text text-anchor="middle" x="584.5" y="-489.5" font-family="FreeSans" font-size="10.00">&lt; MHO_Axis&lt; double &gt; &gt; &gt;</text>
</a>
</g>
</g>
<!-- Node1&#45;&gt;Node4 -->
<g id="edge3" class="edge">
<title>Node1&#45;&gt;Node4</title>
<path fill="none" stroke="midnightblue" d="M407.44,-297.69C420.36,-339.37 451.89,-423.92 507,-473 510.94,-476.51 515.34,-479.63 519.99,-482.41"/>
<polygon fill="midnightblue" stroke="midnightblue" points="410.78,-296.64 404.56,-288.07 404.08,-298.65 410.78,-296.64"/>
</g>
<!-- Node5 -->
<g id="node5" class="node">
<title>Node5</title>
<g id="a_node5"><a xlink:href="classhops_1_1MHO__TableContainer.html" target="_top" xlink:title=" ">
<polygon fill="white" stroke="black" points="516.5,-422.5 516.5,-463.5 652.5,-463.5 652.5,-422.5 516.5,-422.5"/>
<text text-anchor="start" x="524.5" y="-451.5" font-family="FreeSans" font-size="10.00">hops::MHO_TableContainer</text>
<text text-anchor="start" x="524.5" y="-440.5" font-family="FreeSans" font-size="10.00">&lt; visibility_element_type,</text>
<text text-anchor="middle" x="584.5" y="-429.5" font-family="FreeSans" font-size="10.00"> mbd_dr_axis_pack &gt;</text>
</a>
</g>
</g>
<!-- Node1&#45;&gt;Node5 -->
<g id="edge4" class="edge">
<title>Node1&#45;&gt;Node5</title>
<path fill="none" stroke="midnightblue" d="M413.23,-297.03C430.64,-327.8 464.6,-380.96 507,-413 511.55,-416.44 516.55,-419.54 521.74,-422.32"/>
<polygon fill="midnightblue" stroke="midnightblue" points="416.27,-295.3 408.37,-288.25 410.15,-298.69 416.27,-295.3"/>
</g>
<!-- Node6 -->
<g id="node6" class="node">
<title>Node6</title>
<g id="a_node6"><a xlink:href="classhops_1_1MHO__TableContainer.html" target="_top" xlink:title=" ">
<polygon fill="white" stroke="black" points="516.5,-373 516.5,-403 652.5,-403 652.5,-373 516.5,-373"/>
<text text-anchor="start" x="524.5" y="-391" font-family="FreeSans" font-size="10.00">hops::MHO_TableContainer</text>
<text text-anchor="middle" x="584.5" y="-380" font-family="FreeSans" font-size="10.00">&lt; double, mbd_axis_pack &gt;</text>
</a>
</g>
</g>
<!-- Node1&#45;&gt;Node6 -->
<g id="edge5" class="edge">
<title>Node1&#45;&gt;Node6</title>
<path fill="none" stroke="midnightblue" d="M421.78,-295.37C442.03,-315.52 474.19,-344.7 507,-363 513.71,-366.74 521.07,-370.03 528.49,-372.89"/>
<polygon fill="midnightblue" stroke="midnightblue" points="424.15,-292.78 414.63,-288.13 419.17,-297.7 424.15,-292.78"/>
</g>
<!-- Node7 -->
<g id="node7" class="node">
<title>Node7</title>
<g id="a_node7"><a xlink:href="classhops_1_1MHO__TableContainer.html" target="_top" xlink:title=" ">
<polygon fill="white" stroke="black" points="511.5,-312.5 511.5,-353.5 657.5,-353.5 657.5,-312.5 511.5,-312.5"/>
<text text-anchor="start" x="519.5" y="-341.5" font-family="FreeSans" font-size="10.00">hops::MHO_TableContainer</text>
<text text-anchor="start" x="519.5" y="-330.5" font-family="FreeSans" font-size="10.00">&lt; pcal_phasor_type, multitone</text>
<text text-anchor="middle" x="584.5" y="-319.5" font-family="FreeSans" font-size="10.00">_pcal_axis_type &gt;</text>
</a>
</g>
</g>
<!-- Node1&#45;&gt;Node7 -->
<g id="edge6" class="edge">
<title>Node1&#45;&gt;Node7</title>
<path fill="none" stroke="midnightblue" d="M456.42,-291.33C476.75,-298 499.86,-305.58 520.75,-312.42"/>
<polygon fill="midnightblue" stroke="midnightblue" points="457.27,-287.93 446.68,-288.14 455.09,-294.58 457.27,-287.93"/>
</g>
<!-- Node8 -->
<g id="node8" class="node">
<title>Node8</title>
<g id="a_node8"><a xlink:href="classhops_1_1MHO__TableContainer.html" target="_top" xlink:title=" ">
<polygon fill="white" stroke="black" points="516.5,-252.5 516.5,-293.5 652.5,-293.5 652.5,-252.5 516.5,-252.5"/>
<text text-anchor="start" x="524.5" y="-281.5" font-family="FreeSans" font-size="10.00">hops::MHO_TableContainer</text>
<text text-anchor="start" x="524.5" y="-270.5" font-family="FreeSans" font-size="10.00">&lt; visibility_element_type,</text>
<text text-anchor="middle" x="584.5" y="-259.5" font-family="FreeSans" font-size="10.00"> mbd_axis_pack &gt;</text>
</a>
</g>
</g>
<!-- Node1&#45;&gt;Node8 -->
<g id="edge7" class="edge">
<title>Node1&#45;&gt;Node8</title>
<path fill="none" stroke="midnightblue" d="M481.4,-273C493.04,-273 504.91,-273 516.24,-273"/>
<polygon fill="midnightblue" stroke="midnightblue" points="481.25,-269.5 471.25,-273 481.25,-276.5 481.25,-269.5"/>
</g>
<!-- Node9 -->
<g id="node9" class="node">
<title>Node9</title>
<g id="a_node9"><a xlink:href="classhops_1_1MHO__TableContainer.html" target="_top" xlink:title=" ">
<polygon fill="white" stroke="black" points="516.5,-192.5 516.5,-233.5 652.5,-233.5 652.5,-192.5 516.5,-192.5"/>
<text text-anchor="start" x="524.5" y="-221.5" font-family="FreeSans" font-size="10.00">hops::MHO_TableContainer</text>
<text text-anchor="start" x="524.5" y="-210.5" font-family="FreeSans" font-size="10.00">&lt; weight_element_type,</text>
<text text-anchor="middle" x="584.5" y="-199.5" font-family="FreeSans" font-size="10.00"> baseline_axis_pack &gt;</text>
</a>
</g>
</g>
<!-- Node1&#45;&gt;Node9 -->
<g id="edge8" class="edge">
<title>Node1&#45;&gt;Node9</title>
<path fill="none" stroke="midnightblue" d="M456.42,-254.67C476.75,-248 499.86,-240.42 520.75,-233.58"/>
<polygon fill="midnightblue" stroke="midnightblue" points="455.09,-251.42 446.68,-257.86 457.27,-258.07 455.09,-251.42"/>
</g>
<!-- Node10 -->
<g id="node10" class="node">
<title>Node10</title>
<g id="a_node10"><a xlink:href="classhops_1_1MHO__TableContainer.html" target="_top" xlink:title=" ">
<polygon fill="white" stroke="black" points="507,-121 507,-173 662,-173 662,-121 507,-121"/>
<text text-anchor="start" x="515" y="-161" font-family="FreeSans" font-size="10.00">hops::MHO_TableContainer</text>
<text text-anchor="start" x="515" y="-150" font-family="FreeSans" font-size="10.00">&lt; std::complex&lt; double</text>
<text text-anchor="start" x="515" y="-139" font-family="FreeSans" font-size="10.00"> &gt;, MHO_AxisPack&lt; MHO_Axis</text>
<text text-anchor="middle" x="584.5" y="-128" font-family="FreeSans" font-size="10.00">&lt; double &gt; &gt; &gt;</text>
</a>
</g>
</g>
<!-- Node1&#45;&gt;Node10 -->
<g id="edge9" class="edge">
<title>Node1&#45;&gt;Node10</title>
<path fill="none" stroke="midnightblue" d="M423.05,-250.89C443.71,-231.4 475.75,-203.06 507,-183 512.31,-179.59 518,-176.31 523.78,-173.21"/>
<polygon fill="midnightblue" stroke="midnightblue" points="420.53,-248.45 415.71,-257.89 425.36,-253.52 420.53,-248.45"/>
</g>
<!-- Node11 -->
<g id="node11" class="node">
<title>Node11</title>
<g id="a_node11"><a xlink:href="classhops_1_1MHO__TableContainer.html" target="_top" xlink:title=" ">
<polygon fill="white" stroke="black" points="516.5,-60.5 516.5,-101.5 652.5,-101.5 652.5,-60.5 516.5,-60.5"/>
<text text-anchor="start" x="524.5" y="-89.5" font-family="FreeSans" font-size="10.00">hops::MHO_TableContainer</text>
<text text-anchor="start" x="524.5" y="-78.5" font-family="FreeSans" font-size="10.00">&lt; std::complex&lt; double</text>
<text text-anchor="middle" x="584.5" y="-67.5" font-family="FreeSans" font-size="10.00"> &gt;, pcal_axis_pack &gt;</text>
</a>
</g>
</g>
<!-- Node1&#45;&gt;Node11 -->
<g id="edge10" class="edge">
<title>Node1&#45;&gt;Node11</title>
<path fill="none" stroke="midnightblue" d="M410.83,-248.33C426.67,-213.25 460.13,-149.02 507,-111 511.32,-107.5 516.1,-104.36 521.1,-101.57"/>
<polygon fill="midnightblue" stroke="midnightblue" points="407.48,-247.25 406.66,-257.81 413.89,-250.06 407.48,-247.25"/>
</g>
<!-- Node12 -->
<g id="node12" class="node">
<title>Node12</title>
<g id="a_node12"><a xlink:href="classhops_1_1MHO__TableContainer.html" target="_top" xlink:title=" ">
<polygon fill="white" stroke="black" points="516.5,-0.5 516.5,-41.5 652.5,-41.5 652.5,-0.5 516.5,-0.5"/>
<text text-anchor="start" x="524.5" y="-29.5" font-family="FreeSans" font-size="10.00">hops::MHO_TableContainer</text>
<text text-anchor="start" x="524.5" y="-18.5" font-family="FreeSans" font-size="10.00">&lt; visibility_element_type,</text>
<text text-anchor="middle" x="584.5" y="-7.5" font-family="FreeSans" font-size="10.00"> baseline_axis_pack &gt;</text>
</a>
</g>
</g>
<!-- Node1&#45;&gt;Node12 -->
<g id="edge11" class="edge">
<title>Node1&#45;&gt;Node12</title>
<path fill="none" stroke="midnightblue" d="M406.09,-247.87C417.43,-202.51 447.27,-106.49 507,-51 510.76,-47.5 514.98,-44.4 519.45,-41.64"/>
<polygon fill="midnightblue" stroke="midnightblue" points="402.65,-247.22 403.72,-257.76 409.46,-248.86 402.65,-247.22"/>
</g>
<!-- Node2 -->
<g id="node2" class="node">
<title>Node2</title>
<g id="a_node2"><a xlink:href="classhops_1_1MHO__ExtensibleElement.html" target="_top" xlink:title="Class MHO_ExtensibleElement.">
<polygon fill="white" stroke="black" points="142,-263.5 142,-282.5 292,-282.5 292,-263.5 142,-263.5"/>
<text text-anchor="middle" x="217" y="-270.5" font-family="FreeSans" font-size="10.00">hops::MHO_ExtensibleElement</text>
</a>
</g>
</g>
<!-- Node2&#45;&gt;Node1 -->
<g id="edge1" class="edge">
<title>Node2&#45;&gt;Node1</title>
<path fill="none" stroke="midnightblue" d="M302.47,-273C310.94,-273 319.48,-273 327.79,-273"/>
<polygon fill="midnightblue" stroke="midnightblue" points="302.2,-269.5 292.2,-273 302.2,-276.5 302.2,-269.5"/>
</g>
<!-- Node3 -->
<g id="node3" class="node">
<title>Node3</title>
<g id="a_node3"><a xlink:href="classhops_1_1MHO__Element.html" target="_top" xlink:title="Class MHO_Element.">
<polygon fill="white" stroke="black" points="0,-263.5 0,-282.5 106,-282.5 106,-263.5 0,-263.5"/>
<text text-anchor="middle" x="53" y="-270.5" font-family="FreeSans" font-size="10.00">hops::MHO_Element</text>
</a>
</g>
</g>
<!-- Node3&#45;&gt;Node2 -->
<g id="edge2" class="edge">
<title>Node3&#45;&gt;Node2</title>
<path fill="none" stroke="midnightblue" d="M116.21,-273C124.59,-273 133.26,-273 141.82,-273"/>
<polygon fill="midnightblue" stroke="midnightblue" points="116.15,-269.5 106.15,-273 116.15,-276.5 116.15,-269.5"/>
</g>
</g>
</svg>
