<?xml version="1.0" encoding="UTF-8" standalone="no"?>
<!DOCTYPE svg PUBLIC "-//W3C//DTD SVG 1.1//EN"
 "http://www.w3.org/Graphics/SVG/1.1/DTD/svg11.dtd">
<!-- Generated by graphviz version 2.43.0 (0)
 -->
<!-- Title: hops::MHO_MultitonePhaseCorrection Pages: 1 -->
<svg width="146pt" height="162pt"
 viewBox="0.00 0.00 146.00 162.00" xmlns="http://www.w3.org/2000/svg" xmlns:xlink="http://www.w3.org/1999/xlink">
<g id="graph0" class="graph" transform="scale(1 1) rotate(0) translate(4 158)">
<title>hops::MHO_MultitonePhaseCorrection</title>
<polygon fill="white" stroke="transparent" points="-4,4 -4,-158 142,-158 142,4 -4,4"/>
<!-- Node1 -->
<g id="node1" class="node">
<title>Node1</title>
<g id="a_node1"><a xlink:title="Class MHO_MultitonePhaseCorrection.">
<polygon fill="#bfbfbf" stroke="black" points="0,-0.5 0,-30.5 138,-30.5 138,-0.5 0,-0.5"/>
<text text-anchor="start" x="8" y="-18.5" font-family="FreeSans" font-size="10.00">hops::MHO_MultitonePhase</text>
<text text-anchor="middle" x="69" y="-7.5" font-family="FreeSans" font-size="10.00">Correction</text>
</a>
</g>
</g>
<!-- Node2 -->
<g id="node2" class="node">
<title>Node2</title>
<g id="a_node2"><a xlink:href="classhops_1_1MHO__UnaryOperator.html" target="_top" xlink:title=" ">
<polygon fill="white" stroke="black" points="2,-67.5 2,-97.5 136,-97.5 136,-67.5 2,-67.5"/>
<text text-anchor="start" x="10" y="-85.5" font-family="FreeSans" font-size="10.00">hops::MHO_UnaryOperator</text>
<text text-anchor="middle" x="69" y="-74.5" font-family="FreeSans" font-size="10.00">&lt; visibility_type &gt;</text>
</a>
</g>
</g>
<!-- Node2&#45;&gt;Node1 -->
<g id="edge1" class="edge">
<title>Node2&#45;&gt;Node1</title>
<path fill="none" stroke="midnightblue" d="M69,-57.11C69,-48.15 69,-38.32 69,-30.58"/>
<polygon fill="midnightblue" stroke="midnightblue" points="65.5,-57.4 69,-67.4 72.5,-57.4 65.5,-57.4"/>
</g>
<!-- Node3 -->
<g id="node3" class="node">
<title>Node3</title>
<g id="a_node3"><a xlink:href="classhops_1_1MHO__Operator.html" target="_top" xlink:title="Class MHO_Operator.">
<polygon fill="white" stroke="black" points="15,-134.5 15,-153.5 123,-153.5 123,-134.5 15,-134.5"/>
<text text-anchor="middle" x="69" y="-141.5" font-family="FreeSans" font-size="10.00">hops::MHO_Operator</text>
</a>
</g>
</g>
<!-- Node3&#45;&gt;Node2 -->
<g id="edge2" class="edge">
<title>Node3&#45;&gt;Node2</title>
<path fill="none" stroke="midnightblue" d="M69,-124.23C69,-115.59 69,-105.5 69,-97.52"/>
<polygon fill="midnightblue" stroke="midnightblue" points="65.5,-124.48 69,-134.48 72.5,-124.48 65.5,-124.48"/>
</g>
</g>
</svg>
