<?xml version="1.0" encoding="UTF-8" standalone="no"?>
<!DOCTYPE svg PUBLIC "-//W3C//DTD SVG 1.1//EN"
 "http://www.w3.org/Graphics/SVG/1.1/DTD/svg11.dtd">
<!-- Generated by graphviz version 2.43.0 (0)
 -->
<!-- Title: hops::MHO_SimulatedSignalGenerator Pages: 1 -->
<svg width="334pt" height="106pt"
 viewBox="0.00 0.00 334.00 106.00" xmlns="http://www.w3.org/2000/svg" xmlns:xlink="http://www.w3.org/1999/xlink">
<g id="graph0" class="graph" transform="scale(1 1) rotate(0) translate(4 102)">
<title>hops::MHO_SimulatedSignalGenerator</title>
<polygon fill="white" stroke="transparent" points="-4,4 -4,-102 330,-102 330,4 -4,4"/>
<!-- Node1 -->
<g id="node1" class="node">
<title>Node1</title>
<g id="a_node1"><a xlink:title=" ">
<polygon fill="#bfbfbf" stroke="black" points="96.5,-67.5 96.5,-97.5 237.5,-97.5 237.5,-67.5 96.5,-67.5"/>
<text text-anchor="start" x="104.5" y="-85.5" font-family="FreeSans" font-size="10.00">hops::MHO_SimulatedSignal</text>
<text text-anchor="middle" x="167" y="-74.5" font-family="FreeSans" font-size="10.00">Generator</text>
</a>
</g>
</g>
<!-- Node2 -->
<g id="node2" class="node">
<title>Node2</title>
<g id="a_node2"><a xlink:href="classhops_1_1MHO__GaussianWhiteNoiseSignal.html" target="_top" xlink:title=" ">
<polygon fill="white" stroke="black" points="0,-0.5 0,-30.5 162,-30.5 162,-0.5 0,-0.5"/>
<text text-anchor="start" x="8" y="-18.5" font-family="FreeSans" font-size="10.00">hops::MHO_GaussianWhiteNoise</text>
<text text-anchor="middle" x="81" y="-7.5" font-family="FreeSans" font-size="10.00">Signal</text>
</a>
</g>
</g>
<!-- Node1&#45;&gt;Node2 -->
<g id="edge1" class="edge">
<title>Node1&#45;&gt;Node2</title>
<path fill="none" stroke="midnightblue" d="M140.1,-61.17C126.95,-51.23 111.45,-39.51 99.62,-30.58"/>
<polygon fill="midnightblue" stroke="midnightblue" points="138.25,-64.16 148.34,-67.4 142.47,-58.57 138.25,-64.16"/>
</g>
<!-- Node3 -->
<g id="node3" class="node">
<title>Node3</title>
<g id="a_node3"><a xlink:href="classhops_1_1MHO__SingleToneSignal.html" target="_top" xlink:title=" ">
<polygon fill="white" stroke="black" points="180,-6 180,-25 326,-25 326,-6 180,-6"/>
<text text-anchor="middle" x="253" y="-13" font-family="FreeSans" font-size="10.00">hops::MHO_SingleToneSignal</text>
</a>
</g>
</g>
<!-- Node1&#45;&gt;Node3 -->
<g id="edge2" class="edge">
<title>Node1&#45;&gt;Node3</title>
<path fill="none" stroke="midnightblue" d="M193.67,-61.34C209.72,-49.21 229.33,-34.39 241.5,-25.19"/>
<polygon fill="midnightblue" stroke="midnightblue" points="191.53,-58.57 185.66,-67.4 195.75,-64.16 191.53,-58.57"/>
</g>
</g>
</svg>
