<?xml version="1.0" encoding="UTF-8" standalone="no"?>
<!DOCTYPE svg PUBLIC "-//W3C//DTD SVG 1.1//EN"
 "http://www.w3.org/Graphics/SVG/1.1/DTD/svg11.dtd">
<!-- Generated by graphviz version 2.43.0 (0)
 -->
<!-- Title: hops::MHO_InspectingOperator&lt; XArgType &gt; Pages: 1 -->
<svg width="478pt" height="100pt"
 viewBox="0.00 0.00 478.00 99.50" xmlns="http://www.w3.org/2000/svg" xmlns:xlink="http://www.w3.org/1999/xlink">
<g id="graph0" class="graph" transform="scale(1 1) rotate(0) translate(4 95.5)">
<title>hops::MHO_InspectingOperator&lt; XArgType &gt;</title>
<polygon fill="white" stroke="transparent" points="-4,4 -4,-95.5 474,-95.5 474,4 -4,4"/>
<!-- Node1 -->
<g id="node1" class="node">
<title>Node1</title>
<g id="a_node1"><a xlink:title="Class MHO_InspectingOperator.">
<polygon fill="#bfbfbf" stroke="black" points="144,-27.5 144,-57.5 297,-57.5 297,-27.5 144,-27.5"/>
<text text-anchor="start" x="152" y="-45.5" font-family="FreeSans" font-size="10.00">hops::MHO_InspectingOperator</text>
<text text-anchor="middle" x="220.5" y="-34.5" font-family="FreeSans" font-size="10.00">&lt; XArgType &gt;</text>
</a>
</g>
</g>
<!-- Node3 -->
<g id="node3" class="node">
<title>Node3</title>
<g id="a_node3"><a xlink:href="classhops_1_1MHO__ExtremaSearch.html" target="_top" xlink:title=" ">
<polygon fill="white" stroke="black" points="333,-50 333,-91 470,-91 470,-50 333,-50"/>
<text text-anchor="start" x="341" y="-79" font-family="FreeSans" font-size="10.00">hops::MHO_ExtremaSearch</text>
<text text-anchor="start" x="341" y="-68" font-family="FreeSans" font-size="10.00">&lt; MHO_TableContainer&lt;</text>
<text text-anchor="middle" x="401.5" y="-57" font-family="FreeSans" font-size="10.00"> double, mbd_axis_pack &gt; &gt;</text>
</a>
</g>
</g>
<!-- Node1&#45;&gt;Node3 -->
<g id="edge2" class="edge">
<title>Node1&#45;&gt;Node3</title>
<path fill="none" stroke="midnightblue" d="M307.2,-55.9C315.78,-57.25 324.42,-58.6 332.79,-59.91"/>
<polygon fill="midnightblue" stroke="midnightblue" points="307.57,-52.42 297.15,-54.33 306.49,-59.34 307.57,-52.42"/>
</g>
<!-- Node4 -->
<g id="node4" class="node">
<title>Node4</title>
<g id="a_node4"><a xlink:href="classhops_1_1MHO__ExtremaSearch.html" target="_top" xlink:title="Class MHO_ExtremaSearch.">
<polygon fill="white" stroke="black" points="333,-0.5 333,-30.5 470,-30.5 470,-0.5 333,-0.5"/>
<text text-anchor="start" x="341" y="-18.5" font-family="FreeSans" font-size="10.00">hops::MHO_ExtremaSearch</text>
<text text-anchor="middle" x="401.5" y="-7.5" font-family="FreeSans" font-size="10.00">&lt; XArgType &gt;</text>
</a>
</g>
</g>
<!-- Node1&#45;&gt;Node4 -->
<g id="edge3" class="edge">
<title>Node1&#45;&gt;Node4</title>
<path fill="none" stroke="midnightblue" d="M307.2,-29.57C315.78,-28.28 324.42,-26.98 332.79,-25.71"/>
<polygon fill="midnightblue" stroke="midnightblue" points="306.52,-26.14 297.15,-31.09 307.56,-33.06 306.52,-26.14"/>
</g>
<!-- Node2 -->
<g id="node2" class="node">
<title>Node2</title>
<g id="a_node2"><a xlink:href="classhops_1_1MHO__Operator.html" target="_top" xlink:title="Class MHO_Operator.">
<polygon fill="white" stroke="black" points="0,-33 0,-52 108,-52 108,-33 0,-33"/>
<text text-anchor="middle" x="54" y="-40" font-family="FreeSans" font-size="10.00">hops::MHO_Operator</text>
</a>
</g>
</g>
<!-- Node2&#45;&gt;Node1 -->
<g id="edge1" class="edge">
<title>Node2&#45;&gt;Node1</title>
<path fill="none" stroke="midnightblue" d="M118.44,-42.5C126.79,-42.5 135.42,-42.5 143.95,-42.5"/>
<polygon fill="midnightblue" stroke="midnightblue" points="118.41,-39 108.41,-42.5 118.41,-46 118.41,-39"/>
</g>
</g>
</svg>
