<?xml version="1.0" encoding="UTF-8" standalone="no"?>
<!DOCTYPE svg PUBLIC "-//W3C//DTD SVG 1.1//EN"
 "http://www.w3.org/Graphics/SVG/1.1/DTD/svg11.dtd">
<!-- Generated by graphviz version 2.43.0 (0)
 -->
<!-- Title: hops::MHO_NormFX Pages: 1 -->
<svg width="338pt" height="218pt"
 viewBox="0.00 0.00 337.50 218.00" xmlns="http://www.w3.org/2000/svg" xmlns:xlink="http://www.w3.org/1999/xlink">
<g id="graph0" class="graph" transform="scale(1 1) rotate(0) translate(4 214)">
<title>hops::MHO_NormFX</title>
<polygon fill="white" stroke="transparent" points="-4,4 -4,-214 333.5,-214 333.5,4 -4,4"/>
<!-- Node1 -->
<g id="node1" class="node">
<title>Node1</title>
<g id="a_node1"><a xlink:title="Class MHO_NormFX.">
<polygon fill="#bfbfbf" stroke="black" points="120,-67.5 120,-86.5 227,-86.5 227,-67.5 120,-67.5"/>
<text text-anchor="middle" x="173.5" y="-74.5" font-family="FreeSans" font-size="10.00">hops::MHO_NormFX</text>
</a>
</g>
</g>
<!-- Node4 -->
<g id="node4" class="node">
<title>Node4</title>
<g id="a_node4"><a xlink:href="classhops_1_1MHO__MixedSidebandNormFX.html" target="_top" xlink:title="Class MHO_MixedSidebandNormFX.">
<polygon fill="white" stroke="black" points="0,-6 0,-25 173,-25 173,-6 0,-6"/>
<text text-anchor="middle" x="86.5" y="-13" font-family="FreeSans" font-size="10.00">hops::MHO_MixedSidebandNormFX</text>
</a>
</g>
</g>
<!-- Node1&#45;&gt;Node4 -->
<g id="edge3" class="edge">
<title>Node1&#45;&gt;Node4</title>
<path fill="none" stroke="midnightblue" d="M152.46,-61.61C135.73,-50.17 112.89,-34.55 98.94,-25.01"/>
<polygon fill="midnightblue" stroke="midnightblue" points="150.8,-64.72 161.04,-67.48 154.76,-58.94 150.8,-64.72"/>
</g>
<!-- Node5 -->
<g id="node5" class="node">
<title>Node5</title>
<g id="a_node5"><a xlink:href="classhops_1_1MHO__SingleSidebandNormFX.html" target="_top" xlink:title="Class MHO_SingleSidebandNormFX.">
<polygon fill="white" stroke="black" points="191.5,-0.5 191.5,-30.5 329.5,-30.5 329.5,-0.5 191.5,-0.5"/>
<text text-anchor="start" x="199.5" y="-18.5" font-family="FreeSans" font-size="10.00">hops::MHO_SingleSideband</text>
<text text-anchor="middle" x="260.5" y="-7.5" font-family="FreeSans" font-size="10.00">NormFX</text>
</a>
</g>
</g>
<!-- Node1&#45;&gt;Node5 -->
<g id="edge4" class="edge">
<title>Node1&#45;&gt;Node5</title>
<path fill="none" stroke="midnightblue" d="M194.35,-61.74C208.18,-52.28 226.24,-39.93 240,-30.52"/>
<polygon fill="midnightblue" stroke="midnightblue" points="192.24,-58.94 185.96,-67.48 196.2,-64.72 192.24,-58.94"/>
</g>
<!-- Node2 -->
<g id="node2" class="node">
<title>Node2</title>
<g id="a_node2"><a xlink:href="classhops_1_1MHO__UnaryOperator.html" target="_top" xlink:title=" ">
<polygon fill="white" stroke="black" points="106.5,-123.5 106.5,-153.5 240.5,-153.5 240.5,-123.5 106.5,-123.5"/>
<text text-anchor="start" x="114.5" y="-141.5" font-family="FreeSans" font-size="10.00">hops::MHO_UnaryOperator</text>
<text text-anchor="middle" x="173.5" y="-130.5" font-family="FreeSans" font-size="10.00">&lt; visibility_type &gt;</text>
</a>
</g>
</g>
<!-- Node2&#45;&gt;Node1 -->
<g id="edge1" class="edge">
<title>Node2&#45;&gt;Node1</title>
<path fill="none" stroke="midnightblue" d="M173.5,-113.29C173.5,-103.86 173.5,-93.65 173.5,-86.66"/>
<polygon fill="midnightblue" stroke="midnightblue" points="170,-113.4 173.5,-123.4 177,-113.4 170,-113.4"/>
</g>
<!-- Node3 -->
<g id="node3" class="node">
<title>Node3</title>
<g id="a_node3"><a xlink:href="classhops_1_1MHO__Operator.html" target="_top" xlink:title="Class MHO_Operator.">
<polygon fill="white" stroke="black" points="119.5,-190.5 119.5,-209.5 227.5,-209.5 227.5,-190.5 119.5,-190.5"/>
<text text-anchor="middle" x="173.5" y="-197.5" font-family="FreeSans" font-size="10.00">hops::MHO_Operator</text>
</a>
</g>
</g>
<!-- Node3&#45;&gt;Node2 -->
<g id="edge2" class="edge">
<title>Node3&#45;&gt;Node2</title>
<path fill="none" stroke="midnightblue" d="M173.5,-180.23C173.5,-171.59 173.5,-161.5 173.5,-153.52"/>
<polygon fill="midnightblue" stroke="midnightblue" points="170,-180.48 173.5,-190.48 177,-180.48 170,-180.48"/>
</g>
</g>
</svg>
