<?xml version="1.0" encoding="UTF-8" standalone="no"?>
<!DOCTYPE svg PUBLIC "-//W3C//DTD SVG 1.1//EN"
 "http://www.w3.org/Graphics/SVG/1.1/DTD/svg11.dtd">
<!-- Generated by graphviz version 2.43.0 (0)
 -->
<!-- Title: hops::MHO_ChannelLabeler&lt; XArrayType &gt; Pages: 1 -->
<svg width="322pt" height="162pt"
 viewBox="0.00 0.00 321.50 162.00" xmlns="http://www.w3.org/2000/svg" xmlns:xlink="http://www.w3.org/1999/xlink">
<g id="graph0" class="graph" transform="scale(1 1) rotate(0) translate(4 158)">
<title>hops::MHO_ChannelLabeler&lt; XArrayType &gt;</title>
<polygon fill="white" stroke="transparent" points="-4,4 -4,-158 317.5,-158 317.5,4 -4,4"/>
<!-- Node1 -->
<g id="node1" class="node">
<title>Node1</title>
<g id="a_node1"><a xlink:title="Class MHO_ChannelLabeler.">
<polygon fill="#bfbfbf" stroke="black" points="81,-0.5 81,-30.5 219,-30.5 219,-0.5 81,-0.5"/>
<text text-anchor="start" x="89" y="-18.5" font-family="FreeSans" font-size="10.00">hops::MHO_ChannelLabeler</text>
<text text-anchor="middle" x="150" y="-7.5" font-family="FreeSans" font-size="10.00">&lt; XArrayType &gt;</text>
</a>
</g>
</g>
<!-- Node2 -->
<g id="node2" class="node">
<title>Node2</title>
<g id="a_node2"><a xlink:href="classhops_1_1MHO__UnaryOperator.html" target="_top" xlink:title=" ">
<polygon fill="white" stroke="black" points="0,-67.5 0,-97.5 134,-97.5 134,-67.5 0,-67.5"/>
<text text-anchor="start" x="8" y="-85.5" font-family="FreeSans" font-size="10.00">hops::MHO_UnaryOperator</text>
<text text-anchor="middle" x="67" y="-74.5" font-family="FreeSans" font-size="10.00">&lt; XArrayType &gt;</text>
</a>
</g>
</g>
<!-- Node2&#45;&gt;Node1 -->
<g id="edge1" class="edge">
<title>Node2&#45;&gt;Node1</title>
<path fill="none" stroke="midnightblue" d="M92.96,-61.17C105.65,-51.23 120.61,-39.51 132.03,-30.58"/>
<polygon fill="midnightblue" stroke="midnightblue" points="90.72,-58.47 85.01,-67.4 95.04,-63.99 90.72,-58.47"/>
</g>
<!-- Node3 -->
<g id="node3" class="node">
<title>Node3</title>
<g id="a_node3"><a xlink:href="classhops_1_1MHO__Operator.html" target="_top" xlink:title="Class MHO_Operator.">
<polygon fill="white" stroke="black" points="13,-134.5 13,-153.5 121,-153.5 121,-134.5 13,-134.5"/>
<text text-anchor="middle" x="67" y="-141.5" font-family="FreeSans" font-size="10.00">hops::MHO_Operator</text>
</a>
</g>
</g>
<!-- Node3&#45;&gt;Node2 -->
<g id="edge2" class="edge">
<title>Node3&#45;&gt;Node2</title>
<path fill="none" stroke="midnightblue" d="M67,-124.23C67,-115.59 67,-105.5 67,-97.52"/>
<polygon fill="midnightblue" stroke="midnightblue" points="63.5,-124.48 67,-134.48 70.5,-124.48 63.5,-124.48"/>
</g>
<!-- Node4 -->
<g id="node4" class="node">
<title>Node4</title>
<g id="a_node4"><a xlink:href="classhops_1_1MHO__ChannelIndexLabeler.html" target="_top" xlink:title="Class MHO_ChannelIndexLabeler.">
<polygon fill="white" stroke="black" points="152.5,-73 152.5,-92 313.5,-92 313.5,-73 152.5,-73"/>
<text text-anchor="middle" x="233" y="-80" font-family="FreeSans" font-size="10.00">hops::MHO_ChannelIndexLabeler</text>
</a>
</g>
</g>
<!-- Node4&#45;&gt;Node1 -->
<g id="edge3" class="edge">
<title>Node4&#45;&gt;Node1</title>
<path fill="none" stroke="midnightblue" d="M213.9,-66.54C200.09,-55.73 181.54,-41.2 167.99,-30.59"/>
<polygon fill="midnightblue" stroke="midnightblue" points="211.78,-69.32 221.81,-72.73 216.09,-63.81 211.78,-69.32"/>
</g>
</g>
</svg>
