<?xml version="1.0" encoding="UTF-8" standalone="no"?>
<!DOCTYPE svg PUBLIC "-//W3C//DTD SVG 1.1//EN"
 "http://www.w3.org/Graphics/SVG/1.1/DTD/svg11.dtd">
<!-- Generated by graphviz version 2.43.0 (0)
 -->
<!-- Title: vpal.report_lib.JsonSerializableObject Pages: 1 -->
<svg width="437pt" height="324pt"
 viewBox="0.00 0.00 437.00 324.00" xmlns="http://www.w3.org/2000/svg" xmlns:xlink="http://www.w3.org/1999/xlink">
<g id="graph0" class="graph" transform="scale(1 1) rotate(0) translate(4 320)">
<title>vpal.report_lib.JsonSerializableObject</title>
<polygon fill="white" stroke="transparent" points="-4,4 -4,-320 433,-320 433,4 -4,4"/>
<!-- Node1 -->
<g id="node1" class="node">
<title>Node1</title>
<g id="a_node1"><a xlink:title=" ">
<polygon fill="#bfbfbf" stroke="black" points="79,-154 79,-184 228,-184 228,-154 79,-154"/>
<text text-anchor="start" x="87" y="-172" font-family="FreeSans" font-size="10.00">vpal.report_lib.JsonSerializable</text>
<text text-anchor="middle" x="153.5" y="-161" font-family="FreeSans" font-size="10.00">Object</text>
</a>
</g>
</g>
<!-- Node3 -->
<g id="node3" class="node">
<title>Node3</title>
<g id="a_node3"><a xlink:href="classvpal_1_1ffres2pcp__lib_1_1Configuration.html" target="_top" xlink:title=" ">
<polygon fill="white" stroke="black" points="271.5,-296.5 271.5,-315.5 421.5,-315.5 421.5,-296.5 271.5,-296.5"/>
<text text-anchor="middle" x="346.5" y="-303.5" font-family="FreeSans" font-size="10.00">vpal.ffres2pcp_lib.Configuration</text>
</a>
</g>
</g>
<!-- Node1&#45;&gt;Node3 -->
<g id="edge2" class="edge">
<title>Node1&#45;&gt;Node3</title>
<path fill="none" stroke="midnightblue" d="M170.02,-192.89C188.92,-219.97 223.39,-263.43 264,-287 270.66,-290.87 278.06,-293.94 285.6,-296.4"/>
<polygon fill="midnightblue" stroke="midnightblue" points="172.75,-190.67 164.23,-184.38 166.97,-194.61 172.75,-190.67"/>
</g>
<!-- Node4 -->
<g id="node4" class="node">
<title>Node4</title>
<g id="a_node4"><a xlink:href="classvpal_1_1ffres2pcp__lib_1_1ExperimentReportData.html" target="_top" xlink:title=" ">
<polygon fill="white" stroke="black" points="275.5,-247 275.5,-277 417.5,-277 417.5,-247 275.5,-247"/>
<text text-anchor="start" x="283.5" y="-265" font-family="FreeSans" font-size="10.00">vpal.ffres2pcp_lib.Experiment</text>
<text text-anchor="middle" x="346.5" y="-254" font-family="FreeSans" font-size="10.00">ReportData</text>
</a>
</g>
</g>
<!-- Node1&#45;&gt;Node4 -->
<g id="edge3" class="edge">
<title>Node1&#45;&gt;Node4</title>
<path fill="none" stroke="midnightblue" d="M182.83,-189.93C204.25,-204.96 234.84,-224.83 264,-238 271.26,-241.28 279.08,-244.24 286.91,-246.88"/>
<polygon fill="midnightblue" stroke="midnightblue" points="184.71,-186.96 174.53,-184.02 180.65,-192.67 184.71,-186.96"/>
</g>
<!-- Node5 -->
<g id="node5" class="node">
<title>Node5</title>
<g id="a_node5"><a xlink:href="classvpal_1_1ffres2pcp__lib_1_1SingleStationPCPhases.html" target="_top" xlink:title=" ">
<polygon fill="white" stroke="black" points="286,-198 286,-228 407,-228 407,-198 286,-198"/>
<text text-anchor="start" x="294" y="-216" font-family="FreeSans" font-size="10.00">vpal.ffres2pcp_lib.Single</text>
<text text-anchor="middle" x="346.5" y="-205" font-family="FreeSans" font-size="10.00">StationPCPhases</text>
</a>
</g>
</g>
<!-- Node1&#45;&gt;Node5 -->
<g id="edge4" class="edge">
<title>Node1&#45;&gt;Node5</title>
<path fill="none" stroke="midnightblue" d="M229.62,-186.3C248.24,-190.59 267.95,-195.14 285.73,-199.23"/>
<polygon fill="midnightblue" stroke="midnightblue" points="230.23,-182.85 219.7,-184.02 228.66,-189.67 230.23,-182.85"/>
</g>
<!-- Node6 -->
<g id="node6" class="node">
<title>Node6</title>
<g id="a_node6"><a xlink:href="classvpal_1_1fourphase__lib_1_1Configuration.html" target="_top" xlink:title=" ">
<polygon fill="white" stroke="black" points="270,-159.5 270,-178.5 423,-178.5 423,-159.5 270,-159.5"/>
<text text-anchor="middle" x="346.5" y="-166.5" font-family="FreeSans" font-size="10.00">vpal.fourphase_lib.Configuration</text>
</a>
</g>
</g>
<!-- Node1&#45;&gt;Node6 -->
<g id="edge5" class="edge">
<title>Node1&#45;&gt;Node6</title>
<path fill="none" stroke="midnightblue" d="M238.09,-169C248.62,-169 259.35,-169 269.75,-169"/>
<polygon fill="midnightblue" stroke="midnightblue" points="238.07,-165.5 228.07,-169 238.07,-172.5 238.07,-165.5"/>
</g>
<!-- Node7 -->
<g id="node7" class="node">
<title>Node7</title>
<g id="a_node7"><a xlink:href="classvpal_1_1fourphase__lib_1_1ExperimentReportData.html" target="_top" xlink:title=" ">
<polygon fill="white" stroke="black" points="274,-110 274,-140 419,-140 419,-110 274,-110"/>
<text text-anchor="start" x="282" y="-128" font-family="FreeSans" font-size="10.00">vpal.fourphase_lib.Experiment</text>
<text text-anchor="middle" x="346.5" y="-117" font-family="FreeSans" font-size="10.00">ReportData</text>
</a>
</g>
</g>
<!-- Node1&#45;&gt;Node7 -->
<g id="edge6" class="edge">
<title>Node1&#45;&gt;Node7</title>
<path fill="none" stroke="midnightblue" d="M229.46,-151.73C246.25,-147.86 263.92,-143.79 280.27,-140.03"/>
<polygon fill="midnightblue" stroke="midnightblue" points="228.66,-148.33 219.7,-153.98 230.23,-155.15 228.66,-148.33"/>
</g>
<!-- Node8 -->
<g id="node8" class="node">
<title>Node8</title>
<g id="a_node8"><a xlink:href="classvpal_1_1fourphase__lib_1_1SingleStationPhaseDelayOffsets.html" target="_top" xlink:title=" ">
<polygon fill="white" stroke="black" points="281,-61 281,-91 412,-91 412,-61 281,-61"/>
<text text-anchor="start" x="289" y="-79" font-family="FreeSans" font-size="10.00">vpal.fourphase_lib.Single</text>
<text text-anchor="middle" x="346.5" y="-68" font-family="FreeSans" font-size="10.00">StationPhaseDelayOffsets</text>
</a>
</g>
</g>
<!-- Node1&#45;&gt;Node8 -->
<g id="edge7" class="edge">
<title>Node1&#45;&gt;Node8</title>
<path fill="none" stroke="midnightblue" d="M182.83,-148.07C204.25,-133.04 234.84,-113.17 264,-100 271.26,-96.72 279.08,-93.76 286.91,-91.12"/>
<polygon fill="midnightblue" stroke="midnightblue" points="180.65,-145.33 174.53,-153.98 184.71,-151.04 180.65,-145.33"/>
</g>
<!-- Node9 -->
<g id="node9" class="node">
<title>Node9</title>
<g id="a_node9"><a xlink:href="classvpal_1_1fringe__file__manipulation_1_1SingleBaselinePolarizationProductCollection.html" target="_top" xlink:title=" ">
<polygon fill="white" stroke="black" points="264,-0.5 264,-41.5 429,-41.5 429,-0.5 264,-0.5"/>
<text text-anchor="start" x="272" y="-29.5" font-family="FreeSans" font-size="10.00">vpal.fringe_file_manipulation.</text>
<text text-anchor="start" x="272" y="-18.5" font-family="FreeSans" font-size="10.00">SingleBaselinePolarizationProduct</text>
<text text-anchor="middle" x="346.5" y="-7.5" font-family="FreeSans" font-size="10.00">Collection</text>
</a>
</g>
</g>
<!-- Node1&#45;&gt;Node9 -->
<g id="edge8" class="edge">
<title>Node1&#45;&gt;Node9</title>
<path fill="none" stroke="midnightblue" d="M170.88,-145.57C190.35,-119.26 225.13,-76.9 264,-51 269.14,-47.57 274.73,-44.47 280.49,-41.69"/>
<polygon fill="midnightblue" stroke="midnightblue" points="167.93,-143.67 164.88,-153.82 173.59,-147.79 167.93,-143.67"/>
</g>
<!-- Node2 -->
<g id="node2" class="node">
<title>Node2</title>
<g id="a_node2"><a xlink:title=" ">
<polygon fill="white" stroke="#bfbfbf" points="0,-159.5 0,-178.5 43,-178.5 43,-159.5 0,-159.5"/>
<text text-anchor="middle" x="21.5" y="-166.5" font-family="FreeSans" font-size="10.00">object</text>
</a>
</g>
</g>
<!-- Node2&#45;&gt;Node1 -->
<g id="edge1" class="edge">
<title>Node2&#45;&gt;Node1</title>
<path fill="none" stroke="midnightblue" d="M53.14,-169C60.98,-169 69.75,-169 78.76,-169"/>
<polygon fill="midnightblue" stroke="midnightblue" points="53.1,-165.5 43.1,-169 53.1,-172.5 53.1,-165.5"/>
</g>
</g>
</svg>
