<?xml version="1.0" encoding="UTF-8" standalone="no"?>
<!DOCTYPE svg PUBLIC "-//W3C//DTD SVG 1.1//EN"
 "http://www.w3.org/Graphics/SVG/1.1/DTD/svg11.dtd">
<!-- Generated by graphviz version 2.43.0 (0)
 -->
<!-- Title: hops::MHO_OpenCLMultidimensionalFastFourierTransform&lt; XArgType &gt; Pages: 1 -->
<svg width="534pt" height="100pt"
 viewBox="0.00 0.00 534.00 99.50" xmlns="http://www.w3.org/2000/svg" xmlns:xlink="http://www.w3.org/1999/xlink">
<g id="graph0" class="graph" transform="scale(1 1) rotate(0) translate(4 95.5)">
<title>hops::MHO_OpenCLMultidimensionalFastFourierTransform&lt; XArgType &gt;</title>
<polygon fill="white" stroke="transparent" points="-4,4 -4,-95.5 530,-95.5 530,4 -4,4"/>
<!-- Node1 -->
<g id="node1" class="node">
<title>Node1</title>
<g id="a_node1"><a xlink:title=" ">
<polygon fill="#bfbfbf" stroke="black" points="347,-33 347,-63 526,-63 526,-33 347,-33"/>
<text text-anchor="start" x="355" y="-51" font-family="FreeSans" font-size="10.00">hops::MHO_OpenCLMultidimensional</text>
<text text-anchor="middle" x="436.5" y="-40" font-family="FreeSans" font-size="10.00">FastFourierTransform&lt; XArgType &gt;</text>
</a>
</g>
</g>
<!-- Node2 -->
<g id="node2" class="node">
<title>Node2</title>
<g id="a_node2"><a xlink:href="classhops_1_1MHO__UnaryInPlaceOperator.html" target="_top" xlink:title="Class MHO_UnaryInPlaceOperator.">
<polygon fill="white" stroke="black" points="144,-61 144,-91 311,-91 311,-61 144,-61"/>
<text text-anchor="start" x="152" y="-79" font-family="FreeSans" font-size="10.00">hops::MHO_UnaryInPlaceOperator</text>
<text text-anchor="middle" x="227.5" y="-68" font-family="FreeSans" font-size="10.00">&lt; XArgType &gt;</text>
</a>
</g>
</g>
<!-- Node2&#45;&gt;Node1 -->
<g id="edge1" class="edge">
<title>Node2&#45;&gt;Node1</title>
<path fill="none" stroke="midnightblue" d="M321.16,-63.47C329.69,-62.31 338.32,-61.14 346.82,-60"/>
<polygon fill="midnightblue" stroke="midnightblue" points="320.64,-60 311.2,-64.81 321.58,-66.94 320.64,-60"/>
</g>
<!-- Node3 -->
<g id="node3" class="node">
<title>Node3</title>
<g id="a_node3"><a xlink:href="classhops_1_1MHO__Operator.html" target="_top" xlink:title="Class MHO_Operator.">
<polygon fill="white" stroke="black" points="0,-66.5 0,-85.5 108,-85.5 108,-66.5 0,-66.5"/>
<text text-anchor="middle" x="54" y="-73.5" font-family="FreeSans" font-size="10.00">hops::MHO_Operator</text>
</a>
</g>
</g>
<!-- Node3&#45;&gt;Node2 -->
<g id="edge2" class="edge">
<title>Node3&#45;&gt;Node2</title>
<path fill="none" stroke="midnightblue" d="M118.33,-76C126.67,-76 135.32,-76 143.93,-76"/>
<polygon fill="midnightblue" stroke="midnightblue" points="118.32,-72.5 108.32,-76 118.32,-79.5 118.32,-72.5"/>
</g>
<!-- Node4 -->
<g id="node4" class="node">
<title>Node4</title>
<g id="a_node4"><a xlink:href="classhops_1_1MHO__MultidimensionalFastFourierTransformInterface.html" target="_top" xlink:title="Class MHO_MultidimensionalFastFourierTransformInterface.">
<polygon fill="white" stroke="black" points="153,-0.5 153,-41.5 302,-41.5 302,-0.5 153,-0.5"/>
<text text-anchor="start" x="161" y="-29.5" font-family="FreeSans" font-size="10.00">hops::MHO_Multidimensional</text>
<text text-anchor="start" x="161" y="-18.5" font-family="FreeSans" font-size="10.00">FastFourierTransformInterface</text>
<text text-anchor="middle" x="227.5" y="-7.5" font-family="FreeSans" font-size="10.00">&lt; XArgType &gt;</text>
</a>
</g>
</g>
<!-- Node4&#45;&gt;Node1 -->
<g id="edge3" class="edge">
<title>Node4&#45;&gt;Node1</title>
<path fill="none" stroke="midnightblue" d="M312.05,-31.9C323.54,-33.4 335.37,-34.94 346.94,-36.45"/>
<polygon fill="midnightblue" stroke="midnightblue" points="312.43,-28.42 302.06,-30.6 311.53,-35.36 312.43,-28.42"/>
</g>
</g>
</svg>
