<?xml version="1.0" encoding="UTF-8" standalone="no"?>
<!DOCTYPE svg PUBLIC "-//W3C//DTD SVG 1.1//EN"
 "http://www.w3.org/Graphics/SVG/1.1/DTD/svg11.dtd">
<!-- Generated by graphviz version 2.43.0 (0)
 -->
<!-- Title: hops::MHO_ExtendedElement&lt; XExtensionType &gt;::ExtendedVisitor Pages: 1 -->
<svg width="183pt" height="173pt"
 viewBox="0.00 0.00 183.00 173.00" xmlns="http://www.w3.org/2000/svg" xmlns:xlink="http://www.w3.org/1999/xlink">
<g id="graph0" class="graph" transform="scale(1 1) rotate(0) translate(4 169)">
<title>hops::MHO_ExtendedElement&lt; XExtensionType &gt;::ExtendedVisitor</title>
<polygon fill="white" stroke="transparent" points="-4,4 -4,-169 179,-169 179,4 -4,4"/>
<!-- Node1 -->
<g id="node1" class="node">
<title>Node1</title>
<g id="a_node1"><a xlink:title="Class ExtendedVisitor.">
<polygon fill="#bfbfbf" stroke="black" points="0,-78.5 0,-108.5 175,-108.5 175,-78.5 0,-78.5"/>
<text text-anchor="start" x="8" y="-96.5" font-family="FreeSans" font-size="10.00">hops::MHO_ExtendedElement</text>
<text text-anchor="middle" x="87.5" y="-85.5" font-family="FreeSans" font-size="10.00">&lt; XExtensionType &gt;::ExtendedVisitor</text>
</a>
</g>
</g>
<!-- Node3 -->
<g id="node3" class="node">
<title>Node3</title>
<g id="a_node3"><a xlink:href="classhops_1_1MHO__TableContainerBufferBuilder.html" target="_top" xlink:title=" ">
<polygon fill="white" stroke="black" points="19.5,-0.5 19.5,-41.5 155.5,-41.5 155.5,-0.5 19.5,-0.5"/>
<text text-anchor="start" x="27.5" y="-29.5" font-family="FreeSans" font-size="10.00">hops::MHO_TableContainer</text>
<text text-anchor="start" x="27.5" y="-18.5" font-family="FreeSans" font-size="10.00">BufferBuilder&lt; XValueType,</text>
<text text-anchor="middle" x="87.5" y="-7.5" font-family="FreeSans" font-size="10.00"> XAxisPackType &gt;</text>
</a>
</g>
</g>
<!-- Node1&#45;&gt;Node3 -->
<g id="edge2" class="edge">
<title>Node1&#45;&gt;Node3</title>
<path fill="none" stroke="midnightblue" d="M87.5,-67.98C87.5,-59.35 87.5,-49.76 87.5,-41.59"/>
<polygon fill="midnightblue" stroke="midnightblue" points="84,-68.23 87.5,-78.23 91,-68.23 84,-68.23"/>
</g>
<!-- Node2 -->
<g id="node2" class="node">
<title>Node2</title>
<g id="a_node2"><a xlink:href="classhops_1_1MHO__Visitor.html" target="_top" xlink:title="Class MHO_Visitor.">
<polygon fill="white" stroke="black" points="38.5,-145.5 38.5,-164.5 136.5,-164.5 136.5,-145.5 38.5,-145.5"/>
<text text-anchor="middle" x="87.5" y="-152.5" font-family="FreeSans" font-size="10.00">hops::MHO_Visitor</text>
</a>
</g>
</g>
<!-- Node2&#45;&gt;Node1 -->
<g id="edge1" class="edge">
<title>Node2&#45;&gt;Node1</title>
<path fill="none" stroke="midnightblue" d="M87.5,-135.23C87.5,-126.59 87.5,-116.5 87.5,-108.52"/>
<polygon fill="midnightblue" stroke="midnightblue" points="84,-135.48 87.5,-145.48 91,-135.48 84,-135.48"/>
</g>
</g>
</svg>
