<?xml version="1.0" encoding="UTF-8" standalone="no"?>
<!DOCTYPE svg PUBLIC "-//W3C//DTD SVG 1.1//EN"
 "http://www.w3.org/Graphics/SVG/1.1/DTD/svg11.dtd">
<!-- Generated by graphviz version 2.43.0 (0)
 -->
<!-- Title: hops::MHO_MultidimensionalFastFourierTransformFFTW&lt; XArgType &gt; Pages: 1 -->
<svg width="480pt" height="100pt"
 viewBox="0.00 0.00 480.00 99.50" xmlns="http://www.w3.org/2000/svg" xmlns:xlink="http://www.w3.org/1999/xlink">
<g id="graph0" class="graph" transform="scale(1 1) rotate(0) translate(4 95.5)">
<title>hops::MHO_MultidimensionalFastFourierTransformFFTW&lt; XArgType &gt;</title>
<polygon fill="white" stroke="transparent" points="-4,4 -4,-95.5 476,-95.5 476,4 -4,4"/>
<!-- Node1 -->
<g id="node1" class="node">
<title>Node1</title>
<g id="a_node1"><a xlink:title="Class MHO_MultidimensionalFastFourierTransformFFTW.">
<polygon fill="#bfbfbf" stroke="black" points="329,-27.5 329,-68.5 472,-68.5 472,-27.5 329,-27.5"/>
<text text-anchor="start" x="337" y="-56.5" font-family="FreeSans" font-size="10.00">hops::MHO_Multidimensional</text>
<text text-anchor="start" x="337" y="-45.5" font-family="FreeSans" font-size="10.00">FastFourierTransformFFTW</text>
<text text-anchor="middle" x="400.5" y="-34.5" font-family="FreeSans" font-size="10.00">&lt; XArgType &gt;</text>
</a>
</g>
</g>
<!-- Node2 -->
<g id="node2" class="node">
<title>Node2</title>
<g id="a_node2"><a xlink:href="classhops_1_1MHO__UnaryOperator.html" target="_top" xlink:title="Class MHO_UnaryOperator.">
<polygon fill="white" stroke="black" points="151.5,-61 151.5,-91 285.5,-91 285.5,-61 151.5,-61"/>
<text text-anchor="start" x="159.5" y="-79" font-family="FreeSans" font-size="10.00">hops::MHO_UnaryOperator</text>
<text text-anchor="middle" x="218.5" y="-68" font-family="FreeSans" font-size="10.00">&lt; XArgType &gt;</text>
</a>
</g>
</g>
<!-- Node2&#45;&gt;Node1 -->
<g id="edge1" class="edge">
<title>Node2&#45;&gt;Node1</title>
<path fill="none" stroke="midnightblue" d="M295.57,-64.17C306.64,-62.44 318.01,-60.68 328.96,-58.97"/>
<polygon fill="midnightblue" stroke="midnightblue" points="294.85,-60.74 285.5,-65.73 295.92,-67.65 294.85,-60.74"/>
</g>
<!-- Node3 -->
<g id="node3" class="node">
<title>Node3</title>
<g id="a_node3"><a xlink:href="classhops_1_1MHO__Operator.html" target="_top" xlink:title="Class MHO_Operator.">
<polygon fill="white" stroke="black" points="0,-66.5 0,-85.5 108,-85.5 108,-66.5 0,-66.5"/>
<text text-anchor="middle" x="54" y="-73.5" font-family="FreeSans" font-size="10.00">hops::MHO_Operator</text>
</a>
</g>
</g>
<!-- Node3&#45;&gt;Node2 -->
<g id="edge2" class="edge">
<title>Node3&#45;&gt;Node2</title>
<path fill="none" stroke="midnightblue" d="M118.42,-76C129.24,-76 140.5,-76 151.39,-76"/>
<polygon fill="midnightblue" stroke="midnightblue" points="118.21,-72.5 108.21,-76 118.21,-79.5 118.21,-72.5"/>
</g>
<!-- Node4 -->
<g id="node4" class="node">
<title>Node4</title>
<g id="a_node4"><a xlink:href="classhops_1_1MHO__MultidimensionalFastFourierTransformInterface.html" target="_top" xlink:title="Class MHO_MultidimensionalFastFourierTransformInterface.">
<polygon fill="white" stroke="black" points="144,-0.5 144,-41.5 293,-41.5 293,-0.5 144,-0.5"/>
<text text-anchor="start" x="152" y="-29.5" font-family="FreeSans" font-size="10.00">hops::MHO_Multidimensional</text>
<text text-anchor="start" x="152" y="-18.5" font-family="FreeSans" font-size="10.00">FastFourierTransformInterface</text>
<text text-anchor="middle" x="218.5" y="-7.5" font-family="FreeSans" font-size="10.00">&lt; XArgType &gt;</text>
</a>
</g>
</g>
<!-- Node4&#45;&gt;Node1 -->
<g id="edge3" class="edge">
<title>Node4&#45;&gt;Node1</title>
<path fill="none" stroke="midnightblue" d="M303.22,-33.56C311.77,-34.84 320.39,-36.13 328.79,-37.39"/>
<polygon fill="midnightblue" stroke="midnightblue" points="303.64,-30.08 293.23,-32.06 302.6,-37 303.64,-30.08"/>
</g>
</g>
</svg>
