<?xml version="1.0" encoding="UTF-8" standalone="no"?>
<!DOCTYPE svg PUBLIC "-//W3C//DTD SVG 1.1//EN"
 "http://www.w3.org/Graphics/SVG/1.1/DTD/svg11.dtd">
<!-- Generated by graphviz version 2.43.0 (0)
 -->
<!-- Title: src Pages: 1 -->
<svg width="342pt" height="367pt"
 viewBox="0.00 0.00 342.37 367.00" xmlns="http://www.w3.org/2000/svg" xmlns:xlink="http://www.w3.org/1999/xlink">
<g id="graph0" class="graph" transform="scale(1 1) rotate(0) translate(4 363)">
<title>src</title>
<polygon fill="white" stroke="transparent" points="-4,4 -4,-363 338.37,-363 338.37,4 -4,4"/>
<g id="clust1" class="cluster">
<title>clusterdir_ffd3462840ed92d3b36f06c2f7a1a3a4</title>
<g id="a_clust1"><a xlink:href="dir_ffd3462840ed92d3b36f06c2f7a1a3a4.html" target="_top" xlink:title="DiFXInterface">
<polygon fill="#ddddee" stroke="black" points="8,-208 8,-351 85,-351 85,-208 8,-208"/>
<text text-anchor="middle" x="46.5" y="-339" font-family="FreeSans" font-size="10.00">DiFXInterface</text>
</a>
</g>
</g>
<!-- dir_f34f84663972769b5eb23cb9a774d90b -->
<g id="node1" class="node">
<title>dir_f34f84663972769b5eb23cb9a774d90b</title>
<g id="a_node1"><a xlink:href="dir_f34f84663972769b5eb23cb9a774d90b.html" target="_top" xlink:title="include">
<polygon fill="none" stroke="black" points="70,-252 16,-252 16,-216 70,-216 70,-252"/>
<text text-anchor="middle" x="43" y="-231.5" font-family="FreeSans" font-size="10.00">include</text>
</a>
</g>
</g>
<!-- dir_150f406a44a04ce55518da03ec553ece -->
<g id="node4" class="node">
<title>dir_150f406a44a04ce55518da03ec553ece</title>
<g id="a_node4"><a xlink:href="dir_150f406a44a04ce55518da03ec553ece.html" target="_top" xlink:title="Utilities">
<polygon fill="white" stroke="red" points="214,-36 160,-36 160,0 214,0 214,-36"/>
<text text-anchor="middle" x="187" y="-15.5" font-family="FreeSans" font-size="10.00">Utilities</text>
</a>
</g>
</g>
<!-- dir_f34f84663972769b5eb23cb9a774d90b&#45;&gt;dir_150f406a44a04ce55518da03ec553ece -->
<g id="edge3" class="edge">
<title>dir_f34f84663972769b5eb23cb9a774d90b&#45;&gt;dir_150f406a44a04ce55518da03ec553ece</title>
<path fill="none" stroke="black" d="M41.44,-215.83C40.46,-197.31 40.9,-167.35 51,-144 71.1,-97.52 118.14,-60.83 151.24,-39.53"/>
<polygon fill="black" stroke="black" points="153.14,-42.47 159.75,-34.19 149.42,-36.54 153.14,-42.47"/>
<g id="a_edge3&#45;headlabel"><a xlink:href="dir_000116_000086.html" target="_top" xlink:title="15">
<text text-anchor="middle" x="151.6" y="-44.28" font-family="FreeSans" font-size="10.00">15</text>
</a>
</g>
</g>
<!-- dir_e14b6f56da0f770cf537fc2113754b6e -->
<g id="node2" class="node">
<title>dir_e14b6f56da0f770cf537fc2113754b6e</title>
<g id="a_node2"><a xlink:href="dir_e14b6f56da0f770cf537fc2113754b6e.html" target="_top" xlink:title="src">
<polygon fill="#eeeeff" stroke="black" points="77,-324 23,-324 23,-288 77,-288 77,-324"/>
<text text-anchor="middle" x="50" y="-303.5" font-family="FreeSans" font-size="10.00">src</text>
</a>
</g>
</g>
<!-- dir_e14b6f56da0f770cf537fc2113754b6e&#45;&gt;dir_f34f84663972769b5eb23cb9a774d90b -->
<g id="edge11" class="edge">
<title>dir_e14b6f56da0f770cf537fc2113754b6e&#45;&gt;dir_f34f84663972769b5eb23cb9a774d90b</title>
<path fill="none" stroke="black" d="M48.27,-287.7C47.5,-279.98 46.57,-270.71 45.71,-262.11"/>
<polygon fill="black" stroke="black" points="49.19,-261.71 44.71,-252.1 42.22,-262.4 49.19,-261.71"/>
<g id="a_edge11&#45;headlabel"><a xlink:href="dir_000115_000116.html" target="_top" xlink:title="8">
<text text-anchor="middle" x="52.37" y="-262.5" font-family="FreeSans" font-size="10.00">8</text>
</a>
</g>
</g>
<!-- dir_0c8523deb6301657d04bd2a03358f9f8 -->
<g id="node3" class="node">
<title>dir_0c8523deb6301657d04bd2a03358f9f8</title>
<g id="a_node3"><a xlink:href="dir_0c8523deb6301657d04bd2a03358f9f8.html" target="_top" xlink:title="MK4Interface">
<polygon fill="white" stroke="red" points="201.5,-252 126.5,-252 126.5,-216 201.5,-216 201.5,-252"/>
<text text-anchor="middle" x="164" y="-231.5" font-family="FreeSans" font-size="10.00">MK4Interface</text>
</a>
</g>
</g>
<!-- dir_e14b6f56da0f770cf537fc2113754b6e&#45;&gt;dir_0c8523deb6301657d04bd2a03358f9f8 -->
<g id="edge6" class="edge">
<title>dir_e14b6f56da0f770cf537fc2113754b6e&#45;&gt;dir_0c8523deb6301657d04bd2a03358f9f8</title>
<path fill="none" stroke="black" d="M77.02,-288.41C92.02,-279.2 110.89,-267.61 127.22,-257.59"/>
<polygon fill="black" stroke="black" points="129.3,-260.42 135.99,-252.2 125.63,-254.45 129.3,-260.42"/>
<g id="a_edge6&#45;headlabel"><a xlink:href="dir_000115_000126.html" target="_top" xlink:title="2">
<text text-anchor="middle" x="127.72" y="-262.22" font-family="FreeSans" font-size="10.00">2</text>
</a>
</g>
</g>
<!-- dir_e14b6f56da0f770cf537fc2113754b6e&#45;&gt;dir_150f406a44a04ce55518da03ec553ece -->
<g id="edge7" class="edge">
<title>dir_e14b6f56da0f770cf537fc2113754b6e&#45;&gt;dir_150f406a44a04ce55518da03ec553ece</title>
<path fill="none" stroke="black" d="M77.1,-304.35C121.65,-302.1 211.64,-292.45 274,-252 307.78,-230.09 316.1,-218.15 329,-180 345.83,-130.24 319.5,-107.73 281,-72 264.2,-56.41 241.99,-43.62 223.38,-34.51"/>
<polygon fill="black" stroke="black" points="224.83,-31.32 214.3,-30.21 221.84,-37.65 224.83,-31.32"/>
<g id="a_edge7&#45;headlabel"><a xlink:href="dir_000115_000086.html" target="_top" xlink:title="3">
<text text-anchor="middle" x="229.3" y="-27.79" font-family="FreeSans" font-size="10.00">3</text>
</a>
</g>
</g>
<!-- dir_2d98c6b8f23a5c53321666bdc86a2d6a -->
<g id="node5" class="node">
<title>dir_2d98c6b8f23a5c53321666bdc86a2d6a</title>
<g id="a_node5"><a xlink:href="dir_2d98c6b8f23a5c53321666bdc86a2d6a.html" target="_top" xlink:title="Vex2JSON">
<polygon fill="white" stroke="red" points="125.5,-180 60.5,-180 60.5,-144 125.5,-144 125.5,-180"/>
<text text-anchor="middle" x="93" y="-159.5" font-family="FreeSans" font-size="10.00">Vex2JSON</text>
</a>
</g>
</g>
<!-- dir_e14b6f56da0f770cf537fc2113754b6e&#45;&gt;dir_2d98c6b8f23a5c53321666bdc86a2d6a -->
<g id="edge8" class="edge">
<title>dir_e14b6f56da0f770cf537fc2113754b6e&#45;&gt;dir_2d98c6b8f23a5c53321666bdc86a2d6a</title>
<path fill="none" stroke="black" d="M61.54,-287.56C67.65,-277.54 74.74,-264.51 79,-252 85.84,-231.92 89.36,-208.14 91.16,-190.21"/>
<polygon fill="black" stroke="black" points="94.66,-190.42 92.05,-180.15 87.68,-189.8 94.66,-190.42"/>
<g id="a_edge8&#45;headlabel"><a xlink:href="dir_000115_000141.html" target="_top" xlink:title="2">
<text text-anchor="middle" x="97.17" y="-191.75" font-family="FreeSans" font-size="10.00">2</text>
</a>
</g>
</g>
<!-- dir_4546011bd625f1142c4c4ae06dcdb5ba -->
<g id="node6" class="node">
<title>dir_4546011bd625f1142c4c4ae06dcdb5ba</title>
<g id="a_node6"><a xlink:href="dir_4546011bd625f1142c4c4ae06dcdb5ba.html" target="_top" xlink:title="Operators">
<polygon fill="white" stroke="red" points="250.5,-108 191.5,-108 191.5,-72 250.5,-72 250.5,-108"/>
<text text-anchor="middle" x="221" y="-87.5" font-family="FreeSans" font-size="10.00">Operators</text>
</a>
</g>
</g>
<!-- dir_e14b6f56da0f770cf537fc2113754b6e&#45;&gt;dir_4546011bd625f1142c4c4ae06dcdb5ba -->
<g id="edge9" class="edge">
<title>dir_e14b6f56da0f770cf537fc2113754b6e&#45;&gt;dir_4546011bd625f1142c4c4ae06dcdb5ba</title>
<path fill="none" stroke="black" d="M77.24,-304.67C113.92,-302.6 178.26,-292.93 210,-252 239.87,-213.48 234.22,-152.94 227.53,-118.12"/>
<polygon fill="black" stroke="black" points="230.93,-117.26 225.46,-108.19 224.08,-118.69 230.93,-117.26"/>
<g id="a_edge9&#45;headlabel"><a xlink:href="dir_000115_000089.html" target="_top" xlink:title="2">
<text text-anchor="middle" x="234.44" y="-117.7" font-family="FreeSans" font-size="10.00">2</text>
</a>
</g>
</g>
<!-- dir_91ae3e556fa9cad9030b784323206cc7 -->
<g id="node7" class="node">
<title>dir_91ae3e556fa9cad9030b784323206cc7</title>
<g id="a_node7"><a xlink:href="dir_91ae3e556fa9cad9030b784323206cc7.html" target="_top" xlink:title="Calibration">
<polygon fill="white" stroke="red" points="320,-180 258,-180 258,-144 320,-144 320,-180"/>
<text text-anchor="middle" x="289" y="-159.5" font-family="FreeSans" font-size="10.00">Calibration</text>
</a>
</g>
</g>
<!-- dir_e14b6f56da0f770cf537fc2113754b6e&#45;&gt;dir_91ae3e556fa9cad9030b784323206cc7 -->
<g id="edge10" class="edge">
<title>dir_e14b6f56da0f770cf537fc2113754b6e&#45;&gt;dir_91ae3e556fa9cad9030b784323206cc7</title>
<path fill="none" stroke="black" d="M77.26,-304.33C117.91,-301.97 194.91,-292.08 244,-252 263.42,-236.15 275.26,-209.76 281.89,-189.83"/>
<polygon fill="black" stroke="black" points="285.3,-190.67 284.9,-180.08 278.61,-188.61 285.3,-190.67"/>
<g id="a_edge10&#45;headlabel"><a xlink:href="dir_000115_000102.html" target="_top" xlink:title="1">
<text text-anchor="middle" x="286.95" y="-192.44" font-family="FreeSans" font-size="10.00">1</text>
</a>
</g>
</g>
<!-- dir_0c8523deb6301657d04bd2a03358f9f8&#45;&gt;dir_150f406a44a04ce55518da03ec553ece -->
<g id="edge12" class="edge">
<title>dir_0c8523deb6301657d04bd2a03358f9f8&#45;&gt;dir_150f406a44a04ce55518da03ec553ece</title>
<path fill="none" stroke="black" d="M165.84,-215.85C169.82,-178.83 179.24,-91.18 184.06,-46.39"/>
<polygon fill="black" stroke="black" points="187.56,-46.55 185.15,-36.23 180.6,-45.8 187.56,-46.55"/>
<g id="a_edge12&#45;headlabel"><a xlink:href="dir_000126_000086.html" target="_top" xlink:title="18">
<text text-anchor="middle" x="190" y="-47.93" font-family="FreeSans" font-size="10.00">18</text>
</a>
</g>
</g>
<!-- dir_0c8523deb6301657d04bd2a03358f9f8&#45;&gt;dir_2d98c6b8f23a5c53321666bdc86a2d6a -->
<g id="edge13" class="edge">
<title>dir_0c8523deb6301657d04bd2a03358f9f8&#45;&gt;dir_2d98c6b8f23a5c53321666bdc86a2d6a</title>
<path fill="none" stroke="black" d="M146.45,-215.7C137.77,-207.14 127.14,-196.66 117.65,-187.3"/>
<polygon fill="black" stroke="black" points="119.93,-184.63 110.35,-180.1 115.01,-189.62 119.93,-184.63"/>
<g id="a_edge13&#45;headlabel"><a xlink:href="dir_000126_000141.html" target="_top" xlink:title="2">
<text text-anchor="middle" x="124.48" y="-182.63" font-family="FreeSans" font-size="10.00">2</text>
</a>
</g>
</g>
<!-- dir_0c8523deb6301657d04bd2a03358f9f8&#45;&gt;dir_4546011bd625f1142c4c4ae06dcdb5ba -->
<g id="edge14" class="edge">
<title>dir_0c8523deb6301657d04bd2a03358f9f8&#45;&gt;dir_4546011bd625f1142c4c4ae06dcdb5ba</title>
<path fill="none" stroke="black" d="M170.88,-215.87C180.68,-191.46 198.75,-146.43 210.31,-117.64"/>
<polygon fill="black" stroke="black" points="213.62,-118.77 214.1,-108.19 207.13,-116.17 213.62,-118.77"/>
<g id="a_edge14&#45;headlabel"><a xlink:href="dir_000126_000089.html" target="_top" xlink:title="1">
<text text-anchor="middle" x="214.92" y="-120.67" font-family="FreeSans" font-size="10.00">1</text>
</a>
</g>
</g>
<!-- dir_0c8523deb6301657d04bd2a03358f9f8&#45;&gt;dir_91ae3e556fa9cad9030b784323206cc7 -->
<g id="edge15" class="edge">
<title>dir_0c8523deb6301657d04bd2a03358f9f8&#45;&gt;dir_91ae3e556fa9cad9030b784323206cc7</title>
<path fill="none" stroke="black" d="M194.58,-215.88C211.07,-206.64 231.62,-195.13 249.34,-185.21"/>
<polygon fill="black" stroke="black" points="251.29,-188.13 258.3,-180.19 247.87,-182.02 251.29,-188.13"/>
<g id="a_edge15&#45;headlabel"><a xlink:href="dir_000126_000102.html" target="_top" xlink:title="3">
<text text-anchor="middle" x="249.54" y="-189.86" font-family="FreeSans" font-size="10.00">3</text>
</a>
</g>
</g>
<!-- dir_2d98c6b8f23a5c53321666bdc86a2d6a&#45;&gt;dir_150f406a44a04ce55518da03ec553ece -->
<g id="edge5" class="edge">
<title>dir_2d98c6b8f23a5c53321666bdc86a2d6a&#45;&gt;dir_150f406a44a04ce55518da03ec553ece</title>
<path fill="none" stroke="black" d="M100.53,-143.91C108.99,-125.46 123.69,-95.56 140,-72 146.75,-62.25 155.09,-52.32 162.86,-43.73"/>
<polygon fill="black" stroke="black" points="165.55,-45.98 169.77,-36.27 160.41,-41.22 165.55,-45.98"/>
<g id="a_edge5&#45;headlabel"><a xlink:href="dir_000141_000086.html" target="_top" xlink:title="13">
<text text-anchor="middle" x="165.19" y="-48.05" font-family="FreeSans" font-size="10.00">13</text>
</a>
</g>
</g>
<!-- dir_4546011bd625f1142c4c4ae06dcdb5ba&#45;&gt;dir_150f406a44a04ce55518da03ec553ece -->
<g id="edge4" class="edge">
<title>dir_4546011bd625f1142c4c4ae06dcdb5ba&#45;&gt;dir_150f406a44a04ce55518da03ec553ece</title>
<path fill="none" stroke="black" d="M212.6,-71.7C208.73,-63.73 204.05,-54.1 199.76,-45.26"/>
<polygon fill="black" stroke="black" points="202.83,-43.57 195.31,-36.1 196.53,-46.63 202.83,-43.57"/>
<g id="a_edge4&#45;headlabel"><a xlink:href="dir_000089_000086.html" target="_top" xlink:title="5">
<text text-anchor="middle" x="206.95" y="-43.06" font-family="FreeSans" font-size="10.00">5</text>
</a>
</g>
</g>
<!-- dir_91ae3e556fa9cad9030b784323206cc7&#45;&gt;dir_150f406a44a04ce55518da03ec553ece -->
<g id="edge1" class="edge">
<title>dir_91ae3e556fa9cad9030b784323206cc7&#45;&gt;dir_150f406a44a04ce55518da03ec553ece</title>
<path fill="none" stroke="black" d="M286.4,-143.84C282.84,-124.79 274.96,-93.86 259,-72 249.48,-58.96 235.81,-47.77 222.94,-39.08"/>
<polygon fill="black" stroke="black" points="224.52,-35.93 214.21,-33.47 220.73,-41.82 224.52,-35.93"/>
<g id="a_edge1&#45;headlabel"><a xlink:href="dir_000102_000086.html" target="_top" xlink:title="29">
<text text-anchor="middle" x="229.08" y="-32.99" font-family="FreeSans" font-size="10.00">29</text>
</a>
</g>
</g>
<!-- dir_91ae3e556fa9cad9030b784323206cc7&#45;&gt;dir_4546011bd625f1142c4c4ae06dcdb5ba -->
<g id="edge2" class="edge">
<title>dir_91ae3e556fa9cad9030b784323206cc7&#45;&gt;dir_4546011bd625f1142c4c4ae06dcdb5ba</title>
<path fill="none" stroke="black" d="M272.19,-143.7C263.87,-135.14 253.69,-124.66 244.61,-115.3"/>
<polygon fill="black" stroke="black" points="247.09,-112.84 237.62,-108.1 242.07,-117.72 247.09,-112.84"/>
<g id="a_edge2&#45;headlabel"><a xlink:href="dir_000102_000089.html" target="_top" xlink:title="55">
<text text-anchor="middle" x="251.64" y="-110.94" font-family="FreeSans" font-size="10.00">55</text>
</a>
</g>
</g>
</g>
</svg>
