<?xml version="1.0" encoding="UTF-8" standalone="no"?>
<!DOCTYPE svg PUBLIC "-//W3C//DTD SVG 1.1//EN"
 "http://www.w3.org/Graphics/SVG/1.1/DTD/svg11.dtd">
<!-- Generated by graphviz version 2.43.0 (0)
 -->
<!-- Title: python_src Pages: 1 -->
<svg width="736pt" height="175pt"
 viewBox="0.00 0.00 736.00 175.00" xmlns="http://www.w3.org/2000/svg" xmlns:xlink="http://www.w3.org/1999/xlink">
<g id="graph0" class="graph" transform="scale(1 1) rotate(0) translate(4 171)">
<title>python_src</title>
<polygon fill="white" stroke="transparent" points="-4,4 -4,-171 732,-171 732,4 -4,4"/>
<g id="clust1" class="cluster">
<title>clusterdir_b2f33c71d4aa5e7af42a1ca61ff5af1b</title>
<g id="a_clust1"><a xlink:href="dir_b2f33c71d4aa5e7af42a1ca61ff5af1b.html" target="_top" xlink:title="source">
<polygon fill="#ddddee" stroke="black" points="8,-8 8,-159 720,-159 720,-8 8,-8"/>
<text text-anchor="middle" x="364" y="-147" font-family="FreeSans" font-size="10.00">source</text>
</a>
</g>
</g>
<g id="clust2" class="cluster">
<title>clusterdir_3a5cd54c2ec608c33032a11cbff54533</title>
<g id="a_clust2"><a xlink:href="dir_3a5cd54c2ec608c33032a11cbff54533.html" target="_top">
<polygon fill="#eeeeff" stroke="black" points="16,-80 16,-132 712,-132 712,-80 16,-80"/>
</a>
</g>
</g>
<!-- dir_0c6283dd7716efebfcf76fdb98d8e794 -->
<g id="node1" class="node">
<title>dir_0c6283dd7716efebfcf76fdb98d8e794</title>
<g id="a_node1"><a xlink:href="dir_0c6283dd7716efebfcf76fdb98d8e794.html" target="_top" xlink:title="c_src">
<polygon fill="white" stroke="red" points="605,-52 551,-52 551,-16 605,-16 605,-52"/>
<text text-anchor="middle" x="578" y="-31.5" font-family="FreeSans" font-size="10.00">c_src</text>
</a>
</g>
</g>
<!-- dir_3a5cd54c2ec608c33032a11cbff54533 -->
<g id="node2" class="node">
<title>dir_3a5cd54c2ec608c33032a11cbff54533</title>
<text text-anchor="middle" x="672" y="-103.5" font-family="FreeSans" font-size="10.00">python_src</text>
</g>
<!-- dir_3de3da6d4c9d65ab754731601bf39ce5 -->
<g id="node3" class="node">
<title>dir_3de3da6d4c9d65ab754731601bf39ce5</title>
<g id="a_node3"><a xlink:href="dir_3de3da6d4c9d65ab754731601bf39ce5.html" target="_top" xlink:title="ffcontrol_module">
<polygon fill="white" stroke="red" points="622,-124 534,-124 534,-88 622,-88 622,-124"/>
<text text-anchor="middle" x="578" y="-103.5" font-family="FreeSans" font-size="10.00">ffcontrol_module</text>
</a>
</g>
</g>
<!-- dir_3de3da6d4c9d65ab754731601bf39ce5&#45;&gt;dir_0c6283dd7716efebfcf76fdb98d8e794 -->
<g id="edge1" class="edge">
<title>dir_3de3da6d4c9d65ab754731601bf39ce5&#45;&gt;dir_0c6283dd7716efebfcf76fdb98d8e794</title>
<path fill="none" stroke="black" d="M578,-87.7C578,-79.98 578,-70.71 578,-62.11"/>
<polygon fill="black" stroke="black" points="581.5,-62.1 578,-52.1 574.5,-62.1 581.5,-62.1"/>
<g id="a_edge1&#45;headlabel"><a xlink:href="dir_000002_000013.html" target="_top" xlink:title="4">
<text text-anchor="middle" x="584.34" y="-63.2" font-family="FreeSans" font-size="10.00">4</text>
</a>
</g>
</g>
<!-- dir_469e060f35e382c6a6585929b393bdd7 -->
<g id="node4" class="node">
<title>dir_469e060f35e382c6a6585929b393bdd7</title>
<g id="a_node4"><a xlink:href="dir_469e060f35e382c6a6585929b393bdd7.html" target="_top" xlink:title="hops">
<polygon fill="white" stroke="black" points="516,-124 462,-124 462,-88 516,-88 516,-124"/>
<text text-anchor="middle" x="489" y="-103.5" font-family="FreeSans" font-size="10.00">hops</text>
</a>
</g>
</g>
<!-- dir_a8bbc854e9ceabd6883885b83f19bec2 -->
<g id="node5" class="node">
<title>dir_a8bbc854e9ceabd6883885b83f19bec2</title>
<g id="a_node5"><a xlink:href="dir_a8bbc854e9ceabd6883885b83f19bec2.html" target="_top" xlink:title="hops_io">
<polygon fill="white" stroke="black" points="444,-124 390,-124 390,-88 444,-88 444,-124"/>
<text text-anchor="middle" x="417" y="-103.5" font-family="FreeSans" font-size="10.00">hops_io</text>
</a>
</g>
</g>
<!-- dir_25097122e2659ae6b3db0658fc4c59df -->
<g id="node6" class="node">
<title>dir_25097122e2659ae6b3db0658fc4c59df</title>
<g id="a_node6"><a xlink:href="dir_25097122e2659ae6b3db0658fc4c59df.html" target="_top" xlink:title="hops_visualization">
<polygon fill="white" stroke="black" points="372,-124 276,-124 276,-88 372,-88 372,-124"/>
<text text-anchor="middle" x="324" y="-103.5" font-family="FreeSans" font-size="10.00">hops_visualization</text>
</a>
</g>
</g>
<!-- dir_746ab561e3f268ae19ded2e50e15eee2 -->
<g id="node7" class="node">
<title>dir_746ab561e3f268ae19ded2e50e15eee2</title>
<g id="a_node7"><a xlink:href="dir_746ab561e3f268ae19ded2e50e15eee2.html" target="_top" xlink:title="mk4_module">
<polygon fill="white" stroke="red" points="258,-124 186,-124 186,-88 258,-88 258,-124"/>
<text text-anchor="middle" x="222" y="-103.5" font-family="FreeSans" font-size="10.00">mk4_module</text>
</a>
</g>
</g>
<!-- dir_c75d96f515bbe54fee3a4ce4ed241cab -->
<g id="node8" class="node">
<title>dir_c75d96f515bbe54fee3a4ce4ed241cab</title>
<g id="a_node8"><a xlink:href="dir_c75d96f515bbe54fee3a4ce4ed241cab.html" target="_top" xlink:title="plugins">
<polygon fill="white" stroke="black" points="168,-124 114,-124 114,-88 168,-88 168,-124"/>
<text text-anchor="middle" x="141" y="-103.5" font-family="FreeSans" font-size="10.00">plugins</text>
</a>
</g>
</g>
<!-- dir_db22b67ef289fa976c0b6e3af50d2f49 -->
<g id="node9" class="node">
<title>dir_db22b67ef289fa976c0b6e3af50d2f49</title>
<g id="a_node9"><a xlink:href="dir_db22b67ef289fa976c0b6e3af50d2f49.html" target="_top" xlink:title="vpal_module">
<polygon fill="white" stroke="red" points="95.5,-124 24.5,-124 24.5,-88 95.5,-88 95.5,-124"/>
<text text-anchor="middle" x="60" y="-103.5" font-family="FreeSans" font-size="10.00">vpal_module</text>
</a>
</g>
</g>
</g>
</svg>
