<?xml version="1.0" encoding="UTF-8" standalone="no"?>
<!DOCTYPE svg PUBLIC "-//W3C//DTD SVG 1.1//EN"
 "http://www.w3.org/Graphics/SVG/1.1/DTD/svg11.dtd">
<!-- Generated by graphviz version 2.43.0 (0)
 -->
<!-- Title: src Pages: 1 -->
<svg width="188pt" height="223pt"
 viewBox="0.00 0.00 188.00 223.00" xmlns="http://www.w3.org/2000/svg" xmlns:xlink="http://www.w3.org/1999/xlink">
<g id="graph0" class="graph" transform="scale(1 1) rotate(0) translate(4 219)">
<title>src</title>
<polygon fill="white" stroke="transparent" points="-4,4 -4,-219 184,-219 184,4 -4,4"/>
<g id="clust1" class="cluster">
<title>clusterdir_637a76a7abf5a01e5c2aa724f3c1e96e</title>
<g id="a_clust1"><a xlink:href="dir_637a76a7abf5a01e5c2aa724f3c1e96e.html" target="_top" xlink:title="afio">
<polygon fill="#ddddee" stroke="black" points="8,-64 8,-207 78,-207 78,-64 8,-64"/>
<text text-anchor="middle" x="43" y="-195" font-family="FreeSans" font-size="10.00">afio</text>
</a>
</g>
</g>
<!-- dir_83c1a9c78d2f4f53a1ff6f61772b58f2 -->
<g id="node1" class="node">
<title>dir_83c1a9c78d2f4f53a1ff6f61772b58f2</title>
<g id="a_node1"><a xlink:href="dir_83c1a9c78d2f4f53a1ff6f61772b58f2.html" target="_top" xlink:title="include">
<polygon fill="none" stroke="black" points="70,-108 16,-108 16,-72 70,-72 70,-108"/>
<text text-anchor="middle" x="43" y="-87.5" font-family="FreeSans" font-size="10.00">include</text>
</a>
</g>
</g>
<!-- dir_a83f57f9bf6352142b006be3d76b0075 -->
<g id="node2" class="node">
<title>dir_a83f57f9bf6352142b006be3d76b0075</title>
<g id="a_node2"><a xlink:href="dir_a83f57f9bf6352142b006be3d76b0075.html" target="_top" xlink:title="src">
<polygon fill="#eeeeff" stroke="black" points="70,-180 16,-180 16,-144 70,-144 70,-180"/>
<text text-anchor="middle" x="43" y="-159.5" font-family="FreeSans" font-size="10.00">src</text>
</a>
</g>
</g>
<!-- dir_a83f57f9bf6352142b006be3d76b0075&#45;&gt;dir_83c1a9c78d2f4f53a1ff6f61772b58f2 -->
<g id="edge3" class="edge">
<title>dir_a83f57f9bf6352142b006be3d76b0075&#45;&gt;dir_83c1a9c78d2f4f53a1ff6f61772b58f2</title>
<path fill="none" stroke="black" d="M43,-143.7C43,-135.98 43,-126.71 43,-118.11"/>
<polygon fill="black" stroke="black" points="46.5,-118.1 43,-108.1 39.5,-118.1 46.5,-118.1"/>
<g id="a_edge3&#45;headlabel"><a xlink:href="dir_000033_000023.html" target="_top" xlink:title="38">
<text text-anchor="middle" x="49.34" y="-119.2" font-family="FreeSans" font-size="10.00">38</text>
</a>
</g>
</g>
<!-- dir_758df28fbdbb54fb46d6d3d6484a4984 -->
<g id="node3" class="node">
<title>dir_758df28fbdbb54fb46d6d3d6484a4984</title>
<g id="a_node3"><a xlink:href="dir_758df28fbdbb54fb46d6d3d6484a4984.html" target="_top" xlink:title="msg">
<polygon fill="white" stroke="red" points="152,-36 98,-36 98,0 152,0 152,-36"/>
<text text-anchor="middle" x="125" y="-15.5" font-family="FreeSans" font-size="10.00">msg</text>
</a>
</g>
</g>
<!-- dir_a83f57f9bf6352142b006be3d76b0075&#45;&gt;dir_758df28fbdbb54fb46d6d3d6484a4984 -->
<g id="edge2" class="edge">
<title>dir_a83f57f9bf6352142b006be3d76b0075&#45;&gt;dir_758df28fbdbb54fb46d6d3d6484a4984</title>
<path fill="none" stroke="black" d="M55.54,-143.68C62.72,-133.48 71.72,-120.23 79,-108 91.23,-87.44 103.6,-63.29 112.42,-45.33"/>
<polygon fill="black" stroke="black" points="115.71,-46.58 116.94,-36.06 109.42,-43.52 115.71,-46.58"/>
<g id="a_edge2&#45;headlabel"><a xlink:href="dir_000033_000144.html" target="_top" xlink:title="1">
<text text-anchor="middle" x="116.69" y="-48.56" font-family="FreeSans" font-size="10.00">1</text>
</a>
</g>
</g>
<!-- dir_cb2d4e92f47691559fc9d122a5e37fac -->
<g id="node4" class="node">
<title>dir_cb2d4e92f47691559fc9d122a5e37fac</title>
<g id="a_node4"><a xlink:href="dir_cb2d4e92f47691559fc9d122a5e37fac.html" target="_top" xlink:title="mk4util">
<polygon fill="white" stroke="red" points="180,-108 126,-108 126,-72 180,-72 180,-108"/>
<text text-anchor="middle" x="153" y="-87.5" font-family="FreeSans" font-size="10.00">mk4util</text>
</a>
</g>
</g>
<!-- dir_a83f57f9bf6352142b006be3d76b0075&#45;&gt;dir_cb2d4e92f47691559fc9d122a5e37fac -->
<g id="edge4" class="edge">
<title>dir_a83f57f9bf6352142b006be3d76b0075&#45;&gt;dir_cb2d4e92f47691559fc9d122a5e37fac</title>
<path fill="none" stroke="black" d="M69.91,-143.88C84.16,-134.81 101.85,-123.55 117.24,-113.76"/>
<polygon fill="black" stroke="black" points="119.43,-116.51 125.99,-108.19 115.67,-110.61 119.43,-116.51"/>
<g id="a_edge4&#45;headlabel"><a xlink:href="dir_000033_000014.html" target="_top" xlink:title="17">
<text text-anchor="middle" x="117.92" y="-118.34" font-family="FreeSans" font-size="10.00">17</text>
</a>
</g>
</g>
<!-- dir_cb2d4e92f47691559fc9d122a5e37fac&#45;&gt;dir_758df28fbdbb54fb46d6d3d6484a4984 -->
<g id="edge1" class="edge">
<title>dir_cb2d4e92f47691559fc9d122a5e37fac&#45;&gt;dir_758df28fbdbb54fb46d6d3d6484a4984</title>
<path fill="none" stroke="black" d="M146.08,-71.7C142.93,-63.81 139.12,-54.3 135.62,-45.55"/>
<polygon fill="black" stroke="black" points="138.81,-44.09 131.84,-36.1 132.31,-46.69 138.81,-44.09"/>
<g id="a_edge1&#45;headlabel"><a xlink:href="dir_000014_000144.html" target="_top" xlink:title="3">
<text text-anchor="middle" x="142.78" y="-43.87" font-family="FreeSans" font-size="10.00">3</text>
</a>
</g>
</g>
</g>
</svg>
