<?xml version="1.0" encoding="UTF-8" standalone="no"?>
<!DOCTYPE svg PUBLIC "-//W3C//DTD SVG 1.1//EN"
 "http://www.w3.org/Graphics/SVG/1.1/DTD/svg11.dtd">
<!-- Generated by graphviz version 2.43.0 (0)
 -->
<!-- Title: Message Pages: 1 -->
<svg width="184pt" height="183pt"
 viewBox="0.00 0.00 184.00 183.00" xmlns="http://www.w3.org/2000/svg" xmlns:xlink="http://www.w3.org/1999/xlink">
<g id="graph0" class="graph" transform="scale(1 1) rotate(0) translate(4 179)">
<title>Message</title>
<polygon fill="white" stroke="transparent" points="-4,4 -4,-179 180,-179 180,4 -4,4"/>
<g id="clust1" class="cluster">
<title>clusterdir_730935399589b544a579302a37a46c03</title>
<g id="a_clust1"><a xlink:href="dir_730935399589b544a579302a37a46c03.html" target="_top" xlink:title="cpp_src">
<polygon fill="#ddddee" stroke="black" points="8,-8 8,-167 168,-167 168,-8 8,-8"/>
<text text-anchor="middle" x="88" y="-155" font-family="FreeSans" font-size="10.00">cpp_src</text>
</a>
</g>
</g>
<g id="clust2" class="cluster">
<title>clusterdir_32348ece3c89569e6a714937ae854c89</title>
<g id="a_clust2"><a xlink:href="dir_32348ece3c89569e6a714937ae854c89.html" target="_top">
<polygon fill="#eeeeff" stroke="black" points="16,-16 16,-140 160,-140 160,-16 16,-16"/>
</a>
</g>
</g>
<!-- dir_32348ece3c89569e6a714937ae854c89 -->
<g id="node1" class="node">
<title>dir_32348ece3c89569e6a714937ae854c89</title>
<text text-anchor="middle" x="124" y="-111.5" font-family="FreeSans" font-size="10.00">Message</text>
</g>
<!-- dir_97c56eb6a7eb3868ca1aa467eb57ec16 -->
<g id="node2" class="node">
<title>dir_97c56eb6a7eb3868ca1aa467eb57ec16</title>
<g id="a_node2"><a xlink:href="dir_97c56eb6a7eb3868ca1aa467eb57ec16.html" target="_top" xlink:title="include">
<polygon fill="white" stroke="black" points="78,-60 24,-60 24,-24 78,-24 78,-60"/>
<text text-anchor="middle" x="51" y="-39.5" font-family="FreeSans" font-size="10.00">include</text>
</a>
</g>
</g>
<!-- dir_ed44d1f1ab18b49dbf8f836dbec307fd -->
<g id="node3" class="node">
<title>dir_ed44d1f1ab18b49dbf8f836dbec307fd</title>
<g id="a_node3"><a xlink:href="dir_ed44d1f1ab18b49dbf8f836dbec307fd.html" target="_top" xlink:title="src">
<polygon fill="white" stroke="black" points="78,-132 24,-132 24,-96 78,-96 78,-132"/>
<text text-anchor="middle" x="51" y="-111.5" font-family="FreeSans" font-size="10.00">src</text>
</a>
</g>
</g>
<!-- dir_ed44d1f1ab18b49dbf8f836dbec307fd&#45;&gt;dir_97c56eb6a7eb3868ca1aa467eb57ec16 -->
<g id="edge1" class="edge">
<title>dir_ed44d1f1ab18b49dbf8f836dbec307fd&#45;&gt;dir_97c56eb6a7eb3868ca1aa467eb57ec16</title>
<path fill="none" stroke="black" d="M51,-95.7C51,-87.98 51,-78.71 51,-70.11"/>
<polygon fill="black" stroke="black" points="54.5,-70.1 51,-60.1 47.5,-70.1 54.5,-70.1"/>
<g id="a_edge1&#45;headlabel"><a xlink:href="dir_000124_000125.html" target="_top" xlink:title="3">
<text text-anchor="middle" x="57.34" y="-71.2" font-family="FreeSans" font-size="10.00">3</text>
</a>
</g>
</g>
</g>
</svg>
