<?xml version="1.0" encoding="UTF-8" standalone="no"?>
<!DOCTYPE svg PUBLIC "-//W3C//DTD SVG 1.1//EN"
 "http://www.w3.org/Graphics/SVG/1.1/DTD/svg11.dtd">
<!-- Generated by graphviz version 2.43.0 (0)
 -->
<!-- Title: msg Pages: 1 -->
<svg width="182pt" height="183pt"
 viewBox="0.00 0.00 182.00 183.00" xmlns="http://www.w3.org/2000/svg" xmlns:xlink="http://www.w3.org/1999/xlink">
<g id="graph0" class="graph" transform="scale(1 1) rotate(0) translate(4 179)">
<title>msg</title>
<polygon fill="white" stroke="transparent" points="-4,4 -4,-179 178,-179 178,4 -4,4"/>
<g id="clust1" class="cluster">
<title>clusterdir_0c6283dd7716efebfcf76fdb98d8e794</title>
<g id="a_clust1"><a xlink:href="dir_0c6283dd7716efebfcf76fdb98d8e794.html" target="_top" xlink:title="c_src">
<polygon fill="#ddddee" stroke="black" points="8,-8 8,-167 166,-167 166,-8 8,-8"/>
<text text-anchor="middle" x="87" y="-155" font-family="FreeSans" font-size="10.00">c_src</text>
</a>
</g>
</g>
<g id="clust2" class="cluster">
<title>clusterdir_758df28fbdbb54fb46d6d3d6484a4984</title>
<g id="a_clust2"><a xlink:href="dir_758df28fbdbb54fb46d6d3d6484a4984.html" target="_top">
<polygon fill="#eeeeff" stroke="black" points="16,-16 16,-140 158,-140 158,-16 16,-16"/>
</a>
</g>
</g>
<!-- dir_758df28fbdbb54fb46d6d3d6484a4984 -->
<g id="node1" class="node">
<title>dir_758df28fbdbb54fb46d6d3d6484a4984</title>
<text text-anchor="middle" x="123" y="-111.5" font-family="FreeSans" font-size="10.00">msg</text>
</g>
<!-- dir_f71fbfcbdfbf3d8d2cc833abd9a083a5 -->
<g id="node2" class="node">
<title>dir_f71fbfcbdfbf3d8d2cc833abd9a083a5</title>
<g id="a_node2"><a xlink:href="dir_f71fbfcbdfbf3d8d2cc833abd9a083a5.html" target="_top" xlink:title="include">
<polygon fill="white" stroke="black" points="78,-60 24,-60 24,-24 78,-24 78,-60"/>
<text text-anchor="middle" x="51" y="-39.5" font-family="FreeSans" font-size="10.00">include</text>
</a>
</g>
</g>
<!-- dir_e746f905d797c24d086b2e28c10a952a -->
<g id="node3" class="node">
<title>dir_e746f905d797c24d086b2e28c10a952a</title>
<g id="a_node3"><a xlink:href="dir_e746f905d797c24d086b2e28c10a952a.html" target="_top" xlink:title="src">
<polygon fill="white" stroke="black" points="78,-132 24,-132 24,-96 78,-96 78,-132"/>
<text text-anchor="middle" x="51" y="-111.5" font-family="FreeSans" font-size="10.00">src</text>
</a>
</g>
</g>
<!-- dir_e746f905d797c24d086b2e28c10a952a&#45;&gt;dir_f71fbfcbdfbf3d8d2cc833abd9a083a5 -->
<g id="edge1" class="edge">
<title>dir_e746f905d797c24d086b2e28c10a952a&#45;&gt;dir_f71fbfcbdfbf3d8d2cc833abd9a083a5</title>
<path fill="none" stroke="black" d="M51,-95.7C51,-87.98 51,-78.71 51,-70.11"/>
<polygon fill="black" stroke="black" points="54.5,-70.1 51,-60.1 47.5,-70.1 54.5,-70.1"/>
<g id="a_edge1&#45;headlabel"><a xlink:href="dir_000145_000146.html" target="_top" xlink:title="1">
<text text-anchor="middle" x="57.34" y="-71.2" font-family="FreeSans" font-size="10.00">1</text>
</a>
</g>
</g>
</g>
</svg>
