<?xml version="1.0" encoding="UTF-8" standalone="no"?>
<!DOCTYPE svg PUBLIC "-//W3C//DTD SVG 1.1//EN"
 "http://www.w3.org/Graphics/SVG/1.1/DTD/svg11.dtd">
<!-- Generated by graphviz version 2.43.0 (0)
 -->
<!-- Title: src Pages: 1 -->
<svg width="405pt" height="367pt"
 viewBox="0.00 0.00 404.89 367.00" xmlns="http://www.w3.org/2000/svg" xmlns:xlink="http://www.w3.org/1999/xlink">
<g id="graph0" class="graph" transform="scale(1 1) rotate(0) translate(4 363)">
<title>src</title>
<polygon fill="white" stroke="transparent" points="-4,4 -4,-363 400.89,-363 400.89,4 -4,4"/>
<g id="clust1" class="cluster">
<title>clusterdir_0908837483934fe24781ea7898fec311</title>
<g id="a_clust1"><a xlink:href="dir_0908837483934fe24781ea7898fec311.html" target="_top" xlink:title="ffcore">
<polygon fill="#ddddee" stroke="black" points="262.89,-208 262.89,-351 332.89,-351 332.89,-208 262.89,-208"/>
<text text-anchor="middle" x="297.89" y="-339" font-family="FreeSans" font-size="10.00">ffcore</text>
</a>
</g>
</g>
<!-- dir_4e5eb980a71e397b231e9099679fb09d -->
<g id="node1" class="node">
<title>dir_4e5eb980a71e397b231e9099679fb09d</title>
<g id="a_node1"><a xlink:href="dir_4e5eb980a71e397b231e9099679fb09d.html" target="_top" xlink:title="include">
<polygon fill="none" stroke="black" points="324.89,-252 270.89,-252 270.89,-216 324.89,-216 324.89,-252"/>
<text text-anchor="middle" x="297.89" y="-231.5" font-family="FreeSans" font-size="10.00">include</text>
</a>
</g>
</g>
<!-- dir_cb2d4e92f47691559fc9d122a5e37fac -->
<g id="node7" class="node">
<title>dir_cb2d4e92f47691559fc9d122a5e37fac</title>
<g id="a_node7"><a xlink:href="dir_cb2d4e92f47691559fc9d122a5e37fac.html" target="_top" xlink:title="mk4util">
<polygon fill="white" stroke="red" points="231.89,-108 177.89,-108 177.89,-72 231.89,-72 231.89,-108"/>
<text text-anchor="middle" x="204.89" y="-87.5" font-family="FreeSans" font-size="10.00">mk4util</text>
</a>
</g>
</g>
<!-- dir_4e5eb980a71e397b231e9099679fb09d&#45;&gt;dir_cb2d4e92f47691559fc9d122a5e37fac -->
<g id="edge16" class="edge">
<title>dir_4e5eb980a71e397b231e9099679fb09d&#45;&gt;dir_cb2d4e92f47691559fc9d122a5e37fac</title>
<path fill="none" stroke="black" d="M286.09,-215.89C279.01,-205.55 269.85,-192.07 261.89,-180 247.95,-158.87 232.48,-134.67 221.18,-116.84"/>
<polygon fill="black" stroke="black" points="223.98,-114.73 215.68,-108.15 218.07,-118.47 223.98,-114.73"/>
<g id="a_edge16&#45;headlabel"><a xlink:href="dir_000070_000014.html" target="_top" xlink:title="5">
<text text-anchor="middle" x="228.3" y="-113.75" font-family="FreeSans" font-size="10.00">5</text>
</a>
</g>
</g>
<!-- dir_db8d68003073a61b7114dbc4f792cfed -->
<g id="node8" class="node">
<title>dir_db8d68003073a61b7114dbc4f792cfed</title>
<g id="a_node8"><a xlink:href="dir_db8d68003073a61b7114dbc4f792cfed.html" target="_top" xlink:title="dfio">
<polygon fill="white" stroke="red" points="176.89,-180 122.89,-180 122.89,-144 176.89,-144 176.89,-180"/>
<text text-anchor="middle" x="149.89" y="-159.5" font-family="FreeSans" font-size="10.00">dfio</text>
</a>
</g>
</g>
<!-- dir_4e5eb980a71e397b231e9099679fb09d&#45;&gt;dir_db8d68003073a61b7114dbc4f792cfed -->
<g id="edge17" class="edge">
<title>dir_4e5eb980a71e397b231e9099679fb09d&#45;&gt;dir_db8d68003073a61b7114dbc4f792cfed</title>
<path fill="none" stroke="black" d="M270.74,-220.16C247.03,-208.95 212.42,-192.58 186.31,-180.23"/>
<polygon fill="black" stroke="black" points="187.65,-176.99 177.11,-175.88 184.65,-183.32 187.65,-176.99"/>
<g id="a_edge17&#45;headlabel"><a xlink:href="dir_000070_000024.html" target="_top" xlink:title="2">
<text text-anchor="middle" x="192.11" y="-173.46" font-family="FreeSans" font-size="10.00">2</text>
</a>
</g>
</g>
<!-- dir_f79eaa419c9665ed0522066c5c6851c4 -->
<g id="node9" class="node">
<title>dir_f79eaa419c9665ed0522066c5c6851c4</title>
<g id="a_node9"><a xlink:href="dir_f79eaa419c9665ed0522066c5c6851c4.html" target="_top" xlink:title="ffcontrol">
<polygon fill="white" stroke="red" points="396.89,-180 342.89,-180 342.89,-144 396.89,-144 396.89,-180"/>
<text text-anchor="middle" x="369.89" y="-159.5" font-family="FreeSans" font-size="10.00">ffcontrol</text>
</a>
</g>
</g>
<!-- dir_4e5eb980a71e397b231e9099679fb09d&#45;&gt;dir_f79eaa419c9665ed0522066c5c6851c4 -->
<g id="edge18" class="edge">
<title>dir_4e5eb980a71e397b231e9099679fb09d&#45;&gt;dir_f79eaa419c9665ed0522066c5c6851c4</title>
<path fill="none" stroke="black" d="M315.68,-215.7C324.49,-207.14 335.27,-196.66 344.89,-187.3"/>
<polygon fill="black" stroke="black" points="347.56,-189.58 352.29,-180.1 342.68,-184.57 347.56,-189.58"/>
<g id="a_edge18&#45;headlabel"><a xlink:href="dir_000070_000054.html" target="_top" xlink:title="1">
<text text-anchor="middle" x="346.97" y="-191.63" font-family="FreeSans" font-size="10.00">1</text>
</a>
</g>
</g>
<!-- dir_653940da78d5cd2d06d03ea837d595e5 -->
<g id="node2" class="node">
<title>dir_653940da78d5cd2d06d03ea837d595e5</title>
<g id="a_node2"><a xlink:href="dir_653940da78d5cd2d06d03ea837d595e5.html" target="_top" xlink:title="src">
<polygon fill="#eeeeff" stroke="black" points="324.89,-324 270.89,-324 270.89,-288 324.89,-288 324.89,-324"/>
<text text-anchor="middle" x="297.89" y="-303.5" font-family="FreeSans" font-size="10.00">src</text>
</a>
</g>
</g>
<!-- dir_653940da78d5cd2d06d03ea837d595e5&#45;&gt;dir_4e5eb980a71e397b231e9099679fb09d -->
<g id="edge1" class="edge">
<title>dir_653940da78d5cd2d06d03ea837d595e5&#45;&gt;dir_4e5eb980a71e397b231e9099679fb09d</title>
<path fill="none" stroke="black" d="M297.89,-287.7C297.89,-279.98 297.89,-270.71 297.89,-262.11"/>
<polygon fill="black" stroke="black" points="301.39,-262.1 297.89,-252.1 294.39,-262.1 301.39,-262.1"/>
<g id="a_edge1&#45;headlabel"><a xlink:href="dir_000048_000070.html" target="_top" xlink:title="36">
<text text-anchor="middle" x="304.23" y="-263.2" font-family="FreeSans" font-size="10.00">36</text>
</a>
</g>
</g>
<!-- dir_637a76a7abf5a01e5c2aa724f3c1e96e -->
<g id="node3" class="node">
<title>dir_637a76a7abf5a01e5c2aa724f3c1e96e</title>
<g id="a_node3"><a xlink:href="dir_637a76a7abf5a01e5c2aa724f3c1e96e.html" target="_top" xlink:title="afio">
<polygon fill="white" stroke="red" points="324.89,-180 270.89,-180 270.89,-144 324.89,-144 324.89,-180"/>
<text text-anchor="middle" x="297.89" y="-159.5" font-family="FreeSans" font-size="10.00">afio</text>
</a>
</g>
</g>
<!-- dir_653940da78d5cd2d06d03ea837d595e5&#45;&gt;dir_637a76a7abf5a01e5c2aa724f3c1e96e -->
<g id="edge2" class="edge">
<title>dir_653940da78d5cd2d06d03ea837d595e5&#45;&gt;dir_637a76a7abf5a01e5c2aa724f3c1e96e</title>
<path fill="none" stroke="black" d="M282.28,-287.77C274.51,-278.03 265.94,-265.18 261.89,-252 256.14,-233.31 255.41,-226.45 261.89,-208 264.39,-200.86 268.56,-194.01 273.19,-187.91"/>
<polygon fill="black" stroke="black" points="275.98,-190.01 279.67,-180.08 270.59,-185.55 275.98,-190.01"/>
<g id="a_edge2&#45;headlabel"><a xlink:href="dir_000048_000022.html" target="_top" xlink:title="2">
<text text-anchor="middle" x="275.88" y="-192.09" font-family="FreeSans" font-size="10.00">2</text>
</a>
</g>
</g>
<!-- dir_64078e4dd55db1ba2b4e557207803e4b -->
<g id="node4" class="node">
<title>dir_64078e4dd55db1ba2b4e557207803e4b</title>
<g id="a_node4"><a xlink:href="dir_64078e4dd55db1ba2b4e557207803e4b.html" target="_top" xlink:title="vex">
<polygon fill="white" stroke="red" points="66.89,-180 12.89,-180 12.89,-144 66.89,-144 66.89,-180"/>
<text text-anchor="middle" x="39.89" y="-159.5" font-family="FreeSans" font-size="10.00">vex</text>
</a>
</g>
</g>
<!-- dir_653940da78d5cd2d06d03ea837d595e5&#45;&gt;dir_64078e4dd55db1ba2b4e557207803e4b -->
<g id="edge3" class="edge">
<title>dir_653940da78d5cd2d06d03ea837d595e5&#45;&gt;dir_64078e4dd55db1ba2b4e557207803e4b</title>
<path fill="none" stroke="black" d="M270.66,-301.64C218.07,-294.67 105.1,-277.13 75.89,-252 57.68,-236.34 48.56,-210.11 44.07,-190.17"/>
<polygon fill="black" stroke="black" points="47.46,-189.25 42.07,-180.13 40.59,-190.62 47.46,-189.25"/>
<g id="a_edge3&#45;headlabel"><a xlink:href="dir_000048_000044.html" target="_top" xlink:title="7">
<text text-anchor="middle" x="50.94" y="-189.72" font-family="FreeSans" font-size="10.00">7</text>
</a>
</g>
</g>
<!-- dir_758df28fbdbb54fb46d6d3d6484a4984 -->
<g id="node5" class="node">
<title>dir_758df28fbdbb54fb46d6d3d6484a4984</title>
<g id="a_node5"><a xlink:href="dir_758df28fbdbb54fb46d6d3d6484a4984.html" target="_top" xlink:title="msg">
<polygon fill="white" stroke="red" points="176.89,-36 122.89,-36 122.89,0 176.89,0 176.89,-36"/>
<text text-anchor="middle" x="149.89" y="-15.5" font-family="FreeSans" font-size="10.00">msg</text>
</a>
</g>
</g>
<!-- dir_653940da78d5cd2d06d03ea837d595e5&#45;&gt;dir_758df28fbdbb54fb46d6d3d6484a4984 -->
<g id="edge4" class="edge">
<title>dir_653940da78d5cd2d06d03ea837d595e5&#45;&gt;dir_758df28fbdbb54fb46d6d3d6484a4984</title>
<path fill="none" stroke="black" d="M270.47,-302.06C212.9,-295.44 81.78,-277.9 45.89,-252 15.84,-230.32 13.55,-215.76 3.89,-180 -10.07,-128.38 16.94,-107.54 56.89,-72 73.67,-57.06 95.35,-44.41 113.56,-35.22"/>
<polygon fill="black" stroke="black" points="115.27,-38.28 122.71,-30.73 112.19,-31.99 115.27,-38.28"/>
<g id="a_edge4&#45;headlabel"><a xlink:href="dir_000048_000144.html" target="_top" xlink:title="18">
<text text-anchor="middle" x="113.29" y="-39.91" font-family="FreeSans" font-size="10.00">18</text>
</a>
</g>
</g>
<!-- dir_85c02f264b7a99962a0503cb6605bebc -->
<g id="node6" class="node">
<title>dir_85c02f264b7a99962a0503cb6605bebc</title>
<g id="a_node6"><a xlink:href="dir_85c02f264b7a99962a0503cb6605bebc.html" target="_top" xlink:title="ffmath">
<polygon fill="white" stroke="red" points="138.89,-252 84.89,-252 84.89,-216 138.89,-216 138.89,-252"/>
<text text-anchor="middle" x="111.89" y="-231.5" font-family="FreeSans" font-size="10.00">ffmath</text>
</a>
</g>
</g>
<!-- dir_653940da78d5cd2d06d03ea837d595e5&#45;&gt;dir_85c02f264b7a99962a0503cb6605bebc -->
<g id="edge5" class="edge">
<title>dir_653940da78d5cd2d06d03ea837d595e5&#45;&gt;dir_85c02f264b7a99962a0503cb6605bebc</title>
<path fill="none" stroke="black" d="M270.77,-295.48C241.54,-285.12 193.72,-267.92 152.89,-252 151.5,-251.46 150.08,-250.9 148.65,-250.33"/>
<polygon fill="black" stroke="black" points="149.75,-247 139.17,-246.5 147.13,-253.49 149.75,-247"/>
<g id="a_edge5&#45;headlabel"><a xlink:href="dir_000048_000037.html" target="_top" xlink:title="2">
<text text-anchor="middle" x="154.15" y="-243.22" font-family="FreeSans" font-size="10.00">2</text>
</a>
</g>
</g>
<!-- dir_653940da78d5cd2d06d03ea837d595e5&#45;&gt;dir_cb2d4e92f47691559fc9d122a5e37fac -->
<g id="edge6" class="edge">
<title>dir_653940da78d5cd2d06d03ea837d595e5&#45;&gt;dir_cb2d4e92f47691559fc9d122a5e37fac</title>
<path fill="none" stroke="black" d="M280.02,-287.75C270.8,-278 260.02,-265.16 252.89,-252 229.18,-208.27 215.75,-151.35 209.44,-118.23"/>
<polygon fill="black" stroke="black" points="212.87,-117.56 207.63,-108.35 205.99,-118.82 212.87,-117.56"/>
<g id="a_edge6&#45;headlabel"><a xlink:href="dir_000048_000014.html" target="_top" xlink:title="14">
<text text-anchor="middle" x="216.31" y="-118.09" font-family="FreeSans" font-size="10.00">14</text>
</a>
</g>
</g>
<!-- dir_653940da78d5cd2d06d03ea837d595e5&#45;&gt;dir_db8d68003073a61b7114dbc4f792cfed -->
<g id="edge7" class="edge">
<title>dir_653940da78d5cd2d06d03ea837d595e5&#45;&gt;dir_db8d68003073a61b7114dbc4f792cfed</title>
<path fill="none" stroke="black" d="M270.6,-297.21C246.9,-289.23 213,-274.74 190.89,-252 174,-234.63 163.21,-209.04 156.97,-189.76"/>
<polygon fill="black" stroke="black" points="160.27,-188.61 154.03,-180.06 153.58,-190.64 160.27,-188.61"/>
<g id="a_edge7&#45;headlabel"><a xlink:href="dir_000048_000024.html" target="_top" xlink:title="18">
<text text-anchor="middle" x="164.03" y="-188.73" font-family="FreeSans" font-size="10.00">18</text>
</a>
</g>
</g>
<!-- dir_653940da78d5cd2d06d03ea837d595e5&#45;&gt;dir_f79eaa419c9665ed0522066c5c6851c4 -->
<g id="edge8" class="edge">
<title>dir_653940da78d5cd2d06d03ea837d595e5&#45;&gt;dir_f79eaa419c9665ed0522066c5c6851c4</title>
<path fill="none" stroke="black" d="M310.86,-287.92C318.18,-277.81 327.18,-264.56 333.89,-252 344.64,-231.87 354.18,-207.82 360.74,-189.8"/>
<polygon fill="black" stroke="black" points="364.1,-190.81 364.15,-180.21 357.5,-188.46 364.1,-190.81"/>
<g id="a_edge8&#45;headlabel"><a xlink:href="dir_000048_000054.html" target="_top" xlink:title="12">
<text text-anchor="middle" x="365.56" y="-192.65" font-family="FreeSans" font-size="10.00">12</text>
</a>
</g>
</g>
<!-- dir_637a76a7abf5a01e5c2aa724f3c1e96e&#45;&gt;dir_758df28fbdbb54fb46d6d3d6484a4984 -->
<g id="edge20" class="edge">
<title>dir_637a76a7abf5a01e5c2aa724f3c1e96e&#45;&gt;dir_758df28fbdbb54fb46d6d3d6484a4984</title>
<path fill="none" stroke="black" d="M290.03,-143.9C280.52,-124.62 263.01,-93.2 240.89,-72 225.04,-56.81 204.04,-44.21 186.21,-35.11"/>
<polygon fill="black" stroke="black" points="187.73,-31.96 177.21,-30.68 184.63,-38.24 187.73,-31.96"/>
<g id="a_edge20&#45;headlabel"><a xlink:href="dir_000022_000144.html" target="_top" xlink:title="1">
<text text-anchor="middle" x="192.21" y="-28.5" font-family="FreeSans" font-size="10.00">1</text>
</a>
</g>
</g>
<!-- dir_637a76a7abf5a01e5c2aa724f3c1e96e&#45;&gt;dir_cb2d4e92f47691559fc9d122a5e37fac -->
<g id="edge19" class="edge">
<title>dir_637a76a7abf5a01e5c2aa724f3c1e96e&#45;&gt;dir_cb2d4e92f47691559fc9d122a5e37fac</title>
<path fill="none" stroke="black" d="M274.9,-143.7C263.07,-134.8 248.49,-123.82 235.71,-114.2"/>
<polygon fill="black" stroke="black" points="237.71,-111.32 227.61,-108.1 233.5,-116.91 237.71,-111.32"/>
<g id="a_edge19&#45;headlabel"><a xlink:href="dir_000022_000014.html" target="_top" xlink:title="17">
<text text-anchor="middle" x="242.28" y="-108.71" font-family="FreeSans" font-size="10.00">17</text>
</a>
</g>
</g>
<!-- dir_64078e4dd55db1ba2b4e557207803e4b&#45;&gt;dir_758df28fbdbb54fb46d6d3d6484a4984 -->
<g id="edge9" class="edge">
<title>dir_64078e4dd55db1ba2b4e557207803e4b&#45;&gt;dir_758df28fbdbb54fb46d6d3d6484a4984</title>
<path fill="none" stroke="black" d="M44.99,-143.92C51.26,-124.94 63.27,-94.07 80.89,-72 90.21,-60.32 102.64,-49.74 114.38,-41.17"/>
<polygon fill="black" stroke="black" points="116.58,-43.91 122.75,-35.29 112.56,-38.18 116.58,-43.91"/>
<g id="a_edge9&#45;headlabel"><a xlink:href="dir_000044_000144.html" target="_top" xlink:title="1">
<text text-anchor="middle" x="115.27" y="-45.79" font-family="FreeSans" font-size="10.00">1</text>
</a>
</g>
</g>
<!-- dir_64078e4dd55db1ba2b4e557207803e4b&#45;&gt;dir_cb2d4e92f47691559fc9d122a5e37fac -->
<g id="edge10" class="edge">
<title>dir_64078e4dd55db1ba2b4e557207803e4b&#45;&gt;dir_cb2d4e92f47691559fc9d122a5e37fac</title>
<path fill="none" stroke="black" d="M67.13,-149.44C94.8,-137.7 137.82,-119.45 168.41,-106.47"/>
<polygon fill="black" stroke="black" points="170.03,-109.59 177.87,-102.46 167.3,-103.14 170.03,-109.59"/>
<g id="a_edge10&#45;headlabel"><a xlink:href="dir_000044_000014.html" target="_top" xlink:title="76">
<text text-anchor="middle" x="167.83" y="-111.11" font-family="FreeSans" font-size="10.00">76</text>
</a>
</g>
</g>
<!-- dir_85c02f264b7a99962a0503cb6605bebc&#45;&gt;dir_758df28fbdbb54fb46d6d3d6484a4984 -->
<g id="edge14" class="edge">
<title>dir_85c02f264b7a99962a0503cb6605bebc&#45;&gt;dir_758df28fbdbb54fb46d6d3d6484a4984</title>
<path fill="none" stroke="black" d="M110.97,-215.82C110.31,-197.82 110.11,-168.75 113.89,-144 119.19,-109.27 131.34,-70.59 140.06,-45.59"/>
<polygon fill="black" stroke="black" points="143.39,-46.67 143.44,-36.08 136.79,-44.32 143.39,-46.67"/>
<g id="a_edge14&#45;headlabel"><a xlink:href="dir_000037_000144.html" target="_top" xlink:title="3">
<text text-anchor="middle" x="144.86" y="-48.51" font-family="FreeSans" font-size="10.00">3</text>
</a>
</g>
</g>
<!-- dir_85c02f264b7a99962a0503cb6605bebc&#45;&gt;dir_db8d68003073a61b7114dbc4f792cfed -->
<g id="edge13" class="edge">
<title>dir_85c02f264b7a99962a0503cb6605bebc&#45;&gt;dir_db8d68003073a61b7114dbc4f792cfed</title>
<path fill="none" stroke="black" d="M121.28,-215.7C125.65,-207.64 130.94,-197.89 135.78,-188.98"/>
<polygon fill="black" stroke="black" points="138.91,-190.56 140.6,-180.1 132.75,-187.22 138.91,-190.56"/>
<g id="a_edge13&#45;headlabel"><a xlink:href="dir_000037_000024.html" target="_top" xlink:title="1">
<text text-anchor="middle" x="139.69" y="-192.58" font-family="FreeSans" font-size="10.00">1</text>
</a>
</g>
</g>
<!-- dir_cb2d4e92f47691559fc9d122a5e37fac&#45;&gt;dir_758df28fbdbb54fb46d6d3d6484a4984 -->
<g id="edge15" class="edge">
<title>dir_cb2d4e92f47691559fc9d122a5e37fac&#45;&gt;dir_758df28fbdbb54fb46d6d3d6484a4984</title>
<path fill="none" stroke="black" d="M191.29,-71.7C184.76,-63.39 176.82,-53.28 169.64,-44.14"/>
<polygon fill="black" stroke="black" points="172.26,-41.81 163.33,-36.1 166.75,-46.13 172.26,-41.81"/>
<g id="a_edge15&#45;headlabel"><a xlink:href="dir_000014_000144.html" target="_top" xlink:title="3">
<text text-anchor="middle" x="176.71" y="-40.38" font-family="FreeSans" font-size="10.00">3</text>
</a>
</g>
</g>
<!-- dir_db8d68003073a61b7114dbc4f792cfed&#45;&gt;dir_758df28fbdbb54fb46d6d3d6484a4984 -->
<g id="edge22" class="edge">
<title>dir_db8d68003073a61b7114dbc4f792cfed&#45;&gt;dir_758df28fbdbb54fb46d6d3d6484a4984</title>
<path fill="none" stroke="black" d="M149.89,-143.87C149.89,-119.67 149.89,-75.21 149.89,-46.39"/>
<polygon fill="black" stroke="black" points="153.39,-46.19 149.89,-36.19 146.39,-46.19 153.39,-46.19"/>
<g id="a_edge22&#45;headlabel"><a xlink:href="dir_000024_000144.html" target="_top" xlink:title="1">
<text text-anchor="middle" x="156.23" y="-47.28" font-family="FreeSans" font-size="10.00">1</text>
</a>
</g>
</g>
<!-- dir_db8d68003073a61b7114dbc4f792cfed&#45;&gt;dir_cb2d4e92f47691559fc9d122a5e37fac -->
<g id="edge21" class="edge">
<title>dir_db8d68003073a61b7114dbc4f792cfed&#45;&gt;dir_cb2d4e92f47691559fc9d122a5e37fac</title>
<path fill="none" stroke="black" d="M163.48,-143.7C170.01,-135.39 177.95,-125.28 185.13,-116.14"/>
<polygon fill="black" stroke="black" points="188.02,-118.13 191.45,-108.1 182.52,-113.81 188.02,-118.13"/>
<g id="a_edge21&#45;headlabel"><a xlink:href="dir_000024_000014.html" target="_top" xlink:title="117">
<text text-anchor="middle" x="188.03" y="-120.21" font-family="FreeSans" font-size="10.00">117</text>
</a>
</g>
</g>
<!-- dir_f79eaa419c9665ed0522066c5c6851c4&#45;&gt;dir_758df28fbdbb54fb46d6d3d6484a4984 -->
<g id="edge12" class="edge">
<title>dir_f79eaa419c9665ed0522066c5c6851c4&#45;&gt;dir_758df28fbdbb54fb46d6d3d6484a4984</title>
<path fill="none" stroke="black" d="M353.66,-143.85C334.7,-124.53 301.73,-93.08 268.89,-72 242.96,-55.36 210.93,-41.42 186.63,-32.02"/>
<polygon fill="black" stroke="black" points="187.66,-28.66 177.06,-28.4 185.18,-35.21 187.66,-28.66"/>
<g id="a_edge12&#45;headlabel"><a xlink:href="dir_000054_000144.html" target="_top" xlink:title="8">
<text text-anchor="middle" x="192.02" y="-24.78" font-family="FreeSans" font-size="10.00">8</text>
</a>
</g>
</g>
<!-- dir_f79eaa419c9665ed0522066c5c6851c4&#45;&gt;dir_cb2d4e92f47691559fc9d122a5e37fac -->
<g id="edge11" class="edge">
<title>dir_f79eaa419c9665ed0522066c5c6851c4&#45;&gt;dir_cb2d4e92f47691559fc9d122a5e37fac</title>
<path fill="none" stroke="black" d="M342.83,-148.04C339.82,-146.65 336.8,-145.28 333.89,-144 303.05,-130.39 267.6,-115.91 241.68,-105.53"/>
<polygon fill="black" stroke="black" points="242.82,-102.22 232.24,-101.76 240.23,-108.72 242.82,-102.22"/>
<g id="a_edge11&#45;headlabel"><a xlink:href="dir_000054_000014.html" target="_top" xlink:title="9">
<text text-anchor="middle" x="247.21" y="-98.42" font-family="FreeSans" font-size="10.00">9</text>
</a>
</g>
</g>
</g>
</svg>
