<?xml version="1.0" encoding="UTF-8" standalone="no"?>
<!DOCTYPE svg PUBLIC "-//W3C//DTD SVG 1.1//EN"
 "http://www.w3.org/Graphics/SVG/1.1/DTD/svg11.dtd">
<!-- Generated by graphviz version 2.43.0 (0)
 -->
<!-- Title: vex Pages: 1 -->
<svg width="182pt" height="319pt"
 viewBox="0.00 0.00 182.00 319.00" xmlns="http://www.w3.org/2000/svg" xmlns:xlink="http://www.w3.org/1999/xlink">
<g id="graph0" class="graph" transform="scale(1 1) rotate(0) translate(4 315)">
<title>vex</title>
<polygon fill="white" stroke="transparent" points="-4,4 -4,-315 178,-315 178,4 -4,4"/>
<g id="clust1" class="cluster">
<title>clusterdir_0c6283dd7716efebfcf76fdb98d8e794</title>
<g id="a_clust1"><a xlink:href="dir_0c6283dd7716efebfcf76fdb98d8e794.html" target="_top" xlink:title="c_src">
<polygon fill="#ddddee" stroke="black" points="8,-8 8,-303 166,-303 166,-8 8,-8"/>
<text text-anchor="middle" x="87" y="-291" font-family="FreeSans" font-size="10.00">c_src</text>
</a>
</g>
</g>
<g id="clust2" class="cluster">
<title>clusterdir_64078e4dd55db1ba2b4e557207803e4b</title>
<g id="a_clust2"><a xlink:href="dir_64078e4dd55db1ba2b4e557207803e4b.html" target="_top">
<polygon fill="#eeeeff" stroke="black" points="16,-152 16,-276 158,-276 158,-152 16,-152"/>
</a>
</g>
</g>
<!-- dir_758df28fbdbb54fb46d6d3d6484a4984 -->
<g id="node1" class="node">
<title>dir_758df28fbdbb54fb46d6d3d6484a4984</title>
<g id="a_node1"><a xlink:href="dir_758df28fbdbb54fb46d6d3d6484a4984.html" target="_top" xlink:title="msg">
<polygon fill="white" stroke="red" points="121,-52 67,-52 67,-16 121,-16 121,-52"/>
<text text-anchor="middle" x="94" y="-31.5" font-family="FreeSans" font-size="10.00">msg</text>
</a>
</g>
</g>
<!-- dir_cb2d4e92f47691559fc9d122a5e37fac -->
<g id="node2" class="node">
<title>dir_cb2d4e92f47691559fc9d122a5e37fac</title>
<g id="a_node2"><a xlink:href="dir_cb2d4e92f47691559fc9d122a5e37fac.html" target="_top" xlink:title="mk4util">
<polygon fill="white" stroke="red" points="98,-124 44,-124 44,-88 98,-88 98,-124"/>
<text text-anchor="middle" x="71" y="-103.5" font-family="FreeSans" font-size="10.00">mk4util</text>
</a>
</g>
</g>
<!-- dir_cb2d4e92f47691559fc9d122a5e37fac&#45;&gt;dir_758df28fbdbb54fb46d6d3d6484a4984 -->
<g id="edge5" class="edge">
<title>dir_cb2d4e92f47691559fc9d122a5e37fac&#45;&gt;dir_758df28fbdbb54fb46d6d3d6484a4984</title>
<path fill="none" stroke="black" d="M76.69,-87.7C79.25,-79.9 82.33,-70.51 85.18,-61.83"/>
<polygon fill="black" stroke="black" points="88.58,-62.7 88.38,-52.1 81.93,-60.51 88.58,-62.7"/>
<g id="a_edge5&#45;headlabel"><a xlink:href="dir_000014_000144.html" target="_top" xlink:title="3">
<text text-anchor="middle" x="90.16" y="-64.5" font-family="FreeSans" font-size="10.00">3</text>
</a>
</g>
</g>
<!-- dir_64078e4dd55db1ba2b4e557207803e4b -->
<g id="node3" class="node">
<title>dir_64078e4dd55db1ba2b4e557207803e4b</title>
<text text-anchor="middle" x="123" y="-247.5" font-family="FreeSans" font-size="10.00">vex</text>
</g>
<!-- dir_429db2d64f0c0f538d584935e0378e89 -->
<g id="node4" class="node">
<title>dir_429db2d64f0c0f538d584935e0378e89</title>
<g id="a_node4"><a xlink:href="dir_429db2d64f0c0f538d584935e0378e89.html" target="_top" xlink:title="include">
<polygon fill="white" stroke="black" points="78,-196 24,-196 24,-160 78,-160 78,-196"/>
<text text-anchor="middle" x="51" y="-175.5" font-family="FreeSans" font-size="10.00">include</text>
</a>
</g>
</g>
<!-- dir_429db2d64f0c0f538d584935e0378e89&#45;&gt;dir_cb2d4e92f47691559fc9d122a5e37fac -->
<g id="edge4" class="edge">
<title>dir_429db2d64f0c0f538d584935e0378e89&#45;&gt;dir_cb2d4e92f47691559fc9d122a5e37fac</title>
<path fill="none" stroke="black" d="M55.94,-159.7C58.17,-151.9 60.85,-142.51 63.33,-133.83"/>
<polygon fill="black" stroke="black" points="66.73,-134.68 66.11,-124.1 60,-132.76 66.73,-134.68"/>
<g id="a_edge4&#45;headlabel"><a xlink:href="dir_000062_000014.html" target="_top" xlink:title="3">
<text text-anchor="middle" x="68.47" y="-136.42" font-family="FreeSans" font-size="10.00">3</text>
</a>
</g>
</g>
<!-- dir_223830feecc3d7bdec83e00adf504d80 -->
<g id="node5" class="node">
<title>dir_223830feecc3d7bdec83e00adf504d80</title>
<g id="a_node5"><a xlink:href="dir_223830feecc3d7bdec83e00adf504d80.html" target="_top" xlink:title="src">
<polygon fill="white" stroke="black" points="78,-268 24,-268 24,-232 78,-232 78,-268"/>
<text text-anchor="middle" x="51" y="-247.5" font-family="FreeSans" font-size="10.00">src</text>
</a>
</g>
</g>
<!-- dir_223830feecc3d7bdec83e00adf504d80&#45;&gt;dir_758df28fbdbb54fb46d6d3d6484a4984 -->
<g id="edge2" class="edge">
<title>dir_223830feecc3d7bdec83e00adf504d80&#45;&gt;dir_758df28fbdbb54fb46d6d3d6484a4984</title>
<path fill="none" stroke="black" d="M68.13,-231.81C76.87,-222.07 86.92,-209.23 93,-196 113.22,-152.03 112.81,-136.05 107,-88 105.98,-79.53 104.07,-70.47 102.02,-62.28"/>
<polygon fill="black" stroke="black" points="105.36,-61.23 99.41,-52.47 98.6,-63.03 105.36,-61.23"/>
<g id="a_edge2&#45;headlabel"><a xlink:href="dir_000045_000144.html" target="_top" xlink:title="1">
<text text-anchor="middle" x="109.03" y="-61.48" font-family="FreeSans" font-size="10.00">1</text>
</a>
</g>
</g>
<!-- dir_223830feecc3d7bdec83e00adf504d80&#45;&gt;dir_cb2d4e92f47691559fc9d122a5e37fac -->
<g id="edge3" class="edge">
<title>dir_223830feecc3d7bdec83e00adf504d80&#45;&gt;dir_cb2d4e92f47691559fc9d122a5e37fac</title>
<path fill="none" stroke="black" d="M66.61,-231.77C74.37,-222.03 82.95,-209.18 87,-196 93.32,-175.46 88.3,-151.44 82.27,-133.53"/>
<polygon fill="black" stroke="black" points="85.51,-132.2 78.78,-124.02 78.94,-134.61 85.51,-132.2"/>
<g id="a_edge3&#45;headlabel"><a xlink:href="dir_000045_000014.html" target="_top" xlink:title="73">
<text text-anchor="middle" x="89.41" y="-132.1" font-family="FreeSans" font-size="10.00">73</text>
</a>
</g>
</g>
<!-- dir_223830feecc3d7bdec83e00adf504d80&#45;&gt;dir_429db2d64f0c0f538d584935e0378e89 -->
<g id="edge1" class="edge">
<title>dir_223830feecc3d7bdec83e00adf504d80&#45;&gt;dir_429db2d64f0c0f538d584935e0378e89</title>
<path fill="none" stroke="black" d="M51,-231.7C51,-223.98 51,-214.71 51,-206.11"/>
<polygon fill="black" stroke="black" points="54.5,-206.1 51,-196.1 47.5,-206.1 54.5,-206.1"/>
<g id="a_edge1&#45;headlabel"><a xlink:href="dir_000045_000062.html" target="_top" xlink:title="137">
<text text-anchor="middle" x="57.34" y="-207.2" font-family="FreeSans" font-size="10.00">137</text>
</a>
</g>
</g>
</g>
</svg>
