<?xml version="1.0" encoding="UTF-8" standalone="no"?>
<!DOCTYPE svg PUBLIC "-//W3C//DTD SVG 1.1//EN"
 "http://www.w3.org/Graphics/SVG/1.1/DTD/svg11.dtd">
<!-- Generated by graphviz version 2.43.0 (0)
 -->
<!-- Title: ffio Pages: 1 -->
<svg width="338pt" height="375pt"
 viewBox="0.00 0.00 338.00 375.00" xmlns="http://www.w3.org/2000/svg" xmlns:xlink="http://www.w3.org/1999/xlink">
<g id="graph0" class="graph" transform="scale(1 1) rotate(0) translate(4 371)">
<title>ffio</title>
<polygon fill="white" stroke="transparent" points="-4,4 -4,-371 334,-371 334,4 -4,4"/>
<g id="clust1" class="cluster">
<title>clusterdir_9ef7e4ca5af767b4d78801a8e1d37f3e</title>
<g id="a_clust1"><a xlink:href="dir_9ef7e4ca5af767b4d78801a8e1d37f3e.html" target="_top" xlink:title="fourfit_libs">
<polygon fill="#ddddee" stroke="black" points="8,-200 8,-359 228,-359 228,-200 8,-200"/>
<text text-anchor="middle" x="118" y="-347" font-family="FreeSans" font-size="10.00">fourfit_libs</text>
</a>
</g>
</g>
<g id="clust2" class="cluster">
<title>clusterdir_278308b947a9d3d19de751244af66d4b</title>
<g id="a_clust2"><a xlink:href="dir_278308b947a9d3d19de751244af66d4b.html" target="_top">
<polygon fill="#eeeeff" stroke="black" points="16,-208 16,-332 158,-332 158,-208 16,-208"/>
</a>
</g>
</g>
<!-- dir_0908837483934fe24781ea7898fec311 -->
<g id="node1" class="node">
<title>dir_0908837483934fe24781ea7898fec311</title>
<g id="a_node1"><a xlink:href="dir_0908837483934fe24781ea7898fec311.html" target="_top" xlink:title="ffcore">
<polygon fill="white" stroke="red" points="220,-252 166,-252 166,-216 220,-216 220,-252"/>
<text text-anchor="middle" x="193" y="-231.5" font-family="FreeSans" font-size="10.00">ffcore</text>
</a>
</g>
</g>
<!-- dir_758df28fbdbb54fb46d6d3d6484a4984 -->
<g id="node5" class="node">
<title>dir_758df28fbdbb54fb46d6d3d6484a4984</title>
<g id="a_node5"><a xlink:href="dir_758df28fbdbb54fb46d6d3d6484a4984.html" target="_top" xlink:title="msg">
<polygon fill="white" stroke="red" points="199,-36 145,-36 145,0 199,0 199,-36"/>
<text text-anchor="middle" x="172" y="-15.5" font-family="FreeSans" font-size="10.00">msg</text>
</a>
</g>
</g>
<!-- dir_0908837483934fe24781ea7898fec311&#45;&gt;dir_758df28fbdbb54fb46d6d3d6484a4984 -->
<g id="edge11" class="edge">
<title>dir_0908837483934fe24781ea7898fec311&#45;&gt;dir_758df28fbdbb54fb46d6d3d6484a4984</title>
<path fill="none" stroke="black" d="M191.32,-215.85C187.68,-178.83 179.08,-91.18 174.69,-46.39"/>
<polygon fill="black" stroke="black" points="178.15,-45.84 173.69,-36.23 171.18,-46.53 178.15,-45.84"/>
<g id="a_edge11&#45;headlabel"><a xlink:href="dir_000047_000144.html" target="_top" xlink:title="18">
<text text-anchor="middle" x="181.33" y="-46.64" font-family="FreeSans" font-size="10.00">18</text>
</a>
</g>
</g>
<!-- dir_64078e4dd55db1ba2b4e557207803e4b -->
<g id="node6" class="node">
<title>dir_64078e4dd55db1ba2b4e557207803e4b</title>
<g id="a_node6"><a xlink:href="dir_64078e4dd55db1ba2b4e557207803e4b.html" target="_top" xlink:title="vex">
<polygon fill="white" stroke="red" points="144,-180 90,-180 90,-144 144,-144 144,-180"/>
<text text-anchor="middle" x="117" y="-159.5" font-family="FreeSans" font-size="10.00">vex</text>
</a>
</g>
</g>
<!-- dir_0908837483934fe24781ea7898fec311&#45;&gt;dir_64078e4dd55db1ba2b4e557207803e4b -->
<g id="edge12" class="edge">
<title>dir_0908837483934fe24781ea7898fec311&#45;&gt;dir_64078e4dd55db1ba2b4e557207803e4b</title>
<path fill="none" stroke="black" d="M177.63,-215.81C172.77,-210.59 167.28,-204.94 162,-200 157.25,-195.55 152.05,-191.01 146.92,-186.69"/>
<polygon fill="black" stroke="black" points="148.93,-183.82 139,-180.14 144.48,-189.21 148.93,-183.82"/>
<g id="a_edge12&#45;headlabel"><a xlink:href="dir_000047_000044.html" target="_top" xlink:title="7">
<text text-anchor="middle" x="153.51" y="-181.42" font-family="FreeSans" font-size="10.00">7</text>
</a>
</g>
</g>
<!-- dir_db8d68003073a61b7114dbc4f792cfed -->
<g id="node7" class="node">
<title>dir_db8d68003073a61b7114dbc4f792cfed</title>
<g id="a_node7"><a xlink:href="dir_db8d68003073a61b7114dbc4f792cfed.html" target="_top" xlink:title="dfio">
<polygon fill="white" stroke="red" points="330,-180 276,-180 276,-144 330,-144 330,-180"/>
<text text-anchor="middle" x="303" y="-159.5" font-family="FreeSans" font-size="10.00">dfio</text>
</a>
</g>
</g>
<!-- dir_0908837483934fe24781ea7898fec311&#45;&gt;dir_db8d68003073a61b7114dbc4f792cfed -->
<g id="edge10" class="edge">
<title>dir_0908837483934fe24781ea7898fec311&#45;&gt;dir_db8d68003073a61b7114dbc4f792cfed</title>
<path fill="none" stroke="black" d="M219.91,-215.88C234.16,-206.81 251.85,-195.55 267.24,-185.76"/>
<polygon fill="black" stroke="black" points="269.43,-188.51 275.99,-180.19 265.67,-182.61 269.43,-188.51"/>
<g id="a_edge10&#45;headlabel"><a xlink:href="dir_000047_000024.html" target="_top" xlink:title="20">
<text text-anchor="middle" x="267.92" y="-190.34" font-family="FreeSans" font-size="10.00">20</text>
</a>
</g>
</g>
<!-- dir_cb2d4e92f47691559fc9d122a5e37fac -->
<g id="node8" class="node">
<title>dir_cb2d4e92f47691559fc9d122a5e37fac</title>
<g id="a_node8"><a xlink:href="dir_cb2d4e92f47691559fc9d122a5e37fac.html" target="_top" xlink:title="mk4util">
<polygon fill="white" stroke="red" points="254,-108 200,-108 200,-72 254,-72 254,-108"/>
<text text-anchor="middle" x="227" y="-87.5" font-family="FreeSans" font-size="10.00">mk4util</text>
</a>
</g>
</g>
<!-- dir_0908837483934fe24781ea7898fec311&#45;&gt;dir_cb2d4e92f47691559fc9d122a5e37fac -->
<g id="edge9" class="edge">
<title>dir_0908837483934fe24781ea7898fec311&#45;&gt;dir_cb2d4e92f47691559fc9d122a5e37fac</title>
<path fill="none" stroke="black" d="M197.1,-215.87C202.92,-191.56 213.63,-146.82 220.53,-118.01"/>
<polygon fill="black" stroke="black" points="223.96,-118.73 222.88,-108.19 217.15,-117.1 223.96,-118.73"/>
<g id="a_edge9&#45;headlabel"><a xlink:href="dir_000047_000014.html" target="_top" xlink:title="19">
<text text-anchor="middle" x="225.88" y="-120.39" font-family="FreeSans" font-size="10.00">19</text>
</a>
</g>
</g>
<!-- dir_278308b947a9d3d19de751244af66d4b -->
<g id="node2" class="node">
<title>dir_278308b947a9d3d19de751244af66d4b</title>
<text text-anchor="middle" x="123" y="-303.5" font-family="FreeSans" font-size="10.00">ffio</text>
</g>
<!-- dir_fe15466ecccb5f68181da966ff89a167 -->
<g id="node3" class="node">
<title>dir_fe15466ecccb5f68181da966ff89a167</title>
<g id="a_node3"><a xlink:href="dir_fe15466ecccb5f68181da966ff89a167.html" target="_top" xlink:title="include">
<polygon fill="white" stroke="black" points="148,-252 94,-252 94,-216 148,-216 148,-252"/>
<text text-anchor="middle" x="121" y="-231.5" font-family="FreeSans" font-size="10.00">include</text>
</a>
</g>
</g>
<!-- dir_f685b4be9a55b8d3c5643434c0c0c4d9 -->
<g id="node4" class="node">
<title>dir_f685b4be9a55b8d3c5643434c0c0c4d9</title>
<g id="a_node4"><a xlink:href="dir_f685b4be9a55b8d3c5643434c0c0c4d9.html" target="_top" xlink:title="src">
<polygon fill="white" stroke="black" points="78,-324 24,-324 24,-288 78,-288 78,-324"/>
<text text-anchor="middle" x="51" y="-303.5" font-family="FreeSans" font-size="10.00">src</text>
</a>
</g>
</g>
<!-- dir_f685b4be9a55b8d3c5643434c0c0c4d9&#45;&gt;dir_0908837483934fe24781ea7898fec311 -->
<g id="edge1" class="edge">
<title>dir_f685b4be9a55b8d3c5643434c0c0c4d9&#45;&gt;dir_0908837483934fe24781ea7898fec311</title>
<path fill="none" stroke="black" d="M78.23,-292.1C103.13,-280.28 138.45,-263.49 156.82,-254.49"/>
<polygon fill="black" stroke="black" points="158.61,-257.52 166,-249.92 155.48,-251.25 158.61,-257.52"/>
<g id="a_edge1&#45;headlabel"><a xlink:href="dir_000074_000047.html" target="_top" xlink:title="22">
<text text-anchor="middle" x="156.65" y="-259.16" font-family="FreeSans" font-size="10.00">22</text>
</a>
</g>
</g>
<!-- dir_f685b4be9a55b8d3c5643434c0c0c4d9&#45;&gt;dir_fe15466ecccb5f68181da966ff89a167 -->
<g id="edge6" class="edge">
<title>dir_f685b4be9a55b8d3c5643434c0c0c4d9&#45;&gt;dir_fe15466ecccb5f68181da966ff89a167</title>
<path fill="none" stroke="black" d="M68.3,-287.7C76.86,-279.14 87.34,-268.66 96.7,-259.3"/>
<polygon fill="black" stroke="black" points="99.3,-261.65 103.9,-252.1 94.35,-256.7 99.3,-261.65"/>
<g id="a_edge6&#45;headlabel"><a xlink:href="dir_000074_000072.html" target="_top" xlink:title="1">
<text text-anchor="middle" x="98.77" y="-263.7" font-family="FreeSans" font-size="10.00">1</text>
</a>
</g>
</g>
<!-- dir_f685b4be9a55b8d3c5643434c0c0c4d9&#45;&gt;dir_758df28fbdbb54fb46d6d3d6484a4984 -->
<g id="edge3" class="edge">
<title>dir_f685b4be9a55b8d3c5643434c0c0c4d9&#45;&gt;dir_758df28fbdbb54fb46d6d3d6484a4984</title>
<path fill="none" stroke="black" d="M51.34,-287.7C52.05,-266.72 54.24,-230.39 61,-200 66.74,-174.2 68.65,-167.37 81,-144 100.63,-106.85 130.28,-68.39 150.36,-44.12"/>
<polygon fill="black" stroke="black" points="153.29,-46.06 157.03,-36.15 147.92,-41.57 153.29,-46.06"/>
<g id="a_edge3&#45;headlabel"><a xlink:href="dir_000074_000144.html" target="_top" xlink:title="8">
<text text-anchor="middle" x="153.16" y="-48.14" font-family="FreeSans" font-size="10.00">8</text>
</a>
</g>
</g>
<!-- dir_f685b4be9a55b8d3c5643434c0c0c4d9&#45;&gt;dir_64078e4dd55db1ba2b4e557207803e4b -->
<g id="edge2" class="edge">
<title>dir_f685b4be9a55b8d3c5643434c0c0c4d9&#45;&gt;dir_64078e4dd55db1ba2b4e557207803e4b</title>
<path fill="none" stroke="black" d="M54.35,-287.78C59.03,-266.24 68.82,-228.71 85,-200 87.27,-195.98 90.01,-192 92.93,-188.22"/>
<polygon fill="black" stroke="black" points="95.78,-190.27 99.48,-180.34 90.4,-185.79 95.78,-190.27"/>
<g id="a_edge2&#45;headlabel"><a xlink:href="dir_000074_000044.html" target="_top" xlink:title="9">
<text text-anchor="middle" x="95.66" y="-192.35" font-family="FreeSans" font-size="10.00">9</text>
</a>
</g>
</g>
<!-- dir_f685b4be9a55b8d3c5643434c0c0c4d9&#45;&gt;dir_db8d68003073a61b7114dbc4f792cfed -->
<g id="edge5" class="edge">
<title>dir_f685b4be9a55b8d3c5643434c0c0c4d9&#45;&gt;dir_db8d68003073a61b7114dbc4f792cfed</title>
<path fill="none" stroke="black" d="M78.24,-291.31C81.16,-290.1 84.12,-288.96 87,-288 162.32,-262.87 199.81,-301.37 262,-252 281.29,-236.69 291.87,-210.23 297.43,-190.13"/>
<polygon fill="black" stroke="black" points="300.86,-190.85 299.9,-180.3 294.07,-189.14 300.86,-190.85"/>
<g id="a_edge5&#45;headlabel"><a xlink:href="dir_000074_000024.html" target="_top" xlink:title="28">
<text text-anchor="middle" x="302.74" y="-192.52" font-family="FreeSans" font-size="10.00">28</text>
</a>
</g>
</g>
<!-- dir_f685b4be9a55b8d3c5643434c0c0c4d9&#45;&gt;dir_cb2d4e92f47691559fc9d122a5e37fac -->
<g id="edge4" class="edge">
<title>dir_f685b4be9a55b8d3c5643434c0c0c4d9&#45;&gt;dir_cb2d4e92f47691559fc9d122a5e37fac</title>
<path fill="none" stroke="black" d="M78.28,-291.43C81.19,-290.19 84.14,-289.02 87,-288 149.55,-265.71 191.09,-304.3 232,-252 262.11,-213.51 248.78,-152.54 237.29,-117.73"/>
<polygon fill="black" stroke="black" points="240.58,-116.52 233.98,-108.23 233.96,-118.82 240.58,-116.52"/>
<g id="a_edge4&#45;headlabel"><a xlink:href="dir_000074_000014.html" target="_top" xlink:title="5">
<text text-anchor="middle" x="244.44" y="-116.48" font-family="FreeSans" font-size="10.00">5</text>
</a>
</g>
</g>
<!-- dir_64078e4dd55db1ba2b4e557207803e4b&#45;&gt;dir_758df28fbdbb54fb46d6d3d6484a4984 -->
<g id="edge7" class="edge">
<title>dir_64078e4dd55db1ba2b4e557207803e4b&#45;&gt;dir_758df28fbdbb54fb46d6d3d6484a4984</title>
<path fill="none" stroke="black" d="M123.63,-143.87C133.09,-119.46 150.53,-74.43 161.68,-45.64"/>
<polygon fill="black" stroke="black" points="164.99,-46.78 165.34,-36.19 158.47,-44.25 164.99,-46.78"/>
<g id="a_edge7&#45;headlabel"><a xlink:href="dir_000044_000144.html" target="_top" xlink:title="1">
<text text-anchor="middle" x="166.34" y="-48.66" font-family="FreeSans" font-size="10.00">1</text>
</a>
</g>
</g>
<!-- dir_64078e4dd55db1ba2b4e557207803e4b&#45;&gt;dir_cb2d4e92f47691559fc9d122a5e37fac -->
<g id="edge8" class="edge">
<title>dir_64078e4dd55db1ba2b4e557207803e4b&#45;&gt;dir_cb2d4e92f47691559fc9d122a5e37fac</title>
<path fill="none" stroke="black" d="M143.91,-143.88C158.16,-134.81 175.85,-123.55 191.24,-113.76"/>
<polygon fill="black" stroke="black" points="193.43,-116.51 199.99,-108.19 189.67,-110.61 193.43,-116.51"/>
<g id="a_edge8&#45;headlabel"><a xlink:href="dir_000044_000014.html" target="_top" xlink:title="76">
<text text-anchor="middle" x="191.92" y="-118.34" font-family="FreeSans" font-size="10.00">76</text>
</a>
</g>
</g>
<!-- dir_db8d68003073a61b7114dbc4f792cfed&#45;&gt;dir_758df28fbdbb54fb46d6d3d6484a4984 -->
<g id="edge15" class="edge">
<title>dir_db8d68003073a61b7114dbc4f792cfed&#45;&gt;dir_758df28fbdbb54fb46d6d3d6484a4984</title>
<path fill="none" stroke="black" d="M298.72,-143.83C293.18,-124.49 281.93,-93.03 263,-72 248.11,-55.45 226.79,-42.66 208.53,-33.78"/>
<polygon fill="black" stroke="black" points="209.86,-30.54 199.31,-29.5 206.91,-36.89 209.86,-30.54"/>
<g id="a_edge15&#45;headlabel"><a xlink:href="dir_000024_000144.html" target="_top" xlink:title="1">
<text text-anchor="middle" x="214.31" y="-26.98" font-family="FreeSans" font-size="10.00">1</text>
</a>
</g>
</g>
<!-- dir_db8d68003073a61b7114dbc4f792cfed&#45;&gt;dir_cb2d4e92f47691559fc9d122a5e37fac -->
<g id="edge14" class="edge">
<title>dir_db8d68003073a61b7114dbc4f792cfed&#45;&gt;dir_cb2d4e92f47691559fc9d122a5e37fac</title>
<path fill="none" stroke="black" d="M284.21,-143.7C274.83,-135.05 263.32,-124.45 253.09,-115.03"/>
<polygon fill="black" stroke="black" points="255.3,-112.3 245.57,-108.1 250.55,-117.45 255.3,-112.3"/>
<g id="a_edge14&#45;headlabel"><a xlink:href="dir_000024_000014.html" target="_top" xlink:title="117">
<text text-anchor="middle" x="259.86" y="-110.15" font-family="FreeSans" font-size="10.00">117</text>
</a>
</g>
</g>
<!-- dir_cb2d4e92f47691559fc9d122a5e37fac&#45;&gt;dir_758df28fbdbb54fb46d6d3d6484a4984 -->
<g id="edge13" class="edge">
<title>dir_cb2d4e92f47691559fc9d122a5e37fac&#45;&gt;dir_758df28fbdbb54fb46d6d3d6484a4984</title>
<path fill="none" stroke="black" d="M213.4,-71.7C206.88,-63.39 198.93,-53.28 191.75,-44.14"/>
<polygon fill="black" stroke="black" points="194.37,-41.81 185.44,-36.1 188.87,-46.13 194.37,-41.81"/>
<g id="a_edge13&#45;headlabel"><a xlink:href="dir_000014_000144.html" target="_top" xlink:title="3">
<text text-anchor="middle" x="198.82" y="-40.38" font-family="FreeSans" font-size="10.00">3</text>
</a>
</g>
</g>
</g>
</svg>
