<?xml version="1.0" encoding="UTF-8" standalone="no"?>
<!DOCTYPE svg PUBLIC "-//W3C//DTD SVG 1.1//EN"
 "http://www.w3.org/Graphics/SVG/1.1/DTD/svg11.dtd">
<!-- Generated by graphviz version 2.43.0 (0)
 -->
<!-- Title: MK4Interface Pages: 1 -->
<svg width="460pt" height="535pt"
 viewBox="0.00 0.00 460.00 535.00" xmlns="http://www.w3.org/2000/svg" xmlns:xlink="http://www.w3.org/1999/xlink">
<g id="graph0" class="graph" transform="scale(1 1) rotate(0) translate(4 531)">
<title>MK4Interface</title>
<polygon fill="white" stroke="transparent" points="-4,4 -4,-531 456,-531 456,4 -4,4"/>
<g id="clust1" class="cluster">
<title>clusterdir_730935399589b544a579302a37a46c03</title>
<g id="a_clust1"><a xlink:href="dir_730935399589b544a579302a37a46c03.html" target="_top" xlink:title="cpp_src">
<polygon fill="#ddddee" stroke="black" points="8,-8 8,-519 388,-519 388,-8 8,-8"/>
<text text-anchor="middle" x="198" y="-507" font-family="FreeSans" font-size="10.00">cpp_src</text>
</a>
</g>
</g>
<g id="clust2" class="cluster">
<title>clusterdir_0c8523deb6301657d04bd2a03358f9f8</title>
<g id="a_clust2"><a xlink:href="dir_0c8523deb6301657d04bd2a03358f9f8.html" target="_top">
<polygon fill="#eeeeff" stroke="black" points="77,-368 77,-492 240,-492 240,-368 77,-368"/>
</a>
</g>
</g>
<!-- dir_150f406a44a04ce55518da03ec553ece -->
<g id="node1" class="node">
<title>dir_150f406a44a04ce55518da03ec553ece</title>
<g id="a_node1"><a xlink:href="dir_150f406a44a04ce55518da03ec553ece.html" target="_top" xlink:title="Utilities">
<polygon fill="white" stroke="red" points="178,-196 124,-196 124,-160 178,-160 178,-196"/>
<text text-anchor="middle" x="151" y="-175.5" font-family="FreeSans" font-size="10.00">Utilities</text>
</a>
</g>
</g>
<!-- dir_32348ece3c89569e6a714937ae854c89 -->
<g id="node3" class="node">
<title>dir_32348ece3c89569e6a714937ae854c89</title>
<g id="a_node3"><a xlink:href="dir_32348ece3c89569e6a714937ae854c89.html" target="_top" xlink:title="Message">
<polygon fill="white" stroke="red" points="248,-52 192,-52 192,-16 248,-16 248,-52"/>
<text text-anchor="middle" x="220" y="-31.5" font-family="FreeSans" font-size="10.00">Message</text>
</a>
</g>
</g>
<!-- dir_150f406a44a04ce55518da03ec553ece&#45;&gt;dir_32348ece3c89569e6a714937ae854c89 -->
<g id="edge30" class="edge">
<title>dir_150f406a44a04ce55518da03ec553ece&#45;&gt;dir_32348ece3c89569e6a714937ae854c89</title>
<path fill="none" stroke="black" d="M158.59,-159.81C166.62,-141.79 179.79,-112.71 192,-88 196.35,-79.19 201.31,-69.66 205.82,-61.15"/>
<polygon fill="black" stroke="black" points="209.05,-62.53 210.68,-52.06 202.88,-59.23 209.05,-62.53"/>
<g id="a_edge30&#45;headlabel"><a xlink:href="dir_000086_000123.html" target="_top" xlink:title="13">
<text text-anchor="middle" x="209.86" y="-64.54" font-family="FreeSans" font-size="10.00">13</text>
</a>
</g>
</g>
<!-- dir_ff42852cc454de79d2ecb9482f4de9d8 -->
<g id="node7" class="node">
<title>dir_ff42852cc454de79d2ecb9482f4de9d8</title>
<g id="a_node7"><a xlink:href="dir_ff42852cc454de79d2ecb9482f4de9d8.html" target="_top" xlink:title="Math">
<polygon fill="white" stroke="red" points="270,-124 216,-124 216,-88 270,-88 270,-124"/>
<text text-anchor="middle" x="243" y="-103.5" font-family="FreeSans" font-size="10.00">Math</text>
</a>
</g>
</g>
<!-- dir_150f406a44a04ce55518da03ec553ece&#45;&gt;dir_ff42852cc454de79d2ecb9482f4de9d8 -->
<g id="edge31" class="edge">
<title>dir_150f406a44a04ce55518da03ec553ece&#45;&gt;dir_ff42852cc454de79d2ecb9482f4de9d8</title>
<path fill="none" stroke="black" d="M167.83,-159.7C179.03,-150.44 194,-138.95 207.68,-129.06"/>
<polygon fill="black" stroke="black" points="209.88,-131.8 215.99,-123.14 205.82,-126.09 209.88,-131.8"/>
<g id="a_edge31&#45;headlabel"><a xlink:href="dir_000086_000099.html" target="_top" xlink:title="1">
<text text-anchor="middle" x="208.59" y="-133.69" font-family="FreeSans" font-size="10.00">1</text>
</a>
</g>
</g>
<!-- dir_2d98c6b8f23a5c53321666bdc86a2d6a -->
<g id="node2" class="node">
<title>dir_2d98c6b8f23a5c53321666bdc86a2d6a</title>
<g id="a_node2"><a xlink:href="dir_2d98c6b8f23a5c53321666bdc86a2d6a.html" target="_top" xlink:title="Vex2JSON">
<polygon fill="white" stroke="red" points="81.5,-340 16.5,-340 16.5,-304 81.5,-304 81.5,-340"/>
<text text-anchor="middle" x="49" y="-319.5" font-family="FreeSans" font-size="10.00">Vex2JSON</text>
</a>
</g>
</g>
<!-- dir_2d98c6b8f23a5c53321666bdc86a2d6a&#45;&gt;dir_150f406a44a04ce55518da03ec553ece -->
<g id="edge22" class="edge">
<title>dir_2d98c6b8f23a5c53321666bdc86a2d6a&#45;&gt;dir_150f406a44a04ce55518da03ec553ece</title>
<path fill="none" stroke="black" d="M60.98,-303.87C73.59,-285.9 94.05,-256.87 112,-232 118.52,-222.97 125.73,-213.13 132.16,-204.41"/>
<polygon fill="black" stroke="black" points="135.15,-206.25 138.27,-196.13 129.52,-202.09 135.15,-206.25"/>
<g id="a_edge22&#45;headlabel"><a xlink:href="dir_000141_000086.html" target="_top" xlink:title="13">
<text text-anchor="middle" x="135.3" y="-208.33" font-family="FreeSans" font-size="10.00">13</text>
</a>
</g>
</g>
<!-- dir_2d98c6b8f23a5c53321666bdc86a2d6a&#45;&gt;dir_32348ece3c89569e6a714937ae854c89 -->
<g id="edge23" class="edge">
<title>dir_2d98c6b8f23a5c53321666bdc86a2d6a&#45;&gt;dir_32348ece3c89569e6a714937ae854c89</title>
<path fill="none" stroke="black" d="M45.08,-303.85C36.59,-261.98 21.11,-153.21 72,-88 98.17,-54.46 147.34,-42.12 181.8,-37.59"/>
<polygon fill="black" stroke="black" points="182.45,-41.04 191.98,-36.42 181.65,-34.08 182.45,-41.04"/>
<g id="a_edge23&#45;headlabel"><a xlink:href="dir_000141_000123.html" target="_top" xlink:title="6">
<text text-anchor="middle" x="179.2" y="-41.77" font-family="FreeSans" font-size="10.00">6</text>
</a>
</g>
</g>
<!-- dir_4546011bd625f1142c4c4ae06dcdb5ba -->
<g id="node4" class="node">
<title>dir_4546011bd625f1142c4c4ae06dcdb5ba</title>
<g id="a_node4"><a xlink:href="dir_4546011bd625f1142c4c4ae06dcdb5ba.html" target="_top" xlink:title="Operators">
<polygon fill="white" stroke="red" points="239.5,-340 180.5,-340 180.5,-304 239.5,-304 239.5,-340"/>
<text text-anchor="middle" x="210" y="-319.5" font-family="FreeSans" font-size="10.00">Operators</text>
</a>
</g>
</g>
<!-- dir_4546011bd625f1142c4c4ae06dcdb5ba&#45;&gt;dir_150f406a44a04ce55518da03ec553ece -->
<g id="edge10" class="edge">
<title>dir_4546011bd625f1142c4c4ae06dcdb5ba&#45;&gt;dir_150f406a44a04ce55518da03ec553ece</title>
<path fill="none" stroke="black" d="M202.88,-303.87C192.74,-279.46 174.03,-234.43 162.07,-205.64"/>
<polygon fill="black" stroke="black" points="165.21,-204.08 158.14,-196.19 158.75,-206.77 165.21,-204.08"/>
<g id="a_edge10&#45;headlabel"><a xlink:href="dir_000089_000086.html" target="_top" xlink:title="5">
<text text-anchor="middle" x="169.21" y="-203.81" font-family="FreeSans" font-size="10.00">5</text>
</a>
</g>
</g>
<!-- dir_4546011bd625f1142c4c4ae06dcdb5ba&#45;&gt;dir_32348ece3c89569e6a714937ae854c89 -->
<g id="edge11" class="edge">
<title>dir_4546011bd625f1142c4c4ae06dcdb5ba&#45;&gt;dir_32348ece3c89569e6a714937ae854c89</title>
<path fill="none" stroke="black" d="M208.24,-303.96C204.58,-265.35 197.29,-168.33 207,-88 208.02,-79.53 209.93,-70.47 211.98,-62.28"/>
<polygon fill="black" stroke="black" points="215.4,-63.03 214.59,-52.47 208.64,-61.23 215.4,-63.03"/>
<g id="a_edge11&#45;headlabel"><a xlink:href="dir_000089_000123.html" target="_top" xlink:title="12">
<text text-anchor="middle" x="217.22" y="-64.74" font-family="FreeSans" font-size="10.00">12</text>
</a>
</g>
</g>
<!-- dir_a06008c3e245d1092ba6894d6caedef2 -->
<g id="node6" class="node">
<title>dir_a06008c3e245d1092ba6894d6caedef2</title>
<g id="a_node6"><a xlink:href="dir_a06008c3e245d1092ba6894d6caedef2.html" target="_top" xlink:title="Containers">
<polygon fill="white" stroke="red" points="299.5,-268 236.5,-268 236.5,-232 299.5,-232 299.5,-268"/>
<text text-anchor="middle" x="268" y="-247.5" font-family="FreeSans" font-size="10.00">Containers</text>
</a>
</g>
</g>
<!-- dir_4546011bd625f1142c4c4ae06dcdb5ba&#45;&gt;dir_a06008c3e245d1092ba6894d6caedef2 -->
<g id="edge12" class="edge">
<title>dir_4546011bd625f1142c4c4ae06dcdb5ba&#45;&gt;dir_a06008c3e245d1092ba6894d6caedef2</title>
<path fill="none" stroke="black" d="M224.34,-303.7C231.29,-295.3 239.77,-285.07 247.4,-275.86"/>
<polygon fill="black" stroke="black" points="250.14,-278.04 253.83,-268.1 244.75,-273.57 250.14,-278.04"/>
<g id="a_edge12&#45;headlabel"><a xlink:href="dir_000089_000096.html" target="_top" xlink:title="22">
<text text-anchor="middle" x="250.04" y="-280.12" font-family="FreeSans" font-size="10.00">22</text>
</a>
</g>
</g>
<!-- dir_4546011bd625f1142c4c4ae06dcdb5ba&#45;&gt;dir_ff42852cc454de79d2ecb9482f4de9d8 -->
<g id="edge13" class="edge">
<title>dir_4546011bd625f1142c4c4ae06dcdb5ba&#45;&gt;dir_ff42852cc454de79d2ecb9482f4de9d8</title>
<path fill="none" stroke="black" d="M212.64,-303.85C218.35,-266.83 231.87,-179.18 238.78,-134.39"/>
<polygon fill="black" stroke="black" points="242.28,-134.65 240.34,-124.23 235.36,-133.58 242.28,-134.65"/>
<g id="a_edge13&#45;headlabel"><a xlink:href="dir_000089_000099.html" target="_top" xlink:title="8">
<text text-anchor="middle" x="244.54" y="-136.13" font-family="FreeSans" font-size="10.00">8</text>
</a>
</g>
</g>
<!-- dir_91ae3e556fa9cad9030b784323206cc7 -->
<g id="node5" class="node">
<title>dir_91ae3e556fa9cad9030b784323206cc7</title>
<g id="a_node5"><a xlink:href="dir_91ae3e556fa9cad9030b784323206cc7.html" target="_top" xlink:title="Calibration">
<polygon fill="white" stroke="red" points="310,-412 248,-412 248,-376 310,-376 310,-412"/>
<text text-anchor="middle" x="279" y="-391.5" font-family="FreeSans" font-size="10.00">Calibration</text>
</a>
</g>
</g>
<!-- dir_91ae3e556fa9cad9030b784323206cc7&#45;&gt;dir_150f406a44a04ce55518da03ec553ece -->
<g id="edge2" class="edge">
<title>dir_91ae3e556fa9cad9030b784323206cc7&#45;&gt;dir_150f406a44a04ce55518da03ec553ece</title>
<path fill="none" stroke="black" d="M256.56,-375.74C252.49,-372.97 248.2,-370.27 244,-368 213.8,-351.67 193.18,-367.02 172,-340 141.74,-301.4 142.91,-240.89 146.77,-206.09"/>
<polygon fill="black" stroke="black" points="150.24,-206.53 148.02,-196.17 143.3,-205.65 150.24,-206.53"/>
<g id="a_edge2&#45;headlabel"><a xlink:href="dir_000102_000086.html" target="_top" xlink:title="29">
<text text-anchor="middle" x="152.61" y="-207.95" font-family="FreeSans" font-size="10.00">29</text>
</a>
</g>
</g>
<!-- dir_91ae3e556fa9cad9030b784323206cc7&#45;&gt;dir_32348ece3c89569e6a714937ae854c89 -->
<g id="edge1" class="edge">
<title>dir_91ae3e556fa9cad9030b784323206cc7&#45;&gt;dir_32348ece3c89569e6a714937ae854c89</title>
<path fill="none" stroke="black" d="M291.31,-375.73C297.75,-365.77 305.07,-352.73 309,-340 323.17,-294.06 319.45,-279.87 315,-232 308.97,-167.16 321.87,-143.61 288,-88 280.29,-75.35 268.38,-64.56 256.67,-56.08"/>
<polygon fill="black" stroke="black" points="258.47,-53.07 248.24,-50.32 254.52,-58.85 258.47,-53.07"/>
<g id="a_edge1&#45;headlabel"><a xlink:href="dir_000102_000123.html" target="_top" xlink:title="22">
<text text-anchor="middle" x="263.04" y="-50.25" font-family="FreeSans" font-size="10.00">22</text>
</a>
</g>
</g>
<!-- dir_91ae3e556fa9cad9030b784323206cc7&#45;&gt;dir_4546011bd625f1142c4c4ae06dcdb5ba -->
<g id="edge4" class="edge">
<title>dir_91ae3e556fa9cad9030b784323206cc7&#45;&gt;dir_4546011bd625f1142c4c4ae06dcdb5ba</title>
<path fill="none" stroke="black" d="M261.94,-375.7C253.5,-367.14 243.18,-356.66 233.96,-347.3"/>
<polygon fill="black" stroke="black" points="236.37,-344.77 226.86,-340.1 231.39,-349.68 236.37,-344.77"/>
<g id="a_edge4&#45;headlabel"><a xlink:href="dir_000102_000089.html" target="_top" xlink:title="55">
<text text-anchor="middle" x="240.92" y="-342.84" font-family="FreeSans" font-size="10.00">55</text>
</a>
</g>
</g>
<!-- dir_91ae3e556fa9cad9030b784323206cc7&#45;&gt;dir_a06008c3e245d1092ba6894d6caedef2 -->
<g id="edge3" class="edge">
<title>dir_91ae3e556fa9cad9030b784323206cc7&#45;&gt;dir_a06008c3e245d1092ba6894d6caedef2</title>
<path fill="none" stroke="black" d="M277.67,-375.87C275.8,-351.67 272.35,-307.21 270.12,-278.39"/>
<polygon fill="black" stroke="black" points="273.59,-277.89 269.33,-268.19 266.61,-278.43 273.59,-277.89"/>
<g id="a_edge3&#45;headlabel"><a xlink:href="dir_000102_000096.html" target="_top" xlink:title="64">
<text text-anchor="middle" x="276.7" y="-278.75" font-family="FreeSans" font-size="10.00">64</text>
</a>
</g>
</g>
<!-- dir_91ae3e556fa9cad9030b784323206cc7&#45;&gt;dir_ff42852cc454de79d2ecb9482f4de9d8 -->
<g id="edge5" class="edge">
<title>dir_91ae3e556fa9cad9030b784323206cc7&#45;&gt;dir_ff42852cc454de79d2ecb9482f4de9d8</title>
<path fill="none" stroke="black" d="M286.95,-375.94C299.65,-346.39 321.86,-283.88 309,-232 299.8,-194.87 277.34,-156.62 261.17,-132.37"/>
<polygon fill="black" stroke="black" points="264.06,-130.4 255.54,-124.1 258.28,-134.34 264.06,-130.4"/>
<g id="a_edge5&#45;headlabel"><a xlink:href="dir_000102_000099.html" target="_top" xlink:title="10">
<text text-anchor="middle" x="268.43" y="-129.27" font-family="FreeSans" font-size="10.00">10</text>
</a>
</g>
</g>
<!-- dir_a06008c3e245d1092ba6894d6caedef2&#45;&gt;dir_150f406a44a04ce55518da03ec553ece -->
<g id="edge6" class="edge">
<title>dir_a06008c3e245d1092ba6894d6caedef2&#45;&gt;dir_150f406a44a04ce55518da03ec553ece</title>
<path fill="none" stroke="black" d="M239.38,-231.88C223.62,-222.45 203.92,-210.66 187.11,-200.61"/>
<polygon fill="black" stroke="black" points="188.5,-197.36 178.12,-195.23 184.9,-203.36 188.5,-197.36"/>
<g id="a_edge6&#45;headlabel"><a xlink:href="dir_000096_000086.html" target="_top" xlink:title="42">
<text text-anchor="middle" x="193.04" y="-194.27" font-family="FreeSans" font-size="10.00">42</text>
</a>
</g>
</g>
<!-- dir_a06008c3e245d1092ba6894d6caedef2&#45;&gt;dir_32348ece3c89569e6a714937ae854c89 -->
<g id="edge7" class="edge">
<title>dir_a06008c3e245d1092ba6894d6caedef2&#45;&gt;dir_32348ece3c89569e6a714937ae854c89</title>
<path fill="none" stroke="black" d="M274.3,-231.63C284.29,-201.07 300.57,-136.36 279,-88 273.92,-76.6 265.04,-66.63 255.69,-58.51"/>
<polygon fill="black" stroke="black" points="257.78,-55.69 247.8,-52.13 253.37,-61.14 257.78,-55.69"/>
<g id="a_edge7&#45;headlabel"><a xlink:href="dir_000096_000123.html" target="_top" xlink:title="9">
<text text-anchor="middle" x="262.36" y="-53.25" font-family="FreeSans" font-size="10.00">9</text>
</a>
</g>
</g>
<!-- dir_ff42852cc454de79d2ecb9482f4de9d8&#45;&gt;dir_150f406a44a04ce55518da03ec553ece -->
<g id="edge9" class="edge">
<title>dir_ff42852cc454de79d2ecb9482f4de9d8&#45;&gt;dir_150f406a44a04ce55518da03ec553ece</title>
<path fill="none" stroke="black" d="M226.39,-124.12C215.2,-133.37 200.2,-144.9 186.47,-154.82"/>
<polygon fill="black" stroke="black" points="184.25,-152.11 178.14,-160.76 188.31,-157.81 184.25,-152.11"/>
<g id="a_edge9&#45;headlabel"><a xlink:href="dir_000099_000086.html" target="_top" xlink:title="1">
<text text-anchor="middle" x="185.53" y="-145.21" font-family="FreeSans" font-size="10.00">1</text>
</a>
</g>
</g>
<!-- dir_ff42852cc454de79d2ecb9482f4de9d8&#45;&gt;dir_32348ece3c89569e6a714937ae854c89 -->
<g id="edge8" class="edge">
<title>dir_ff42852cc454de79d2ecb9482f4de9d8&#45;&gt;dir_32348ece3c89569e6a714937ae854c89</title>
<path fill="none" stroke="black" d="M237.31,-87.7C234.75,-79.9 231.67,-70.51 228.82,-61.83"/>
<polygon fill="black" stroke="black" points="232.07,-60.51 225.62,-52.1 225.42,-62.7 232.07,-60.51"/>
<g id="a_edge8&#45;headlabel"><a xlink:href="dir_000099_000123.html" target="_top" xlink:title="6">
<text text-anchor="middle" x="235.89" y="-60.54" font-family="FreeSans" font-size="10.00">6</text>
</a>
</g>
</g>
<!-- dir_0c8523deb6301657d04bd2a03358f9f8 -->
<g id="node8" class="node">
<title>dir_0c8523deb6301657d04bd2a03358f9f8</title>
<text text-anchor="middle" x="195" y="-463.5" font-family="FreeSans" font-size="10.00">MK4Interface</text>
</g>
<!-- dir_f5effd4e5946b2caa27c744fe2078285 -->
<g id="node9" class="node">
<title>dir_f5effd4e5946b2caa27c744fe2078285</title>
<g id="a_node9"><a xlink:href="dir_f5effd4e5946b2caa27c744fe2078285.html" target="_top" xlink:title="include">
<polygon fill="white" stroke="black" points="139,-412 85,-412 85,-376 139,-376 139,-412"/>
<text text-anchor="middle" x="112" y="-391.5" font-family="FreeSans" font-size="10.00">include</text>
</a>
</g>
</g>
<!-- dir_f5effd4e5946b2caa27c744fe2078285&#45;&gt;dir_150f406a44a04ce55518da03ec553ece -->
<g id="edge24" class="edge">
<title>dir_f5effd4e5946b2caa27c744fe2078285&#45;&gt;dir_150f406a44a04ce55518da03ec553ece</title>
<path fill="none" stroke="black" d="M112.89,-375.86C114.69,-346.19 119.73,-283.51 132,-232 134.06,-223.35 137.06,-214.15 140.06,-205.89"/>
<polygon fill="black" stroke="black" points="143.4,-206.96 143.67,-196.37 136.86,-204.48 143.4,-206.96"/>
<g id="a_edge24&#45;headlabel"><a xlink:href="dir_000128_000086.html" target="_top" xlink:title="9">
<text text-anchor="middle" x="144.78" y="-208.83" font-family="FreeSans" font-size="10.00">9</text>
</a>
</g>
</g>
<!-- dir_f5effd4e5946b2caa27c744fe2078285&#45;&gt;dir_2d98c6b8f23a5c53321666bdc86a2d6a -->
<g id="edge25" class="edge">
<title>dir_f5effd4e5946b2caa27c744fe2078285&#45;&gt;dir_2d98c6b8f23a5c53321666bdc86a2d6a</title>
<path fill="none" stroke="black" d="M96.43,-375.7C88.8,-367.22 79.48,-356.86 71.12,-347.58"/>
<polygon fill="black" stroke="black" points="73.69,-345.2 64.39,-340.1 68.48,-349.88 73.69,-345.2"/>
<g id="a_edge25&#45;headlabel"><a xlink:href="dir_000128_000141.html" target="_top" xlink:title="1">
<text text-anchor="middle" x="78.2" y="-343.47" font-family="FreeSans" font-size="10.00">1</text>
</a>
</g>
</g>
<!-- dir_f5effd4e5946b2caa27c744fe2078285&#45;&gt;dir_32348ece3c89569e6a714937ae854c89 -->
<g id="edge26" class="edge">
<title>dir_f5effd4e5946b2caa27c744fe2078285&#45;&gt;dir_32348ece3c89569e6a714937ae854c89</title>
<path fill="none" stroke="black" d="M108.55,-375.96C101.35,-336.53 87.55,-236.54 115,-160 129.83,-118.66 165.18,-81.56 190.78,-58.72"/>
<polygon fill="black" stroke="black" points="193.13,-61.31 198.37,-52.1 188.53,-56.03 193.13,-61.31"/>
<g id="a_edge26&#45;headlabel"><a xlink:href="dir_000128_000123.html" target="_top" xlink:title="5">
<text text-anchor="middle" x="192.29" y="-63.31" font-family="FreeSans" font-size="10.00">5</text>
</a>
</g>
</g>
<!-- dir_f5effd4e5946b2caa27c744fe2078285&#45;&gt;dir_4546011bd625f1142c4c4ae06dcdb5ba -->
<g id="edge27" class="edge">
<title>dir_f5effd4e5946b2caa27c744fe2078285&#45;&gt;dir_4546011bd625f1142c4c4ae06dcdb5ba</title>
<path fill="none" stroke="black" d="M132.82,-375.8C136.18,-373.14 139.66,-370.46 143,-368 153.22,-360.47 164.6,-352.63 175.04,-345.64"/>
<polygon fill="black" stroke="black" points="177.15,-348.45 183.54,-340 173.28,-342.62 177.15,-348.45"/>
<g id="a_edge27&#45;headlabel"><a xlink:href="dir_000128_000089.html" target="_top" xlink:title="1">
<text text-anchor="middle" x="175.72" y="-350.3" font-family="FreeSans" font-size="10.00">1</text>
</a>
</g>
</g>
<!-- dir_f5effd4e5946b2caa27c744fe2078285&#45;&gt;dir_91ae3e556fa9cad9030b784323206cc7 -->
<g id="edge28" class="edge">
<title>dir_f5effd4e5946b2caa27c744fe2078285&#45;&gt;dir_91ae3e556fa9cad9030b784323206cc7</title>
<path fill="none" stroke="black" d="M139.07,-394C171.93,-394 204.79,-394 237.65,-394"/>
<polygon fill="black" stroke="black" points="237.84,-397.5 247.84,-394 237.84,-390.5 237.84,-397.5"/>
<g id="a_edge28&#45;headlabel"><a xlink:href="dir_000128_000102.html" target="_top" xlink:title="2">
<text text-anchor="middle" x="234.25" y="-397.84" font-family="FreeSans" font-size="10.00">2</text>
</a>
</g>
</g>
<!-- dir_f5effd4e5946b2caa27c744fe2078285&#45;&gt;dir_a06008c3e245d1092ba6894d6caedef2 -->
<g id="edge29" class="edge">
<title>dir_f5effd4e5946b2caa27c744fe2078285&#45;&gt;dir_a06008c3e245d1092ba6894d6caedef2</title>
<path fill="none" stroke="black" d="M130.81,-375.79C134.65,-372.88 138.8,-370.12 143,-368 186.48,-346 215.38,-375.27 249,-340 264.54,-323.69 268.67,-297.94 269.27,-278.32"/>
<polygon fill="black" stroke="black" points="272.77,-278.16 269.29,-268.15 265.77,-278.15 272.77,-278.16"/>
<g id="a_edge29&#45;headlabel"><a xlink:href="dir_000128_000096.html" target="_top" xlink:title="9">
<text text-anchor="middle" x="275.6" y="-279.26" font-family="FreeSans" font-size="10.00">9</text>
</a>
</g>
</g>
<!-- dir_aed06bd2bd23a81c06cd39cc832a7382 -->
<g id="node10" class="node">
<title>dir_aed06bd2bd23a81c06cd39cc832a7382</title>
<g id="a_node10"><a xlink:href="dir_aed06bd2bd23a81c06cd39cc832a7382.html" target="_top" xlink:title="src">
<polygon fill="white" stroke="black" points="139,-484 85,-484 85,-448 139,-448 139,-484"/>
<text text-anchor="middle" x="112" y="-463.5" font-family="FreeSans" font-size="10.00">src</text>
</a>
</g>
</g>
<!-- dir_aed06bd2bd23a81c06cd39cc832a7382&#45;&gt;dir_150f406a44a04ce55518da03ec553ece -->
<g id="edge15" class="edge">
<title>dir_aed06bd2bd23a81c06cd39cc832a7382&#45;&gt;dir_150f406a44a04ce55518da03ec553ece</title>
<path fill="none" stroke="black" d="M127.61,-447.77C135.37,-438.03 143.95,-425.18 148,-412 153.75,-393.31 148.59,-387.55 148,-368 146.19,-307.52 136.92,-292.29 142,-232 142.72,-223.5 144.07,-214.31 145.51,-206.01"/>
<polygon fill="black" stroke="black" points="148.97,-206.56 147.35,-196.09 142.09,-205.29 148.97,-206.56"/>
<g id="a_edge15&#45;headlabel"><a xlink:href="dir_000127_000086.html" target="_top" xlink:title="9">
<text text-anchor="middle" x="151.11" y="-208.11" font-family="FreeSans" font-size="10.00">9</text>
</a>
</g>
</g>
<!-- dir_aed06bd2bd23a81c06cd39cc832a7382&#45;&gt;dir_2d98c6b8f23a5c53321666bdc86a2d6a -->
<g id="edge16" class="edge">
<title>dir_aed06bd2bd23a81c06cd39cc832a7382&#45;&gt;dir_2d98c6b8f23a5c53321666bdc86a2d6a</title>
<path fill="none" stroke="black" d="M98.25,-447.66C90.86,-437.68 82.04,-424.65 76,-412 66.52,-392.15 59.48,-368.21 54.97,-350.17"/>
<polygon fill="black" stroke="black" points="58.34,-349.21 52.61,-340.3 51.53,-350.84 58.34,-349.21"/>
<g id="a_edge16&#45;headlabel"><a xlink:href="dir_000127_000141.html" target="_top" xlink:title="1">
<text text-anchor="middle" x="61.94" y="-349.55" font-family="FreeSans" font-size="10.00">1</text>
</a>
</g>
</g>
<!-- dir_aed06bd2bd23a81c06cd39cc832a7382&#45;&gt;dir_32348ece3c89569e6a714937ae854c89 -->
<g id="edge17" class="edge">
<title>dir_aed06bd2bd23a81c06cd39cc832a7382&#45;&gt;dir_32348ece3c89569e6a714937ae854c89</title>
<path fill="none" stroke="black" d="M139.18,-451.59C142.44,-450.25 145.76,-449.02 149,-448 234.74,-421.02 279.68,-470.4 348,-412 379.84,-384.78 379,-364.89 379,-323 379,-323 379,-323 379,-177 379,-112.08 304.35,-69.46 257.35,-49.05"/>
<polygon fill="black" stroke="black" points="258.64,-45.8 248.06,-45.15 255.92,-52.25 258.64,-45.8"/>
<g id="a_edge17&#45;headlabel"><a xlink:href="dir_000127_000123.html" target="_top" xlink:title="2">
<text text-anchor="middle" x="263.05" y="-42.07" font-family="FreeSans" font-size="10.00">2</text>
</a>
</g>
</g>
<!-- dir_aed06bd2bd23a81c06cd39cc832a7382&#45;&gt;dir_91ae3e556fa9cad9030b784323206cc7 -->
<g id="edge18" class="edge">
<title>dir_aed06bd2bd23a81c06cd39cc832a7382&#45;&gt;dir_91ae3e556fa9cad9030b784323206cc7</title>
<path fill="none" stroke="black" d="M139.39,-452.16C142.61,-450.73 145.87,-449.31 149,-448 187.56,-431.86 200.61,-430.08 238.22,-414.39"/>
<polygon fill="black" stroke="black" points="239.93,-417.47 247.77,-410.34 237.2,-411.03 239.93,-417.47"/>
<g id="a_edge18&#45;headlabel"><a xlink:href="dir_000127_000102.html" target="_top" xlink:title="1">
<text text-anchor="middle" x="237.74" y="-418.99" font-family="FreeSans" font-size="10.00">1</text>
</a>
</g>
</g>
<!-- dir_aed06bd2bd23a81c06cd39cc832a7382&#45;&gt;dir_a06008c3e245d1092ba6894d6caedef2 -->
<g id="edge19" class="edge">
<title>dir_aed06bd2bd23a81c06cd39cc832a7382&#45;&gt;dir_a06008c3e245d1092ba6894d6caedef2</title>
<path fill="none" stroke="black" d="M139.21,-451.68C142.46,-450.33 145.78,-449.07 149,-448 222.32,-423.73 270.37,-472 319,-412 351.59,-371.79 314.98,-310.47 289.11,-276.28"/>
<polygon fill="black" stroke="black" points="291.72,-273.94 282.81,-268.2 286.2,-278.24 291.72,-273.94"/>
<g id="a_edge19&#45;headlabel"><a xlink:href="dir_000127_000096.html" target="_top" xlink:title="2">
<text text-anchor="middle" x="296.17" y="-272.53" font-family="FreeSans" font-size="10.00">2</text>
</a>
</g>
</g>
<!-- dir_aed06bd2bd23a81c06cd39cc832a7382&#45;&gt;dir_ff42852cc454de79d2ecb9482f4de9d8 -->
<g id="edge21" class="edge">
<title>dir_aed06bd2bd23a81c06cd39cc832a7382&#45;&gt;dir_ff42852cc454de79d2ecb9482f4de9d8</title>
<path fill="none" stroke="black" d="M139.19,-451.64C142.45,-450.3 145.77,-449.05 149,-448 227.02,-422.7 277.97,-475.4 330,-412 401.86,-324.44 349.03,-257.86 292,-160 286.01,-149.72 277.72,-139.78 269.67,-131.33"/>
<polygon fill="black" stroke="black" points="271.94,-128.66 262.41,-124.03 266.98,-133.59 271.94,-128.66"/>
<g id="a_edge21&#45;headlabel"><a xlink:href="dir_000127_000099.html" target="_top" xlink:title="2">
<text text-anchor="middle" x="276.49" y="-126.7" font-family="FreeSans" font-size="10.00">2</text>
</a>
</g>
</g>
<!-- dir_aed06bd2bd23a81c06cd39cc832a7382&#45;&gt;dir_f5effd4e5946b2caa27c744fe2078285 -->
<g id="edge20" class="edge">
<title>dir_aed06bd2bd23a81c06cd39cc832a7382&#45;&gt;dir_f5effd4e5946b2caa27c744fe2078285</title>
<path fill="none" stroke="black" d="M112,-447.7C112,-439.98 112,-430.71 112,-422.11"/>
<polygon fill="black" stroke="black" points="115.5,-422.1 112,-412.1 108.5,-422.1 115.5,-422.1"/>
<g id="a_edge20&#45;headlabel"><a xlink:href="dir_000127_000128.html" target="_top" xlink:title="10">
<text text-anchor="middle" x="118.34" y="-423.2" font-family="FreeSans" font-size="10.00">10</text>
</a>
</g>
</g>
<!-- dir_0c6283dd7716efebfcf76fdb98d8e794 -->
<g id="node11" class="node">
<title>dir_0c6283dd7716efebfcf76fdb98d8e794</title>
<g id="a_node11"><a xlink:href="dir_0c6283dd7716efebfcf76fdb98d8e794.html" target="_top" xlink:title="c_src">
<polygon fill="white" stroke="red" points="452,-412 398,-412 398,-376 452,-376 452,-412"/>
<text text-anchor="middle" x="425" y="-391.5" font-family="FreeSans" font-size="10.00">c_src</text>
</a>
</g>
</g>
<!-- dir_aed06bd2bd23a81c06cd39cc832a7382&#45;&gt;dir_0c6283dd7716efebfcf76fdb98d8e794 -->
<g id="edge14" class="edge">
<title>dir_aed06bd2bd23a81c06cd39cc832a7382&#45;&gt;dir_0c6283dd7716efebfcf76fdb98d8e794</title>
<path fill="none" stroke="black" d="M139.14,-451.48C142.41,-450.17 145.75,-448.97 149,-448 250.49,-417.84 285.92,-443.78 388.15,-412.88"/>
<polygon fill="black" stroke="black" points="389.43,-416.15 397.93,-409.82 387.34,-409.47 389.43,-416.15"/>
<g id="a_edge14&#45;headlabel"><a xlink:href="dir_000127_000013.html" target="_top" xlink:title="18">
<text text-anchor="middle" x="386.85" y="-417.43" font-family="FreeSans" font-size="10.00">18</text>
</a>
</g>
</g>
</g>
</svg>
