<?xml version="1.0" encoding="UTF-8" standalone="no"?>
<!DOCTYPE svg PUBLIC "-//W3C//DTD SVG 1.1//EN"
 "http://www.w3.org/Graphics/SVG/1.1/DTD/svg11.dtd">
<!-- Generated by graphviz version 2.43.0 (0)
 -->
<!-- Title: Containers Pages: 1 -->
<svg width="192pt" height="375pt"
 viewBox="0.00 0.00 192.00 375.00" xmlns="http://www.w3.org/2000/svg" xmlns:xlink="http://www.w3.org/1999/xlink">
<g id="graph0" class="graph" transform="scale(1 1) rotate(0) translate(4 371)">
<title>Containers</title>
<polygon fill="white" stroke="transparent" points="-4,4 -4,-371 188,-371 188,4 -4,4"/>
<g id="clust1" class="cluster">
<title>clusterdir_f1ba8c0e7d28a93252eea320364e0857</title>
<g id="a_clust1"><a xlink:href="dir_f1ba8c0e7d28a93252eea320364e0857.html" target="_top" xlink:title="PythonBindings">
<polygon fill="#ddddee" stroke="black" points="8,-200 8,-359 176,-359 176,-200 8,-200"/>
<text text-anchor="middle" x="92" y="-347" font-family="FreeSans" font-size="10.00">PythonBindings</text>
</a>
</g>
</g>
<g id="clust2" class="cluster">
<title>clusterdir_68ccf097de5ef9ba8fe5a1575ab7d7d7</title>
<g id="a_clust2"><a xlink:href="dir_68ccf097de5ef9ba8fe5a1575ab7d7d7.html" target="_top">
<polygon fill="#eeeeff" stroke="black" points="16,-208 16,-332 168,-332 168,-208 16,-208"/>
</a>
</g>
</g>
<!-- dir_68ccf097de5ef9ba8fe5a1575ab7d7d7 -->
<g id="node1" class="node">
<title>dir_68ccf097de5ef9ba8fe5a1575ab7d7d7</title>
<text text-anchor="middle" x="128" y="-303.5" font-family="FreeSans" font-size="10.00">Containers</text>
</g>
<!-- dir_c4883bfeea456b22d4c7899d23561ce2 -->
<g id="node2" class="node">
<title>dir_c4883bfeea456b22d4c7899d23561ce2</title>
<g id="a_node2"><a xlink:href="dir_c4883bfeea456b22d4c7899d23561ce2.html" target="_top" xlink:title="include">
<polygon fill="white" stroke="black" points="78,-252 24,-252 24,-216 78,-216 78,-252"/>
<text text-anchor="middle" x="51" y="-231.5" font-family="FreeSans" font-size="10.00">include</text>
</a>
</g>
</g>
<!-- dir_32348ece3c89569e6a714937ae854c89 -->
<g id="node4" class="node">
<title>dir_32348ece3c89569e6a714937ae854c89</title>
<g id="a_node4"><a xlink:href="dir_32348ece3c89569e6a714937ae854c89.html" target="_top" xlink:title="Message">
<polygon fill="white" stroke="red" points="89,-36 33,-36 33,0 89,0 89,-36"/>
<text text-anchor="middle" x="61" y="-15.5" font-family="FreeSans" font-size="10.00">Message</text>
</a>
</g>
</g>
<!-- dir_c4883bfeea456b22d4c7899d23561ce2&#45;&gt;dir_32348ece3c89569e6a714937ae854c89 -->
<g id="edge2" class="edge">
<title>dir_c4883bfeea456b22d4c7899d23561ce2&#45;&gt;dir_32348ece3c89569e6a714937ae854c89</title>
<path fill="none" stroke="black" d="M43.16,-215.73C30.71,-185.86 9.35,-122.88 25,-72 28.01,-62.22 33.51,-52.62 39.32,-44.33"/>
<polygon fill="black" stroke="black" points="42.19,-46.33 45.39,-36.23 36.59,-42.13 42.19,-46.33"/>
<g id="a_edge2&#45;headlabel"><a xlink:href="dir_000136_000123.html" target="_top" xlink:title="1">
<text text-anchor="middle" x="42.31" y="-48.41" font-family="FreeSans" font-size="10.00">1</text>
</a>
</g>
</g>
<!-- dir_a06008c3e245d1092ba6894d6caedef2 -->
<g id="node5" class="node">
<title>dir_a06008c3e245d1092ba6894d6caedef2</title>
<g id="a_node5"><a xlink:href="dir_a06008c3e245d1092ba6894d6caedef2.html" target="_top" xlink:title="Containers">
<polygon fill="white" stroke="red" points="141.5,-180 78.5,-180 78.5,-144 141.5,-144 141.5,-180"/>
<text text-anchor="middle" x="110" y="-159.5" font-family="FreeSans" font-size="10.00">Containers</text>
</a>
</g>
</g>
<!-- dir_c4883bfeea456b22d4c7899d23561ce2&#45;&gt;dir_a06008c3e245d1092ba6894d6caedef2 -->
<g id="edge3" class="edge">
<title>dir_c4883bfeea456b22d4c7899d23561ce2&#45;&gt;dir_a06008c3e245d1092ba6894d6caedef2</title>
<path fill="none" stroke="black" d="M65.58,-215.7C72.66,-207.3 81.28,-197.07 89.05,-187.86"/>
<polygon fill="black" stroke="black" points="91.81,-190.01 95.58,-180.1 86.46,-185.49 91.81,-190.01"/>
<g id="a_edge3&#45;headlabel"><a xlink:href="dir_000136_000096.html" target="_top" xlink:title="13">
<text text-anchor="middle" x="91.67" y="-192.08" font-family="FreeSans" font-size="10.00">13</text>
</a>
</g>
</g>
<!-- dir_150f406a44a04ce55518da03ec553ece -->
<g id="node6" class="node">
<title>dir_150f406a44a04ce55518da03ec553ece</title>
<g id="a_node6"><a xlink:href="dir_150f406a44a04ce55518da03ec553ece.html" target="_top" xlink:title="Utilities">
<polygon fill="white" stroke="red" points="88,-108 34,-108 34,-72 88,-72 88,-108"/>
<text text-anchor="middle" x="61" y="-87.5" font-family="FreeSans" font-size="10.00">Utilities</text>
</a>
</g>
</g>
<!-- dir_c4883bfeea456b22d4c7899d23561ce2&#45;&gt;dir_150f406a44a04ce55518da03ec553ece -->
<g id="edge1" class="edge">
<title>dir_c4883bfeea456b22d4c7899d23561ce2&#45;&gt;dir_150f406a44a04ce55518da03ec553ece</title>
<path fill="none" stroke="black" d="M52.21,-215.87C53.91,-191.67 57.04,-147.21 59.07,-118.39"/>
<polygon fill="black" stroke="black" points="62.58,-118.41 59.79,-108.19 55.6,-117.92 62.58,-118.41"/>
<g id="a_edge1&#45;headlabel"><a xlink:href="dir_000136_000086.html" target="_top" xlink:title="4">
<text text-anchor="middle" x="65.16" y="-119.7" font-family="FreeSans" font-size="10.00">4</text>
</a>
</g>
</g>
<!-- dir_4489daeb08af3a347d227a46effb959c -->
<g id="node3" class="node">
<title>dir_4489daeb08af3a347d227a46effb959c</title>
<g id="a_node3"><a xlink:href="dir_4489daeb08af3a347d227a46effb959c.html" target="_top" xlink:title="src">
<polygon fill="white" stroke="black" points="78,-324 24,-324 24,-288 78,-288 78,-324"/>
<text text-anchor="middle" x="51" y="-303.5" font-family="FreeSans" font-size="10.00">src</text>
</a>
</g>
</g>
<!-- dir_4489daeb08af3a347d227a46effb959c&#45;&gt;dir_c4883bfeea456b22d4c7899d23561ce2 -->
<g id="edge5" class="edge">
<title>dir_4489daeb08af3a347d227a46effb959c&#45;&gt;dir_c4883bfeea456b22d4c7899d23561ce2</title>
<path fill="none" stroke="black" d="M51,-287.7C51,-279.98 51,-270.71 51,-262.11"/>
<polygon fill="black" stroke="black" points="54.5,-262.1 51,-252.1 47.5,-262.1 54.5,-262.1"/>
<g id="a_edge5&#45;headlabel"><a xlink:href="dir_000137_000136.html" target="_top" xlink:title="5">
<text text-anchor="middle" x="57.34" y="-263.2" font-family="FreeSans" font-size="10.00">5</text>
</a>
</g>
</g>
<!-- dir_4489daeb08af3a347d227a46effb959c&#45;&gt;dir_a06008c3e245d1092ba6894d6caedef2 -->
<g id="edge4" class="edge">
<title>dir_4489daeb08af3a347d227a46effb959c&#45;&gt;dir_a06008c3e245d1092ba6894d6caedef2</title>
<path fill="none" stroke="black" d="M64.95,-287.76C72.41,-277.81 81.22,-264.77 87,-252 95.96,-232.19 101.9,-208.25 105.49,-190.2"/>
<polygon fill="black" stroke="black" points="108.94,-190.79 107.34,-180.32 102.06,-189.5 108.94,-190.79"/>
<g id="a_edge4&#45;headlabel"><a xlink:href="dir_000137_000096.html" target="_top" xlink:title="1">
<text text-anchor="middle" x="111.07" y="-192.35" font-family="FreeSans" font-size="10.00">1</text>
</a>
</g>
</g>
<!-- dir_a06008c3e245d1092ba6894d6caedef2&#45;&gt;dir_32348ece3c89569e6a714937ae854c89 -->
<g id="edge7" class="edge">
<title>dir_a06008c3e245d1092ba6894d6caedef2&#45;&gt;dir_32348ece3c89569e6a714937ae854c89</title>
<path fill="none" stroke="black" d="M109.75,-143.69C108.97,-125.32 106.22,-95.72 97,-72 93.23,-62.31 87.41,-52.62 81.54,-44.23"/>
<polygon fill="black" stroke="black" points="84.24,-41.99 75.49,-36.02 78.6,-46.14 84.24,-41.99"/>
<g id="a_edge7&#45;headlabel"><a xlink:href="dir_000096_000123.html" target="_top" xlink:title="9">
<text text-anchor="middle" x="88.66" y="-40.71" font-family="FreeSans" font-size="10.00">9</text>
</a>
</g>
</g>
<!-- dir_a06008c3e245d1092ba6894d6caedef2&#45;&gt;dir_150f406a44a04ce55518da03ec553ece -->
<g id="edge6" class="edge">
<title>dir_a06008c3e245d1092ba6894d6caedef2&#45;&gt;dir_150f406a44a04ce55518da03ec553ece</title>
<path fill="none" stroke="black" d="M97.89,-143.7C92.13,-135.47 85.14,-125.48 78.79,-116.42"/>
<polygon fill="black" stroke="black" points="81.58,-114.29 72.97,-108.1 75.84,-118.3 81.58,-114.29"/>
<g id="a_edge6&#45;headlabel"><a xlink:href="dir_000096_000086.html" target="_top" xlink:title="42">
<text text-anchor="middle" x="85.96" y="-113.11" font-family="FreeSans" font-size="10.00">42</text>
</a>
</g>
</g>
<!-- dir_150f406a44a04ce55518da03ec553ece&#45;&gt;dir_32348ece3c89569e6a714937ae854c89 -->
<g id="edge8" class="edge">
<title>dir_150f406a44a04ce55518da03ec553ece&#45;&gt;dir_32348ece3c89569e6a714937ae854c89</title>
<path fill="none" stroke="black" d="M61,-71.7C61,-63.98 61,-54.71 61,-46.11"/>
<polygon fill="black" stroke="black" points="64.5,-46.1 61,-36.1 57.5,-46.1 64.5,-46.1"/>
<g id="a_edge8&#45;headlabel"><a xlink:href="dir_000086_000123.html" target="_top" xlink:title="13">
<text text-anchor="middle" x="67.34" y="-47.2" font-family="FreeSans" font-size="10.00">13</text>
</a>
</g>
</g>
</g>
</svg>
