<?xml version="1.0" encoding="UTF-8" standalone="no"?>
<!DOCTYPE svg PUBLIC "-//W3C//DTD SVG 1.1//EN"
 "http://www.w3.org/Graphics/SVG/1.1/DTD/svg11.dtd">
<!-- Generated by graphviz version 2.43.0 (0)
 -->
<!-- Title: ffsearch Pages: 1 -->
<svg width="458pt" height="447pt"
 viewBox="0.00 0.00 458.00 447.00" xmlns="http://www.w3.org/2000/svg" xmlns:xlink="http://www.w3.org/1999/xlink">
<g id="graph0" class="graph" transform="scale(1 1) rotate(0) translate(4 443)">
<title>ffsearch</title>
<polygon fill="white" stroke="transparent" points="-4,4 -4,-443 454,-443 454,4 -4,4"/>
<g id="clust1" class="cluster">
<title>clusterdir_9ef7e4ca5af767b4d78801a8e1d37f3e</title>
<g id="a_clust1"><a xlink:href="dir_9ef7e4ca5af767b4d78801a8e1d37f3e.html" target="_top" xlink:title="fourfit_libs">
<polygon fill="#ddddee" stroke="black" points="200,-136 200,-431 358,-431 358,-136 200,-136"/>
<text text-anchor="middle" x="279" y="-419" font-family="FreeSans" font-size="10.00">fourfit_libs</text>
</a>
</g>
</g>
<g id="clust2" class="cluster">
<title>clusterdir_86b85e15943ea3cbc40c546f382f4970</title>
<g id="a_clust2"><a xlink:href="dir_86b85e15943ea3cbc40c546f382f4970.html" target="_top">
<polygon fill="#eeeeff" stroke="black" points="208,-280 208,-404 350,-404 350,-280 208,-280"/>
</a>
</g>
</g>
<!-- dir_0908837483934fe24781ea7898fec311 -->
<g id="node1" class="node">
<title>dir_0908837483934fe24781ea7898fec311</title>
<g id="a_node1"><a xlink:href="dir_0908837483934fe24781ea7898fec311.html" target="_top" xlink:title="ffcore">
<polygon fill="white" stroke="red" points="274,-252 220,-252 220,-216 274,-216 274,-252"/>
<text text-anchor="middle" x="247" y="-231.5" font-family="FreeSans" font-size="10.00">ffcore</text>
</a>
</g>
</g>
<!-- dir_f79eaa419c9665ed0522066c5c6851c4 -->
<g id="node2" class="node">
<title>dir_f79eaa419c9665ed0522066c5c6851c4</title>
<g id="a_node2"><a xlink:href="dir_f79eaa419c9665ed0522066c5c6851c4.html" target="_top" xlink:title="ffcontrol">
<polygon fill="white" stroke="red" points="278,-180 224,-180 224,-144 278,-144 278,-180"/>
<text text-anchor="middle" x="251" y="-159.5" font-family="FreeSans" font-size="10.00">ffcontrol</text>
</a>
</g>
</g>
<!-- dir_0908837483934fe24781ea7898fec311&#45;&gt;dir_f79eaa419c9665ed0522066c5c6851c4 -->
<g id="edge11" class="edge">
<title>dir_0908837483934fe24781ea7898fec311&#45;&gt;dir_f79eaa419c9665ed0522066c5c6851c4</title>
<path fill="none" stroke="black" d="M247.99,-215.7C248.43,-207.98 248.96,-198.71 249.45,-190.11"/>
<polygon fill="black" stroke="black" points="252.95,-190.29 250.02,-180.1 245.96,-189.89 252.95,-190.29"/>
<g id="a_edge11&#45;headlabel"><a xlink:href="dir_000047_000054.html" target="_top" xlink:title="13">
<text text-anchor="middle" x="255.58" y="-191.54" font-family="FreeSans" font-size="10.00">13</text>
</a>
</g>
</g>
<!-- dir_85c02f264b7a99962a0503cb6605bebc -->
<g id="node3" class="node">
<title>dir_85c02f264b7a99962a0503cb6605bebc</title>
<g id="a_node3"><a xlink:href="dir_85c02f264b7a99962a0503cb6605bebc.html" target="_top" xlink:title="ffmath">
<polygon fill="white" stroke="red" points="350,-180 296,-180 296,-144 350,-144 350,-180"/>
<text text-anchor="middle" x="323" y="-159.5" font-family="FreeSans" font-size="10.00">ffmath</text>
</a>
</g>
</g>
<!-- dir_0908837483934fe24781ea7898fec311&#45;&gt;dir_85c02f264b7a99962a0503cb6605bebc -->
<g id="edge15" class="edge">
<title>dir_0908837483934fe24781ea7898fec311&#45;&gt;dir_85c02f264b7a99962a0503cb6605bebc</title>
<path fill="none" stroke="black" d="M265.79,-215.7C275.17,-207.05 286.68,-196.45 296.91,-187.03"/>
<polygon fill="black" stroke="black" points="299.45,-189.45 304.43,-180.1 294.7,-184.3 299.45,-189.45"/>
<g id="a_edge15&#45;headlabel"><a xlink:href="dir_000047_000037.html" target="_top" xlink:title="2">
<text text-anchor="middle" x="298.72" y="-191.48" font-family="FreeSans" font-size="10.00">2</text>
</a>
</g>
</g>
<!-- dir_64078e4dd55db1ba2b4e557207803e4b -->
<g id="node7" class="node">
<title>dir_64078e4dd55db1ba2b4e557207803e4b</title>
<g id="a_node7"><a xlink:href="dir_64078e4dd55db1ba2b4e557207803e4b.html" target="_top" xlink:title="vex">
<polygon fill="white" stroke="red" points="54,-180 0,-180 0,-144 54,-144 54,-180"/>
<text text-anchor="middle" x="27" y="-159.5" font-family="FreeSans" font-size="10.00">vex</text>
</a>
</g>
</g>
<!-- dir_0908837483934fe24781ea7898fec311&#45;&gt;dir_64078e4dd55db1ba2b4e557207803e4b -->
<g id="edge14" class="edge">
<title>dir_0908837483934fe24781ea7898fec311&#45;&gt;dir_64078e4dd55db1ba2b4e557207803e4b</title>
<path fill="none" stroke="black" d="M219.58,-224.28C180.26,-211.76 107.75,-188.69 63.79,-174.71"/>
<polygon fill="black" stroke="black" points="64.66,-171.31 54.07,-171.61 62.54,-177.98 64.66,-171.31"/>
<g id="a_edge14&#45;headlabel"><a xlink:href="dir_000047_000044.html" target="_top" xlink:title="7">
<text text-anchor="middle" x="68.95" y="-167.2" font-family="FreeSans" font-size="10.00">7</text>
</a>
</g>
</g>
<!-- dir_cb2d4e92f47691559fc9d122a5e37fac -->
<g id="node8" class="node">
<title>dir_cb2d4e92f47691559fc9d122a5e37fac</title>
<g id="a_node8"><a xlink:href="dir_cb2d4e92f47691559fc9d122a5e37fac.html" target="_top" xlink:title="mk4util">
<polygon fill="white" stroke="red" points="168,-108 114,-108 114,-72 168,-72 168,-108"/>
<text text-anchor="middle" x="141" y="-87.5" font-family="FreeSans" font-size="10.00">mk4util</text>
</a>
</g>
</g>
<!-- dir_0908837483934fe24781ea7898fec311&#45;&gt;dir_cb2d4e92f47691559fc9d122a5e37fac -->
<g id="edge10" class="edge">
<title>dir_0908837483934fe24781ea7898fec311&#45;&gt;dir_cb2d4e92f47691559fc9d122a5e37fac</title>
<path fill="none" stroke="black" d="M220.84,-215.95C207.9,-206.53 192.79,-193.93 182,-180 167.49,-161.28 156.64,-136.6 149.76,-117.98"/>
<polygon fill="black" stroke="black" points="152.98,-116.59 146.34,-108.33 146.38,-118.93 152.98,-116.59"/>
<g id="a_edge10&#45;headlabel"><a xlink:href="dir_000047_000014.html" target="_top" xlink:title="19">
<text text-anchor="middle" x="156.85" y="-116.53" font-family="FreeSans" font-size="10.00">19</text>
</a>
</g>
</g>
<!-- dir_758df28fbdbb54fb46d6d3d6484a4984 -->
<g id="node9" class="node">
<title>dir_758df28fbdbb54fb46d6d3d6484a4984</title>
<g id="a_node9"><a xlink:href="dir_758df28fbdbb54fb46d6d3d6484a4984.html" target="_top" xlink:title="msg">
<polygon fill="white" stroke="red" points="278,-36 224,-36 224,0 278,0 278,-36"/>
<text text-anchor="middle" x="251" y="-15.5" font-family="FreeSans" font-size="10.00">msg</text>
</a>
</g>
</g>
<!-- dir_0908837483934fe24781ea7898fec311&#45;&gt;dir_758df28fbdbb54fb46d6d3d6484a4984 -->
<g id="edge13" class="edge">
<title>dir_0908837483934fe24781ea7898fec311&#45;&gt;dir_758df28fbdbb54fb46d6d3d6484a4984</title>
<path fill="none" stroke="black" d="M233.44,-215.97C226.44,-206.09 218.63,-193.05 215,-180 201.91,-132.99 222.19,-77.24 237.22,-45.21"/>
<polygon fill="black" stroke="black" points="240.44,-46.59 241.67,-36.06 234.15,-43.52 240.44,-46.59"/>
<g id="a_edge13&#45;headlabel"><a xlink:href="dir_000047_000144.html" target="_top" xlink:title="18">
<text text-anchor="middle" x="241.42" y="-48.56" font-family="FreeSans" font-size="10.00">18</text>
</a>
</g>
</g>
<!-- dir_db8d68003073a61b7114dbc4f792cfed -->
<g id="node10" class="node">
<title>dir_db8d68003073a61b7114dbc4f792cfed</title>
<g id="a_node10"><a xlink:href="dir_db8d68003073a61b7114dbc4f792cfed.html" target="_top" xlink:title="dfio">
<polygon fill="white" stroke="red" points="422,-180 368,-180 368,-144 422,-144 422,-180"/>
<text text-anchor="middle" x="395" y="-159.5" font-family="FreeSans" font-size="10.00">dfio</text>
</a>
</g>
</g>
<!-- dir_0908837483934fe24781ea7898fec311&#45;&gt;dir_db8d68003073a61b7114dbc4f792cfed -->
<g id="edge12" class="edge">
<title>dir_0908837483934fe24781ea7898fec311&#45;&gt;dir_db8d68003073a61b7114dbc4f792cfed</title>
<path fill="none" stroke="black" d="M274.11,-220.91C295.5,-211.28 326.29,-197.23 358.55,-181.63"/>
<polygon fill="black" stroke="black" points="360.21,-184.71 367.68,-177.19 357.15,-178.42 360.21,-184.71"/>
<g id="a_edge12&#45;headlabel"><a xlink:href="dir_000047_000024.html" target="_top" xlink:title="20">
<text text-anchor="middle" x="358.22" y="-186.34" font-family="FreeSans" font-size="10.00">20</text>
</a>
</g>
</g>
<!-- dir_f79eaa419c9665ed0522066c5c6851c4&#45;&gt;dir_cb2d4e92f47691559fc9d122a5e37fac -->
<g id="edge3" class="edge">
<title>dir_f79eaa419c9665ed0522066c5c6851c4&#45;&gt;dir_cb2d4e92f47691559fc9d122a5e37fac</title>
<path fill="none" stroke="black" d="M224.09,-143.88C209.84,-134.81 192.15,-123.55 176.76,-113.76"/>
<polygon fill="black" stroke="black" points="178.33,-110.61 168.01,-108.19 174.57,-116.51 178.33,-110.61"/>
<g id="a_edge3&#45;headlabel"><a xlink:href="dir_000054_000014.html" target="_top" xlink:title="9">
<text text-anchor="middle" x="182.89" y="-107.64" font-family="FreeSans" font-size="10.00">9</text>
</a>
</g>
</g>
<!-- dir_f79eaa419c9665ed0522066c5c6851c4&#45;&gt;dir_758df28fbdbb54fb46d6d3d6484a4984 -->
<g id="edge4" class="edge">
<title>dir_f79eaa419c9665ed0522066c5c6851c4&#45;&gt;dir_758df28fbdbb54fb46d6d3d6484a4984</title>
<path fill="none" stroke="black" d="M251,-143.87C251,-119.67 251,-75.21 251,-46.39"/>
<polygon fill="black" stroke="black" points="254.5,-46.19 251,-36.19 247.5,-46.19 254.5,-46.19"/>
<g id="a_edge4&#45;headlabel"><a xlink:href="dir_000054_000144.html" target="_top" xlink:title="7">
<text text-anchor="middle" x="257.34" y="-47.28" font-family="FreeSans" font-size="10.00">7</text>
</a>
</g>
</g>
<!-- dir_85c02f264b7a99962a0503cb6605bebc&#45;&gt;dir_758df28fbdbb54fb46d6d3d6484a4984 -->
<g id="edge9" class="edge">
<title>dir_85c02f264b7a99962a0503cb6605bebc&#45;&gt;dir_758df28fbdbb54fb46d6d3d6484a4984</title>
<path fill="none" stroke="black" d="M314.32,-143.87C301.88,-119.35 278.9,-74.03 264.31,-45.26"/>
<polygon fill="black" stroke="black" points="267.36,-43.53 259.72,-36.19 261.12,-46.69 267.36,-43.53"/>
<g id="a_edge9&#45;headlabel"><a xlink:href="dir_000037_000144.html" target="_top" xlink:title="3">
<text text-anchor="middle" x="271.52" y="-42.95" font-family="FreeSans" font-size="10.00">3</text>
</a>
</g>
</g>
<!-- dir_85c02f264b7a99962a0503cb6605bebc&#45;&gt;dir_db8d68003073a61b7114dbc4f792cfed -->
<g id="edge8" class="edge">
<title>dir_85c02f264b7a99962a0503cb6605bebc&#45;&gt;dir_db8d68003073a61b7114dbc4f792cfed</title>
<path fill="none" stroke="black" d="M350.28,-162C352.74,-162 355.19,-162 357.65,-162"/>
<polygon fill="black" stroke="black" points="357.75,-165.5 367.75,-162 357.75,-158.5 357.75,-165.5"/>
<g id="a_edge8&#45;headlabel"><a xlink:href="dir_000037_000024.html" target="_top" xlink:title="1">
<text text-anchor="middle" x="354.15" y="-165.84" font-family="FreeSans" font-size="10.00">1</text>
</a>
</g>
</g>
<!-- dir_86b85e15943ea3cbc40c546f382f4970 -->
<g id="node4" class="node">
<title>dir_86b85e15943ea3cbc40c546f382f4970</title>
<text text-anchor="middle" x="315" y="-375.5" font-family="FreeSans" font-size="10.00">ffsearch</text>
</g>
<!-- dir_57f445dd524d26a2684c85cbf39324f0 -->
<g id="node5" class="node">
<title>dir_57f445dd524d26a2684c85cbf39324f0</title>
<g id="a_node5"><a xlink:href="dir_57f445dd524d26a2684c85cbf39324f0.html" target="_top" xlink:title="include">
<polygon fill="white" stroke="black" points="270,-324 216,-324 216,-288 270,-288 270,-324"/>
<text text-anchor="middle" x="243" y="-303.5" font-family="FreeSans" font-size="10.00">include</text>
</a>
</g>
</g>
<!-- dir_57f445dd524d26a2684c85cbf39324f0&#45;&gt;dir_0908837483934fe24781ea7898fec311 -->
<g id="edge5" class="edge">
<title>dir_57f445dd524d26a2684c85cbf39324f0&#45;&gt;dir_0908837483934fe24781ea7898fec311</title>
<path fill="none" stroke="black" d="M243.99,-287.7C244.43,-279.98 244.96,-270.71 245.45,-262.11"/>
<polygon fill="black" stroke="black" points="248.95,-262.29 246.02,-252.1 241.96,-261.89 248.95,-262.29"/>
<g id="a_edge5&#45;headlabel"><a xlink:href="dir_000029_000047.html" target="_top" xlink:title="1">
<text text-anchor="middle" x="251.58" y="-263.54" font-family="FreeSans" font-size="10.00">1</text>
</a>
</g>
</g>
<!-- dir_57f445dd524d26a2684c85cbf39324f0&#45;&gt;dir_64078e4dd55db1ba2b4e557207803e4b -->
<g id="edge6" class="edge">
<title>dir_57f445dd524d26a2684c85cbf39324f0&#45;&gt;dir_64078e4dd55db1ba2b4e557207803e4b</title>
<path fill="none" stroke="black" d="M215.95,-298.63C186.92,-290.9 140.35,-275.86 106,-252 81.17,-234.75 58.91,-208.14 44.4,-188.51"/>
<polygon fill="black" stroke="black" points="47.17,-186.37 38.48,-180.3 41.49,-190.46 47.17,-186.37"/>
<g id="a_edge6&#45;headlabel"><a xlink:href="dir_000029_000044.html" target="_top" xlink:title="1">
<text text-anchor="middle" x="51.57" y="-185.12" font-family="FreeSans" font-size="10.00">1</text>
</a>
</g>
</g>
<!-- dir_57f445dd524d26a2684c85cbf39324f0&#45;&gt;dir_cb2d4e92f47691559fc9d122a5e37fac -->
<g id="edge7" class="edge">
<title>dir_57f445dd524d26a2684c85cbf39324f0&#45;&gt;dir_cb2d4e92f47691559fc9d122a5e37fac</title>
<path fill="none" stroke="black" d="M225.57,-287.87C204,-265.4 168.26,-223.67 153,-180 146.02,-160.04 143.07,-136.25 141.84,-118.29"/>
<polygon fill="black" stroke="black" points="145.33,-118 141.28,-108.2 138.34,-118.38 145.33,-118"/>
<g id="a_edge7&#45;headlabel"><a xlink:href="dir_000029_000014.html" target="_top" xlink:title="1">
<text text-anchor="middle" x="148.36" y="-118.93" font-family="FreeSans" font-size="10.00">1</text>
</a>
</g>
</g>
<!-- dir_4798519f28252f1be025a68649c773ad -->
<g id="node6" class="node">
<title>dir_4798519f28252f1be025a68649c773ad</title>
<g id="a_node6"><a xlink:href="dir_4798519f28252f1be025a68649c773ad.html" target="_top" xlink:title="src">
<polygon fill="white" stroke="black" points="270,-396 216,-396 216,-360 270,-360 270,-396"/>
<text text-anchor="middle" x="243" y="-375.5" font-family="FreeSans" font-size="10.00">src</text>
</a>
</g>
</g>
<!-- dir_4798519f28252f1be025a68649c773ad&#45;&gt;dir_0908837483934fe24781ea7898fec311 -->
<g id="edge19" class="edge">
<title>dir_4798519f28252f1be025a68649c773ad&#45;&gt;dir_0908837483934fe24781ea7898fec311</title>
<path fill="none" stroke="black" d="M258.61,-359.77C266.37,-350.03 274.95,-337.18 279,-324 284.75,-305.31 284.95,-298.63 279,-280 276.84,-273.25 273.27,-266.65 269.27,-260.67"/>
<polygon fill="black" stroke="black" points="271.95,-258.41 263.22,-252.41 266.31,-262.55 271.95,-258.41"/>
<g id="a_edge19&#45;headlabel"><a xlink:href="dir_000028_000047.html" target="_top" xlink:title="62">
<text text-anchor="middle" x="276.37" y="-257.14" font-family="FreeSans" font-size="10.00">62</text>
</a>
</g>
</g>
<!-- dir_4798519f28252f1be025a68649c773ad&#45;&gt;dir_f79eaa419c9665ed0522066c5c6851c4 -->
<g id="edge26" class="edge">
<title>dir_4798519f28252f1be025a68649c773ad&#45;&gt;dir_f79eaa419c9665ed0522066c5c6851c4</title>
<path fill="none" stroke="black" d="M262.04,-359.84C271.18,-350.3 281.17,-337.62 286,-324 290.29,-311.89 284.34,-220.4 283,-216 280.11,-206.48 275.13,-196.92 269.94,-188.59"/>
<polygon fill="black" stroke="black" points="272.76,-186.51 264.33,-180.1 266.92,-190.37 272.76,-186.51"/>
<g id="a_edge26&#45;headlabel"><a xlink:href="dir_000028_000054.html" target="_top" xlink:title="11">
<text text-anchor="middle" x="277.11" y="-185.44" font-family="FreeSans" font-size="10.00">11</text>
</a>
</g>
</g>
<!-- dir_4798519f28252f1be025a68649c773ad&#45;&gt;dir_85c02f264b7a99962a0503cb6605bebc -->
<g id="edge23" class="edge">
<title>dir_4798519f28252f1be025a68649c773ad&#45;&gt;dir_85c02f264b7a99962a0503cb6605bebc</title>
<path fill="none" stroke="black" d="M263.09,-359.76C272.97,-350.2 284.19,-337.53 291,-324 312.75,-280.77 319.72,-224.05 321.96,-190.76"/>
<polygon fill="black" stroke="black" points="325.47,-190.61 322.55,-180.42 318.48,-190.21 325.47,-190.61"/>
<g id="a_edge23&#45;headlabel"><a xlink:href="dir_000028_000037.html" target="_top" xlink:title="3">
<text text-anchor="middle" x="328.1" y="-191.86" font-family="FreeSans" font-size="10.00">3</text>
</a>
</g>
</g>
<!-- dir_4798519f28252f1be025a68649c773ad&#45;&gt;dir_57f445dd524d26a2684c85cbf39324f0 -->
<g id="edge20" class="edge">
<title>dir_4798519f28252f1be025a68649c773ad&#45;&gt;dir_57f445dd524d26a2684c85cbf39324f0</title>
<path fill="none" stroke="black" d="M243,-359.7C243,-351.98 243,-342.71 243,-334.11"/>
<polygon fill="black" stroke="black" points="246.5,-334.1 243,-324.1 239.5,-334.1 246.5,-334.1"/>
<g id="a_edge20&#45;headlabel"><a xlink:href="dir_000028_000029.html" target="_top" xlink:title="13">
<text text-anchor="middle" x="249.34" y="-335.2" font-family="FreeSans" font-size="10.00">13</text>
</a>
</g>
</g>
<!-- dir_4798519f28252f1be025a68649c773ad&#45;&gt;dir_64078e4dd55db1ba2b4e557207803e4b -->
<g id="edge21" class="edge">
<title>dir_4798519f28252f1be025a68649c773ad&#45;&gt;dir_64078e4dd55db1ba2b4e557207803e4b</title>
<path fill="none" stroke="black" d="M215.69,-376.65C177.18,-374.62 107.27,-365.07 68,-324 33.13,-287.54 26.77,-225.75 26.24,-190.26"/>
<polygon fill="black" stroke="black" points="29.74,-190.14 26.24,-180.14 22.74,-190.14 29.74,-190.14"/>
<g id="a_edge21&#45;headlabel"><a xlink:href="dir_000028_000044.html" target="_top" xlink:title="4">
<text text-anchor="middle" x="32.58" y="-191.24" font-family="FreeSans" font-size="10.00">4</text>
</a>
</g>
</g>
<!-- dir_4798519f28252f1be025a68649c773ad&#45;&gt;dir_cb2d4e92f47691559fc9d122a5e37fac -->
<g id="edge24" class="edge">
<title>dir_4798519f28252f1be025a68649c773ad&#45;&gt;dir_cb2d4e92f47691559fc9d122a5e37fac</title>
<path fill="none" stroke="black" d="M229.32,-359.9C204.35,-327.3 152.69,-252.98 139,-180 135.18,-159.62 135.91,-136.16 137.47,-118.44"/>
<polygon fill="black" stroke="black" points="140.98,-118.54 138.52,-108.23 134.02,-117.82 140.98,-118.54"/>
<g id="a_edge24&#45;headlabel"><a xlink:href="dir_000028_000014.html" target="_top" xlink:title="20">
<text text-anchor="middle" x="143.44" y="-119.9" font-family="FreeSans" font-size="10.00">20</text>
</a>
</g>
</g>
<!-- dir_4798519f28252f1be025a68649c773ad&#45;&gt;dir_758df28fbdbb54fb46d6d3d6484a4984 -->
<g id="edge22" class="edge">
<title>dir_4798519f28252f1be025a68649c773ad&#45;&gt;dir_758df28fbdbb54fb46d6d3d6484a4984</title>
<path fill="none" stroke="black" d="M270.37,-363.66C273.26,-362.38 276.18,-361.13 279,-360 325.96,-341.16 346.36,-354.15 387,-324 425.92,-295.13 450,-283.46 450,-235 450,-235 450,-235 450,-161 450,-82.32 345.66,-43.13 288.08,-27.5"/>
<polygon fill="black" stroke="black" points="288.81,-24.07 278.25,-24.93 287.05,-30.84 288.81,-24.07"/>
<g id="a_edge22&#45;headlabel"><a xlink:href="dir_000028_000144.html" target="_top" xlink:title="28">
<text text-anchor="middle" x="293.01" y="-19.73" font-family="FreeSans" font-size="10.00">28</text>
</a>
</g>
</g>
<!-- dir_4798519f28252f1be025a68649c773ad&#45;&gt;dir_db8d68003073a61b7114dbc4f792cfed -->
<g id="edge25" class="edge">
<title>dir_4798519f28252f1be025a68649c773ad&#45;&gt;dir_db8d68003073a61b7114dbc4f792cfed</title>
<path fill="none" stroke="black" d="M270.08,-364.1C273.09,-362.7 276.1,-361.31 279,-360 315.63,-343.41 336.66,-355.22 362,-324 393.15,-285.62 397.25,-225.45 396.65,-190.56"/>
<polygon fill="black" stroke="black" points="400.14,-190.06 396.32,-180.18 393.14,-190.29 400.14,-190.06"/>
<g id="a_edge25&#45;headlabel"><a xlink:href="dir_000028_000024.html" target="_top" xlink:title="25">
<text text-anchor="middle" x="403.09" y="-191.07" font-family="FreeSans" font-size="10.00">25</text>
</a>
</g>
</g>
<!-- dir_64078e4dd55db1ba2b4e557207803e4b&#45;&gt;dir_cb2d4e92f47691559fc9d122a5e37fac -->
<g id="edge2" class="edge">
<title>dir_64078e4dd55db1ba2b4e557207803e4b&#45;&gt;dir_cb2d4e92f47691559fc9d122a5e37fac</title>
<path fill="none" stroke="black" d="M54.02,-144.41C69.24,-135.06 88.45,-123.27 104.94,-113.14"/>
<polygon fill="black" stroke="black" points="107.09,-115.93 113.78,-107.71 103.43,-109.96 107.09,-115.93"/>
<g id="a_edge2&#45;headlabel"><a xlink:href="dir_000044_000014.html" target="_top" xlink:title="76">
<text text-anchor="middle" x="105.51" y="-117.73" font-family="FreeSans" font-size="10.00">76</text>
</a>
</g>
</g>
<!-- dir_64078e4dd55db1ba2b4e557207803e4b&#45;&gt;dir_758df28fbdbb54fb46d6d3d6484a4984 -->
<g id="edge1" class="edge">
<title>dir_64078e4dd55db1ba2b4e557207803e4b&#45;&gt;dir_758df28fbdbb54fb46d6d3d6484a4984</title>
<path fill="none" stroke="black" d="M37.97,-143.94C51.53,-124.11 76.34,-91.6 105,-72 138.4,-49.17 182.8,-34.89 213.83,-26.99"/>
<polygon fill="black" stroke="black" points="214.93,-30.32 223.81,-24.55 213.27,-23.52 214.93,-30.32"/>
<g id="a_edge1&#45;headlabel"><a xlink:href="dir_000044_000144.html" target="_top" xlink:title="1">
<text text-anchor="middle" x="212.11" y="-31.43" font-family="FreeSans" font-size="10.00">1</text>
</a>
</g>
</g>
<!-- dir_cb2d4e92f47691559fc9d122a5e37fac&#45;&gt;dir_758df28fbdbb54fb46d6d3d6484a4984 -->
<g id="edge16" class="edge">
<title>dir_cb2d4e92f47691559fc9d122a5e37fac&#45;&gt;dir_758df28fbdbb54fb46d6d3d6484a4984</title>
<path fill="none" stroke="black" d="M167.91,-71.88C182.16,-62.81 199.85,-51.55 215.24,-41.76"/>
<polygon fill="black" stroke="black" points="217.43,-44.51 223.99,-36.19 213.67,-38.61 217.43,-44.51"/>
<g id="a_edge16&#45;headlabel"><a xlink:href="dir_000014_000144.html" target="_top" xlink:title="3">
<text text-anchor="middle" x="215.92" y="-46.34" font-family="FreeSans" font-size="10.00">3</text>
</a>
</g>
</g>
<!-- dir_db8d68003073a61b7114dbc4f792cfed&#45;&gt;dir_cb2d4e92f47691559fc9d122a5e37fac -->
<g id="edge17" class="edge">
<title>dir_db8d68003073a61b7114dbc4f792cfed&#45;&gt;dir_cb2d4e92f47691559fc9d122a5e37fac</title>
<path fill="none" stroke="black" d="M375.31,-143.87C371.13,-140.88 366.58,-138.07 362,-136 301.22,-108.52 223.48,-97.69 178.26,-93.51"/>
<polygon fill="black" stroke="black" points="178.3,-90 168.03,-92.63 177.7,-96.98 178.3,-90"/>
<g id="a_edge17&#45;headlabel"><a xlink:href="dir_000024_000014.html" target="_top" xlink:title="117">
<text text-anchor="middle" x="182.12" y="-84.98" font-family="FreeSans" font-size="10.00">117</text>
</a>
</g>
</g>
<!-- dir_db8d68003073a61b7114dbc4f792cfed&#45;&gt;dir_758df28fbdbb54fb46d6d3d6484a4984 -->
<g id="edge18" class="edge">
<title>dir_db8d68003073a61b7114dbc4f792cfed&#45;&gt;dir_758df28fbdbb54fb46d6d3d6484a4984</title>
<path fill="none" stroke="black" d="M377.63,-143.87C352.22,-118.82 304.8,-72.05 275.75,-43.41"/>
<polygon fill="black" stroke="black" points="278.01,-40.72 268.43,-36.19 273.09,-45.7 278.01,-40.72"/>
<g id="a_edge18&#45;headlabel"><a xlink:href="dir_000024_000144.html" target="_top" xlink:title="1">
<text text-anchor="middle" x="282.56" y="-38.72" font-family="FreeSans" font-size="10.00">1</text>
</a>
</g>
</g>
</g>
</svg>
