<?xml version="1.0" encoding="UTF-8" standalone="no"?>
<!DOCTYPE svg PUBLIC "-//W3C//DTD SVG 1.1//EN"
 "http://www.w3.org/Graphics/SVG/1.1/DTD/svg11.dtd">
<!-- Generated by graphviz version 2.43.0 (0)
 -->
<!-- Title: DiFXInterface Pages: 1 -->
<svg width="426pt" height="535pt"
 viewBox="0.00 0.00 426.00 535.00" xmlns="http://www.w3.org/2000/svg" xmlns:xlink="http://www.w3.org/1999/xlink">
<g id="graph0" class="graph" transform="scale(1 1) rotate(0) translate(4 531)">
<title>DiFXInterface</title>
<polygon fill="white" stroke="transparent" points="-4,4 -4,-531 422,-531 422,4 -4,4"/>
<g id="clust1" class="cluster">
<title>clusterdir_730935399589b544a579302a37a46c03</title>
<g id="a_clust1"><a xlink:href="dir_730935399589b544a579302a37a46c03.html" target="_top" xlink:title="cpp_src">
<polygon fill="#ddddee" stroke="black" points="8,-8 8,-519 410,-519 410,-8 8,-8"/>
<text text-anchor="middle" x="209" y="-507" font-family="FreeSans" font-size="10.00">cpp_src</text>
</a>
</g>
</g>
<g id="clust2" class="cluster">
<title>clusterdir_ffd3462840ed92d3b36f06c2f7a1a3a4</title>
<g id="a_clust2"><a xlink:href="dir_ffd3462840ed92d3b36f06c2f7a1a3a4.html" target="_top">
<polygon fill="#eeeeff" stroke="black" points="16,-368 16,-492 268,-492 268,-368 16,-368"/>
</a>
</g>
</g>
<!-- dir_150f406a44a04ce55518da03ec553ece -->
<g id="node1" class="node">
<title>dir_150f406a44a04ce55518da03ec553ece</title>
<g id="a_node1"><a xlink:href="dir_150f406a44a04ce55518da03ec553ece.html" target="_top" xlink:title="Utilities">
<polygon fill="white" stroke="red" points="219,-124 165,-124 165,-88 219,-88 219,-124"/>
<text text-anchor="middle" x="192" y="-103.5" font-family="FreeSans" font-size="10.00">Utilities</text>
</a>
</g>
</g>
<!-- dir_32348ece3c89569e6a714937ae854c89 -->
<g id="node2" class="node">
<title>dir_32348ece3c89569e6a714937ae854c89</title>
<g id="a_node2"><a xlink:href="dir_32348ece3c89569e6a714937ae854c89.html" target="_top" xlink:title="Message">
<polygon fill="white" stroke="red" points="244,-52 188,-52 188,-16 244,-16 244,-52"/>
<text text-anchor="middle" x="216" y="-31.5" font-family="FreeSans" font-size="10.00">Message</text>
</a>
</g>
</g>
<!-- dir_150f406a44a04ce55518da03ec553ece&#45;&gt;dir_32348ece3c89569e6a714937ae854c89 -->
<g id="edge25" class="edge">
<title>dir_150f406a44a04ce55518da03ec553ece&#45;&gt;dir_32348ece3c89569e6a714937ae854c89</title>
<path fill="none" stroke="black" d="M197.93,-87.7C200.61,-79.9 203.83,-70.51 206.8,-61.83"/>
<polygon fill="black" stroke="black" points="210.2,-62.7 210.14,-52.1 203.58,-60.43 210.2,-62.7"/>
<g id="a_edge25&#45;headlabel"><a xlink:href="dir_000086_000123.html" target="_top" xlink:title="13">
<text text-anchor="middle" x="211.72" y="-64.52" font-family="FreeSans" font-size="10.00">13</text>
</a>
</g>
</g>
<!-- dir_a06008c3e245d1092ba6894d6caedef2 -->
<g id="node3" class="node">
<title>dir_a06008c3e245d1092ba6894d6caedef2</title>
<g id="a_node3"><a xlink:href="dir_a06008c3e245d1092ba6894d6caedef2.html" target="_top" xlink:title="Containers">
<polygon fill="white" stroke="red" points="274.5,-196 211.5,-196 211.5,-160 274.5,-160 274.5,-196"/>
<text text-anchor="middle" x="243" y="-175.5" font-family="FreeSans" font-size="10.00">Containers</text>
</a>
</g>
</g>
<!-- dir_a06008c3e245d1092ba6894d6caedef2&#45;&gt;dir_150f406a44a04ce55518da03ec553ece -->
<g id="edge9" class="edge">
<title>dir_a06008c3e245d1092ba6894d6caedef2&#45;&gt;dir_150f406a44a04ce55518da03ec553ece</title>
<path fill="none" stroke="black" d="M230.39,-159.7C224.4,-151.47 217.12,-141.48 210.52,-132.42"/>
<polygon fill="black" stroke="black" points="213.18,-130.13 204.46,-124.1 207.52,-134.25 213.18,-130.13"/>
<g id="a_edge9&#45;headlabel"><a xlink:href="dir_000096_000086.html" target="_top" xlink:title="42">
<text text-anchor="middle" x="217.59" y="-128.86" font-family="FreeSans" font-size="10.00">42</text>
</a>
</g>
</g>
<!-- dir_a06008c3e245d1092ba6894d6caedef2&#45;&gt;dir_32348ece3c89569e6a714937ae854c89 -->
<g id="edge10" class="edge">
<title>dir_a06008c3e245d1092ba6894d6caedef2&#45;&gt;dir_32348ece3c89569e6a714937ae854c89</title>
<path fill="none" stroke="black" d="M240.41,-159.89C237.62,-141.93 232.91,-112.9 228,-88 226.33,-79.54 224.32,-70.36 222.43,-62.06"/>
<polygon fill="black" stroke="black" points="225.8,-61.09 220.13,-52.13 218.98,-62.67 225.8,-61.09"/>
<g id="a_edge10&#45;headlabel"><a xlink:href="dir_000096_000123.html" target="_top" xlink:title="9">
<text text-anchor="middle" x="229.38" y="-61.45" font-family="FreeSans" font-size="10.00">9</text>
</a>
</g>
</g>
<!-- dir_91ae3e556fa9cad9030b784323206cc7 -->
<g id="node4" class="node">
<title>dir_91ae3e556fa9cad9030b784323206cc7</title>
<g id="a_node4"><a xlink:href="dir_91ae3e556fa9cad9030b784323206cc7.html" target="_top" xlink:title="Calibration">
<polygon fill="white" stroke="red" points="342,-340 280,-340 280,-304 342,-304 342,-340"/>
<text text-anchor="middle" x="311" y="-319.5" font-family="FreeSans" font-size="10.00">Calibration</text>
</a>
</g>
</g>
<!-- dir_91ae3e556fa9cad9030b784323206cc7&#45;&gt;dir_150f406a44a04ce55518da03ec553ece -->
<g id="edge6" class="edge">
<title>dir_91ae3e556fa9cad9030b784323206cc7&#45;&gt;dir_150f406a44a04ce55518da03ec553ece</title>
<path fill="none" stroke="black" d="M304.36,-303.59C300.72,-293.37 296.47,-280.12 294,-268 284.36,-220.77 310.02,-200.58 284,-160 271.26,-140.13 248.25,-126.88 228.43,-118.6"/>
<polygon fill="black" stroke="black" points="229.6,-115.3 219.01,-114.92 227.05,-121.82 229.6,-115.3"/>
<g id="a_edge6&#45;headlabel"><a xlink:href="dir_000102_000086.html" target="_top" xlink:title="29">
<text text-anchor="middle" x="233.98" y="-111.46" font-family="FreeSans" font-size="10.00">29</text>
</a>
</g>
</g>
<!-- dir_91ae3e556fa9cad9030b784323206cc7&#45;&gt;dir_32348ece3c89569e6a714937ae854c89 -->
<g id="edge5" class="edge">
<title>dir_91ae3e556fa9cad9030b784323206cc7&#45;&gt;dir_32348ece3c89569e6a714937ae854c89</title>
<path fill="none" stroke="black" d="M339.26,-303.97C351.43,-294.96 364.37,-282.7 371,-268 377.58,-253.41 375.29,-247.41 371,-232 350.93,-159.97 333.65,-143.91 284,-88 274.24,-77.01 261.97,-66.66 250.54,-58.07"/>
<polygon fill="black" stroke="black" points="252.56,-55.21 242.42,-52.14 248.44,-60.86 252.56,-55.21"/>
<g id="a_edge5&#45;headlabel"><a xlink:href="dir_000102_000123.html" target="_top" xlink:title="22">
<text text-anchor="middle" x="257.14" y="-52.53" font-family="FreeSans" font-size="10.00">22</text>
</a>
</g>
</g>
<!-- dir_91ae3e556fa9cad9030b784323206cc7&#45;&gt;dir_a06008c3e245d1092ba6894d6caedef2 -->
<g id="edge7" class="edge">
<title>dir_91ae3e556fa9cad9030b784323206cc7&#45;&gt;dir_a06008c3e245d1092ba6894d6caedef2</title>
<path fill="none" stroke="black" d="M299.17,-303.8C292.48,-293.65 284.23,-280.4 278,-268 267.79,-247.69 258.49,-223.65 252.05,-205.68"/>
<polygon fill="black" stroke="black" points="255.31,-204.4 248.69,-196.13 248.71,-206.72 255.31,-204.4"/>
<g id="a_edge7&#45;headlabel"><a xlink:href="dir_000102_000096.html" target="_top" xlink:title="64">
<text text-anchor="middle" x="259.18" y="-204.35" font-family="FreeSans" font-size="10.00">64</text>
</a>
</g>
</g>
<!-- dir_4546011bd625f1142c4c4ae06dcdb5ba -->
<g id="node5" class="node">
<title>dir_4546011bd625f1142c4c4ae06dcdb5ba</title>
<g id="a_node5"><a xlink:href="dir_4546011bd625f1142c4c4ae06dcdb5ba.html" target="_top" xlink:title="Operators">
<polygon fill="white" stroke="red" points="361.5,-268 302.5,-268 302.5,-232 361.5,-232 361.5,-268"/>
<text text-anchor="middle" x="332" y="-247.5" font-family="FreeSans" font-size="10.00">Operators</text>
</a>
</g>
</g>
<!-- dir_91ae3e556fa9cad9030b784323206cc7&#45;&gt;dir_4546011bd625f1142c4c4ae06dcdb5ba -->
<g id="edge8" class="edge">
<title>dir_91ae3e556fa9cad9030b784323206cc7&#45;&gt;dir_4546011bd625f1142c4c4ae06dcdb5ba</title>
<path fill="none" stroke="black" d="M316.19,-303.7C318.53,-295.9 321.35,-286.51 323.95,-277.83"/>
<polygon fill="black" stroke="black" points="327.35,-278.69 326.87,-268.1 320.64,-276.68 327.35,-278.69"/>
<g id="a_edge8&#45;headlabel"><a xlink:href="dir_000102_000089.html" target="_top" xlink:title="55">
<text text-anchor="middle" x="329.03" y="-280.45" font-family="FreeSans" font-size="10.00">55</text>
</a>
</g>
</g>
<!-- dir_4546011bd625f1142c4c4ae06dcdb5ba&#45;&gt;dir_150f406a44a04ce55518da03ec553ece -->
<g id="edge14" class="edge">
<title>dir_4546011bd625f1142c4c4ae06dcdb5ba&#45;&gt;dir_150f406a44a04ce55518da03ec553ece</title>
<path fill="none" stroke="black" d="M329.55,-231.97C325.95,-212.47 317.52,-180.58 299,-160 280.39,-139.33 251.91,-125.77 229,-117.54"/>
<polygon fill="black" stroke="black" points="229.84,-114.14 219.25,-114.24 227.6,-120.76 229.84,-114.14"/>
<g id="a_edge14&#45;headlabel"><a xlink:href="dir_000089_000086.html" target="_top" xlink:title="5">
<text text-anchor="middle" x="234.16" y="-110.1" font-family="FreeSans" font-size="10.00">5</text>
</a>
</g>
</g>
<!-- dir_4546011bd625f1142c4c4ae06dcdb5ba&#45;&gt;dir_32348ece3c89569e6a714937ae854c89 -->
<g id="edge15" class="edge">
<title>dir_4546011bd625f1142c4c4ae06dcdb5ba&#45;&gt;dir_32348ece3c89569e6a714937ae854c89</title>
<path fill="none" stroke="black" d="M330.89,-231.87C329.17,-213.4 324.83,-183.48 314,-160 296.05,-121.08 263.77,-83.34 241.18,-59.7"/>
<polygon fill="black" stroke="black" points="243.4,-56.97 233.92,-52.24 238.39,-61.85 243.4,-56.97"/>
<g id="a_edge15&#45;headlabel"><a xlink:href="dir_000089_000123.html" target="_top" xlink:title="12">
<text text-anchor="middle" x="247.95" y="-55.06" font-family="FreeSans" font-size="10.00">12</text>
</a>
</g>
</g>
<!-- dir_4546011bd625f1142c4c4ae06dcdb5ba&#45;&gt;dir_a06008c3e245d1092ba6894d6caedef2 -->
<g id="edge16" class="edge">
<title>dir_4546011bd625f1142c4c4ae06dcdb5ba&#45;&gt;dir_a06008c3e245d1092ba6894d6caedef2</title>
<path fill="none" stroke="black" d="M310,-231.7C298.79,-222.88 285,-212.03 272.85,-202.47"/>
<polygon fill="black" stroke="black" points="274.77,-199.54 264.75,-196.1 270.44,-205.04 274.77,-199.54"/>
<g id="a_edge16&#45;headlabel"><a xlink:href="dir_000089_000096.html" target="_top" xlink:title="22">
<text text-anchor="middle" x="279.35" y="-197.03" font-family="FreeSans" font-size="10.00">22</text>
</a>
</g>
</g>
<!-- dir_0c8523deb6301657d04bd2a03358f9f8 -->
<g id="node6" class="node">
<title>dir_0c8523deb6301657d04bd2a03358f9f8</title>
<g id="a_node6"><a xlink:href="dir_0c8523deb6301657d04bd2a03358f9f8.html" target="_top" xlink:title="MK4Interface">
<polygon fill="white" stroke="red" points="350.5,-412 275.5,-412 275.5,-376 350.5,-376 350.5,-412"/>
<text text-anchor="middle" x="313" y="-391.5" font-family="FreeSans" font-size="10.00">MK4Interface</text>
</a>
</g>
</g>
<!-- dir_0c8523deb6301657d04bd2a03358f9f8&#45;&gt;dir_150f406a44a04ce55518da03ec553ece -->
<g id="edge26" class="edge">
<title>dir_0c8523deb6301657d04bd2a03358f9f8&#45;&gt;dir_150f406a44a04ce55518da03ec553ece</title>
<path fill="none" stroke="black" d="M288.81,-375.88C276.95,-366.44 263.26,-353.85 254,-340 210.36,-274.78 197.39,-180.13 193.57,-134.13"/>
<polygon fill="black" stroke="black" points="197.05,-133.76 192.82,-124.04 190.07,-134.28 197.05,-133.76"/>
<g id="a_edge26&#45;headlabel"><a xlink:href="dir_000126_000086.html" target="_top" xlink:title="18">
<text text-anchor="middle" x="200.15" y="-134.63" font-family="FreeSans" font-size="10.00">18</text>
</a>
</g>
</g>
<!-- dir_0c8523deb6301657d04bd2a03358f9f8&#45;&gt;dir_32348ece3c89569e6a714937ae854c89 -->
<g id="edge28" class="edge">
<title>dir_0c8523deb6301657d04bd2a03358f9f8&#45;&gt;dir_32348ece3c89569e6a714937ae854c89</title>
<path fill="none" stroke="black" d="M330.48,-375.7C339.5,-365.94 350.04,-353.1 357,-340 379.94,-296.82 385.53,-280.32 378,-232 366.92,-160.9 356.73,-136.96 304,-88 289,-74.08 269.77,-61.99 253.11,-52.88"/>
<polygon fill="black" stroke="black" points="254.64,-49.73 244.16,-48.14 251.36,-55.92 254.64,-49.73"/>
<g id="a_edge28&#45;headlabel"><a xlink:href="dir_000126_000123.html" target="_top" xlink:title="7">
<text text-anchor="middle" x="259.14" y="-46.41" font-family="FreeSans" font-size="10.00">7</text>
</a>
</g>
</g>
<!-- dir_0c8523deb6301657d04bd2a03358f9f8&#45;&gt;dir_a06008c3e245d1092ba6894d6caedef2 -->
<g id="edge31" class="edge">
<title>dir_0c8523deb6301657d04bd2a03358f9f8&#45;&gt;dir_a06008c3e245d1092ba6894d6caedef2</title>
<path fill="none" stroke="black" d="M295.8,-375.84C287.04,-366.12 276.99,-353.27 271,-340 251.16,-296.1 245.32,-239.6 243.64,-206.53"/>
<polygon fill="black" stroke="black" points="247.12,-206.12 243.21,-196.27 240.13,-206.41 247.12,-206.12"/>
<g id="a_edge31&#45;headlabel"><a xlink:href="dir_000126_000096.html" target="_top" xlink:title="11">
<text text-anchor="middle" x="250.11" y="-207.09" font-family="FreeSans" font-size="10.00">11</text>
</a>
</g>
</g>
<!-- dir_0c8523deb6301657d04bd2a03358f9f8&#45;&gt;dir_91ae3e556fa9cad9030b784323206cc7 -->
<g id="edge30" class="edge">
<title>dir_0c8523deb6301657d04bd2a03358f9f8&#45;&gt;dir_91ae3e556fa9cad9030b784323206cc7</title>
<path fill="none" stroke="black" d="M312.51,-375.7C312.29,-367.98 312.02,-358.71 311.77,-350.11"/>
<polygon fill="black" stroke="black" points="315.27,-350 311.49,-340.1 308.28,-350.2 315.27,-350"/>
<g id="a_edge30&#45;headlabel"><a xlink:href="dir_000126_000102.html" target="_top" xlink:title="3">
<text text-anchor="middle" x="318.21" y="-351.01" font-family="FreeSans" font-size="10.00">3</text>
</a>
</g>
</g>
<!-- dir_0c8523deb6301657d04bd2a03358f9f8&#45;&gt;dir_4546011bd625f1142c4c4ae06dcdb5ba -->
<g id="edge29" class="edge">
<title>dir_0c8523deb6301657d04bd2a03358f9f8&#45;&gt;dir_4546011bd625f1142c4c4ae06dcdb5ba</title>
<path fill="none" stroke="black" d="M329.46,-375.92C337.65,-366.22 346.7,-353.37 351,-340 357.61,-319.44 351.74,-295.46 344.84,-277.58"/>
<polygon fill="black" stroke="black" points="348.06,-276.2 340.97,-268.33 341.6,-278.91 348.06,-276.2"/>
<g id="a_edge29&#45;headlabel"><a xlink:href="dir_000126_000089.html" target="_top" xlink:title="1">
<text text-anchor="middle" x="352.07" y="-275.93" font-family="FreeSans" font-size="10.00">1</text>
</a>
</g>
</g>
<!-- dir_2d98c6b8f23a5c53321666bdc86a2d6a -->
<g id="node7" class="node">
<title>dir_2d98c6b8f23a5c53321666bdc86a2d6a</title>
<g id="a_node7"><a xlink:href="dir_2d98c6b8f23a5c53321666bdc86a2d6a.html" target="_top" xlink:title="Vex2JSON">
<polygon fill="white" stroke="red" points="221.5,-340 156.5,-340 156.5,-304 221.5,-304 221.5,-340"/>
<text text-anchor="middle" x="189" y="-319.5" font-family="FreeSans" font-size="10.00">Vex2JSON</text>
</a>
</g>
</g>
<!-- dir_0c8523deb6301657d04bd2a03358f9f8&#45;&gt;dir_2d98c6b8f23a5c53321666bdc86a2d6a -->
<g id="edge27" class="edge">
<title>dir_0c8523deb6301657d04bd2a03358f9f8&#45;&gt;dir_2d98c6b8f23a5c53321666bdc86a2d6a</title>
<path fill="none" stroke="black" d="M285.33,-375.86C280.89,-373.19 276.34,-370.49 272,-368 258.61,-360.29 243.83,-352.16 230.5,-344.96"/>
<polygon fill="black" stroke="black" points="232,-341.8 221.53,-340.15 228.68,-347.96 232,-341.8"/>
<g id="a_edge27&#45;headlabel"><a xlink:href="dir_000126_000141.html" target="_top" xlink:title="2">
<text text-anchor="middle" x="236.51" y="-338.5" font-family="FreeSans" font-size="10.00">2</text>
</a>
</g>
</g>
<!-- dir_2d98c6b8f23a5c53321666bdc86a2d6a&#45;&gt;dir_150f406a44a04ce55518da03ec553ece -->
<g id="edge17" class="edge">
<title>dir_2d98c6b8f23a5c53321666bdc86a2d6a&#45;&gt;dir_150f406a44a04ce55518da03ec553ece</title>
<path fill="none" stroke="black" d="M188.11,-303.6C186.74,-274.05 184.54,-212.22 187,-160 187.39,-151.66 188.13,-142.6 188.92,-134.37"/>
<polygon fill="black" stroke="black" points="192.43,-134.46 189.97,-124.16 185.47,-133.75 192.43,-134.46"/>
<g id="a_edge17&#45;headlabel"><a xlink:href="dir_000141_000086.html" target="_top" xlink:title="13">
<text text-anchor="middle" x="194.89" y="-135.83" font-family="FreeSans" font-size="10.00">13</text>
</a>
</g>
</g>
<!-- dir_2d98c6b8f23a5c53321666bdc86a2d6a&#45;&gt;dir_32348ece3c89569e6a714937ae854c89 -->
<g id="edge18" class="edge">
<title>dir_2d98c6b8f23a5c53321666bdc86a2d6a&#45;&gt;dir_32348ece3c89569e6a714937ae854c89</title>
<path fill="none" stroke="black" d="M180.41,-303.72C161.84,-263.8 122.24,-162.86 156,-88 161.18,-76.52 170.21,-66.52 179.72,-58.4"/>
<polygon fill="black" stroke="black" points="182.09,-60.99 187.74,-52.03 177.73,-55.51 182.09,-60.99"/>
<g id="a_edge18&#45;headlabel"><a xlink:href="dir_000141_000123.html" target="_top" xlink:title="6">
<text text-anchor="middle" x="181.04" y="-62.95" font-family="FreeSans" font-size="10.00">6</text>
</a>
</g>
</g>
<!-- dir_ffd3462840ed92d3b36f06c2f7a1a3a4 -->
<g id="node8" class="node">
<title>dir_ffd3462840ed92d3b36f06c2f7a1a3a4</title>
<text text-anchor="middle" x="221" y="-463.5" font-family="FreeSans" font-size="10.00">DiFXInterface</text>
</g>
<!-- dir_54c8feb2db02075297606147e04d4d04 -->
<g id="node9" class="node">
<title>dir_54c8feb2db02075297606147e04d4d04</title>
<g id="a_node9"><a xlink:href="dir_54c8feb2db02075297606147e04d4d04.html" target="_top" xlink:title="applications">
<polygon fill="white" stroke="black" points="92,-484 24,-484 24,-448 92,-448 92,-484"/>
<text text-anchor="middle" x="58" y="-463.5" font-family="FreeSans" font-size="10.00">applications</text>
</a>
</g>
</g>
<!-- dir_54c8feb2db02075297606147e04d4d04&#45;&gt;dir_150f406a44a04ce55518da03ec553ece -->
<g id="edge1" class="edge">
<title>dir_54c8feb2db02075297606147e04d4d04&#45;&gt;dir_150f406a44a04ce55518da03ec553ece</title>
<path fill="none" stroke="black" d="M84.98,-447.97C97.28,-438.81 110.88,-426.42 119,-412 123.98,-403.16 148.1,-241.97 150,-232 156.11,-199.89 154.15,-190.83 165,-160 168.19,-150.94 172.62,-141.47 176.98,-133.08"/>
<polygon fill="black" stroke="black" points="180.13,-134.61 181.79,-124.15 173.97,-131.29 180.13,-134.61"/>
<g id="a_edge1&#45;headlabel"><a xlink:href="dir_000065_000086.html" target="_top" xlink:title="6">
<text text-anchor="middle" x="180.92" y="-136.62" font-family="FreeSans" font-size="10.00">6</text>
</a>
</g>
</g>
<!-- dir_54c8feb2db02075297606147e04d4d04&#45;&gt;dir_32348ece3c89569e6a714937ae854c89 -->
<g id="edge2" class="edge">
<title>dir_54c8feb2db02075297606147e04d4d04&#45;&gt;dir_32348ece3c89569e6a714937ae854c89</title>
<path fill="none" stroke="black" d="M49.7,-447.97C37.72,-421.77 17,-369.7 17,-323 17,-323 17,-323 17,-177 17,-134.5 21.03,-117.11 52,-88 86.53,-55.55 141.1,-42.97 177.7,-38.09"/>
<polygon fill="black" stroke="black" points="178.47,-41.52 187.98,-36.86 177.63,-34.57 178.47,-41.52"/>
<g id="a_edge2&#45;headlabel"><a xlink:href="dir_000065_000123.html" target="_top" xlink:title="2">
<text text-anchor="middle" x="175.23" y="-42.27" font-family="FreeSans" font-size="10.00">2</text>
</a>
</g>
</g>
<!-- dir_54c8feb2db02075297606147e04d4d04&#45;&gt;dir_a06008c3e245d1092ba6894d6caedef2 -->
<g id="edge3" class="edge">
<title>dir_54c8feb2db02075297606147e04d4d04&#45;&gt;dir_a06008c3e245d1092ba6894d6caedef2</title>
<path fill="none" stroke="black" d="M51.35,-447.91C44.67,-428.03 36.71,-394.55 47,-368 76.58,-291.65 155.87,-232.09 204.05,-201.56"/>
<polygon fill="black" stroke="black" points="206.02,-204.45 212.67,-196.19 202.33,-198.51 206.02,-204.45"/>
<g id="a_edge3&#45;headlabel"><a xlink:href="dir_000065_000096.html" target="_top" xlink:title="2">
<text text-anchor="middle" x="204.47" y="-206.26" font-family="FreeSans" font-size="10.00">2</text>
</a>
</g>
</g>
<!-- dir_f34f84663972769b5eb23cb9a774d90b -->
<g id="node10" class="node">
<title>dir_f34f84663972769b5eb23cb9a774d90b</title>
<g id="a_node10"><a xlink:href="dir_f34f84663972769b5eb23cb9a774d90b.html" target="_top" xlink:title="include">
<polygon fill="white" stroke="black" points="110,-412 56,-412 56,-376 110,-376 110,-412"/>
<text text-anchor="middle" x="83" y="-391.5" font-family="FreeSans" font-size="10.00">include</text>
</a>
</g>
</g>
<!-- dir_54c8feb2db02075297606147e04d4d04&#45;&gt;dir_f34f84663972769b5eb23cb9a774d90b -->
<g id="edge4" class="edge">
<title>dir_54c8feb2db02075297606147e04d4d04&#45;&gt;dir_f34f84663972769b5eb23cb9a774d90b</title>
<path fill="none" stroke="black" d="M64.18,-447.7C67,-439.81 70.39,-430.3 73.52,-421.55"/>
<polygon fill="black" stroke="black" points="76.82,-422.7 76.89,-412.1 70.23,-420.34 76.82,-422.7"/>
<g id="a_edge4&#45;headlabel"><a xlink:href="dir_000065_000116.html" target="_top" xlink:title="2">
<text text-anchor="middle" x="78.29" y="-424.54" font-family="FreeSans" font-size="10.00">2</text>
</a>
</g>
</g>
<!-- dir_f34f84663972769b5eb23cb9a774d90b&#45;&gt;dir_150f406a44a04ce55518da03ec553ece -->
<g id="edge11" class="edge">
<title>dir_f34f84663972769b5eb23cb9a774d90b&#45;&gt;dir_150f406a44a04ce55518da03ec553ece</title>
<path fill="none" stroke="black" d="M77.47,-375.72C65.14,-333.57 40.38,-224.2 92,-160 108.12,-139.95 133.91,-126.54 155.27,-118.23"/>
<polygon fill="black" stroke="black" points="156.53,-121.5 164.71,-114.76 154.12,-114.92 156.53,-121.5"/>
<g id="a_edge11&#45;headlabel"><a xlink:href="dir_000116_000086.html" target="_top" xlink:title="15">
<text text-anchor="middle" x="154.14" y="-122.9" font-family="FreeSans" font-size="10.00">15</text>
</a>
</g>
</g>
<!-- dir_f34f84663972769b5eb23cb9a774d90b&#45;&gt;dir_32348ece3c89569e6a714937ae854c89 -->
<g id="edge12" class="edge">
<title>dir_f34f84663972769b5eb23cb9a774d90b&#45;&gt;dir_32348ece3c89569e6a714937ae854c89</title>
<path fill="none" stroke="black" d="M73.47,-375.66C60,-349.47 37,-297.9 37,-251 37,-251 37,-251 37,-177 37,-105.64 125.4,-64.45 177.96,-46.26"/>
<polygon fill="black" stroke="black" points="179.26,-49.52 187.64,-43.03 177.04,-42.88 179.26,-49.52"/>
<g id="a_edge12&#45;headlabel"><a xlink:href="dir_000116_000123.html" target="_top" xlink:title="6">
<text text-anchor="middle" x="176.75" y="-50.85" font-family="FreeSans" font-size="10.00">6</text>
</a>
</g>
</g>
<!-- dir_f34f84663972769b5eb23cb9a774d90b&#45;&gt;dir_a06008c3e245d1092ba6894d6caedef2 -->
<g id="edge13" class="edge">
<title>dir_f34f84663972769b5eb23cb9a774d90b&#45;&gt;dir_a06008c3e245d1092ba6894d6caedef2</title>
<path fill="none" stroke="black" d="M95.36,-375.87C108.37,-357.89 129.48,-328.86 148,-304 173.9,-269.24 204.28,-229.43 223.58,-204.26"/>
<polygon fill="black" stroke="black" points="226.37,-206.38 229.68,-196.31 220.81,-202.11 226.37,-206.38"/>
<g id="a_edge13&#45;headlabel"><a xlink:href="dir_000116_000096.html" target="_top" xlink:title="5">
<text text-anchor="middle" x="226.43" y="-208.46" font-family="FreeSans" font-size="10.00">5</text>
</a>
</g>
</g>
<!-- dir_e14b6f56da0f770cf537fc2113754b6e -->
<g id="node11" class="node">
<title>dir_e14b6f56da0f770cf537fc2113754b6e</title>
<g id="a_node11"><a xlink:href="dir_e14b6f56da0f770cf537fc2113754b6e.html" target="_top" xlink:title="src">
<polygon fill="white" stroke="black" points="164,-484 110,-484 110,-448 164,-448 164,-484"/>
<text text-anchor="middle" x="137" y="-463.5" font-family="FreeSans" font-size="10.00">src</text>
</a>
</g>
</g>
<!-- dir_e14b6f56da0f770cf537fc2113754b6e&#45;&gt;dir_150f406a44a04ce55518da03ec553ece -->
<g id="edge20" class="edge">
<title>dir_e14b6f56da0f770cf537fc2113754b6e&#45;&gt;dir_150f406a44a04ce55518da03ec553ece</title>
<path fill="none" stroke="black" d="M137.32,-447.99C138.05,-418.52 140.44,-356.13 148,-304 156.92,-242.5 174.59,-171.68 184.61,-133.96"/>
<polygon fill="black" stroke="black" points="188.01,-134.79 187.22,-124.23 181.25,-132.98 188.01,-134.79"/>
<g id="a_edge20&#45;headlabel"><a xlink:href="dir_000115_000086.html" target="_top" xlink:title="3">
<text text-anchor="middle" x="189.82" y="-136.5" font-family="FreeSans" font-size="10.00">3</text>
</a>
</g>
</g>
<!-- dir_e14b6f56da0f770cf537fc2113754b6e&#45;&gt;dir_91ae3e556fa9cad9030b784323206cc7 -->
<g id="edge23" class="edge">
<title>dir_e14b6f56da0f770cf537fc2113754b6e&#45;&gt;dir_91ae3e556fa9cad9030b784323206cc7</title>
<path fill="none" stroke="black" d="M164.19,-451.62C167.45,-450.28 170.77,-449.04 174,-448 254.16,-422.24 306.42,-476.95 360,-412 372.44,-396.92 367.87,-385.9 360,-368 356.53,-360.1 350.9,-352.97 344.68,-346.84"/>
<polygon fill="black" stroke="black" points="346.98,-344.2 337.2,-340.12 342.3,-349.41 346.98,-344.2"/>
<g id="a_edge23&#45;headlabel"><a xlink:href="dir_000115_000102.html" target="_top" xlink:title="1">
<text text-anchor="middle" x="351.55" y="-341.99" font-family="FreeSans" font-size="10.00">1</text>
</a>
</g>
</g>
<!-- dir_e14b6f56da0f770cf537fc2113754b6e&#45;&gt;dir_4546011bd625f1142c4c4ae06dcdb5ba -->
<g id="edge22" class="edge">
<title>dir_e14b6f56da0f770cf537fc2113754b6e&#45;&gt;dir_4546011bd625f1142c4c4ae06dcdb5ba</title>
<path fill="none" stroke="black" d="M164.18,-451.6C167.44,-450.26 170.77,-449.03 174,-448 257.59,-421.49 311.93,-479.43 368,-412 400.28,-373.18 371.04,-311.5 349.7,-276.84"/>
<polygon fill="black" stroke="black" points="352.54,-274.78 344.22,-268.23 346.64,-278.54 352.54,-274.78"/>
<g id="a_edge22&#45;headlabel"><a xlink:href="dir_000115_000089.html" target="_top" xlink:title="2">
<text text-anchor="middle" x="356.87" y="-273.79" font-family="FreeSans" font-size="10.00">2</text>
</a>
</g>
</g>
<!-- dir_e14b6f56da0f770cf537fc2113754b6e&#45;&gt;dir_0c8523deb6301657d04bd2a03358f9f8 -->
<g id="edge19" class="edge">
<title>dir_e14b6f56da0f770cf537fc2113754b6e&#45;&gt;dir_0c8523deb6301657d04bd2a03358f9f8</title>
<path fill="none" stroke="black" d="M164.37,-452.13C167.6,-450.7 170.86,-449.29 174,-448 213.88,-431.54 226.96,-429.17 266.13,-414.24"/>
<polygon fill="black" stroke="black" points="267.42,-417.49 275.49,-410.63 264.9,-410.96 267.42,-417.49"/>
<g id="a_edge19&#45;headlabel"><a xlink:href="dir_000115_000126.html" target="_top" xlink:title="2">
<text text-anchor="middle" x="265.09" y="-418.94" font-family="FreeSans" font-size="10.00">2</text>
</a>
</g>
</g>
<!-- dir_e14b6f56da0f770cf537fc2113754b6e&#45;&gt;dir_2d98c6b8f23a5c53321666bdc86a2d6a -->
<g id="edge21" class="edge">
<title>dir_e14b6f56da0f770cf537fc2113754b6e&#45;&gt;dir_2d98c6b8f23a5c53321666bdc86a2d6a</title>
<path fill="none" stroke="black" d="M143.27,-447.87C152.21,-423.46 168.7,-378.43 179.25,-349.64"/>
<polygon fill="black" stroke="black" points="182.55,-350.78 182.71,-340.19 175.98,-348.38 182.55,-350.78"/>
<g id="a_edge21&#45;headlabel"><a xlink:href="dir_000115_000141.html" target="_top" xlink:title="2">
<text text-anchor="middle" x="183.98" y="-352.63" font-family="FreeSans" font-size="10.00">2</text>
</a>
</g>
</g>
<!-- dir_e14b6f56da0f770cf537fc2113754b6e&#45;&gt;dir_f34f84663972769b5eb23cb9a774d90b -->
<g id="edge24" class="edge">
<title>dir_e14b6f56da0f770cf537fc2113754b6e&#45;&gt;dir_f34f84663972769b5eb23cb9a774d90b</title>
<path fill="none" stroke="black" d="M123.65,-447.7C117.24,-439.39 109.44,-429.28 102.39,-420.14"/>
<polygon fill="black" stroke="black" points="105.07,-417.88 96.19,-412.1 99.53,-422.16 105.07,-417.88"/>
<g id="a_edge24&#45;headlabel"><a xlink:href="dir_000115_000116.html" target="_top" xlink:title="8">
<text text-anchor="middle" x="109.52" y="-416.5" font-family="FreeSans" font-size="10.00">8</text>
</a>
</g>
</g>
</g>
</svg>
