<?xml version="1.0" encoding="UTF-8" standalone="no"?>
<!DOCTYPE svg PUBLIC "-//W3C//DTD SVG 1.1//EN"
 "http://www.w3.org/Graphics/SVG/1.1/DTD/svg11.dtd">
<!-- Generated by graphviz version 2.43.0 (0)
 -->
<!-- Title: Plugins Pages: 1 -->
<svg width="506pt" height="553pt"
 viewBox="0.00 0.00 506.00 553.48" xmlns="http://www.w3.org/2000/svg" xmlns:xlink="http://www.w3.org/1999/xlink">
<g id="graph0" class="graph" transform="scale(1 1) rotate(0) translate(4 549.48)">
<title>Plugins</title>
<polygon fill="white" stroke="transparent" points="-4,4 -4,-549.48 502,-549.48 502,4 -4,4"/>
<g id="clust1" class="cluster">
<title>clusterdir_730935399589b544a579302a37a46c03</title>
<g id="a_clust1"><a xlink:href="dir_730935399589b544a579302a37a46c03.html" target="_top" xlink:title="cpp_src">
<polygon fill="#ddddee" stroke="black" points="8,-8 8,-519 490,-519 490,-8 8,-8"/>
<text text-anchor="middle" x="249" y="-507" font-family="FreeSans" font-size="10.00">cpp_src</text>
</a>
</g>
</g>
<g id="clust2" class="cluster">
<title>clusterdir_26953edb3cb67a8e3bae1da7766c1e03</title>
<g id="a_clust2"><a xlink:href="dir_26953edb3cb67a8e3bae1da7766c1e03.html" target="_top">
<polygon fill="#eeeeff" stroke="black" points="94,-440 94,-492 482,-492 482,-440 94,-440"/>
</a>
</g>
</g>
<!-- dir_150f406a44a04ce55518da03ec553ece -->
<g id="node1" class="node">
<title>dir_150f406a44a04ce55518da03ec553ece</title>
<g id="a_node1"><a xlink:href="dir_150f406a44a04ce55518da03ec553ece.html" target="_top" xlink:title="Utilities">
<polygon fill="white" stroke="red" points="232,-196 178,-196 178,-160 232,-160 232,-196"/>
<text text-anchor="middle" x="205" y="-175.5" font-family="FreeSans" font-size="10.00">Utilities</text>
</a>
</g>
</g>
<!-- dir_32348ece3c89569e6a714937ae854c89 -->
<g id="node2" class="node">
<title>dir_32348ece3c89569e6a714937ae854c89</title>
<g id="a_node2"><a xlink:href="dir_32348ece3c89569e6a714937ae854c89.html" target="_top" xlink:title="Message">
<polygon fill="white" stroke="red" points="272,-52 216,-52 216,-16 272,-16 272,-52"/>
<text text-anchor="middle" x="244" y="-31.5" font-family="FreeSans" font-size="10.00">Message</text>
</a>
</g>
</g>
<!-- dir_150f406a44a04ce55518da03ec553ece&#45;&gt;dir_32348ece3c89569e6a714937ae854c89 -->
<g id="edge25" class="edge">
<title>dir_150f406a44a04ce55518da03ec553ece&#45;&gt;dir_32348ece3c89569e6a714937ae854c89</title>
<path fill="none" stroke="black" d="M216.76,-159.63C222.93,-149.64 230.02,-136.6 234,-124 240.36,-103.89 242.79,-80.11 243.66,-62.19"/>
<polygon fill="black" stroke="black" points="247.16,-62.25 244.03,-52.14 240.17,-62 247.16,-62.25"/>
<g id="a_edge25&#45;headlabel"><a xlink:href="dir_000086_000123.html" target="_top" xlink:title="13">
<text text-anchor="middle" x="249.87" y="-63.45" font-family="FreeSans" font-size="10.00">13</text>
</a>
</g>
</g>
<!-- dir_ff42852cc454de79d2ecb9482f4de9d8 -->
<g id="node7" class="node">
<title>dir_ff42852cc454de79d2ecb9482f4de9d8</title>
<g id="a_node7"><a xlink:href="dir_ff42852cc454de79d2ecb9482f4de9d8.html" target="_top" xlink:title="Math">
<polygon fill="white" stroke="red" points="225,-124 171,-124 171,-88 225,-88 225,-124"/>
<text text-anchor="middle" x="198" y="-103.5" font-family="FreeSans" font-size="10.00">Math</text>
</a>
</g>
</g>
<!-- dir_150f406a44a04ce55518da03ec553ece&#45;&gt;dir_ff42852cc454de79d2ecb9482f4de9d8 -->
<g id="edge26" class="edge">
<title>dir_150f406a44a04ce55518da03ec553ece&#45;&gt;dir_ff42852cc454de79d2ecb9482f4de9d8</title>
<path fill="none" stroke="black" d="M197.35,-159.7C195.79,-151.98 194.63,-142.71 194.12,-134.11"/>
<polygon fill="black" stroke="black" points="197.61,-133.99 193.82,-124.1 190.62,-134.2 197.61,-133.99"/>
<g id="a_edge26&#45;headlabel"><a xlink:href="dir_000086_000099.html" target="_top" xlink:title="1">
<text text-anchor="middle" x="200.56" y="-135" font-family="FreeSans" font-size="10.00">1</text>
</a>
</g>
</g>
<!-- dir_4546011bd625f1142c4c4ae06dcdb5ba -->
<g id="node3" class="node">
<title>dir_4546011bd625f1142c4c4ae06dcdb5ba</title>
<g id="a_node3"><a xlink:href="dir_4546011bd625f1142c4c4ae06dcdb5ba.html" target="_top" xlink:title="Operators">
<polygon fill="white" stroke="red" points="175.5,-340 116.5,-340 116.5,-304 175.5,-304 175.5,-340"/>
<text text-anchor="middle" x="146" y="-319.5" font-family="FreeSans" font-size="10.00">Operators</text>
</a>
</g>
</g>
<!-- dir_4546011bd625f1142c4c4ae06dcdb5ba&#45;&gt;dir_150f406a44a04ce55518da03ec553ece -->
<g id="edge16" class="edge">
<title>dir_4546011bd625f1142c4c4ae06dcdb5ba&#45;&gt;dir_150f406a44a04ce55518da03ec553ece</title>
<path fill="none" stroke="black" d="M153.12,-303.87C163.26,-279.46 181.97,-234.43 193.93,-205.64"/>
<polygon fill="black" stroke="black" points="197.25,-206.77 197.86,-196.19 190.79,-204.08 197.25,-206.77"/>
<g id="a_edge16&#45;headlabel"><a xlink:href="dir_000089_000086.html" target="_top" xlink:title="5">
<text text-anchor="middle" x="198.5" y="-208.68" font-family="FreeSans" font-size="10.00">5</text>
</a>
</g>
</g>
<!-- dir_4546011bd625f1142c4c4ae06dcdb5ba&#45;&gt;dir_32348ece3c89569e6a714937ae854c89 -->
<g id="edge17" class="edge">
<title>dir_4546011bd625f1142c4c4ae06dcdb5ba&#45;&gt;dir_32348ece3c89569e6a714937ae854c89</title>
<path fill="none" stroke="black" d="M142.08,-303.84C133.74,-262.85 118.34,-157.54 162,-88 172.4,-71.44 190.08,-59.04 206.36,-50.42"/>
<polygon fill="black" stroke="black" points="208.32,-53.35 215.72,-45.77 205.21,-47.08 208.32,-53.35"/>
<g id="a_edge17&#45;headlabel"><a xlink:href="dir_000089_000123.html" target="_top" xlink:title="12">
<text text-anchor="middle" x="206.36" y="-54.99" font-family="FreeSans" font-size="10.00">12</text>
</a>
</g>
</g>
<!-- dir_a06008c3e245d1092ba6894d6caedef2 -->
<g id="node5" class="node">
<title>dir_a06008c3e245d1092ba6894d6caedef2</title>
<g id="a_node5"><a xlink:href="dir_a06008c3e245d1092ba6894d6caedef2.html" target="_top" xlink:title="Containers">
<polygon fill="white" stroke="red" points="295.5,-268 232.5,-268 232.5,-232 295.5,-232 295.5,-268"/>
<text text-anchor="middle" x="264" y="-247.5" font-family="FreeSans" font-size="10.00">Containers</text>
</a>
</g>
</g>
<!-- dir_4546011bd625f1142c4c4ae06dcdb5ba&#45;&gt;dir_a06008c3e245d1092ba6894d6caedef2 -->
<g id="edge18" class="edge">
<title>dir_4546011bd625f1142c4c4ae06dcdb5ba&#45;&gt;dir_a06008c3e245d1092ba6894d6caedef2</title>
<path fill="none" stroke="black" d="M174.87,-303.88C190.29,-294.72 209.48,-283.34 226.1,-273.48"/>
<polygon fill="black" stroke="black" points="228.21,-276.3 235.02,-268.19 224.64,-270.28 228.21,-276.3"/>
<g id="a_edge18&#45;headlabel"><a xlink:href="dir_000089_000096.html" target="_top" xlink:title="22">
<text text-anchor="middle" x="226.57" y="-278.08" font-family="FreeSans" font-size="10.00">22</text>
</a>
</g>
</g>
<!-- dir_4546011bd625f1142c4c4ae06dcdb5ba&#45;&gt;dir_ff42852cc454de79d2ecb9482f4de9d8 -->
<g id="edge19" class="edge">
<title>dir_4546011bd625f1142c4c4ae06dcdb5ba&#45;&gt;dir_ff42852cc454de79d2ecb9482f4de9d8</title>
<path fill="none" stroke="black" d="M146.46,-303.62C147.69,-273.59 152.24,-210.37 169,-160 172.03,-150.89 176.6,-141.52 181.23,-133.24"/>
<polygon fill="black" stroke="black" points="184.36,-134.82 186.39,-124.42 178.32,-131.28 184.36,-134.82"/>
<g id="a_edge19&#45;headlabel"><a xlink:href="dir_000089_000099.html" target="_top" xlink:title="8">
<text text-anchor="middle" x="184.99" y="-136.85" font-family="FreeSans" font-size="10.00">8</text>
</a>
</g>
</g>
<!-- dir_91ae3e556fa9cad9030b784323206cc7 -->
<g id="node4" class="node">
<title>dir_91ae3e556fa9cad9030b784323206cc7</title>
<g id="a_node4"><a xlink:href="dir_91ae3e556fa9cad9030b784323206cc7.html" target="_top" xlink:title="Calibration">
<polygon fill="white" stroke="red" points="108,-412 46,-412 46,-376 108,-376 108,-412"/>
<text text-anchor="middle" x="77" y="-391.5" font-family="FreeSans" font-size="10.00">Calibration</text>
</a>
</g>
</g>
<!-- dir_91ae3e556fa9cad9030b784323206cc7&#45;&gt;dir_150f406a44a04ce55518da03ec553ece -->
<g id="edge3" class="edge">
<title>dir_91ae3e556fa9cad9030b784323206cc7&#45;&gt;dir_150f406a44a04ce55518da03ec553ece</title>
<path fill="none" stroke="black" d="M74.75,-375.76C73.09,-357.19 72.64,-327.19 83,-304 102.09,-261.29 142.48,-224.66 171.56,-202.3"/>
<polygon fill="black" stroke="black" points="173.92,-204.9 179.81,-196.1 169.71,-199.3 173.92,-204.9"/>
<g id="a_edge3&#45;headlabel"><a xlink:href="dir_000102_000086.html" target="_top" xlink:title="29">
<text text-anchor="middle" x="172.75" y="-206.83" font-family="FreeSans" font-size="10.00">29</text>
</a>
</g>
</g>
<!-- dir_91ae3e556fa9cad9030b784323206cc7&#45;&gt;dir_32348ece3c89569e6a714937ae854c89 -->
<g id="edge2" class="edge">
<title>dir_91ae3e556fa9cad9030b784323206cc7&#45;&gt;dir_32348ece3c89569e6a714937ae854c89</title>
<path fill="none" stroke="black" d="M68.91,-375.95C57.22,-349.72 37,-297.61 37,-251 37,-251 37,-251 37,-177 37,-96.05 145.98,-57.81 205.8,-42.92"/>
<polygon fill="black" stroke="black" points="206.74,-46.3 215.65,-40.57 205.11,-39.49 206.74,-46.3"/>
<g id="a_edge2&#45;headlabel"><a xlink:href="dir_000102_000123.html" target="_top" xlink:title="22">
<text text-anchor="middle" x="203.9" y="-47.39" font-family="FreeSans" font-size="10.00">22</text>
</a>
</g>
</g>
<!-- dir_91ae3e556fa9cad9030b784323206cc7&#45;&gt;dir_4546011bd625f1142c4c4ae06dcdb5ba -->
<g id="edge5" class="edge">
<title>dir_91ae3e556fa9cad9030b784323206cc7&#45;&gt;dir_4546011bd625f1142c4c4ae06dcdb5ba</title>
<path fill="none" stroke="black" d="M94.06,-375.7C102.5,-367.14 112.82,-356.66 122.04,-347.3"/>
<polygon fill="black" stroke="black" points="124.61,-349.68 129.14,-340.1 119.63,-344.77 124.61,-349.68"/>
<g id="a_edge5&#45;headlabel"><a xlink:href="dir_000102_000089.html" target="_top" xlink:title="55">
<text text-anchor="middle" x="124.11" y="-351.74" font-family="FreeSans" font-size="10.00">55</text>
</a>
</g>
</g>
<!-- dir_91ae3e556fa9cad9030b784323206cc7&#45;&gt;dir_a06008c3e245d1092ba6894d6caedef2 -->
<g id="edge4" class="edge">
<title>dir_91ae3e556fa9cad9030b784323206cc7&#45;&gt;dir_a06008c3e245d1092ba6894d6caedef2</title>
<path fill="none" stroke="black" d="M78.51,-375.9C81.15,-356.03 88.37,-323.48 108,-304 138.54,-273.69 187.06,-260.7 221.88,-255.14"/>
<polygon fill="black" stroke="black" points="222.82,-258.54 232.21,-253.64 221.81,-251.62 222.82,-258.54"/>
<g id="a_edge4&#45;headlabel"><a xlink:href="dir_000102_000096.html" target="_top" xlink:title="64">
<text text-anchor="middle" x="219.67" y="-259.37" font-family="FreeSans" font-size="10.00">64</text>
</a>
</g>
</g>
<!-- dir_91ae3e556fa9cad9030b784323206cc7&#45;&gt;dir_ff42852cc454de79d2ecb9482f4de9d8 -->
<g id="edge6" class="edge">
<title>dir_91ae3e556fa9cad9030b784323206cc7&#45;&gt;dir_ff42852cc454de79d2ecb9482f4de9d8</title>
<path fill="none" stroke="black" d="M72.81,-375.76C69.08,-357.7 64.93,-328.59 70,-304 84.58,-233.25 140.25,-166.11 173.18,-131.44"/>
<polygon fill="black" stroke="black" points="175.8,-133.77 180.23,-124.14 170.76,-128.9 175.8,-133.77"/>
<g id="a_edge6&#45;headlabel"><a xlink:href="dir_000102_000099.html" target="_top" xlink:title="10">
<text text-anchor="middle" x="175.34" y="-135.82" font-family="FreeSans" font-size="10.00">10</text>
</a>
</g>
</g>
<!-- dir_a06008c3e245d1092ba6894d6caedef2&#45;&gt;dir_150f406a44a04ce55518da03ec553ece -->
<g id="edge7" class="edge">
<title>dir_a06008c3e245d1092ba6894d6caedef2&#45;&gt;dir_150f406a44a04ce55518da03ec553ece</title>
<path fill="none" stroke="black" d="M249.42,-231.7C242.34,-223.3 233.72,-213.07 225.95,-203.86"/>
<polygon fill="black" stroke="black" points="228.54,-201.49 219.42,-196.1 223.19,-206.01 228.54,-201.49"/>
<g id="a_edge7&#45;headlabel"><a xlink:href="dir_000096_000086.html" target="_top" xlink:title="42">
<text text-anchor="middle" x="233.03" y="-199.91" font-family="FreeSans" font-size="10.00">42</text>
</a>
</g>
</g>
<!-- dir_a06008c3e245d1092ba6894d6caedef2&#45;&gt;dir_32348ece3c89569e6a714937ae854c89 -->
<g id="edge8" class="edge">
<title>dir_a06008c3e245d1092ba6894d6caedef2&#45;&gt;dir_32348ece3c89569e6a714937ae854c89</title>
<path fill="none" stroke="black" d="M262.4,-231.85C258.94,-194.83 250.75,-107.18 246.56,-62.39"/>
<polygon fill="black" stroke="black" points="250.03,-61.86 245.61,-52.23 243.06,-62.51 250.03,-61.86"/>
<g id="a_edge8&#45;headlabel"><a xlink:href="dir_000096_000123.html" target="_top" xlink:title="9">
<text text-anchor="middle" x="253.19" y="-62.68" font-family="FreeSans" font-size="10.00">9</text>
</a>
</g>
</g>
<!-- dir_b8ce078ed9f8fd90d71e02c796d93353 -->
<g id="node6" class="node">
<title>dir_b8ce078ed9f8fd90d71e02c796d93353</title>
<g id="a_node6"><a xlink:href="dir_b8ce078ed9f8fd90d71e02c796d93353.html" target="_top" xlink:title="Initialization">
<polygon fill="white" stroke="red" points="84,-484 16,-484 16,-448 84,-448 84,-484"/>
<text text-anchor="middle" x="50" y="-463.5" font-family="FreeSans" font-size="10.00">Initialization</text>
</a>
</g>
</g>
<!-- dir_b8ce078ed9f8fd90d71e02c796d93353&#45;&gt;dir_150f406a44a04ce55518da03ec553ece -->
<g id="edge27" class="edge">
<title>dir_b8ce078ed9f8fd90d71e02c796d93353&#45;&gt;dir_150f406a44a04ce55518da03ec553ece</title>
<path fill="none" stroke="black" d="M77.02,-447.73C98.4,-433.96 125.41,-416.3 130,-412 159.41,-384.5 169.77,-377.28 185,-340 194.64,-316.41 200.65,-245.7 203.34,-206.29"/>
<polygon fill="black" stroke="black" points="206.85,-206.28 204.01,-196.07 199.86,-205.82 206.85,-206.28"/>
<g id="a_edge27&#45;headlabel"><a xlink:href="dir_000104_000086.html" target="_top" xlink:title="44">
<text text-anchor="middle" x="209.44" y="-207.55" font-family="FreeSans" font-size="10.00">44</text>
</a>
</g>
</g>
<!-- dir_b8ce078ed9f8fd90d71e02c796d93353&#45;&gt;dir_32348ece3c89569e6a714937ae854c89 -->
<g id="edge28" class="edge">
<title>dir_b8ce078ed9f8fd90d71e02c796d93353&#45;&gt;dir_32348ece3c89569e6a714937ae854c89</title>
<path fill="none" stroke="black" d="M43.32,-447.81C33.68,-421.4 17,-369.06 17,-323 17,-323 17,-323 17,-177 17,-134.16 21.92,-116.39 54,-88 96.56,-50.34 163.77,-39.23 205.8,-36.08"/>
<polygon fill="black" stroke="black" points="206.15,-39.57 215.91,-35.44 205.71,-32.58 206.15,-39.57"/>
<g id="a_edge28&#45;headlabel"><a xlink:href="dir_000104_000123.html" target="_top" xlink:title="3">
<text text-anchor="middle" x="202.75" y="-40.13" font-family="FreeSans" font-size="10.00">3</text>
</a>
</g>
</g>
<!-- dir_b8ce078ed9f8fd90d71e02c796d93353&#45;&gt;dir_4546011bd625f1142c4c4ae06dcdb5ba -->
<g id="edge29" class="edge">
<title>dir_b8ce078ed9f8fd90d71e02c796d93353&#45;&gt;dir_4546011bd625f1142c4c4ae06dcdb5ba</title>
<path fill="none" stroke="black" d="M78.7,-447.92C91.98,-438.74 107,-426.36 117,-412 129.95,-393.41 137.39,-368.67 141.49,-350"/>
<polygon fill="black" stroke="black" points="144.95,-350.55 143.48,-340.06 138.08,-349.17 144.95,-350.55"/>
<g id="a_edge29&#45;headlabel"><a xlink:href="dir_000104_000089.html" target="_top" xlink:title="4">
<text text-anchor="middle" x="147.03" y="-352.13" font-family="FreeSans" font-size="10.00">4</text>
</a>
</g>
</g>
<!-- dir_b8ce078ed9f8fd90d71e02c796d93353&#45;&gt;dir_91ae3e556fa9cad9030b784323206cc7 -->
<g id="edge31" class="edge">
<title>dir_b8ce078ed9f8fd90d71e02c796d93353&#45;&gt;dir_91ae3e556fa9cad9030b784323206cc7</title>
<path fill="none" stroke="black" d="M56.67,-447.7C59.71,-439.81 63.38,-430.3 66.76,-421.55"/>
<polygon fill="black" stroke="black" points="70.07,-422.69 70.4,-412.1 63.54,-420.17 70.07,-422.69"/>
<g id="a_edge31&#45;headlabel"><a xlink:href="dir_000104_000102.html" target="_top" xlink:title="17">
<text text-anchor="middle" x="71.42" y="-424.57" font-family="FreeSans" font-size="10.00">17</text>
</a>
</g>
</g>
<!-- dir_b8ce078ed9f8fd90d71e02c796d93353&#45;&gt;dir_a06008c3e245d1092ba6894d6caedef2 -->
<g id="edge30" class="edge">
<title>dir_b8ce078ed9f8fd90d71e02c796d93353&#45;&gt;dir_a06008c3e245d1092ba6894d6caedef2</title>
<path fill="none" stroke="black" d="M75.28,-447.85C80.05,-445.01 85.09,-442.25 90,-440 128.08,-422.53 147.85,-438.85 180,-412 222.62,-376.41 246.35,-313.59 257.02,-277.85"/>
<polygon fill="black" stroke="black" points="260.42,-278.69 259.8,-268.11 253.69,-276.77 260.42,-278.69"/>
<g id="a_edge30&#45;headlabel"><a xlink:href="dir_000104_000096.html" target="_top" xlink:title="7">
<text text-anchor="middle" x="262.16" y="-280.42" font-family="FreeSans" font-size="10.00">7</text>
</a>
</g>
</g>
<!-- dir_ff42852cc454de79d2ecb9482f4de9d8&#45;&gt;dir_150f406a44a04ce55518da03ec553ece -->
<g id="edge10" class="edge">
<title>dir_ff42852cc454de79d2ecb9482f4de9d8&#45;&gt;dir_150f406a44a04ce55518da03ec553ece</title>
<path fill="none" stroke="black" d="M205.61,-124.1C207.18,-131.79 208.34,-141.05 208.87,-149.67"/>
<polygon fill="black" stroke="black" points="205.37,-149.81 209.19,-159.7 212.37,-149.59 205.37,-149.81"/>
<g id="a_edge10&#45;headlabel"><a xlink:href="dir_000099_000086.html" target="_top" xlink:title="1">
<text text-anchor="middle" x="202.42" y="-143.81" font-family="FreeSans" font-size="10.00">1</text>
</a>
</g>
</g>
<!-- dir_ff42852cc454de79d2ecb9482f4de9d8&#45;&gt;dir_32348ece3c89569e6a714937ae854c89 -->
<g id="edge9" class="edge">
<title>dir_ff42852cc454de79d2ecb9482f4de9d8&#45;&gt;dir_32348ece3c89569e6a714937ae854c89</title>
<path fill="none" stroke="black" d="M209.37,-87.7C214.72,-79.56 221.2,-69.69 227.11,-60.7"/>
<polygon fill="black" stroke="black" points="230.19,-62.38 232.76,-52.1 224.34,-58.54 230.19,-62.38"/>
<g id="a_edge9&#45;headlabel"><a xlink:href="dir_000099_000123.html" target="_top" xlink:title="6">
<text text-anchor="middle" x="230.59" y="-64.45" font-family="FreeSans" font-size="10.00">6</text>
</a>
</g>
</g>
<!-- dir_26953edb3cb67a8e3bae1da7766c1e03 -->
<g id="node8" class="node">
<title>dir_26953edb3cb67a8e3bae1da7766c1e03</title>
<text text-anchor="middle" x="447" y="-463.5" font-family="FreeSans" font-size="10.00">Plugins</text>
</g>
<!-- dir_a7f85dca1d9cad931d7bd4b89571ac6c -->
<g id="node9" class="node">
<title>dir_a7f85dca1d9cad931d7bd4b89571ac6c</title>
<g id="a_node9"><a xlink:href="dir_a7f85dca1d9cad931d7bd4b89571ac6c.html" target="_top" xlink:title="CUDA">
<polygon fill="white" stroke="red" points="156,-484 102,-484 102,-448 156,-448 156,-484"/>
<text text-anchor="middle" x="129" y="-463.5" font-family="FreeSans" font-size="10.00">CUDA</text>
</a>
</g>
</g>
<!-- dir_a7f85dca1d9cad931d7bd4b89571ac6c&#45;&gt;dir_91ae3e556fa9cad9030b784323206cc7 -->
<g id="edge1" class="edge">
<title>dir_a7f85dca1d9cad931d7bd4b89571ac6c&#45;&gt;dir_91ae3e556fa9cad9030b784323206cc7</title>
<path fill="none" stroke="black" d="M116.15,-447.7C109.97,-439.39 102.46,-429.28 95.68,-420.14"/>
<polygon fill="black" stroke="black" points="98.48,-418.04 89.71,-412.1 92.86,-422.22 98.48,-418.04"/>
<g id="a_edge1&#45;headlabel"><a xlink:href="dir_000119_000102.html" target="_top" xlink:title="1">
<text text-anchor="middle" x="102.9" y="-416.74" font-family="FreeSans" font-size="10.00">1</text>
</a>
</g>
</g>
<!-- dir_c308a59eafa98348538c534617a3f49b -->
<g id="node10" class="node">
<title>dir_c308a59eafa98348538c534617a3f49b</title>
<g id="a_node10"><a xlink:href="dir_c308a59eafa98348538c534617a3f49b.html" target="_top" xlink:title="HDF5">
<polygon fill="white" stroke="red" points="402,-484 348,-484 348,-448 402,-448 402,-484"/>
<text text-anchor="middle" x="375" y="-463.5" font-family="FreeSans" font-size="10.00">HDF5</text>
</a>
</g>
</g>
<!-- dir_c308a59eafa98348538c534617a3f49b&#45;&gt;dir_150f406a44a04ce55518da03ec553ece -->
<g id="edge32" class="edge">
<title>dir_c308a59eafa98348538c534617a3f49b&#45;&gt;dir_150f406a44a04ce55518da03ec553ece</title>
<path fill="none" stroke="black" d="M375.47,-447.9C375.7,-406.15 370.76,-297.62 317,-232 298.07,-208.89 266.72,-195.26 242,-187.62"/>
<polygon fill="black" stroke="black" points="242.78,-184.2 232.2,-184.8 240.84,-190.93 242.78,-184.2"/>
<g id="a_edge32&#45;headlabel"><a xlink:href="dir_000084_000086.html" target="_top" xlink:title="21">
<text text-anchor="middle" x="247.02" y="-179.97" font-family="FreeSans" font-size="10.00">21</text>
</a>
</g>
</g>
<!-- dir_c308a59eafa98348538c534617a3f49b&#45;&gt;dir_32348ece3c89569e6a714937ae854c89 -->
<g id="edge33" class="edge">
<title>dir_c308a59eafa98348538c534617a3f49b&#45;&gt;dir_32348ece3c89569e6a714937ae854c89</title>
<path fill="none" stroke="black" d="M387.72,-447.62C405.34,-421.81 435,-371.17 435,-323 435,-323 435,-323 435,-177 435,-101.54 337.79,-61.47 282.07,-44.71"/>
<polygon fill="black" stroke="black" points="282.76,-41.27 272.18,-41.85 280.82,-47.99 282.76,-41.27"/>
<g id="a_edge33&#45;headlabel"><a xlink:href="dir_000084_000123.html" target="_top" xlink:title="2">
<text text-anchor="middle" x="287" y="-37.04" font-family="FreeSans" font-size="10.00">2</text>
</a>
</g>
</g>
<!-- dir_c308a59eafa98348538c534617a3f49b&#45;&gt;dir_a06008c3e245d1092ba6894d6caedef2 -->
<g id="edge34" class="edge">
<title>dir_c308a59eafa98348538c534617a3f49b&#45;&gt;dir_a06008c3e245d1092ba6894d6caedef2</title>
<path fill="none" stroke="black" d="M366.1,-447.85C346.74,-410.52 300.67,-321.69 277.62,-277.26"/>
<polygon fill="black" stroke="black" points="280.65,-275.5 272.94,-268.23 274.44,-278.72 280.65,-275.5"/>
<g id="a_edge34&#45;headlabel"><a xlink:href="dir_000084_000096.html" target="_top" xlink:title="42">
<text text-anchor="middle" x="284.83" y="-274.88" font-family="FreeSans" font-size="10.00">42</text>
</a>
</g>
</g>
<!-- dir_cbaa4243dba62e6c31a85be2a7f37267 -->
<g id="node11" class="node">
<title>dir_cbaa4243dba62e6c31a85be2a7f37267</title>
<g id="a_node11"><a xlink:href="dir_cbaa4243dba62e6c31a85be2a7f37267.html" target="_top" xlink:title="OpenCL">
<polygon fill="white" stroke="red" points="330,-484 276,-484 276,-448 330,-448 330,-484"/>
<text text-anchor="middle" x="303" y="-463.5" font-family="FreeSans" font-size="10.00">OpenCL</text>
</a>
</g>
</g>
<!-- dir_cbaa4243dba62e6c31a85be2a7f37267&#45;&gt;dir_150f406a44a04ce55518da03ec553ece -->
<g id="edge20" class="edge">
<title>dir_cbaa4243dba62e6c31a85be2a7f37267&#45;&gt;dir_150f406a44a04ce55518da03ec553ece</title>
<path fill="none" stroke="black" d="M308.76,-447.92C321.4,-407.13 347.24,-302.19 305,-232 291.32,-209.27 264.25,-195.77 241.73,-188.09"/>
<polygon fill="black" stroke="black" points="242.67,-184.72 232.08,-185.05 240.57,-191.4 242.67,-184.72"/>
<g id="a_edge20&#45;headlabel"><a xlink:href="dir_000081_000086.html" target="_top" xlink:title="5">
<text text-anchor="middle" x="246.95" y="-180.59" font-family="FreeSans" font-size="10.00">5</text>
</a>
</g>
</g>
<!-- dir_cbaa4243dba62e6c31a85be2a7f37267&#45;&gt;dir_32348ece3c89569e6a714937ae854c89 -->
<g id="edge21" class="edge">
<title>dir_cbaa4243dba62e6c31a85be2a7f37267&#45;&gt;dir_32348ece3c89569e6a714937ae854c89</title>
<path fill="none" stroke="black" d="M323.88,-447.63C351.02,-422.97 395,-374.99 395,-323 395,-323 395,-323 395,-177 395,-114.68 325.9,-71.69 281.19,-50.4"/>
<polygon fill="black" stroke="black" points="282.59,-47.2 272.05,-46.19 279.66,-53.55 282.59,-47.2"/>
<g id="a_edge21&#45;headlabel"><a xlink:href="dir_000081_000123.html" target="_top" xlink:title="6">
<text text-anchor="middle" x="287.05" y="-43.62" font-family="FreeSans" font-size="10.00">6</text>
</a>
</g>
</g>
<!-- dir_cbaa4243dba62e6c31a85be2a7f37267&#45;&gt;dir_4546011bd625f1142c4c4ae06dcdb5ba -->
<g id="edge22" class="edge">
<title>dir_cbaa4243dba62e6c31a85be2a7f37267&#45;&gt;dir_4546011bd625f1142c4c4ae06dcdb5ba</title>
<path fill="none" stroke="black" d="M284.06,-447.87C256.24,-422.71 204.22,-375.65 172.58,-347.04"/>
<polygon fill="black" stroke="black" points="174.77,-344.3 165.01,-340.19 170.07,-349.49 174.77,-344.3"/>
<g id="a_edge22&#45;headlabel"><a xlink:href="dir_000081_000089.html" target="_top" xlink:title="11">
<text text-anchor="middle" x="179.34" y="-342.11" font-family="FreeSans" font-size="10.00">11</text>
</a>
</g>
</g>
<!-- dir_cbaa4243dba62e6c31a85be2a7f37267&#45;&gt;dir_a06008c3e245d1092ba6894d6caedef2 -->
<g id="edge23" class="edge">
<title>dir_cbaa4243dba62e6c31a85be2a7f37267&#45;&gt;dir_a06008c3e245d1092ba6894d6caedef2</title>
<path fill="none" stroke="black" d="M299.87,-447.85C293.11,-410.75 277.09,-322.81 268.94,-278.1"/>
<polygon fill="black" stroke="black" points="272.38,-277.44 267.14,-268.23 265.49,-278.7 272.38,-277.44"/>
<g id="a_edge23&#45;headlabel"><a xlink:href="dir_000081_000096.html" target="_top" xlink:title="8">
<text text-anchor="middle" x="275.81" y="-277.97" font-family="FreeSans" font-size="10.00">8</text>
</a>
</g>
</g>
<!-- dir_cbaa4243dba62e6c31a85be2a7f37267&#45;&gt;dir_ff42852cc454de79d2ecb9482f4de9d8 -->
<g id="edge24" class="edge">
<title>dir_cbaa4243dba62e6c31a85be2a7f37267&#45;&gt;dir_ff42852cc454de79d2ecb9482f4de9d8</title>
<path fill="none" stroke="black" d="M319.04,-447.85C327.01,-438.12 335.83,-425.27 340,-412 364.2,-335.07 354.46,-303.42 317,-232 295.34,-190.7 256.03,-153.42 228.54,-130.53"/>
<polygon fill="black" stroke="black" points="230.73,-127.8 220.77,-124.18 226.3,-133.22 230.73,-127.8"/>
<g id="a_edge24&#45;headlabel"><a xlink:href="dir_000081_000099.html" target="_top" xlink:title="7">
<text text-anchor="middle" x="235.31" y="-125.38" font-family="FreeSans" font-size="10.00">7</text>
</a>
</g>
</g>
<!-- dir_f1ba8c0e7d28a93252eea320364e0857 -->
<g id="node12" class="node">
<title>dir_f1ba8c0e7d28a93252eea320364e0857</title>
<g id="a_node12"><a xlink:href="dir_f1ba8c0e7d28a93252eea320364e0857.html" target="_top" xlink:title="PythonBindings">
<polygon fill="white" stroke="red" points="258,-484 174,-484 174,-448 258,-448 258,-484"/>
<text text-anchor="middle" x="216" y="-463.5" font-family="FreeSans" font-size="10.00">PythonBindings</text>
</a>
</g>
</g>
<!-- dir_f1ba8c0e7d28a93252eea320364e0857&#45;&gt;dir_150f406a44a04ce55518da03ec553ece -->
<g id="edge11" class="edge">
<title>dir_f1ba8c0e7d28a93252eea320364e0857&#45;&gt;dir_150f406a44a04ce55518da03ec553ece</title>
<path fill="none" stroke="black" d="M215.34,-447.97C213.51,-400.29 208.31,-265.18 206.06,-206.63"/>
<polygon fill="black" stroke="black" points="209.55,-206.16 205.67,-196.31 202.55,-206.43 209.55,-206.16"/>
<g id="a_edge11&#45;headlabel"><a xlink:href="dir_000134_000086.html" target="_top" xlink:title="4">
<text text-anchor="middle" x="212.52" y="-207.15" font-family="FreeSans" font-size="10.00">4</text>
</a>
</g>
</g>
<!-- dir_f1ba8c0e7d28a93252eea320364e0857&#45;&gt;dir_32348ece3c89569e6a714937ae854c89 -->
<g id="edge12" class="edge">
<title>dir_f1ba8c0e7d28a93252eea320364e0857&#45;&gt;dir_32348ece3c89569e6a714937ae854c89</title>
<path fill="none" stroke="black" d="M244.81,-447.85C280.02,-424.45 335,-378.97 335,-323 335,-323 335,-323 335,-177 335,-129.83 298.96,-85.79 272.25,-59.63"/>
<polygon fill="black" stroke="black" points="274.31,-56.76 264.65,-52.42 269.49,-61.84 274.31,-56.76"/>
<g id="a_edge12&#45;headlabel"><a xlink:href="dir_000134_000123.html" target="_top" xlink:title="1">
<text text-anchor="middle" x="278.87" y="-54.68" font-family="FreeSans" font-size="10.00">1</text>
</a>
</g>
</g>
<!-- dir_f1ba8c0e7d28a93252eea320364e0857&#45;&gt;dir_4546011bd625f1142c4c4ae06dcdb5ba -->
<g id="edge13" class="edge">
<title>dir_f1ba8c0e7d28a93252eea320364e0857&#45;&gt;dir_4546011bd625f1142c4c4ae06dcdb5ba</title>
<path fill="none" stroke="black" d="M207.56,-447.87C195.47,-423.35 173.13,-378.03 158.94,-349.26"/>
<polygon fill="black" stroke="black" points="162.03,-347.61 154.47,-340.19 155.76,-350.71 162.03,-347.61"/>
<g id="a_edge13&#45;headlabel"><a xlink:href="dir_000134_000089.html" target="_top" xlink:title="4">
<text text-anchor="middle" x="166.17" y="-347.08" font-family="FreeSans" font-size="10.00">4</text>
</a>
</g>
</g>
<!-- dir_f1ba8c0e7d28a93252eea320364e0857&#45;&gt;dir_a06008c3e245d1092ba6894d6caedef2 -->
<g id="edge14" class="edge">
<title>dir_f1ba8c0e7d28a93252eea320364e0857&#45;&gt;dir_a06008c3e245d1092ba6894d6caedef2</title>
<path fill="none" stroke="black" d="M225.26,-447.8C230.35,-437.65 236.35,-424.4 240,-412 253.49,-366.21 259.63,-310.76 262.24,-278.33"/>
<polygon fill="black" stroke="black" points="265.74,-278.49 263,-268.26 258.76,-277.97 265.74,-278.49"/>
<g id="a_edge14&#45;headlabel"><a xlink:href="dir_000134_000096.html" target="_top" xlink:title="17">
<text text-anchor="middle" x="268.3" y="-279.79" font-family="FreeSans" font-size="10.00">17</text>
</a>
</g>
</g>
<!-- dir_f1ba8c0e7d28a93252eea320364e0857&#45;&gt;dir_b8ce078ed9f8fd90d71e02c796d93353 -->
<g id="edge15" class="edge">
<title>dir_f1ba8c0e7d28a93252eea320364e0857&#45;&gt;dir_b8ce078ed9f8fd90d71e02c796d93353</title>
<path fill="none" stroke="black" d="M206.71,-484.2C196.78,-501.42 179.27,-526.2 156,-537 133.02,-547.67 121.43,-548.77 99,-537 81.54,-527.83 69.08,-509.31 61.09,-493.49"/>
<polygon fill="black" stroke="black" points="64.1,-491.66 56.69,-484.09 57.76,-494.63 64.1,-491.66"/>
<g id="a_edge15&#45;headlabel"><a xlink:href="dir_000134_000104.html" target="_top" xlink:title="1">
<text text-anchor="middle" x="68.2" y="-491.21" font-family="FreeSans" font-size="10.00">1</text>
</a>
</g>
</g>
</g>
</svg>
