<?xml version="1.0" encoding="UTF-8" standalone="no"?>
<!DOCTYPE svg PUBLIC "-//W3C//DTD SVG 1.1//EN"
 "http://www.w3.org/Graphics/SVG/1.1/DTD/svg11.dtd">
<!-- Generated by graphviz version 2.43.0 (0)
 -->
<!-- Title: include Pages: 1 -->
<svg width="262pt" height="295pt"
 viewBox="0.00 0.00 261.89 295.00" xmlns="http://www.w3.org/2000/svg" xmlns:xlink="http://www.w3.org/1999/xlink">
<g id="graph0" class="graph" transform="scale(1 1) rotate(0) translate(4 291)">
<title>include</title>
<polygon fill="white" stroke="transparent" points="-4,4 -4,-291 257.89,-291 257.89,4 -4,4"/>
<g id="clust1" class="cluster">
<title>clusterdir_6673a16bbecdcc68e09241660b3c8088</title>
<g id="a_clust1"><a xlink:href="dir_6673a16bbecdcc68e09241660b3c8088.html" target="_top" xlink:title="fringex">
<polygon fill="#ddddee" stroke="black" points="81.89,-208 81.89,-279 151.89,-279 151.89,-208 81.89,-208"/>
<text text-anchor="middle" x="116.89" y="-267" font-family="FreeSans" font-size="10.00">fringex</text>
</a>
</g>
</g>
<!-- dir_b75496fd0467feca063d0dac760df1c5 -->
<g id="node1" class="node">
<title>dir_b75496fd0467feca063d0dac760df1c5</title>
<g id="a_node1"><a xlink:href="dir_b75496fd0467feca063d0dac760df1c5.html" target="_top" xlink:title="include">
<polygon fill="#eeeeff" stroke="black" points="143.89,-252 89.89,-252 89.89,-216 143.89,-216 143.89,-252"/>
<text text-anchor="middle" x="116.89" y="-231.5" font-family="FreeSans" font-size="10.00">include</text>
</a>
</g>
</g>
<!-- dir_637a76a7abf5a01e5c2aa724f3c1e96e -->
<g id="node2" class="node">
<title>dir_637a76a7abf5a01e5c2aa724f3c1e96e</title>
<g id="a_node2"><a xlink:href="dir_637a76a7abf5a01e5c2aa724f3c1e96e.html" target="_top" xlink:title="afio">
<polygon fill="white" stroke="red" points="71.89,-180 17.89,-180 17.89,-144 71.89,-144 71.89,-180"/>
<text text-anchor="middle" x="44.89" y="-159.5" font-family="FreeSans" font-size="10.00">afio</text>
</a>
</g>
</g>
<!-- dir_b75496fd0467feca063d0dac760df1c5&#45;&gt;dir_637a76a7abf5a01e5c2aa724f3c1e96e -->
<g id="edge3" class="edge">
<title>dir_b75496fd0467feca063d0dac760df1c5&#45;&gt;dir_637a76a7abf5a01e5c2aa724f3c1e96e</title>
<path fill="none" stroke="black" d="M99.1,-215.7C90.29,-207.14 79.51,-196.66 69.89,-187.3"/>
<polygon fill="black" stroke="black" points="72.1,-184.57 62.49,-180.1 67.22,-189.58 72.1,-184.57"/>
<g id="a_edge3&#45;headlabel"><a xlink:href="dir_000079_000022.html" target="_top" xlink:title="2">
<text text-anchor="middle" x="76.65" y="-182.54" font-family="FreeSans" font-size="10.00">2</text>
</a>
</g>
</g>
<!-- dir_64078e4dd55db1ba2b4e557207803e4b -->
<g id="node3" class="node">
<title>dir_64078e4dd55db1ba2b4e557207803e4b</title>
<g id="a_node3"><a xlink:href="dir_64078e4dd55db1ba2b4e557207803e4b.html" target="_top" xlink:title="vex">
<polygon fill="white" stroke="red" points="143.89,-180 89.89,-180 89.89,-144 143.89,-144 143.89,-180"/>
<text text-anchor="middle" x="116.89" y="-159.5" font-family="FreeSans" font-size="10.00">vex</text>
</a>
</g>
</g>
<!-- dir_b75496fd0467feca063d0dac760df1c5&#45;&gt;dir_64078e4dd55db1ba2b4e557207803e4b -->
<g id="edge4" class="edge">
<title>dir_b75496fd0467feca063d0dac760df1c5&#45;&gt;dir_64078e4dd55db1ba2b4e557207803e4b</title>
<path fill="none" stroke="black" d="M116.89,-215.7C116.89,-207.98 116.89,-198.71 116.89,-190.11"/>
<polygon fill="black" stroke="black" points="120.39,-190.1 116.89,-180.1 113.39,-190.1 120.39,-190.1"/>
<g id="a_edge4&#45;headlabel"><a xlink:href="dir_000079_000044.html" target="_top" xlink:title="1">
<text text-anchor="middle" x="123.23" y="-191.2" font-family="FreeSans" font-size="10.00">1</text>
</a>
</g>
</g>
<!-- dir_758df28fbdbb54fb46d6d3d6484a4984 -->
<g id="node4" class="node">
<title>dir_758df28fbdbb54fb46d6d3d6484a4984</title>
<g id="a_node4"><a xlink:href="dir_758df28fbdbb54fb46d6d3d6484a4984.html" target="_top" xlink:title="msg">
<polygon fill="white" stroke="red" points="130.89,-36 76.89,-36 76.89,0 130.89,0 130.89,-36"/>
<text text-anchor="middle" x="103.89" y="-15.5" font-family="FreeSans" font-size="10.00">msg</text>
</a>
</g>
</g>
<!-- dir_b75496fd0467feca063d0dac760df1c5&#45;&gt;dir_758df28fbdbb54fb46d6d3d6484a4984 -->
<g id="edge5" class="edge">
<title>dir_b75496fd0467feca063d0dac760df1c5&#45;&gt;dir_758df28fbdbb54fb46d6d3d6484a4984</title>
<path fill="none" stroke="black" d="M89.69,-228.08C63.87,-221.8 26.46,-208.18 8.89,-180 -21.23,-131.66 34.61,-73.92 72.69,-42.4"/>
<polygon fill="black" stroke="black" points="74.93,-45.09 80.52,-36.08 70.54,-39.64 74.93,-45.09"/>
<g id="a_edge5&#45;headlabel"><a xlink:href="dir_000079_000144.html" target="_top" xlink:title="1">
<text text-anchor="middle" x="73.92" y="-47.06" font-family="FreeSans" font-size="10.00">1</text>
</a>
</g>
</g>
<!-- dir_cb2d4e92f47691559fc9d122a5e37fac -->
<g id="node5" class="node">
<title>dir_cb2d4e92f47691559fc9d122a5e37fac</title>
<g id="a_node5"><a xlink:href="dir_cb2d4e92f47691559fc9d122a5e37fac.html" target="_top" xlink:title="mk4util">
<polygon fill="white" stroke="red" points="185.89,-108 131.89,-108 131.89,-72 185.89,-72 185.89,-108"/>
<text text-anchor="middle" x="158.89" y="-87.5" font-family="FreeSans" font-size="10.00">mk4util</text>
</a>
</g>
</g>
<!-- dir_b75496fd0467feca063d0dac760df1c5&#45;&gt;dir_cb2d4e92f47691559fc9d122a5e37fac -->
<g id="edge6" class="edge">
<title>dir_b75496fd0467feca063d0dac760df1c5&#45;&gt;dir_cb2d4e92f47691559fc9d122a5e37fac</title>
<path fill="none" stroke="black" d="M132.15,-215.66C139.81,-205.88 148.4,-193.04 152.89,-180 159.74,-160.14 161.02,-136.35 160.7,-118.36"/>
<polygon fill="black" stroke="black" points="164.2,-118.13 160.35,-108.25 157.2,-118.37 164.2,-118.13"/>
<g id="a_edge6&#45;headlabel"><a xlink:href="dir_000079_000014.html" target="_top" xlink:title="3">
<text text-anchor="middle" x="167.16" y="-119.12" font-family="FreeSans" font-size="10.00">3</text>
</a>
</g>
</g>
<!-- dir_db8d68003073a61b7114dbc4f792cfed -->
<g id="node6" class="node">
<title>dir_db8d68003073a61b7114dbc4f792cfed</title>
<g id="a_node6"><a xlink:href="dir_db8d68003073a61b7114dbc4f792cfed.html" target="_top" xlink:title="dfio">
<polygon fill="white" stroke="red" points="253.89,-180 199.89,-180 199.89,-144 253.89,-144 253.89,-180"/>
<text text-anchor="middle" x="226.89" y="-159.5" font-family="FreeSans" font-size="10.00">dfio</text>
</a>
</g>
</g>
<!-- dir_b75496fd0467feca063d0dac760df1c5&#45;&gt;dir_db8d68003073a61b7114dbc4f792cfed -->
<g id="edge7" class="edge">
<title>dir_b75496fd0467feca063d0dac760df1c5&#45;&gt;dir_db8d68003073a61b7114dbc4f792cfed</title>
<path fill="none" stroke="black" d="M143.8,-215.88C158.05,-206.81 175.74,-195.55 191.13,-185.76"/>
<polygon fill="black" stroke="black" points="193.32,-188.51 199.88,-180.19 189.57,-182.61 193.32,-188.51"/>
<g id="a_edge7&#45;headlabel"><a xlink:href="dir_000079_000024.html" target="_top" xlink:title="2">
<text text-anchor="middle" x="191.82" y="-190.34" font-family="FreeSans" font-size="10.00">2</text>
</a>
</g>
</g>
<!-- dir_637a76a7abf5a01e5c2aa724f3c1e96e&#45;&gt;dir_758df28fbdbb54fb46d6d3d6484a4984 -->
<g id="edge10" class="edge">
<title>dir_637a76a7abf5a01e5c2aa724f3c1e96e&#45;&gt;dir_758df28fbdbb54fb46d6d3d6484a4984</title>
<path fill="none" stroke="black" d="M52.01,-143.87C62.15,-119.46 80.86,-74.43 92.83,-45.64"/>
<polygon fill="black" stroke="black" points="96.15,-46.77 96.75,-36.19 89.68,-44.08 96.15,-46.77"/>
<g id="a_edge10&#45;headlabel"><a xlink:href="dir_000022_000144.html" target="_top" xlink:title="1">
<text text-anchor="middle" x="97.39" y="-48.68" font-family="FreeSans" font-size="10.00">1</text>
</a>
</g>
</g>
<!-- dir_637a76a7abf5a01e5c2aa724f3c1e96e&#45;&gt;dir_cb2d4e92f47691559fc9d122a5e37fac -->
<g id="edge9" class="edge">
<title>dir_637a76a7abf5a01e5c2aa724f3c1e96e&#45;&gt;dir_cb2d4e92f47691559fc9d122a5e37fac</title>
<path fill="none" stroke="black" d="M71.91,-144.41C87.13,-135.06 106.34,-123.27 122.84,-113.14"/>
<polygon fill="black" stroke="black" points="124.99,-115.93 131.68,-107.71 121.32,-109.96 124.99,-115.93"/>
<g id="a_edge9&#45;headlabel"><a xlink:href="dir_000022_000014.html" target="_top" xlink:title="17">
<text text-anchor="middle" x="123.41" y="-117.73" font-family="FreeSans" font-size="10.00">17</text>
</a>
</g>
</g>
<!-- dir_64078e4dd55db1ba2b4e557207803e4b&#45;&gt;dir_758df28fbdbb54fb46d6d3d6484a4984 -->
<g id="edge1" class="edge">
<title>dir_64078e4dd55db1ba2b4e557207803e4b&#45;&gt;dir_758df28fbdbb54fb46d6d3d6484a4984</title>
<path fill="none" stroke="black" d="M115.33,-143.87C113.11,-119.67 109.04,-75.21 106.4,-46.39"/>
<polygon fill="black" stroke="black" points="109.86,-45.83 105.47,-36.19 102.89,-46.47 109.86,-45.83"/>
<g id="a_edge1&#45;headlabel"><a xlink:href="dir_000044_000144.html" target="_top" xlink:title="1">
<text text-anchor="middle" x="113.02" y="-46.65" font-family="FreeSans" font-size="10.00">1</text>
</a>
</g>
</g>
<!-- dir_64078e4dd55db1ba2b4e557207803e4b&#45;&gt;dir_cb2d4e92f47691559fc9d122a5e37fac -->
<g id="edge2" class="edge">
<title>dir_64078e4dd55db1ba2b4e557207803e4b&#45;&gt;dir_cb2d4e92f47691559fc9d122a5e37fac</title>
<path fill="none" stroke="black" d="M127.28,-143.7C132.16,-135.56 138.08,-125.69 143.47,-116.7"/>
<polygon fill="black" stroke="black" points="146.49,-118.48 148.63,-108.1 140.49,-114.88 146.49,-118.48"/>
<g id="a_edge2&#45;headlabel"><a xlink:href="dir_000044_000014.html" target="_top" xlink:title="76">
<text text-anchor="middle" x="147.07" y="-120.52" font-family="FreeSans" font-size="10.00">76</text>
</a>
</g>
</g>
<!-- dir_cb2d4e92f47691559fc9d122a5e37fac&#45;&gt;dir_758df28fbdbb54fb46d6d3d6484a4984 -->
<g id="edge8" class="edge">
<title>dir_cb2d4e92f47691559fc9d122a5e37fac&#45;&gt;dir_758df28fbdbb54fb46d6d3d6484a4984</title>
<path fill="none" stroke="black" d="M145.3,-71.7C138.77,-63.39 130.83,-53.28 123.65,-44.14"/>
<polygon fill="black" stroke="black" points="126.26,-41.81 117.33,-36.1 120.76,-46.13 126.26,-41.81"/>
<g id="a_edge8&#45;headlabel"><a xlink:href="dir_000014_000144.html" target="_top" xlink:title="3">
<text text-anchor="middle" x="130.72" y="-40.38" font-family="FreeSans" font-size="10.00">3</text>
</a>
</g>
</g>
<!-- dir_db8d68003073a61b7114dbc4f792cfed&#45;&gt;dir_758df28fbdbb54fb46d6d3d6484a4984 -->
<g id="edge12" class="edge">
<title>dir_db8d68003073a61b7114dbc4f792cfed&#45;&gt;dir_758df28fbdbb54fb46d6d3d6484a4984</title>
<path fill="none" stroke="black" d="M224.34,-143.85C220.71,-124.53 212.44,-93.07 194.89,-72 180.55,-54.77 159.07,-41.89 140.58,-33.14"/>
<polygon fill="black" stroke="black" points="141.79,-29.85 131.23,-28.94 138.92,-36.23 141.79,-29.85"/>
<g id="a_edge12&#45;headlabel"><a xlink:href="dir_000024_000144.html" target="_top" xlink:title="1">
<text text-anchor="middle" x="146.23" y="-26.23" font-family="FreeSans" font-size="10.00">1</text>
</a>
</g>
</g>
<!-- dir_db8d68003073a61b7114dbc4f792cfed&#45;&gt;dir_cb2d4e92f47691559fc9d122a5e37fac -->
<g id="edge11" class="edge">
<title>dir_db8d68003073a61b7114dbc4f792cfed&#45;&gt;dir_cb2d4e92f47691559fc9d122a5e37fac</title>
<path fill="none" stroke="black" d="M210.08,-143.7C201.77,-135.14 191.59,-124.66 182.5,-115.3"/>
<polygon fill="black" stroke="black" points="184.99,-112.84 175.51,-108.1 179.97,-117.72 184.99,-112.84"/>
<g id="a_edge11&#45;headlabel"><a xlink:href="dir_000024_000014.html" target="_top" xlink:title="117">
<text text-anchor="middle" x="189.53" y="-110.94" font-family="FreeSans" font-size="10.00">117</text>
</a>
</g>
</g>
</g>
</svg>
