<?xml version="1.0" encoding="UTF-8" standalone="no"?>
<!DOCTYPE svg PUBLIC "-//W3C//DTD SVG 1.1//EN"
 "http://www.w3.org/Graphics/SVG/1.1/DTD/svg11.dtd">
<!-- Generated by graphviz version 2.43.0 (0)
 -->
<!-- Title: Containers Pages: 1 -->
<svg width="256pt" height="231pt"
 viewBox="0.00 0.00 255.50 231.00" xmlns="http://www.w3.org/2000/svg" xmlns:xlink="http://www.w3.org/1999/xlink">
<g id="graph0" class="graph" transform="scale(1 1) rotate(0) translate(4 227)">
<title>Containers</title>
<polygon fill="white" stroke="transparent" points="-4,4 -4,-227 251.5,-227 251.5,4 -4,4"/>
<g id="clust1" class="cluster">
<title>clusterdir_cbaa4243dba62e6c31a85be2a7f37267</title>
<g id="a_clust1"><a xlink:href="dir_cbaa4243dba62e6c31a85be2a7f37267.html" target="_top" xlink:title="OpenCL">
<polygon fill="#ddddee" stroke="black" points="8,-64 8,-215 176,-215 176,-64 8,-64"/>
<text text-anchor="middle" x="92" y="-203" font-family="FreeSans" font-size="10.00">OpenCL</text>
</a>
</g>
</g>
<g id="clust2" class="cluster">
<title>clusterdir_e2fcaed8db8bcf350f433431a993c8b5</title>
<g id="a_clust2"><a xlink:href="dir_e2fcaed8db8bcf350f433431a993c8b5.html" target="_top">
<polygon fill="#eeeeff" stroke="black" points="16,-136 16,-188 168,-188 168,-136 16,-136"/>
</a>
</g>
</g>
<!-- dir_c452024336701c9bf6340e0043ea0543 -->
<g id="node1" class="node">
<title>dir_c452024336701c9bf6340e0043ea0543</title>
<g id="a_node1"><a xlink:href="dir_c452024336701c9bf6340e0043ea0543.html" target="_top" xlink:title="Core">
<polygon fill="white" stroke="red" points="78,-108 24,-108 24,-72 78,-72 78,-108"/>
<text text-anchor="middle" x="51" y="-87.5" font-family="FreeSans" font-size="10.00">Core</text>
</a>
</g>
</g>
<!-- dir_150f406a44a04ce55518da03ec553ece -->
<g id="node4" class="node">
<title>dir_150f406a44a04ce55518da03ec553ece</title>
<g id="a_node4"><a xlink:href="dir_150f406a44a04ce55518da03ec553ece.html" target="_top" xlink:title="Utilities">
<polygon fill="white" stroke="red" points="133,-36 79,-36 79,0 133,0 133,-36"/>
<text text-anchor="middle" x="106" y="-15.5" font-family="FreeSans" font-size="10.00">Utilities</text>
</a>
</g>
</g>
<!-- dir_c452024336701c9bf6340e0043ea0543&#45;&gt;dir_150f406a44a04ce55518da03ec553ece -->
<g id="edge5" class="edge">
<title>dir_c452024336701c9bf6340e0043ea0543&#45;&gt;dir_150f406a44a04ce55518da03ec553ece</title>
<path fill="none" stroke="black" d="M64.6,-71.7C71.12,-63.39 79.07,-53.28 86.25,-44.14"/>
<polygon fill="black" stroke="black" points="89.13,-46.13 92.56,-36.1 83.63,-41.81 89.13,-46.13"/>
<g id="a_edge5&#45;headlabel"><a xlink:href="dir_000082_000086.html" target="_top" xlink:title="1">
<text text-anchor="middle" x="89.15" y="-48.21" font-family="FreeSans" font-size="10.00">1</text>
</a>
</g>
</g>
<!-- dir_e2fcaed8db8bcf350f433431a993c8b5 -->
<g id="node2" class="node">
<title>dir_e2fcaed8db8bcf350f433431a993c8b5</title>
<text text-anchor="middle" x="128" y="-159.5" font-family="FreeSans" font-size="10.00">Containers</text>
</g>
<!-- dir_66e153a47ce5a47edc1d8086d0e3b093 -->
<g id="node3" class="node">
<title>dir_66e153a47ce5a47edc1d8086d0e3b093</title>
<g id="a_node3"><a xlink:href="dir_66e153a47ce5a47edc1d8086d0e3b093.html" target="_top" xlink:title="include">
<polygon fill="white" stroke="black" points="78,-180 24,-180 24,-144 78,-144 78,-180"/>
<text text-anchor="middle" x="51" y="-159.5" font-family="FreeSans" font-size="10.00">include</text>
</a>
</g>
</g>
<!-- dir_66e153a47ce5a47edc1d8086d0e3b093&#45;&gt;dir_c452024336701c9bf6340e0043ea0543 -->
<g id="edge4" class="edge">
<title>dir_66e153a47ce5a47edc1d8086d0e3b093&#45;&gt;dir_c452024336701c9bf6340e0043ea0543</title>
<path fill="none" stroke="black" d="M51,-143.7C51,-135.98 51,-126.71 51,-118.11"/>
<polygon fill="black" stroke="black" points="54.5,-118.1 51,-108.1 47.5,-118.1 54.5,-118.1"/>
<g id="a_edge4&#45;headlabel"><a xlink:href="dir_000133_000082.html" target="_top" xlink:title="1">
<text text-anchor="middle" x="57.34" y="-119.2" font-family="FreeSans" font-size="10.00">1</text>
</a>
</g>
</g>
<!-- dir_66e153a47ce5a47edc1d8086d0e3b093&#45;&gt;dir_150f406a44a04ce55518da03ec553ece -->
<g id="edge2" class="edge">
<title>dir_66e153a47ce5a47edc1d8086d0e3b093&#45;&gt;dir_150f406a44a04ce55518da03ec553ece</title>
<path fill="none" stroke="black" d="M67.9,-143.82C76.49,-134.09 86.29,-121.25 92,-108 100.45,-88.4 103.87,-64.41 105.22,-46.28"/>
<polygon fill="black" stroke="black" points="108.73,-46.28 105.81,-36.1 101.74,-45.88 108.73,-46.28"/>
<g id="a_edge2&#45;headlabel"><a xlink:href="dir_000133_000086.html" target="_top" xlink:title="2">
<text text-anchor="middle" x="111.36" y="-47.53" font-family="FreeSans" font-size="10.00">2</text>
</a>
</g>
</g>
<!-- dir_a06008c3e245d1092ba6894d6caedef2 -->
<g id="node5" class="node">
<title>dir_a06008c3e245d1092ba6894d6caedef2</title>
<g id="a_node5"><a xlink:href="dir_a06008c3e245d1092ba6894d6caedef2.html" target="_top" xlink:title="Containers">
<polygon fill="white" stroke="red" points="247.5,-108 184.5,-108 184.5,-72 247.5,-72 247.5,-108"/>
<text text-anchor="middle" x="216" y="-87.5" font-family="FreeSans" font-size="10.00">Containers</text>
</a>
</g>
</g>
<!-- dir_66e153a47ce5a47edc1d8086d0e3b093&#45;&gt;dir_a06008c3e245d1092ba6894d6caedef2 -->
<g id="edge3" class="edge">
<title>dir_66e153a47ce5a47edc1d8086d0e3b093&#45;&gt;dir_a06008c3e245d1092ba6894d6caedef2</title>
<path fill="none" stroke="black" d="M74.34,-143.93C78.76,-141.08 83.43,-138.3 88,-136 115.77,-122.03 148.93,-110.5 174.54,-102.61"/>
<polygon fill="black" stroke="black" points="175.74,-105.91 184.31,-99.67 173.72,-99.2 175.74,-105.91"/>
<g id="a_edge3&#45;headlabel"><a xlink:href="dir_000133_000096.html" target="_top" xlink:title="1">
<text text-anchor="middle" x="173.12" y="-107.16" font-family="FreeSans" font-size="10.00">1</text>
</a>
</g>
</g>
<!-- dir_a06008c3e245d1092ba6894d6caedef2&#45;&gt;dir_150f406a44a04ce55518da03ec553ece -->
<g id="edge1" class="edge">
<title>dir_a06008c3e245d1092ba6894d6caedef2&#45;&gt;dir_150f406a44a04ce55518da03ec553ece</title>
<path fill="none" stroke="black" d="M189.09,-71.88C174.84,-62.81 157.15,-51.55 141.76,-41.76"/>
<polygon fill="black" stroke="black" points="143.33,-38.61 133.01,-36.19 139.57,-44.51 143.33,-38.61"/>
<g id="a_edge1&#45;headlabel"><a xlink:href="dir_000096_000086.html" target="_top" xlink:title="42">
<text text-anchor="middle" x="147.89" y="-35.64" font-family="FreeSans" font-size="10.00">42</text>
</a>
</g>
</g>
</g>
</svg>
