<?xml version="1.0" encoding="UTF-8" standalone="no"?>
<!DOCTYPE svg PUBLIC "-//W3C//DTD SVG 1.1//EN"
 "http://www.w3.org/Graphics/SVG/1.1/DTD/svg11.dtd">
<!-- Generated by graphviz version 2.43.0 (0)
 -->
<!-- Title: alist Pages: 1 -->
<svg width="182pt" height="231pt"
 viewBox="0.00 0.00 182.00 231.00" xmlns="http://www.w3.org/2000/svg" xmlns:xlink="http://www.w3.org/1999/xlink">
<g id="graph0" class="graph" transform="scale(1 1) rotate(0) translate(4 227)">
<title>alist</title>
<polygon fill="white" stroke="transparent" points="-4,4 -4,-227 178,-227 178,4 -4,4"/>
<g id="clust1" class="cluster">
<title>clusterdir_9de42bc92121356a26b664e34e3ff194</title>
<g id="a_clust1"><a xlink:href="dir_9de42bc92121356a26b664e34e3ff194.html" target="_top" xlink:title="applications">
<polygon fill="#ddddee" stroke="black" points="8,-128 8,-215 166,-215 166,-128 8,-128"/>
<text text-anchor="middle" x="87" y="-203" font-family="FreeSans" font-size="10.00">applications</text>
</a>
</g>
</g>
<g id="clust2" class="cluster">
<title>clusterdir_647fd3f6593fc2e13322700d3061c464</title>
<g id="a_clust2"><a xlink:href="dir_647fd3f6593fc2e13322700d3061c464.html" target="_top">
<polygon fill="#eeeeff" stroke="black" points="16,-136 16,-188 158,-188 158,-136 16,-136"/>
</a>
</g>
</g>
<!-- dir_647fd3f6593fc2e13322700d3061c464 -->
<g id="node1" class="node">
<title>dir_647fd3f6593fc2e13322700d3061c464</title>
<text text-anchor="middle" x="51" y="-159.5" font-family="FreeSans" font-size="10.00">alist</text>
</g>
<!-- dir_637a76a7abf5a01e5c2aa724f3c1e96e -->
<g id="node3" class="node">
<title>dir_637a76a7abf5a01e5c2aa724f3c1e96e</title>
<g id="a_node3"><a xlink:href="dir_637a76a7abf5a01e5c2aa724f3c1e96e.html" target="_top" xlink:title="afio">
<polygon fill="white" stroke="red" points="78,-108 24,-108 24,-72 78,-72 78,-108"/>
<text text-anchor="middle" x="51" y="-87.5" font-family="FreeSans" font-size="10.00">afio</text>
</a>
</g>
</g>
<!-- dir_647fd3f6593fc2e13322700d3061c464&#45;&gt;dir_637a76a7abf5a01e5c2aa724f3c1e96e -->
<g id="edge1" class="edge">
<title>dir_647fd3f6593fc2e13322700d3061c464&#45;&gt;dir_637a76a7abf5a01e5c2aa724f3c1e96e</title>
<path fill="none" stroke="black" d="M51,-143.7C51,-135.98 51,-126.71 51,-118.11"/>
<polygon fill="black" stroke="black" points="54.5,-118.1 51,-108.1 47.5,-118.1 54.5,-118.1"/>
<g id="a_edge1&#45;headlabel"><a xlink:href="dir_000034_000022.html" target="_top" xlink:title="4">
<text text-anchor="middle" x="57.34" y="-119.2" font-family="FreeSans" font-size="10.00">4</text>
</a>
</g>
</g>
<!-- dir_cb2d4e92f47691559fc9d122a5e37fac -->
<g id="node4" class="node">
<title>dir_cb2d4e92f47691559fc9d122a5e37fac</title>
<g id="a_node4"><a xlink:href="dir_cb2d4e92f47691559fc9d122a5e37fac.html" target="_top" xlink:title="mk4util">
<polygon fill="white" stroke="red" points="114,-36 60,-36 60,0 114,0 114,-36"/>
<text text-anchor="middle" x="87" y="-15.5" font-family="FreeSans" font-size="10.00">mk4util</text>
</a>
</g>
</g>
<!-- dir_647fd3f6593fc2e13322700d3061c464&#45;&gt;dir_cb2d4e92f47691559fc9d122a5e37fac -->
<g id="edge2" class="edge">
<title>dir_647fd3f6593fc2e13322700d3061c464&#45;&gt;dir_cb2d4e92f47691559fc9d122a5e37fac</title>
<path fill="none" stroke="black" d="M35.35,-143.9C20.69,-125.7 2.74,-96.25 15,-72 22.7,-56.77 37.06,-44.85 50.94,-36.2"/>
<polygon fill="black" stroke="black" points="53.03,-39.04 59.92,-30.99 49.52,-32.98 53.03,-39.04"/>
<g id="a_edge2&#45;headlabel"><a xlink:href="dir_000034_000014.html" target="_top" xlink:title="6">
<text text-anchor="middle" x="51.35" y="-40.8" font-family="FreeSans" font-size="10.00">6</text>
</a>
</g>
</g>
<!-- dir_db8d68003073a61b7114dbc4f792cfed -->
<g id="node5" class="node">
<title>dir_db8d68003073a61b7114dbc4f792cfed</title>
<g id="a_node5"><a xlink:href="dir_db8d68003073a61b7114dbc4f792cfed.html" target="_top" xlink:title="dfio">
<polygon fill="white" stroke="red" points="150,-108 96,-108 96,-72 150,-72 150,-108"/>
<text text-anchor="middle" x="123" y="-87.5" font-family="FreeSans" font-size="10.00">dfio</text>
</a>
</g>
</g>
<!-- dir_647fd3f6593fc2e13322700d3061c464&#45;&gt;dir_db8d68003073a61b7114dbc4f792cfed -->
<g id="edge3" class="edge">
<title>dir_647fd3f6593fc2e13322700d3061c464&#45;&gt;dir_db8d68003073a61b7114dbc4f792cfed</title>
<path fill="none" stroke="black" d="M68.8,-143.7C77.6,-135.14 88.38,-124.66 98,-115.3"/>
<polygon fill="black" stroke="black" points="100.68,-117.58 105.41,-108.1 95.8,-112.57 100.68,-117.58"/>
<g id="a_edge3&#45;headlabel"><a xlink:href="dir_000034_000024.html" target="_top" xlink:title="2">
<text text-anchor="middle" x="100.08" y="-119.63" font-family="FreeSans" font-size="10.00">2</text>
</a>
</g>
</g>
<!-- dir_e7aa57eed084205074e4a151b0ca7166 -->
<g id="node2" class="node">
<title>dir_e7aa57eed084205074e4a151b0ca7166</title>
<g id="a_node2"><a xlink:href="dir_e7aa57eed084205074e4a151b0ca7166.html" target="_top" xlink:title="src">
<polygon fill="white" stroke="black" points="150,-180 96,-180 96,-144 150,-144 150,-180"/>
<text text-anchor="middle" x="123" y="-159.5" font-family="FreeSans" font-size="10.00">src</text>
</a>
</g>
</g>
<!-- dir_e7aa57eed084205074e4a151b0ca7166&#45;&gt;dir_637a76a7abf5a01e5c2aa724f3c1e96e -->
<g id="edge5" class="edge">
<title>dir_e7aa57eed084205074e4a151b0ca7166&#45;&gt;dir_637a76a7abf5a01e5c2aa724f3c1e96e</title>
<path fill="none" stroke="black" d="M105.2,-143.7C96.4,-135.14 85.62,-124.66 76,-115.3"/>
<polygon fill="black" stroke="black" points="78.2,-112.57 68.59,-108.1 73.32,-117.58 78.2,-112.57"/>
<g id="a_edge5&#45;headlabel"><a xlink:href="dir_000147_000022.html" target="_top" xlink:title="3">
<text text-anchor="middle" x="82.76" y="-110.54" font-family="FreeSans" font-size="10.00">3</text>
</a>
</g>
</g>
<!-- dir_e7aa57eed084205074e4a151b0ca7166&#45;&gt;dir_cb2d4e92f47691559fc9d122a5e37fac -->
<g id="edge6" class="edge">
<title>dir_e7aa57eed084205074e4a151b0ca7166&#45;&gt;dir_cb2d4e92f47691559fc9d122a5e37fac</title>
<path fill="none" stroke="black" d="M138.65,-143.9C153.31,-125.7 171.26,-96.25 159,-72 151.3,-56.77 136.94,-44.85 123.06,-36.2"/>
<polygon fill="black" stroke="black" points="124.48,-32.98 114.08,-30.99 120.97,-39.04 124.48,-32.98"/>
<g id="a_edge6&#45;headlabel"><a xlink:href="dir_000147_000014.html" target="_top" xlink:title="4">
<text text-anchor="middle" x="129.02" y="-29.83" font-family="FreeSans" font-size="10.00">4</text>
</a>
</g>
</g>
<!-- dir_e7aa57eed084205074e4a151b0ca7166&#45;&gt;dir_db8d68003073a61b7114dbc4f792cfed -->
<g id="edge7" class="edge">
<title>dir_e7aa57eed084205074e4a151b0ca7166&#45;&gt;dir_db8d68003073a61b7114dbc4f792cfed</title>
<path fill="none" stroke="black" d="M123,-143.7C123,-135.98 123,-126.71 123,-118.11"/>
<polygon fill="black" stroke="black" points="126.5,-118.1 123,-108.1 119.5,-118.1 126.5,-118.1"/>
<g id="a_edge7&#45;headlabel"><a xlink:href="dir_000147_000024.html" target="_top" xlink:title="1">
<text text-anchor="middle" x="129.34" y="-119.2" font-family="FreeSans" font-size="10.00">1</text>
</a>
</g>
</g>
<!-- dir_637a76a7abf5a01e5c2aa724f3c1e96e&#45;&gt;dir_cb2d4e92f47691559fc9d122a5e37fac -->
<g id="edge4" class="edge">
<title>dir_637a76a7abf5a01e5c2aa724f3c1e96e&#45;&gt;dir_cb2d4e92f47691559fc9d122a5e37fac</title>
<path fill="none" stroke="black" d="M59.9,-71.7C64,-63.73 68.95,-54.1 73.49,-45.26"/>
<polygon fill="black" stroke="black" points="76.74,-46.6 78.2,-36.1 70.52,-43.4 76.74,-46.6"/>
<g id="a_edge4&#45;headlabel"><a xlink:href="dir_000022_000014.html" target="_top" xlink:title="17">
<text text-anchor="middle" x="77.62" y="-48.59" font-family="FreeSans" font-size="10.00">17</text>
</a>
</g>
</g>
<!-- dir_db8d68003073a61b7114dbc4f792cfed&#45;&gt;dir_cb2d4e92f47691559fc9d122a5e37fac -->
<g id="edge8" class="edge">
<title>dir_db8d68003073a61b7114dbc4f792cfed&#45;&gt;dir_cb2d4e92f47691559fc9d122a5e37fac</title>
<path fill="none" stroke="black" d="M114.1,-71.7C110,-63.73 105.05,-54.1 100.51,-45.26"/>
<polygon fill="black" stroke="black" points="103.48,-43.4 95.8,-36.1 97.26,-46.6 103.48,-43.4"/>
<g id="a_edge8&#45;headlabel"><a xlink:href="dir_000024_000014.html" target="_top" xlink:title="117">
<text text-anchor="middle" x="107.65" y="-42.79" font-family="FreeSans" font-size="10.00">117</text>
</a>
</g>
</g>
</g>
</svg>
