<?xml version="1.0" encoding="UTF-8" standalone="no"?>
<!DOCTYPE svg PUBLIC "-//W3C//DTD SVG 1.1//EN"
 "http://www.w3.org/Graphics/SVG/1.1/DTD/svg11.dtd">
<!-- Generated by graphviz version 2.43.0 (0)
 -->
<!-- Title: src Pages: 1 -->
<svg width="143pt" height="295pt"
 viewBox="0.00 0.00 143.00 295.00" xmlns="http://www.w3.org/2000/svg" xmlns:xlink="http://www.w3.org/1999/xlink">
<g id="graph0" class="graph" transform="scale(1 1) rotate(0) translate(4 291)">
<title>src</title>
<polygon fill="white" stroke="transparent" points="-4,4 -4,-291 139,-291 139,4 -4,4"/>
<g id="clust1" class="cluster">
<title>clusterdir_db8d68003073a61b7114dbc4f792cfed</title>
<g id="a_clust1"><a xlink:href="dir_db8d68003073a61b7114dbc4f792cfed.html" target="_top" xlink:title="dfio">
<polygon fill="#ddddee" stroke="black" points="8,-136 8,-279 78,-279 78,-136 8,-136"/>
<text text-anchor="middle" x="43" y="-267" font-family="FreeSans" font-size="10.00">dfio</text>
</a>
</g>
</g>
<!-- dir_1097bab461db3cabf6b4d0edd41657df -->
<g id="node1" class="node">
<title>dir_1097bab461db3cabf6b4d0edd41657df</title>
<g id="a_node1"><a xlink:href="dir_1097bab461db3cabf6b4d0edd41657df.html" target="_top" xlink:title="include">
<polygon fill="none" stroke="black" points="70,-180 16,-180 16,-144 70,-144 70,-180"/>
<text text-anchor="middle" x="43" y="-159.5" font-family="FreeSans" font-size="10.00">include</text>
</a>
</g>
</g>
<!-- dir_cb2d4e92f47691559fc9d122a5e37fac -->
<g id="node4" class="node">
<title>dir_cb2d4e92f47691559fc9d122a5e37fac</title>
<g id="a_node4"><a xlink:href="dir_cb2d4e92f47691559fc9d122a5e37fac.html" target="_top" xlink:title="mk4util">
<polygon fill="white" stroke="red" points="108,-108 54,-108 54,-72 108,-72 108,-108"/>
<text text-anchor="middle" x="81" y="-87.5" font-family="FreeSans" font-size="10.00">mk4util</text>
</a>
</g>
</g>
<!-- dir_1097bab461db3cabf6b4d0edd41657df&#45;&gt;dir_cb2d4e92f47691559fc9d122a5e37fac -->
<g id="edge2" class="edge">
<title>dir_1097bab461db3cabf6b4d0edd41657df&#45;&gt;dir_cb2d4e92f47691559fc9d122a5e37fac</title>
<path fill="none" stroke="black" d="M52.39,-143.7C56.76,-135.64 62.06,-125.89 66.9,-116.98"/>
<polygon fill="black" stroke="black" points="70.02,-118.56 71.71,-108.1 63.87,-115.22 70.02,-118.56"/>
<g id="a_edge2&#45;headlabel"><a xlink:href="dir_000046_000014.html" target="_top" xlink:title="26">
<text text-anchor="middle" x="70.8" y="-120.58" font-family="FreeSans" font-size="10.00">26</text>
</a>
</g>
</g>
<!-- dir_d4c47169bf54d66b23c38e09f7a054c0 -->
<g id="node2" class="node">
<title>dir_d4c47169bf54d66b23c38e09f7a054c0</title>
<g id="a_node2"><a xlink:href="dir_d4c47169bf54d66b23c38e09f7a054c0.html" target="_top" xlink:title="src">
<polygon fill="#eeeeff" stroke="black" points="70,-252 16,-252 16,-216 70,-216 70,-252"/>
<text text-anchor="middle" x="43" y="-231.5" font-family="FreeSans" font-size="10.00">src</text>
</a>
</g>
</g>
<!-- dir_d4c47169bf54d66b23c38e09f7a054c0&#45;&gt;dir_1097bab461db3cabf6b4d0edd41657df -->
<g id="edge3" class="edge">
<title>dir_d4c47169bf54d66b23c38e09f7a054c0&#45;&gt;dir_1097bab461db3cabf6b4d0edd41657df</title>
<path fill="none" stroke="black" d="M43,-215.7C43,-207.98 43,-198.71 43,-190.11"/>
<polygon fill="black" stroke="black" points="46.5,-190.1 43,-180.1 39.5,-190.1 46.5,-190.1"/>
<g id="a_edge3&#45;headlabel"><a xlink:href="dir_000025_000046.html" target="_top" xlink:title="260">
<text text-anchor="middle" x="49.34" y="-191.2" font-family="FreeSans" font-size="10.00">260</text>
</a>
</g>
</g>
<!-- dir_758df28fbdbb54fb46d6d3d6484a4984 -->
<g id="node3" class="node">
<title>dir_758df28fbdbb54fb46d6d3d6484a4984</title>
<g id="a_node3"><a xlink:href="dir_758df28fbdbb54fb46d6d3d6484a4984.html" target="_top" xlink:title="msg">
<polygon fill="white" stroke="red" points="135,-36 81,-36 81,0 135,0 135,-36"/>
<text text-anchor="middle" x="108" y="-15.5" font-family="FreeSans" font-size="10.00">msg</text>
</a>
</g>
</g>
<!-- dir_d4c47169bf54d66b23c38e09f7a054c0&#45;&gt;dir_758df28fbdbb54fb46d6d3d6484a4984 -->
<g id="edge4" class="edge">
<title>dir_d4c47169bf54d66b23c38e09f7a054c0&#45;&gt;dir_758df28fbdbb54fb46d6d3d6484a4984</title>
<path fill="none" stroke="black" d="M63.96,-215.98C74.58,-206.4 86.9,-193.63 95,-180 120.03,-137.89 121.12,-120.81 117,-72 116.28,-63.5 114.93,-54.31 113.49,-46.01"/>
<polygon fill="black" stroke="black" points="116.91,-45.29 111.65,-36.09 110.03,-46.56 116.91,-45.29"/>
<g id="a_edge4&#45;headlabel"><a xlink:href="dir_000025_000144.html" target="_top" xlink:title="1">
<text text-anchor="middle" x="120.36" y="-45.81" font-family="FreeSans" font-size="10.00">1</text>
</a>
</g>
</g>
<!-- dir_d4c47169bf54d66b23c38e09f7a054c0&#45;&gt;dir_cb2d4e92f47691559fc9d122a5e37fac -->
<g id="edge5" class="edge">
<title>dir_d4c47169bf54d66b23c38e09f7a054c0&#45;&gt;dir_cb2d4e92f47691559fc9d122a5e37fac</title>
<path fill="none" stroke="black" d="M58.49,-215.74C66.22,-205.98 74.8,-193.14 79,-180 85.39,-160.04 85.57,-136.25 84.33,-118.29"/>
<polygon fill="black" stroke="black" points="87.8,-117.86 83.44,-108.2 80.83,-118.47 87.8,-117.86"/>
<g id="a_edge5&#45;headlabel"><a xlink:href="dir_000025_000014.html" target="_top" xlink:title="91">
<text text-anchor="middle" x="90.94" y="-118.69" font-family="FreeSans" font-size="10.00">91</text>
</a>
</g>
</g>
<!-- dir_cb2d4e92f47691559fc9d122a5e37fac&#45;&gt;dir_758df28fbdbb54fb46d6d3d6484a4984 -->
<g id="edge1" class="edge">
<title>dir_cb2d4e92f47691559fc9d122a5e37fac&#45;&gt;dir_758df28fbdbb54fb46d6d3d6484a4984</title>
<path fill="none" stroke="black" d="M87.67,-71.7C90.71,-63.81 94.38,-54.3 97.76,-45.55"/>
<polygon fill="black" stroke="black" points="101.07,-46.69 101.4,-36.1 94.54,-44.17 101.07,-46.69"/>
<g id="a_edge1&#45;headlabel"><a xlink:href="dir_000014_000144.html" target="_top" xlink:title="3">
<text text-anchor="middle" x="102.42" y="-48.57" font-family="FreeSans" font-size="10.00">3</text>
</a>
</g>
</g>
</g>
</svg>
