<?xml version="1.0" encoding="UTF-8" standalone="no"?>
<!DOCTYPE svg PUBLIC "-//W3C//DTD SVG 1.1//EN"
 "http://www.w3.org/Graphics/SVG/1.1/DTD/svg11.dtd">
<!-- Generated by graphviz version 2.43.0 (0)
 -->
<!-- Title: src Pages: 1 -->
<svg width="454pt" height="511pt"
 viewBox="0.00 0.00 454.00 511.00" xmlns="http://www.w3.org/2000/svg" xmlns:xlink="http://www.w3.org/1999/xlink">
<g id="graph0" class="graph" transform="scale(1 1) rotate(0) translate(4 507)">
<title>src</title>
<polygon fill="white" stroke="transparent" points="-4,4 -4,-507 450,-507 450,4 -4,4"/>
<g id="clust1" class="cluster">
<title>clusterdir_86b85e15943ea3cbc40c546f382f4970</title>
<g id="a_clust1"><a xlink:href="dir_86b85e15943ea3cbc40c546f382f4970.html" target="_top" xlink:title="ffsearch">
<polygon fill="#ddddee" stroke="black" points="265,-352 265,-495 335,-495 335,-352 265,-352"/>
<text text-anchor="middle" x="300" y="-483" font-family="FreeSans" font-size="10.00">ffsearch</text>
</a>
</g>
</g>
<!-- dir_57f445dd524d26a2684c85cbf39324f0 -->
<g id="node1" class="node">
<title>dir_57f445dd524d26a2684c85cbf39324f0</title>
<g id="a_node1"><a xlink:href="dir_57f445dd524d26a2684c85cbf39324f0.html" target="_top" xlink:title="include">
<polygon fill="none" stroke="black" points="327,-396 273,-396 273,-360 327,-360 327,-396"/>
<text text-anchor="middle" x="300" y="-375.5" font-family="FreeSans" font-size="10.00">include</text>
</a>
</g>
</g>
<!-- dir_0908837483934fe24781ea7898fec311 -->
<g id="node3" class="node">
<title>dir_0908837483934fe24781ea7898fec311</title>
<g id="a_node3"><a xlink:href="dir_0908837483934fe24781ea7898fec311.html" target="_top" xlink:title="ffcore">
<polygon fill="white" stroke="red" points="217,-324 163,-324 163,-288 217,-288 217,-324"/>
<text text-anchor="middle" x="190" y="-303.5" font-family="FreeSans" font-size="10.00">ffcore</text>
</a>
</g>
</g>
<!-- dir_57f445dd524d26a2684c85cbf39324f0&#45;&gt;dir_0908837483934fe24781ea7898fec311 -->
<g id="edge5" class="edge">
<title>dir_57f445dd524d26a2684c85cbf39324f0&#45;&gt;dir_0908837483934fe24781ea7898fec311</title>
<path fill="none" stroke="black" d="M273.09,-359.88C258.84,-350.81 241.15,-339.55 225.76,-329.76"/>
<polygon fill="black" stroke="black" points="227.33,-326.61 217.01,-324.19 223.57,-332.51 227.33,-326.61"/>
<g id="a_edge5&#45;headlabel"><a xlink:href="dir_000029_000047.html" target="_top" xlink:title="1">
<text text-anchor="middle" x="231.89" y="-323.64" font-family="FreeSans" font-size="10.00">1</text>
</a>
</g>
</g>
<!-- dir_64078e4dd55db1ba2b4e557207803e4b -->
<g id="node4" class="node">
<title>dir_64078e4dd55db1ba2b4e557207803e4b</title>
<g id="a_node4"><a xlink:href="dir_64078e4dd55db1ba2b4e557207803e4b.html" target="_top" xlink:title="vex">
<polygon fill="white" stroke="red" points="306,-252 252,-252 252,-216 306,-216 306,-252"/>
<text text-anchor="middle" x="279" y="-231.5" font-family="FreeSans" font-size="10.00">vex</text>
</a>
</g>
</g>
<!-- dir_57f445dd524d26a2684c85cbf39324f0&#45;&gt;dir_64078e4dd55db1ba2b4e557207803e4b -->
<g id="edge6" class="edge">
<title>dir_57f445dd524d26a2684c85cbf39324f0&#45;&gt;dir_64078e4dd55db1ba2b4e557207803e4b</title>
<path fill="none" stroke="black" d="M297.47,-359.87C293.89,-335.67 287.31,-291.21 283.05,-262.39"/>
<polygon fill="black" stroke="black" points="286.47,-261.57 281.54,-252.19 279.54,-262.59 286.47,-261.57"/>
<g id="a_edge6&#45;headlabel"><a xlink:href="dir_000029_000044.html" target="_top" xlink:title="1">
<text text-anchor="middle" x="289.8" y="-262.21" font-family="FreeSans" font-size="10.00">1</text>
</a>
</g>
</g>
<!-- dir_cb2d4e92f47691559fc9d122a5e37fac -->
<g id="node7" class="node">
<title>dir_cb2d4e92f47691559fc9d122a5e37fac</title>
<g id="a_node7"><a xlink:href="dir_cb2d4e92f47691559fc9d122a5e37fac.html" target="_top" xlink:title="mk4util">
<polygon fill="white" stroke="red" points="321,-108 267,-108 267,-72 321,-72 321,-108"/>
<text text-anchor="middle" x="294" y="-87.5" font-family="FreeSans" font-size="10.00">mk4util</text>
</a>
</g>
</g>
<!-- dir_57f445dd524d26a2684c85cbf39324f0&#45;&gt;dir_cb2d4e92f47691559fc9d122a5e37fac -->
<g id="edge7" class="edge">
<title>dir_57f445dd524d26a2684c85cbf39324f0&#45;&gt;dir_cb2d4e92f47691559fc9d122a5e37fac</title>
<path fill="none" stroke="black" d="M303.63,-359.62C309.35,-330.11 319.36,-268.31 315,-216 312.17,-182.04 305.08,-143.42 299.92,-118.21"/>
<polygon fill="black" stroke="black" points="303.31,-117.35 297.84,-108.28 296.46,-118.78 303.31,-117.35"/>
<g id="a_edge7&#45;headlabel"><a xlink:href="dir_000029_000014.html" target="_top" xlink:title="1">
<text text-anchor="middle" x="306.83" y="-117.79" font-family="FreeSans" font-size="10.00">1</text>
</a>
</g>
</g>
<!-- dir_4798519f28252f1be025a68649c773ad -->
<g id="node2" class="node">
<title>dir_4798519f28252f1be025a68649c773ad</title>
<g id="a_node2"><a xlink:href="dir_4798519f28252f1be025a68649c773ad.html" target="_top" xlink:title="src">
<polygon fill="#eeeeff" stroke="black" points="327,-468 273,-468 273,-432 327,-432 327,-468"/>
<text text-anchor="middle" x="300" y="-447.5" font-family="FreeSans" font-size="10.00">src</text>
</a>
</g>
</g>
<!-- dir_4798519f28252f1be025a68649c773ad&#45;&gt;dir_57f445dd524d26a2684c85cbf39324f0 -->
<g id="edge20" class="edge">
<title>dir_4798519f28252f1be025a68649c773ad&#45;&gt;dir_57f445dd524d26a2684c85cbf39324f0</title>
<path fill="none" stroke="black" d="M300,-431.7C300,-423.98 300,-414.71 300,-406.11"/>
<polygon fill="black" stroke="black" points="303.5,-406.1 300,-396.1 296.5,-406.1 303.5,-406.1"/>
<g id="a_edge20&#45;headlabel"><a xlink:href="dir_000028_000029.html" target="_top" xlink:title="13">
<text text-anchor="middle" x="306.34" y="-407.2" font-family="FreeSans" font-size="10.00">13</text>
</a>
</g>
</g>
<!-- dir_4798519f28252f1be025a68649c773ad&#45;&gt;dir_0908837483934fe24781ea7898fec311 -->
<g id="edge19" class="edge">
<title>dir_4798519f28252f1be025a68649c773ad&#45;&gt;dir_0908837483934fe24781ea7898fec311</title>
<path fill="none" stroke="black" d="M272.87,-432.71C258.97,-423.32 242.59,-410.52 231,-396 216.13,-377.38 205.26,-352.49 198.46,-333.77"/>
<polygon fill="black" stroke="black" points="201.69,-332.39 195.11,-324.08 195.07,-334.68 201.69,-332.39"/>
<g id="a_edge19&#45;headlabel"><a xlink:href="dir_000028_000047.html" target="_top" xlink:title="62">
<text text-anchor="middle" x="205.55" y="-332.35" font-family="FreeSans" font-size="10.00">62</text>
</a>
</g>
</g>
<!-- dir_4798519f28252f1be025a68649c773ad&#45;&gt;dir_64078e4dd55db1ba2b4e557207803e4b -->
<g id="edge21" class="edge">
<title>dir_4798519f28252f1be025a68649c773ad&#45;&gt;dir_64078e4dd55db1ba2b4e557207803e4b</title>
<path fill="none" stroke="black" d="M284.39,-431.77C276.63,-422.03 268.05,-409.18 264,-396 250,-350.48 261.14,-294.59 270.25,-262.06"/>
<polygon fill="black" stroke="black" points="273.64,-262.95 273.1,-252.37 266.92,-260.97 273.64,-262.95"/>
<g id="a_edge21&#45;headlabel"><a xlink:href="dir_000028_000044.html" target="_top" xlink:title="4">
<text text-anchor="middle" x="275.35" y="-264.7" font-family="FreeSans" font-size="10.00">4</text>
</a>
</g>
</g>
<!-- dir_758df28fbdbb54fb46d6d3d6484a4984 -->
<g id="node5" class="node">
<title>dir_758df28fbdbb54fb46d6d3d6484a4984</title>
<g id="a_node5"><a xlink:href="dir_758df28fbdbb54fb46d6d3d6484a4984.html" target="_top" xlink:title="msg">
<polygon fill="white" stroke="red" points="207,-36 153,-36 153,0 207,0 207,-36"/>
<text text-anchor="middle" x="180" y="-15.5" font-family="FreeSans" font-size="10.00">msg</text>
</a>
</g>
</g>
<!-- dir_4798519f28252f1be025a68649c773ad&#45;&gt;dir_758df28fbdbb54fb46d6d3d6484a4984 -->
<g id="edge22" class="edge">
<title>dir_4798519f28252f1be025a68649c773ad&#45;&gt;dir_758df28fbdbb54fb46d6d3d6484a4984</title>
<path fill="none" stroke="black" d="M272.85,-448.56C199,-445.78 0,-427.14 0,-307 0,-307 0,-307 0,-161 0,-88.83 90.29,-47.66 142.98,-29.78"/>
<polygon fill="black" stroke="black" points="144.25,-33.05 152.66,-26.61 142.07,-26.39 144.25,-33.05"/>
<g id="a_edge22&#45;headlabel"><a xlink:href="dir_000028_000144.html" target="_top" xlink:title="28">
<text text-anchor="middle" x="141.71" y="-34.36" font-family="FreeSans" font-size="10.00">28</text>
</a>
</g>
</g>
<!-- dir_85c02f264b7a99962a0503cb6605bebc -->
<g id="node6" class="node">
<title>dir_85c02f264b7a99962a0503cb6605bebc</title>
<g id="a_node6"><a xlink:href="dir_85c02f264b7a99962a0503cb6605bebc.html" target="_top" xlink:title="ffmath">
<polygon fill="white" stroke="red" points="82,-252 28,-252 28,-216 82,-216 82,-252"/>
<text text-anchor="middle" x="55" y="-231.5" font-family="FreeSans" font-size="10.00">ffmath</text>
</a>
</g>
</g>
<!-- dir_4798519f28252f1be025a68649c773ad&#45;&gt;dir_85c02f264b7a99962a0503cb6605bebc -->
<g id="edge23" class="edge">
<title>dir_4798519f28252f1be025a68649c773ad&#45;&gt;dir_85c02f264b7a99962a0503cb6605bebc</title>
<path fill="none" stroke="black" d="M272.77,-445.39C223.14,-438.26 120.78,-420.9 96,-396 60.32,-360.15 54.28,-297.87 54.02,-262.19"/>
<polygon fill="black" stroke="black" points="57.52,-262.06 54.1,-252.03 50.52,-262 57.52,-262.06"/>
<g id="a_edge23&#45;headlabel"><a xlink:href="dir_000028_000037.html" target="_top" xlink:title="3">
<text text-anchor="middle" x="60.33" y="-263.17" font-family="FreeSans" font-size="10.00">3</text>
</a>
</g>
</g>
<!-- dir_4798519f28252f1be025a68649c773ad&#45;&gt;dir_cb2d4e92f47691559fc9d122a5e37fac -->
<g id="edge24" class="edge">
<title>dir_4798519f28252f1be025a68649c773ad&#45;&gt;dir_cb2d4e92f47691559fc9d122a5e37fac</title>
<path fill="none" stroke="black" d="M327.12,-437.55C369.34,-417.68 446,-372.59 446,-307 446,-307 446,-307 446,-233 446,-169.95 375.31,-126.86 330.34,-105.82"/>
<polygon fill="black" stroke="black" points="331.73,-102.61 321.17,-101.67 328.84,-108.98 331.73,-102.61"/>
<g id="a_edge24&#45;headlabel"><a xlink:href="dir_000028_000014.html" target="_top" xlink:title="20">
<text text-anchor="middle" x="336.17" y="-99" font-family="FreeSans" font-size="10.00">20</text>
</a>
</g>
</g>
<!-- dir_db8d68003073a61b7114dbc4f792cfed -->
<g id="node8" class="node">
<title>dir_db8d68003073a61b7114dbc4f792cfed</title>
<g id="a_node8"><a xlink:href="dir_db8d68003073a61b7114dbc4f792cfed.html" target="_top" xlink:title="dfio">
<polygon fill="white" stroke="red" points="152,-180 98,-180 98,-144 152,-144 152,-180"/>
<text text-anchor="middle" x="125" y="-159.5" font-family="FreeSans" font-size="10.00">dfio</text>
</a>
</g>
</g>
<!-- dir_4798519f28252f1be025a68649c773ad&#45;&gt;dir_db8d68003073a61b7114dbc4f792cfed -->
<g id="edge25" class="edge">
<title>dir_4798519f28252f1be025a68649c773ad&#45;&gt;dir_db8d68003073a61b7114dbc4f792cfed</title>
<path fill="none" stroke="black" d="M272.93,-438.89C251.63,-429.97 222.12,-415.37 201,-396 141.23,-341.2 128.33,-238.86 125.64,-190.13"/>
<polygon fill="black" stroke="black" points="129.13,-189.87 125.19,-180.04 122.14,-190.19 129.13,-189.87"/>
<g id="a_edge25&#45;headlabel"><a xlink:href="dir_000028_000024.html" target="_top" xlink:title="25">
<text text-anchor="middle" x="132.13" y="-190.84" font-family="FreeSans" font-size="10.00">25</text>
</a>
</g>
</g>
<!-- dir_f79eaa419c9665ed0522066c5c6851c4 -->
<g id="node9" class="node">
<title>dir_f79eaa419c9665ed0522066c5c6851c4</title>
<g id="a_node9"><a xlink:href="dir_f79eaa419c9665ed0522066c5c6851c4.html" target="_top" xlink:title="ffcontrol">
<polygon fill="white" stroke="red" points="416,-252 362,-252 362,-216 416,-216 416,-252"/>
<text text-anchor="middle" x="389" y="-231.5" font-family="FreeSans" font-size="10.00">ffcontrol</text>
</a>
</g>
</g>
<!-- dir_4798519f28252f1be025a68649c773ad&#45;&gt;dir_f79eaa419c9665ed0522066c5c6851c4 -->
<g id="edge26" class="edge">
<title>dir_4798519f28252f1be025a68649c773ad&#45;&gt;dir_f79eaa419c9665ed0522066c5c6851c4</title>
<path fill="none" stroke="black" d="M313.63,-431.61C320.99,-421.61 329.81,-408.58 336,-396 358.16,-350.97 374.32,-294.49 382.63,-261.79"/>
<polygon fill="black" stroke="black" points="386.04,-262.61 385.06,-252.06 379.24,-260.92 386.04,-262.61"/>
<g id="a_edge26&#45;headlabel"><a xlink:href="dir_000028_000054.html" target="_top" xlink:title="11">
<text text-anchor="middle" x="387.92" y="-264.28" font-family="FreeSans" font-size="10.00">11</text>
</a>
</g>
</g>
<!-- dir_0908837483934fe24781ea7898fec311&#45;&gt;dir_64078e4dd55db1ba2b4e557207803e4b -->
<g id="edge14" class="edge">
<title>dir_0908837483934fe24781ea7898fec311&#45;&gt;dir_64078e4dd55db1ba2b4e557207803e4b</title>
<path fill="none" stroke="black" d="M212,-287.7C223.21,-278.88 237,-268.03 249.15,-258.47"/>
<polygon fill="black" stroke="black" points="251.56,-261.04 257.25,-252.1 247.23,-255.54 251.56,-261.04"/>
<g id="a_edge14&#45;headlabel"><a xlink:href="dir_000047_000044.html" target="_top" xlink:title="7">
<text text-anchor="middle" x="250.49" y="-262.99" font-family="FreeSans" font-size="10.00">7</text>
</a>
</g>
</g>
<!-- dir_0908837483934fe24781ea7898fec311&#45;&gt;dir_758df28fbdbb54fb46d6d3d6484a4984 -->
<g id="edge13" class="edge">
<title>dir_0908837483934fe24781ea7898fec311&#45;&gt;dir_758df28fbdbb54fb46d6d3d6484a4984</title>
<path fill="none" stroke="black" d="M189.4,-287.97C187.74,-240.29 183.01,-105.18 180.97,-46.63"/>
<polygon fill="black" stroke="black" points="184.45,-46.18 180.61,-36.31 177.46,-46.42 184.45,-46.18"/>
<g id="a_edge13&#45;headlabel"><a xlink:href="dir_000047_000144.html" target="_top" xlink:title="18">
<text text-anchor="middle" x="187.42" y="-47.17" font-family="FreeSans" font-size="10.00">18</text>
</a>
</g>
</g>
<!-- dir_0908837483934fe24781ea7898fec311&#45;&gt;dir_85c02f264b7a99962a0503cb6605bebc -->
<g id="edge15" class="edge">
<title>dir_0908837483934fe24781ea7898fec311&#45;&gt;dir_85c02f264b7a99962a0503cb6605bebc</title>
<path fill="none" stroke="black" d="M162.68,-290.83C142.1,-280.16 113.67,-265.42 91.19,-253.77"/>
<polygon fill="black" stroke="black" points="92.77,-250.64 82.28,-249.14 89.55,-256.85 92.77,-250.64"/>
<g id="a_edge15&#45;headlabel"><a xlink:href="dir_000047_000037.html" target="_top" xlink:title="2">
<text text-anchor="middle" x="97.27" y="-247.27" font-family="FreeSans" font-size="10.00">2</text>
</a>
</g>
</g>
<!-- dir_0908837483934fe24781ea7898fec311&#45;&gt;dir_cb2d4e92f47691559fc9d122a5e37fac -->
<g id="edge10" class="edge">
<title>dir_0908837483934fe24781ea7898fec311&#45;&gt;dir_cb2d4e92f47691559fc9d122a5e37fac</title>
<path fill="none" stroke="black" d="M198.33,-287.85C216.48,-250.52 259.64,-161.69 281.24,-117.26"/>
<polygon fill="black" stroke="black" points="284.4,-118.76 285.63,-108.23 278.11,-115.7 284.4,-118.76"/>
<g id="a_edge10&#45;headlabel"><a xlink:href="dir_000047_000014.html" target="_top" xlink:title="19">
<text text-anchor="middle" x="285.38" y="-120.73" font-family="FreeSans" font-size="10.00">19</text>
</a>
</g>
</g>
<!-- dir_0908837483934fe24781ea7898fec311&#45;&gt;dir_db8d68003073a61b7114dbc4f792cfed -->
<g id="edge12" class="edge">
<title>dir_0908837483934fe24781ea7898fec311&#45;&gt;dir_db8d68003073a61b7114dbc4f792cfed</title>
<path fill="none" stroke="black" d="M182.16,-287.87C170.98,-263.46 150.37,-218.43 137.19,-189.64"/>
<polygon fill="black" stroke="black" points="140.21,-187.83 132.87,-180.19 133.85,-190.74 140.21,-187.83"/>
<g id="a_edge12&#45;headlabel"><a xlink:href="dir_000047_000024.html" target="_top" xlink:title="20">
<text text-anchor="middle" x="144.29" y="-187.41" font-family="FreeSans" font-size="10.00">20</text>
</a>
</g>
</g>
<!-- dir_0908837483934fe24781ea7898fec311&#45;&gt;dir_f79eaa419c9665ed0522066c5c6851c4 -->
<g id="edge11" class="edge">
<title>dir_0908837483934fe24781ea7898fec311&#45;&gt;dir_f79eaa419c9665ed0522066c5c6851c4</title>
<path fill="none" stroke="black" d="M217.25,-295.41C252.29,-283.09 313.24,-261.65 352.32,-247.9"/>
<polygon fill="black" stroke="black" points="353.49,-251.2 361.76,-244.58 351.16,-244.6 353.49,-251.2"/>
<g id="a_edge11&#45;headlabel"><a xlink:href="dir_000047_000054.html" target="_top" xlink:title="13">
<text text-anchor="middle" x="351.04" y="-252.57" font-family="FreeSans" font-size="10.00">13</text>
</a>
</g>
</g>
<!-- dir_64078e4dd55db1ba2b4e557207803e4b&#45;&gt;dir_758df28fbdbb54fb46d6d3d6484a4984 -->
<g id="edge1" class="edge">
<title>dir_64078e4dd55db1ba2b4e557207803e4b&#45;&gt;dir_758df28fbdbb54fb46d6d3d6484a4984</title>
<path fill="none" stroke="black" d="M271.07,-215.85C253.83,-178.6 212.88,-90.07 192.28,-45.54"/>
<polygon fill="black" stroke="black" points="195.35,-43.84 187.97,-36.23 188.99,-46.78 195.35,-43.84"/>
<g id="a_edge1&#45;headlabel"><a xlink:href="dir_000044_000144.html" target="_top" xlink:title="1">
<text text-anchor="middle" x="199.43" y="-43.41" font-family="FreeSans" font-size="10.00">1</text>
</a>
</g>
</g>
<!-- dir_64078e4dd55db1ba2b4e557207803e4b&#45;&gt;dir_cb2d4e92f47691559fc9d122a5e37fac -->
<g id="edge2" class="edge">
<title>dir_64078e4dd55db1ba2b4e557207803e4b&#45;&gt;dir_cb2d4e92f47691559fc9d122a5e37fac</title>
<path fill="none" stroke="black" d="M280.81,-215.87C283.37,-191.67 288.06,-147.21 291.11,-118.39"/>
<polygon fill="black" stroke="black" points="294.61,-118.5 292.18,-108.19 287.65,-117.77 294.61,-118.5"/>
<g id="a_edge2&#45;headlabel"><a xlink:href="dir_000044_000014.html" target="_top" xlink:title="76">
<text text-anchor="middle" x="297.06" y="-119.87" font-family="FreeSans" font-size="10.00">76</text>
</a>
</g>
</g>
<!-- dir_85c02f264b7a99962a0503cb6605bebc&#45;&gt;dir_758df28fbdbb54fb46d6d3d6484a4984 -->
<g id="edge9" class="edge">
<title>dir_85c02f264b7a99962a0503cb6605bebc&#45;&gt;dir_758df28fbdbb54fb46d6d3d6484a4984</title>
<path fill="none" stroke="black" d="M60.13,-215.69C65.91,-197.32 76.19,-167.72 89,-144 107.76,-109.27 117.75,-103.9 141,-72 147.56,-63 154.78,-53.17 161.21,-44.44"/>
<polygon fill="black" stroke="black" points="164.2,-46.28 167.32,-36.16 158.56,-42.13 164.2,-46.28"/>
<g id="a_edge9&#45;headlabel"><a xlink:href="dir_000037_000144.html" target="_top" xlink:title="3">
<text text-anchor="middle" x="164.35" y="-48.36" font-family="FreeSans" font-size="10.00">3</text>
</a>
</g>
</g>
<!-- dir_85c02f264b7a99962a0503cb6605bebc&#45;&gt;dir_db8d68003073a61b7114dbc4f792cfed -->
<g id="edge8" class="edge">
<title>dir_85c02f264b7a99962a0503cb6605bebc&#45;&gt;dir_db8d68003073a61b7114dbc4f792cfed</title>
<path fill="none" stroke="black" d="M72.3,-215.7C80.86,-207.14 91.34,-196.66 100.7,-187.3"/>
<polygon fill="black" stroke="black" points="103.3,-189.65 107.9,-180.1 98.35,-184.7 103.3,-189.65"/>
<g id="a_edge8&#45;headlabel"><a xlink:href="dir_000037_000024.html" target="_top" xlink:title="1">
<text text-anchor="middle" x="102.77" y="-191.7" font-family="FreeSans" font-size="10.00">1</text>
</a>
</g>
</g>
<!-- dir_cb2d4e92f47691559fc9d122a5e37fac&#45;&gt;dir_758df28fbdbb54fb46d6d3d6484a4984 -->
<g id="edge16" class="edge">
<title>dir_cb2d4e92f47691559fc9d122a5e37fac&#45;&gt;dir_758df28fbdbb54fb46d6d3d6484a4984</title>
<path fill="none" stroke="black" d="M266.98,-72.41C251.76,-63.06 232.55,-51.27 216.06,-41.14"/>
<polygon fill="black" stroke="black" points="217.57,-37.96 207.22,-35.71 213.91,-43.93 217.57,-37.96"/>
<g id="a_edge16&#45;headlabel"><a xlink:href="dir_000014_000144.html" target="_top" xlink:title="3">
<text text-anchor="middle" x="222.12" y="-34.92" font-family="FreeSans" font-size="10.00">3</text>
</a>
</g>
</g>
<!-- dir_db8d68003073a61b7114dbc4f792cfed&#45;&gt;dir_758df28fbdbb54fb46d6d3d6484a4984 -->
<g id="edge18" class="edge">
<title>dir_db8d68003073a61b7114dbc4f792cfed&#45;&gt;dir_758df28fbdbb54fb46d6d3d6484a4984</title>
<path fill="none" stroke="black" d="M131.63,-143.87C141.09,-119.46 158.53,-74.43 169.68,-45.64"/>
<polygon fill="black" stroke="black" points="172.99,-46.78 173.34,-36.19 166.47,-44.25 172.99,-46.78"/>
<g id="a_edge18&#45;headlabel"><a xlink:href="dir_000024_000144.html" target="_top" xlink:title="1">
<text text-anchor="middle" x="174.34" y="-48.66" font-family="FreeSans" font-size="10.00">1</text>
</a>
</g>
</g>
<!-- dir_db8d68003073a61b7114dbc4f792cfed&#45;&gt;dir_cb2d4e92f47691559fc9d122a5e37fac -->
<g id="edge17" class="edge">
<title>dir_db8d68003073a61b7114dbc4f792cfed&#45;&gt;dir_cb2d4e92f47691559fc9d122a5e37fac</title>
<path fill="none" stroke="black" d="M152.15,-149.75C180.73,-137.92 225.89,-119.21 257.55,-106.1"/>
<polygon fill="black" stroke="black" points="259.02,-109.28 266.91,-102.22 256.34,-102.81 259.02,-109.28"/>
<g id="a_edge17&#45;headlabel"><a xlink:href="dir_000024_000014.html" target="_top" xlink:title="117">
<text text-anchor="middle" x="256.78" y="-110.78" font-family="FreeSans" font-size="10.00">117</text>
</a>
</g>
</g>
<!-- dir_f79eaa419c9665ed0522066c5c6851c4&#45;&gt;dir_758df28fbdbb54fb46d6d3d6484a4984 -->
<g id="edge4" class="edge">
<title>dir_f79eaa419c9665ed0522066c5c6851c4&#45;&gt;dir_758df28fbdbb54fb46d6d3d6484a4984</title>
<path fill="none" stroke="black" d="M388.06,-215.8C385.25,-182.52 374.11,-109.28 330,-72 297.64,-44.65 250.2,-31.05 217.38,-24.54"/>
<polygon fill="black" stroke="black" points="217.74,-21.05 207.27,-22.66 216.46,-27.93 217.74,-21.05"/>
<g id="a_edge4&#45;headlabel"><a xlink:href="dir_000054_000144.html" target="_top" xlink:title="7">
<text text-anchor="middle" x="221.79" y="-16.41" font-family="FreeSans" font-size="10.00">7</text>
</a>
</g>
</g>
<!-- dir_f79eaa419c9665ed0522066c5c6851c4&#45;&gt;dir_cb2d4e92f47691559fc9d122a5e37fac -->
<g id="edge3" class="edge">
<title>dir_f79eaa419c9665ed0522066c5c6851c4&#45;&gt;dir_cb2d4e92f47691559fc9d122a5e37fac</title>
<path fill="none" stroke="black" d="M382.6,-215.7C375.28,-197.07 362.19,-167.02 346,-144 338.83,-133.81 329.66,-123.75 321.02,-115.19"/>
<polygon fill="black" stroke="black" points="323.26,-112.49 313.63,-108.08 318.41,-117.53 323.26,-112.49"/>
<g id="a_edge3&#45;headlabel"><a xlink:href="dir_000054_000014.html" target="_top" xlink:title="9">
<text text-anchor="middle" x="327.82" y="-110.44" font-family="FreeSans" font-size="10.00">9</text>
</a>
</g>
</g>
</g>
</svg>
