<?xml version="1.0" encoding="UTF-8" standalone="no"?>
<!DOCTYPE svg PUBLIC "-//W3C//DTD SVG 1.1//EN"
 "http://www.w3.org/Graphics/SVG/1.1/DTD/svg11.dtd">
<!-- Generated by graphviz version 2.43.0 (0)
 -->
<!-- Title: Control Pages: 1 -->
<svg width="182pt" height="319pt"
 viewBox="0.00 0.00 182.00 319.00" xmlns="http://www.w3.org/2000/svg" xmlns:xlink="http://www.w3.org/1999/xlink">
<g id="graph0" class="graph" transform="scale(1 1) rotate(0) translate(4 315)">
<title>Control</title>
<polygon fill="white" stroke="transparent" points="-4,4 -4,-315 178,-315 178,4 -4,4"/>
<g id="clust1" class="cluster">
<title>clusterdir_730935399589b544a579302a37a46c03</title>
<g id="a_clust1"><a xlink:href="dir_730935399589b544a579302a37a46c03.html" target="_top" xlink:title="cpp_src">
<polygon fill="#ddddee" stroke="black" points="8,-8 8,-303 166,-303 166,-8 8,-8"/>
<text text-anchor="middle" x="87" y="-291" font-family="FreeSans" font-size="10.00">cpp_src</text>
</a>
</g>
</g>
<g id="clust2" class="cluster">
<title>clusterdir_c845d92bb8a5c5488679fccc6a213ce0</title>
<g id="a_clust2"><a xlink:href="dir_c845d92bb8a5c5488679fccc6a213ce0.html" target="_top">
<polygon fill="#eeeeff" stroke="black" points="16,-152 16,-276 158,-276 158,-152 16,-152"/>
</a>
</g>
</g>
<!-- dir_32348ece3c89569e6a714937ae854c89 -->
<g id="node1" class="node">
<title>dir_32348ece3c89569e6a714937ae854c89</title>
<g id="a_node1"><a xlink:href="dir_32348ece3c89569e6a714937ae854c89.html" target="_top" xlink:title="Message">
<polygon fill="white" stroke="red" points="88,-52 32,-52 32,-16 88,-16 88,-52"/>
<text text-anchor="middle" x="60" y="-31.5" font-family="FreeSans" font-size="10.00">Message</text>
</a>
</g>
</g>
<!-- dir_150f406a44a04ce55518da03ec553ece -->
<g id="node2" class="node">
<title>dir_150f406a44a04ce55518da03ec553ece</title>
<g id="a_node2"><a xlink:href="dir_150f406a44a04ce55518da03ec553ece.html" target="_top" xlink:title="Utilities">
<polygon fill="white" stroke="red" points="103,-124 49,-124 49,-88 103,-88 103,-124"/>
<text text-anchor="middle" x="76" y="-103.5" font-family="FreeSans" font-size="10.00">Utilities</text>
</a>
</g>
</g>
<!-- dir_150f406a44a04ce55518da03ec553ece&#45;&gt;dir_32348ece3c89569e6a714937ae854c89 -->
<g id="edge4" class="edge">
<title>dir_150f406a44a04ce55518da03ec553ece&#45;&gt;dir_32348ece3c89569e6a714937ae854c89</title>
<path fill="none" stroke="black" d="M72.04,-87.7C70.28,-79.98 68.16,-70.71 66.2,-62.11"/>
<polygon fill="black" stroke="black" points="69.55,-61.07 63.91,-52.1 62.73,-62.63 69.55,-61.07"/>
<g id="a_edge4&#45;headlabel"><a xlink:href="dir_000086_000123.html" target="_top" xlink:title="13">
<text text-anchor="middle" x="73.12" y="-61.44" font-family="FreeSans" font-size="10.00">13</text>
</a>
</g>
</g>
<!-- dir_c845d92bb8a5c5488679fccc6a213ce0 -->
<g id="node3" class="node">
<title>dir_c845d92bb8a5c5488679fccc6a213ce0</title>
<text text-anchor="middle" x="123" y="-247.5" font-family="FreeSans" font-size="10.00">Control</text>
</g>
<!-- dir_2683515c83dbe96ab11569fcf15b2302 -->
<g id="node4" class="node">
<title>dir_2683515c83dbe96ab11569fcf15b2302</title>
<g id="a_node4"><a xlink:href="dir_2683515c83dbe96ab11569fcf15b2302.html" target="_top" xlink:title="include">
<polygon fill="white" stroke="black" points="78,-196 24,-196 24,-160 78,-160 78,-196"/>
<text text-anchor="middle" x="51" y="-175.5" font-family="FreeSans" font-size="10.00">include</text>
</a>
</g>
</g>
<!-- dir_2683515c83dbe96ab11569fcf15b2302&#45;&gt;dir_32348ece3c89569e6a714937ae854c89 -->
<g id="edge3" class="edge">
<title>dir_2683515c83dbe96ab11569fcf15b2302&#45;&gt;dir_32348ece3c89569e6a714937ae854c89</title>
<path fill="none" stroke="black" d="M45.81,-159.85C41.08,-141.86 35.47,-112.81 40,-88 41.61,-79.2 44.6,-69.95 47.79,-61.7"/>
<polygon fill="black" stroke="black" points="51.12,-62.79 51.69,-52.21 44.65,-60.12 51.12,-62.79"/>
<g id="a_edge3&#45;headlabel"><a xlink:href="dir_000114_000123.html" target="_top" xlink:title="4">
<text text-anchor="middle" x="52.38" y="-64.7" font-family="FreeSans" font-size="10.00">4</text>
</a>
</g>
</g>
<!-- dir_2683515c83dbe96ab11569fcf15b2302&#45;&gt;dir_150f406a44a04ce55518da03ec553ece -->
<g id="edge2" class="edge">
<title>dir_2683515c83dbe96ab11569fcf15b2302&#45;&gt;dir_150f406a44a04ce55518da03ec553ece</title>
<path fill="none" stroke="black" d="M57.18,-159.7C60,-151.81 63.39,-142.3 66.52,-133.55"/>
<polygon fill="black" stroke="black" points="69.82,-134.7 69.89,-124.1 63.23,-132.34 69.82,-134.7"/>
<g id="a_edge2&#45;headlabel"><a xlink:href="dir_000114_000086.html" target="_top" xlink:title="8">
<text text-anchor="middle" x="71.29" y="-136.54" font-family="FreeSans" font-size="10.00">8</text>
</a>
</g>
</g>
<!-- dir_3144308604b062399f7e845a1e412bec -->
<g id="node5" class="node">
<title>dir_3144308604b062399f7e845a1e412bec</title>
<g id="a_node5"><a xlink:href="dir_3144308604b062399f7e845a1e412bec.html" target="_top" xlink:title="src">
<polygon fill="white" stroke="black" points="78,-268 24,-268 24,-232 78,-232 78,-268"/>
<text text-anchor="middle" x="51" y="-247.5" font-family="FreeSans" font-size="10.00">src</text>
</a>
</g>
</g>
<!-- dir_3144308604b062399f7e845a1e412bec&#45;&gt;dir_2683515c83dbe96ab11569fcf15b2302 -->
<g id="edge1" class="edge">
<title>dir_3144308604b062399f7e845a1e412bec&#45;&gt;dir_2683515c83dbe96ab11569fcf15b2302</title>
<path fill="none" stroke="black" d="M51,-231.7C51,-223.98 51,-214.71 51,-206.11"/>
<polygon fill="black" stroke="black" points="54.5,-206.1 51,-196.1 47.5,-206.1 54.5,-206.1"/>
<g id="a_edge1&#45;headlabel"><a xlink:href="dir_000113_000114.html" target="_top" xlink:title="5">
<text text-anchor="middle" x="57.34" y="-207.2" font-family="FreeSans" font-size="10.00">5</text>
</a>
</g>
</g>
</g>
</svg>
