<?xml version="1.0" encoding="UTF-8" standalone="no"?>
<!DOCTYPE svg PUBLIC "-//W3C//DTD SVG 1.1//EN"
 "http://www.w3.org/Graphics/SVG/1.1/DTD/svg11.dtd">
<!-- Generated by graphviz version 2.43.0 (0)
 -->
<!-- Title: Core Pages: 1 -->
<svg width="182pt" height="303pt"
 viewBox="0.00 0.00 182.00 303.00" xmlns="http://www.w3.org/2000/svg" xmlns:xlink="http://www.w3.org/1999/xlink">
<g id="graph0" class="graph" transform="scale(1 1) rotate(0) translate(4 299)">
<title>Core</title>
<polygon fill="white" stroke="transparent" points="-4,4 -4,-299 178,-299 178,4 -4,4"/>
<g id="clust1" class="cluster">
<title>clusterdir_cbaa4243dba62e6c31a85be2a7f37267</title>
<g id="a_clust1"><a xlink:href="dir_cbaa4243dba62e6c31a85be2a7f37267.html" target="_top" xlink:title="OpenCL">
<polygon fill="#ddddee" stroke="black" points="8,-128 8,-287 166,-287 166,-128 8,-128"/>
<text text-anchor="middle" x="87" y="-275" font-family="FreeSans" font-size="10.00">OpenCL</text>
</a>
</g>
</g>
<g id="clust2" class="cluster">
<title>clusterdir_c452024336701c9bf6340e0043ea0543</title>
<g id="a_clust2"><a xlink:href="dir_c452024336701c9bf6340e0043ea0543.html" target="_top">
<polygon fill="#eeeeff" stroke="black" points="16,-136 16,-260 158,-260 158,-136 16,-136"/>
</a>
</g>
</g>
<!-- dir_c452024336701c9bf6340e0043ea0543 -->
<g id="node1" class="node">
<title>dir_c452024336701c9bf6340e0043ea0543</title>
<text text-anchor="middle" x="123" y="-231.5" font-family="FreeSans" font-size="10.00">Core</text>
</g>
<!-- dir_9df04cb231f2c2e2aa4496bf88a0a654 -->
<g id="node2" class="node">
<title>dir_9df04cb231f2c2e2aa4496bf88a0a654</title>
<g id="a_node2"><a xlink:href="dir_9df04cb231f2c2e2aa4496bf88a0a654.html" target="_top" xlink:title="include">
<polygon fill="white" stroke="black" points="78,-180 24,-180 24,-144 78,-144 78,-180"/>
<text text-anchor="middle" x="51" y="-159.5" font-family="FreeSans" font-size="10.00">include</text>
</a>
</g>
</g>
<!-- dir_32348ece3c89569e6a714937ae854c89 -->
<g id="node4" class="node">
<title>dir_32348ece3c89569e6a714937ae854c89</title>
<g id="a_node4"><a xlink:href="dir_32348ece3c89569e6a714937ae854c89.html" target="_top" xlink:title="Message">
<polygon fill="white" stroke="red" points="79,-36 23,-36 23,0 79,0 79,-36"/>
<text text-anchor="middle" x="51" y="-15.5" font-family="FreeSans" font-size="10.00">Message</text>
</a>
</g>
</g>
<!-- dir_9df04cb231f2c2e2aa4496bf88a0a654&#45;&gt;dir_32348ece3c89569e6a714937ae854c89 -->
<g id="edge5" class="edge">
<title>dir_9df04cb231f2c2e2aa4496bf88a0a654&#45;&gt;dir_32348ece3c89569e6a714937ae854c89</title>
<path fill="none" stroke="black" d="M35.39,-143.77C27.63,-134.03 19.05,-121.18 15,-108 10.3,-92.71 10.3,-87.29 15,-72 18.01,-62.22 23.51,-52.62 29.32,-44.33"/>
<polygon fill="black" stroke="black" points="32.19,-46.33 35.39,-36.23 26.59,-42.13 32.19,-46.33"/>
<g id="a_edge5&#45;headlabel"><a xlink:href="dir_000131_000123.html" target="_top" xlink:title="1">
<text text-anchor="middle" x="32.31" y="-48.41" font-family="FreeSans" font-size="10.00">1</text>
</a>
</g>
</g>
<!-- dir_150f406a44a04ce55518da03ec553ece -->
<g id="node5" class="node">
<title>dir_150f406a44a04ce55518da03ec553ece</title>
<g id="a_node5"><a xlink:href="dir_150f406a44a04ce55518da03ec553ece.html" target="_top" xlink:title="Utilities">
<polygon fill="white" stroke="red" points="78,-108 24,-108 24,-72 78,-72 78,-108"/>
<text text-anchor="middle" x="51" y="-87.5" font-family="FreeSans" font-size="10.00">Utilities</text>
</a>
</g>
</g>
<!-- dir_9df04cb231f2c2e2aa4496bf88a0a654&#45;&gt;dir_150f406a44a04ce55518da03ec553ece -->
<g id="edge4" class="edge">
<title>dir_9df04cb231f2c2e2aa4496bf88a0a654&#45;&gt;dir_150f406a44a04ce55518da03ec553ece</title>
<path fill="none" stroke="black" d="M51,-143.7C51,-135.98 51,-126.71 51,-118.11"/>
<polygon fill="black" stroke="black" points="54.5,-118.1 51,-108.1 47.5,-118.1 54.5,-118.1"/>
<g id="a_edge4&#45;headlabel"><a xlink:href="dir_000131_000086.html" target="_top" xlink:title="1">
<text text-anchor="middle" x="57.34" y="-119.2" font-family="FreeSans" font-size="10.00">1</text>
</a>
</g>
</g>
<!-- dir_72ff350032e362d076fe249d75000b31 -->
<g id="node3" class="node">
<title>dir_72ff350032e362d076fe249d75000b31</title>
<g id="a_node3"><a xlink:href="dir_72ff350032e362d076fe249d75000b31.html" target="_top" xlink:title="src">
<polygon fill="white" stroke="black" points="78,-252 24,-252 24,-216 78,-216 78,-252"/>
<text text-anchor="middle" x="51" y="-231.5" font-family="FreeSans" font-size="10.00">src</text>
</a>
</g>
</g>
<!-- dir_72ff350032e362d076fe249d75000b31&#45;&gt;dir_9df04cb231f2c2e2aa4496bf88a0a654 -->
<g id="edge3" class="edge">
<title>dir_72ff350032e362d076fe249d75000b31&#45;&gt;dir_9df04cb231f2c2e2aa4496bf88a0a654</title>
<path fill="none" stroke="black" d="M51,-215.7C51,-207.98 51,-198.71 51,-190.11"/>
<polygon fill="black" stroke="black" points="54.5,-190.1 51,-180.1 47.5,-190.1 54.5,-190.1"/>
<g id="a_edge3&#45;headlabel"><a xlink:href="dir_000083_000131.html" target="_top" xlink:title="2">
<text text-anchor="middle" x="57.34" y="-191.2" font-family="FreeSans" font-size="10.00">2</text>
</a>
</g>
</g>
<!-- dir_72ff350032e362d076fe249d75000b31&#45;&gt;dir_32348ece3c89569e6a714937ae854c89 -->
<g id="edge2" class="edge">
<title>dir_72ff350032e362d076fe249d75000b31&#45;&gt;dir_32348ece3c89569e6a714937ae854c89</title>
<path fill="none" stroke="black" d="M66.61,-215.77C74.37,-206.03 82.95,-193.18 87,-180 101.11,-134.12 101.11,-117.88 87,-72 83.99,-62.22 78.49,-52.62 72.68,-44.33"/>
<polygon fill="black" stroke="black" points="75.41,-42.13 66.61,-36.23 69.81,-46.33 75.41,-42.13"/>
<g id="a_edge2&#45;headlabel"><a xlink:href="dir_000083_000123.html" target="_top" xlink:title="1">
<text text-anchor="middle" x="79.83" y="-40.8" font-family="FreeSans" font-size="10.00">1</text>
</a>
</g>
</g>
<!-- dir_150f406a44a04ce55518da03ec553ece&#45;&gt;dir_32348ece3c89569e6a714937ae854c89 -->
<g id="edge1" class="edge">
<title>dir_150f406a44a04ce55518da03ec553ece&#45;&gt;dir_32348ece3c89569e6a714937ae854c89</title>
<path fill="none" stroke="black" d="M51,-71.7C51,-63.98 51,-54.71 51,-46.11"/>
<polygon fill="black" stroke="black" points="54.5,-46.1 51,-36.1 47.5,-46.1 54.5,-46.1"/>
<g id="a_edge1&#45;headlabel"><a xlink:href="dir_000086_000123.html" target="_top" xlink:title="13">
<text text-anchor="middle" x="57.34" y="-47.2" font-family="FreeSans" font-size="10.00">13</text>
</a>
</g>
</g>
</g>
</svg>
