<?xml version="1.0" encoding="UTF-8" standalone="no"?>
<!DOCTYPE svg PUBLIC "-//W3C//DTD SVG 1.1//EN"
 "http://www.w3.org/Graphics/SVG/1.1/DTD/svg11.dtd">
<!-- Generated by graphviz version 2.43.0 (0)
 -->
<!-- Title: applications Pages: 1 -->
<svg width="1070pt" height="319pt"
 viewBox="0.00 0.00 1070.00 319.00" xmlns="http://www.w3.org/2000/svg" xmlns:xlink="http://www.w3.org/1999/xlink">
<g id="graph0" class="graph" transform="scale(1 1) rotate(0) translate(4 315)">
<title>applications</title>
<polygon fill="white" stroke="transparent" points="-4,4 -4,-315 1066,-315 1066,4 -4,4"/>
<g id="clust1" class="cluster">
<title>clusterdir_0c6283dd7716efebfcf76fdb98d8e794</title>
<g id="a_clust1"><a xlink:href="dir_0c6283dd7716efebfcf76fdb98d8e794.html" target="_top" xlink:title="c_src">
<polygon fill="#ddddee" stroke="black" points="8,-8 8,-303 1054,-303 1054,-8 8,-8"/>
<text text-anchor="middle" x="531" y="-291" font-family="FreeSans" font-size="10.00">c_src</text>
</a>
</g>
</g>
<g id="clust2" class="cluster">
<title>clusterdir_9de42bc92121356a26b664e34e3ff194</title>
<g id="a_clust2"><a xlink:href="dir_9de42bc92121356a26b664e34e3ff194.html" target="_top">
<polygon fill="#eeeeff" stroke="black" points="88,-224 88,-276 1046,-276 1046,-224 88,-224"/>
</a>
</g>
</g>
<!-- dir_637a76a7abf5a01e5c2aa724f3c1e96e -->
<g id="node1" class="node">
<title>dir_637a76a7abf5a01e5c2aa724f3c1e96e</title>
<g id="a_node1"><a xlink:href="dir_637a76a7abf5a01e5c2aa724f3c1e96e.html" target="_top" xlink:title="afio">
<polygon fill="white" stroke="red" points="593,-196 539,-196 539,-160 593,-160 593,-196"/>
<text text-anchor="middle" x="566" y="-175.5" font-family="FreeSans" font-size="10.00">afio</text>
</a>
</g>
</g>
<!-- dir_758df28fbdbb54fb46d6d3d6484a4984 -->
<g id="node2" class="node">
<title>dir_758df28fbdbb54fb46d6d3d6484a4984</title>
<g id="a_node2"><a xlink:href="dir_758df28fbdbb54fb46d6d3d6484a4984.html" target="_top" xlink:title="msg">
<polygon fill="white" stroke="red" points="484,-52 430,-52 430,-16 484,-16 484,-52"/>
<text text-anchor="middle" x="457" y="-31.5" font-family="FreeSans" font-size="10.00">msg</text>
</a>
</g>
</g>
<!-- dir_637a76a7abf5a01e5c2aa724f3c1e96e&#45;&gt;dir_758df28fbdbb54fb46d6d3d6484a4984 -->
<g id="edge33" class="edge">
<title>dir_637a76a7abf5a01e5c2aa724f3c1e96e&#45;&gt;dir_758df28fbdbb54fb46d6d3d6484a4984</title>
<path fill="none" stroke="black" d="M552.85,-159.87C533.78,-135.03 498.33,-88.85 476.3,-60.14"/>
<polygon fill="black" stroke="black" points="479.06,-57.99 470.19,-52.19 473.51,-62.25 479.06,-57.99"/>
<g id="a_edge33&#45;headlabel"><a xlink:href="dir_000022_000144.html" target="_top" xlink:title="1">
<text text-anchor="middle" x="483.5" y="-56.61" font-family="FreeSans" font-size="10.00">1</text>
</a>
</g>
</g>
<!-- dir_cb2d4e92f47691559fc9d122a5e37fac -->
<g id="node3" class="node">
<title>dir_cb2d4e92f47691559fc9d122a5e37fac</title>
<g id="a_node3"><a xlink:href="dir_cb2d4e92f47691559fc9d122a5e37fac.html" target="_top" xlink:title="mk4util">
<polygon fill="white" stroke="red" points="461,-124 407,-124 407,-88 461,-88 461,-124"/>
<text text-anchor="middle" x="434" y="-103.5" font-family="FreeSans" font-size="10.00">mk4util</text>
</a>
</g>
</g>
<!-- dir_637a76a7abf5a01e5c2aa724f3c1e96e&#45;&gt;dir_cb2d4e92f47691559fc9d122a5e37fac -->
<g id="edge32" class="edge">
<title>dir_637a76a7abf5a01e5c2aa724f3c1e96e&#45;&gt;dir_cb2d4e92f47691559fc9d122a5e37fac</title>
<path fill="none" stroke="black" d="M538.97,-162.67C519.17,-152.17 492.08,-137.8 470.38,-126.29"/>
<polygon fill="black" stroke="black" points="471.92,-123.15 461.45,-121.56 468.64,-129.33 471.92,-123.15"/>
<g id="a_edge32&#45;headlabel"><a xlink:href="dir_000022_000014.html" target="_top" xlink:title="17">
<text text-anchor="middle" x="476.43" y="-119.82" font-family="FreeSans" font-size="10.00">17</text>
</a>
</g>
</g>
<!-- dir_cb2d4e92f47691559fc9d122a5e37fac&#45;&gt;dir_758df28fbdbb54fb46d6d3d6484a4984 -->
<g id="edge29" class="edge">
<title>dir_cb2d4e92f47691559fc9d122a5e37fac&#45;&gt;dir_758df28fbdbb54fb46d6d3d6484a4984</title>
<path fill="none" stroke="black" d="M439.69,-87.7C442.25,-79.9 445.33,-70.51 448.18,-61.83"/>
<polygon fill="black" stroke="black" points="451.58,-62.7 451.38,-52.1 444.93,-60.51 451.58,-62.7"/>
<g id="a_edge29&#45;headlabel"><a xlink:href="dir_000014_000144.html" target="_top" xlink:title="3">
<text text-anchor="middle" x="453.16" y="-64.5" font-family="FreeSans" font-size="10.00">3</text>
</a>
</g>
</g>
<!-- dir_db8d68003073a61b7114dbc4f792cfed -->
<g id="node4" class="node">
<title>dir_db8d68003073a61b7114dbc4f792cfed</title>
<g id="a_node4"><a xlink:href="dir_db8d68003073a61b7114dbc4f792cfed.html" target="_top" xlink:title="dfio">
<polygon fill="white" stroke="red" points="415,-196 361,-196 361,-160 415,-160 415,-196"/>
<text text-anchor="middle" x="388" y="-175.5" font-family="FreeSans" font-size="10.00">dfio</text>
</a>
</g>
</g>
<!-- dir_db8d68003073a61b7114dbc4f792cfed&#45;&gt;dir_758df28fbdbb54fb46d6d3d6484a4984 -->
<g id="edge49" class="edge">
<title>dir_db8d68003073a61b7114dbc4f792cfed&#45;&gt;dir_758df28fbdbb54fb46d6d3d6484a4984</title>
<path fill="none" stroke="black" d="M386.44,-159.9C385.5,-141.19 386.26,-110.81 398,-88 403.81,-76.71 413.09,-66.68 422.58,-58.47"/>
<polygon fill="black" stroke="black" points="424.98,-61.03 430.53,-52.01 420.56,-55.6 424.98,-61.03"/>
<g id="a_edge49&#45;headlabel"><a xlink:href="dir_000024_000144.html" target="_top" xlink:title="1">
<text text-anchor="middle" x="423.98" y="-63" font-family="FreeSans" font-size="10.00">1</text>
</a>
</g>
</g>
<!-- dir_db8d68003073a61b7114dbc4f792cfed&#45;&gt;dir_cb2d4e92f47691559fc9d122a5e37fac -->
<g id="edge48" class="edge">
<title>dir_db8d68003073a61b7114dbc4f792cfed&#45;&gt;dir_cb2d4e92f47691559fc9d122a5e37fac</title>
<path fill="none" stroke="black" d="M399.37,-159.7C404.72,-151.56 411.2,-141.69 417.11,-132.7"/>
<polygon fill="black" stroke="black" points="420.19,-134.38 422.76,-124.1 414.34,-130.54 420.19,-134.38"/>
<g id="a_edge48&#45;headlabel"><a xlink:href="dir_000024_000014.html" target="_top" xlink:title="117">
<text text-anchor="middle" x="420.59" y="-136.45" font-family="FreeSans" font-size="10.00">117</text>
</a>
</g>
</g>
<!-- dir_64078e4dd55db1ba2b4e557207803e4b -->
<g id="node5" class="node">
<title>dir_64078e4dd55db1ba2b4e557207803e4b</title>
<g id="a_node5"><a xlink:href="dir_64078e4dd55db1ba2b4e557207803e4b.html" target="_top" xlink:title="vex">
<polygon fill="white" stroke="red" points="257,-196 203,-196 203,-160 257,-160 257,-196"/>
<text text-anchor="middle" x="230" y="-175.5" font-family="FreeSans" font-size="10.00">vex</text>
</a>
</g>
</g>
<!-- dir_64078e4dd55db1ba2b4e557207803e4b&#45;&gt;dir_758df28fbdbb54fb46d6d3d6484a4984 -->
<g id="edge6" class="edge">
<title>dir_64078e4dd55db1ba2b4e557207803e4b&#45;&gt;dir_758df28fbdbb54fb46d6d3d6484a4984</title>
<path fill="none" stroke="black" d="M233.95,-159.98C239.5,-139.88 251.53,-106.8 274,-88 315.8,-53.02 379.6,-41.12 419.77,-37.07"/>
<polygon fill="black" stroke="black" points="420.29,-40.54 429.94,-36.16 419.67,-33.56 420.29,-40.54"/>
<g id="a_edge6&#45;headlabel"><a xlink:href="dir_000044_000144.html" target="_top" xlink:title="1">
<text text-anchor="middle" x="416.96" y="-41.18" font-family="FreeSans" font-size="10.00">1</text>
</a>
</g>
</g>
<!-- dir_64078e4dd55db1ba2b4e557207803e4b&#45;&gt;dir_cb2d4e92f47691559fc9d122a5e37fac -->
<g id="edge7" class="edge">
<title>dir_64078e4dd55db1ba2b4e557207803e4b&#45;&gt;dir_cb2d4e92f47691559fc9d122a5e37fac</title>
<path fill="none" stroke="black" d="M257.09,-167.7C293.14,-155.34 357,-133.42 397.33,-119.58"/>
<polygon fill="black" stroke="black" points="398.48,-122.89 406.8,-116.33 396.2,-116.27 398.48,-122.89"/>
<g id="a_edge7&#45;headlabel"><a xlink:href="dir_000044_000014.html" target="_top" xlink:title="76">
<text text-anchor="middle" x="396" y="-124.24" font-family="FreeSans" font-size="10.00">76</text>
</a>
</g>
</g>
<!-- dir_9ef7e4ca5af767b4d78801a8e1d37f3e -->
<g id="node6" class="node">
<title>dir_9ef7e4ca5af767b4d78801a8e1d37f3e</title>
<g id="a_node6"><a xlink:href="dir_9ef7e4ca5af767b4d78801a8e1d37f3e.html" target="_top" xlink:title="fourfit_libs">
<polygon fill="white" stroke="red" points="77.5,-268 16.5,-268 16.5,-232 77.5,-232 77.5,-268"/>
<text text-anchor="middle" x="47" y="-247.5" font-family="FreeSans" font-size="10.00">fourfit_libs</text>
</a>
</g>
</g>
<!-- dir_9ef7e4ca5af767b4d78801a8e1d37f3e&#45;&gt;dir_637a76a7abf5a01e5c2aa724f3c1e96e -->
<g id="edge22" class="edge">
<title>dir_9ef7e4ca5af767b4d78801a8e1d37f3e&#45;&gt;dir_637a76a7abf5a01e5c2aa724f3c1e96e</title>
<path fill="none" stroke="black" d="M68.31,-231.95C73.21,-228.8 78.59,-225.9 84,-224 227.03,-173.69 273.14,-211.24 424,-196 459.64,-192.4 500.21,-187.46 528.84,-183.83"/>
<polygon fill="black" stroke="black" points="529.33,-187.3 538.81,-182.56 528.45,-180.35 529.33,-187.3"/>
<g id="a_edge22&#45;headlabel"><a xlink:href="dir_000026_000022.html" target="_top" xlink:title="2">
<text text-anchor="middle" x="526.13" y="-188.07" font-family="FreeSans" font-size="10.00">2</text>
</a>
</g>
</g>
<!-- dir_9ef7e4ca5af767b4d78801a8e1d37f3e&#45;&gt;dir_758df28fbdbb54fb46d6d3d6484a4984 -->
<g id="edge21" class="edge">
<title>dir_9ef7e4ca5af767b4d78801a8e1d37f3e&#45;&gt;dir_758df28fbdbb54fb46d6d3d6484a4984</title>
<path fill="none" stroke="black" d="M55.52,-231.8C73.15,-198.18 117.04,-123.88 177,-88 254.17,-41.81 362.93,-34.5 419.5,-34.14"/>
<polygon fill="black" stroke="black" points="419.77,-37.64 429.77,-34.14 419.77,-30.64 419.77,-37.64"/>
<g id="a_edge21&#45;headlabel"><a xlink:href="dir_000026_000144.html" target="_top" xlink:title="74">
<text text-anchor="middle" x="416.17" y="-37.97" font-family="FreeSans" font-size="10.00">74</text>
</a>
</g>
</g>
<!-- dir_9ef7e4ca5af767b4d78801a8e1d37f3e&#45;&gt;dir_cb2d4e92f47691559fc9d122a5e37fac -->
<g id="edge19" class="edge">
<title>dir_9ef7e4ca5af767b4d78801a8e1d37f3e&#45;&gt;dir_cb2d4e92f47691559fc9d122a5e37fac</title>
<path fill="none" stroke="black" d="M61.66,-231.88C80.26,-211.36 114.35,-177.55 151,-160 232.75,-120.87 340.66,-110.58 396.67,-107.91"/>
<polygon fill="black" stroke="black" points="396.98,-111.4 406.83,-107.48 396.69,-104.4 396.98,-111.4"/>
<g id="a_edge19&#45;headlabel"><a xlink:href="dir_000026_000014.html" target="_top" xlink:title="62">
<text text-anchor="middle" x="393.51" y="-111.89" font-family="FreeSans" font-size="10.00">62</text>
</a>
</g>
</g>
<!-- dir_9ef7e4ca5af767b4d78801a8e1d37f3e&#45;&gt;dir_db8d68003073a61b7114dbc4f792cfed -->
<g id="edge20" class="edge">
<title>dir_9ef7e4ca5af767b4d78801a8e1d37f3e&#45;&gt;dir_db8d68003073a61b7114dbc4f792cfed</title>
<path fill="none" stroke="black" d="M68.8,-231.95C73.59,-228.88 78.8,-226.02 84,-224 90.19,-221.59 271,-195.66 350.78,-184.29"/>
<polygon fill="black" stroke="black" points="351.49,-187.73 360.89,-182.85 350.5,-180.8 351.49,-187.73"/>
<g id="a_edge20&#45;headlabel"><a xlink:href="dir_000026_000024.html" target="_top" xlink:title="81">
<text text-anchor="middle" x="348.33" y="-188.54" font-family="FreeSans" font-size="10.00">81</text>
</a>
</g>
</g>
<!-- dir_9ef7e4ca5af767b4d78801a8e1d37f3e&#45;&gt;dir_64078e4dd55db1ba2b4e557207803e4b -->
<g id="edge18" class="edge">
<title>dir_9ef7e4ca5af767b4d78801a8e1d37f3e&#45;&gt;dir_64078e4dd55db1ba2b4e557207803e4b</title>
<path fill="none" stroke="black" d="M70.26,-231.78C74.69,-228.94 79.39,-226.21 84,-224 119.31,-207.09 162.44,-194.72 192.63,-187.28"/>
<polygon fill="black" stroke="black" points="193.83,-190.59 202.73,-184.85 192.19,-183.78 193.83,-190.59"/>
<g id="a_edge18&#45;headlabel"><a xlink:href="dir_000026_000044.html" target="_top" xlink:title="27">
<text text-anchor="middle" x="191" y="-191.69" font-family="FreeSans" font-size="10.00">27</text>
</a>
</g>
</g>
<!-- dir_9de42bc92121356a26b664e34e3ff194 -->
<g id="node7" class="node">
<title>dir_9de42bc92121356a26b664e34e3ff194</title>
<text text-anchor="middle" x="1004" y="-247.5" font-family="FreeSans" font-size="10.00">applications</text>
</g>
<!-- dir_720c34c34eae56e7048c181fca8a7301 -->
<g id="node8" class="node">
<title>dir_720c34c34eae56e7048c181fca8a7301</title>
<g id="a_node8"><a xlink:href="dir_720c34c34eae56e7048c181fca8a7301.html" target="_top" xlink:title="adump">
<polygon fill="white" stroke="red" points="736,-268 682,-268 682,-232 736,-232 736,-268"/>
<text text-anchor="middle" x="709" y="-247.5" font-family="FreeSans" font-size="10.00">adump</text>
</a>
</g>
</g>
<!-- dir_720c34c34eae56e7048c181fca8a7301&#45;&gt;dir_637a76a7abf5a01e5c2aa724f3c1e96e -->
<g id="edge45" class="edge">
<title>dir_720c34c34eae56e7048c181fca8a7301&#45;&gt;dir_637a76a7abf5a01e5c2aa724f3c1e96e</title>
<path fill="none" stroke="black" d="M685.83,-231.86C681.65,-229.08 677.27,-226.35 673,-224 660.39,-217.07 628.57,-203.88 602.89,-193.56"/>
<polygon fill="black" stroke="black" points="603.98,-190.23 593.4,-189.76 601.38,-196.73 603.98,-190.23"/>
<g id="a_edge45&#45;headlabel"><a xlink:href="dir_000030_000022.html" target="_top" xlink:title="7">
<text text-anchor="middle" x="608.37" y="-186.42" font-family="FreeSans" font-size="10.00">7</text>
</a>
</g>
</g>
<!-- dir_720c34c34eae56e7048c181fca8a7301&#45;&gt;dir_758df28fbdbb54fb46d6d3d6484a4984 -->
<g id="edge46" class="edge">
<title>dir_720c34c34eae56e7048c181fca8a7301&#45;&gt;dir_758df28fbdbb54fb46d6d3d6484a4984</title>
<path fill="none" stroke="black" d="M695.75,-231.77C670.91,-200.29 614.58,-132.64 556,-88 536.68,-73.27 512.71,-60.33 493.2,-50.92"/>
<polygon fill="black" stroke="black" points="494.55,-47.69 484.02,-46.59 491.57,-54.02 494.55,-47.69"/>
<g id="a_edge46&#45;headlabel"><a xlink:href="dir_000030_000144.html" target="_top" xlink:title="1">
<text text-anchor="middle" x="499.02" y="-44.15" font-family="FreeSans" font-size="10.00">1</text>
</a>
</g>
</g>
<!-- dir_720c34c34eae56e7048c181fca8a7301&#45;&gt;dir_cb2d4e92f47691559fc9d122a5e37fac -->
<g id="edge47" class="edge">
<title>dir_720c34c34eae56e7048c181fca8a7301&#45;&gt;dir_cb2d4e92f47691559fc9d122a5e37fac</title>
<path fill="none" stroke="black" d="M692.74,-231.93C672.99,-212.09 637.84,-179.57 602,-160 559.85,-136.99 506.21,-122.27 471.03,-114.33"/>
<polygon fill="black" stroke="black" points="471.7,-110.89 461.18,-112.17 470.2,-117.73 471.7,-110.89"/>
<g id="a_edge47&#45;headlabel"><a xlink:href="dir_000030_000014.html" target="_top" xlink:title="7">
<text text-anchor="middle" x="475.82" y="-106.38" font-family="FreeSans" font-size="10.00">7</text>
</a>
</g>
</g>
<!-- dir_951752c50ea76680db3b9d1455b475f2 -->
<g id="node9" class="node">
<title>dir_951752c50ea76680db3b9d1455b475f2</title>
<g id="a_node9"><a xlink:href="dir_951752c50ea76680db3b9d1455b475f2.html" target="_top" xlink:title="aedit">
<polygon fill="white" stroke="red" points="222,-268 168,-268 168,-232 222,-232 222,-268"/>
<text text-anchor="middle" x="195" y="-247.5" font-family="FreeSans" font-size="10.00">aedit</text>
</a>
</g>
</g>
<!-- dir_951752c50ea76680db3b9d1455b475f2&#45;&gt;dir_637a76a7abf5a01e5c2aa724f3c1e96e -->
<g id="edge8" class="edge">
<title>dir_951752c50ea76680db3b9d1455b475f2&#45;&gt;dir_637a76a7abf5a01e5c2aa724f3c1e96e</title>
<path fill="none" stroke="black" d="M216.14,-231.89C220.81,-228.83 225.89,-225.98 231,-224 244.77,-218.65 444.19,-193.87 528.65,-183.54"/>
<polygon fill="black" stroke="black" points="529.33,-186.98 538.83,-182.3 528.48,-180.03 529.33,-186.98"/>
<g id="a_edge8&#45;headlabel"><a xlink:href="dir_000020_000022.html" target="_top" xlink:title="10">
<text text-anchor="middle" x="526.1" y="-187.74" font-family="FreeSans" font-size="10.00">10</text>
</a>
</g>
</g>
<!-- dir_951752c50ea76680db3b9d1455b475f2&#45;&gt;dir_758df28fbdbb54fb46d6d3d6484a4984 -->
<g id="edge10" class="edge">
<title>dir_951752c50ea76680db3b9d1455b475f2&#45;&gt;dir_758df28fbdbb54fb46d6d3d6484a4984</title>
<path fill="none" stroke="black" d="M219.38,-231.93C236.68,-219.61 258.16,-203.82 266,-196 308.47,-153.62 300.65,-126.11 347,-88 368.68,-70.17 397.36,-56.61 420,-47.67"/>
<polygon fill="black" stroke="black" points="421.51,-50.84 429.61,-44 419.02,-44.29 421.51,-50.84"/>
<g id="a_edge10&#45;headlabel"><a xlink:href="dir_000020_000144.html" target="_top" xlink:title="1">
<text text-anchor="middle" x="419.17" y="-52.27" font-family="FreeSans" font-size="10.00">1</text>
</a>
</g>
</g>
<!-- dir_951752c50ea76680db3b9d1455b475f2&#45;&gt;dir_cb2d4e92f47691559fc9d122a5e37fac -->
<g id="edge9" class="edge">
<title>dir_951752c50ea76680db3b9d1455b475f2&#45;&gt;dir_cb2d4e92f47691559fc9d122a5e37fac</title>
<path fill="none" stroke="black" d="M218.74,-231.91C222.78,-229.18 226.97,-226.45 231,-224 253.76,-210.15 261.89,-210.86 284,-196 304.69,-182.1 306.13,-173.63 327,-160 349.28,-145.45 376.11,-132.17 397.33,-122.54"/>
<polygon fill="black" stroke="black" points="398.95,-125.65 406.65,-118.38 396.1,-119.26 398.95,-125.65"/>
<g id="a_edge9&#45;headlabel"><a xlink:href="dir_000020_000014.html" target="_top" xlink:title="1">
<text text-anchor="middle" x="396.82" y="-127.21" font-family="FreeSans" font-size="10.00">1</text>
</a>
</g>
</g>
<!-- dir_951752c50ea76680db3b9d1455b475f2&#45;&gt;dir_db8d68003073a61b7114dbc4f792cfed -->
<g id="edge11" class="edge">
<title>dir_951752c50ea76680db3b9d1455b475f2&#45;&gt;dir_db8d68003073a61b7114dbc4f792cfed</title>
<path fill="none" stroke="black" d="M217.17,-231.94C221.59,-229.02 226.33,-226.22 231,-224 233.79,-222.68 305.58,-202.29 351.1,-189.42"/>
<polygon fill="black" stroke="black" points="352.27,-192.72 360.94,-186.64 350.36,-185.99 352.27,-192.72"/>
<g id="a_edge11&#45;headlabel"><a xlink:href="dir_000020_000024.html" target="_top" xlink:title="9">
<text text-anchor="middle" x="349.58" y="-193.93" font-family="FreeSans" font-size="10.00">9</text>
</a>
</g>
</g>
<!-- dir_951752c50ea76680db3b9d1455b475f2&#45;&gt;dir_64078e4dd55db1ba2b4e557207803e4b -->
<g id="edge12" class="edge">
<title>dir_951752c50ea76680db3b9d1455b475f2&#45;&gt;dir_64078e4dd55db1ba2b4e557207803e4b</title>
<path fill="none" stroke="black" d="M203.65,-231.7C207.64,-223.73 212.45,-214.1 216.87,-205.26"/>
<polygon fill="black" stroke="black" points="220.11,-206.61 221.45,-196.1 213.85,-203.48 220.11,-206.61"/>
<g id="a_edge12&#45;headlabel"><a xlink:href="dir_000020_000044.html" target="_top" xlink:title="4">
<text text-anchor="middle" x="221.04" y="-208.6" font-family="FreeSans" font-size="10.00">4</text>
</a>
</g>
</g>
<!-- dir_647fd3f6593fc2e13322700d3061c464 -->
<g id="node10" class="node">
<title>dir_647fd3f6593fc2e13322700d3061c464</title>
<g id="a_node10"><a xlink:href="dir_647fd3f6593fc2e13322700d3061c464.html" target="_top" xlink:title="alist">
<polygon fill="white" stroke="red" points="592,-268 538,-268 538,-232 592,-232 592,-268"/>
<text text-anchor="middle" x="565" y="-247.5" font-family="FreeSans" font-size="10.00">alist</text>
</a>
</g>
</g>
<!-- dir_647fd3f6593fc2e13322700d3061c464&#45;&gt;dir_637a76a7abf5a01e5c2aa724f3c1e96e -->
<g id="edge1" class="edge">
<title>dir_647fd3f6593fc2e13322700d3061c464&#45;&gt;dir_637a76a7abf5a01e5c2aa724f3c1e96e</title>
<path fill="none" stroke="black" d="M565.25,-231.7C565.36,-223.98 565.49,-214.71 565.61,-206.11"/>
<polygon fill="black" stroke="black" points="569.11,-206.15 565.76,-196.1 562.11,-206.05 569.11,-206.15"/>
<g id="a_edge1&#45;headlabel"><a xlink:href="dir_000034_000022.html" target="_top" xlink:title="4">
<text text-anchor="middle" x="571.9" y="-207.29" font-family="FreeSans" font-size="10.00">4</text>
</a>
</g>
</g>
<!-- dir_647fd3f6593fc2e13322700d3061c464&#45;&gt;dir_cb2d4e92f47691559fc9d122a5e37fac -->
<g id="edge2" class="edge">
<title>dir_647fd3f6593fc2e13322700d3061c464&#45;&gt;dir_cb2d4e92f47691559fc9d122a5e37fac</title>
<path fill="none" stroke="black" d="M548.71,-231.89C538.9,-221.54 526.18,-208.06 515,-196 495.05,-174.47 472.6,-149.77 456.41,-131.86"/>
<polygon fill="black" stroke="black" points="458.74,-129.22 449.44,-124.14 453.54,-133.91 458.74,-129.22"/>
<g id="a_edge2&#45;headlabel"><a xlink:href="dir_000034_000014.html" target="_top" xlink:title="6">
<text text-anchor="middle" x="463.26" y="-127.48" font-family="FreeSans" font-size="10.00">6</text>
</a>
</g>
</g>
<!-- dir_647fd3f6593fc2e13322700d3061c464&#45;&gt;dir_db8d68003073a61b7114dbc4f792cfed -->
<g id="edge3" class="edge">
<title>dir_647fd3f6593fc2e13322700d3061c464&#45;&gt;dir_db8d68003073a61b7114dbc4f792cfed</title>
<path fill="none" stroke="black" d="M542.39,-231.8C538.08,-228.96 533.5,-226.22 529,-224 495.29,-207.38 454.08,-195.07 424.94,-187.56"/>
<polygon fill="black" stroke="black" points="425.71,-184.15 415.16,-185.1 424.01,-190.93 425.71,-184.15"/>
<g id="a_edge3&#45;headlabel"><a xlink:href="dir_000034_000024.html" target="_top" xlink:title="2">
<text text-anchor="middle" x="429.89" y="-179.77" font-family="FreeSans" font-size="10.00">2</text>
</a>
</g>
</g>
<!-- dir_4331365e84e951a00e6b513ced68405c -->
<g id="node11" class="node">
<title>dir_4331365e84e951a00e6b513ced68405c</title>
<g id="a_node11"><a xlink:href="dir_4331365e84e951a00e6b513ced68405c.html" target="_top" xlink:title="average">
<polygon fill="white" stroke="red" points="808,-268 754,-268 754,-232 808,-232 808,-268"/>
<text text-anchor="middle" x="781" y="-247.5" font-family="FreeSans" font-size="10.00">average</text>
</a>
</g>
</g>
<!-- dir_4331365e84e951a00e6b513ced68405c&#45;&gt;dir_637a76a7abf5a01e5c2aa724f3c1e96e -->
<g id="edge39" class="edge">
<title>dir_4331365e84e951a00e6b513ced68405c&#45;&gt;dir_637a76a7abf5a01e5c2aa724f3c1e96e</title>
<path fill="none" stroke="black" d="M758.89,-231.82C754.46,-228.91 749.71,-226.14 745,-224 698.34,-202.79 640.1,-190.52 602.97,-184.29"/>
<polygon fill="black" stroke="black" points="603.52,-180.84 593.09,-182.7 602.4,-187.75 603.52,-180.84"/>
<g id="a_edge39&#45;headlabel"><a xlink:href="dir_000041_000022.html" target="_top" xlink:title="4">
<text text-anchor="middle" x="607.52" y="-176.11" font-family="FreeSans" font-size="10.00">4</text>
</a>
</g>
</g>
<!-- dir_4331365e84e951a00e6b513ced68405c&#45;&gt;dir_758df28fbdbb54fb46d6d3d6484a4984 -->
<g id="edge37" class="edge">
<title>dir_4331365e84e951a00e6b513ced68405c&#45;&gt;dir_758df28fbdbb54fb46d6d3d6484a4984</title>
<path fill="none" stroke="black" d="M763.13,-231.89C729.46,-200.31 653.39,-132.1 580,-88 552.55,-71.51 519.04,-57.42 493.93,-47.92"/>
<polygon fill="black" stroke="black" points="495,-44.59 484.41,-44.39 492.57,-51.15 495,-44.59"/>
<g id="a_edge37&#45;headlabel"><a xlink:href="dir_000041_000144.html" target="_top" xlink:title="2">
<text text-anchor="middle" x="499.36" y="-40.68" font-family="FreeSans" font-size="10.00">2</text>
</a>
</g>
</g>
<!-- dir_4331365e84e951a00e6b513ced68405c&#45;&gt;dir_cb2d4e92f47691559fc9d122a5e37fac -->
<g id="edge38" class="edge">
<title>dir_4331365e84e951a00e6b513ced68405c&#45;&gt;dir_cb2d4e92f47691559fc9d122a5e37fac</title>
<path fill="none" stroke="black" d="M756.81,-231.74C752.9,-229.08 748.87,-226.42 745,-224 695.75,-193.17 684.8,-181.94 631,-160 577.15,-138.04 511.33,-122.45 471.05,-114.09"/>
<polygon fill="black" stroke="black" points="471.63,-110.63 461.14,-112.07 470.24,-117.49 471.63,-110.63"/>
<g id="a_edge38&#45;headlabel"><a xlink:href="dir_000041_000014.html" target="_top" xlink:title="9">
<text text-anchor="middle" x="475.72" y="-106.07" font-family="FreeSans" font-size="10.00">9</text>
</a>
</g>
</g>
<!-- dir_3236850d8b037e8ab5bc50d67a449e07 -->
<g id="node12" class="node">
<title>dir_3236850d8b037e8ab5bc50d67a449e07</title>
<g id="a_node12"><a xlink:href="dir_3236850d8b037e8ab5bc50d67a449e07.html" target="_top" xlink:title="difx2mark4">
<polygon fill="white" stroke="red" points="376,-268 312,-268 312,-232 376,-232 376,-268"/>
<text text-anchor="middle" x="344" y="-247.5" font-family="FreeSans" font-size="10.00">difx2mark4</text>
</a>
</g>
</g>
<!-- dir_3236850d8b037e8ab5bc50d67a449e07&#45;&gt;dir_db8d68003073a61b7114dbc4f792cfed -->
<g id="edge50" class="edge">
<title>dir_3236850d8b037e8ab5bc50d67a449e07&#45;&gt;dir_db8d68003073a61b7114dbc4f792cfed</title>
<path fill="none" stroke="black" d="M354.88,-231.7C359.99,-223.56 366.2,-213.69 371.84,-204.7"/>
<polygon fill="black" stroke="black" points="374.89,-206.43 377.25,-196.1 368.96,-202.71 374.89,-206.43"/>
<g id="a_edge50&#45;headlabel"><a xlink:href="dir_000057_000024.html" target="_top" xlink:title="9">
<text text-anchor="middle" x="375.38" y="-208.49" font-family="FreeSans" font-size="10.00">9</text>
</a>
</g>
</g>
<!-- dir_cebca0613dcb0ce3fb6e28f86b332494 -->
<g id="node13" class="node">
<title>dir_cebca0613dcb0ce3fb6e28f86b332494</title>
<g id="a_node13"><a xlink:href="dir_cebca0613dcb0ce3fb6e28f86b332494.html" target="_top" xlink:title="fourfit">
<polygon fill="white" stroke="black" points="150,-268 96,-268 96,-232 150,-232 150,-268"/>
<text text-anchor="middle" x="123" y="-247.5" font-family="FreeSans" font-size="10.00">fourfit</text>
</a>
</g>
</g>
<!-- dir_cebca0613dcb0ce3fb6e28f86b332494&#45;&gt;dir_758df28fbdbb54fb46d6d3d6484a4984 -->
<g id="edge14" class="edge">
<title>dir_cebca0613dcb0ce3fb6e28f86b332494&#45;&gt;dir_758df28fbdbb54fb46d6d3d6484a4984</title>
<path fill="none" stroke="black" d="M125.25,-231.92C128.42,-212.94 135.63,-182.06 151,-160 180.88,-117.11 196.96,-110.8 244,-88 301.94,-59.92 376.18,-45.82 419.96,-39.48"/>
<polygon fill="black" stroke="black" points="420.46,-42.94 429.88,-38.1 419.5,-36.01 420.46,-42.94"/>
<g id="a_edge14&#45;headlabel"><a xlink:href="dir_000075_000144.html" target="_top" xlink:title="1">
<text text-anchor="middle" x="417.29" y="-43.75" font-family="FreeSans" font-size="10.00">1</text>
</a>
</g>
</g>
<!-- dir_cebca0613dcb0ce3fb6e28f86b332494&#45;&gt;dir_cb2d4e92f47691559fc9d122a5e37fac -->
<g id="edge16" class="edge">
<title>dir_cebca0613dcb0ce3fb6e28f86b332494&#45;&gt;dir_cb2d4e92f47691559fc9d122a5e37fac</title>
<path fill="none" stroke="black" d="M131.8,-231.99C143.27,-211.58 165.32,-177.88 194,-160 257.59,-120.36 346.88,-110.17 396.68,-107.67"/>
<polygon fill="black" stroke="black" points="397.14,-111.15 406.98,-107.24 396.84,-104.16 397.14,-111.15"/>
<g id="a_edge16&#45;headlabel"><a xlink:href="dir_000075_000014.html" target="_top" xlink:title="3">
<text text-anchor="middle" x="393.66" y="-111.64" font-family="FreeSans" font-size="10.00">3</text>
</a>
</g>
</g>
<!-- dir_cebca0613dcb0ce3fb6e28f86b332494&#45;&gt;dir_db8d68003073a61b7114dbc4f792cfed -->
<g id="edge17" class="edge">
<title>dir_cebca0613dcb0ce3fb6e28f86b332494&#45;&gt;dir_db8d68003073a61b7114dbc4f792cfed</title>
<path fill="none" stroke="black" d="M144.63,-231.87C149.18,-228.89 154.1,-226.08 159,-224 193.09,-209.57 295.18,-192.81 350.83,-184.4"/>
<polygon fill="black" stroke="black" points="351.61,-187.83 360.98,-182.88 350.58,-180.9 351.61,-187.83"/>
<g id="a_edge17&#45;headlabel"><a xlink:href="dir_000075_000024.html" target="_top" xlink:title="2">
<text text-anchor="middle" x="348.48" y="-188.67" font-family="FreeSans" font-size="10.00">2</text>
</a>
</g>
</g>
<!-- dir_cebca0613dcb0ce3fb6e28f86b332494&#45;&gt;dir_64078e4dd55db1ba2b4e557207803e4b -->
<g id="edge13" class="edge">
<title>dir_cebca0613dcb0ce3fb6e28f86b332494&#45;&gt;dir_64078e4dd55db1ba2b4e557207803e4b</title>
<path fill="none" stroke="black" d="M147.3,-231.92C151.2,-229.24 155.2,-226.52 159,-224 170.32,-216.49 182.8,-208.48 194.1,-201.35"/>
<polygon fill="black" stroke="black" points="196.26,-204.12 202.86,-195.83 192.53,-198.2 196.26,-204.12"/>
<g id="a_edge13&#45;headlabel"><a xlink:href="dir_000075_000044.html" target="_top" xlink:title="1">
<text text-anchor="middle" x="194.73" y="-205.94" font-family="FreeSans" font-size="10.00">1</text>
</a>
</g>
</g>
<!-- dir_cebca0613dcb0ce3fb6e28f86b332494&#45;&gt;dir_9ef7e4ca5af767b4d78801a8e1d37f3e -->
<g id="edge15" class="edge">
<title>dir_cebca0613dcb0ce3fb6e28f86b332494&#45;&gt;dir_9ef7e4ca5af767b4d78801a8e1d37f3e</title>
<path fill="none" stroke="black" d="M95.68,-250C93.04,-250 90.4,-250 87.76,-250"/>
<polygon fill="black" stroke="black" points="87.58,-246.5 77.58,-250 87.58,-253.5 87.58,-246.5"/>
<g id="a_edge15&#45;headlabel"><a xlink:href="dir_000075_000026.html" target="_top" xlink:title="9">
<text text-anchor="middle" x="91.17" y="-241.16" font-family="FreeSans" font-size="10.00">9</text>
</a>
</g>
</g>
<!-- dir_97db59fee4708edccba4daf2e2c41ab1 -->
<g id="node14" class="node">
<title>dir_97db59fee4708edccba4daf2e2c41ab1</title>
<g id="a_node14"><a xlink:href="dir_97db59fee4708edccba4daf2e2c41ab1.html" target="_top" xlink:title="fourmer">
<polygon fill="white" stroke="red" points="520,-268 466,-268 466,-232 520,-232 520,-268"/>
<text text-anchor="middle" x="493" y="-247.5" font-family="FreeSans" font-size="10.00">fourmer</text>
</a>
</g>
</g>
<!-- dir_97db59fee4708edccba4daf2e2c41ab1&#45;&gt;dir_758df28fbdbb54fb46d6d3d6484a4984 -->
<g id="edge26" class="edge">
<title>dir_97db59fee4708edccba4daf2e2c41ab1&#45;&gt;dir_758df28fbdbb54fb46d6d3d6484a4984</title>
<path fill="none" stroke="black" d="M491.13,-231.99C487.76,-202.51 480.09,-140.11 470,-88 468.35,-79.5 466.23,-70.31 464.17,-62.01"/>
<polygon fill="black" stroke="black" points="467.5,-60.92 461.65,-52.09 460.72,-62.65 467.5,-60.92"/>
<g id="a_edge26&#45;headlabel"><a xlink:href="dir_000039_000144.html" target="_top" xlink:title="1">
<text text-anchor="middle" x="471.14" y="-61.2" font-family="FreeSans" font-size="10.00">1</text>
</a>
</g>
</g>
<!-- dir_97db59fee4708edccba4daf2e2c41ab1&#45;&gt;dir_cb2d4e92f47691559fc9d122a5e37fac -->
<g id="edge27" class="edge">
<title>dir_97db59fee4708edccba4daf2e2c41ab1&#45;&gt;dir_cb2d4e92f47691559fc9d122a5e37fac</title>
<path fill="none" stroke="black" d="M485.88,-231.87C475.74,-207.46 457.03,-162.43 445.07,-133.64"/>
<polygon fill="black" stroke="black" points="448.21,-132.08 441.14,-124.19 441.75,-134.77 448.21,-132.08"/>
<g id="a_edge27&#45;headlabel"><a xlink:href="dir_000039_000014.html" target="_top" xlink:title="5">
<text text-anchor="middle" x="452.21" y="-131.81" font-family="FreeSans" font-size="10.00">5</text>
</a>
</g>
</g>
<!-- dir_97db59fee4708edccba4daf2e2c41ab1&#45;&gt;dir_db8d68003073a61b7114dbc4f792cfed -->
<g id="edge28" class="edge">
<title>dir_97db59fee4708edccba4daf2e2c41ab1&#45;&gt;dir_db8d68003073a61b7114dbc4f792cfed</title>
<path fill="none" stroke="black" d="M468.67,-231.96C464.78,-229.28 460.79,-226.55 457,-224 446.05,-216.63 434.02,-208.72 423.12,-201.62"/>
<polygon fill="black" stroke="black" points="424.95,-198.64 414.66,-196.13 421.14,-204.51 424.95,-198.64"/>
<g id="a_edge28&#45;headlabel"><a xlink:href="dir_000039_000024.html" target="_top" xlink:title="3">
<text text-anchor="middle" x="429.51" y="-195.72" font-family="FreeSans" font-size="10.00">3</text>
</a>
</g>
</g>
<!-- dir_83ee83338e970cd0afba3d801181149d -->
<g id="node15" class="node">
<title>dir_83ee83338e970cd0afba3d801181149d</title>
<g id="a_node15"><a xlink:href="dir_83ee83338e970cd0afba3d801181149d.html" target="_top" xlink:title="fplot">
<polygon fill="white" stroke="red" points="664,-268 610,-268 610,-232 664,-232 664,-268"/>
<text text-anchor="middle" x="637" y="-247.5" font-family="FreeSans" font-size="10.00">fplot</text>
</a>
</g>
</g>
<!-- dir_83ee83338e970cd0afba3d801181149d&#45;&gt;dir_758df28fbdbb54fb46d6d3d6484a4984 -->
<g id="edge34" class="edge">
<title>dir_83ee83338e970cd0afba3d801181149d&#45;&gt;dir_758df28fbdbb54fb46d6d3d6484a4984</title>
<path fill="none" stroke="black" d="M632.89,-231.73C627.81,-212.86 617.85,-182.34 602,-160 571.9,-117.57 524.41,-80.3 492.04,-57.74"/>
<polygon fill="black" stroke="black" points="493.97,-54.82 483.75,-52.05 490.01,-60.59 493.97,-54.82"/>
<g id="a_edge34&#45;headlabel"><a xlink:href="dir_000077_000144.html" target="_top" xlink:title="2">
<text text-anchor="middle" x="498.54" y="-52.01" font-family="FreeSans" font-size="10.00">2</text>
</a>
</g>
</g>
<!-- dir_83ee83338e970cd0afba3d801181149d&#45;&gt;dir_cb2d4e92f47691559fc9d122a5e37fac -->
<g id="edge35" class="edge">
<title>dir_83ee83338e970cd0afba3d801181149d&#45;&gt;dir_cb2d4e92f47691559fc9d122a5e37fac</title>
<path fill="none" stroke="black" d="M613.87,-231.78C609.69,-229.01 605.29,-226.3 601,-224 571.09,-208 556.79,-216.81 530,-196 514.41,-183.89 517.8,-174.11 504,-160 493.45,-149.21 480.6,-138.84 468.8,-130.18"/>
<polygon fill="black" stroke="black" points="470.6,-127.17 460.44,-124.2 466.53,-132.86 470.6,-127.17"/>
<g id="a_edge35&#45;headlabel"><a xlink:href="dir_000077_000014.html" target="_top" xlink:title="4">
<text text-anchor="middle" x="475.18" y="-124.46" font-family="FreeSans" font-size="10.00">4</text>
</a>
</g>
</g>
<!-- dir_83ee83338e970cd0afba3d801181149d&#45;&gt;dir_db8d68003073a61b7114dbc4f792cfed -->
<g id="edge36" class="edge">
<title>dir_83ee83338e970cd0afba3d801181149d&#45;&gt;dir_db8d68003073a61b7114dbc4f792cfed</title>
<path fill="none" stroke="black" d="M615.35,-231.93C610.8,-228.94 605.89,-226.11 601,-224 542.66,-198.81 469.07,-187.3 425.43,-182.36"/>
<polygon fill="black" stroke="black" points="425.59,-178.86 415.27,-181.27 424.84,-185.82 425.59,-178.86"/>
<g id="a_edge36&#45;headlabel"><a xlink:href="dir_000077_000024.html" target="_top" xlink:title="6">
<text text-anchor="middle" x="429.47" y="-173.92" font-family="FreeSans" font-size="10.00">6</text>
</a>
</g>
</g>
<!-- dir_6673a16bbecdcc68e09241660b3c8088 -->
<g id="node16" class="node">
<title>dir_6673a16bbecdcc68e09241660b3c8088</title>
<g id="a_node16"><a xlink:href="dir_6673a16bbecdcc68e09241660b3c8088.html" target="_top" xlink:title="fringex">
<polygon fill="white" stroke="red" points="294,-268 240,-268 240,-232 294,-232 294,-268"/>
<text text-anchor="middle" x="267" y="-247.5" font-family="FreeSans" font-size="10.00">fringex</text>
</a>
</g>
</g>
<!-- dir_6673a16bbecdcc68e09241660b3c8088&#45;&gt;dir_637a76a7abf5a01e5c2aa724f3c1e96e -->
<g id="edge42" class="edge">
<title>dir_6673a16bbecdcc68e09241660b3c8088&#45;&gt;dir_637a76a7abf5a01e5c2aa724f3c1e96e</title>
<path fill="none" stroke="black" d="M288.59,-231.78C293.14,-228.8 298.07,-226.02 303,-224 343.23,-207.55 465.78,-191.04 528.36,-183.39"/>
<polygon fill="black" stroke="black" points="529.09,-186.83 538.6,-182.16 528.25,-179.88 529.09,-186.83"/>
<g id="a_edge42&#45;headlabel"><a xlink:href="dir_000018_000022.html" target="_top" xlink:title="2">
<text text-anchor="middle" x="525.86" y="-187.58" font-family="FreeSans" font-size="10.00">2</text>
</a>
</g>
</g>
<!-- dir_6673a16bbecdcc68e09241660b3c8088&#45;&gt;dir_758df28fbdbb54fb46d6d3d6484a4984 -->
<g id="edge40" class="edge">
<title>dir_6673a16bbecdcc68e09241660b3c8088&#45;&gt;dir_758df28fbdbb54fb46d6d3d6484a4984</title>
<path fill="none" stroke="black" d="M276.32,-231.8C293.95,-200.37 334.8,-132.79 383,-88 394.66,-77.16 408.61,-66.65 421.23,-57.88"/>
<polygon fill="black" stroke="black" points="423.42,-60.62 429.71,-52.1 419.48,-54.84 423.42,-60.62"/>
<g id="a_edge40&#45;headlabel"><a xlink:href="dir_000018_000144.html" target="_top" xlink:title="2">
<text text-anchor="middle" x="422.04" y="-62.49" font-family="FreeSans" font-size="10.00">2</text>
</a>
</g>
</g>
<!-- dir_6673a16bbecdcc68e09241660b3c8088&#45;&gt;dir_cb2d4e92f47691559fc9d122a5e37fac -->
<g id="edge41" class="edge">
<title>dir_6673a16bbecdcc68e09241660b3c8088&#45;&gt;dir_cb2d4e92f47691559fc9d122a5e37fac</title>
<path fill="none" stroke="black" d="M288.98,-231.76C300.88,-221.92 315.45,-208.98 327,-196 339.95,-181.45 338,-173.54 352,-160 365.55,-146.9 382.79,-135.18 397.97,-126.11"/>
<polygon fill="black" stroke="black" points="399.73,-129.14 406.62,-121.09 396.22,-123.08 399.73,-129.14"/>
<g id="a_edge41&#45;headlabel"><a xlink:href="dir_000018_000014.html" target="_top" xlink:title="4">
<text text-anchor="middle" x="398.05" y="-130.9" font-family="FreeSans" font-size="10.00">4</text>
</a>
</g>
</g>
<!-- dir_6673a16bbecdcc68e09241660b3c8088&#45;&gt;dir_db8d68003073a61b7114dbc4f792cfed -->
<g id="edge43" class="edge">
<title>dir_6673a16bbecdcc68e09241660b3c8088&#45;&gt;dir_db8d68003073a61b7114dbc4f792cfed</title>
<path fill="none" stroke="black" d="M290.75,-231.92C294.78,-229.19 298.97,-226.45 303,-224 318.59,-214.51 336.36,-204.92 351.61,-197.04"/>
<polygon fill="black" stroke="black" points="353.43,-200.04 360.74,-192.38 350.24,-193.81 353.43,-200.04"/>
<g id="a_edge43&#45;headlabel"><a xlink:href="dir_000018_000024.html" target="_top" xlink:title="2">
<text text-anchor="middle" x="351.52" y="-201.71" font-family="FreeSans" font-size="10.00">2</text>
</a>
</g>
</g>
<!-- dir_6673a16bbecdcc68e09241660b3c8088&#45;&gt;dir_64078e4dd55db1ba2b4e557207803e4b -->
<g id="edge44" class="edge">
<title>dir_6673a16bbecdcc68e09241660b3c8088&#45;&gt;dir_64078e4dd55db1ba2b4e557207803e4b</title>
<path fill="none" stroke="black" d="M257.85,-231.7C253.6,-223.64 248.44,-213.89 243.73,-204.98"/>
<polygon fill="black" stroke="black" points="246.81,-203.31 239.04,-196.1 240.62,-206.58 246.81,-203.31"/>
<g id="a_edge44&#45;headlabel"><a xlink:href="dir_000018_000044.html" target="_top" xlink:title="1">
<text text-anchor="middle" x="251" y="-202.66" font-family="FreeSans" font-size="10.00">1</text>
</a>
</g>
</g>
<!-- dir_3a2f93aa10a622dd9810c10898bc9760 -->
<g id="node17" class="node">
<title>dir_3a2f93aa10a622dd9810c10898bc9760</title>
<g id="a_node17"><a xlink:href="dir_3a2f93aa10a622dd9810c10898bc9760.html" target="_top" xlink:title="legacy">
<polygon fill="white" stroke="red" points="448,-268 394,-268 394,-232 448,-232 448,-268"/>
<text text-anchor="middle" x="421" y="-247.5" font-family="FreeSans" font-size="10.00">legacy</text>
</a>
</g>
</g>
<!-- dir_3a2f93aa10a622dd9810c10898bc9760&#45;&gt;dir_cb2d4e92f47691559fc9d122a5e37fac -->
<g id="edge31" class="edge">
<title>dir_3a2f93aa10a622dd9810c10898bc9760&#45;&gt;dir_cb2d4e92f47691559fc9d122a5e37fac</title>
<path fill="none" stroke="black" d="M422.57,-231.87C424.78,-207.67 428.85,-163.21 431.49,-134.39"/>
<polygon fill="black" stroke="black" points="435,-134.47 432.43,-124.19 428.03,-133.83 435,-134.47"/>
<g id="a_edge31&#45;headlabel"><a xlink:href="dir_000059_000014.html" target="_top" xlink:title="2">
<text text-anchor="middle" x="437.5" y="-135.81" font-family="FreeSans" font-size="10.00">2</text>
</a>
</g>
</g>
<!-- dir_3a2f93aa10a622dd9810c10898bc9760&#45;&gt;dir_db8d68003073a61b7114dbc4f792cfed -->
<g id="edge30" class="edge">
<title>dir_3a2f93aa10a622dd9810c10898bc9760&#45;&gt;dir_db8d68003073a61b7114dbc4f792cfed</title>
<path fill="none" stroke="black" d="M412.84,-231.7C409.09,-223.73 404.55,-214.1 400.38,-205.26"/>
<polygon fill="black" stroke="black" points="403.49,-203.66 396.06,-196.1 397.16,-206.64 403.49,-203.66"/>
<g id="a_edge30&#45;headlabel"><a xlink:href="dir_000059_000024.html" target="_top" xlink:title="58">
<text text-anchor="middle" x="407.59" y="-203.2" font-family="FreeSans" font-size="10.00">58</text>
</a>
</g>
</g>
<!-- dir_ad5b12cdd0e5859b1349e1ee1ebbb92b -->
<g id="node18" class="node">
<title>dir_ad5b12cdd0e5859b1349e1ee1ebbb92b</title>
<g id="a_node18"><a xlink:href="dir_ad5b12cdd0e5859b1349e1ee1ebbb92b.html" target="_top" xlink:title="search">
<polygon fill="white" stroke="red" points="880,-268 826,-268 826,-232 880,-232 880,-268"/>
<text text-anchor="middle" x="853" y="-247.5" font-family="FreeSans" font-size="10.00">search</text>
</a>
</g>
</g>
<!-- dir_ad5b12cdd0e5859b1349e1ee1ebbb92b&#45;&gt;dir_637a76a7abf5a01e5c2aa724f3c1e96e -->
<g id="edge23" class="edge">
<title>dir_ad5b12cdd0e5859b1349e1ee1ebbb92b&#45;&gt;dir_637a76a7abf5a01e5c2aa724f3c1e96e</title>
<path fill="none" stroke="black" d="M831.4,-231.81C826.84,-228.83 821.92,-226.04 817,-224 745.01,-194.22 653.38,-184.12 603.14,-180.71"/>
<polygon fill="black" stroke="black" points="603.26,-177.21 593.06,-180.08 602.83,-184.2 603.26,-177.21"/>
<g id="a_edge23&#45;headlabel"><a xlink:href="dir_000049_000022.html" target="_top" xlink:title="2">
<text text-anchor="middle" x="607.03" y="-172.1" font-family="FreeSans" font-size="10.00">2</text>
</a>
</g>
</g>
<!-- dir_ad5b12cdd0e5859b1349e1ee1ebbb92b&#45;&gt;dir_758df28fbdbb54fb46d6d3d6484a4984 -->
<g id="edge24" class="edge">
<title>dir_ad5b12cdd0e5859b1349e1ee1ebbb92b&#45;&gt;dir_758df28fbdbb54fb46d6d3d6484a4984</title>
<path fill="none" stroke="black" d="M831.4,-231.84C790.34,-199.89 697.3,-130.65 610,-88 571.82,-69.35 525.4,-54.25 493.76,-45"/>
<polygon fill="black" stroke="black" points="494.62,-41.61 484.04,-42.21 492.69,-48.34 494.62,-41.61"/>
<g id="a_edge24&#45;headlabel"><a xlink:href="dir_000049_000144.html" target="_top" xlink:title="1">
<text text-anchor="middle" x="498.86" y="-37.37" font-family="FreeSans" font-size="10.00">1</text>
</a>
</g>
</g>
<!-- dir_ad5b12cdd0e5859b1349e1ee1ebbb92b&#45;&gt;dir_cb2d4e92f47691559fc9d122a5e37fac -->
<g id="edge25" class="edge">
<title>dir_ad5b12cdd0e5859b1349e1ee1ebbb92b&#45;&gt;dir_cb2d4e92f47691559fc9d122a5e37fac</title>
<path fill="none" stroke="black" d="M829.8,-231.91C825.63,-229.12 821.25,-226.37 817,-224 754.77,-189.29 737.73,-182.13 670,-160 601.35,-137.57 518.42,-121.36 471.38,-113.13"/>
<polygon fill="black" stroke="black" points="471.8,-109.65 461.35,-111.4 470.61,-116.55 471.8,-109.65"/>
<g id="a_edge25&#45;headlabel"><a xlink:href="dir_000049_000014.html" target="_top" xlink:title="1">
<text text-anchor="middle" x="475.82" y="-104.96" font-family="FreeSans" font-size="10.00">1</text>
</a>
</g>
</g>
<!-- dir_cba8cb8cd350fb042f61166ca7691c03 -->
<g id="node19" class="node">
<title>dir_cba8cb8cd350fb042f61166ca7691c03</title>
<g id="a_node19"><a xlink:href="dir_cba8cb8cd350fb042f61166ca7691c03.html" target="_top" xlink:title="snratio">
<polygon fill="white" stroke="black" points="952,-268 898,-268 898,-232 952,-232 952,-268"/>
<text text-anchor="middle" x="925" y="-247.5" font-family="FreeSans" font-size="10.00">snratio</text>
</a>
</g>
</g>
<!-- dir_cba8cb8cd350fb042f61166ca7691c03&#45;&gt;dir_637a76a7abf5a01e5c2aa724f3c1e96e -->
<g id="edge4" class="edge">
<title>dir_cba8cb8cd350fb042f61166ca7691c03&#45;&gt;dir_637a76a7abf5a01e5c2aa724f3c1e96e</title>
<path fill="none" stroke="black" d="M903.85,-231.91C899.18,-228.85 894.1,-225.99 889,-224 790.8,-185.61 664.55,-179.26 603.02,-178.65"/>
<polygon fill="black" stroke="black" points="603.03,-175.15 593.01,-178.6 602.99,-182.15 603.03,-175.15"/>
<g id="a_edge4&#45;headlabel"><a xlink:href="dir_000151_000022.html" target="_top" xlink:title="1">
<text text-anchor="middle" x="606.64" y="-169.83" font-family="FreeSans" font-size="10.00">1</text>
</a>
</g>
</g>
<!-- dir_cba8cb8cd350fb042f61166ca7691c03&#45;&gt;dir_758df28fbdbb54fb46d6d3d6484a4984 -->
<g id="edge5" class="edge">
<title>dir_cba8cb8cd350fb042f61166ca7691c03&#45;&gt;dir_758df28fbdbb54fb46d6d3d6484a4984</title>
<path fill="none" stroke="black" d="M900.49,-231.77C853.41,-199.38 746.22,-129.02 647,-88 595.58,-66.74 532.89,-51.12 493.96,-42.54"/>
<polygon fill="black" stroke="black" points="494.62,-39.1 484.11,-40.41 493.14,-45.95 494.62,-39.1"/>
<g id="a_edge5&#45;headlabel"><a xlink:href="dir_000151_000144.html" target="_top" xlink:title="1">
<text text-anchor="middle" x="498.74" y="-34.59" font-family="FreeSans" font-size="10.00">1</text>
</a>
</g>
</g>
</g>
</svg>
