<?xml version="1.0" encoding="UTF-8" standalone="no"?>
<!DOCTYPE svg PUBLIC "-//W3C//DTD SVG 1.1//EN"
 "http://www.w3.org/Graphics/SVG/1.1/DTD/svg11.dtd">
<!-- Generated by graphviz version 2.43.0 (0)
 -->
<!-- Title: average Pages: 1 -->
<svg width="194pt" height="375pt"
 viewBox="0.00 0.00 194.00 375.00" xmlns="http://www.w3.org/2000/svg" xmlns:xlink="http://www.w3.org/1999/xlink">
<g id="graph0" class="graph" transform="scale(1 1) rotate(0) translate(4 371)">
<title>average</title>
<polygon fill="white" stroke="transparent" points="-4,4 -4,-371 190,-371 190,4 -4,4"/>
<g id="clust1" class="cluster">
<title>clusterdir_9de42bc92121356a26b664e34e3ff194</title>
<g id="a_clust1"><a xlink:href="dir_9de42bc92121356a26b664e34e3ff194.html" target="_top" xlink:title="applications">
<polygon fill="#ddddee" stroke="black" points="20,-200 20,-359 178,-359 178,-200 20,-200"/>
<text text-anchor="middle" x="99" y="-347" font-family="FreeSans" font-size="10.00">applications</text>
</a>
</g>
</g>
<g id="clust2" class="cluster">
<title>clusterdir_4331365e84e951a00e6b513ced68405c</title>
<g id="a_clust2"><a xlink:href="dir_4331365e84e951a00e6b513ced68405c.html" target="_top">
<polygon fill="#eeeeff" stroke="black" points="28,-208 28,-332 170,-332 170,-208 28,-208"/>
</a>
</g>
</g>
<!-- dir_4331365e84e951a00e6b513ced68405c -->
<g id="node1" class="node">
<title>dir_4331365e84e951a00e6b513ced68405c</title>
<text text-anchor="middle" x="63" y="-303.5" font-family="FreeSans" font-size="10.00">average</text>
</g>
<!-- dir_37a4a297df559b2b48db0c69fc17cf66 -->
<g id="node2" class="node">
<title>dir_37a4a297df559b2b48db0c69fc17cf66</title>
<g id="a_node2"><a xlink:href="dir_37a4a297df559b2b48db0c69fc17cf66.html" target="_top" xlink:title="include">
<polygon fill="white" stroke="black" points="90,-252 36,-252 36,-216 90,-216 90,-252"/>
<text text-anchor="middle" x="63" y="-231.5" font-family="FreeSans" font-size="10.00">include</text>
</a>
</g>
</g>
<!-- dir_4331365e84e951a00e6b513ced68405c&#45;&gt;dir_37a4a297df559b2b48db0c69fc17cf66 -->
<g id="edge9" class="edge">
<title>dir_4331365e84e951a00e6b513ced68405c&#45;&gt;dir_37a4a297df559b2b48db0c69fc17cf66</title>
<path fill="none" stroke="black" d="M63,-287.7C63,-279.98 63,-270.71 63,-262.11"/>
<polygon fill="black" stroke="black" points="66.5,-262.1 63,-252.1 59.5,-262.1 66.5,-262.1"/>
<g id="a_edge9&#45;headlabel"><a xlink:href="dir_000041_000043.html" target="_top" xlink:title="13">
<text text-anchor="middle" x="69.34" y="-263.2" font-family="FreeSans" font-size="10.00">13</text>
</a>
</g>
</g>
<!-- dir_758df28fbdbb54fb46d6d3d6484a4984 -->
<g id="node4" class="node">
<title>dir_758df28fbdbb54fb46d6d3d6484a4984</title>
<g id="a_node4"><a xlink:href="dir_758df28fbdbb54fb46d6d3d6484a4984.html" target="_top" xlink:title="msg">
<polygon fill="white" stroke="red" points="54,-36 0,-36 0,0 54,0 54,-36"/>
<text text-anchor="middle" x="27" y="-15.5" font-family="FreeSans" font-size="10.00">msg</text>
</a>
</g>
</g>
<!-- dir_4331365e84e951a00e6b513ced68405c&#45;&gt;dir_758df28fbdbb54fb46d6d3d6484a4984 -->
<g id="edge10" class="edge">
<title>dir_4331365e84e951a00e6b513ced68405c&#45;&gt;dir_758df28fbdbb54fb46d6d3d6484a4984</title>
<path fill="none" stroke="black" d="M48.54,-287.97C40.92,-278.09 32.12,-265.05 27,-252 -2.31,-177.34 4.38,-151.63 14,-72 15.02,-63.53 16.93,-54.47 18.98,-46.28"/>
<polygon fill="black" stroke="black" points="22.4,-47.03 21.59,-36.47 15.64,-45.23 22.4,-47.03"/>
<g id="a_edge10&#45;headlabel"><a xlink:href="dir_000041_000144.html" target="_top" xlink:title="2">
<text text-anchor="middle" x="24.22" y="-48.74" font-family="FreeSans" font-size="10.00">2</text>
</a>
</g>
</g>
<!-- dir_cb2d4e92f47691559fc9d122a5e37fac -->
<g id="node5" class="node">
<title>dir_cb2d4e92f47691559fc9d122a5e37fac</title>
<g id="a_node5"><a xlink:href="dir_cb2d4e92f47691559fc9d122a5e37fac.html" target="_top" xlink:title="mk4util">
<polygon fill="white" stroke="red" points="140,-108 86,-108 86,-72 140,-72 140,-108"/>
<text text-anchor="middle" x="113" y="-87.5" font-family="FreeSans" font-size="10.00">mk4util</text>
</a>
</g>
</g>
<!-- dir_4331365e84e951a00e6b513ced68405c&#45;&gt;dir_cb2d4e92f47691559fc9d122a5e37fac -->
<g id="edge11" class="edge">
<title>dir_4331365e84e951a00e6b513ced68405c&#45;&gt;dir_cb2d4e92f47691559fc9d122a5e37fac</title>
<path fill="none" stroke="black" d="M78.16,-287.62C85.79,-277.84 94.38,-265 99,-252 114.96,-207.11 115.91,-150.94 114.74,-118.2"/>
<polygon fill="black" stroke="black" points="118.23,-117.88 114.28,-108.04 111.23,-118.19 118.23,-117.88"/>
<g id="a_edge11&#45;headlabel"><a xlink:href="dir_000041_000014.html" target="_top" xlink:title="9">
<text text-anchor="middle" x="121.22" y="-118.84" font-family="FreeSans" font-size="10.00">9</text>
</a>
</g>
</g>
<!-- dir_37a4a297df559b2b48db0c69fc17cf66&#45;&gt;dir_758df28fbdbb54fb46d6d3d6484a4984 -->
<g id="edge2" class="edge">
<title>dir_37a4a297df559b2b48db0c69fc17cf66&#45;&gt;dir_758df28fbdbb54fb46d6d3d6484a4984</title>
<path fill="none" stroke="black" d="M47.39,-215.77C39.63,-206.03 31.05,-193.18 27,-180 13.12,-134.87 17.56,-79.21 22.18,-46.56"/>
<polygon fill="black" stroke="black" points="25.68,-46.83 23.73,-36.41 18.76,-45.77 25.68,-46.83"/>
<g id="a_edge2&#45;headlabel"><a xlink:href="dir_000043_000144.html" target="_top" xlink:title="1">
<text text-anchor="middle" x="27.94" y="-48.31" font-family="FreeSans" font-size="10.00">1</text>
</a>
</g>
</g>
<!-- dir_637a76a7abf5a01e5c2aa724f3c1e96e -->
<g id="node6" class="node">
<title>dir_637a76a7abf5a01e5c2aa724f3c1e96e</title>
<g id="a_node6"><a xlink:href="dir_637a76a7abf5a01e5c2aa724f3c1e96e.html" target="_top" xlink:title="afio">
<polygon fill="white" stroke="red" points="90,-180 36,-180 36,-144 90,-144 90,-180"/>
<text text-anchor="middle" x="63" y="-159.5" font-family="FreeSans" font-size="10.00">afio</text>
</a>
</g>
</g>
<!-- dir_37a4a297df559b2b48db0c69fc17cf66&#45;&gt;dir_637a76a7abf5a01e5c2aa724f3c1e96e -->
<g id="edge1" class="edge">
<title>dir_37a4a297df559b2b48db0c69fc17cf66&#45;&gt;dir_637a76a7abf5a01e5c2aa724f3c1e96e</title>
<path fill="none" stroke="black" d="M63,-215.7C63,-207.98 63,-198.71 63,-190.11"/>
<polygon fill="black" stroke="black" points="66.5,-190.1 63,-180.1 59.5,-190.1 66.5,-190.1"/>
<g id="a_edge1&#45;headlabel"><a xlink:href="dir_000043_000022.html" target="_top" xlink:title="1">
<text text-anchor="middle" x="69.34" y="-191.2" font-family="FreeSans" font-size="10.00">1</text>
</a>
</g>
</g>
<!-- dir_36456e4eab78d2da1fa9681fb069c9cc -->
<g id="node3" class="node">
<title>dir_36456e4eab78d2da1fa9681fb069c9cc</title>
<g id="a_node3"><a xlink:href="dir_36456e4eab78d2da1fa9681fb069c9cc.html" target="_top" xlink:title="src">
<polygon fill="white" stroke="black" points="162,-324 108,-324 108,-288 162,-288 162,-324"/>
<text text-anchor="middle" x="135" y="-303.5" font-family="FreeSans" font-size="10.00">src</text>
</a>
</g>
</g>
<!-- dir_36456e4eab78d2da1fa9681fb069c9cc&#45;&gt;dir_37a4a297df559b2b48db0c69fc17cf66 -->
<g id="edge6" class="edge">
<title>dir_36456e4eab78d2da1fa9681fb069c9cc&#45;&gt;dir_37a4a297df559b2b48db0c69fc17cf66</title>
<path fill="none" stroke="black" d="M117.2,-287.7C108.4,-279.14 97.62,-268.66 88,-259.3"/>
<polygon fill="black" stroke="black" points="90.2,-256.57 80.59,-252.1 85.32,-261.58 90.2,-256.57"/>
<g id="a_edge6&#45;headlabel"><a xlink:href="dir_000042_000043.html" target="_top" xlink:title="12">
<text text-anchor="middle" x="94.76" y="-254.54" font-family="FreeSans" font-size="10.00">12</text>
</a>
</g>
</g>
<!-- dir_36456e4eab78d2da1fa9681fb069c9cc&#45;&gt;dir_cb2d4e92f47691559fc9d122a5e37fac -->
<g id="edge8" class="edge">
<title>dir_36456e4eab78d2da1fa9681fb069c9cc&#45;&gt;dir_cb2d4e92f47691559fc9d122a5e37fac</title>
<path fill="none" stroke="black" d="M136.48,-287.9C138.66,-258.29 141.48,-195.7 132,-144 130.4,-135.25 127.53,-126.02 124.5,-117.77"/>
<polygon fill="black" stroke="black" points="127.7,-116.32 120.81,-108.27 121.17,-118.86 127.7,-116.32"/>
<g id="a_edge8&#45;headlabel"><a xlink:href="dir_000042_000014.html" target="_top" xlink:title="8">
<text text-anchor="middle" x="131.65" y="-116.14" font-family="FreeSans" font-size="10.00">8</text>
</a>
</g>
</g>
<!-- dir_36456e4eab78d2da1fa9681fb069c9cc&#45;&gt;dir_637a76a7abf5a01e5c2aa724f3c1e96e -->
<g id="edge7" class="edge">
<title>dir_36456e4eab78d2da1fa9681fb069c9cc&#45;&gt;dir_637a76a7abf5a01e5c2aa724f3c1e96e</title>
<path fill="none" stroke="black" d="M131.52,-287.63C126.64,-265.93 116.35,-228.24 99,-200 96.38,-195.74 93.19,-191.58 89.81,-187.67"/>
<polygon fill="black" stroke="black" points="92.09,-184.99 82.7,-180.07 86.98,-189.77 92.09,-184.99"/>
<g id="a_edge7&#45;headlabel"><a xlink:href="dir_000042_000022.html" target="_top" xlink:title="3">
<text text-anchor="middle" x="96.62" y="-183.18" font-family="FreeSans" font-size="10.00">3</text>
</a>
</g>
</g>
<!-- dir_cb2d4e92f47691559fc9d122a5e37fac&#45;&gt;dir_758df28fbdbb54fb46d6d3d6484a4984 -->
<g id="edge3" class="edge">
<title>dir_cb2d4e92f47691559fc9d122a5e37fac&#45;&gt;dir_758df28fbdbb54fb46d6d3d6484a4984</title>
<path fill="none" stroke="black" d="M91.74,-71.7C80.91,-62.88 67.58,-52.03 55.84,-42.47"/>
<polygon fill="black" stroke="black" points="57.98,-39.7 48.01,-36.1 53.56,-45.13 57.98,-39.7"/>
<g id="a_edge3&#45;headlabel"><a xlink:href="dir_000014_000144.html" target="_top" xlink:title="3">
<text text-anchor="middle" x="62.56" y="-37.27" font-family="FreeSans" font-size="10.00">3</text>
</a>
</g>
</g>
<!-- dir_637a76a7abf5a01e5c2aa724f3c1e96e&#45;&gt;dir_758df28fbdbb54fb46d6d3d6484a4984 -->
<g id="edge5" class="edge">
<title>dir_637a76a7abf5a01e5c2aa724f3c1e96e&#45;&gt;dir_758df28fbdbb54fb46d6d3d6484a4984</title>
<path fill="none" stroke="black" d="M58.66,-143.87C52.5,-119.56 41.15,-74.82 33.85,-46.01"/>
<polygon fill="black" stroke="black" points="37.21,-45.02 31.36,-36.19 30.42,-46.74 37.21,-45.02"/>
<g id="a_edge5&#45;headlabel"><a xlink:href="dir_000022_000144.html" target="_top" xlink:title="1">
<text text-anchor="middle" x="40.84" y="-45.31" font-family="FreeSans" font-size="10.00">1</text>
</a>
</g>
</g>
<!-- dir_637a76a7abf5a01e5c2aa724f3c1e96e&#45;&gt;dir_cb2d4e92f47691559fc9d122a5e37fac -->
<g id="edge4" class="edge">
<title>dir_637a76a7abf5a01e5c2aa724f3c1e96e&#45;&gt;dir_cb2d4e92f47691559fc9d122a5e37fac</title>
<path fill="none" stroke="black" d="M75.36,-143.7C81.23,-135.47 88.37,-125.48 94.84,-116.42"/>
<polygon fill="black" stroke="black" points="97.82,-118.28 100.78,-108.1 92.12,-114.21 97.82,-118.28"/>
<g id="a_edge4&#45;headlabel"><a xlink:href="dir_000022_000014.html" target="_top" xlink:title="17">
<text text-anchor="middle" x="98.04" y="-120.35" font-family="FreeSans" font-size="10.00">17</text>
</a>
</g>
</g>
</g>
</svg>
