<?xml version="1.0" encoding="UTF-8" standalone="no"?>
<!DOCTYPE svg PUBLIC "-//W3C//DTD SVG 1.1//EN"
 "http://www.w3.org/Graphics/SVG/1.1/DTD/svg11.dtd">
<!-- Generated by graphviz version 2.43.0 (0)
 -->
<!-- Title: include Pages: 1 -->
<svg width="350pt" height="439pt"
 viewBox="0.00 0.00 349.62 439.00" xmlns="http://www.w3.org/2000/svg" xmlns:xlink="http://www.w3.org/1999/xlink">
<g id="graph0" class="graph" transform="scale(1 1) rotate(0) translate(4 435)">
<title>include</title>
<polygon fill="white" stroke="transparent" points="-4,4 -4,-435 345.62,-435 345.62,4 -4,4"/>
<g id="clust1" class="cluster">
<title>clusterdir_33a62e81222a3378099f7b5a2aa63b54</title>
<g id="a_clust1"><a xlink:href="dir_33a62e81222a3378099f7b5a2aa63b54.html" target="_top" xlink:title="Operators">
<polygon fill="#ddddee" stroke="black" points="140,-352 140,-423 210,-423 210,-352 140,-352"/>
<text text-anchor="middle" x="175" y="-411" font-family="FreeSans" font-size="10.00">Operators</text>
</a>
</g>
</g>
<!-- dir_5f54002e10037f8fa6b21f97509f63d1 -->
<g id="node1" class="node">
<title>dir_5f54002e10037f8fa6b21f97509f63d1</title>
<g id="a_node1"><a xlink:href="dir_5f54002e10037f8fa6b21f97509f63d1.html" target="_top" xlink:title="include">
<polygon fill="#eeeeff" stroke="black" points="202,-396 148,-396 148,-360 202,-360 202,-396"/>
<text text-anchor="middle" x="175" y="-375.5" font-family="FreeSans" font-size="10.00">include</text>
</a>
</g>
</g>
<!-- dir_150f406a44a04ce55518da03ec553ece -->
<g id="node2" class="node">
<title>dir_150f406a44a04ce55518da03ec553ece</title>
<g id="a_node2"><a xlink:href="dir_150f406a44a04ce55518da03ec553ece.html" target="_top" xlink:title="Utilities">
<polygon fill="white" stroke="red" points="255,-180 201,-180 201,-144 255,-144 255,-180"/>
<text text-anchor="middle" x="228" y="-159.5" font-family="FreeSans" font-size="10.00">Utilities</text>
</a>
</g>
</g>
<!-- dir_5f54002e10037f8fa6b21f97509f63d1&#45;&gt;dir_150f406a44a04ce55518da03ec553ece -->
<g id="edge14" class="edge">
<title>dir_5f54002e10037f8fa6b21f97509f63d1&#45;&gt;dir_150f406a44a04ce55518da03ec553ece</title>
<path fill="none" stroke="black" d="M180.27,-359.71C187.51,-335.69 200.66,-290.78 210,-252 214.95,-231.44 219.66,-207.99 223.01,-190.32"/>
<polygon fill="black" stroke="black" points="226.52,-190.62 224.92,-180.14 219.64,-189.33 226.52,-190.62"/>
<g id="a_edge14&#45;headlabel"><a xlink:href="dir_000109_000086.html" target="_top" xlink:title="2">
<text text-anchor="middle" x="228.65" y="-192.17" font-family="FreeSans" font-size="10.00">2</text>
</a>
</g>
</g>
<!-- dir_32348ece3c89569e6a714937ae854c89 -->
<g id="node3" class="node">
<title>dir_32348ece3c89569e6a714937ae854c89</title>
<g id="a_node3"><a xlink:href="dir_32348ece3c89569e6a714937ae854c89.html" target="_top" xlink:title="Message">
<polygon fill="white" stroke="red" points="217,-36 161,-36 161,0 217,0 217,-36"/>
<text text-anchor="middle" x="189" y="-15.5" font-family="FreeSans" font-size="10.00">Message</text>
</a>
</g>
</g>
<!-- dir_5f54002e10037f8fa6b21f97509f63d1&#45;&gt;dir_32348ece3c89569e6a714937ae854c89 -->
<g id="edge15" class="edge">
<title>dir_5f54002e10037f8fa6b21f97509f63d1&#45;&gt;dir_32348ece3c89569e6a714937ae854c89</title>
<path fill="none" stroke="black" d="M147.64,-370.04C121.48,-362.28 82.13,-347.63 55,-324 19.94,-293.46 0,-281.5 0,-235 0,-235 0,-235 0,-161 0,-86.24 95.7,-45.97 150.9,-28.97"/>
<polygon fill="black" stroke="black" points="152.11,-32.26 160.7,-26.06 150.12,-25.55 152.11,-32.26"/>
<g id="a_edge15&#45;headlabel"><a xlink:href="dir_000109_000123.html" target="_top" xlink:title="4">
<text text-anchor="middle" x="149.47" y="-33.5" font-family="FreeSans" font-size="10.00">4</text>
</a>
</g>
</g>
<!-- dir_4546011bd625f1142c4c4ae06dcdb5ba -->
<g id="node4" class="node">
<title>dir_4546011bd625f1142c4c4ae06dcdb5ba</title>
<g id="a_node4"><a xlink:href="dir_4546011bd625f1142c4c4ae06dcdb5ba.html" target="_top" xlink:title="Operators">
<polygon fill="white" stroke="red" points="315.5,-324 256.5,-324 256.5,-288 315.5,-288 315.5,-324"/>
<text text-anchor="middle" x="286" y="-303.5" font-family="FreeSans" font-size="10.00">Operators</text>
</a>
</g>
</g>
<!-- dir_5f54002e10037f8fa6b21f97509f63d1&#45;&gt;dir_4546011bd625f1142c4c4ae06dcdb5ba -->
<g id="edge16" class="edge">
<title>dir_5f54002e10037f8fa6b21f97509f63d1&#45;&gt;dir_4546011bd625f1142c4c4ae06dcdb5ba</title>
<path fill="none" stroke="black" d="M202.15,-359.88C216.53,-350.81 234.38,-339.55 249.91,-329.76"/>
<polygon fill="black" stroke="black" points="252.15,-332.48 258.74,-324.19 248.42,-326.56 252.15,-332.48"/>
<g id="a_edge16&#45;headlabel"><a xlink:href="dir_000109_000089.html" target="_top" xlink:title="11">
<text text-anchor="middle" x="250.62" y="-334.3" font-family="FreeSans" font-size="10.00">11</text>
</a>
</g>
</g>
<!-- dir_a06008c3e245d1092ba6894d6caedef2 -->
<g id="node5" class="node">
<title>dir_a06008c3e245d1092ba6894d6caedef2</title>
<g id="a_node5"><a xlink:href="dir_a06008c3e245d1092ba6894d6caedef2.html" target="_top" xlink:title="Containers">
<polygon fill="white" stroke="red" points="201.5,-252 138.5,-252 138.5,-216 201.5,-216 201.5,-252"/>
<text text-anchor="middle" x="170" y="-231.5" font-family="FreeSans" font-size="10.00">Containers</text>
</a>
</g>
</g>
<!-- dir_5f54002e10037f8fa6b21f97509f63d1&#45;&gt;dir_a06008c3e245d1092ba6894d6caedef2 -->
<g id="edge17" class="edge">
<title>dir_5f54002e10037f8fa6b21f97509f63d1&#45;&gt;dir_a06008c3e245d1092ba6894d6caedef2</title>
<path fill="none" stroke="black" d="M174.4,-359.87C173.54,-335.67 171.98,-291.21 170.96,-262.39"/>
<polygon fill="black" stroke="black" points="174.46,-262.06 170.61,-252.19 167.46,-262.31 174.46,-262.06"/>
<g id="a_edge17&#45;headlabel"><a xlink:href="dir_000109_000096.html" target="_top" xlink:title="7">
<text text-anchor="middle" x="177.42" y="-263.05" font-family="FreeSans" font-size="10.00">7</text>
</a>
</g>
</g>
<!-- dir_c452024336701c9bf6340e0043ea0543 -->
<g id="node6" class="node">
<title>dir_c452024336701c9bf6340e0043ea0543</title>
<g id="a_node6"><a xlink:href="dir_c452024336701c9bf6340e0043ea0543.html" target="_top" xlink:title="Core">
<polygon fill="white" stroke="red" points="82,-252 28,-252 28,-216 82,-216 82,-252"/>
<text text-anchor="middle" x="55" y="-231.5" font-family="FreeSans" font-size="10.00">Core</text>
</a>
</g>
</g>
<!-- dir_5f54002e10037f8fa6b21f97509f63d1&#45;&gt;dir_c452024336701c9bf6340e0043ea0543 -->
<g id="edge18" class="edge">
<title>dir_5f54002e10037f8fa6b21f97509f63d1&#45;&gt;dir_c452024336701c9bf6340e0043ea0543</title>
<path fill="none" stroke="black" d="M148,-369.89C124.81,-362.36 92.31,-348.14 74,-324 60.61,-306.34 56.19,-281.32 54.93,-262.3"/>
<polygon fill="black" stroke="black" points="58.42,-262.02 54.51,-252.17 51.42,-262.3 58.42,-262.02"/>
<g id="a_edge18&#45;headlabel"><a xlink:href="dir_000109_000082.html" target="_top" xlink:title="12">
<text text-anchor="middle" x="61.4" y="-262.99" font-family="FreeSans" font-size="10.00">12</text>
</a>
</g>
</g>
<!-- dir_e2fcaed8db8bcf350f433431a993c8b5 -->
<g id="node7" class="node">
<title>dir_e2fcaed8db8bcf350f433431a993c8b5</title>
<g id="a_node7"><a xlink:href="dir_e2fcaed8db8bcf350f433431a993c8b5.html" target="_top" xlink:title="Containers">
<polygon fill="white" stroke="red" points="146.5,-324 83.5,-324 83.5,-288 146.5,-288 146.5,-324"/>
<text text-anchor="middle" x="115" y="-303.5" font-family="FreeSans" font-size="10.00">Containers</text>
</a>
</g>
</g>
<!-- dir_5f54002e10037f8fa6b21f97509f63d1&#45;&gt;dir_e2fcaed8db8bcf350f433431a993c8b5 -->
<g id="edge19" class="edge">
<title>dir_5f54002e10037f8fa6b21f97509f63d1&#45;&gt;dir_e2fcaed8db8bcf350f433431a993c8b5</title>
<path fill="none" stroke="black" d="M160.17,-359.7C152.98,-351.3 144.2,-341.07 136.31,-331.86"/>
<polygon fill="black" stroke="black" points="138.83,-329.42 129.66,-324.1 133.51,-333.97 138.83,-329.42"/>
<g id="a_edge19&#45;headlabel"><a xlink:href="dir_000109_000132.html" target="_top" xlink:title="2">
<text text-anchor="middle" x="143.32" y="-327.8" font-family="FreeSans" font-size="10.00">2</text>
</a>
</g>
</g>
<!-- dir_ff42852cc454de79d2ecb9482f4de9d8 -->
<g id="node8" class="node">
<title>dir_ff42852cc454de79d2ecb9482f4de9d8</title>
<g id="a_node8"><a xlink:href="dir_ff42852cc454de79d2ecb9482f4de9d8.html" target="_top" xlink:title="Math">
<polygon fill="white" stroke="red" points="290,-108 236,-108 236,-72 290,-72 290,-108"/>
<text text-anchor="middle" x="263" y="-87.5" font-family="FreeSans" font-size="10.00">Math</text>
</a>
</g>
</g>
<!-- dir_5f54002e10037f8fa6b21f97509f63d1&#45;&gt;dir_ff42852cc454de79d2ecb9482f4de9d8 -->
<g id="edge20" class="edge">
<title>dir_5f54002e10037f8fa6b21f97509f63d1&#45;&gt;dir_ff42852cc454de79d2ecb9482f4de9d8</title>
<path fill="none" stroke="black" d="M202.29,-376.21C237.18,-373.55 296.38,-363.15 324,-324 369.86,-259.01 313.88,-161.94 282.09,-116.36"/>
<polygon fill="black" stroke="black" points="284.93,-114.32 276.28,-108.21 279.23,-118.38 284.93,-114.32"/>
<g id="a_edge20&#45;headlabel"><a xlink:href="dir_000109_000099.html" target="_top" xlink:title="7">
<text text-anchor="middle" x="289.33" y="-113.1" font-family="FreeSans" font-size="10.00">7</text>
</a>
</g>
</g>
<!-- dir_150f406a44a04ce55518da03ec553ece&#45;&gt;dir_32348ece3c89569e6a714937ae854c89 -->
<g id="edge12" class="edge">
<title>dir_150f406a44a04ce55518da03ec553ece&#45;&gt;dir_32348ece3c89569e6a714937ae854c89</title>
<path fill="none" stroke="black" d="M223.3,-143.87C216.62,-119.56 204.33,-74.82 196.42,-46.01"/>
<polygon fill="black" stroke="black" points="199.74,-44.91 193.72,-36.19 192.99,-46.76 199.74,-44.91"/>
<g id="a_edge12&#45;headlabel"><a xlink:href="dir_000086_000123.html" target="_top" xlink:title="13">
<text text-anchor="middle" x="203.43" y="-45.12" font-family="FreeSans" font-size="10.00">13</text>
</a>
</g>
</g>
<!-- dir_150f406a44a04ce55518da03ec553ece&#45;&gt;dir_ff42852cc454de79d2ecb9482f4de9d8 -->
<g id="edge13" class="edge">
<title>dir_150f406a44a04ce55518da03ec553ece&#45;&gt;dir_ff42852cc454de79d2ecb9482f4de9d8</title>
<path fill="none" stroke="black" d="M230.74,-143.7C233.93,-135.64 238.6,-125.89 243.46,-116.98"/>
<polygon fill="black" stroke="black" points="246.61,-118.52 248.55,-108.1 240.54,-115.04 246.61,-118.52"/>
<g id="a_edge13&#45;headlabel"><a xlink:href="dir_000086_000099.html" target="_top" xlink:title="1">
<text text-anchor="middle" x="247.29" y="-120.55" font-family="FreeSans" font-size="10.00">1</text>
</a>
</g>
</g>
<!-- dir_4546011bd625f1142c4c4ae06dcdb5ba&#45;&gt;dir_150f406a44a04ce55518da03ec553ece -->
<g id="edge5" class="edge">
<title>dir_4546011bd625f1142c4c4ae06dcdb5ba&#45;&gt;dir_150f406a44a04ce55518da03ec553ece</title>
<path fill="none" stroke="black" d="M279,-287.87C269.03,-263.46 250.64,-218.43 238.88,-189.64"/>
<polygon fill="black" stroke="black" points="242.04,-188.12 235.02,-180.19 235.56,-190.77 242.04,-188.12"/>
<g id="a_edge5&#45;headlabel"><a xlink:href="dir_000089_000086.html" target="_top" xlink:title="5">
<text text-anchor="middle" x="246.03" y="-187.88" font-family="FreeSans" font-size="10.00">5</text>
</a>
</g>
</g>
<!-- dir_4546011bd625f1142c4c4ae06dcdb5ba&#45;&gt;dir_32348ece3c89569e6a714937ae854c89 -->
<g id="edge6" class="edge">
<title>dir_4546011bd625f1142c4c4ae06dcdb5ba&#45;&gt;dir_32348ece3c89569e6a714937ae854c89</title>
<path fill="none" stroke="black" d="M293.18,-287.83C309.11,-246.83 342.64,-141.47 299,-72 283.34,-47.07 252.3,-33.59 227.18,-26.48"/>
<polygon fill="black" stroke="black" points="227.74,-23.01 217.19,-23.89 225.99,-29.78 227.74,-23.01"/>
<g id="a_edge6&#45;headlabel"><a xlink:href="dir_000089_000123.html" target="_top" xlink:title="12">
<text text-anchor="middle" x="231.94" y="-18.66" font-family="FreeSans" font-size="10.00">12</text>
</a>
</g>
</g>
<!-- dir_4546011bd625f1142c4c4ae06dcdb5ba&#45;&gt;dir_a06008c3e245d1092ba6894d6caedef2 -->
<g id="edge7" class="edge">
<title>dir_4546011bd625f1142c4c4ae06dcdb5ba&#45;&gt;dir_a06008c3e245d1092ba6894d6caedef2</title>
<path fill="none" stroke="black" d="M257.62,-287.88C242.46,-278.72 223.59,-267.34 207.26,-257.48"/>
<polygon fill="black" stroke="black" points="208.86,-254.36 198.49,-252.19 205.24,-260.35 208.86,-254.36"/>
<g id="a_edge7&#45;headlabel"><a xlink:href="dir_000089_000096.html" target="_top" xlink:title="22">
<text text-anchor="middle" x="213.4" y="-251.29" font-family="FreeSans" font-size="10.00">22</text>
</a>
</g>
</g>
<!-- dir_4546011bd625f1142c4c4ae06dcdb5ba&#45;&gt;dir_ff42852cc454de79d2ecb9482f4de9d8 -->
<g id="edge8" class="edge">
<title>dir_4546011bd625f1142c4c4ae06dcdb5ba&#45;&gt;dir_ff42852cc454de79d2ecb9482f4de9d8</title>
<path fill="none" stroke="black" d="M284.16,-287.85C280.18,-250.83 270.76,-163.18 265.94,-118.39"/>
<polygon fill="black" stroke="black" points="269.4,-117.8 264.85,-108.23 262.44,-118.55 269.4,-117.8"/>
<g id="a_edge8&#45;headlabel"><a xlink:href="dir_000089_000099.html" target="_top" xlink:title="8">
<text text-anchor="middle" x="272.61" y="-118.57" font-family="FreeSans" font-size="10.00">8</text>
</a>
</g>
</g>
<!-- dir_a06008c3e245d1092ba6894d6caedef2&#45;&gt;dir_150f406a44a04ce55518da03ec553ece -->
<g id="edge1" class="edge">
<title>dir_a06008c3e245d1092ba6894d6caedef2&#45;&gt;dir_150f406a44a04ce55518da03ec553ece</title>
<path fill="none" stroke="black" d="M184.34,-215.7C191.29,-207.3 199.77,-197.07 207.4,-187.86"/>
<polygon fill="black" stroke="black" points="210.14,-190.04 213.83,-180.1 204.75,-185.57 210.14,-190.04"/>
<g id="a_edge1&#45;headlabel"><a xlink:href="dir_000096_000086.html" target="_top" xlink:title="42">
<text text-anchor="middle" x="210.04" y="-192.12" font-family="FreeSans" font-size="10.00">42</text>
</a>
</g>
</g>
<!-- dir_a06008c3e245d1092ba6894d6caedef2&#45;&gt;dir_32348ece3c89569e6a714937ae854c89 -->
<g id="edge2" class="edge">
<title>dir_a06008c3e245d1092ba6894d6caedef2&#45;&gt;dir_32348ece3c89569e6a714937ae854c89</title>
<path fill="none" stroke="black" d="M171.52,-215.85C174.81,-178.83 182.59,-91.18 186.57,-46.39"/>
<polygon fill="black" stroke="black" points="190.07,-46.5 187.47,-36.23 183.1,-45.88 190.07,-46.5"/>
<g id="a_edge2&#45;headlabel"><a xlink:href="dir_000096_000123.html" target="_top" xlink:title="9">
<text text-anchor="middle" x="192.58" y="-47.83" font-family="FreeSans" font-size="10.00">9</text>
</a>
</g>
</g>
<!-- dir_c452024336701c9bf6340e0043ea0543&#45;&gt;dir_150f406a44a04ce55518da03ec553ece -->
<g id="edge22" class="edge">
<title>dir_c452024336701c9bf6340e0043ea0543&#45;&gt;dir_150f406a44a04ce55518da03ec553ece</title>
<path fill="none" stroke="black" d="M82.33,-221.62C86.89,-219.73 91.58,-217.81 96,-216 128.13,-202.89 164.77,-188.2 191.28,-177.62"/>
<polygon fill="black" stroke="black" points="192.92,-180.73 200.91,-173.77 190.33,-174.23 192.92,-180.73"/>
<g id="a_edge22&#45;headlabel"><a xlink:href="dir_000082_000086.html" target="_top" xlink:title="1">
<text text-anchor="middle" x="190.64" y="-182.2" font-family="FreeSans" font-size="10.00">1</text>
</a>
</g>
</g>
<!-- dir_c452024336701c9bf6340e0043ea0543&#45;&gt;dir_32348ece3c89569e6a714937ae854c89 -->
<g id="edge21" class="edge">
<title>dir_c452024336701c9bf6340e0043ea0543&#45;&gt;dir_32348ece3c89569e6a714937ae854c89</title>
<path fill="none" stroke="black" d="M65.74,-215.85C89.16,-178.44 144.97,-89.32 172.73,-44.98"/>
<polygon fill="black" stroke="black" points="175.87,-46.57 178.21,-36.23 169.94,-42.85 175.87,-46.57"/>
<g id="a_edge21&#45;headlabel"><a xlink:href="dir_000082_000123.html" target="_top" xlink:title="2">
<text text-anchor="middle" x="176.37" y="-48.62" font-family="FreeSans" font-size="10.00">2</text>
</a>
</g>
</g>
<!-- dir_e2fcaed8db8bcf350f433431a993c8b5&#45;&gt;dir_150f406a44a04ce55518da03ec553ece -->
<g id="edge9" class="edge">
<title>dir_e2fcaed8db8bcf350f433431a993c8b5&#45;&gt;dir_150f406a44a04ce55518da03ec553ece</title>
<path fill="none" stroke="black" d="M113.41,-287.93C112.52,-268.68 113.87,-237.3 129,-216 143.88,-195.05 169.68,-181.62 191.22,-173.53"/>
<polygon fill="black" stroke="black" points="192.48,-176.79 200.76,-170.17 190.16,-170.19 192.48,-176.79"/>
<g id="a_edge9&#45;headlabel"><a xlink:href="dir_000132_000086.html" target="_top" xlink:title="2">
<text text-anchor="middle" x="190.03" y="-178.16" font-family="FreeSans" font-size="10.00">2</text>
</a>
</g>
</g>
<!-- dir_e2fcaed8db8bcf350f433431a993c8b5&#45;&gt;dir_a06008c3e245d1092ba6894d6caedef2 -->
<g id="edge11" class="edge">
<title>dir_e2fcaed8db8bcf350f433431a993c8b5&#45;&gt;dir_a06008c3e245d1092ba6894d6caedef2</title>
<path fill="none" stroke="black" d="M128.6,-287.7C135.12,-279.39 143.07,-269.28 150.25,-260.14"/>
<polygon fill="black" stroke="black" points="153.13,-262.13 156.56,-252.1 147.63,-257.81 153.13,-262.13"/>
<g id="a_edge11&#45;headlabel"><a xlink:href="dir_000132_000096.html" target="_top" xlink:title="1">
<text text-anchor="middle" x="153.15" y="-264.21" font-family="FreeSans" font-size="10.00">1</text>
</a>
</g>
</g>
<!-- dir_e2fcaed8db8bcf350f433431a993c8b5&#45;&gt;dir_c452024336701c9bf6340e0043ea0543 -->
<g id="edge10" class="edge">
<title>dir_e2fcaed8db8bcf350f433431a993c8b5&#45;&gt;dir_c452024336701c9bf6340e0043ea0543</title>
<path fill="none" stroke="black" d="M100.17,-287.7C92.98,-279.3 84.2,-269.07 76.31,-259.86"/>
<polygon fill="black" stroke="black" points="78.83,-257.42 69.66,-252.1 73.51,-261.97 78.83,-257.42"/>
<g id="a_edge10&#45;headlabel"><a xlink:href="dir_000132_000082.html" target="_top" xlink:title="1">
<text text-anchor="middle" x="83.32" y="-255.8" font-family="FreeSans" font-size="10.00">1</text>
</a>
</g>
</g>
<!-- dir_ff42852cc454de79d2ecb9482f4de9d8&#45;&gt;dir_150f406a44a04ce55518da03ec553ece -->
<g id="edge4" class="edge">
<title>dir_ff42852cc454de79d2ecb9482f4de9d8&#45;&gt;dir_150f406a44a04ce55518da03ec553ece</title>
<path fill="none" stroke="black" d="M260.34,-108.1C257.17,-116.13 252.52,-125.87 247.66,-134.8"/>
<polygon fill="black" stroke="black" points="244.49,-133.28 242.57,-143.7 250.57,-136.75 244.49,-133.28"/>
<g id="a_edge4&#45;headlabel"><a xlink:href="dir_000099_000086.html" target="_top" xlink:title="1">
<text text-anchor="middle" x="243.82" y="-126.25" font-family="FreeSans" font-size="10.00">1</text>
</a>
</g>
</g>
<!-- dir_ff42852cc454de79d2ecb9482f4de9d8&#45;&gt;dir_32348ece3c89569e6a714937ae854c89 -->
<g id="edge3" class="edge">
<title>dir_ff42852cc454de79d2ecb9482f4de9d8&#45;&gt;dir_32348ece3c89569e6a714937ae854c89</title>
<path fill="none" stroke="black" d="M244.71,-71.7C235.57,-63.05 224.36,-52.45 214.4,-43.03"/>
<polygon fill="black" stroke="black" points="216.75,-40.43 207.08,-36.1 211.94,-45.52 216.75,-40.43"/>
<g id="a_edge3&#45;headlabel"><a xlink:href="dir_000099_000123.html" target="_top" xlink:title="6">
<text text-anchor="middle" x="221.31" y="-38.34" font-family="FreeSans" font-size="10.00">6</text>
</a>
</g>
</g>
</g>
</svg>
