<?xml version="1.0" encoding="UTF-8" standalone="no"?>
<!DOCTYPE svg PUBLIC "-//W3C//DTD SVG 1.1//EN"
 "http://www.w3.org/Graphics/SVG/1.1/DTD/svg11.dtd">
<!-- Generated by graphviz version 2.43.0 (0)
 -->
<!-- Title: src Pages: 1 -->
<svg width="105pt" height="167pt"
 viewBox="0.00 0.00 105.00 167.00" xmlns="http://www.w3.org/2000/svg" xmlns:xlink="http://www.w3.org/1999/xlink">
<g id="graph0" class="graph" transform="scale(1 1) rotate(0) translate(4 163)">
<title>src</title>
<polygon fill="white" stroke="transparent" points="-4,4 -4,-163 101,-163 101,4 -4,4"/>
<g id="clust1" class="cluster">
<title>clusterdir_42a987f8cfdd983be9677f634438bfef</title>
<g id="a_clust1"><a xlink:href="dir_42a987f8cfdd983be9677f634438bfef.html" target="_top" xlink:title="CUDAModules">
<polygon fill="#ddddee" stroke="black" points="8,-8 8,-151 89,-151 89,-8 8,-8"/>
<text text-anchor="middle" x="48.5" y="-139" font-family="FreeSans" font-size="10.00">CUDAModules</text>
</a>
</g>
</g>
<!-- dir_eafb08cc50b44fd3d5a5354e0f178598 -->
<g id="node1" class="node">
<title>dir_eafb08cc50b44fd3d5a5354e0f178598</title>
<g id="a_node1"><a xlink:href="dir_eafb08cc50b44fd3d5a5354e0f178598.html" target="_top" xlink:title="include">
<polygon fill="none" stroke="black" points="75,-52 21,-52 21,-16 75,-16 75,-52"/>
<text text-anchor="middle" x="48" y="-31.5" font-family="FreeSans" font-size="10.00">include</text>
</a>
</g>
</g>
<!-- dir_b12962be78f8f68eec3eadb4368d629b -->
<g id="node2" class="node">
<title>dir_b12962be78f8f68eec3eadb4368d629b</title>
<g id="a_node2"><a xlink:href="dir_b12962be78f8f68eec3eadb4368d629b.html" target="_top" xlink:title="src">
<polygon fill="#eeeeff" stroke="black" points="75,-124 21,-124 21,-88 75,-88 75,-124"/>
<text text-anchor="middle" x="48" y="-103.5" font-family="FreeSans" font-size="10.00">src</text>
</a>
</g>
</g>
<!-- dir_b12962be78f8f68eec3eadb4368d629b&#45;&gt;dir_eafb08cc50b44fd3d5a5354e0f178598 -->
<g id="edge1" class="edge">
<title>dir_b12962be78f8f68eec3eadb4368d629b&#45;&gt;dir_eafb08cc50b44fd3d5a5354e0f178598</title>
<path fill="none" stroke="black" d="M48,-87.7C48,-79.98 48,-70.71 48,-62.11"/>
<polygon fill="black" stroke="black" points="51.5,-62.1 48,-52.1 44.5,-62.1 51.5,-62.1"/>
<g id="a_edge1&#45;headlabel"><a xlink:href="dir_000121_000122.html" target="_top" xlink:title="1">
<text text-anchor="middle" x="54.34" y="-63.2" font-family="FreeSans" font-size="10.00">1</text>
</a>
</g>
</g>
</g>
</svg>
