<?xml version="1.0" encoding="UTF-8" standalone="no"?>
<!DOCTYPE svg PUBLIC "-//W3C//DTD SVG 1.1//EN"
 "http://www.w3.org/Graphics/SVG/1.1/DTD/svg11.dtd">
<!-- Generated by graphviz version 2.43.0 (0)
 -->
<!-- Title: Operators Pages: 1 -->
<svg width="188pt" height="463pt"
 viewBox="0.00 0.00 188.00 463.00" xmlns="http://www.w3.org/2000/svg" xmlns:xlink="http://www.w3.org/1999/xlink">
<g id="graph0" class="graph" transform="scale(1 1) rotate(0) translate(4 459)">
<title>Operators</title>
<polygon fill="white" stroke="transparent" points="-4,4 -4,-459 184,-459 184,4 -4,4"/>
<g id="clust1" class="cluster">
<title>clusterdir_730935399589b544a579302a37a46c03</title>
<g id="a_clust1"><a xlink:href="dir_730935399589b544a579302a37a46c03.html" target="_top" xlink:title="cpp_src">
<polygon fill="#ddddee" stroke="black" points="8,-8 8,-447 172,-447 172,-8 8,-8"/>
<text text-anchor="middle" x="90" y="-435" font-family="FreeSans" font-size="10.00">cpp_src</text>
</a>
</g>
</g>
<g id="clust2" class="cluster">
<title>clusterdir_4546011bd625f1142c4c4ae06dcdb5ba</title>
<g id="a_clust2"><a xlink:href="dir_4546011bd625f1142c4c4ae06dcdb5ba.html" target="_top">
<polygon fill="#eeeeff" stroke="black" points="16,-296 16,-420 164,-420 164,-296 16,-296"/>
</a>
</g>
</g>
<!-- dir_150f406a44a04ce55518da03ec553ece -->
<g id="node1" class="node">
<title>dir_150f406a44a04ce55518da03ec553ece</title>
<g id="a_node1"><a xlink:href="dir_150f406a44a04ce55518da03ec553ece.html" target="_top" xlink:title="Utilities">
<polygon fill="white" stroke="red" points="90,-196 36,-196 36,-160 90,-160 90,-196"/>
<text text-anchor="middle" x="63" y="-175.5" font-family="FreeSans" font-size="10.00">Utilities</text>
</a>
</g>
</g>
<!-- dir_32348ece3c89569e6a714937ae854c89 -->
<g id="node2" class="node">
<title>dir_32348ece3c89569e6a714937ae854c89</title>
<g id="a_node2"><a xlink:href="dir_32348ece3c89569e6a714937ae854c89.html" target="_top" xlink:title="Message">
<polygon fill="white" stroke="red" points="92,-52 36,-52 36,-16 92,-16 92,-52"/>
<text text-anchor="middle" x="64" y="-31.5" font-family="FreeSans" font-size="10.00">Message</text>
</a>
</g>
</g>
<!-- dir_150f406a44a04ce55518da03ec553ece&#45;&gt;dir_32348ece3c89569e6a714937ae854c89 -->
<g id="edge6" class="edge">
<title>dir_150f406a44a04ce55518da03ec553ece&#45;&gt;dir_32348ece3c89569e6a714937ae854c89</title>
<path fill="none" stroke="black" d="M56.76,-159.59C53.43,-149.37 49.68,-136.12 48,-124 45.8,-108.15 45.66,-103.83 48,-88 49.28,-79.35 51.67,-70.15 54.22,-61.89"/>
<polygon fill="black" stroke="black" points="57.55,-62.96 57.35,-52.37 50.9,-60.78 57.55,-62.96"/>
<g id="a_edge6&#45;headlabel"><a xlink:href="dir_000086_000123.html" target="_top" xlink:title="13">
<text text-anchor="middle" x="59.12" y="-64.77" font-family="FreeSans" font-size="10.00">13</text>
</a>
</g>
</g>
<!-- dir_ff42852cc454de79d2ecb9482f4de9d8 -->
<g id="node4" class="node">
<title>dir_ff42852cc454de79d2ecb9482f4de9d8</title>
<g id="a_node4"><a xlink:href="dir_ff42852cc454de79d2ecb9482f4de9d8.html" target="_top" xlink:title="Math">
<polygon fill="white" stroke="red" points="111,-124 57,-124 57,-88 111,-88 111,-124"/>
<text text-anchor="middle" x="84" y="-103.5" font-family="FreeSans" font-size="10.00">Math</text>
</a>
</g>
</g>
<!-- dir_150f406a44a04ce55518da03ec553ece&#45;&gt;dir_ff42852cc454de79d2ecb9482f4de9d8 -->
<g id="edge7" class="edge">
<title>dir_150f406a44a04ce55518da03ec553ece&#45;&gt;dir_ff42852cc454de79d2ecb9482f4de9d8</title>
<path fill="none" stroke="black" d="M62.28,-159.7C63.83,-151.81 66.46,-142.3 69.46,-133.55"/>
<polygon fill="black" stroke="black" points="72.77,-134.7 72.97,-124.1 66.21,-132.26 72.77,-134.7"/>
<g id="a_edge7&#45;headlabel"><a xlink:href="dir_000086_000099.html" target="_top" xlink:title="1">
<text text-anchor="middle" x="74.18" y="-136.56" font-family="FreeSans" font-size="10.00">1</text>
</a>
</g>
</g>
<!-- dir_a06008c3e245d1092ba6894d6caedef2 -->
<g id="node3" class="node">
<title>dir_a06008c3e245d1092ba6894d6caedef2</title>
<g id="a_node3"><a xlink:href="dir_a06008c3e245d1092ba6894d6caedef2.html" target="_top" xlink:title="Containers">
<polygon fill="white" stroke="red" points="163.5,-268 100.5,-268 100.5,-232 163.5,-232 163.5,-268"/>
<text text-anchor="middle" x="132" y="-247.5" font-family="FreeSans" font-size="10.00">Containers</text>
</a>
</g>
</g>
<!-- dir_a06008c3e245d1092ba6894d6caedef2&#45;&gt;dir_150f406a44a04ce55518da03ec553ece -->
<g id="edge2" class="edge">
<title>dir_a06008c3e245d1092ba6894d6caedef2&#45;&gt;dir_150f406a44a04ce55518da03ec553ece</title>
<path fill="none" stroke="black" d="M114.94,-231.7C106.5,-223.14 96.18,-212.66 86.96,-203.3"/>
<polygon fill="black" stroke="black" points="89.37,-200.77 79.86,-196.1 84.39,-205.68 89.37,-200.77"/>
<g id="a_edge2&#45;headlabel"><a xlink:href="dir_000096_000086.html" target="_top" xlink:title="42">
<text text-anchor="middle" x="93.92" y="-198.84" font-family="FreeSans" font-size="10.00">42</text>
</a>
</g>
</g>
<!-- dir_a06008c3e245d1092ba6894d6caedef2&#45;&gt;dir_32348ece3c89569e6a714937ae854c89 -->
<g id="edge3" class="edge">
<title>dir_a06008c3e245d1092ba6894d6caedef2&#45;&gt;dir_32348ece3c89569e6a714937ae854c89</title>
<path fill="none" stroke="black" d="M134.64,-231.52C138.44,-200.8 142.74,-135.85 120,-88 114.76,-76.97 106.13,-67.06 97.21,-58.89"/>
<polygon fill="black" stroke="black" points="99.23,-56.01 89.36,-52.16 94.68,-61.33 99.23,-56.01"/>
<g id="a_edge3&#45;headlabel"><a xlink:href="dir_000096_000123.html" target="_top" xlink:title="9">
<text text-anchor="middle" x="103.81" y="-53.7" font-family="FreeSans" font-size="10.00">9</text>
</a>
</g>
</g>
<!-- dir_ff42852cc454de79d2ecb9482f4de9d8&#45;&gt;dir_150f406a44a04ce55518da03ec553ece -->
<g id="edge5" class="edge">
<title>dir_ff42852cc454de79d2ecb9482f4de9d8&#45;&gt;dir_150f406a44a04ce55518da03ec553ece</title>
<path fill="none" stroke="black" d="M84.76,-124.1C83.23,-131.96 80.61,-141.46 77.61,-150.23"/>
<polygon fill="black" stroke="black" points="74.3,-149.1 74.11,-159.7 80.86,-151.53 74.3,-149.1"/>
<g id="a_edge5&#45;headlabel"><a xlink:href="dir_000099_000086.html" target="_top" xlink:title="1">
<text text-anchor="middle" x="72.88" y="-142.25" font-family="FreeSans" font-size="10.00">1</text>
</a>
</g>
</g>
<!-- dir_ff42852cc454de79d2ecb9482f4de9d8&#45;&gt;dir_32348ece3c89569e6a714937ae854c89 -->
<g id="edge4" class="edge">
<title>dir_ff42852cc454de79d2ecb9482f4de9d8&#45;&gt;dir_32348ece3c89569e6a714937ae854c89</title>
<path fill="none" stroke="black" d="M79.06,-87.7C76.83,-79.9 74.15,-70.51 71.67,-61.83"/>
<polygon fill="black" stroke="black" points="75,-60.76 68.89,-52.1 68.27,-62.68 75,-60.76"/>
<g id="a_edge4&#45;headlabel"><a xlink:href="dir_000099_000123.html" target="_top" xlink:title="6">
<text text-anchor="middle" x="78.72" y="-60.93" font-family="FreeSans" font-size="10.00">6</text>
</a>
</g>
</g>
<!-- dir_4546011bd625f1142c4c4ae06dcdb5ba -->
<g id="node5" class="node">
<title>dir_4546011bd625f1142c4c4ae06dcdb5ba</title>
<text text-anchor="middle" x="126" y="-391.5" font-family="FreeSans" font-size="10.00">Operators</text>
</g>
<!-- dir_b5e9aade64ae05a5887f411b6f0da59e -->
<g id="node6" class="node">
<title>dir_b5e9aade64ae05a5887f411b6f0da59e</title>
<g id="a_node6"><a xlink:href="dir_b5e9aade64ae05a5887f411b6f0da59e.html" target="_top" xlink:title="include">
<polygon fill="white" stroke="black" points="88,-340 34,-340 34,-304 88,-304 88,-340"/>
<text text-anchor="middle" x="61" y="-319.5" font-family="FreeSans" font-size="10.00">include</text>
</a>
</g>
</g>
<!-- dir_b5e9aade64ae05a5887f411b6f0da59e&#45;&gt;dir_150f406a44a04ce55518da03ec553ece -->
<g id="edge8" class="edge">
<title>dir_b5e9aade64ae05a5887f411b6f0da59e&#45;&gt;dir_150f406a44a04ce55518da03ec553ece</title>
<path fill="none" stroke="black" d="M61.24,-303.87C61.58,-279.67 62.21,-235.21 62.61,-206.39"/>
<polygon fill="black" stroke="black" points="66.12,-206.24 62.76,-196.19 59.12,-206.14 66.12,-206.24"/>
<g id="a_edge8&#45;headlabel"><a xlink:href="dir_000090_000086.html" target="_top" xlink:title="5">
<text text-anchor="middle" x="68.91" y="-207.37" font-family="FreeSans" font-size="10.00">5</text>
</a>
</g>
</g>
<!-- dir_b5e9aade64ae05a5887f411b6f0da59e&#45;&gt;dir_32348ece3c89569e6a714937ae854c89 -->
<g id="edge9" class="edge">
<title>dir_b5e9aade64ae05a5887f411b6f0da59e&#45;&gt;dir_32348ece3c89569e6a714937ae854c89</title>
<path fill="none" stroke="black" d="M53.73,-303.8C42.19,-274.55 21.52,-213.14 27,-160 30.35,-127.49 32.36,-119.23 42,-88 44.7,-79.24 48.31,-69.93 51.81,-61.6"/>
<polygon fill="black" stroke="black" points="55.05,-62.93 55.82,-52.36 48.63,-60.14 55.05,-62.93"/>
<g id="a_edge9&#45;headlabel"><a xlink:href="dir_000090_000123.html" target="_top" xlink:title="12">
<text text-anchor="middle" x="56.22" y="-64.86" font-family="FreeSans" font-size="10.00">12</text>
</a>
</g>
</g>
<!-- dir_b5e9aade64ae05a5887f411b6f0da59e&#45;&gt;dir_a06008c3e245d1092ba6894d6caedef2 -->
<g id="edge10" class="edge">
<title>dir_b5e9aade64ae05a5887f411b6f0da59e&#45;&gt;dir_a06008c3e245d1092ba6894d6caedef2</title>
<path fill="none" stroke="black" d="M78.55,-303.7C87.23,-295.14 97.86,-284.66 107.35,-275.3"/>
<polygon fill="black" stroke="black" points="109.99,-277.62 114.65,-268.1 105.07,-272.63 109.99,-277.62"/>
<g id="a_edge10&#45;headlabel"><a xlink:href="dir_000090_000096.html" target="_top" xlink:title="22">
<text text-anchor="middle" x="109.42" y="-279.66" font-family="FreeSans" font-size="10.00">22</text>
</a>
</g>
</g>
<!-- dir_b5e9aade64ae05a5887f411b6f0da59e&#45;&gt;dir_ff42852cc454de79d2ecb9482f4de9d8 -->
<g id="edge11" class="edge">
<title>dir_b5e9aade64ae05a5887f411b6f0da59e&#45;&gt;dir_ff42852cc454de79d2ecb9482f4de9d8</title>
<path fill="none" stroke="black" d="M67.94,-303.98C77.19,-280.26 93.1,-235.71 99,-196 101.35,-180.17 101.2,-175.85 99,-160 97.82,-151.48 95.61,-142.39 93.25,-134.2"/>
<polygon fill="black" stroke="black" points="96.52,-132.94 90.24,-124.41 89.83,-134.99 96.52,-132.94"/>
<g id="a_edge11&#45;headlabel"><a xlink:href="dir_000090_000099.html" target="_top" xlink:title="8">
<text text-anchor="middle" x="100.29" y="-133.04" font-family="FreeSans" font-size="10.00">8</text>
</a>
</g>
</g>
<!-- dir_84c79a0806acac4ef7f9655c65e6b06e -->
<g id="node7" class="node">
<title>dir_84c79a0806acac4ef7f9655c65e6b06e</title>
<g id="a_node7"><a xlink:href="dir_84c79a0806acac4ef7f9655c65e6b06e.html" target="_top" xlink:title="src">
<polygon fill="white" stroke="black" points="78,-412 24,-412 24,-376 78,-376 78,-412"/>
<text text-anchor="middle" x="51" y="-391.5" font-family="FreeSans" font-size="10.00">src</text>
</a>
</g>
</g>
<!-- dir_84c79a0806acac4ef7f9655c65e6b06e&#45;&gt;dir_b5e9aade64ae05a5887f411b6f0da59e -->
<g id="edge1" class="edge">
<title>dir_84c79a0806acac4ef7f9655c65e6b06e&#45;&gt;dir_b5e9aade64ae05a5887f411b6f0da59e</title>
<path fill="none" stroke="black" d="M53.47,-375.7C54.57,-367.98 55.9,-358.71 57.13,-350.11"/>
<polygon fill="black" stroke="black" points="60.61,-350.5 58.56,-340.1 53.68,-349.51 60.61,-350.5"/>
<g id="a_edge1&#45;headlabel"><a xlink:href="dir_000117_000090.html" target="_top" xlink:title="2">
<text text-anchor="middle" x="62.91" y="-351.96" font-family="FreeSans" font-size="10.00">2</text>
</a>
</g>
</g>
</g>
</svg>
