<?xml version="1.0" encoding="UTF-8" standalone="no"?>
<!DOCTYPE svg PUBLIC "-//W3C//DTD SVG 1.1//EN"
 "http://www.w3.org/Graphics/SVG/1.1/DTD/svg11.dtd">
<!-- Generated by graphviz version 2.43.0 (0)
 -->
<!-- Title: include Pages: 1 -->
<svg width="146pt" height="295pt"
 viewBox="0.00 0.00 145.50 295.00" xmlns="http://www.w3.org/2000/svg" xmlns:xlink="http://www.w3.org/1999/xlink">
<g id="graph0" class="graph" transform="scale(1 1) rotate(0) translate(4 291)">
<title>include</title>
<polygon fill="white" stroke="transparent" points="-4,4 -4,-291 141.5,-291 141.5,4 -4,4"/>
<g id="clust1" class="cluster">
<title>clusterdir_ffd3462840ed92d3b36f06c2f7a1a3a4</title>
<g id="a_clust1"><a xlink:href="dir_ffd3462840ed92d3b36f06c2f7a1a3a4.html" target="_top" xlink:title="DiFXInterface">
<polygon fill="#ddddee" stroke="black" points="8,-208 8,-279 85,-279 85,-208 8,-208"/>
<text text-anchor="middle" x="46.5" y="-267" font-family="FreeSans" font-size="10.00">DiFXInterface</text>
</a>
</g>
</g>
<!-- dir_f34f84663972769b5eb23cb9a774d90b -->
<g id="node1" class="node">
<title>dir_f34f84663972769b5eb23cb9a774d90b</title>
<g id="a_node1"><a xlink:href="dir_f34f84663972769b5eb23cb9a774d90b.html" target="_top" xlink:title="include">
<polygon fill="#eeeeff" stroke="black" points="73,-252 19,-252 19,-216 73,-216 73,-252"/>
<text text-anchor="middle" x="46" y="-231.5" font-family="FreeSans" font-size="10.00">include</text>
</a>
</g>
</g>
<!-- dir_150f406a44a04ce55518da03ec553ece -->
<g id="node2" class="node">
<title>dir_150f406a44a04ce55518da03ec553ece</title>
<g id="a_node2"><a xlink:href="dir_150f406a44a04ce55518da03ec553ece.html" target="_top" xlink:title="Utilities">
<polygon fill="white" stroke="red" points="84,-108 30,-108 30,-72 84,-72 84,-108"/>
<text text-anchor="middle" x="57" y="-87.5" font-family="FreeSans" font-size="10.00">Utilities</text>
</a>
</g>
</g>
<!-- dir_f34f84663972769b5eb23cb9a774d90b&#45;&gt;dir_150f406a44a04ce55518da03ec553ece -->
<g id="edge3" class="edge">
<title>dir_f34f84663972769b5eb23cb9a774d90b&#45;&gt;dir_150f406a44a04ce55518da03ec553ece</title>
<path fill="none" stroke="black" d="M47.33,-215.87C49.2,-191.67 52.65,-147.21 54.88,-118.39"/>
<polygon fill="black" stroke="black" points="58.39,-118.43 55.67,-108.19 51.41,-117.89 58.39,-118.43"/>
<g id="a_edge3&#45;headlabel"><a xlink:href="dir_000116_000086.html" target="_top" xlink:title="15">
<text text-anchor="middle" x="60.94" y="-119.73" font-family="FreeSans" font-size="10.00">15</text>
</a>
</g>
</g>
<!-- dir_32348ece3c89569e6a714937ae854c89 -->
<g id="node3" class="node">
<title>dir_32348ece3c89569e6a714937ae854c89</title>
<g id="a_node3"><a xlink:href="dir_32348ece3c89569e6a714937ae854c89.html" target="_top" xlink:title="Message">
<polygon fill="white" stroke="red" points="85,-36 29,-36 29,0 85,0 85,-36"/>
<text text-anchor="middle" x="57" y="-15.5" font-family="FreeSans" font-size="10.00">Message</text>
</a>
</g>
</g>
<!-- dir_f34f84663972769b5eb23cb9a774d90b&#45;&gt;dir_32348ece3c89569e6a714937ae854c89 -->
<g id="edge4" class="edge">
<title>dir_f34f84663972769b5eb23cb9a774d90b&#45;&gt;dir_32348ece3c89569e6a714937ae854c89</title>
<path fill="none" stroke="black" d="M38.34,-215.71C26.18,-185.83 5.37,-122.83 21,-72 24.01,-62.22 29.51,-52.62 35.32,-44.33"/>
<polygon fill="black" stroke="black" points="38.19,-46.33 41.39,-36.23 32.59,-42.13 38.19,-46.33"/>
<g id="a_edge4&#45;headlabel"><a xlink:href="dir_000116_000123.html" target="_top" xlink:title="6">
<text text-anchor="middle" x="38.31" y="-48.41" font-family="FreeSans" font-size="10.00">6</text>
</a>
</g>
</g>
<!-- dir_a06008c3e245d1092ba6894d6caedef2 -->
<g id="node4" class="node">
<title>dir_a06008c3e245d1092ba6894d6caedef2</title>
<g id="a_node4"><a xlink:href="dir_a06008c3e245d1092ba6894d6caedef2.html" target="_top" xlink:title="Containers">
<polygon fill="white" stroke="red" points="137.5,-180 74.5,-180 74.5,-144 137.5,-144 137.5,-180"/>
<text text-anchor="middle" x="106" y="-159.5" font-family="FreeSans" font-size="10.00">Containers</text>
</a>
</g>
</g>
<!-- dir_f34f84663972769b5eb23cb9a774d90b&#45;&gt;dir_a06008c3e245d1092ba6894d6caedef2 -->
<g id="edge5" class="edge">
<title>dir_f34f84663972769b5eb23cb9a774d90b&#45;&gt;dir_a06008c3e245d1092ba6894d6caedef2</title>
<path fill="none" stroke="black" d="M60.83,-215.7C68.02,-207.3 76.8,-197.07 84.69,-187.86"/>
<polygon fill="black" stroke="black" points="87.49,-189.97 91.34,-180.1 82.17,-185.42 87.49,-189.97"/>
<g id="a_edge5&#45;headlabel"><a xlink:href="dir_000116_000096.html" target="_top" xlink:title="5">
<text text-anchor="middle" x="87.31" y="-192.05" font-family="FreeSans" font-size="10.00">5</text>
</a>
</g>
</g>
<!-- dir_150f406a44a04ce55518da03ec553ece&#45;&gt;dir_32348ece3c89569e6a714937ae854c89 -->
<g id="edge6" class="edge">
<title>dir_150f406a44a04ce55518da03ec553ece&#45;&gt;dir_32348ece3c89569e6a714937ae854c89</title>
<path fill="none" stroke="black" d="M57,-71.7C57,-63.98 57,-54.71 57,-46.11"/>
<polygon fill="black" stroke="black" points="60.5,-46.1 57,-36.1 53.5,-46.1 60.5,-46.1"/>
<g id="a_edge6&#45;headlabel"><a xlink:href="dir_000086_000123.html" target="_top" xlink:title="13">
<text text-anchor="middle" x="63.34" y="-47.2" font-family="FreeSans" font-size="10.00">13</text>
</a>
</g>
</g>
<!-- dir_a06008c3e245d1092ba6894d6caedef2&#45;&gt;dir_150f406a44a04ce55518da03ec553ece -->
<g id="edge1" class="edge">
<title>dir_a06008c3e245d1092ba6894d6caedef2&#45;&gt;dir_150f406a44a04ce55518da03ec553ece</title>
<path fill="none" stroke="black" d="M93.89,-143.7C88.13,-135.47 81.14,-125.48 74.79,-116.42"/>
<polygon fill="black" stroke="black" points="77.58,-114.29 68.97,-108.1 71.84,-118.3 77.58,-114.29"/>
<g id="a_edge1&#45;headlabel"><a xlink:href="dir_000096_000086.html" target="_top" xlink:title="42">
<text text-anchor="middle" x="81.96" y="-113.11" font-family="FreeSans" font-size="10.00">42</text>
</a>
</g>
</g>
<!-- dir_a06008c3e245d1092ba6894d6caedef2&#45;&gt;dir_32348ece3c89569e6a714937ae854c89 -->
<g id="edge2" class="edge">
<title>dir_a06008c3e245d1092ba6894d6caedef2&#45;&gt;dir_32348ece3c89569e6a714937ae854c89</title>
<path fill="none" stroke="black" d="M105.75,-143.69C104.97,-125.32 102.22,-95.72 93,-72 89.23,-62.31 83.41,-52.62 77.54,-44.23"/>
<polygon fill="black" stroke="black" points="80.24,-41.99 71.49,-36.02 74.6,-46.14 80.24,-41.99"/>
<g id="a_edge2&#45;headlabel"><a xlink:href="dir_000096_000123.html" target="_top" xlink:title="9">
<text text-anchor="middle" x="84.66" y="-40.71" font-family="FreeSans" font-size="10.00">9</text>
</a>
</g>
</g>
</g>
</svg>
