<?xml version="1.0" encoding="UTF-8" standalone="no"?>
<!DOCTYPE svg PUBLIC "-//W3C//DTD SVG 1.1//EN"
 "http://www.w3.org/Graphics/SVG/1.1/DTD/svg11.dtd">
<!-- Generated by graphviz version 2.43.0 (0)
 -->
<!-- Title: src Pages: 1 -->
<svg width="310pt" height="367pt"
 viewBox="0.00 0.00 310.25 367.00" xmlns="http://www.w3.org/2000/svg" xmlns:xlink="http://www.w3.org/1999/xlink">
<g id="graph0" class="graph" transform="scale(1 1) rotate(0) translate(4 363)">
<title>src</title>
<polygon fill="white" stroke="transparent" points="-4,4 -4,-363 306.25,-363 306.25,4 -4,4"/>
<g id="clust1" class="cluster">
<title>clusterdir_278308b947a9d3d19de751244af66d4b</title>
<g id="a_clust1"><a xlink:href="dir_278308b947a9d3d19de751244af66d4b.html" target="_top" xlink:title="ffio">
<polygon fill="#ddddee" stroke="black" points="8,-208 8,-351 78,-351 78,-208 8,-208"/>
<text text-anchor="middle" x="43" y="-339" font-family="FreeSans" font-size="10.00">ffio</text>
</a>
</g>
</g>
<!-- dir_fe15466ecccb5f68181da966ff89a167 -->
<g id="node1" class="node">
<title>dir_fe15466ecccb5f68181da966ff89a167</title>
<g id="a_node1"><a xlink:href="dir_fe15466ecccb5f68181da966ff89a167.html" target="_top" xlink:title="include">
<polygon fill="none" stroke="black" points="70,-252 16,-252 16,-216 70,-216 70,-252"/>
<text text-anchor="middle" x="43" y="-231.5" font-family="FreeSans" font-size="10.00">include</text>
</a>
</g>
</g>
<!-- dir_f685b4be9a55b8d3c5643434c0c0c4d9 -->
<g id="node2" class="node">
<title>dir_f685b4be9a55b8d3c5643434c0c0c4d9</title>
<g id="a_node2"><a xlink:href="dir_f685b4be9a55b8d3c5643434c0c0c4d9.html" target="_top" xlink:title="src">
<polygon fill="#eeeeff" stroke="black" points="70,-324 16,-324 16,-288 70,-288 70,-324"/>
<text text-anchor="middle" x="43" y="-303.5" font-family="FreeSans" font-size="10.00">src</text>
</a>
</g>
</g>
<!-- dir_f685b4be9a55b8d3c5643434c0c0c4d9&#45;&gt;dir_fe15466ecccb5f68181da966ff89a167 -->
<g id="edge6" class="edge">
<title>dir_f685b4be9a55b8d3c5643434c0c0c4d9&#45;&gt;dir_fe15466ecccb5f68181da966ff89a167</title>
<path fill="none" stroke="black" d="M43,-287.7C43,-279.98 43,-270.71 43,-262.11"/>
<polygon fill="black" stroke="black" points="46.5,-262.1 43,-252.1 39.5,-262.1 46.5,-262.1"/>
<g id="a_edge6&#45;headlabel"><a xlink:href="dir_000074_000072.html" target="_top" xlink:title="1">
<text text-anchor="middle" x="49.34" y="-263.2" font-family="FreeSans" font-size="10.00">1</text>
</a>
</g>
</g>
<!-- dir_0908837483934fe24781ea7898fec311 -->
<g id="node3" class="node">
<title>dir_0908837483934fe24781ea7898fec311</title>
<g id="a_node3"><a xlink:href="dir_0908837483934fe24781ea7898fec311.html" target="_top" xlink:title="ffcore">
<polygon fill="white" stroke="red" points="180,-252 126,-252 126,-216 180,-216 180,-252"/>
<text text-anchor="middle" x="153" y="-231.5" font-family="FreeSans" font-size="10.00">ffcore</text>
</a>
</g>
</g>
<!-- dir_f685b4be9a55b8d3c5643434c0c0c4d9&#45;&gt;dir_0908837483934fe24781ea7898fec311 -->
<g id="edge1" class="edge">
<title>dir_f685b4be9a55b8d3c5643434c0c0c4d9&#45;&gt;dir_0908837483934fe24781ea7898fec311</title>
<path fill="none" stroke="black" d="M69.91,-287.88C84.16,-278.81 101.85,-267.55 117.24,-257.76"/>
<polygon fill="black" stroke="black" points="119.43,-260.51 125.99,-252.19 115.67,-254.61 119.43,-260.51"/>
<g id="a_edge1&#45;headlabel"><a xlink:href="dir_000074_000047.html" target="_top" xlink:title="22">
<text text-anchor="middle" x="117.92" y="-262.34" font-family="FreeSans" font-size="10.00">22</text>
</a>
</g>
</g>
<!-- dir_64078e4dd55db1ba2b4e557207803e4b -->
<g id="node4" class="node">
<title>dir_64078e4dd55db1ba2b4e557207803e4b</title>
<g id="a_node4"><a xlink:href="dir_64078e4dd55db1ba2b4e557207803e4b.html" target="_top" xlink:title="vex">
<polygon fill="white" stroke="red" points="290,-180 236,-180 236,-144 290,-144 290,-180"/>
<text text-anchor="middle" x="263" y="-159.5" font-family="FreeSans" font-size="10.00">vex</text>
</a>
</g>
</g>
<!-- dir_f685b4be9a55b8d3c5643434c0c0c4d9&#45;&gt;dir_64078e4dd55db1ba2b4e557207803e4b -->
<g id="edge2" class="edge">
<title>dir_f685b4be9a55b8d3c5643434c0c0c4d9&#45;&gt;dir_64078e4dd55db1ba2b4e557207803e4b</title>
<path fill="none" stroke="black" d="M70.26,-303.78C108.49,-300.69 178.26,-289.86 222,-252 240.51,-235.98 251.17,-209.84 256.95,-190.03"/>
<polygon fill="black" stroke="black" points="260.34,-190.9 259.54,-180.33 253.58,-189.09 260.34,-190.9"/>
<g id="a_edge2&#45;headlabel"><a xlink:href="dir_000074_000044.html" target="_top" xlink:title="9">
<text text-anchor="middle" x="262.15" y="-192.6" font-family="FreeSans" font-size="10.00">9</text>
</a>
</g>
</g>
<!-- dir_758df28fbdbb54fb46d6d3d6484a4984 -->
<g id="node5" class="node">
<title>dir_758df28fbdbb54fb46d6d3d6484a4984</title>
<g id="a_node5"><a xlink:href="dir_758df28fbdbb54fb46d6d3d6484a4984.html" target="_top" xlink:title="msg">
<polygon fill="white" stroke="red" points="224,-36 170,-36 170,0 224,0 224,-36"/>
<text text-anchor="middle" x="197" y="-15.5" font-family="FreeSans" font-size="10.00">msg</text>
</a>
</g>
</g>
<!-- dir_f685b4be9a55b8d3c5643434c0c0c4d9&#45;&gt;dir_758df28fbdbb54fb46d6d3d6484a4984 -->
<g id="edge3" class="edge">
<title>dir_f685b4be9a55b8d3c5643434c0c0c4d9&#45;&gt;dir_758df28fbdbb54fb46d6d3d6484a4984</title>
<path fill="none" stroke="black" d="M70.17,-304.16C112.52,-301.61 195.19,-291.52 251,-252 282.39,-229.77 287.86,-216.81 299,-180 315.4,-125.83 264.34,-72.16 228.65,-42.52"/>
<polygon fill="black" stroke="black" points="230.83,-39.78 220.85,-36.21 226.43,-45.22 230.83,-39.78"/>
<g id="a_edge3&#45;headlabel"><a xlink:href="dir_000074_000144.html" target="_top" xlink:title="8">
<text text-anchor="middle" x="235.41" y="-37.33" font-family="FreeSans" font-size="10.00">8</text>
</a>
</g>
</g>
<!-- dir_cb2d4e92f47691559fc9d122a5e37fac -->
<g id="node6" class="node">
<title>dir_cb2d4e92f47691559fc9d122a5e37fac</title>
<g id="a_node6"><a xlink:href="dir_cb2d4e92f47691559fc9d122a5e37fac.html" target="_top" xlink:title="mk4util">
<polygon fill="white" stroke="red" points="224,-108 170,-108 170,-72 224,-72 224,-108"/>
<text text-anchor="middle" x="197" y="-87.5" font-family="FreeSans" font-size="10.00">mk4util</text>
</a>
</g>
</g>
<!-- dir_f685b4be9a55b8d3c5643434c0c0c4d9&#45;&gt;dir_cb2d4e92f47691559fc9d122a5e37fac -->
<g id="edge4" class="edge">
<title>dir_f685b4be9a55b8d3c5643434c0c0c4d9&#45;&gt;dir_cb2d4e92f47691559fc9d122a5e37fac</title>
<path fill="none" stroke="black" d="M70.06,-303.76C104.02,-300.6 161.21,-289.63 189,-252 217.93,-212.83 211.23,-152.53 203.97,-117.92"/>
<polygon fill="black" stroke="black" points="207.36,-117.03 201.74,-108.05 200.53,-118.58 207.36,-117.03"/>
<g id="a_edge4&#45;headlabel"><a xlink:href="dir_000074_000014.html" target="_top" xlink:title="5">
<text text-anchor="middle" x="210.92" y="-117.41" font-family="FreeSans" font-size="10.00">5</text>
</a>
</g>
</g>
<!-- dir_db8d68003073a61b7114dbc4f792cfed -->
<g id="node7" class="node">
<title>dir_db8d68003073a61b7114dbc4f792cfed</title>
<g id="a_node7"><a xlink:href="dir_db8d68003073a61b7114dbc4f792cfed.html" target="_top" xlink:title="dfio">
<polygon fill="white" stroke="red" points="104,-180 50,-180 50,-144 104,-144 104,-180"/>
<text text-anchor="middle" x="77" y="-159.5" font-family="FreeSans" font-size="10.00">dfio</text>
</a>
</g>
</g>
<!-- dir_f685b4be9a55b8d3c5643434c0c0c4d9&#45;&gt;dir_db8d68003073a61b7114dbc4f792cfed -->
<g id="edge5" class="edge">
<title>dir_f685b4be9a55b8d3c5643434c0c0c4d9&#45;&gt;dir_db8d68003073a61b7114dbc4f792cfed</title>
<path fill="none" stroke="black" d="M58.61,-287.77C66.37,-278.03 74.95,-265.18 79,-252 85.16,-231.97 84.23,-208.18 82,-190.24"/>
<polygon fill="black" stroke="black" points="85.44,-189.56 80.53,-180.17 78.51,-190.57 85.44,-189.56"/>
<g id="a_edge5&#45;headlabel"><a xlink:href="dir_000074_000024.html" target="_top" xlink:title="28">
<text text-anchor="middle" x="88.76" y="-190.21" font-family="FreeSans" font-size="10.00">28</text>
</a>
</g>
</g>
<!-- dir_0908837483934fe24781ea7898fec311&#45;&gt;dir_64078e4dd55db1ba2b4e557207803e4b -->
<g id="edge12" class="edge">
<title>dir_0908837483934fe24781ea7898fec311&#45;&gt;dir_64078e4dd55db1ba2b4e557207803e4b</title>
<path fill="none" stroke="black" d="M179.91,-215.88C194.16,-206.81 211.85,-195.55 227.24,-185.76"/>
<polygon fill="black" stroke="black" points="229.43,-188.51 235.99,-180.19 225.67,-182.61 229.43,-188.51"/>
<g id="a_edge12&#45;headlabel"><a xlink:href="dir_000047_000044.html" target="_top" xlink:title="7">
<text text-anchor="middle" x="227.92" y="-190.34" font-family="FreeSans" font-size="10.00">7</text>
</a>
</g>
</g>
<!-- dir_0908837483934fe24781ea7898fec311&#45;&gt;dir_758df28fbdbb54fb46d6d3d6484a4984 -->
<g id="edge11" class="edge">
<title>dir_0908837483934fe24781ea7898fec311&#45;&gt;dir_758df28fbdbb54fb46d6d3d6484a4984</title>
<path fill="none" stroke="black" d="M150.91,-215.99C147.85,-186.01 144.2,-122.16 161,-72 164.25,-62.29 169.82,-52.72 175.61,-44.43"/>
<polygon fill="black" stroke="black" points="178.49,-46.42 181.65,-36.31 172.87,-42.25 178.49,-46.42"/>
<g id="a_edge11&#45;headlabel"><a xlink:href="dir_000047_000144.html" target="_top" xlink:title="18">
<text text-anchor="middle" x="178.63" y="-48.5" font-family="FreeSans" font-size="10.00">18</text>
</a>
</g>
</g>
<!-- dir_0908837483934fe24781ea7898fec311&#45;&gt;dir_cb2d4e92f47691559fc9d122a5e37fac -->
<g id="edge9" class="edge">
<title>dir_0908837483934fe24781ea7898fec311&#45;&gt;dir_cb2d4e92f47691559fc9d122a5e37fac</title>
<path fill="none" stroke="black" d="M158.31,-215.87C165.84,-191.56 179.7,-146.82 188.63,-118.01"/>
<polygon fill="black" stroke="black" points="192.06,-118.78 191.67,-108.19 185.37,-116.71 192.06,-118.78"/>
<g id="a_edge9&#45;headlabel"><a xlink:href="dir_000047_000014.html" target="_top" xlink:title="19">
<text text-anchor="middle" x="193.71" y="-120.55" font-family="FreeSans" font-size="10.00">19</text>
</a>
</g>
</g>
<!-- dir_0908837483934fe24781ea7898fec311&#45;&gt;dir_db8d68003073a61b7114dbc4f792cfed -->
<g id="edge10" class="edge">
<title>dir_0908837483934fe24781ea7898fec311&#45;&gt;dir_db8d68003073a61b7114dbc4f792cfed</title>
<path fill="none" stroke="black" d="M134.21,-215.7C124.83,-207.05 113.32,-196.45 103.09,-187.03"/>
<polygon fill="black" stroke="black" points="105.3,-184.3 95.57,-180.1 100.55,-189.45 105.3,-184.3"/>
<g id="a_edge10&#45;headlabel"><a xlink:href="dir_000047_000024.html" target="_top" xlink:title="20">
<text text-anchor="middle" x="109.86" y="-182.15" font-family="FreeSans" font-size="10.00">20</text>
</a>
</g>
</g>
<!-- dir_64078e4dd55db1ba2b4e557207803e4b&#45;&gt;dir_758df28fbdbb54fb46d6d3d6484a4984 -->
<g id="edge7" class="edge">
<title>dir_64078e4dd55db1ba2b4e557207803e4b&#45;&gt;dir_758df28fbdbb54fb46d6d3d6484a4984</title>
<path fill="none" stroke="black" d="M258.68,-143.72C253.75,-125.38 244.82,-95.8 233,-72 228.37,-62.68 222.32,-53.1 216.51,-44.69"/>
<polygon fill="black" stroke="black" points="219.26,-42.52 210.6,-36.41 213.56,-46.58 219.26,-42.52"/>
<g id="a_edge7&#45;headlabel"><a xlink:href="dir_000044_000144.html" target="_top" xlink:title="1">
<text text-anchor="middle" x="223.66" y="-41.3" font-family="FreeSans" font-size="10.00">1</text>
</a>
</g>
</g>
<!-- dir_64078e4dd55db1ba2b4e557207803e4b&#45;&gt;dir_cb2d4e92f47691559fc9d122a5e37fac -->
<g id="edge8" class="edge">
<title>dir_64078e4dd55db1ba2b4e557207803e4b&#45;&gt;dir_cb2d4e92f47691559fc9d122a5e37fac</title>
<path fill="none" stroke="black" d="M246.69,-143.7C238.69,-135.22 228.93,-124.86 220.18,-115.58"/>
<polygon fill="black" stroke="black" points="222.53,-112.98 213.13,-108.1 217.44,-117.78 222.53,-112.98"/>
<g id="a_edge8&#45;headlabel"><a xlink:href="dir_000044_000014.html" target="_top" xlink:title="76">
<text text-anchor="middle" x="227.07" y="-111.15" font-family="FreeSans" font-size="10.00">76</text>
</a>
</g>
</g>
<!-- dir_cb2d4e92f47691559fc9d122a5e37fac&#45;&gt;dir_758df28fbdbb54fb46d6d3d6484a4984 -->
<g id="edge13" class="edge">
<title>dir_cb2d4e92f47691559fc9d122a5e37fac&#45;&gt;dir_758df28fbdbb54fb46d6d3d6484a4984</title>
<path fill="none" stroke="black" d="M197,-71.7C197,-63.98 197,-54.71 197,-46.11"/>
<polygon fill="black" stroke="black" points="200.5,-46.1 197,-36.1 193.5,-46.1 200.5,-46.1"/>
<g id="a_edge13&#45;headlabel"><a xlink:href="dir_000014_000144.html" target="_top" xlink:title="3">
<text text-anchor="middle" x="203.34" y="-47.2" font-family="FreeSans" font-size="10.00">3</text>
</a>
</g>
</g>
<!-- dir_db8d68003073a61b7114dbc4f792cfed&#45;&gt;dir_758df28fbdbb54fb46d6d3d6484a4984 -->
<g id="edge15" class="edge">
<title>dir_db8d68003073a61b7114dbc4f792cfed&#45;&gt;dir_758df28fbdbb54fb46d6d3d6484a4984</title>
<path fill="none" stroke="black" d="M81.85,-143.7C87.88,-124.53 99.68,-93.49 118,-72 129.8,-58.16 146.07,-46.41 160.78,-37.53"/>
<polygon fill="black" stroke="black" points="162.78,-40.41 169.68,-32.37 159.27,-34.35 162.78,-40.41"/>
<g id="a_edge15&#45;headlabel"><a xlink:href="dir_000024_000144.html" target="_top" xlink:title="1">
<text text-anchor="middle" x="161.09" y="-42.17" font-family="FreeSans" font-size="10.00">1</text>
</a>
</g>
</g>
<!-- dir_db8d68003073a61b7114dbc4f792cfed&#45;&gt;dir_cb2d4e92f47691559fc9d122a5e37fac -->
<g id="edge14" class="edge">
<title>dir_db8d68003073a61b7114dbc4f792cfed&#45;&gt;dir_cb2d4e92f47691559fc9d122a5e37fac</title>
<path fill="none" stroke="black" d="M104.23,-145.12C121.11,-135.27 142.97,-122.52 161.24,-111.86"/>
<polygon fill="black" stroke="black" points="163,-114.88 169.88,-106.82 159.48,-108.84 163,-114.88"/>
<g id="a_edge14&#45;headlabel"><a xlink:href="dir_000024_000014.html" target="_top" xlink:title="117">
<text text-anchor="middle" x="161.33" y="-116.65" font-family="FreeSans" font-size="10.00">117</text>
</a>
</g>
</g>
</g>
</svg>
