<?xml version="1.0" encoding="UTF-8" standalone="no"?>
<!DOCTYPE svg PUBLIC "-//W3C//DTD SVG 1.1//EN"
 "http://www.w3.org/Graphics/SVG/1.1/DTD/svg11.dtd">
<!-- Generated by graphviz version 2.43.0 (0)
 -->
<!-- Title: include Pages: 1 -->
<svg width="240pt" height="439pt"
 viewBox="0.00 0.00 240.25 439.00" xmlns="http://www.w3.org/2000/svg" xmlns:xlink="http://www.w3.org/1999/xlink">
<g id="graph0" class="graph" transform="scale(1 1) rotate(0) translate(4 435)">
<title>include</title>
<polygon fill="white" stroke="transparent" points="-4,4 -4,-435 236.25,-435 236.25,4 -4,4"/>
<g id="clust1" class="cluster">
<title>clusterdir_91ae3e556fa9cad9030b784323206cc7</title>
<g id="a_clust1"><a xlink:href="dir_91ae3e556fa9cad9030b784323206cc7.html" target="_top" xlink:title="Calibration">
<polygon fill="#ddddee" stroke="black" points="85,-352 85,-423 155,-423 155,-352 85,-352"/>
<text text-anchor="middle" x="120" y="-411" font-family="FreeSans" font-size="10.00">Calibration</text>
</a>
</g>
</g>
<!-- dir_7be2fd11ca2616dfba72a6921a1b3394 -->
<g id="node1" class="node">
<title>dir_7be2fd11ca2616dfba72a6921a1b3394</title>
<g id="a_node1"><a xlink:href="dir_7be2fd11ca2616dfba72a6921a1b3394.html" target="_top" xlink:title="include">
<polygon fill="#eeeeff" stroke="black" points="147,-396 93,-396 93,-360 147,-360 147,-396"/>
<text text-anchor="middle" x="120" y="-375.5" font-family="FreeSans" font-size="10.00">include</text>
</a>
</g>
</g>
<!-- dir_150f406a44a04ce55518da03ec553ece -->
<g id="node2" class="node">
<title>dir_150f406a44a04ce55518da03ec553ece</title>
<g id="a_node2"><a xlink:href="dir_150f406a44a04ce55518da03ec553ece.html" target="_top" xlink:title="Utilities">
<polygon fill="white" stroke="red" points="157,-180 103,-180 103,-144 157,-144 157,-180"/>
<text text-anchor="middle" x="130" y="-159.5" font-family="FreeSans" font-size="10.00">Utilities</text>
</a>
</g>
</g>
<!-- dir_7be2fd11ca2616dfba72a6921a1b3394&#45;&gt;dir_150f406a44a04ce55518da03ec553ece -->
<g id="edge11" class="edge">
<title>dir_7be2fd11ca2616dfba72a6921a1b3394&#45;&gt;dir_150f406a44a04ce55518da03ec553ece</title>
<path fill="none" stroke="black" d="M120.8,-359.85C122.53,-322.83 126.63,-235.18 128.72,-190.39"/>
<polygon fill="black" stroke="black" points="132.22,-190.38 129.19,-180.23 125.23,-190.06 132.22,-190.38"/>
<g id="a_edge11&#45;headlabel"><a xlink:href="dir_000103_000086.html" target="_top" xlink:title="22">
<text text-anchor="middle" x="134.89" y="-191.61" font-family="FreeSans" font-size="10.00">22</text>
</a>
</g>
</g>
<!-- dir_32348ece3c89569e6a714937ae854c89 -->
<g id="node3" class="node">
<title>dir_32348ece3c89569e6a714937ae854c89</title>
<g id="a_node3"><a xlink:href="dir_32348ece3c89569e6a714937ae854c89.html" target="_top" xlink:title="Message">
<polygon fill="white" stroke="red" points="144,-36 88,-36 88,0 144,0 144,-36"/>
<text text-anchor="middle" x="116" y="-15.5" font-family="FreeSans" font-size="10.00">Message</text>
</a>
</g>
</g>
<!-- dir_7be2fd11ca2616dfba72a6921a1b3394&#45;&gt;dir_32348ece3c89569e6a714937ae854c89 -->
<g id="edge12" class="edge">
<title>dir_7be2fd11ca2616dfba72a6921a1b3394&#45;&gt;dir_32348ece3c89569e6a714937ae854c89</title>
<path fill="none" stroke="black" d="M92.77,-361.1C57.37,-338.14 0,-292.13 0,-235 0,-235 0,-235 0,-161 0,-109.79 45.81,-66.87 79.85,-42.04"/>
<polygon fill="black" stroke="black" points="82.07,-44.75 88.22,-36.12 78.03,-39.04 82.07,-44.75"/>
<g id="a_edge12&#45;headlabel"><a xlink:href="dir_000103_000123.html" target="_top" xlink:title="21">
<text text-anchor="middle" x="80.78" y="-46.65" font-family="FreeSans" font-size="10.00">21</text>
</a>
</g>
</g>
<!-- dir_4546011bd625f1142c4c4ae06dcdb5ba -->
<g id="node4" class="node">
<title>dir_4546011bd625f1142c4c4ae06dcdb5ba</title>
<g id="a_node4"><a xlink:href="dir_4546011bd625f1142c4c4ae06dcdb5ba.html" target="_top" xlink:title="Operators">
<polygon fill="white" stroke="red" points="207.5,-324 148.5,-324 148.5,-288 207.5,-288 207.5,-324"/>
<text text-anchor="middle" x="178" y="-303.5" font-family="FreeSans" font-size="10.00">Operators</text>
</a>
</g>
</g>
<!-- dir_7be2fd11ca2616dfba72a6921a1b3394&#45;&gt;dir_4546011bd625f1142c4c4ae06dcdb5ba -->
<g id="edge13" class="edge">
<title>dir_7be2fd11ca2616dfba72a6921a1b3394&#45;&gt;dir_4546011bd625f1142c4c4ae06dcdb5ba</title>
<path fill="none" stroke="black" d="M134.34,-359.7C141.29,-351.3 149.77,-341.07 157.4,-331.86"/>
<polygon fill="black" stroke="black" points="160.14,-334.04 163.83,-324.1 154.75,-329.57 160.14,-334.04"/>
<g id="a_edge13&#45;headlabel"><a xlink:href="dir_000103_000089.html" target="_top" xlink:title="54">
<text text-anchor="middle" x="160.04" y="-336.12" font-family="FreeSans" font-size="10.00">54</text>
</a>
</g>
</g>
<!-- dir_a06008c3e245d1092ba6894d6caedef2 -->
<g id="node5" class="node">
<title>dir_a06008c3e245d1092ba6894d6caedef2</title>
<g id="a_node5"><a xlink:href="dir_a06008c3e245d1092ba6894d6caedef2.html" target="_top" xlink:title="Containers">
<polygon fill="white" stroke="red" points="91.5,-252 28.5,-252 28.5,-216 91.5,-216 91.5,-252"/>
<text text-anchor="middle" x="60" y="-231.5" font-family="FreeSans" font-size="10.00">Containers</text>
</a>
</g>
</g>
<!-- dir_7be2fd11ca2616dfba72a6921a1b3394&#45;&gt;dir_a06008c3e245d1092ba6894d6caedef2 -->
<g id="edge14" class="edge">
<title>dir_7be2fd11ca2616dfba72a6921a1b3394&#45;&gt;dir_a06008c3e245d1092ba6894d6caedef2</title>
<path fill="none" stroke="black" d="M112.76,-359.87C102.45,-335.46 83.42,-290.43 71.25,-261.64"/>
<polygon fill="black" stroke="black" points="74.38,-260.04 67.26,-252.19 67.93,-262.76 74.38,-260.04"/>
<g id="a_edge14&#45;headlabel"><a xlink:href="dir_000103_000096.html" target="_top" xlink:title="64">
<text text-anchor="middle" x="78.39" y="-259.74" font-family="FreeSans" font-size="10.00">64</text>
</a>
</g>
</g>
<!-- dir_ff42852cc454de79d2ecb9482f4de9d8 -->
<g id="node6" class="node">
<title>dir_ff42852cc454de79d2ecb9482f4de9d8</title>
<g id="a_node6"><a xlink:href="dir_ff42852cc454de79d2ecb9482f4de9d8.html" target="_top" xlink:title="Math">
<polygon fill="white" stroke="red" points="198,-108 144,-108 144,-72 198,-72 198,-108"/>
<text text-anchor="middle" x="171" y="-87.5" font-family="FreeSans" font-size="10.00">Math</text>
</a>
</g>
</g>
<!-- dir_7be2fd11ca2616dfba72a6921a1b3394&#45;&gt;dir_ff42852cc454de79d2ecb9482f4de9d8 -->
<g id="edge15" class="edge">
<title>dir_7be2fd11ca2616dfba72a6921a1b3394&#45;&gt;dir_ff42852cc454de79d2ecb9482f4de9d8</title>
<path fill="none" stroke="black" d="M147.38,-370.2C170.21,-362.93 201.29,-348.92 216,-324 255.49,-257.09 212.38,-162.32 186.93,-117.04"/>
<polygon fill="black" stroke="black" points="189.84,-115.07 181.81,-108.16 183.78,-118.57 189.84,-115.07"/>
<g id="a_edge15&#45;headlabel"><a xlink:href="dir_000103_000099.html" target="_top" xlink:title="3">
<text text-anchor="middle" x="194.09" y="-114.27" font-family="FreeSans" font-size="10.00">3</text>
</a>
</g>
</g>
<!-- dir_150f406a44a04ce55518da03ec553ece&#45;&gt;dir_32348ece3c89569e6a714937ae854c89 -->
<g id="edge9" class="edge">
<title>dir_150f406a44a04ce55518da03ec553ece&#45;&gt;dir_32348ece3c89569e6a714937ae854c89</title>
<path fill="none" stroke="black" d="M128.31,-143.87C125.93,-119.67 121.54,-75.21 118.7,-46.39"/>
<polygon fill="black" stroke="black" points="122.16,-45.8 117.69,-36.19 115.19,-46.48 122.16,-45.8"/>
<g id="a_edge9&#45;headlabel"><a xlink:href="dir_000086_000123.html" target="_top" xlink:title="13">
<text text-anchor="middle" x="125.34" y="-46.6" font-family="FreeSans" font-size="10.00">13</text>
</a>
</g>
</g>
<!-- dir_150f406a44a04ce55518da03ec553ece&#45;&gt;dir_ff42852cc454de79d2ecb9482f4de9d8 -->
<g id="edge10" class="edge">
<title>dir_150f406a44a04ce55518da03ec553ece&#45;&gt;dir_ff42852cc454de79d2ecb9482f4de9d8</title>
<path fill="none" stroke="black" d="M134.22,-143.7C138.15,-135.56 143.72,-125.69 149.41,-116.7"/>
<polygon fill="black" stroke="black" points="152.5,-118.38 155.09,-108.1 146.66,-114.52 152.5,-118.38"/>
<g id="a_edge10&#45;headlabel"><a xlink:href="dir_000086_000099.html" target="_top" xlink:title="1">
<text text-anchor="middle" x="152.89" y="-120.44" font-family="FreeSans" font-size="10.00">1</text>
</a>
</g>
</g>
<!-- dir_4546011bd625f1142c4c4ae06dcdb5ba&#45;&gt;dir_150f406a44a04ce55518da03ec553ece -->
<g id="edge5" class="edge">
<title>dir_4546011bd625f1142c4c4ae06dcdb5ba&#45;&gt;dir_150f406a44a04ce55518da03ec553ece</title>
<path fill="none" stroke="black" d="M172.21,-287.87C163.99,-263.56 148.87,-218.82 139.13,-190.01"/>
<polygon fill="black" stroke="black" points="142.33,-188.54 135.81,-180.19 135.7,-190.78 142.33,-188.54"/>
<g id="a_edge5&#45;headlabel"><a xlink:href="dir_000089_000086.html" target="_top" xlink:title="5">
<text text-anchor="middle" x="146.17" y="-188.54" font-family="FreeSans" font-size="10.00">5</text>
</a>
</g>
</g>
<!-- dir_4546011bd625f1142c4c4ae06dcdb5ba&#45;&gt;dir_32348ece3c89569e6a714937ae854c89 -->
<g id="edge6" class="edge">
<title>dir_4546011bd625f1142c4c4ae06dcdb5ba&#45;&gt;dir_32348ece3c89569e6a714937ae854c89</title>
<path fill="none" stroke="black" d="M186.8,-287.8C206.26,-247.19 248.04,-143.39 207,-72 195.49,-51.98 173.18,-38.81 153.53,-30.61"/>
<polygon fill="black" stroke="black" points="154.75,-27.32 144.16,-26.97 152.22,-33.85 154.75,-27.32"/>
<g id="a_edge6&#45;headlabel"><a xlink:href="dir_000089_000123.html" target="_top" xlink:title="12">
<text text-anchor="middle" x="159.13" y="-23.48" font-family="FreeSans" font-size="10.00">12</text>
</a>
</g>
</g>
<!-- dir_4546011bd625f1142c4c4ae06dcdb5ba&#45;&gt;dir_a06008c3e245d1092ba6894d6caedef2 -->
<g id="edge7" class="edge">
<title>dir_4546011bd625f1142c4c4ae06dcdb5ba&#45;&gt;dir_a06008c3e245d1092ba6894d6caedef2</title>
<path fill="none" stroke="black" d="M149.13,-287.88C133.71,-278.72 114.52,-267.34 97.9,-257.48"/>
<polygon fill="black" stroke="black" points="99.36,-254.28 88.98,-252.19 95.79,-260.3 99.36,-254.28"/>
<g id="a_edge7&#45;headlabel"><a xlink:href="dir_000089_000096.html" target="_top" xlink:title="22">
<text text-anchor="middle" x="103.9" y="-251.17" font-family="FreeSans" font-size="10.00">22</text>
</a>
</g>
</g>
<!-- dir_4546011bd625f1142c4c4ae06dcdb5ba&#45;&gt;dir_ff42852cc454de79d2ecb9482f4de9d8 -->
<g id="edge8" class="edge">
<title>dir_4546011bd625f1142c4c4ae06dcdb5ba&#45;&gt;dir_ff42852cc454de79d2ecb9482f4de9d8</title>
<path fill="none" stroke="black" d="M177.44,-287.85C176.23,-250.83 173.36,-163.18 171.9,-118.39"/>
<polygon fill="black" stroke="black" points="175.39,-118.11 171.56,-108.23 168.39,-118.34 175.39,-118.11"/>
<g id="a_edge8&#45;headlabel"><a xlink:href="dir_000089_000099.html" target="_top" xlink:title="8">
<text text-anchor="middle" x="178.34" y="-119.11" font-family="FreeSans" font-size="10.00">8</text>
</a>
</g>
</g>
<!-- dir_a06008c3e245d1092ba6894d6caedef2&#45;&gt;dir_150f406a44a04ce55518da03ec553ece -->
<g id="edge1" class="edge">
<title>dir_a06008c3e245d1092ba6894d6caedef2&#45;&gt;dir_150f406a44a04ce55518da03ec553ece</title>
<path fill="none" stroke="black" d="M77.3,-215.7C85.86,-207.14 96.34,-196.66 105.7,-187.3"/>
<polygon fill="black" stroke="black" points="108.3,-189.65 112.9,-180.1 103.35,-184.7 108.3,-189.65"/>
<g id="a_edge1&#45;headlabel"><a xlink:href="dir_000096_000086.html" target="_top" xlink:title="42">
<text text-anchor="middle" x="107.77" y="-191.7" font-family="FreeSans" font-size="10.00">42</text>
</a>
</g>
</g>
<!-- dir_a06008c3e245d1092ba6894d6caedef2&#45;&gt;dir_32348ece3c89569e6a714937ae854c89 -->
<g id="edge2" class="edge">
<title>dir_a06008c3e245d1092ba6894d6caedef2&#45;&gt;dir_32348ece3c89569e6a714937ae854c89</title>
<path fill="none" stroke="black" d="M64.49,-215.85C74.2,-178.75 97.21,-90.81 108.91,-46.1"/>
<polygon fill="black" stroke="black" points="112.34,-46.79 111.49,-36.23 105.57,-45.02 112.34,-46.79"/>
<g id="a_edge2&#45;headlabel"><a xlink:href="dir_000096_000123.html" target="_top" xlink:title="9">
<text text-anchor="middle" x="114.18" y="-48.49" font-family="FreeSans" font-size="10.00">9</text>
</a>
</g>
</g>
<!-- dir_ff42852cc454de79d2ecb9482f4de9d8&#45;&gt;dir_150f406a44a04ce55518da03ec553ece -->
<g id="edge4" class="edge">
<title>dir_ff42852cc454de79d2ecb9482f4de9d8&#45;&gt;dir_150f406a44a04ce55518da03ec553ece</title>
<path fill="none" stroke="black" d="M166.88,-108.1C162.98,-116.21 157.42,-126.08 151.73,-135.08"/>
<polygon fill="black" stroke="black" points="148.63,-133.42 146.05,-143.7 154.47,-137.27 148.63,-133.42"/>
<g id="a_edge4&#45;headlabel"><a xlink:href="dir_000099_000086.html" target="_top" xlink:title="1">
<text text-anchor="middle" x="148.23" y="-126.36" font-family="FreeSans" font-size="10.00">1</text>
</a>
</g>
</g>
<!-- dir_ff42852cc454de79d2ecb9482f4de9d8&#45;&gt;dir_32348ece3c89569e6a714937ae854c89 -->
<g id="edge3" class="edge">
<title>dir_ff42852cc454de79d2ecb9482f4de9d8&#45;&gt;dir_32348ece3c89569e6a714937ae854c89</title>
<path fill="none" stroke="black" d="M157.4,-71.7C150.88,-63.39 142.93,-53.28 135.75,-44.14"/>
<polygon fill="black" stroke="black" points="138.37,-41.81 129.44,-36.1 132.87,-46.13 138.37,-41.81"/>
<g id="a_edge3&#45;headlabel"><a xlink:href="dir_000099_000123.html" target="_top" xlink:title="6">
<text text-anchor="middle" x="142.82" y="-40.38" font-family="FreeSans" font-size="10.00">6</text>
</a>
</g>
</g>
</g>
</svg>
