<?xml version="1.0" encoding="UTF-8" standalone="no"?>
<!DOCTYPE svg PUBLIC "-//W3C//DTD SVG 1.1//EN"
 "http://www.w3.org/Graphics/SVG/1.1/DTD/svg11.dtd">
<!-- Generated by graphviz version 2.43.0 (0)
 -->
<!-- Title: include Pages: 1 -->
<svg width="156pt" height="223pt"
 viewBox="0.00 0.00 155.81 223.00" xmlns="http://www.w3.org/2000/svg" xmlns:xlink="http://www.w3.org/1999/xlink">
<g id="graph0" class="graph" transform="scale(1 1) rotate(0) translate(4 219)">
<title>include</title>
<polygon fill="white" stroke="transparent" points="-4,4 -4,-219 151.81,-219 151.81,4 -4,4"/>
<g id="clust1" class="cluster">
<title>clusterdir_e2fcaed8db8bcf350f433431a993c8b5</title>
<g id="a_clust1"><a xlink:href="dir_e2fcaed8db8bcf350f433431a993c8b5.html" target="_top" xlink:title="Containers">
<polygon fill="#ddddee" stroke="black" points="8.81,-136 8.81,-207 78.81,-207 78.81,-136 8.81,-136"/>
<text text-anchor="middle" x="43.81" y="-195" font-family="FreeSans" font-size="10.00">Containers</text>
</a>
</g>
</g>
<!-- dir_66e153a47ce5a47edc1d8086d0e3b093 -->
<g id="node1" class="node">
<title>dir_66e153a47ce5a47edc1d8086d0e3b093</title>
<g id="a_node1"><a xlink:href="dir_66e153a47ce5a47edc1d8086d0e3b093.html" target="_top" xlink:title="include">
<polygon fill="#eeeeff" stroke="black" points="70.81,-180 16.81,-180 16.81,-144 70.81,-144 70.81,-180"/>
<text text-anchor="middle" x="43.81" y="-159.5" font-family="FreeSans" font-size="10.00">include</text>
</a>
</g>
</g>
<!-- dir_150f406a44a04ce55518da03ec553ece -->
<g id="node2" class="node">
<title>dir_150f406a44a04ce55518da03ec553ece</title>
<g id="a_node2"><a xlink:href="dir_150f406a44a04ce55518da03ec553ece.html" target="_top" xlink:title="Utilities">
<polygon fill="white" stroke="red" points="70.81,-36 16.81,-36 16.81,0 70.81,0 70.81,-36"/>
<text text-anchor="middle" x="43.81" y="-15.5" font-family="FreeSans" font-size="10.00">Utilities</text>
</a>
</g>
</g>
<!-- dir_66e153a47ce5a47edc1d8086d0e3b093&#45;&gt;dir_150f406a44a04ce55518da03ec553ece -->
<g id="edge2" class="edge">
<title>dir_66e153a47ce5a47edc1d8086d0e3b093&#45;&gt;dir_150f406a44a04ce55518da03ec553ece</title>
<path fill="none" stroke="black" d="M26.08,-143.6C17.57,-134 8.28,-121.34 3.81,-108 -1.27,-92.83 -1.27,-87.17 3.81,-72 7.16,-62 13.23,-52.38 19.64,-44.14"/>
<polygon fill="black" stroke="black" points="22.37,-46.33 26.08,-36.4 16.99,-41.85 22.37,-46.33"/>
<g id="a_edge2&#45;headlabel"><a xlink:href="dir_000133_000086.html" target="_top" xlink:title="2">
<text text-anchor="middle" x="22.26" y="-48.41" font-family="FreeSans" font-size="10.00">2</text>
</a>
</g>
</g>
<!-- dir_a06008c3e245d1092ba6894d6caedef2 -->
<g id="node3" class="node">
<title>dir_a06008c3e245d1092ba6894d6caedef2</title>
<g id="a_node3"><a xlink:href="dir_a06008c3e245d1092ba6894d6caedef2.html" target="_top" xlink:title="Containers">
<polygon fill="white" stroke="red" points="75.31,-108 12.31,-108 12.31,-72 75.31,-72 75.31,-108"/>
<text text-anchor="middle" x="43.81" y="-87.5" font-family="FreeSans" font-size="10.00">Containers</text>
</a>
</g>
</g>
<!-- dir_66e153a47ce5a47edc1d8086d0e3b093&#45;&gt;dir_a06008c3e245d1092ba6894d6caedef2 -->
<g id="edge3" class="edge">
<title>dir_66e153a47ce5a47edc1d8086d0e3b093&#45;&gt;dir_a06008c3e245d1092ba6894d6caedef2</title>
<path fill="none" stroke="black" d="M43.81,-143.7C43.81,-135.98 43.81,-126.71 43.81,-118.11"/>
<polygon fill="black" stroke="black" points="47.31,-118.1 43.81,-108.1 40.31,-118.1 47.31,-118.1"/>
<g id="a_edge3&#45;headlabel"><a xlink:href="dir_000133_000096.html" target="_top" xlink:title="1">
<text text-anchor="middle" x="50.15" y="-119.2" font-family="FreeSans" font-size="10.00">1</text>
</a>
</g>
</g>
<!-- dir_c452024336701c9bf6340e0043ea0543 -->
<g id="node4" class="node">
<title>dir_c452024336701c9bf6340e0043ea0543</title>
<g id="a_node4"><a xlink:href="dir_c452024336701c9bf6340e0043ea0543.html" target="_top" xlink:title="Core">
<polygon fill="white" stroke="red" points="147.81,-108 93.81,-108 93.81,-72 147.81,-72 147.81,-108"/>
<text text-anchor="middle" x="120.81" y="-87.5" font-family="FreeSans" font-size="10.00">Core</text>
</a>
</g>
</g>
<!-- dir_66e153a47ce5a47edc1d8086d0e3b093&#45;&gt;dir_c452024336701c9bf6340e0043ea0543 -->
<g id="edge4" class="edge">
<title>dir_66e153a47ce5a47edc1d8086d0e3b093&#45;&gt;dir_c452024336701c9bf6340e0043ea0543</title>
<path fill="none" stroke="black" d="M62.85,-143.7C72.36,-135.05 84.02,-124.45 94.38,-115.03"/>
<polygon fill="black" stroke="black" points="96.95,-117.42 102,-108.1 92.24,-112.24 96.95,-117.42"/>
<g id="a_edge4&#45;headlabel"><a xlink:href="dir_000133_000082.html" target="_top" xlink:title="1">
<text text-anchor="middle" x="96.2" y="-119.44" font-family="FreeSans" font-size="10.00">1</text>
</a>
</g>
</g>
<!-- dir_a06008c3e245d1092ba6894d6caedef2&#45;&gt;dir_150f406a44a04ce55518da03ec553ece -->
<g id="edge1" class="edge">
<title>dir_a06008c3e245d1092ba6894d6caedef2&#45;&gt;dir_150f406a44a04ce55518da03ec553ece</title>
<path fill="none" stroke="black" d="M43.81,-71.7C43.81,-63.98 43.81,-54.71 43.81,-46.11"/>
<polygon fill="black" stroke="black" points="47.31,-46.1 43.81,-36.1 40.31,-46.1 47.31,-46.1"/>
<g id="a_edge1&#45;headlabel"><a xlink:href="dir_000096_000086.html" target="_top" xlink:title="42">
<text text-anchor="middle" x="50.15" y="-47.2" font-family="FreeSans" font-size="10.00">42</text>
</a>
</g>
</g>
<!-- dir_c452024336701c9bf6340e0043ea0543&#45;&gt;dir_150f406a44a04ce55518da03ec553ece -->
<g id="edge5" class="edge">
<title>dir_c452024336701c9bf6340e0043ea0543&#45;&gt;dir_150f406a44a04ce55518da03ec553ece</title>
<path fill="none" stroke="black" d="M101.78,-71.7C92.27,-63.05 80.61,-52.45 70.24,-43.03"/>
<polygon fill="black" stroke="black" points="72.38,-40.24 62.63,-36.1 67.67,-45.42 72.38,-40.24"/>
<g id="a_edge5&#45;headlabel"><a xlink:href="dir_000082_000086.html" target="_top" xlink:title="1">
<text text-anchor="middle" x="76.95" y="-38.06" font-family="FreeSans" font-size="10.00">1</text>
</a>
</g>
</g>
</g>
</svg>
