<?xml version="1.0" encoding="UTF-8" standalone="no"?>
<!DOCTYPE svg PUBLIC "-//W3C//DTD SVG 1.1//EN"
 "http://www.w3.org/Graphics/SVG/1.1/DTD/svg11.dtd">
<!-- Generated by graphviz version 2.43.0 (0)
 -->
<!-- Title: Operators Pages: 1 -->
<svg width="275pt" height="375pt"
 viewBox="0.00 0.00 275.00 375.00" xmlns="http://www.w3.org/2000/svg" xmlns:xlink="http://www.w3.org/1999/xlink">
<g id="graph0" class="graph" transform="scale(1 1) rotate(0) translate(4 371)">
<title>Operators</title>
<polygon fill="white" stroke="transparent" points="-4,4 -4,-371 271,-371 271,4 -4,4"/>
<g id="clust1" class="cluster">
<title>clusterdir_f1ba8c0e7d28a93252eea320364e0857</title>
<g id="a_clust1"><a xlink:href="dir_f1ba8c0e7d28a93252eea320364e0857.html" target="_top" xlink:title="PythonBindings">
<polygon fill="#ddddee" stroke="black" points="8,-136 8,-359 172,-359 172,-136 8,-136"/>
<text text-anchor="middle" x="90" y="-347" font-family="FreeSans" font-size="10.00">PythonBindings</text>
</a>
</g>
</g>
<g id="clust2" class="cluster">
<title>clusterdir_1eaf6bebd9507c59d4a84c19881443c9</title>
<g id="a_clust2"><a xlink:href="dir_1eaf6bebd9507c59d4a84c19881443c9.html" target="_top">
<polygon fill="#eeeeff" stroke="black" points="16,-208 16,-332 164,-332 164,-208 16,-208"/>
</a>
</g>
</g>
<!-- dir_68ccf097de5ef9ba8fe5a1575ab7d7d7 -->
<g id="node1" class="node">
<title>dir_68ccf097de5ef9ba8fe5a1575ab7d7d7</title>
<g id="a_node1"><a xlink:href="dir_68ccf097de5ef9ba8fe5a1575ab7d7d7.html" target="_top" xlink:title="Containers">
<polygon fill="white" stroke="red" points="123.5,-180 60.5,-180 60.5,-144 123.5,-144 123.5,-180"/>
<text text-anchor="middle" x="92" y="-159.5" font-family="FreeSans" font-size="10.00">Containers</text>
</a>
</g>
</g>
<!-- dir_a06008c3e245d1092ba6894d6caedef2 -->
<g id="node6" class="node">
<title>dir_a06008c3e245d1092ba6894d6caedef2</title>
<g id="a_node6"><a xlink:href="dir_a06008c3e245d1092ba6894d6caedef2.html" target="_top" xlink:title="Containers">
<polygon fill="white" stroke="red" points="216.5,-36 153.5,-36 153.5,0 216.5,0 216.5,-36"/>
<text text-anchor="middle" x="185" y="-15.5" font-family="FreeSans" font-size="10.00">Containers</text>
</a>
</g>
</g>
<!-- dir_68ccf097de5ef9ba8fe5a1575ab7d7d7&#45;&gt;dir_a06008c3e245d1092ba6894d6caedef2 -->
<g id="edge9" class="edge">
<title>dir_68ccf097de5ef9ba8fe5a1575ab7d7d7&#45;&gt;dir_a06008c3e245d1092ba6894d6caedef2</title>
<path fill="none" stroke="black" d="M93.84,-143.95C96.57,-125 103.07,-94.16 118,-72 125.73,-60.53 136.71,-50.39 147.56,-42.12"/>
<polygon fill="black" stroke="black" points="149.72,-44.88 155.77,-36.18 145.62,-39.21 149.72,-44.88"/>
<g id="a_edge9&#45;headlabel"><a xlink:href="dir_000135_000096.html" target="_top" xlink:title="14">
<text text-anchor="middle" x="148.47" y="-46.79" font-family="FreeSans" font-size="10.00">14</text>
</a>
</g>
</g>
<!-- dir_1eaf6bebd9507c59d4a84c19881443c9 -->
<g id="node2" class="node">
<title>dir_1eaf6bebd9507c59d4a84c19881443c9</title>
<text text-anchor="middle" x="126" y="-303.5" font-family="FreeSans" font-size="10.00">Operators</text>
</g>
<!-- dir_0262127b99cd8b573db74bf3e082bbaa -->
<g id="node3" class="node">
<title>dir_0262127b99cd8b573db74bf3e082bbaa</title>
<g id="a_node3"><a xlink:href="dir_0262127b99cd8b573db74bf3e082bbaa.html" target="_top" xlink:title="include">
<polygon fill="white" stroke="black" points="156,-252 102,-252 102,-216 156,-216 156,-252"/>
<text text-anchor="middle" x="129" y="-231.5" font-family="FreeSans" font-size="10.00">include</text>
</a>
</g>
</g>
<!-- dir_0262127b99cd8b573db74bf3e082bbaa&#45;&gt;dir_68ccf097de5ef9ba8fe5a1575ab7d7d7 -->
<g id="edge2" class="edge">
<title>dir_0262127b99cd8b573db74bf3e082bbaa&#45;&gt;dir_68ccf097de5ef9ba8fe5a1575ab7d7d7</title>
<path fill="none" stroke="black" d="M119.85,-215.7C115.6,-207.64 110.44,-197.89 105.73,-188.98"/>
<polygon fill="black" stroke="black" points="108.81,-187.31 101.04,-180.1 102.62,-190.58 108.81,-187.31"/>
<g id="a_edge2&#45;headlabel"><a xlink:href="dir_000139_000135.html" target="_top" xlink:title="9">
<text text-anchor="middle" x="113" y="-186.66" font-family="FreeSans" font-size="10.00">9</text>
</a>
</g>
</g>
<!-- dir_4546011bd625f1142c4c4ae06dcdb5ba -->
<g id="node5" class="node">
<title>dir_4546011bd625f1142c4c4ae06dcdb5ba</title>
<g id="a_node5"><a xlink:href="dir_4546011bd625f1142c4c4ae06dcdb5ba.html" target="_top" xlink:title="Operators">
<polygon fill="white" stroke="red" points="185.5,-108 126.5,-108 126.5,-72 185.5,-72 185.5,-108"/>
<text text-anchor="middle" x="156" y="-87.5" font-family="FreeSans" font-size="10.00">Operators</text>
</a>
</g>
</g>
<!-- dir_0262127b99cd8b573db74bf3e082bbaa&#45;&gt;dir_4546011bd625f1142c4c4ae06dcdb5ba -->
<g id="edge1" class="edge">
<title>dir_0262127b99cd8b573db74bf3e082bbaa&#45;&gt;dir_4546011bd625f1142c4c4ae06dcdb5ba</title>
<path fill="none" stroke="black" d="M132.26,-215.87C136.86,-191.67 145.31,-147.21 150.79,-118.39"/>
<polygon fill="black" stroke="black" points="154.3,-118.67 152.73,-108.19 147.43,-117.36 154.3,-118.67"/>
<g id="a_edge1&#45;headlabel"><a xlink:href="dir_000139_000089.html" target="_top" xlink:title="4">
<text text-anchor="middle" x="156.42" y="-120.23" font-family="FreeSans" font-size="10.00">4</text>
</a>
</g>
</g>
<!-- dir_0262127b99cd8b573db74bf3e082bbaa&#45;&gt;dir_a06008c3e245d1092ba6894d6caedef2 -->
<g id="edge3" class="edge">
<title>dir_0262127b99cd8b573db74bf3e082bbaa&#45;&gt;dir_a06008c3e245d1092ba6894d6caedef2</title>
<path fill="none" stroke="black" d="M156.02,-230.43C186.44,-225.92 234.55,-213.6 257,-180 286.77,-135.46 242.21,-76.59 211.02,-43.79"/>
<polygon fill="black" stroke="black" points="213.31,-41.13 203.82,-36.42 208.31,-46.02 213.31,-41.13"/>
<g id="a_edge3&#45;headlabel"><a xlink:href="dir_000139_000096.html" target="_top" xlink:title="3">
<text text-anchor="middle" x="217.86" y="-39.22" font-family="FreeSans" font-size="10.00">3</text>
</a>
</g>
</g>
<!-- dir_b8ce078ed9f8fd90d71e02c796d93353 -->
<g id="node7" class="node">
<title>dir_b8ce078ed9f8fd90d71e02c796d93353</title>
<g id="a_node7"><a xlink:href="dir_b8ce078ed9f8fd90d71e02c796d93353.html" target="_top" xlink:title="Initialization">
<polygon fill="white" stroke="red" points="248,-180 180,-180 180,-144 248,-144 248,-180"/>
<text text-anchor="middle" x="214" y="-159.5" font-family="FreeSans" font-size="10.00">Initialization</text>
</a>
</g>
</g>
<!-- dir_0262127b99cd8b573db74bf3e082bbaa&#45;&gt;dir_b8ce078ed9f8fd90d71e02c796d93353 -->
<g id="edge4" class="edge">
<title>dir_0262127b99cd8b573db74bf3e082bbaa&#45;&gt;dir_b8ce078ed9f8fd90d71e02c796d93353</title>
<path fill="none" stroke="black" d="M150.01,-215.7C160.72,-206.88 173.89,-196.03 185.5,-186.47"/>
<polygon fill="black" stroke="black" points="187.74,-189.16 193.23,-180.1 183.29,-183.76 187.74,-189.16"/>
<g id="a_edge4&#45;headlabel"><a xlink:href="dir_000139_000104.html" target="_top" xlink:title="1">
<text text-anchor="middle" x="186.77" y="-191.14" font-family="FreeSans" font-size="10.00">1</text>
</a>
</g>
</g>
<!-- dir_cac4f289f826463483511d62ea918348 -->
<g id="node4" class="node">
<title>dir_cac4f289f826463483511d62ea918348</title>
<g id="a_node4"><a xlink:href="dir_cac4f289f826463483511d62ea918348.html" target="_top" xlink:title="src">
<polygon fill="white" stroke="black" points="78,-324 24,-324 24,-288 78,-288 78,-324"/>
<text text-anchor="middle" x="51" y="-303.5" font-family="FreeSans" font-size="10.00">src</text>
</a>
</g>
</g>
<!-- dir_cac4f289f826463483511d62ea918348&#45;&gt;dir_0262127b99cd8b573db74bf3e082bbaa -->
<g id="edge8" class="edge">
<title>dir_cac4f289f826463483511d62ea918348&#45;&gt;dir_0262127b99cd8b573db74bf3e082bbaa</title>
<path fill="none" stroke="black" d="M70.28,-287.7C79.92,-279.05 91.73,-268.45 102.23,-259.03"/>
<polygon fill="black" stroke="black" points="104.84,-261.39 109.94,-252.1 100.16,-256.18 104.84,-261.39"/>
<g id="a_edge8&#45;headlabel"><a xlink:href="dir_000140_000139.html" target="_top" xlink:title="1">
<text text-anchor="middle" x="104.06" y="-263.4" font-family="FreeSans" font-size="10.00">1</text>
</a>
</g>
</g>
<!-- dir_4546011bd625f1142c4c4ae06dcdb5ba&#45;&gt;dir_a06008c3e245d1092ba6894d6caedef2 -->
<g id="edge5" class="edge">
<title>dir_4546011bd625f1142c4c4ae06dcdb5ba&#45;&gt;dir_a06008c3e245d1092ba6894d6caedef2</title>
<path fill="none" stroke="black" d="M163.17,-71.7C166.43,-63.81 170.37,-54.3 174,-45.55"/>
<polygon fill="black" stroke="black" points="177.32,-46.68 177.91,-36.1 170.85,-44 177.32,-46.68"/>
<g id="a_edge5&#45;headlabel"><a xlink:href="dir_000089_000096.html" target="_top" xlink:title="22">
<text text-anchor="middle" x="178.57" y="-48.59" font-family="FreeSans" font-size="10.00">22</text>
</a>
</g>
</g>
<!-- dir_b8ce078ed9f8fd90d71e02c796d93353&#45;&gt;dir_4546011bd625f1142c4c4ae06dcdb5ba -->
<g id="edge6" class="edge">
<title>dir_b8ce078ed9f8fd90d71e02c796d93353&#45;&gt;dir_4546011bd625f1142c4c4ae06dcdb5ba</title>
<path fill="none" stroke="black" d="M199.66,-143.7C192.71,-135.3 184.23,-125.07 176.6,-115.86"/>
<polygon fill="black" stroke="black" points="179.25,-113.57 170.17,-108.1 173.86,-118.04 179.25,-113.57"/>
<g id="a_edge6&#45;headlabel"><a xlink:href="dir_000104_000089.html" target="_top" xlink:title="4">
<text text-anchor="middle" x="183.73" y="-112.03" font-family="FreeSans" font-size="10.00">4</text>
</a>
</g>
</g>
<!-- dir_b8ce078ed9f8fd90d71e02c796d93353&#45;&gt;dir_a06008c3e245d1092ba6894d6caedef2 -->
<g id="edge7" class="edge">
<title>dir_b8ce078ed9f8fd90d71e02c796d93353&#45;&gt;dir_a06008c3e245d1092ba6894d6caedef2</title>
<path fill="none" stroke="black" d="M210.5,-143.87C205.54,-119.56 196.4,-74.82 190.52,-46.01"/>
<polygon fill="black" stroke="black" points="193.94,-45.29 188.51,-36.19 187.08,-46.69 193.94,-45.29"/>
<g id="a_edge7&#45;headlabel"><a xlink:href="dir_000104_000096.html" target="_top" xlink:title="7">
<text text-anchor="middle" x="197.44" y="-45.74" font-family="FreeSans" font-size="10.00">7</text>
</a>
</g>
</g>
</g>
</svg>
