<?xml version="1.0" encoding="UTF-8" standalone="no"?>
<!DOCTYPE svg PUBLIC "-//W3C//DTD SVG 1.1//EN"
 "http://www.w3.org/Graphics/SVG/1.1/DTD/svg11.dtd">
<!-- Generated by graphviz version 2.43.0 (0)
 -->
<!-- Title: include Pages: 1 -->
<svg width="124pt" height="295pt"
 viewBox="0.00 0.00 124.00 295.00" xmlns="http://www.w3.org/2000/svg" xmlns:xlink="http://www.w3.org/1999/xlink">
<g id="graph0" class="graph" transform="scale(1 1) rotate(0) translate(4 291)">
<title>include</title>
<polygon fill="white" stroke="transparent" points="-4,4 -4,-291 120,-291 120,4 -4,4"/>
<g id="clust1" class="cluster">
<title>clusterdir_86b85e15943ea3cbc40c546f382f4970</title>
<g id="a_clust1"><a xlink:href="dir_86b85e15943ea3cbc40c546f382f4970.html" target="_top" xlink:title="ffsearch">
<polygon fill="#ddddee" stroke="black" points="38,-208 38,-279 108,-279 108,-208 38,-208"/>
<text text-anchor="middle" x="73" y="-267" font-family="FreeSans" font-size="10.00">ffsearch</text>
</a>
</g>
</g>
<!-- dir_57f445dd524d26a2684c85cbf39324f0 -->
<g id="node1" class="node">
<title>dir_57f445dd524d26a2684c85cbf39324f0</title>
<g id="a_node1"><a xlink:href="dir_57f445dd524d26a2684c85cbf39324f0.html" target="_top" xlink:title="include">
<polygon fill="#eeeeff" stroke="black" points="100,-252 46,-252 46,-216 100,-216 100,-252"/>
<text text-anchor="middle" x="73" y="-231.5" font-family="FreeSans" font-size="10.00">include</text>
</a>
</g>
</g>
<!-- dir_0908837483934fe24781ea7898fec311 -->
<g id="node2" class="node">
<title>dir_0908837483934fe24781ea7898fec311</title>
<g id="a_node2"><a xlink:href="dir_0908837483934fe24781ea7898fec311.html" target="_top" xlink:title="ffcore">
<polygon fill="white" stroke="red" points="100,-180 46,-180 46,-144 100,-144 100,-180"/>
<text text-anchor="middle" x="73" y="-159.5" font-family="FreeSans" font-size="10.00">ffcore</text>
</a>
</g>
</g>
<!-- dir_57f445dd524d26a2684c85cbf39324f0&#45;&gt;dir_0908837483934fe24781ea7898fec311 -->
<g id="edge2" class="edge">
<title>dir_57f445dd524d26a2684c85cbf39324f0&#45;&gt;dir_0908837483934fe24781ea7898fec311</title>
<path fill="none" stroke="black" d="M73,-215.7C73,-207.98 73,-198.71 73,-190.11"/>
<polygon fill="black" stroke="black" points="76.5,-190.1 73,-180.1 69.5,-190.1 76.5,-190.1"/>
<g id="a_edge2&#45;headlabel"><a xlink:href="dir_000029_000047.html" target="_top" xlink:title="1">
<text text-anchor="middle" x="79.34" y="-191.2" font-family="FreeSans" font-size="10.00">1</text>
</a>
</g>
</g>
<!-- dir_64078e4dd55db1ba2b4e557207803e4b -->
<g id="node3" class="node">
<title>dir_64078e4dd55db1ba2b4e557207803e4b</title>
<g id="a_node3"><a xlink:href="dir_64078e4dd55db1ba2b4e557207803e4b.html" target="_top" xlink:title="vex">
<polygon fill="white" stroke="red" points="54,-108 0,-108 0,-72 54,-72 54,-108"/>
<text text-anchor="middle" x="27" y="-87.5" font-family="FreeSans" font-size="10.00">vex</text>
</a>
</g>
</g>
<!-- dir_57f445dd524d26a2684c85cbf39324f0&#45;&gt;dir_64078e4dd55db1ba2b4e557207803e4b -->
<g id="edge3" class="edge">
<title>dir_57f445dd524d26a2684c85cbf39324f0&#45;&gt;dir_64078e4dd55db1ba2b4e557207803e4b</title>
<path fill="none" stroke="black" d="M57.97,-215.58C50.38,-205.78 41.78,-192.94 37,-180 29.68,-160.22 27.31,-136.42 26.7,-118.41"/>
<polygon fill="black" stroke="black" points="30.2,-118.23 26.52,-108.29 23.2,-118.35 30.2,-118.23"/>
<g id="a_edge3&#45;headlabel"><a xlink:href="dir_000029_000044.html" target="_top" xlink:title="1">
<text text-anchor="middle" x="33.1" y="-119.27" font-family="FreeSans" font-size="10.00">1</text>
</a>
</g>
</g>
<!-- dir_cb2d4e92f47691559fc9d122a5e37fac -->
<g id="node4" class="node">
<title>dir_cb2d4e92f47691559fc9d122a5e37fac</title>
<g id="a_node4"><a xlink:href="dir_cb2d4e92f47691559fc9d122a5e37fac.html" target="_top" xlink:title="mk4util">
<polygon fill="white" stroke="red" points="109,-36 55,-36 55,0 109,0 109,-36"/>
<text text-anchor="middle" x="82" y="-15.5" font-family="FreeSans" font-size="10.00">mk4util</text>
</a>
</g>
</g>
<!-- dir_57f445dd524d26a2684c85cbf39324f0&#45;&gt;dir_cb2d4e92f47691559fc9d122a5e37fac -->
<g id="edge4" class="edge">
<title>dir_57f445dd524d26a2684c85cbf39324f0&#45;&gt;dir_cb2d4e92f47691559fc9d122a5e37fac</title>
<path fill="none" stroke="black" d="M88.61,-215.77C96.37,-206.03 104.95,-193.18 109,-180 123.13,-134.04 106.68,-78.3 93.97,-45.91"/>
<polygon fill="black" stroke="black" points="97.05,-44.19 90.02,-36.26 90.57,-46.84 97.05,-44.19"/>
<g id="a_edge4&#45;headlabel"><a xlink:href="dir_000029_000014.html" target="_top" xlink:title="1">
<text text-anchor="middle" x="101.04" y="-43.94" font-family="FreeSans" font-size="10.00">1</text>
</a>
</g>
</g>
<!-- dir_0908837483934fe24781ea7898fec311&#45;&gt;dir_64078e4dd55db1ba2b4e557207803e4b -->
<g id="edge6" class="edge">
<title>dir_0908837483934fe24781ea7898fec311&#45;&gt;dir_64078e4dd55db1ba2b4e557207803e4b</title>
<path fill="none" stroke="black" d="M61.63,-143.7C56.28,-135.56 49.8,-125.69 43.89,-116.7"/>
<polygon fill="black" stroke="black" points="46.66,-114.54 38.24,-108.1 40.81,-118.38 46.66,-114.54"/>
<g id="a_edge6&#45;headlabel"><a xlink:href="dir_000047_000044.html" target="_top" xlink:title="7">
<text text-anchor="middle" x="51" y="-113.48" font-family="FreeSans" font-size="10.00">7</text>
</a>
</g>
</g>
<!-- dir_0908837483934fe24781ea7898fec311&#45;&gt;dir_cb2d4e92f47691559fc9d122a5e37fac -->
<g id="edge5" class="edge">
<title>dir_0908837483934fe24781ea7898fec311&#45;&gt;dir_cb2d4e92f47691559fc9d122a5e37fac</title>
<path fill="none" stroke="black" d="M74.09,-143.87C75.62,-119.67 78.44,-75.21 80.26,-46.39"/>
<polygon fill="black" stroke="black" points="83.77,-46.39 80.91,-36.19 76.78,-45.95 83.77,-46.39"/>
<g id="a_edge5&#45;headlabel"><a xlink:href="dir_000047_000014.html" target="_top" xlink:title="19">
<text text-anchor="middle" x="86.38" y="-47.66" font-family="FreeSans" font-size="10.00">19</text>
</a>
</g>
</g>
<!-- dir_64078e4dd55db1ba2b4e557207803e4b&#45;&gt;dir_cb2d4e92f47691559fc9d122a5e37fac -->
<g id="edge1" class="edge">
<title>dir_64078e4dd55db1ba2b4e557207803e4b&#45;&gt;dir_cb2d4e92f47691559fc9d122a5e37fac</title>
<path fill="none" stroke="black" d="M40.6,-71.7C47.12,-63.39 55.07,-53.28 62.25,-44.14"/>
<polygon fill="black" stroke="black" points="65.13,-46.13 68.56,-36.1 59.63,-41.81 65.13,-46.13"/>
<g id="a_edge1&#45;headlabel"><a xlink:href="dir_000044_000014.html" target="_top" xlink:title="76">
<text text-anchor="middle" x="65.15" y="-48.21" font-family="FreeSans" font-size="10.00">76</text>
</a>
</g>
</g>
</g>
</svg>
