<?xml version="1.0" encoding="UTF-8" standalone="no"?>
<!DOCTYPE svg PUBLIC "-//W3C//DTD SVG 1.1//EN"
 "http://www.w3.org/Graphics/SVG/1.1/DTD/svg11.dtd">
<!-- Generated by graphviz version 2.43.0 (0)
 -->
<!-- Title: src Pages: 1 -->
<svg width="167pt" height="167pt"
 viewBox="0.00 0.00 167.00 167.00" xmlns="http://www.w3.org/2000/svg" xmlns:xlink="http://www.w3.org/1999/xlink">
<g id="graph0" class="graph" transform="scale(1 1) rotate(0) translate(4 163)">
<title>src</title>
<polygon fill="white" stroke="transparent" points="-4,4 -4,-163 163,-163 163,4 -4,4"/>
<g id="clust1" class="cluster">
<title>clusterdir_3de3da6d4c9d65ab754731601bf39ce5</title>
<g id="a_clust1"><a xlink:href="dir_3de3da6d4c9d65ab754731601bf39ce5.html" target="_top" xlink:title="ffcontrol_module">
<polygon fill="#ddddee" stroke="black" points="8,-8 8,-151 96,-151 96,-8 8,-8"/>
<text text-anchor="middle" x="52" y="-139" font-family="FreeSans" font-size="10.00">ffcontrol_module</text>
</a>
</g>
</g>
<!-- dir_02cc3aad29f95b313e122d53772d6737 -->
<g id="node1" class="node">
<title>dir_02cc3aad29f95b313e122d53772d6737</title>
<g id="a_node1"><a xlink:href="dir_02cc3aad29f95b313e122d53772d6737.html" target="_top" xlink:title="include">
<polygon fill="none" stroke="black" points="87,-52 33,-52 33,-16 87,-16 87,-52"/>
<text text-anchor="middle" x="60" y="-31.5" font-family="FreeSans" font-size="10.00">include</text>
</a>
</g>
</g>
<!-- dir_3ad2767cd686ee93335873d1cbbf2f48 -->
<g id="node2" class="node">
<title>dir_3ad2767cd686ee93335873d1cbbf2f48</title>
<g id="a_node2"><a xlink:href="dir_3ad2767cd686ee93335873d1cbbf2f48.html" target="_top" xlink:title="src">
<polygon fill="#eeeeff" stroke="black" points="87,-124 33,-124 33,-88 87,-88 87,-124"/>
<text text-anchor="middle" x="60" y="-103.5" font-family="FreeSans" font-size="10.00">src</text>
</a>
</g>
</g>
<!-- dir_3ad2767cd686ee93335873d1cbbf2f48&#45;&gt;dir_02cc3aad29f95b313e122d53772d6737 -->
<g id="edge1" class="edge">
<title>dir_3ad2767cd686ee93335873d1cbbf2f48&#45;&gt;dir_02cc3aad29f95b313e122d53772d6737</title>
<path fill="none" stroke="black" d="M60,-87.7C60,-79.98 60,-70.71 60,-62.11"/>
<polygon fill="black" stroke="black" points="63.5,-62.1 60,-52.1 56.5,-62.1 63.5,-62.1"/>
<g id="a_edge1&#45;headlabel"><a xlink:href="dir_000053_000069.html" target="_top" xlink:title="2">
<text text-anchor="middle" x="66.34" y="-63.2" font-family="FreeSans" font-size="10.00">2</text>
</a>
</g>
</g>
<!-- dir_0c6283dd7716efebfcf76fdb98d8e794 -->
<g id="node3" class="node">
<title>dir_0c6283dd7716efebfcf76fdb98d8e794</title>
<g id="a_node3"><a xlink:href="dir_0c6283dd7716efebfcf76fdb98d8e794.html" target="_top" xlink:title="c_src">
<polygon fill="white" stroke="red" points="159,-52 105,-52 105,-16 159,-16 159,-52"/>
<text text-anchor="middle" x="132" y="-31.5" font-family="FreeSans" font-size="10.00">c_src</text>
</a>
</g>
</g>
<!-- dir_3ad2767cd686ee93335873d1cbbf2f48&#45;&gt;dir_0c6283dd7716efebfcf76fdb98d8e794 -->
<g id="edge2" class="edge">
<title>dir_3ad2767cd686ee93335873d1cbbf2f48&#45;&gt;dir_0c6283dd7716efebfcf76fdb98d8e794</title>
<path fill="none" stroke="black" d="M77.8,-87.7C86.6,-79.14 97.38,-68.66 107,-59.3"/>
<polygon fill="black" stroke="black" points="109.68,-61.58 114.41,-52.1 104.8,-56.57 109.68,-61.58"/>
<g id="a_edge2&#45;headlabel"><a xlink:href="dir_000053_000013.html" target="_top" xlink:title="4">
<text text-anchor="middle" x="109.08" y="-63.63" font-family="FreeSans" font-size="10.00">4</text>
</a>
</g>
</g>
</g>
</svg>
