<?xml version="1.0" encoding="UTF-8" standalone="no"?>
<!DOCTYPE svg PUBLIC "-//W3C//DTD SVG 1.1//EN"
 "http://www.w3.org/Graphics/SVG/1.1/DTD/svg11.dtd">
<!-- Generated by graphviz version 2.43.0 (0)
 -->
<!-- Title: include Pages: 1 -->
<svg width="212pt" height="295pt"
 viewBox="0.00 0.00 212.04 295.00" xmlns="http://www.w3.org/2000/svg" xmlns:xlink="http://www.w3.org/1999/xlink">
<g id="graph0" class="graph" transform="scale(1 1) rotate(0) translate(4 291)">
<title>include</title>
<polygon fill="white" stroke="transparent" points="-4,4 -4,-291 208.04,-291 208.04,4 -4,4"/>
<g id="clust1" class="cluster">
<title>clusterdir_1eaf6bebd9507c59d4a84c19881443c9</title>
<g id="a_clust1"><a xlink:href="dir_1eaf6bebd9507c59d4a84c19881443c9.html" target="_top" xlink:title="Operators">
<polygon fill="#ddddee" stroke="black" points="87.5,-208 87.5,-279 157.5,-279 157.5,-208 87.5,-208"/>
<text text-anchor="middle" x="122.5" y="-267" font-family="FreeSans" font-size="10.00">Operators</text>
</a>
</g>
</g>
<!-- dir_0262127b99cd8b573db74bf3e082bbaa -->
<g id="node1" class="node">
<title>dir_0262127b99cd8b573db74bf3e082bbaa</title>
<g id="a_node1"><a xlink:href="dir_0262127b99cd8b573db74bf3e082bbaa.html" target="_top" xlink:title="include">
<polygon fill="#eeeeff" stroke="black" points="149.5,-252 95.5,-252 95.5,-216 149.5,-216 149.5,-252"/>
<text text-anchor="middle" x="122.5" y="-231.5" font-family="FreeSans" font-size="10.00">include</text>
</a>
</g>
</g>
<!-- dir_4546011bd625f1142c4c4ae06dcdb5ba -->
<g id="node2" class="node">
<title>dir_4546011bd625f1142c4c4ae06dcdb5ba</title>
<g id="a_node2"><a xlink:href="dir_4546011bd625f1142c4c4ae06dcdb5ba.html" target="_top" xlink:title="Operators">
<polygon fill="white" stroke="red" points="125,-108 66,-108 66,-72 125,-72 125,-108"/>
<text text-anchor="middle" x="95.5" y="-87.5" font-family="FreeSans" font-size="10.00">Operators</text>
</a>
</g>
</g>
<!-- dir_0262127b99cd8b573db74bf3e082bbaa&#45;&gt;dir_4546011bd625f1142c4c4ae06dcdb5ba -->
<g id="edge1" class="edge">
<title>dir_0262127b99cd8b573db74bf3e082bbaa&#45;&gt;dir_4546011bd625f1142c4c4ae06dcdb5ba</title>
<path fill="none" stroke="black" d="M118.37,-215.87C115.93,-205.51 112.87,-192.03 110.5,-180 106.43,-159.38 102.51,-135.93 99.69,-118.28"/>
<polygon fill="black" stroke="black" points="103.11,-117.45 98.09,-108.11 96.19,-118.54 103.11,-117.45"/>
<g id="a_edge1&#45;headlabel"><a xlink:href="dir_000139_000089.html" target="_top" xlink:title="4">
<text text-anchor="middle" x="106.47" y="-118.06" font-family="FreeSans" font-size="10.00">4</text>
</a>
</g>
</g>
<!-- dir_68ccf097de5ef9ba8fe5a1575ab7d7d7 -->
<g id="node3" class="node">
<title>dir_68ccf097de5ef9ba8fe5a1575ab7d7d7</title>
<g id="a_node3"><a xlink:href="dir_68ccf097de5ef9ba8fe5a1575ab7d7d7.html" target="_top" xlink:title="Containers">
<polygon fill="white" stroke="red" points="63,-180 0,-180 0,-144 63,-144 63,-180"/>
<text text-anchor="middle" x="31.5" y="-159.5" font-family="FreeSans" font-size="10.00">Containers</text>
</a>
</g>
</g>
<!-- dir_0262127b99cd8b573db74bf3e082bbaa&#45;&gt;dir_68ccf097de5ef9ba8fe5a1575ab7d7d7 -->
<g id="edge2" class="edge">
<title>dir_0262127b99cd8b573db74bf3e082bbaa&#45;&gt;dir_68ccf097de5ef9ba8fe5a1575ab7d7d7</title>
<path fill="none" stroke="black" d="M100.01,-215.7C88.54,-206.88 74.44,-196.03 62.02,-186.47"/>
<polygon fill="black" stroke="black" points="63.8,-183.43 53.74,-180.1 59.53,-188.98 63.8,-183.43"/>
<g id="a_edge2&#45;headlabel"><a xlink:href="dir_000139_000135.html" target="_top" xlink:title="9">
<text text-anchor="middle" x="68.38" y="-180.87" font-family="FreeSans" font-size="10.00">9</text>
</a>
</g>
</g>
<!-- dir_a06008c3e245d1092ba6894d6caedef2 -->
<g id="node4" class="node">
<title>dir_a06008c3e245d1092ba6894d6caedef2</title>
<g id="a_node4"><a xlink:href="dir_a06008c3e245d1092ba6894d6caedef2.html" target="_top" xlink:title="Containers">
<polygon fill="white" stroke="red" points="156,-36 93,-36 93,0 156,0 156,-36"/>
<text text-anchor="middle" x="124.5" y="-15.5" font-family="FreeSans" font-size="10.00">Containers</text>
</a>
</g>
</g>
<!-- dir_0262127b99cd8b573db74bf3e082bbaa&#45;&gt;dir_a06008c3e245d1092ba6894d6caedef2 -->
<g id="edge3" class="edge">
<title>dir_0262127b99cd8b573db74bf3e082bbaa&#45;&gt;dir_a06008c3e245d1092ba6894d6caedef2</title>
<path fill="none" stroke="black" d="M149.56,-221.58C166.41,-212.88 186.68,-199.12 196.5,-180 220.75,-132.8 179.17,-75.72 149.77,-43.77"/>
<polygon fill="black" stroke="black" points="152.03,-41.06 142.61,-36.21 146.95,-45.87 152.03,-41.06"/>
<g id="a_edge3&#45;headlabel"><a xlink:href="dir_000139_000096.html" target="_top" xlink:title="3">
<text text-anchor="middle" x="156.56" y="-39.22" font-family="FreeSans" font-size="10.00">3</text>
</a>
</g>
</g>
<!-- dir_b8ce078ed9f8fd90d71e02c796d93353 -->
<g id="node5" class="node">
<title>dir_b8ce078ed9f8fd90d71e02c796d93353</title>
<g id="a_node5"><a xlink:href="dir_b8ce078ed9f8fd90d71e02c796d93353.html" target="_top" xlink:title="Initialization">
<polygon fill="white" stroke="red" points="187.5,-180 119.5,-180 119.5,-144 187.5,-144 187.5,-180"/>
<text text-anchor="middle" x="153.5" y="-159.5" font-family="FreeSans" font-size="10.00">Initialization</text>
</a>
</g>
</g>
<!-- dir_0262127b99cd8b573db74bf3e082bbaa&#45;&gt;dir_b8ce078ed9f8fd90d71e02c796d93353 -->
<g id="edge4" class="edge">
<title>dir_0262127b99cd8b573db74bf3e082bbaa&#45;&gt;dir_b8ce078ed9f8fd90d71e02c796d93353</title>
<path fill="none" stroke="black" d="M130.16,-215.7C133.69,-207.73 137.96,-198.1 141.87,-189.26"/>
<polygon fill="black" stroke="black" points="145.08,-190.67 145.93,-180.1 138.68,-187.83 145.08,-190.67"/>
<g id="a_edge4&#45;headlabel"><a xlink:href="dir_000139_000104.html" target="_top" xlink:title="1">
<text text-anchor="middle" x="146.22" y="-192.6" font-family="FreeSans" font-size="10.00">1</text>
</a>
</g>
</g>
<!-- dir_4546011bd625f1142c4c4ae06dcdb5ba&#45;&gt;dir_a06008c3e245d1092ba6894d6caedef2 -->
<g id="edge5" class="edge">
<title>dir_4546011bd625f1142c4c4ae06dcdb5ba&#45;&gt;dir_a06008c3e245d1092ba6894d6caedef2</title>
<path fill="none" stroke="black" d="M102.67,-71.7C105.93,-63.81 109.87,-54.3 113.5,-45.55"/>
<polygon fill="black" stroke="black" points="116.82,-46.68 117.41,-36.1 110.35,-44 116.82,-46.68"/>
<g id="a_edge5&#45;headlabel"><a xlink:href="dir_000089_000096.html" target="_top" xlink:title="22">
<text text-anchor="middle" x="118.07" y="-48.59" font-family="FreeSans" font-size="10.00">22</text>
</a>
</g>
</g>
<!-- dir_68ccf097de5ef9ba8fe5a1575ab7d7d7&#45;&gt;dir_a06008c3e245d1092ba6894d6caedef2 -->
<g id="edge8" class="edge">
<title>dir_68ccf097de5ef9ba8fe5a1575ab7d7d7&#45;&gt;dir_a06008c3e245d1092ba6894d6caedef2</title>
<path fill="none" stroke="black" d="M33.09,-143.94C35.55,-124.97 41.65,-94.12 56.5,-72 64.28,-60.41 75.41,-50.24 86.42,-41.98"/>
<polygon fill="black" stroke="black" points="88.64,-44.7 94.76,-36.05 84.58,-38.99 88.64,-44.7"/>
<g id="a_edge8&#45;headlabel"><a xlink:href="dir_000135_000096.html" target="_top" xlink:title="14">
<text text-anchor="middle" x="87.36" y="-46.59" font-family="FreeSans" font-size="10.00">14</text>
</a>
</g>
</g>
<!-- dir_b8ce078ed9f8fd90d71e02c796d93353&#45;&gt;dir_4546011bd625f1142c4c4ae06dcdb5ba -->
<g id="edge6" class="edge">
<title>dir_b8ce078ed9f8fd90d71e02c796d93353&#45;&gt;dir_4546011bd625f1142c4c4ae06dcdb5ba</title>
<path fill="none" stroke="black" d="M139.16,-143.7C132.21,-135.3 123.73,-125.07 116.1,-115.86"/>
<polygon fill="black" stroke="black" points="118.75,-113.57 109.67,-108.1 113.36,-118.04 118.75,-113.57"/>
<g id="a_edge6&#45;headlabel"><a xlink:href="dir_000104_000089.html" target="_top" xlink:title="4">
<text text-anchor="middle" x="123.23" y="-112.03" font-family="FreeSans" font-size="10.00">4</text>
</a>
</g>
</g>
<!-- dir_b8ce078ed9f8fd90d71e02c796d93353&#45;&gt;dir_a06008c3e245d1092ba6894d6caedef2 -->
<g id="edge7" class="edge">
<title>dir_b8ce078ed9f8fd90d71e02c796d93353&#45;&gt;dir_a06008c3e245d1092ba6894d6caedef2</title>
<path fill="none" stroke="black" d="M150,-143.87C145.04,-119.56 135.9,-74.82 130.02,-46.01"/>
<polygon fill="black" stroke="black" points="133.44,-45.29 128.01,-36.19 126.58,-46.69 133.44,-45.29"/>
<g id="a_edge7&#45;headlabel"><a xlink:href="dir_000104_000096.html" target="_top" xlink:title="7">
<text text-anchor="middle" x="136.94" y="-45.74" font-family="FreeSans" font-size="10.00">7</text>
</a>
</g>
</g>
</g>
</svg>
