<?xml version="1.0" encoding="UTF-8" standalone="no"?>
<!DOCTYPE svg PUBLIC "-//W3C//DTD SVG 1.1//EN"
 "http://www.w3.org/Graphics/SVG/1.1/DTD/svg11.dtd">
<!-- Generated by graphviz version 2.43.0 (0)
 -->
<!-- Title: DiFXInterface Pages: 1 -->
<svg width="382pt" height="463pt"
 viewBox="0.00 0.00 382.00 463.00" xmlns="http://www.w3.org/2000/svg" xmlns:xlink="http://www.w3.org/1999/xlink">
<g id="graph0" class="graph" transform="scale(1 1) rotate(0) translate(4 459)">
<title>DiFXInterface</title>
<polygon fill="white" stroke="transparent" points="-4,4 -4,-459 378,-459 378,4 -4,4"/>
<g id="clust1" class="cluster">
<title>clusterdir_730935399589b544a579302a37a46c03</title>
<g id="a_clust1"><a xlink:href="dir_730935399589b544a579302a37a46c03.html" target="_top" xlink:title="cpp_src">
<polygon fill="#ddddee" stroke="black" points="8,-8 8,-447 366,-447 366,-8 8,-8"/>
<text text-anchor="middle" x="187" y="-435" font-family="FreeSans" font-size="10.00">cpp_src</text>
</a>
</g>
</g>
<g id="clust2" class="cluster">
<title>clusterdir_ffd3462840ed92d3b36f06c2f7a1a3a4</title>
<g id="a_clust2"><a xlink:href="dir_ffd3462840ed92d3b36f06c2f7a1a3a4.html" target="_top">
<polygon fill="#eeeeff" stroke="black" points="16,-296 16,-420 268,-420 268,-296 16,-296"/>
</a>
</g>
</g>
<!-- dir_150f406a44a04ce55518da03ec553ece -->
<g id="node1" class="node">
<title>dir_150f406a44a04ce55518da03ec553ece</title>
<g id="a_node1"><a xlink:href="dir_150f406a44a04ce55518da03ec553ece.html" target="_top" xlink:title="Utilities">
<polygon fill="white" stroke="red" points="220,-124 166,-124 166,-88 220,-88 220,-124"/>
<text text-anchor="middle" x="193" y="-103.5" font-family="FreeSans" font-size="10.00">Utilities</text>
</a>
</g>
</g>
<!-- dir_32348ece3c89569e6a714937ae854c89 -->
<g id="node2" class="node">
<title>dir_32348ece3c89569e6a714937ae854c89</title>
<g id="a_node2"><a xlink:href="dir_32348ece3c89569e6a714937ae854c89.html" target="_top" xlink:title="Message">
<polygon fill="white" stroke="red" points="221,-52 165,-52 165,-16 221,-16 221,-52"/>
<text text-anchor="middle" x="193" y="-31.5" font-family="FreeSans" font-size="10.00">Message</text>
</a>
</g>
</g>
<!-- dir_150f406a44a04ce55518da03ec553ece&#45;&gt;dir_32348ece3c89569e6a714937ae854c89 -->
<g id="edge24" class="edge">
<title>dir_150f406a44a04ce55518da03ec553ece&#45;&gt;dir_32348ece3c89569e6a714937ae854c89</title>
<path fill="none" stroke="black" d="M193,-87.7C193,-79.98 193,-70.71 193,-62.11"/>
<polygon fill="black" stroke="black" points="196.5,-62.1 193,-52.1 189.5,-62.1 196.5,-62.1"/>
<g id="a_edge24&#45;headlabel"><a xlink:href="dir_000086_000123.html" target="_top" xlink:title="13">
<text text-anchor="middle" x="199.34" y="-63.2" font-family="FreeSans" font-size="10.00">13</text>
</a>
</g>
</g>
<!-- dir_a06008c3e245d1092ba6894d6caedef2 -->
<g id="node3" class="node">
<title>dir_a06008c3e245d1092ba6894d6caedef2</title>
<g id="a_node3"><a xlink:href="dir_a06008c3e245d1092ba6894d6caedef2.html" target="_top" xlink:title="Containers">
<polygon fill="white" stroke="red" points="173.5,-196 110.5,-196 110.5,-160 173.5,-160 173.5,-196"/>
<text text-anchor="middle" x="142" y="-175.5" font-family="FreeSans" font-size="10.00">Containers</text>
</a>
</g>
</g>
<!-- dir_a06008c3e245d1092ba6894d6caedef2&#45;&gt;dir_150f406a44a04ce55518da03ec553ece -->
<g id="edge9" class="edge">
<title>dir_a06008c3e245d1092ba6894d6caedef2&#45;&gt;dir_150f406a44a04ce55518da03ec553ece</title>
<path fill="none" stroke="black" d="M154.61,-159.7C160.6,-151.47 167.88,-141.48 174.48,-132.42"/>
<polygon fill="black" stroke="black" points="177.48,-134.25 180.54,-124.1 171.82,-130.13 177.48,-134.25"/>
<g id="a_edge9&#45;headlabel"><a xlink:href="dir_000096_000086.html" target="_top" xlink:title="42">
<text text-anchor="middle" x="177.66" y="-136.32" font-family="FreeSans" font-size="10.00">42</text>
</a>
</g>
</g>
<!-- dir_a06008c3e245d1092ba6894d6caedef2&#45;&gt;dir_32348ece3c89569e6a714937ae854c89 -->
<g id="edge10" class="edge">
<title>dir_a06008c3e245d1092ba6894d6caedef2&#45;&gt;dir_32348ece3c89569e6a714937ae854c89</title>
<path fill="none" stroke="black" d="M142.73,-159.68C144,-141.3 147.48,-111.7 157,-88 160.88,-78.35 166.72,-68.67 172.59,-60.28"/>
<polygon fill="black" stroke="black" points="175.53,-62.19 178.62,-52.06 169.88,-58.05 175.53,-62.19"/>
<g id="a_edge10&#45;headlabel"><a xlink:href="dir_000096_000123.html" target="_top" xlink:title="9">
<text text-anchor="middle" x="175.69" y="-64.27" font-family="FreeSans" font-size="10.00">9</text>
</a>
</g>
</g>
<!-- dir_91ae3e556fa9cad9030b784323206cc7 -->
<g id="node4" class="node">
<title>dir_91ae3e556fa9cad9030b784323206cc7</title>
<g id="a_node4"><a xlink:href="dir_91ae3e556fa9cad9030b784323206cc7.html" target="_top" xlink:title="Calibration">
<polygon fill="white" stroke="red" points="338,-340 276,-340 276,-304 338,-304 338,-340"/>
<text text-anchor="middle" x="307" y="-319.5" font-family="FreeSans" font-size="10.00">Calibration</text>
</a>
</g>
</g>
<!-- dir_91ae3e556fa9cad9030b784323206cc7&#45;&gt;dir_150f406a44a04ce55518da03ec553ece -->
<g id="edge6" class="edge">
<title>dir_91ae3e556fa9cad9030b784323206cc7&#45;&gt;dir_150f406a44a04ce55518da03ec553ece</title>
<path fill="none" stroke="black" d="M299.36,-303.73C291.24,-285.65 277.82,-256.53 265,-232 246.79,-197.17 223.84,-158.06 208.82,-133.01"/>
<polygon fill="black" stroke="black" points="211.63,-130.9 203.47,-124.14 205.63,-134.51 211.63,-130.9"/>
<g id="a_edge6&#45;headlabel"><a xlink:href="dir_000102_000086.html" target="_top" xlink:title="29">
<text text-anchor="middle" x="215.92" y="-130.01" font-family="FreeSans" font-size="10.00">29</text>
</a>
</g>
</g>
<!-- dir_91ae3e556fa9cad9030b784323206cc7&#45;&gt;dir_32348ece3c89569e6a714937ae854c89 -->
<g id="edge5" class="edge">
<title>dir_91ae3e556fa9cad9030b784323206cc7&#45;&gt;dir_32348ece3c89569e6a714937ae854c89</title>
<path fill="none" stroke="black" d="M304.25,-303.72C297.4,-263.78 277.13,-162.81 237,-88 231.69,-78.1 224.35,-68.32 217.18,-59.92"/>
<polygon fill="black" stroke="black" points="219.69,-57.48 210.44,-52.32 214.46,-62.12 219.69,-57.48"/>
<g id="a_edge5&#45;headlabel"><a xlink:href="dir_000102_000123.html" target="_top" xlink:title="22">
<text text-anchor="middle" x="224.2" y="-55.78" font-family="FreeSans" font-size="10.00">22</text>
</a>
</g>
</g>
<!-- dir_91ae3e556fa9cad9030b784323206cc7&#45;&gt;dir_a06008c3e245d1092ba6894d6caedef2 -->
<g id="edge7" class="edge">
<title>dir_91ae3e556fa9cad9030b784323206cc7&#45;&gt;dir_a06008c3e245d1092ba6894d6caedef2</title>
<path fill="none" stroke="black" d="M285.04,-303.82C280.85,-300.98 276.39,-298.24 272,-296 236.93,-278.14 217.9,-293.58 188,-268 168.98,-251.73 156.81,-225.62 149.79,-205.88"/>
<polygon fill="black" stroke="black" points="153.06,-204.62 146.59,-196.23 146.42,-206.82 153.06,-204.62"/>
<g id="a_edge7&#45;headlabel"><a xlink:href="dir_000102_000096.html" target="_top" xlink:title="64">
<text text-anchor="middle" x="156.89" y="-204.63" font-family="FreeSans" font-size="10.00">64</text>
</a>
</g>
</g>
<!-- dir_4546011bd625f1142c4c4ae06dcdb5ba -->
<g id="node5" class="node">
<title>dir_4546011bd625f1142c4c4ae06dcdb5ba</title>
<g id="a_node5"><a xlink:href="dir_4546011bd625f1142c4c4ae06dcdb5ba.html" target="_top" xlink:title="Operators">
<polygon fill="white" stroke="red" points="255.5,-268 196.5,-268 196.5,-232 255.5,-232 255.5,-268"/>
<text text-anchor="middle" x="226" y="-247.5" font-family="FreeSans" font-size="10.00">Operators</text>
</a>
</g>
</g>
<!-- dir_91ae3e556fa9cad9030b784323206cc7&#45;&gt;dir_4546011bd625f1142c4c4ae06dcdb5ba -->
<g id="edge8" class="edge">
<title>dir_91ae3e556fa9cad9030b784323206cc7&#45;&gt;dir_4546011bd625f1142c4c4ae06dcdb5ba</title>
<path fill="none" stroke="black" d="M286.98,-303.7C276.87,-294.97 264.46,-284.24 253.48,-274.75"/>
<polygon fill="black" stroke="black" points="255.65,-271.99 245.79,-268.1 251.07,-277.29 255.65,-271.99"/>
<g id="a_edge8&#45;headlabel"><a xlink:href="dir_000102_000089.html" target="_top" xlink:title="55">
<text text-anchor="middle" x="260.22" y="-269.7" font-family="FreeSans" font-size="10.00">55</text>
</a>
</g>
</g>
<!-- dir_4546011bd625f1142c4c4ae06dcdb5ba&#45;&gt;dir_150f406a44a04ce55518da03ec553ece -->
<g id="edge14" class="edge">
<title>dir_4546011bd625f1142c4c4ae06dcdb5ba&#45;&gt;dir_150f406a44a04ce55518da03ec553ece</title>
<path fill="none" stroke="black" d="M222.02,-231.87C216.37,-207.56 205.97,-162.82 199.28,-134.01"/>
<polygon fill="black" stroke="black" points="202.67,-133.14 196.99,-124.19 195.85,-134.72 202.67,-133.14"/>
<g id="a_edge14&#45;headlabel"><a xlink:href="dir_000089_000086.html" target="_top" xlink:title="5">
<text text-anchor="middle" x="206.25" y="-133.5" font-family="FreeSans" font-size="10.00">5</text>
</a>
</g>
</g>
<!-- dir_4546011bd625f1142c4c4ae06dcdb5ba&#45;&gt;dir_32348ece3c89569e6a714937ae854c89 -->
<g id="edge15" class="edge">
<title>dir_4546011bd625f1142c4c4ae06dcdb5ba&#45;&gt;dir_32348ece3c89569e6a714937ae854c89</title>
<path fill="none" stroke="black" d="M229.79,-231.59C235.59,-201.52 244.45,-138.24 229,-88 225.99,-78.22 220.49,-68.62 214.68,-60.33"/>
<polygon fill="black" stroke="black" points="217.41,-58.13 208.61,-52.23 211.81,-62.33 217.41,-58.13"/>
<g id="a_edge15&#45;headlabel"><a xlink:href="dir_000089_000123.html" target="_top" xlink:title="12">
<text text-anchor="middle" x="221.83" y="-56.8" font-family="FreeSans" font-size="10.00">12</text>
</a>
</g>
</g>
<!-- dir_4546011bd625f1142c4c4ae06dcdb5ba&#45;&gt;dir_a06008c3e245d1092ba6894d6caedef2 -->
<g id="edge16" class="edge">
<title>dir_4546011bd625f1142c4c4ae06dcdb5ba&#45;&gt;dir_a06008c3e245d1092ba6894d6caedef2</title>
<path fill="none" stroke="black" d="M205.24,-231.7C194.76,-222.97 181.89,-212.24 170.5,-202.75"/>
<polygon fill="black" stroke="black" points="172.45,-199.82 162.53,-196.1 167.97,-205.19 172.45,-199.82"/>
<g id="a_edge16&#45;headlabel"><a xlink:href="dir_000089_000096.html" target="_top" xlink:title="22">
<text text-anchor="middle" x="177.03" y="-197.44" font-family="FreeSans" font-size="10.00">22</text>
</a>
</g>
</g>
<!-- dir_2d98c6b8f23a5c53321666bdc86a2d6a -->
<g id="node6" class="node">
<title>dir_2d98c6b8f23a5c53321666bdc86a2d6a</title>
<g id="a_node6"><a xlink:href="dir_2d98c6b8f23a5c53321666bdc86a2d6a.html" target="_top" xlink:title="Vex2JSON">
<polygon fill="white" stroke="red" points="357.5,-196 292.5,-196 292.5,-160 357.5,-160 357.5,-196"/>
<text text-anchor="middle" x="325" y="-175.5" font-family="FreeSans" font-size="10.00">Vex2JSON</text>
</a>
</g>
</g>
<!-- dir_2d98c6b8f23a5c53321666bdc86a2d6a&#45;&gt;dir_150f406a44a04ce55518da03ec553ece -->
<g id="edge17" class="edge">
<title>dir_2d98c6b8f23a5c53321666bdc86a2d6a&#45;&gt;dir_150f406a44a04ce55518da03ec553ece</title>
<path fill="none" stroke="black" d="M292.71,-159.88C273.47,-149.67 249.01,-136.7 229.12,-126.16"/>
<polygon fill="black" stroke="black" points="230.54,-122.94 220.06,-121.35 227.26,-129.13 230.54,-122.94"/>
<g id="a_edge17&#45;headlabel"><a xlink:href="dir_000141_000086.html" target="_top" xlink:title="13">
<text text-anchor="middle" x="235.04" y="-119.62" font-family="FreeSans" font-size="10.00">13</text>
</a>
</g>
</g>
<!-- dir_2d98c6b8f23a5c53321666bdc86a2d6a&#45;&gt;dir_32348ece3c89569e6a714937ae854c89 -->
<g id="edge18" class="edge">
<title>dir_2d98c6b8f23a5c53321666bdc86a2d6a&#45;&gt;dir_32348ece3c89569e6a714937ae854c89</title>
<path fill="none" stroke="black" d="M319.12,-159.95C311.82,-140.73 297.88,-109.36 278,-88 264.63,-73.63 246.53,-61.63 230.47,-52.71"/>
<polygon fill="black" stroke="black" points="231.77,-49.43 221.3,-47.81 228.47,-55.61 231.77,-49.43"/>
<g id="a_edge18&#45;headlabel"><a xlink:href="dir_000141_000123.html" target="_top" xlink:title="6">
<text text-anchor="middle" x="236.27" y="-46.12" font-family="FreeSans" font-size="10.00">6</text>
</a>
</g>
</g>
<!-- dir_ffd3462840ed92d3b36f06c2f7a1a3a4 -->
<g id="node7" class="node">
<title>dir_ffd3462840ed92d3b36f06c2f7a1a3a4</title>
<text text-anchor="middle" x="221" y="-391.5" font-family="FreeSans" font-size="10.00">DiFXInterface</text>
</g>
<!-- dir_54c8feb2db02075297606147e04d4d04 -->
<g id="node8" class="node">
<title>dir_54c8feb2db02075297606147e04d4d04</title>
<g id="a_node8"><a xlink:href="dir_54c8feb2db02075297606147e04d4d04.html" target="_top" xlink:title="applications">
<polygon fill="white" stroke="black" points="92,-412 24,-412 24,-376 92,-376 92,-412"/>
<text text-anchor="middle" x="58" y="-391.5" font-family="FreeSans" font-size="10.00">applications</text>
</a>
</g>
</g>
<!-- dir_54c8feb2db02075297606147e04d4d04&#45;&gt;dir_150f406a44a04ce55518da03ec553ece -->
<g id="edge1" class="edge">
<title>dir_54c8feb2db02075297606147e04d4d04&#45;&gt;dir_150f406a44a04ce55518da03ec553ece</title>
<path fill="none" stroke="black" d="M92.09,-378.02C108.7,-369.15 127.69,-356.41 140,-340 186.78,-277.63 193.44,-181.27 193.67,-134.43"/>
<polygon fill="black" stroke="black" points="197.17,-134.15 193.62,-124.16 190.17,-134.18 197.17,-134.15"/>
<g id="a_edge1&#45;headlabel"><a xlink:href="dir_000065_000086.html" target="_top" xlink:title="6">
<text text-anchor="middle" x="200.03" y="-135.23" font-family="FreeSans" font-size="10.00">6</text>
</a>
</g>
</g>
<!-- dir_54c8feb2db02075297606147e04d4d04&#45;&gt;dir_32348ece3c89569e6a714937ae854c89 -->
<g id="edge2" class="edge">
<title>dir_54c8feb2db02075297606147e04d4d04&#45;&gt;dir_32348ece3c89569e6a714937ae854c89</title>
<path fill="none" stroke="black" d="M51.32,-375.81C41.68,-349.4 25,-297.06 25,-251 25,-251 25,-251 25,-177 25,-109.15 105.91,-67.09 155.43,-47.69"/>
<polygon fill="black" stroke="black" points="156.77,-50.93 164.88,-44.12 154.29,-44.38 156.77,-50.93"/>
<g id="a_edge2&#45;headlabel"><a xlink:href="dir_000065_000123.html" target="_top" xlink:title="2">
<text text-anchor="middle" x="154.41" y="-52.36" font-family="FreeSans" font-size="10.00">2</text>
</a>
</g>
</g>
<!-- dir_54c8feb2db02075297606147e04d4d04&#45;&gt;dir_a06008c3e245d1092ba6894d6caedef2 -->
<g id="edge3" class="edge">
<title>dir_54c8feb2db02075297606147e04d4d04&#45;&gt;dir_a06008c3e245d1092ba6894d6caedef2</title>
<path fill="none" stroke="black" d="M90.82,-375.85C104.34,-367.02 118.75,-354.94 127,-340 150.26,-297.86 149.09,-239.96 145.78,-206.3"/>
<polygon fill="black" stroke="black" points="149.25,-205.82 144.66,-196.27 142.3,-206.6 149.25,-205.82"/>
<g id="a_edge3&#45;headlabel"><a xlink:href="dir_000065_000096.html" target="_top" xlink:title="2">
<text text-anchor="middle" x="152.47" y="-206.58" font-family="FreeSans" font-size="10.00">2</text>
</a>
</g>
</g>
<!-- dir_f34f84663972769b5eb23cb9a774d90b -->
<g id="node9" class="node">
<title>dir_f34f84663972769b5eb23cb9a774d90b</title>
<g id="a_node9"><a xlink:href="dir_f34f84663972769b5eb23cb9a774d90b.html" target="_top" xlink:title="include">
<polygon fill="white" stroke="black" points="118,-340 64,-340 64,-304 118,-304 118,-340"/>
<text text-anchor="middle" x="91" y="-319.5" font-family="FreeSans" font-size="10.00">include</text>
</a>
</g>
</g>
<!-- dir_54c8feb2db02075297606147e04d4d04&#45;&gt;dir_f34f84663972769b5eb23cb9a774d90b -->
<g id="edge4" class="edge">
<title>dir_54c8feb2db02075297606147e04d4d04&#45;&gt;dir_f34f84663972769b5eb23cb9a774d90b</title>
<path fill="none" stroke="black" d="M66.16,-375.7C69.91,-367.73 74.45,-358.1 78.62,-349.26"/>
<polygon fill="black" stroke="black" points="81.84,-350.64 82.94,-340.1 75.51,-347.66 81.84,-350.64"/>
<g id="a_edge4&#45;headlabel"><a xlink:href="dir_000065_000116.html" target="_top" xlink:title="2">
<text text-anchor="middle" x="82.87" y="-352.6" font-family="FreeSans" font-size="10.00">2</text>
</a>
</g>
</g>
<!-- dir_f34f84663972769b5eb23cb9a774d90b&#45;&gt;dir_150f406a44a04ce55518da03ec553ece -->
<g id="edge11" class="edge">
<title>dir_f34f84663972769b5eb23cb9a774d90b&#45;&gt;dir_150f406a44a04ce55518da03ec553ece</title>
<path fill="none" stroke="black" d="M87.15,-303.92C81.12,-272.71 72.81,-205.46 101,-160 113.44,-139.94 136.45,-126.69 156.35,-118.45"/>
<polygon fill="black" stroke="black" points="157.73,-121.67 165.8,-114.8 155.22,-115.14 157.73,-121.67"/>
<g id="a_edge11&#45;headlabel"><a xlink:href="dir_000116_000086.html" target="_top" xlink:title="15">
<text text-anchor="middle" x="155.4" y="-123.11" font-family="FreeSans" font-size="10.00">15</text>
</a>
</g>
</g>
<!-- dir_f34f84663972769b5eb23cb9a774d90b&#45;&gt;dir_32348ece3c89569e6a714937ae854c89 -->
<g id="edge12" class="edge">
<title>dir_f34f84663972769b5eb23cb9a774d90b&#45;&gt;dir_32348ece3c89569e6a714937ae854c89</title>
<path fill="none" stroke="black" d="M85.55,-303.76C76.93,-273.4 63.08,-209 83,-160 99.87,-118.5 136.62,-81.44 163.01,-58.65"/>
<polygon fill="black" stroke="black" points="165.45,-61.17 170.83,-52.05 160.93,-55.82 165.45,-61.17"/>
<g id="a_edge12&#45;headlabel"><a xlink:href="dir_000116_000123.html" target="_top" xlink:title="6">
<text text-anchor="middle" x="164.53" y="-63.16" font-family="FreeSans" font-size="10.00">6</text>
</a>
</g>
</g>
<!-- dir_f34f84663972769b5eb23cb9a774d90b&#45;&gt;dir_a06008c3e245d1092ba6894d6caedef2 -->
<g id="edge13" class="edge">
<title>dir_f34f84663972769b5eb23cb9a774d90b&#45;&gt;dir_a06008c3e245d1092ba6894d6caedef2</title>
<path fill="none" stroke="black" d="M97.15,-303.87C105.92,-279.46 122.09,-234.43 132.43,-205.64"/>
<polygon fill="black" stroke="black" points="135.74,-206.78 135.83,-196.19 129.15,-204.42 135.74,-206.78"/>
<g id="a_edge13&#45;headlabel"><a xlink:href="dir_000116_000096.html" target="_top" xlink:title="5">
<text text-anchor="middle" x="137.2" y="-208.63" font-family="FreeSans" font-size="10.00">5</text>
</a>
</g>
</g>
<!-- dir_e14b6f56da0f770cf537fc2113754b6e -->
<g id="node10" class="node">
<title>dir_e14b6f56da0f770cf537fc2113754b6e</title>
<g id="a_node10"><a xlink:href="dir_e14b6f56da0f770cf537fc2113754b6e.html" target="_top" xlink:title="src">
<polygon fill="white" stroke="black" points="164,-412 110,-412 110,-376 164,-376 164,-412"/>
<text text-anchor="middle" x="137" y="-391.5" font-family="FreeSans" font-size="10.00">src</text>
</a>
</g>
</g>
<!-- dir_e14b6f56da0f770cf537fc2113754b6e&#45;&gt;dir_150f406a44a04ce55518da03ec553ece -->
<g id="edge19" class="edge">
<title>dir_e14b6f56da0f770cf537fc2113754b6e&#45;&gt;dir_150f406a44a04ce55518da03ec553ece</title>
<path fill="none" stroke="black" d="M109.59,-379.01C88.19,-367.44 61.08,-351.17 55,-340 45.65,-322.82 53.02,-315.45 55,-296 61.25,-234.61 45.05,-208.66 83,-160 100.99,-136.94 131.55,-123.34 155.89,-115.7"/>
<polygon fill="black" stroke="black" points="156.94,-119.04 165.56,-112.87 154.97,-112.32 156.94,-119.04"/>
<g id="a_edge19&#45;headlabel"><a xlink:href="dir_000115_000086.html" target="_top" xlink:title="3">
<text text-anchor="middle" x="154.29" y="-120.28" font-family="FreeSans" font-size="10.00">3</text>
</a>
</g>
</g>
<!-- dir_e14b6f56da0f770cf537fc2113754b6e&#45;&gt;dir_91ae3e556fa9cad9030b784323206cc7 -->
<g id="edge22" class="edge">
<title>dir_e14b6f56da0f770cf537fc2113754b6e&#45;&gt;dir_91ae3e556fa9cad9030b784323206cc7</title>
<path fill="none" stroke="black" d="M164.37,-380.13C167.6,-378.7 170.86,-377.29 174,-376 213.88,-359.54 227.4,-358.27 266.46,-342.26"/>
<polygon fill="black" stroke="black" points="267.9,-345.44 275.78,-338.36 265.2,-338.99 267.9,-345.44"/>
<g id="a_edge22&#45;headlabel"><a xlink:href="dir_000115_000102.html" target="_top" xlink:title="1">
<text text-anchor="middle" x="265.68" y="-346.95" font-family="FreeSans" font-size="10.00">1</text>
</a>
</g>
</g>
<!-- dir_e14b6f56da0f770cf537fc2113754b6e&#45;&gt;dir_4546011bd625f1142c4c4ae06dcdb5ba -->
<g id="edge21" class="edge">
<title>dir_e14b6f56da0f770cf537fc2113754b6e&#45;&gt;dir_4546011bd625f1142c4c4ae06dcdb5ba</title>
<path fill="none" stroke="black" d="M153.56,-375.71C162.61,-365.75 173.65,-352.71 182,-340 195.1,-320.07 206.9,-295.68 214.97,-277.48"/>
<polygon fill="black" stroke="black" points="218.28,-278.64 219.05,-268.07 211.86,-275.85 218.28,-278.64"/>
<g id="a_edge21&#45;headlabel"><a xlink:href="dir_000115_000089.html" target="_top" xlink:title="2">
<text text-anchor="middle" x="219.45" y="-280.56" font-family="FreeSans" font-size="10.00">2</text>
</a>
</g>
</g>
<!-- dir_e14b6f56da0f770cf537fc2113754b6e&#45;&gt;dir_2d98c6b8f23a5c53321666bdc86a2d6a -->
<g id="edge20" class="edge">
<title>dir_e14b6f56da0f770cf537fc2113754b6e&#45;&gt;dir_2d98c6b8f23a5c53321666bdc86a2d6a</title>
<path fill="none" stroke="black" d="M164.2,-379.67C167.46,-378.32 170.78,-377.06 174,-376 248.6,-351.45 297.45,-400.93 347,-340 378.24,-301.59 356.31,-240.18 339.43,-205.35"/>
<polygon fill="black" stroke="black" points="342.48,-203.63 334.85,-196.28 336.23,-206.78 342.48,-203.63"/>
<g id="a_edge20&#45;headlabel"><a xlink:href="dir_000115_000141.html" target="_top" xlink:title="2">
<text text-anchor="middle" x="346.63" y="-203.06" font-family="FreeSans" font-size="10.00">2</text>
</a>
</g>
</g>
<!-- dir_e14b6f56da0f770cf537fc2113754b6e&#45;&gt;dir_f34f84663972769b5eb23cb9a774d90b -->
<g id="edge23" class="edge">
<title>dir_e14b6f56da0f770cf537fc2113754b6e&#45;&gt;dir_f34f84663972769b5eb23cb9a774d90b</title>
<path fill="none" stroke="black" d="M125.63,-375.7C120.28,-367.56 113.8,-357.69 107.89,-348.7"/>
<polygon fill="black" stroke="black" points="110.66,-346.54 102.24,-340.1 104.81,-350.38 110.66,-346.54"/>
<g id="a_edge23&#45;headlabel"><a xlink:href="dir_000115_000116.html" target="_top" xlink:title="8">
<text text-anchor="middle" x="115" y="-345.48" font-family="FreeSans" font-size="10.00">8</text>
</a>
</g>
</g>
</g>
</svg>
