<?xml version="1.0" encoding="UTF-8" standalone="no"?>
<!DOCTYPE svg PUBLIC "-//W3C//DTD SVG 1.1//EN"
 "http://www.w3.org/Graphics/SVG/1.1/DTD/svg11.dtd">
<!-- Generated by graphviz version 2.43.0 (0)
 -->
<!-- Title: CUDA Pages: 1 -->
<svg width="210pt" height="159pt"
 viewBox="0.00 0.00 210.00 159.00" xmlns="http://www.w3.org/2000/svg" xmlns:xlink="http://www.w3.org/1999/xlink">
<g id="graph0" class="graph" transform="scale(1 1) rotate(0) translate(4 155)">
<title>CUDA</title>
<polygon fill="white" stroke="transparent" points="-4,4 -4,-155 206,-155 206,4 -4,4"/>
<g id="clust1" class="cluster">
<title>clusterdir_26953edb3cb67a8e3bae1da7766c1e03</title>
<g id="a_clust1"><a xlink:href="dir_26953edb3cb67a8e3bae1da7766c1e03.html" target="_top" xlink:title="Plugins">
<polygon fill="#ddddee" stroke="black" points="8,-56 8,-143 194,-143 194,-56 8,-56"/>
<text text-anchor="middle" x="101" y="-131" font-family="FreeSans" font-size="10.00">Plugins</text>
</a>
</g>
</g>
<g id="clust2" class="cluster">
<title>clusterdir_a7f85dca1d9cad931d7bd4b89571ac6c</title>
<g id="a_clust2"><a xlink:href="dir_a7f85dca1d9cad931d7bd4b89571ac6c.html" target="_top">
<polygon fill="#eeeeff" stroke="black" points="16,-64 16,-116 186,-116 186,-64 16,-64"/>
</a>
</g>
</g>
<!-- dir_a7f85dca1d9cad931d7bd4b89571ac6c -->
<g id="node1" class="node">
<title>dir_a7f85dca1d9cad931d7bd4b89571ac6c</title>
<text text-anchor="middle" x="151" y="-87.5" font-family="FreeSans" font-size="10.00">CUDA</text>
</g>
<!-- dir_42a987f8cfdd983be9677f634438bfef -->
<g id="node2" class="node">
<title>dir_42a987f8cfdd983be9677f634438bfef</title>
<g id="a_node2"><a xlink:href="dir_42a987f8cfdd983be9677f634438bfef.html" target="_top" xlink:title="CUDAModules">
<polygon fill="white" stroke="red" points="105.5,-108 24.5,-108 24.5,-72 105.5,-72 105.5,-108"/>
<text text-anchor="middle" x="65" y="-87.5" font-family="FreeSans" font-size="10.00">CUDAModules</text>
</a>
</g>
</g>
<!-- dir_91ae3e556fa9cad9030b784323206cc7 -->
<g id="node3" class="node">
<title>dir_91ae3e556fa9cad9030b784323206cc7</title>
<g id="a_node3"><a xlink:href="dir_91ae3e556fa9cad9030b784323206cc7.html" target="_top" xlink:title="Calibration">
<polygon fill="white" stroke="red" points="96,-36 34,-36 34,0 96,0 96,-36"/>
<text text-anchor="middle" x="65" y="-15.5" font-family="FreeSans" font-size="10.00">Calibration</text>
</a>
</g>
</g>
<!-- dir_42a987f8cfdd983be9677f634438bfef&#45;&gt;dir_91ae3e556fa9cad9030b784323206cc7 -->
<g id="edge1" class="edge">
<title>dir_42a987f8cfdd983be9677f634438bfef&#45;&gt;dir_91ae3e556fa9cad9030b784323206cc7</title>
<path fill="none" stroke="black" d="M65,-71.7C65,-63.98 65,-54.71 65,-46.11"/>
<polygon fill="black" stroke="black" points="68.5,-46.1 65,-36.1 61.5,-46.1 68.5,-46.1"/>
<g id="a_edge1&#45;headlabel"><a xlink:href="dir_000120_000102.html" target="_top" xlink:title="1">
<text text-anchor="middle" x="71.34" y="-47.2" font-family="FreeSans" font-size="10.00">1</text>
</a>
</g>
</g>
</g>
</svg>
