<?xml version="1.0" encoding="UTF-8" standalone="no"?>
<!DOCTYPE svg PUBLIC "-//W3C//DTD SVG 1.1//EN"
 "http://www.w3.org/Graphics/SVG/1.1/DTD/svg11.dtd">
<!-- Generated by graphviz version 2.43.0 (0)
 -->
<!-- Title: fringex Pages: 1 -->
<svg width="289pt" height="375pt"
 viewBox="0.00 0.00 289.30 375.00" xmlns="http://www.w3.org/2000/svg" xmlns:xlink="http://www.w3.org/1999/xlink">
<g id="graph0" class="graph" transform="scale(1 1) rotate(0) translate(4 371)">
<title>fringex</title>
<polygon fill="white" stroke="transparent" points="-4,4 -4,-371 285.3,-371 285.3,4 -4,4"/>
<g id="clust1" class="cluster">
<title>clusterdir_9de42bc92121356a26b664e34e3ff194</title>
<g id="a_clust1"><a xlink:href="dir_9de42bc92121356a26b664e34e3ff194.html" target="_top" xlink:title="applications">
<polygon fill="#ddddee" stroke="black" points="72.91,-200 72.91,-359 230.91,-359 230.91,-200 72.91,-200"/>
<text text-anchor="middle" x="151.91" y="-347" font-family="FreeSans" font-size="10.00">applications</text>
</a>
</g>
</g>
<g id="clust2" class="cluster">
<title>clusterdir_6673a16bbecdcc68e09241660b3c8088</title>
<g id="a_clust2"><a xlink:href="dir_6673a16bbecdcc68e09241660b3c8088.html" target="_top">
<polygon fill="#eeeeff" stroke="black" points="80.91,-208 80.91,-332 222.91,-332 222.91,-208 80.91,-208"/>
</a>
</g>
</g>
<!-- dir_6673a16bbecdcc68e09241660b3c8088 -->
<g id="node1" class="node">
<title>dir_6673a16bbecdcc68e09241660b3c8088</title>
<text text-anchor="middle" x="187.91" y="-303.5" font-family="FreeSans" font-size="10.00">fringex</text>
</g>
<!-- dir_b75496fd0467feca063d0dac760df1c5 -->
<g id="node2" class="node">
<title>dir_b75496fd0467feca063d0dac760df1c5</title>
<g id="a_node2"><a xlink:href="dir_b75496fd0467feca063d0dac760df1c5.html" target="_top" xlink:title="include">
<polygon fill="white" stroke="black" points="178.91,-252 124.91,-252 124.91,-216 178.91,-216 178.91,-252"/>
<text text-anchor="middle" x="151.91" y="-231.5" font-family="FreeSans" font-size="10.00">include</text>
</a>
</g>
</g>
<!-- dir_6673a16bbecdcc68e09241660b3c8088&#45;&gt;dir_b75496fd0467feca063d0dac760df1c5 -->
<g id="edge13" class="edge">
<title>dir_6673a16bbecdcc68e09241660b3c8088&#45;&gt;dir_b75496fd0467feca063d0dac760df1c5</title>
<path fill="none" stroke="black" d="M179.02,-287.7C174.92,-279.73 169.97,-270.1 165.42,-261.26"/>
<polygon fill="black" stroke="black" points="168.4,-259.4 160.71,-252.1 162.17,-262.6 168.4,-259.4"/>
<g id="a_edge13&#45;headlabel"><a xlink:href="dir_000018_000079.html" target="_top" xlink:title="17">
<text text-anchor="middle" x="172.57" y="-258.79" font-family="FreeSans" font-size="10.00">17</text>
</a>
</g>
</g>
<!-- dir_758df28fbdbb54fb46d6d3d6484a4984 -->
<g id="node4" class="node">
<title>dir_758df28fbdbb54fb46d6d3d6484a4984</title>
<g id="a_node4"><a xlink:href="dir_758df28fbdbb54fb46d6d3d6484a4984.html" target="_top" xlink:title="msg">
<polygon fill="white" stroke="red" points="235.91,-36 181.91,-36 181.91,0 235.91,0 235.91,-36"/>
<text text-anchor="middle" x="208.91" y="-15.5" font-family="FreeSans" font-size="10.00">msg</text>
</a>
</g>
</g>
<!-- dir_6673a16bbecdcc68e09241660b3c8088&#45;&gt;dir_758df28fbdbb54fb46d6d3d6484a4984 -->
<g id="edge12" class="edge">
<title>dir_6673a16bbecdcc68e09241660b3c8088&#45;&gt;dir_758df28fbdbb54fb46d6d3d6484a4984</title>
<path fill="none" stroke="black" d="M206.26,-287.64C228.46,-265.24 264.63,-223.9 278.91,-180 286.87,-155.57 269.44,-72.97 268.91,-72 262.85,-60.71 253.38,-50.68 243.73,-42.46"/>
<polygon fill="black" stroke="black" points="245.65,-39.52 235.66,-36 241.28,-44.98 245.65,-39.52"/>
<g id="a_edge12&#45;headlabel"><a xlink:href="dir_000018_000144.html" target="_top" xlink:title="2">
<text text-anchor="middle" x="250.23" y="-37.05" font-family="FreeSans" font-size="10.00">2</text>
</a>
</g>
</g>
<!-- dir_cb2d4e92f47691559fc9d122a5e37fac -->
<g id="node5" class="node">
<title>dir_cb2d4e92f47691559fc9d122a5e37fac</title>
<g id="a_node5"><a xlink:href="dir_cb2d4e92f47691559fc9d122a5e37fac.html" target="_top" xlink:title="mk4util">
<polygon fill="white" stroke="red" points="127.91,-108 73.91,-108 73.91,-72 127.91,-72 127.91,-108"/>
<text text-anchor="middle" x="100.91" y="-87.5" font-family="FreeSans" font-size="10.00">mk4util</text>
</a>
</g>
</g>
<!-- dir_6673a16bbecdcc68e09241660b3c8088&#45;&gt;dir_cb2d4e92f47691559fc9d122a5e37fac -->
<g id="edge14" class="edge">
<title>dir_6673a16bbecdcc68e09241660b3c8088&#45;&gt;dir_cb2d4e92f47691559fc9d122a5e37fac</title>
<path fill="none" stroke="black" d="M160.88,-290.58C114.43,-265.19 22.83,-212.14 5.91,-180 -1.54,-165.84 -2.19,-157.8 5.91,-144 18.46,-122.63 43.11,-109.24 64.15,-101.27"/>
<polygon fill="black" stroke="black" points="65.54,-104.49 73.81,-97.88 63.22,-97.89 65.54,-104.49"/>
<g id="a_edge14&#45;headlabel"><a xlink:href="dir_000018_000014.html" target="_top" xlink:title="4">
<text text-anchor="middle" x="63.08" y="-105.86" font-family="FreeSans" font-size="10.00">4</text>
</a>
</g>
</g>
<!-- dir_b75496fd0467feca063d0dac760df1c5&#45;&gt;dir_758df28fbdbb54fb46d6d3d6484a4984 -->
<g id="edge6" class="edge">
<title>dir_b75496fd0467feca063d0dac760df1c5&#45;&gt;dir_758df28fbdbb54fb46d6d3d6484a4984</title>
<path fill="none" stroke="black" d="M179.12,-228.08C204.94,-221.8 242.35,-208.18 259.91,-180 286.96,-136.6 253.48,-77.6 229.39,-44.41"/>
<polygon fill="black" stroke="black" points="232.01,-42.06 223.21,-36.16 226.41,-46.26 232.01,-42.06"/>
<g id="a_edge6&#45;headlabel"><a xlink:href="dir_000079_000144.html" target="_top" xlink:title="1">
<text text-anchor="middle" x="236.44" y="-40.74" font-family="FreeSans" font-size="10.00">1</text>
</a>
</g>
</g>
<!-- dir_b75496fd0467feca063d0dac760df1c5&#45;&gt;dir_cb2d4e92f47691559fc9d122a5e37fac -->
<g id="edge7" class="edge">
<title>dir_b75496fd0467feca063d0dac760df1c5&#45;&gt;dir_cb2d4e92f47691559fc9d122a5e37fac</title>
<path fill="none" stroke="black" d="M137.53,-215.94C129.94,-206.05 121.14,-193.01 115.91,-180 108,-160.28 104.26,-136.48 102.49,-118.45"/>
<polygon fill="black" stroke="black" points="105.97,-117.99 101.65,-108.32 98.99,-118.58 105.97,-117.99"/>
<g id="a_edge7&#45;headlabel"><a xlink:href="dir_000079_000014.html" target="_top" xlink:title="3">
<text text-anchor="middle" x="109.09" y="-118.84" font-family="FreeSans" font-size="10.00">3</text>
</a>
</g>
</g>
<!-- dir_637a76a7abf5a01e5c2aa724f3c1e96e -->
<g id="node6" class="node">
<title>dir_637a76a7abf5a01e5c2aa724f3c1e96e</title>
<g id="a_node6"><a xlink:href="dir_637a76a7abf5a01e5c2aa724f3c1e96e.html" target="_top" xlink:title="afio">
<polygon fill="white" stroke="red" points="250.91,-180 196.91,-180 196.91,-144 250.91,-144 250.91,-180"/>
<text text-anchor="middle" x="223.91" y="-159.5" font-family="FreeSans" font-size="10.00">afio</text>
</a>
</g>
</g>
<!-- dir_b75496fd0467feca063d0dac760df1c5&#45;&gt;dir_637a76a7abf5a01e5c2aa724f3c1e96e -->
<g id="edge4" class="edge">
<title>dir_b75496fd0467feca063d0dac760df1c5&#45;&gt;dir_637a76a7abf5a01e5c2aa724f3c1e96e</title>
<path fill="none" stroke="black" d="M169.71,-215.7C178.52,-207.14 189.3,-196.66 198.91,-187.3"/>
<polygon fill="black" stroke="black" points="201.59,-189.58 206.32,-180.1 196.71,-184.57 201.59,-189.58"/>
<g id="a_edge4&#45;headlabel"><a xlink:href="dir_000079_000022.html" target="_top" xlink:title="2">
<text text-anchor="middle" x="200.99" y="-191.63" font-family="FreeSans" font-size="10.00">2</text>
</a>
</g>
</g>
<!-- dir_db8d68003073a61b7114dbc4f792cfed -->
<g id="node7" class="node">
<title>dir_db8d68003073a61b7114dbc4f792cfed</title>
<g id="a_node7"><a xlink:href="dir_db8d68003073a61b7114dbc4f792cfed.html" target="_top" xlink:title="dfio">
<polygon fill="white" stroke="red" points="68.91,-180 14.91,-180 14.91,-144 68.91,-144 68.91,-180"/>
<text text-anchor="middle" x="41.91" y="-159.5" font-family="FreeSans" font-size="10.00">dfio</text>
</a>
</g>
</g>
<!-- dir_b75496fd0467feca063d0dac760df1c5&#45;&gt;dir_db8d68003073a61b7114dbc4f792cfed -->
<g id="edge8" class="edge">
<title>dir_b75496fd0467feca063d0dac760df1c5&#45;&gt;dir_db8d68003073a61b7114dbc4f792cfed</title>
<path fill="none" stroke="black" d="M125,-215.88C110.76,-206.81 93.07,-195.55 77.68,-185.76"/>
<polygon fill="black" stroke="black" points="79.24,-182.61 68.93,-180.19 75.48,-188.51 79.24,-182.61"/>
<g id="a_edge8&#45;headlabel"><a xlink:href="dir_000079_000024.html" target="_top" xlink:title="2">
<text text-anchor="middle" x="83.8" y="-179.64" font-family="FreeSans" font-size="10.00">2</text>
</a>
</g>
</g>
<!-- dir_64078e4dd55db1ba2b4e557207803e4b -->
<g id="node8" class="node">
<title>dir_64078e4dd55db1ba2b4e557207803e4b</title>
<g id="a_node8"><a xlink:href="dir_64078e4dd55db1ba2b4e557207803e4b.html" target="_top" xlink:title="vex">
<polygon fill="white" stroke="red" points="178.91,-180 124.91,-180 124.91,-144 178.91,-144 178.91,-180"/>
<text text-anchor="middle" x="151.91" y="-159.5" font-family="FreeSans" font-size="10.00">vex</text>
</a>
</g>
</g>
<!-- dir_b75496fd0467feca063d0dac760df1c5&#45;&gt;dir_64078e4dd55db1ba2b4e557207803e4b -->
<g id="edge5" class="edge">
<title>dir_b75496fd0467feca063d0dac760df1c5&#45;&gt;dir_64078e4dd55db1ba2b4e557207803e4b</title>
<path fill="none" stroke="black" d="M151.91,-215.7C151.91,-207.98 151.91,-198.71 151.91,-190.11"/>
<polygon fill="black" stroke="black" points="155.41,-190.1 151.91,-180.1 148.41,-190.1 155.41,-190.1"/>
<g id="a_edge5&#45;headlabel"><a xlink:href="dir_000079_000044.html" target="_top" xlink:title="1">
<text text-anchor="middle" x="158.25" y="-191.2" font-family="FreeSans" font-size="10.00">1</text>
</a>
</g>
</g>
<!-- dir_3e65f70508369b22575889971b6fd7fe -->
<g id="node3" class="node">
<title>dir_3e65f70508369b22575889971b6fd7fe</title>
<g id="a_node3"><a xlink:href="dir_3e65f70508369b22575889971b6fd7fe.html" target="_top" xlink:title="src">
<polygon fill="white" stroke="black" points="142.91,-324 88.91,-324 88.91,-288 142.91,-288 142.91,-324"/>
<text text-anchor="middle" x="115.91" y="-303.5" font-family="FreeSans" font-size="10.00">src</text>
</a>
</g>
</g>
<!-- dir_3e65f70508369b22575889971b6fd7fe&#45;&gt;dir_b75496fd0467feca063d0dac760df1c5 -->
<g id="edge3" class="edge">
<title>dir_3e65f70508369b22575889971b6fd7fe&#45;&gt;dir_b75496fd0467feca063d0dac760df1c5</title>
<path fill="none" stroke="black" d="M124.81,-287.7C128.91,-279.73 133.86,-270.1 138.41,-261.26"/>
<polygon fill="black" stroke="black" points="141.66,-262.6 143.12,-252.1 135.43,-259.4 141.66,-262.6"/>
<g id="a_edge3&#45;headlabel"><a xlink:href="dir_000019_000079.html" target="_top" xlink:title="16">
<text text-anchor="middle" x="142.54" y="-264.59" font-family="FreeSans" font-size="10.00">16</text>
</a>
</g>
</g>
<!-- dir_cb2d4e92f47691559fc9d122a5e37fac&#45;&gt;dir_758df28fbdbb54fb46d6d3d6484a4984 -->
<g id="edge9" class="edge">
<title>dir_cb2d4e92f47691559fc9d122a5e37fac&#45;&gt;dir_758df28fbdbb54fb46d6d3d6484a4984</title>
<path fill="none" stroke="black" d="M127.33,-71.88C141.32,-62.81 158.69,-51.55 173.8,-41.76"/>
<polygon fill="black" stroke="black" points="175.9,-44.57 182.39,-36.19 172.1,-38.69 175.9,-44.57"/>
<g id="a_edge9&#45;headlabel"><a xlink:href="dir_000014_000144.html" target="_top" xlink:title="3">
<text text-anchor="middle" x="174.43" y="-46.4" font-family="FreeSans" font-size="10.00">3</text>
</a>
</g>
</g>
<!-- dir_637a76a7abf5a01e5c2aa724f3c1e96e&#45;&gt;dir_758df28fbdbb54fb46d6d3d6484a4984 -->
<g id="edge11" class="edge">
<title>dir_637a76a7abf5a01e5c2aa724f3c1e96e&#45;&gt;dir_758df28fbdbb54fb46d6d3d6484a4984</title>
<path fill="none" stroke="black" d="M222.1,-143.87C219.55,-119.67 214.85,-75.21 211.81,-46.39"/>
<polygon fill="black" stroke="black" points="215.26,-45.77 210.73,-36.19 208.3,-46.5 215.26,-45.77"/>
<g id="a_edge11&#45;headlabel"><a xlink:href="dir_000022_000144.html" target="_top" xlink:title="1">
<text text-anchor="middle" x="218.46" y="-46.54" font-family="FreeSans" font-size="10.00">1</text>
</a>
</g>
</g>
<!-- dir_637a76a7abf5a01e5c2aa724f3c1e96e&#45;&gt;dir_cb2d4e92f47691559fc9d122a5e37fac -->
<g id="edge10" class="edge">
<title>dir_637a76a7abf5a01e5c2aa724f3c1e96e&#45;&gt;dir_cb2d4e92f47691559fc9d122a5e37fac</title>
<path fill="none" stroke="black" d="M196.62,-145.46C179.02,-135.45 155.95,-122.32 136.86,-111.46"/>
<polygon fill="black" stroke="black" points="138.56,-108.4 128.14,-106.49 135.1,-114.48 138.56,-108.4"/>
<g id="a_edge10&#45;headlabel"><a xlink:href="dir_000022_000014.html" target="_top" xlink:title="17">
<text text-anchor="middle" x="143.09" y="-105.21" font-family="FreeSans" font-size="10.00">17</text>
</a>
</g>
</g>
<!-- dir_db8d68003073a61b7114dbc4f792cfed&#45;&gt;dir_758df28fbdbb54fb46d6d3d6484a4984 -->
<g id="edge16" class="edge">
<title>dir_db8d68003073a61b7114dbc4f792cfed&#45;&gt;dir_758df28fbdbb54fb46d6d3d6484a4984</title>
<path fill="none" stroke="black" d="M41.82,-143.73C42.64,-124 46.92,-91.88 64.91,-72 92.41,-41.61 138.87,-28.61 171.56,-23.07"/>
<polygon fill="black" stroke="black" points="172.3,-26.49 181.65,-21.52 171.24,-19.57 172.3,-26.49"/>
<g id="a_edge16&#45;headlabel"><a xlink:href="dir_000024_000144.html" target="_top" xlink:title="1">
<text text-anchor="middle" x="169.18" y="-27.35" font-family="FreeSans" font-size="10.00">1</text>
</a>
</g>
</g>
<!-- dir_db8d68003073a61b7114dbc4f792cfed&#45;&gt;dir_cb2d4e92f47691559fc9d122a5e37fac -->
<g id="edge15" class="edge">
<title>dir_db8d68003073a61b7114dbc4f792cfed&#45;&gt;dir_cb2d4e92f47691559fc9d122a5e37fac</title>
<path fill="none" stroke="black" d="M56.5,-143.7C63.57,-135.3 72.2,-125.07 79.96,-115.86"/>
<polygon fill="black" stroke="black" points="82.73,-118.01 86.5,-108.1 77.38,-113.49 82.73,-118.01"/>
<g id="a_edge15&#45;headlabel"><a xlink:href="dir_000024_000014.html" target="_top" xlink:title="117">
<text text-anchor="middle" x="82.58" y="-120.08" font-family="FreeSans" font-size="10.00">117</text>
</a>
</g>
</g>
<!-- dir_64078e4dd55db1ba2b4e557207803e4b&#45;&gt;dir_758df28fbdbb54fb46d6d3d6484a4984 -->
<g id="edge1" class="edge">
<title>dir_64078e4dd55db1ba2b4e557207803e4b&#45;&gt;dir_758df28fbdbb54fb46d6d3d6484a4984</title>
<path fill="none" stroke="black" d="M158.79,-143.87C168.59,-119.46 186.67,-74.43 198.22,-45.64"/>
<polygon fill="black" stroke="black" points="201.54,-46.77 202.01,-36.19 195.04,-44.17 201.54,-46.77"/>
<g id="a_edge1&#45;headlabel"><a xlink:href="dir_000044_000144.html" target="_top" xlink:title="1">
<text text-anchor="middle" x="202.83" y="-48.67" font-family="FreeSans" font-size="10.00">1</text>
</a>
</g>
</g>
<!-- dir_64078e4dd55db1ba2b4e557207803e4b&#45;&gt;dir_cb2d4e92f47691559fc9d122a5e37fac -->
<g id="edge2" class="edge">
<title>dir_64078e4dd55db1ba2b4e557207803e4b&#45;&gt;dir_cb2d4e92f47691559fc9d122a5e37fac</title>
<path fill="none" stroke="black" d="M139.31,-143.7C133.32,-135.47 126.04,-125.48 119.43,-116.42"/>
<polygon fill="black" stroke="black" points="122.09,-114.13 113.38,-108.1 116.44,-118.25 122.09,-114.13"/>
<g id="a_edge2&#45;headlabel"><a xlink:href="dir_000044_000014.html" target="_top" xlink:title="76">
<text text-anchor="middle" x="126.5" y="-112.86" font-family="FreeSans" font-size="10.00">76</text>
</a>
</g>
</g>
</g>
</svg>
