<?xml version="1.0" encoding="UTF-8" standalone="no"?>
<!DOCTYPE svg PUBLIC "-//W3C//DTD SVG 1.1//EN"
 "http://www.w3.org/Graphics/SVG/1.1/DTD/svg11.dtd">
<!-- Generated by graphviz version 2.43.0 (0)
 -->
<!-- Title: ffcore Pages: 1 -->
<svg width="535pt" height="375pt"
 viewBox="0.00 0.00 534.78 375.00" xmlns="http://www.w3.org/2000/svg" xmlns:xlink="http://www.w3.org/1999/xlink">
<g id="graph0" class="graph" transform="scale(1 1) rotate(0) translate(4 371)">
<title>ffcore</title>
<polygon fill="white" stroke="transparent" points="-4,4 -4,-371 530.78,-371 530.78,4 -4,4"/>
<g id="clust1" class="cluster">
<title>clusterdir_9ef7e4ca5af767b4d78801a8e1d37f3e</title>
<g id="a_clust1"><a xlink:href="dir_9ef7e4ca5af767b4d78801a8e1d37f3e.html" target="_top" xlink:title="fourfit_libs">
<polygon fill="#ddddee" stroke="black" points="24.78,-136 24.78,-359 244.78,-359 244.78,-136 24.78,-136"/>
<text text-anchor="middle" x="134.78" y="-347" font-family="FreeSans" font-size="10.00">fourfit_libs</text>
</a>
</g>
</g>
<g id="clust2" class="cluster">
<title>clusterdir_0908837483934fe24781ea7898fec311</title>
<g id="a_clust2"><a xlink:href="dir_0908837483934fe24781ea7898fec311.html" target="_top">
<polygon fill="#eeeeff" stroke="black" points="94.78,-208 94.78,-332 236.78,-332 236.78,-208 94.78,-208"/>
</a>
</g>
</g>
<!-- dir_f79eaa419c9665ed0522066c5c6851c4 -->
<g id="node1" class="node">
<title>dir_f79eaa419c9665ed0522066c5c6851c4</title>
<g id="a_node1"><a xlink:href="dir_f79eaa419c9665ed0522066c5c6851c4.html" target="_top" xlink:title="ffcontrol">
<polygon fill="white" stroke="red" points="231.78,-180 177.78,-180 177.78,-144 231.78,-144 231.78,-180"/>
<text text-anchor="middle" x="204.78" y="-159.5" font-family="FreeSans" font-size="10.00">ffcontrol</text>
</a>
</g>
</g>
<!-- dir_cb2d4e92f47691559fc9d122a5e37fac -->
<g id="node6" class="node">
<title>dir_cb2d4e92f47691559fc9d122a5e37fac</title>
<g id="a_node6"><a xlink:href="dir_cb2d4e92f47691559fc9d122a5e37fac.html" target="_top" xlink:title="mk4util">
<polygon fill="white" stroke="red" points="361.78,-108 307.78,-108 307.78,-72 361.78,-72 361.78,-108"/>
<text text-anchor="middle" x="334.78" y="-87.5" font-family="FreeSans" font-size="10.00">mk4util</text>
</a>
</g>
</g>
<!-- dir_f79eaa419c9665ed0522066c5c6851c4&#45;&gt;dir_cb2d4e92f47691559fc9d122a5e37fac -->
<g id="edge11" class="edge">
<title>dir_f79eaa419c9665ed0522066c5c6851c4&#45;&gt;dir_cb2d4e92f47691559fc9d122a5e37fac</title>
<path fill="none" stroke="black" d="M230.55,-143.92C234.91,-141.19 239.44,-138.45 243.78,-136 261.35,-126.06 281.41,-116.01 298.22,-107.94"/>
<polygon fill="black" stroke="black" points="300.17,-110.88 307.69,-103.43 297.16,-104.56 300.17,-110.88"/>
<g id="a_edge11&#45;headlabel"><a xlink:href="dir_000054_000014.html" target="_top" xlink:title="9">
<text text-anchor="middle" x="298.14" y="-112.49" font-family="FreeSans" font-size="10.00">9</text>
</a>
</g>
</g>
<!-- dir_758df28fbdbb54fb46d6d3d6484a4984 -->
<g id="node8" class="node">
<title>dir_758df28fbdbb54fb46d6d3d6484a4984</title>
<g id="a_node8"><a xlink:href="dir_758df28fbdbb54fb46d6d3d6484a4984.html" target="_top" xlink:title="msg">
<polygon fill="white" stroke="red" points="306.78,-36 252.78,-36 252.78,0 306.78,0 306.78,-36"/>
<text text-anchor="middle" x="279.78" y="-15.5" font-family="FreeSans" font-size="10.00">msg</text>
</a>
</g>
</g>
<!-- dir_f79eaa419c9665ed0522066c5c6851c4&#45;&gt;dir_758df28fbdbb54fb46d6d3d6484a4984 -->
<g id="edge12" class="edge">
<title>dir_f79eaa419c9665ed0522066c5c6851c4&#45;&gt;dir_758df28fbdbb54fb46d6d3d6484a4984</title>
<path fill="none" stroke="black" d="M213.83,-143.87C226.78,-119.35 250.71,-74.03 265.91,-45.26"/>
<polygon fill="black" stroke="black" points="269.12,-46.67 270.7,-36.19 262.94,-43.4 269.12,-46.67"/>
<g id="a_edge12&#45;headlabel"><a xlink:href="dir_000054_000144.html" target="_top" xlink:title="8">
<text text-anchor="middle" x="269.96" y="-48.67" font-family="FreeSans" font-size="10.00">8</text>
</a>
</g>
</g>
<!-- dir_85c02f264b7a99962a0503cb6605bebc -->
<g id="node2" class="node">
<title>dir_85c02f264b7a99962a0503cb6605bebc</title>
<g id="a_node2"><a xlink:href="dir_85c02f264b7a99962a0503cb6605bebc.html" target="_top" xlink:title="ffmath">
<polygon fill="white" stroke="red" points="86.78,-252 32.78,-252 32.78,-216 86.78,-216 86.78,-252"/>
<text text-anchor="middle" x="59.78" y="-231.5" font-family="FreeSans" font-size="10.00">ffmath</text>
</a>
</g>
</g>
<!-- dir_db8d68003073a61b7114dbc4f792cfed -->
<g id="node7" class="node">
<title>dir_db8d68003073a61b7114dbc4f792cfed</title>
<g id="a_node7"><a xlink:href="dir_db8d68003073a61b7114dbc4f792cfed.html" target="_top" xlink:title="dfio">
<polygon fill="white" stroke="red" points="306.78,-180 252.78,-180 252.78,-144 306.78,-144 306.78,-180"/>
<text text-anchor="middle" x="279.78" y="-159.5" font-family="FreeSans" font-size="10.00">dfio</text>
</a>
</g>
</g>
<!-- dir_85c02f264b7a99962a0503cb6605bebc&#45;&gt;dir_db8d68003073a61b7114dbc4f792cfed -->
<g id="edge13" class="edge">
<title>dir_85c02f264b7a99962a0503cb6605bebc&#45;&gt;dir_db8d68003073a61b7114dbc4f792cfed</title>
<path fill="none" stroke="black" d="M78.12,-215.76C82.06,-212.78 86.37,-210 90.78,-208 152.65,-179.85 179,-201.44 242.91,-181.74"/>
<polygon fill="black" stroke="black" points="244.23,-184.99 252.62,-178.52 242.03,-178.34 244.23,-184.99"/>
<g id="a_edge13&#45;headlabel"><a xlink:href="dir_000037_000024.html" target="_top" xlink:title="1">
<text text-anchor="middle" x="241.71" y="-186.31" font-family="FreeSans" font-size="10.00">1</text>
</a>
</g>
</g>
<!-- dir_85c02f264b7a99962a0503cb6605bebc&#45;&gt;dir_758df28fbdbb54fb46d6d3d6484a4984 -->
<g id="edge14" class="edge">
<title>dir_85c02f264b7a99962a0503cb6605bebc&#45;&gt;dir_758df28fbdbb54fb46d6d3d6484a4984</title>
<path fill="none" stroke="black" d="M77.41,-215.85C116.35,-177.97 209.79,-87.08 254.77,-43.33"/>
<polygon fill="black" stroke="black" points="257.34,-45.71 262.06,-36.23 252.45,-40.7 257.34,-45.71"/>
<g id="a_edge14&#45;headlabel"><a xlink:href="dir_000037_000144.html" target="_top" xlink:title="3">
<text text-anchor="middle" x="256.74" y="-47.76" font-family="FreeSans" font-size="10.00">3</text>
</a>
</g>
</g>
<!-- dir_0908837483934fe24781ea7898fec311 -->
<g id="node3" class="node">
<title>dir_0908837483934fe24781ea7898fec311</title>
<text text-anchor="middle" x="201.78" y="-303.5" font-family="FreeSans" font-size="10.00">ffcore</text>
</g>
<!-- dir_4e5eb980a71e397b231e9099679fb09d -->
<g id="node4" class="node">
<title>dir_4e5eb980a71e397b231e9099679fb09d</title>
<g id="a_node4"><a xlink:href="dir_4e5eb980a71e397b231e9099679fb09d.html" target="_top" xlink:title="include">
<polygon fill="white" stroke="black" points="228.78,-252 174.78,-252 174.78,-216 228.78,-216 228.78,-252"/>
<text text-anchor="middle" x="201.78" y="-231.5" font-family="FreeSans" font-size="10.00">include</text>
</a>
</g>
</g>
<!-- dir_4e5eb980a71e397b231e9099679fb09d&#45;&gt;dir_f79eaa419c9665ed0522066c5c6851c4 -->
<g id="edge18" class="edge">
<title>dir_4e5eb980a71e397b231e9099679fb09d&#45;&gt;dir_f79eaa419c9665ed0522066c5c6851c4</title>
<path fill="none" stroke="black" d="M202.52,-215.7C202.85,-207.98 203.25,-198.71 203.62,-190.11"/>
<polygon fill="black" stroke="black" points="207.11,-190.25 204.05,-180.1 200.12,-189.95 207.11,-190.25"/>
<g id="a_edge18&#45;headlabel"><a xlink:href="dir_000070_000054.html" target="_top" xlink:title="1">
<text text-anchor="middle" x="209.8" y="-191.46" font-family="FreeSans" font-size="10.00">1</text>
</a>
</g>
</g>
<!-- dir_4e5eb980a71e397b231e9099679fb09d&#45;&gt;dir_cb2d4e92f47691559fc9d122a5e37fac -->
<g id="edge16" class="edge">
<title>dir_4e5eb980a71e397b231e9099679fb09d&#45;&gt;dir_cb2d4e92f47691559fc9d122a5e37fac</title>
<path fill="none" stroke="black" d="M229.16,-227.63C255.41,-221.01 294.15,-207.14 315.78,-180 329.59,-162.67 333.97,-137.62 335.11,-118.5"/>
<polygon fill="black" stroke="black" points="338.61,-118.42 335.45,-108.31 331.62,-118.19 338.61,-118.42"/>
<g id="a_edge16&#45;headlabel"><a xlink:href="dir_000070_000014.html" target="_top" xlink:title="5">
<text text-anchor="middle" x="341.33" y="-119.61" font-family="FreeSans" font-size="10.00">5</text>
</a>
</g>
</g>
<!-- dir_4e5eb980a71e397b231e9099679fb09d&#45;&gt;dir_db8d68003073a61b7114dbc4f792cfed -->
<g id="edge17" class="edge">
<title>dir_4e5eb980a71e397b231e9099679fb09d&#45;&gt;dir_db8d68003073a61b7114dbc4f792cfed</title>
<path fill="none" stroke="black" d="M221.06,-215.7C230.69,-207.05 242.51,-196.45 253.01,-187.03"/>
<polygon fill="black" stroke="black" points="255.62,-189.39 260.72,-180.1 250.94,-184.18 255.62,-189.39"/>
<g id="a_edge17&#45;headlabel"><a xlink:href="dir_000070_000024.html" target="_top" xlink:title="2">
<text text-anchor="middle" x="254.84" y="-191.4" font-family="FreeSans" font-size="10.00">2</text>
</a>
</g>
</g>
<!-- dir_653940da78d5cd2d06d03ea837d595e5 -->
<g id="node5" class="node">
<title>dir_653940da78d5cd2d06d03ea837d595e5</title>
<g id="a_node5"><a xlink:href="dir_653940da78d5cd2d06d03ea837d595e5.html" target="_top" xlink:title="src">
<polygon fill="white" stroke="black" points="156.78,-324 102.78,-324 102.78,-288 156.78,-288 156.78,-324"/>
<text text-anchor="middle" x="129.78" y="-303.5" font-family="FreeSans" font-size="10.00">src</text>
</a>
</g>
</g>
<!-- dir_653940da78d5cd2d06d03ea837d595e5&#45;&gt;dir_f79eaa419c9665ed0522066c5c6851c4 -->
<g id="edge8" class="edge">
<title>dir_653940da78d5cd2d06d03ea837d595e5&#45;&gt;dir_f79eaa419c9665ed0522066c5c6851c4</title>
<path fill="none" stroke="black" d="M134.16,-287.7C139.7,-267.63 150.4,-233.96 165.78,-208 169.93,-201 175.21,-194.04 180.55,-187.77"/>
<polygon fill="black" stroke="black" points="183.21,-190.04 187.24,-180.24 177.98,-185.39 183.21,-190.04"/>
<g id="a_edge8&#45;headlabel"><a xlink:href="dir_000048_000054.html" target="_top" xlink:title="12">
<text text-anchor="middle" x="182.95" y="-192.11" font-family="FreeSans" font-size="10.00">12</text>
</a>
</g>
</g>
<!-- dir_653940da78d5cd2d06d03ea837d595e5&#45;&gt;dir_85c02f264b7a99962a0503cb6605bebc -->
<g id="edge5" class="edge">
<title>dir_653940da78d5cd2d06d03ea837d595e5&#45;&gt;dir_85c02f264b7a99962a0503cb6605bebc</title>
<path fill="none" stroke="black" d="M112.48,-287.7C103.91,-279.14 93.44,-268.66 84.08,-259.3"/>
<polygon fill="black" stroke="black" points="86.43,-256.7 76.88,-252.1 81.48,-261.65 86.43,-256.7"/>
<g id="a_edge5&#45;headlabel"><a xlink:href="dir_000048_000037.html" target="_top" xlink:title="2">
<text text-anchor="middle" x="90.98" y="-254.73" font-family="FreeSans" font-size="10.00">2</text>
</a>
</g>
</g>
<!-- dir_653940da78d5cd2d06d03ea837d595e5&#45;&gt;dir_4e5eb980a71e397b231e9099679fb09d -->
<g id="edge1" class="edge">
<title>dir_653940da78d5cd2d06d03ea837d595e5&#45;&gt;dir_4e5eb980a71e397b231e9099679fb09d</title>
<path fill="none" stroke="black" d="M147.58,-287.7C156.38,-279.14 167.16,-268.66 176.78,-259.3"/>
<polygon fill="black" stroke="black" points="179.46,-261.58 184.19,-252.1 174.58,-256.57 179.46,-261.58"/>
<g id="a_edge1&#45;headlabel"><a xlink:href="dir_000048_000070.html" target="_top" xlink:title="36">
<text text-anchor="middle" x="178.86" y="-263.63" font-family="FreeSans" font-size="10.00">36</text>
</a>
</g>
</g>
<!-- dir_653940da78d5cd2d06d03ea837d595e5&#45;&gt;dir_cb2d4e92f47691559fc9d122a5e37fac -->
<g id="edge6" class="edge">
<title>dir_653940da78d5cd2d06d03ea837d595e5&#45;&gt;dir_cb2d4e92f47691559fc9d122a5e37fac</title>
<path fill="none" stroke="black" d="M156.79,-291.92C159.8,-290.56 162.84,-289.22 165.78,-288 249.09,-253.27 302.95,-263.27 337.78,-180 345.96,-160.45 344.52,-136.31 341.41,-118.11"/>
<polygon fill="black" stroke="black" points="344.82,-117.29 339.45,-108.16 337.95,-118.65 344.82,-117.29"/>
<g id="a_edge6&#45;headlabel"><a xlink:href="dir_000048_000014.html" target="_top" xlink:title="14">
<text text-anchor="middle" x="348.3" y="-117.77" font-family="FreeSans" font-size="10.00">14</text>
</a>
</g>
</g>
<!-- dir_653940da78d5cd2d06d03ea837d595e5&#45;&gt;dir_db8d68003073a61b7114dbc4f792cfed -->
<g id="edge7" class="edge">
<title>dir_653940da78d5cd2d06d03ea837d595e5&#45;&gt;dir_db8d68003073a61b7114dbc4f792cfed</title>
<path fill="none" stroke="black" d="M156.8,-292.01C188.27,-276.84 236.21,-253.6 237.78,-252 254.85,-234.66 265.93,-209.08 272.39,-189.78"/>
<polygon fill="black" stroke="black" points="275.79,-190.66 275.44,-180.07 269.11,-188.56 275.79,-190.66"/>
<g id="a_edge7&#45;headlabel"><a xlink:href="dir_000048_000024.html" target="_top" xlink:title="18">
<text text-anchor="middle" x="277.42" y="-192.44" font-family="FreeSans" font-size="10.00">18</text>
</a>
</g>
</g>
<!-- dir_653940da78d5cd2d06d03ea837d595e5&#45;&gt;dir_758df28fbdbb54fb46d6d3d6484a4984 -->
<g id="edge4" class="edge">
<title>dir_653940da78d5cd2d06d03ea837d595e5&#45;&gt;dir_758df28fbdbb54fb46d6d3d6484a4984</title>
<path fill="none" stroke="black" d="M102.33,-300.15C76.28,-293.94 38.53,-280.36 20.78,-252 -6.57,-208.29 -7.18,-179.31 20.78,-136 70.26,-59.35 183.37,-32.39 242.39,-23.33"/>
<polygon fill="black" stroke="black" points="243.01,-26.77 252.41,-21.88 242.01,-19.84 243.01,-26.77"/>
<g id="a_edge4&#45;headlabel"><a xlink:href="dir_000048_000144.html" target="_top" xlink:title="18">
<text text-anchor="middle" x="239.86" y="-27.6" font-family="FreeSans" font-size="10.00">18</text>
</a>
</g>
</g>
<!-- dir_64078e4dd55db1ba2b4e557207803e4b -->
<g id="node9" class="node">
<title>dir_64078e4dd55db1ba2b4e557207803e4b</title>
<g id="a_node9"><a xlink:href="dir_64078e4dd55db1ba2b4e557207803e4b.html" target="_top" xlink:title="vex">
<polygon fill="white" stroke="red" points="454.78,-180 400.78,-180 400.78,-144 454.78,-144 454.78,-180"/>
<text text-anchor="middle" x="427.78" y="-159.5" font-family="FreeSans" font-size="10.00">vex</text>
</a>
</g>
</g>
<!-- dir_653940da78d5cd2d06d03ea837d595e5&#45;&gt;dir_64078e4dd55db1ba2b4e557207803e4b -->
<g id="edge3" class="edge">
<title>dir_653940da78d5cd2d06d03ea837d595e5&#45;&gt;dir_64078e4dd55db1ba2b4e557207803e4b</title>
<path fill="none" stroke="black" d="M156.98,-291.19C159.91,-290 162.88,-288.9 165.78,-288 260.81,-258.46 307.57,-312.25 386.78,-252 406.5,-237 417.05,-210.27 422.48,-190.01"/>
<polygon fill="black" stroke="black" points="425.93,-190.64 424.88,-180.09 419.13,-188.99 425.93,-190.64"/>
<g id="a_edge3&#45;headlabel"><a xlink:href="dir_000048_000044.html" target="_top" xlink:title="7">
<text text-anchor="middle" x="427.84" y="-192.3" font-family="FreeSans" font-size="10.00">7</text>
</a>
</g>
</g>
<!-- dir_637a76a7abf5a01e5c2aa724f3c1e96e -->
<g id="node10" class="node">
<title>dir_637a76a7abf5a01e5c2aa724f3c1e96e</title>
<g id="a_node10"><a xlink:href="dir_637a76a7abf5a01e5c2aa724f3c1e96e.html" target="_top" xlink:title="afio">
<polygon fill="white" stroke="red" points="526.78,-180 472.78,-180 472.78,-144 526.78,-144 526.78,-180"/>
<text text-anchor="middle" x="499.78" y="-159.5" font-family="FreeSans" font-size="10.00">afio</text>
</a>
</g>
</g>
<!-- dir_653940da78d5cd2d06d03ea837d595e5&#45;&gt;dir_637a76a7abf5a01e5c2aa724f3c1e96e -->
<g id="edge2" class="edge">
<title>dir_653940da78d5cd2d06d03ea837d595e5&#45;&gt;dir_637a76a7abf5a01e5c2aa724f3c1e96e</title>
<path fill="none" stroke="black" d="M156.96,-291.14C159.89,-289.95 162.87,-288.88 165.78,-288 272.85,-255.77 315.39,-303.24 414.78,-252 443.36,-237.27 467.71,-209.1 482.93,-188.38"/>
<polygon fill="black" stroke="black" points="485.94,-190.2 488.88,-180.02 480.23,-186.14 485.94,-190.2"/>
<g id="a_edge2&#45;headlabel"><a xlink:href="dir_000048_000022.html" target="_top" xlink:title="2">
<text text-anchor="middle" x="486.17" y="-192.27" font-family="FreeSans" font-size="10.00">2</text>
</a>
</g>
</g>
<!-- dir_cb2d4e92f47691559fc9d122a5e37fac&#45;&gt;dir_758df28fbdbb54fb46d6d3d6484a4984 -->
<g id="edge15" class="edge">
<title>dir_cb2d4e92f47691559fc9d122a5e37fac&#45;&gt;dir_758df28fbdbb54fb46d6d3d6484a4984</title>
<path fill="none" stroke="black" d="M321.18,-71.7C314.66,-63.39 306.71,-53.28 299.53,-44.14"/>
<polygon fill="black" stroke="black" points="302.15,-41.81 293.22,-36.1 296.64,-46.13 302.15,-41.81"/>
<g id="a_edge15&#45;headlabel"><a xlink:href="dir_000014_000144.html" target="_top" xlink:title="3">
<text text-anchor="middle" x="306.6" y="-40.38" font-family="FreeSans" font-size="10.00">3</text>
</a>
</g>
</g>
<!-- dir_db8d68003073a61b7114dbc4f792cfed&#45;&gt;dir_cb2d4e92f47691559fc9d122a5e37fac -->
<g id="edge21" class="edge">
<title>dir_db8d68003073a61b7114dbc4f792cfed&#45;&gt;dir_cb2d4e92f47691559fc9d122a5e37fac</title>
<path fill="none" stroke="black" d="M293.37,-143.7C299.9,-135.39 307.85,-125.28 315.03,-116.14"/>
<polygon fill="black" stroke="black" points="317.91,-118.13 321.34,-108.1 312.41,-113.81 317.91,-118.13"/>
<g id="a_edge21&#45;headlabel"><a xlink:href="dir_000024_000014.html" target="_top" xlink:title="117">
<text text-anchor="middle" x="317.93" y="-120.21" font-family="FreeSans" font-size="10.00">117</text>
</a>
</g>
</g>
<!-- dir_db8d68003073a61b7114dbc4f792cfed&#45;&gt;dir_758df28fbdbb54fb46d6d3d6484a4984 -->
<g id="edge22" class="edge">
<title>dir_db8d68003073a61b7114dbc4f792cfed&#45;&gt;dir_758df28fbdbb54fb46d6d3d6484a4984</title>
<path fill="none" stroke="black" d="M279.78,-143.87C279.78,-119.67 279.78,-75.21 279.78,-46.39"/>
<polygon fill="black" stroke="black" points="283.28,-46.19 279.78,-36.19 276.28,-46.19 283.28,-46.19"/>
<g id="a_edge22&#45;headlabel"><a xlink:href="dir_000024_000144.html" target="_top" xlink:title="1">
<text text-anchor="middle" x="286.12" y="-47.28" font-family="FreeSans" font-size="10.00">1</text>
</a>
</g>
</g>
<!-- dir_64078e4dd55db1ba2b4e557207803e4b&#45;&gt;dir_cb2d4e92f47691559fc9d122a5e37fac -->
<g id="edge10" class="edge">
<title>dir_64078e4dd55db1ba2b4e557207803e4b&#45;&gt;dir_cb2d4e92f47691559fc9d122a5e37fac</title>
<path fill="none" stroke="black" d="M404.79,-143.7C392.97,-134.8 378.39,-123.82 365.6,-114.2"/>
<polygon fill="black" stroke="black" points="367.6,-111.32 357.5,-108.1 363.39,-116.91 367.6,-111.32"/>
<g id="a_edge10&#45;headlabel"><a xlink:href="dir_000044_000014.html" target="_top" xlink:title="76">
<text text-anchor="middle" x="372.18" y="-108.71" font-family="FreeSans" font-size="10.00">76</text>
</a>
</g>
</g>
<!-- dir_64078e4dd55db1ba2b4e557207803e4b&#45;&gt;dir_758df28fbdbb54fb46d6d3d6484a4984 -->
<g id="edge9" class="edge">
<title>dir_64078e4dd55db1ba2b4e557207803e4b&#45;&gt;dir_758df28fbdbb54fb46d6d3d6484a4984</title>
<path fill="none" stroke="black" d="M419.92,-143.9C410.42,-124.62 392.9,-93.2 370.78,-72 354.93,-56.81 333.93,-44.21 316.1,-35.11"/>
<polygon fill="black" stroke="black" points="317.62,-31.96 307.11,-30.68 314.53,-38.24 317.62,-31.96"/>
<g id="a_edge9&#45;headlabel"><a xlink:href="dir_000044_000144.html" target="_top" xlink:title="1">
<text text-anchor="middle" x="322.1" y="-28.5" font-family="FreeSans" font-size="10.00">1</text>
</a>
</g>
</g>
<!-- dir_637a76a7abf5a01e5c2aa724f3c1e96e&#45;&gt;dir_cb2d4e92f47691559fc9d122a5e37fac -->
<g id="edge19" class="edge">
<title>dir_637a76a7abf5a01e5c2aa724f3c1e96e&#45;&gt;dir_cb2d4e92f47691559fc9d122a5e37fac</title>
<path fill="none" stroke="black" d="M477.12,-143.9C472.81,-141.05 468.25,-138.28 463.78,-136 433.98,-120.82 397.88,-108.71 371.45,-100.89"/>
<polygon fill="black" stroke="black" points="372.41,-97.53 361.83,-98.11 370.47,-104.25 372.41,-97.53"/>
<g id="a_edge19&#45;headlabel"><a xlink:href="dir_000022_000014.html" target="_top" xlink:title="17">
<text text-anchor="middle" x="376.65" y="-93.3" font-family="FreeSans" font-size="10.00">17</text>
</a>
</g>
</g>
<!-- dir_637a76a7abf5a01e5c2aa724f3c1e96e&#45;&gt;dir_758df28fbdbb54fb46d6d3d6484a4984 -->
<g id="edge20" class="edge">
<title>dir_637a76a7abf5a01e5c2aa724f3c1e96e&#45;&gt;dir_758df28fbdbb54fb46d6d3d6484a4984</title>
<path fill="none" stroke="black" d="M483.55,-143.85C464.6,-124.53 431.62,-93.08 398.78,-72 372.85,-55.36 340.82,-41.42 316.52,-32.02"/>
<polygon fill="black" stroke="black" points="317.55,-28.66 306.96,-28.4 315.07,-35.21 317.55,-28.66"/>
<g id="a_edge20&#45;headlabel"><a xlink:href="dir_000022_000144.html" target="_top" xlink:title="1">
<text text-anchor="middle" x="321.92" y="-24.78" font-family="FreeSans" font-size="10.00">1</text>
</a>
</g>
</g>
</g>
</svg>
