<?xml version="1.0" encoding="UTF-8" standalone="no"?>
<!DOCTYPE svg PUBLIC "-//W3C//DTD SVG 1.1//EN"
 "http://www.w3.org/Graphics/SVG/1.1/DTD/svg11.dtd">
<!-- Generated by graphviz version 2.43.0 (0)
 -->
<!-- Title: PythonBindings Pages: 1 -->
<svg width="286pt" height="447pt"
 viewBox="0.00 0.00 286.00 447.00" xmlns="http://www.w3.org/2000/svg" xmlns:xlink="http://www.w3.org/1999/xlink">
<g id="graph0" class="graph" transform="scale(1 1) rotate(0) translate(4 443)">
<title>PythonBindings</title>
<polygon fill="white" stroke="transparent" points="-4,4 -4,-443 282,-443 282,4 -4,4"/>
<g id="clust1" class="cluster">
<title>clusterdir_26953edb3cb67a8e3bae1da7766c1e03</title>
<g id="a_clust1"><a xlink:href="dir_26953edb3cb67a8e3bae1da7766c1e03.html" target="_top" xlink:title="Plugins">
<polygon fill="#ddddee" stroke="black" points="8,-272 8,-431 202,-431 202,-272 8,-272"/>
<text text-anchor="middle" x="105" y="-419" font-family="FreeSans" font-size="10.00">Plugins</text>
</a>
</g>
</g>
<g id="clust2" class="cluster">
<title>clusterdir_f1ba8c0e7d28a93252eea320364e0857</title>
<g id="a_clust2"><a xlink:href="dir_f1ba8c0e7d28a93252eea320364e0857.html" target="_top">
<polygon fill="#eeeeff" stroke="black" points="16,-280 16,-404 194,-404 194,-280 16,-280"/>
</a>
</g>
</g>
<!-- dir_f1ba8c0e7d28a93252eea320364e0857 -->
<g id="node1" class="node">
<title>dir_f1ba8c0e7d28a93252eea320364e0857</title>
<text text-anchor="middle" x="144" y="-375.5" font-family="FreeSans" font-size="10.00">PythonBindings</text>
</g>
<!-- dir_68ccf097de5ef9ba8fe5a1575ab7d7d7 -->
<g id="node2" class="node">
<title>dir_68ccf097de5ef9ba8fe5a1575ab7d7d7</title>
<g id="a_node2"><a xlink:href="dir_68ccf097de5ef9ba8fe5a1575ab7d7d7.html" target="_top" xlink:title="Containers">
<polygon fill="white" stroke="red" points="87.5,-324 24.5,-324 24.5,-288 87.5,-288 87.5,-324"/>
<text text-anchor="middle" x="56" y="-303.5" font-family="FreeSans" font-size="10.00">Containers</text>
</a>
</g>
</g>
<!-- dir_150f406a44a04ce55518da03ec553ece -->
<g id="node4" class="node">
<title>dir_150f406a44a04ce55518da03ec553ece</title>
<g id="a_node4"><a xlink:href="dir_150f406a44a04ce55518da03ec553ece.html" target="_top" xlink:title="Utilities">
<polygon fill="white" stroke="red" points="199,-108 145,-108 145,-72 199,-72 199,-108"/>
<text text-anchor="middle" x="172" y="-87.5" font-family="FreeSans" font-size="10.00">Utilities</text>
</a>
</g>
</g>
<!-- dir_68ccf097de5ef9ba8fe5a1575ab7d7d7&#45;&gt;dir_150f406a44a04ce55518da03ec553ece -->
<g id="edge17" class="edge">
<title>dir_68ccf097de5ef9ba8fe5a1575ab7d7d7&#45;&gt;dir_150f406a44a04ce55518da03ec553ece</title>
<path fill="none" stroke="black" d="M53.83,-287.76C50.79,-256.27 48.67,-188.59 79,-144 92.29,-124.46 115.33,-111.25 135.15,-102.91"/>
<polygon fill="black" stroke="black" points="136.55,-106.12 144.57,-99.2 133.98,-99.61 136.55,-106.12"/>
<g id="a_edge17&#45;headlabel"><a xlink:href="dir_000135_000086.html" target="_top" xlink:title="4">
<text text-anchor="middle" x="134.25" y="-107.58" font-family="FreeSans" font-size="10.00">4</text>
</a>
</g>
</g>
<!-- dir_32348ece3c89569e6a714937ae854c89 -->
<g id="node5" class="node">
<title>dir_32348ece3c89569e6a714937ae854c89</title>
<g id="a_node5"><a xlink:href="dir_32348ece3c89569e6a714937ae854c89.html" target="_top" xlink:title="Message">
<polygon fill="white" stroke="red" points="200,-36 144,-36 144,0 200,0 200,-36"/>
<text text-anchor="middle" x="172" y="-15.5" font-family="FreeSans" font-size="10.00">Message</text>
</a>
</g>
</g>
<!-- dir_68ccf097de5ef9ba8fe5a1575ab7d7d7&#45;&gt;dir_32348ece3c89569e6a714937ae854c89 -->
<g id="edge15" class="edge">
<title>dir_68ccf097de5ef9ba8fe5a1575ab7d7d7&#45;&gt;dir_32348ece3c89569e6a714937ae854c89</title>
<path fill="none" stroke="black" d="M52,-287.56C45.88,-256.91 37.05,-192.06 59,-144 77.83,-102.76 115.27,-65.65 141.89,-42.77"/>
<polygon fill="black" stroke="black" points="144.37,-45.26 149.77,-36.14 139.87,-39.9 144.37,-45.26"/>
<g id="a_edge15&#45;headlabel"><a xlink:href="dir_000135_000123.html" target="_top" xlink:title="1">
<text text-anchor="middle" x="143.45" y="-47.24" font-family="FreeSans" font-size="10.00">1</text>
</a>
</g>
</g>
<!-- dir_a06008c3e245d1092ba6894d6caedef2 -->
<g id="node7" class="node">
<title>dir_a06008c3e245d1092ba6894d6caedef2</title>
<g id="a_node7"><a xlink:href="dir_a06008c3e245d1092ba6894d6caedef2.html" target="_top" xlink:title="Containers">
<polygon fill="white" stroke="red" points="151.5,-180 88.5,-180 88.5,-144 151.5,-144 151.5,-180"/>
<text text-anchor="middle" x="120" y="-159.5" font-family="FreeSans" font-size="10.00">Containers</text>
</a>
</g>
</g>
<!-- dir_68ccf097de5ef9ba8fe5a1575ab7d7d7&#45;&gt;dir_a06008c3e245d1092ba6894d6caedef2 -->
<g id="edge16" class="edge">
<title>dir_68ccf097de5ef9ba8fe5a1575ab7d7d7&#45;&gt;dir_a06008c3e245d1092ba6894d6caedef2</title>
<path fill="none" stroke="black" d="M63.72,-287.87C74.72,-263.46 95.02,-218.43 108,-189.64"/>
<polygon fill="black" stroke="black" points="111.33,-190.74 112.25,-180.19 104.95,-187.87 111.33,-190.74"/>
<g id="a_edge16&#45;headlabel"><a xlink:href="dir_000135_000096.html" target="_top" xlink:title="14">
<text text-anchor="middle" x="112.45" y="-192.69" font-family="FreeSans" font-size="10.00">14</text>
</a>
</g>
</g>
<!-- dir_1eaf6bebd9507c59d4a84c19881443c9 -->
<g id="node3" class="node">
<title>dir_1eaf6bebd9507c59d4a84c19881443c9</title>
<g id="a_node3"><a xlink:href="dir_1eaf6bebd9507c59d4a84c19881443c9.html" target="_top" xlink:title="Operators">
<polygon fill="white" stroke="red" points="83.5,-396 24.5,-396 24.5,-360 83.5,-360 83.5,-396"/>
<text text-anchor="middle" x="54" y="-375.5" font-family="FreeSans" font-size="10.00">Operators</text>
</a>
</g>
</g>
<!-- dir_1eaf6bebd9507c59d4a84c19881443c9&#45;&gt;dir_68ccf097de5ef9ba8fe5a1575ab7d7d7 -->
<g id="edge12" class="edge">
<title>dir_1eaf6bebd9507c59d4a84c19881443c9&#45;&gt;dir_68ccf097de5ef9ba8fe5a1575ab7d7d7</title>
<path fill="none" stroke="black" d="M54.49,-359.7C54.71,-351.98 54.98,-342.71 55.23,-334.11"/>
<polygon fill="black" stroke="black" points="58.72,-334.2 55.51,-324.1 51.73,-334 58.72,-334.2"/>
<g id="a_edge12&#45;headlabel"><a xlink:href="dir_000138_000135.html" target="_top" xlink:title="9">
<text text-anchor="middle" x="61.46" y="-335.37" font-family="FreeSans" font-size="10.00">9</text>
</a>
</g>
</g>
<!-- dir_4546011bd625f1142c4c4ae06dcdb5ba -->
<g id="node6" class="node">
<title>dir_4546011bd625f1142c4c4ae06dcdb5ba</title>
<g id="a_node6"><a xlink:href="dir_4546011bd625f1142c4c4ae06dcdb5ba.html" target="_top" xlink:title="Operators">
<polygon fill="white" stroke="red" points="241.5,-252 182.5,-252 182.5,-216 241.5,-216 241.5,-252"/>
<text text-anchor="middle" x="212" y="-231.5" font-family="FreeSans" font-size="10.00">Operators</text>
</a>
</g>
</g>
<!-- dir_1eaf6bebd9507c59d4a84c19881443c9&#45;&gt;dir_4546011bd625f1142c4c4ae06dcdb5ba -->
<g id="edge11" class="edge">
<title>dir_1eaf6bebd9507c59d4a84c19881443c9&#45;&gt;dir_4546011bd625f1142c4c4ae06dcdb5ba</title>
<path fill="none" stroke="black" d="M81.44,-359.96C96.38,-350.17 114.85,-337.22 130,-324 152.75,-304.14 175.8,-278.53 191.65,-259.88"/>
<polygon fill="black" stroke="black" points="194.43,-262.01 198.18,-252.1 189.07,-257.51 194.43,-262.01"/>
<g id="a_edge11&#45;headlabel"><a xlink:href="dir_000138_000089.html" target="_top" xlink:title="4">
<text text-anchor="middle" x="194.29" y="-264.09" font-family="FreeSans" font-size="10.00">4</text>
</a>
</g>
</g>
<!-- dir_1eaf6bebd9507c59d4a84c19881443c9&#45;&gt;dir_a06008c3e245d1092ba6894d6caedef2 -->
<g id="edge13" class="edge">
<title>dir_1eaf6bebd9507c59d4a84c19881443c9&#45;&gt;dir_a06008c3e245d1092ba6894d6caedef2</title>
<path fill="none" stroke="black" d="M71.37,-359.91C80.17,-350.21 90.21,-337.36 96,-324 115.09,-279.97 119.41,-223.52 120.16,-190.49"/>
<polygon fill="black" stroke="black" points="123.66,-190.29 120.29,-180.24 116.66,-190.2 123.66,-190.29"/>
<g id="a_edge13&#45;headlabel"><a xlink:href="dir_000138_000096.html" target="_top" xlink:title="3">
<text text-anchor="middle" x="126.46" y="-191.42" font-family="FreeSans" font-size="10.00">3</text>
</a>
</g>
</g>
<!-- dir_b8ce078ed9f8fd90d71e02c796d93353 -->
<g id="node8" class="node">
<title>dir_b8ce078ed9f8fd90d71e02c796d93353</title>
<g id="a_node8"><a xlink:href="dir_b8ce078ed9f8fd90d71e02c796d93353.html" target="_top" xlink:title="Initialization">
<polygon fill="white" stroke="red" points="278,-324 210,-324 210,-288 278,-288 278,-324"/>
<text text-anchor="middle" x="244" y="-303.5" font-family="FreeSans" font-size="10.00">Initialization</text>
</a>
</g>
</g>
<!-- dir_1eaf6bebd9507c59d4a84c19881443c9&#45;&gt;dir_b8ce078ed9f8fd90d71e02c796d93353 -->
<g id="edge14" class="edge">
<title>dir_1eaf6bebd9507c59d4a84c19881443c9&#45;&gt;dir_b8ce078ed9f8fd90d71e02c796d93353</title>
<path fill="none" stroke="black" d="M83.71,-363.76C86.83,-362.45 89.97,-361.18 93,-360 138.98,-342.13 151.53,-340.55 198,-324 198.72,-323.74 199.45,-323.48 200.18,-323.22"/>
<polygon fill="black" stroke="black" points="201.66,-326.41 209.87,-319.72 199.28,-319.83 201.66,-326.41"/>
<g id="a_edge14&#45;headlabel"><a xlink:href="dir_000138_000104.html" target="_top" xlink:title="1">
<text text-anchor="middle" x="199.24" y="-327.8" font-family="FreeSans" font-size="10.00">1</text>
</a>
</g>
</g>
<!-- dir_150f406a44a04ce55518da03ec553ece&#45;&gt;dir_32348ece3c89569e6a714937ae854c89 -->
<g id="edge6" class="edge">
<title>dir_150f406a44a04ce55518da03ec553ece&#45;&gt;dir_32348ece3c89569e6a714937ae854c89</title>
<path fill="none" stroke="black" d="M172,-71.7C172,-63.98 172,-54.71 172,-46.11"/>
<polygon fill="black" stroke="black" points="175.5,-46.1 172,-36.1 168.5,-46.1 175.5,-46.1"/>
<g id="a_edge6&#45;headlabel"><a xlink:href="dir_000086_000123.html" target="_top" xlink:title="13">
<text text-anchor="middle" x="178.34" y="-47.2" font-family="FreeSans" font-size="10.00">13</text>
</a>
</g>
</g>
<!-- dir_4546011bd625f1142c4c4ae06dcdb5ba&#45;&gt;dir_150f406a44a04ce55518da03ec553ece -->
<g id="edge3" class="edge">
<title>dir_4546011bd625f1142c4c4ae06dcdb5ba&#45;&gt;dir_150f406a44a04ce55518da03ec553ece</title>
<path fill="none" stroke="black" d="M207.18,-215.87C200.33,-191.56 187.72,-146.82 179.61,-118.01"/>
<polygon fill="black" stroke="black" points="182.92,-116.87 176.84,-108.19 176.18,-118.76 182.92,-116.87"/>
<g id="a_edge3&#45;headlabel"><a xlink:href="dir_000089_000086.html" target="_top" xlink:title="5">
<text text-anchor="middle" x="186.63" y="-117.06" font-family="FreeSans" font-size="10.00">5</text>
</a>
</g>
</g>
<!-- dir_4546011bd625f1142c4c4ae06dcdb5ba&#45;&gt;dir_32348ece3c89569e6a714937ae854c89 -->
<g id="edge4" class="edge">
<title>dir_4546011bd625f1142c4c4ae06dcdb5ba&#45;&gt;dir_32348ece3c89569e6a714937ae854c89</title>
<path fill="none" stroke="black" d="M214.71,-215.55C218.7,-185.42 224.07,-122.05 208,-72 204.87,-62.25 199.34,-52.66 193.54,-44.38"/>
<polygon fill="black" stroke="black" points="196.27,-42.19 187.48,-36.27 190.66,-46.37 196.27,-42.19"/>
<g id="a_edge4&#45;headlabel"><a xlink:href="dir_000089_000123.html" target="_top" xlink:title="12">
<text text-anchor="middle" x="200.69" y="-40.87" font-family="FreeSans" font-size="10.00">12</text>
</a>
</g>
</g>
<!-- dir_4546011bd625f1142c4c4ae06dcdb5ba&#45;&gt;dir_a06008c3e245d1092ba6894d6caedef2 -->
<g id="edge5" class="edge">
<title>dir_4546011bd625f1142c4c4ae06dcdb5ba&#45;&gt;dir_a06008c3e245d1092ba6894d6caedef2</title>
<path fill="none" stroke="black" d="M189.26,-215.7C177.56,-206.8 163.14,-195.82 150.49,-186.2"/>
<polygon fill="black" stroke="black" points="152.56,-183.37 142.48,-180.1 148.32,-188.94 152.56,-183.37"/>
<g id="a_edge5&#45;headlabel"><a xlink:href="dir_000089_000096.html" target="_top" xlink:title="22">
<text text-anchor="middle" x="157.14" y="-180.79" font-family="FreeSans" font-size="10.00">22</text>
</a>
</g>
</g>
<!-- dir_a06008c3e245d1092ba6894d6caedef2&#45;&gt;dir_150f406a44a04ce55518da03ec553ece -->
<g id="edge1" class="edge">
<title>dir_a06008c3e245d1092ba6894d6caedef2&#45;&gt;dir_150f406a44a04ce55518da03ec553ece</title>
<path fill="none" stroke="black" d="M132.85,-143.7C139.03,-135.39 146.54,-125.28 153.32,-116.14"/>
<polygon fill="black" stroke="black" points="156.14,-118.22 159.29,-108.1 150.52,-114.04 156.14,-118.22"/>
<g id="a_edge1&#45;headlabel"><a xlink:href="dir_000096_000086.html" target="_top" xlink:title="42">
<text text-anchor="middle" x="156.28" y="-120.3" font-family="FreeSans" font-size="10.00">42</text>
</a>
</g>
</g>
<!-- dir_a06008c3e245d1092ba6894d6caedef2&#45;&gt;dir_32348ece3c89569e6a714937ae854c89 -->
<g id="edge2" class="edge">
<title>dir_a06008c3e245d1092ba6894d6caedef2&#45;&gt;dir_32348ece3c89569e6a714937ae854c89</title>
<path fill="none" stroke="black" d="M120.97,-143.68C122.49,-125.3 126.34,-95.69 136,-72 139.93,-62.37 145.79,-52.7 151.65,-44.31"/>
<polygon fill="black" stroke="black" points="154.59,-46.22 157.67,-36.08 148.94,-42.08 154.59,-46.22"/>
<g id="a_edge2&#45;headlabel"><a xlink:href="dir_000096_000123.html" target="_top" xlink:title="9">
<text text-anchor="middle" x="154.76" y="-48.3" font-family="FreeSans" font-size="10.00">9</text>
</a>
</g>
</g>
<!-- dir_b8ce078ed9f8fd90d71e02c796d93353&#45;&gt;dir_150f406a44a04ce55518da03ec553ece -->
<g id="edge7" class="edge">
<title>dir_b8ce078ed9f8fd90d71e02c796d93353&#45;&gt;dir_150f406a44a04ce55518da03ec553ece</title>
<path fill="none" stroke="black" d="M248.86,-287.91C253.22,-269.73 257.96,-240.28 251,-216 239.98,-177.59 213.16,-139.68 193.82,-115.86"/>
<polygon fill="black" stroke="black" points="196.41,-113.5 187.33,-108.04 191.03,-117.97 196.41,-113.5"/>
<g id="a_edge7&#45;headlabel"><a xlink:href="dir_000104_000086.html" target="_top" xlink:title="44">
<text text-anchor="middle" x="200.89" y="-111.95" font-family="FreeSans" font-size="10.00">44</text>
</a>
</g>
</g>
<!-- dir_b8ce078ed9f8fd90d71e02c796d93353&#45;&gt;dir_32348ece3c89569e6a714937ae854c89 -->
<g id="edge8" class="edge">
<title>dir_b8ce078ed9f8fd90d71e02c796d93353&#45;&gt;dir_32348ece3c89569e6a714937ae854c89</title>
<path fill="none" stroke="black" d="M253.13,-287.88C258.01,-277.76 263.51,-264.51 266,-252 269.13,-236.31 268.21,-231.85 266,-216 256.8,-150.1 258.72,-129.37 225,-72 218.78,-61.41 209.94,-51.43 201.26,-43.05"/>
<polygon fill="black" stroke="black" points="203.47,-40.32 193.75,-36.11 198.73,-45.47 203.47,-40.32"/>
<g id="a_edge8&#45;headlabel"><a xlink:href="dir_000104_000123.html" target="_top" xlink:title="3">
<text text-anchor="middle" x="208.04" y="-38.17" font-family="FreeSans" font-size="10.00">3</text>
</a>
</g>
</g>
<!-- dir_b8ce078ed9f8fd90d71e02c796d93353&#45;&gt;dir_4546011bd625f1142c4c4ae06dcdb5ba -->
<g id="edge9" class="edge">
<title>dir_b8ce078ed9f8fd90d71e02c796d93353&#45;&gt;dir_4546011bd625f1142c4c4ae06dcdb5ba</title>
<path fill="none" stroke="black" d="M236.09,-287.7C232.45,-279.73 228.05,-270.1 224.01,-261.26"/>
<polygon fill="black" stroke="black" points="227.16,-259.74 219.82,-252.1 220.79,-262.65 227.16,-259.74"/>
<g id="a_edge9&#45;headlabel"><a xlink:href="dir_000104_000089.html" target="_top" xlink:title="4">
<text text-anchor="middle" x="231.24" y="-259.33" font-family="FreeSans" font-size="10.00">4</text>
</a>
</g>
</g>
<!-- dir_b8ce078ed9f8fd90d71e02c796d93353&#45;&gt;dir_a06008c3e245d1092ba6894d6caedef2 -->
<g id="edge10" class="edge">
<title>dir_b8ce078ed9f8fd90d71e02c796d93353&#45;&gt;dir_a06008c3e245d1092ba6894d6caedef2</title>
<path fill="none" stroke="black" d="M220.65,-288C201.83,-274.18 177.88,-256.3 174,-252 156.89,-233.03 142.21,-207.87 132.49,-189.15"/>
<polygon fill="black" stroke="black" points="135.51,-187.36 127.88,-180.01 129.26,-190.51 135.51,-187.36"/>
<g id="a_edge10&#45;headlabel"><a xlink:href="dir_000104_000096.html" target="_top" xlink:title="7">
<text text-anchor="middle" x="139.66" y="-186.79" font-family="FreeSans" font-size="10.00">7</text>
</a>
</g>
</g>
</g>
</svg>
