<?xml version="1.0" encoding="UTF-8" standalone="no"?>
<!DOCTYPE svg PUBLIC "-//W3C//DTD SVG 1.1//EN"
 "http://www.w3.org/Graphics/SVG/1.1/DTD/svg11.dtd">
<!-- Generated by graphviz version 2.43.0 (0)
 -->
<!-- Title: Operators Pages: 1 -->
<svg width="468pt" height="519pt"
 viewBox="0.00 0.00 468.49 519.00" xmlns="http://www.w3.org/2000/svg" xmlns:xlink="http://www.w3.org/1999/xlink">
<g id="graph0" class="graph" transform="scale(1 1) rotate(0) translate(4 515)">
<title>Operators</title>
<polygon fill="white" stroke="transparent" points="-4,4 -4,-515 464.49,-515 464.49,4 -4,4"/>
<g id="clust1" class="cluster">
<title>clusterdir_cbaa4243dba62e6c31a85be2a7f37267</title>
<g id="a_clust1"><a xlink:href="dir_cbaa4243dba62e6c31a85be2a7f37267.html" target="_top" xlink:title="OpenCL">
<polygon fill="#ddddee" stroke="black" points="8,-208 8,-503 244,-503 244,-208 8,-208"/>
<text text-anchor="middle" x="126" y="-491" font-family="FreeSans" font-size="10.00">OpenCL</text>
</a>
</g>
</g>
<g id="clust2" class="cluster">
<title>clusterdir_33a62e81222a3378099f7b5a2aa63b54</title>
<g id="a_clust2"><a xlink:href="dir_33a62e81222a3378099f7b5a2aa63b54.html" target="_top">
<polygon fill="#eeeeff" stroke="black" points="16,-352 16,-476 236,-476 236,-352 16,-352"/>
</a>
</g>
</g>
<!-- dir_c452024336701c9bf6340e0043ea0543 -->
<g id="node1" class="node">
<title>dir_c452024336701c9bf6340e0043ea0543</title>
<g id="a_node1"><a xlink:href="dir_c452024336701c9bf6340e0043ea0543.html" target="_top" xlink:title="Core">
<polygon fill="white" stroke="red" points="196,-252 142,-252 142,-216 196,-216 196,-252"/>
<text text-anchor="middle" x="169" y="-231.5" font-family="FreeSans" font-size="10.00">Core</text>
</a>
</g>
</g>
<!-- dir_150f406a44a04ce55518da03ec553ece -->
<g id="node7" class="node">
<title>dir_150f406a44a04ce55518da03ec553ece</title>
<g id="a_node7"><a xlink:href="dir_150f406a44a04ce55518da03ec553ece.html" target="_top" xlink:title="Utilities">
<polygon fill="white" stroke="red" points="369,-180 315,-180 315,-144 369,-144 369,-180"/>
<text text-anchor="middle" x="342" y="-159.5" font-family="FreeSans" font-size="10.00">Utilities</text>
</a>
</g>
</g>
<!-- dir_c452024336701c9bf6340e0043ea0543&#45;&gt;dir_150f406a44a04ce55518da03ec553ece -->
<g id="edge23" class="edge">
<title>dir_c452024336701c9bf6340e0043ea0543&#45;&gt;dir_150f406a44a04ce55518da03ec553ece</title>
<path fill="none" stroke="black" d="M195,-215.99C199.88,-213.13 205.02,-210.33 210,-208 241.01,-193.47 278.04,-181.26 304.98,-173.24"/>
<polygon fill="black" stroke="black" points="306.16,-176.55 314.78,-170.38 304.2,-169.83 306.16,-176.55"/>
<g id="a_edge23&#45;headlabel"><a xlink:href="dir_000082_000086.html" target="_top" xlink:title="1">
<text text-anchor="middle" x="303.51" y="-177.78" font-family="FreeSans" font-size="10.00">1</text>
</a>
</g>
</g>
<!-- dir_32348ece3c89569e6a714937ae854c89 -->
<g id="node8" class="node">
<title>dir_32348ece3c89569e6a714937ae854c89</title>
<g id="a_node8"><a xlink:href="dir_32348ece3c89569e6a714937ae854c89.html" target="_top" xlink:title="Message">
<polygon fill="white" stroke="red" points="331,-36 275,-36 275,0 331,0 331,-36"/>
<text text-anchor="middle" x="303" y="-15.5" font-family="FreeSans" font-size="10.00">Message</text>
</a>
</g>
</g>
<!-- dir_c452024336701c9bf6340e0043ea0543&#45;&gt;dir_32348ece3c89569e6a714937ae854c89 -->
<g id="edge22" class="edge">
<title>dir_c452024336701c9bf6340e0043ea0543&#45;&gt;dir_32348ece3c89569e6a714937ae854c89</title>
<path fill="none" stroke="black" d="M179.74,-215.85C203.16,-178.44 258.97,-89.32 286.73,-44.98"/>
<polygon fill="black" stroke="black" points="289.87,-46.57 292.21,-36.23 283.94,-42.85 289.87,-46.57"/>
<g id="a_edge22&#45;headlabel"><a xlink:href="dir_000082_000123.html" target="_top" xlink:title="2">
<text text-anchor="middle" x="290.37" y="-48.62" font-family="FreeSans" font-size="10.00">2</text>
</a>
</g>
</g>
<!-- dir_e2fcaed8db8bcf350f433431a993c8b5 -->
<g id="node2" class="node">
<title>dir_e2fcaed8db8bcf350f433431a993c8b5</title>
<g id="a_node2"><a xlink:href="dir_e2fcaed8db8bcf350f433431a993c8b5.html" target="_top" xlink:title="Containers">
<polygon fill="white" stroke="red" points="235.5,-324 172.5,-324 172.5,-288 235.5,-288 235.5,-324"/>
<text text-anchor="middle" x="204" y="-303.5" font-family="FreeSans" font-size="10.00">Containers</text>
</a>
</g>
</g>
<!-- dir_e2fcaed8db8bcf350f433431a993c8b5&#45;&gt;dir_c452024336701c9bf6340e0043ea0543 -->
<g id="edge11" class="edge">
<title>dir_e2fcaed8db8bcf350f433431a993c8b5&#45;&gt;dir_c452024336701c9bf6340e0043ea0543</title>
<path fill="none" stroke="black" d="M195.35,-287.7C191.36,-279.73 186.55,-270.1 182.13,-261.26"/>
<polygon fill="black" stroke="black" points="185.15,-259.48 177.55,-252.1 178.89,-262.61 185.15,-259.48"/>
<g id="a_edge11&#45;headlabel"><a xlink:href="dir_000132_000082.html" target="_top" xlink:title="1">
<text text-anchor="middle" x="189.3" y="-258.93" font-family="FreeSans" font-size="10.00">1</text>
</a>
</g>
</g>
<!-- dir_e2fcaed8db8bcf350f433431a993c8b5&#45;&gt;dir_150f406a44a04ce55518da03ec553ece -->
<g id="edge10" class="edge">
<title>dir_e2fcaed8db8bcf350f433431a993c8b5&#45;&gt;dir_150f406a44a04ce55518da03ec553ece</title>
<path fill="none" stroke="black" d="M207.08,-287.82C211.69,-266.61 222.29,-230.59 244,-208 260.5,-190.83 284.8,-179.62 305.07,-172.68"/>
<polygon fill="black" stroke="black" points="306.19,-175.99 314.64,-169.6 304.05,-169.33 306.19,-175.99"/>
<g id="a_edge10&#45;headlabel"><a xlink:href="dir_000132_000086.html" target="_top" xlink:title="2">
<text text-anchor="middle" x="303.64" y="-177.29" font-family="FreeSans" font-size="10.00">2</text>
</a>
</g>
</g>
<!-- dir_a06008c3e245d1092ba6894d6caedef2 -->
<g id="node10" class="node">
<title>dir_a06008c3e245d1092ba6894d6caedef2</title>
<g id="a_node10"><a xlink:href="dir_a06008c3e245d1092ba6894d6caedef2.html" target="_top" xlink:title="Containers">
<polygon fill="white" stroke="red" points="315.5,-252 252.5,-252 252.5,-216 315.5,-216 315.5,-252"/>
<text text-anchor="middle" x="284" y="-231.5" font-family="FreeSans" font-size="10.00">Containers</text>
</a>
</g>
</g>
<!-- dir_e2fcaed8db8bcf350f433431a993c8b5&#45;&gt;dir_a06008c3e245d1092ba6894d6caedef2 -->
<g id="edge12" class="edge">
<title>dir_e2fcaed8db8bcf350f433431a993c8b5&#45;&gt;dir_a06008c3e245d1092ba6894d6caedef2</title>
<path fill="none" stroke="black" d="M223.78,-287.7C233.75,-278.97 246.01,-268.24 256.86,-258.75"/>
<polygon fill="black" stroke="black" points="259.23,-261.32 264.45,-252.1 254.62,-256.06 259.23,-261.32"/>
<g id="a_edge12&#45;headlabel"><a xlink:href="dir_000132_000096.html" target="_top" xlink:title="1">
<text text-anchor="middle" x="258.4" y="-263.33" font-family="FreeSans" font-size="10.00">1</text>
</a>
</g>
</g>
<!-- dir_33a62e81222a3378099f7b5a2aa63b54 -->
<g id="node3" class="node">
<title>dir_33a62e81222a3378099f7b5a2aa63b54</title>
<text text-anchor="middle" x="198" y="-447.5" font-family="FreeSans" font-size="10.00">Operators</text>
</g>
<!-- dir_cd0f5cddee6236cbb9b8f69ea5da5bdc -->
<g id="node4" class="node">
<title>dir_cd0f5cddee6236cbb9b8f69ea5da5bdc</title>
<g id="a_node4"><a xlink:href="dir_cd0f5cddee6236cbb9b8f69ea5da5bdc.html" target="_top" xlink:title="cl">
<polygon fill="white" stroke="black" points="150,-468 96,-468 96,-432 150,-432 150,-468"/>
<text text-anchor="middle" x="123" y="-447.5" font-family="FreeSans" font-size="10.00">cl</text>
</a>
</g>
</g>
<!-- dir_5f54002e10037f8fa6b21f97509f63d1 -->
<g id="node5" class="node">
<title>dir_5f54002e10037f8fa6b21f97509f63d1</title>
<g id="a_node5"><a xlink:href="dir_5f54002e10037f8fa6b21f97509f63d1.html" target="_top" xlink:title="include">
<polygon fill="white" stroke="black" points="228,-396 174,-396 174,-360 228,-360 228,-396"/>
<text text-anchor="middle" x="201" y="-375.5" font-family="FreeSans" font-size="10.00">include</text>
</a>
</g>
</g>
<!-- dir_5f54002e10037f8fa6b21f97509f63d1&#45;&gt;dir_c452024336701c9bf6340e0043ea0543 -->
<g id="edge19" class="edge">
<title>dir_5f54002e10037f8fa6b21f97509f63d1&#45;&gt;dir_c452024336701c9bf6340e0043ea0543</title>
<path fill="none" stroke="black" d="M184.96,-359.85C176.99,-350.12 168.17,-337.27 164,-324 157.67,-303.88 159.5,-279.97 162.59,-262"/>
<polygon fill="black" stroke="black" points="166.03,-262.66 164.5,-252.18 159.15,-261.32 166.03,-262.66"/>
<g id="a_edge19&#45;headlabel"><a xlink:href="dir_000109_000082.html" target="_top" xlink:title="12">
<text text-anchor="middle" x="168.12" y="-264.23" font-family="FreeSans" font-size="10.00">12</text>
</a>
</g>
</g>
<!-- dir_5f54002e10037f8fa6b21f97509f63d1&#45;&gt;dir_e2fcaed8db8bcf350f433431a993c8b5 -->
<g id="edge20" class="edge">
<title>dir_5f54002e10037f8fa6b21f97509f63d1&#45;&gt;dir_e2fcaed8db8bcf350f433431a993c8b5</title>
<path fill="none" stroke="black" d="M201.74,-359.7C202.07,-351.98 202.47,-342.71 202.84,-334.11"/>
<polygon fill="black" stroke="black" points="206.34,-334.25 203.27,-324.1 199.34,-333.95 206.34,-334.25"/>
<g id="a_edge20&#45;headlabel"><a xlink:href="dir_000109_000132.html" target="_top" xlink:title="2">
<text text-anchor="middle" x="209.02" y="-335.46" font-family="FreeSans" font-size="10.00">2</text>
</a>
</g>
</g>
<!-- dir_5f54002e10037f8fa6b21f97509f63d1&#45;&gt;dir_150f406a44a04ce55518da03ec553ece -->
<g id="edge15" class="edge">
<title>dir_5f54002e10037f8fa6b21f97509f63d1&#45;&gt;dir_150f406a44a04ce55518da03ec553ece</title>
<path fill="none" stroke="black" d="M226.92,-359.84C256.63,-338.53 303.91,-299.16 325,-252 333.76,-232.41 338.01,-208.41 340.07,-190.28"/>
<polygon fill="black" stroke="black" points="343.58,-190.39 341.07,-180.1 336.61,-189.71 343.58,-190.39"/>
<g id="a_edge15&#45;headlabel"><a xlink:href="dir_000109_000086.html" target="_top" xlink:title="2">
<text text-anchor="middle" x="346.05" y="-191.75" font-family="FreeSans" font-size="10.00">2</text>
</a>
</g>
</g>
<!-- dir_5f54002e10037f8fa6b21f97509f63d1&#45;&gt;dir_32348ece3c89569e6a714937ae854c89 -->
<g id="edge16" class="edge">
<title>dir_5f54002e10037f8fa6b21f97509f63d1&#45;&gt;dir_32348ece3c89569e6a714937ae854c89</title>
<path fill="none" stroke="black" d="M173.81,-364.15C157.87,-355.17 138.8,-341.63 128,-324 107.09,-289.85 114,-275.04 114,-235 114,-235 114,-235 114,-161 114,-86.24 209.7,-45.97 264.9,-28.97"/>
<polygon fill="black" stroke="black" points="266.11,-32.26 274.7,-26.06 264.12,-25.55 266.11,-32.26"/>
<g id="a_edge16&#45;headlabel"><a xlink:href="dir_000109_000123.html" target="_top" xlink:title="4">
<text text-anchor="middle" x="263.47" y="-33.5" font-family="FreeSans" font-size="10.00">4</text>
</a>
</g>
</g>
<!-- dir_4546011bd625f1142c4c4ae06dcdb5ba -->
<g id="node9" class="node">
<title>dir_4546011bd625f1142c4c4ae06dcdb5ba</title>
<g id="a_node9"><a xlink:href="dir_4546011bd625f1142c4c4ae06dcdb5ba.html" target="_top" xlink:title="Operators">
<polygon fill="white" stroke="red" points="431.5,-324 372.5,-324 372.5,-288 431.5,-288 431.5,-324"/>
<text text-anchor="middle" x="402" y="-303.5" font-family="FreeSans" font-size="10.00">Operators</text>
</a>
</g>
</g>
<!-- dir_5f54002e10037f8fa6b21f97509f63d1&#45;&gt;dir_4546011bd625f1142c4c4ae06dcdb5ba -->
<g id="edge17" class="edge">
<title>dir_5f54002e10037f8fa6b21f97509f63d1&#45;&gt;dir_4546011bd625f1142c4c4ae06dcdb5ba</title>
<path fill="none" stroke="black" d="M228.07,-368.25C259.46,-358.02 312.69,-340.39 358,-324 359.59,-323.43 361.21,-322.83 362.84,-322.23"/>
<polygon fill="black" stroke="black" points="364.11,-325.49 372.24,-318.7 361.65,-318.94 364.11,-325.49"/>
<g id="a_edge17&#45;headlabel"><a xlink:href="dir_000109_000089.html" target="_top" xlink:title="11">
<text text-anchor="middle" x="361.75" y="-326.91" font-family="FreeSans" font-size="10.00">11</text>
</a>
</g>
</g>
<!-- dir_5f54002e10037f8fa6b21f97509f63d1&#45;&gt;dir_a06008c3e245d1092ba6894d6caedef2 -->
<g id="edge18" class="edge">
<title>dir_5f54002e10037f8fa6b21f97509f63d1&#45;&gt;dir_a06008c3e245d1092ba6894d6caedef2</title>
<path fill="none" stroke="black" d="M219.19,-359.6C228.69,-349.8 239.97,-336.96 248,-324 260.1,-304.49 269.6,-280.21 275.79,-261.94"/>
<polygon fill="black" stroke="black" points="279.19,-262.81 278.97,-252.22 272.54,-260.64 279.19,-262.81"/>
<g id="a_edge18&#45;headlabel"><a xlink:href="dir_000109_000096.html" target="_top" xlink:title="7">
<text text-anchor="middle" x="280.77" y="-264.61" font-family="FreeSans" font-size="10.00">7</text>
</a>
</g>
</g>
<!-- dir_ff42852cc454de79d2ecb9482f4de9d8 -->
<g id="node11" class="node">
<title>dir_ff42852cc454de79d2ecb9482f4de9d8</title>
<g id="a_node11"><a xlink:href="dir_ff42852cc454de79d2ecb9482f4de9d8.html" target="_top" xlink:title="Math">
<polygon fill="white" stroke="red" points="404,-108 350,-108 350,-72 404,-72 404,-108"/>
<text text-anchor="middle" x="377" y="-87.5" font-family="FreeSans" font-size="10.00">Math</text>
</a>
</g>
</g>
<!-- dir_5f54002e10037f8fa6b21f97509f63d1&#45;&gt;dir_ff42852cc454de79d2ecb9482f4de9d8 -->
<g id="edge21" class="edge">
<title>dir_5f54002e10037f8fa6b21f97509f63d1&#45;&gt;dir_ff42852cc454de79d2ecb9482f4de9d8</title>
<path fill="none" stroke="black" d="M228.3,-375.14C285.44,-370.63 414.55,-356.93 441,-324 491.1,-261.63 431.04,-162.88 397.14,-116.57"/>
<polygon fill="black" stroke="black" points="399.74,-114.2 390.95,-108.29 394.14,-118.39 399.74,-114.2"/>
<g id="a_edge21&#45;headlabel"><a xlink:href="dir_000109_000099.html" target="_top" xlink:title="7">
<text text-anchor="middle" x="404.17" y="-112.88" font-family="FreeSans" font-size="10.00">7</text>
</a>
</g>
</g>
<!-- dir_07e50417bbcc869d922b4463d87e0cdf -->
<g id="node6" class="node">
<title>dir_07e50417bbcc869d922b4463d87e0cdf</title>
<g id="a_node6"><a xlink:href="dir_07e50417bbcc869d922b4463d87e0cdf.html" target="_top" xlink:title="src">
<polygon fill="white" stroke="black" points="78,-468 24,-468 24,-432 78,-432 78,-468"/>
<text text-anchor="middle" x="51" y="-447.5" font-family="FreeSans" font-size="10.00">src</text>
</a>
</g>
</g>
<!-- dir_07e50417bbcc869d922b4463d87e0cdf&#45;&gt;dir_5f54002e10037f8fa6b21f97509f63d1 -->
<g id="edge5" class="edge">
<title>dir_07e50417bbcc869d922b4463d87e0cdf&#45;&gt;dir_5f54002e10037f8fa6b21f97509f63d1</title>
<path fill="none" stroke="black" d="M78.12,-436.17C81.11,-434.76 84.12,-433.35 87,-432 112.94,-419.85 142.25,-406.22 164.65,-395.83"/>
<polygon fill="black" stroke="black" points="166.2,-398.97 173.8,-391.59 163.25,-392.62 166.2,-398.97"/>
<g id="a_edge5&#45;headlabel"><a xlink:href="dir_000130_000109.html" target="_top" xlink:title="1">
<text text-anchor="middle" x="164.13" y="-400.56" font-family="FreeSans" font-size="10.00">1</text>
</a>
</g>
</g>
<!-- dir_150f406a44a04ce55518da03ec553ece&#45;&gt;dir_32348ece3c89569e6a714937ae854c89 -->
<g id="edge13" class="edge">
<title>dir_150f406a44a04ce55518da03ec553ece&#45;&gt;dir_32348ece3c89569e6a714937ae854c89</title>
<path fill="none" stroke="black" d="M337.3,-143.87C330.62,-119.56 318.33,-74.82 310.42,-46.01"/>
<polygon fill="black" stroke="black" points="313.74,-44.91 307.72,-36.19 306.99,-46.76 313.74,-44.91"/>
<g id="a_edge13&#45;headlabel"><a xlink:href="dir_000086_000123.html" target="_top" xlink:title="13">
<text text-anchor="middle" x="317.43" y="-45.12" font-family="FreeSans" font-size="10.00">13</text>
</a>
</g>
</g>
<!-- dir_150f406a44a04ce55518da03ec553ece&#45;&gt;dir_ff42852cc454de79d2ecb9482f4de9d8 -->
<g id="edge14" class="edge">
<title>dir_150f406a44a04ce55518da03ec553ece&#45;&gt;dir_ff42852cc454de79d2ecb9482f4de9d8</title>
<path fill="none" stroke="black" d="M344.74,-143.7C347.93,-135.64 352.6,-125.89 357.46,-116.98"/>
<polygon fill="black" stroke="black" points="360.61,-118.52 362.55,-108.1 354.54,-115.04 360.61,-118.52"/>
<g id="a_edge14&#45;headlabel"><a xlink:href="dir_000086_000099.html" target="_top" xlink:title="1">
<text text-anchor="middle" x="361.29" y="-120.55" font-family="FreeSans" font-size="10.00">1</text>
</a>
</g>
</g>
<!-- dir_4546011bd625f1142c4c4ae06dcdb5ba&#45;&gt;dir_150f406a44a04ce55518da03ec553ece -->
<g id="edge6" class="edge">
<title>dir_4546011bd625f1142c4c4ae06dcdb5ba&#45;&gt;dir_150f406a44a04ce55518da03ec553ece</title>
<path fill="none" stroke="black" d="M394.76,-287.87C384.45,-263.46 365.42,-218.43 353.25,-189.64"/>
<polygon fill="black" stroke="black" points="356.38,-188.04 349.26,-180.19 349.93,-190.76 356.38,-188.04"/>
<g id="a_edge6&#45;headlabel"><a xlink:href="dir_000089_000086.html" target="_top" xlink:title="5">
<text text-anchor="middle" x="360.39" y="-187.74" font-family="FreeSans" font-size="10.00">5</text>
</a>
</g>
</g>
<!-- dir_4546011bd625f1142c4c4ae06dcdb5ba&#45;&gt;dir_32348ece3c89569e6a714937ae854c89 -->
<g id="edge7" class="edge">
<title>dir_4546011bd625f1142c4c4ae06dcdb5ba&#45;&gt;dir_32348ece3c89569e6a714937ae854c89</title>
<path fill="none" stroke="black" d="M408.96,-287.82C424.35,-246.81 456.62,-141.44 413,-72 397.34,-47.07 366.3,-33.59 341.18,-26.48"/>
<polygon fill="black" stroke="black" points="341.74,-23.01 331.19,-23.89 339.99,-29.78 341.74,-23.01"/>
<g id="a_edge7&#45;headlabel"><a xlink:href="dir_000089_000123.html" target="_top" xlink:title="12">
<text text-anchor="middle" x="345.94" y="-18.66" font-family="FreeSans" font-size="10.00">12</text>
</a>
</g>
</g>
<!-- dir_4546011bd625f1142c4c4ae06dcdb5ba&#45;&gt;dir_a06008c3e245d1092ba6894d6caedef2 -->
<g id="edge8" class="edge">
<title>dir_4546011bd625f1142c4c4ae06dcdb5ba&#45;&gt;dir_a06008c3e245d1092ba6894d6caedef2</title>
<path fill="none" stroke="black" d="M373.13,-287.88C357.71,-278.72 338.52,-267.34 321.9,-257.48"/>
<polygon fill="black" stroke="black" points="323.36,-254.28 312.98,-252.19 319.79,-260.3 323.36,-254.28"/>
<g id="a_edge8&#45;headlabel"><a xlink:href="dir_000089_000096.html" target="_top" xlink:title="22">
<text text-anchor="middle" x="327.9" y="-251.17" font-family="FreeSans" font-size="10.00">22</text>
</a>
</g>
</g>
<!-- dir_4546011bd625f1142c4c4ae06dcdb5ba&#45;&gt;dir_ff42852cc454de79d2ecb9482f4de9d8 -->
<g id="edge9" class="edge">
<title>dir_4546011bd625f1142c4c4ae06dcdb5ba&#45;&gt;dir_ff42852cc454de79d2ecb9482f4de9d8</title>
<path fill="none" stroke="black" d="M400,-287.85C395.67,-250.83 385.43,-163.18 380.2,-118.39"/>
<polygon fill="black" stroke="black" points="383.65,-117.76 379.01,-108.23 376.7,-118.57 383.65,-117.76"/>
<g id="a_edge9&#45;headlabel"><a xlink:href="dir_000089_000099.html" target="_top" xlink:title="8">
<text text-anchor="middle" x="386.89" y="-118.5" font-family="FreeSans" font-size="10.00">8</text>
</a>
</g>
</g>
<!-- dir_a06008c3e245d1092ba6894d6caedef2&#45;&gt;dir_150f406a44a04ce55518da03ec553ece -->
<g id="edge1" class="edge">
<title>dir_a06008c3e245d1092ba6894d6caedef2&#45;&gt;dir_150f406a44a04ce55518da03ec553ece</title>
<path fill="none" stroke="black" d="M298.34,-215.7C305.29,-207.3 313.77,-197.07 321.4,-187.86"/>
<polygon fill="black" stroke="black" points="324.14,-190.04 327.83,-180.1 318.75,-185.57 324.14,-190.04"/>
<g id="a_edge1&#45;headlabel"><a xlink:href="dir_000096_000086.html" target="_top" xlink:title="42">
<text text-anchor="middle" x="324.04" y="-192.12" font-family="FreeSans" font-size="10.00">42</text>
</a>
</g>
</g>
<!-- dir_a06008c3e245d1092ba6894d6caedef2&#45;&gt;dir_32348ece3c89569e6a714937ae854c89 -->
<g id="edge2" class="edge">
<title>dir_a06008c3e245d1092ba6894d6caedef2&#45;&gt;dir_32348ece3c89569e6a714937ae854c89</title>
<path fill="none" stroke="black" d="M285.52,-215.85C288.81,-178.83 296.59,-91.18 300.57,-46.39"/>
<polygon fill="black" stroke="black" points="304.07,-46.5 301.47,-36.23 297.1,-45.88 304.07,-46.5"/>
<g id="a_edge2&#45;headlabel"><a xlink:href="dir_000096_000123.html" target="_top" xlink:title="9">
<text text-anchor="middle" x="306.58" y="-47.83" font-family="FreeSans" font-size="10.00">9</text>
</a>
</g>
</g>
<!-- dir_ff42852cc454de79d2ecb9482f4de9d8&#45;&gt;dir_150f406a44a04ce55518da03ec553ece -->
<g id="edge4" class="edge">
<title>dir_ff42852cc454de79d2ecb9482f4de9d8&#45;&gt;dir_150f406a44a04ce55518da03ec553ece</title>
<path fill="none" stroke="black" d="M374.34,-108.1C371.17,-116.13 366.52,-125.87 361.66,-134.8"/>
<polygon fill="black" stroke="black" points="358.49,-133.28 356.57,-143.7 364.57,-136.75 358.49,-133.28"/>
<g id="a_edge4&#45;headlabel"><a xlink:href="dir_000099_000086.html" target="_top" xlink:title="1">
<text text-anchor="middle" x="357.82" y="-126.25" font-family="FreeSans" font-size="10.00">1</text>
</a>
</g>
</g>
<!-- dir_ff42852cc454de79d2ecb9482f4de9d8&#45;&gt;dir_32348ece3c89569e6a714937ae854c89 -->
<g id="edge3" class="edge">
<title>dir_ff42852cc454de79d2ecb9482f4de9d8&#45;&gt;dir_32348ece3c89569e6a714937ae854c89</title>
<path fill="none" stroke="black" d="M358.71,-71.7C349.57,-63.05 338.36,-52.45 328.4,-43.03"/>
<polygon fill="black" stroke="black" points="330.75,-40.43 321.08,-36.1 325.94,-45.52 330.75,-40.43"/>
<g id="a_edge3&#45;headlabel"><a xlink:href="dir_000099_000123.html" target="_top" xlink:title="6">
<text text-anchor="middle" x="335.31" y="-38.34" font-family="FreeSans" font-size="10.00">6</text>
</a>
</g>
</g>
</g>
</svg>
