<?xml version="1.0" encoding="UTF-8" standalone="no"?>
<!DOCTYPE svg PUBLIC "-//W3C//DTD SVG 1.1//EN"
 "http://www.w3.org/Graphics/SVG/1.1/DTD/svg11.dtd">
<!-- Generated by graphviz version 2.43.0 (0)
 -->
<!-- Title: src Pages: 1 -->
<svg width="166pt" height="223pt"
 viewBox="0.00 0.00 165.55 223.00" xmlns="http://www.w3.org/2000/svg" xmlns:xlink="http://www.w3.org/1999/xlink">
<g id="graph0" class="graph" transform="scale(1 1) rotate(0) translate(4 219)">
<title>src</title>
<polygon fill="white" stroke="transparent" points="-4,4 -4,-219 161.55,-219 161.55,4 -4,4"/>
<g id="clust1" class="cluster">
<title>clusterdir_ff42852cc454de79d2ecb9482f4de9d8</title>
<g id="a_clust1"><a xlink:href="dir_ff42852cc454de79d2ecb9482f4de9d8.html" target="_top" xlink:title="Math">
<polygon fill="#ddddee" stroke="black" points="8,-64 8,-207 78,-207 78,-64 8,-64"/>
<text text-anchor="middle" x="43" y="-195" font-family="FreeSans" font-size="10.00">Math</text>
</a>
</g>
</g>
<!-- dir_158de98f8b9180e98dec16a5c6f07451 -->
<g id="node1" class="node">
<title>dir_158de98f8b9180e98dec16a5c6f07451</title>
<g id="a_node1"><a xlink:href="dir_158de98f8b9180e98dec16a5c6f07451.html" target="_top" xlink:title="include">
<polygon fill="none" stroke="black" points="70,-108 16,-108 16,-72 70,-72 70,-108"/>
<text text-anchor="middle" x="43" y="-87.5" font-family="FreeSans" font-size="10.00">include</text>
</a>
</g>
</g>
<!-- dir_32348ece3c89569e6a714937ae854c89 -->
<g id="node4" class="node">
<title>dir_32348ece3c89569e6a714937ae854c89</title>
<g id="a_node4"><a xlink:href="dir_32348ece3c89569e6a714937ae854c89.html" target="_top" xlink:title="Message">
<polygon fill="white" stroke="red" points="143,-36 87,-36 87,0 143,0 143,-36"/>
<text text-anchor="middle" x="115" y="-15.5" font-family="FreeSans" font-size="10.00">Message</text>
</a>
</g>
</g>
<!-- dir_158de98f8b9180e98dec16a5c6f07451&#45;&gt;dir_32348ece3c89569e6a714937ae854c89 -->
<g id="edge1" class="edge">
<title>dir_158de98f8b9180e98dec16a5c6f07451&#45;&gt;dir_32348ece3c89569e6a714937ae854c89</title>
<path fill="none" stroke="black" d="M60.8,-71.7C69.6,-63.14 80.38,-52.66 90,-43.3"/>
<polygon fill="black" stroke="black" points="92.68,-45.58 97.41,-36.1 87.8,-40.57 92.68,-45.58"/>
<g id="a_edge1&#45;headlabel"><a xlink:href="dir_000101_000123.html" target="_top" xlink:title="3">
<text text-anchor="middle" x="92.08" y="-47.63" font-family="FreeSans" font-size="10.00">3</text>
</a>
</g>
</g>
<!-- dir_7d37709c3006278800184bcbe356fdb7 -->
<g id="node2" class="node">
<title>dir_7d37709c3006278800184bcbe356fdb7</title>
<g id="a_node2"><a xlink:href="dir_7d37709c3006278800184bcbe356fdb7.html" target="_top" xlink:title="src">
<polygon fill="#eeeeff" stroke="black" points="70,-180 16,-180 16,-144 70,-144 70,-180"/>
<text text-anchor="middle" x="43" y="-159.5" font-family="FreeSans" font-size="10.00">src</text>
</a>
</g>
</g>
<!-- dir_7d37709c3006278800184bcbe356fdb7&#45;&gt;dir_158de98f8b9180e98dec16a5c6f07451 -->
<g id="edge3" class="edge">
<title>dir_7d37709c3006278800184bcbe356fdb7&#45;&gt;dir_158de98f8b9180e98dec16a5c6f07451</title>
<path fill="none" stroke="black" d="M43,-143.7C43,-135.98 43,-126.71 43,-118.11"/>
<polygon fill="black" stroke="black" points="46.5,-118.1 43,-108.1 39.5,-118.1 46.5,-118.1"/>
<g id="a_edge3&#45;headlabel"><a xlink:href="dir_000100_000101.html" target="_top" xlink:title="6">
<text text-anchor="middle" x="49.34" y="-119.2" font-family="FreeSans" font-size="10.00">6</text>
</a>
</g>
</g>
<!-- dir_150f406a44a04ce55518da03ec553ece -->
<g id="node3" class="node">
<title>dir_150f406a44a04ce55518da03ec553ece</title>
<g id="a_node3"><a xlink:href="dir_150f406a44a04ce55518da03ec553ece.html" target="_top" xlink:title="Utilities">
<polygon fill="white" stroke="red" points="142,-108 88,-108 88,-72 142,-72 142,-108"/>
<text text-anchor="middle" x="115" y="-87.5" font-family="FreeSans" font-size="10.00">Utilities</text>
</a>
</g>
</g>
<!-- dir_7d37709c3006278800184bcbe356fdb7&#45;&gt;dir_150f406a44a04ce55518da03ec553ece -->
<g id="edge2" class="edge">
<title>dir_7d37709c3006278800184bcbe356fdb7&#45;&gt;dir_150f406a44a04ce55518da03ec553ece</title>
<path fill="none" stroke="black" d="M60.8,-143.7C69.6,-135.14 80.38,-124.66 90,-115.3"/>
<polygon fill="black" stroke="black" points="92.68,-117.58 97.41,-108.1 87.8,-112.57 92.68,-117.58"/>
<g id="a_edge2&#45;headlabel"><a xlink:href="dir_000100_000086.html" target="_top" xlink:title="1">
<text text-anchor="middle" x="92.08" y="-119.63" font-family="FreeSans" font-size="10.00">1</text>
</a>
</g>
</g>
<!-- dir_7d37709c3006278800184bcbe356fdb7&#45;&gt;dir_32348ece3c89569e6a714937ae854c89 -->
<g id="edge4" class="edge">
<title>dir_7d37709c3006278800184bcbe356fdb7&#45;&gt;dir_32348ece3c89569e6a714937ae854c89</title>
<path fill="none" stroke="black" d="M70.2,-156.08C96.03,-149.8 133.44,-136.18 151,-108 161.34,-91.4 157.47,-82.45 151,-64 148.5,-56.86 144.33,-50.01 139.7,-43.91"/>
<polygon fill="black" stroke="black" points="142.29,-41.55 133.22,-36.08 136.9,-46.01 142.29,-41.55"/>
<g id="a_edge4&#45;headlabel"><a xlink:href="dir_000100_000123.html" target="_top" xlink:title="3">
<text text-anchor="middle" x="146.77" y="-40" font-family="FreeSans" font-size="10.00">3</text>
</a>
</g>
</g>
<!-- dir_150f406a44a04ce55518da03ec553ece&#45;&gt;dir_158de98f8b9180e98dec16a5c6f07451 -->
<g id="edge5" class="edge">
<title>dir_150f406a44a04ce55518da03ec553ece&#45;&gt;dir_158de98f8b9180e98dec16a5c6f07451</title>
<path fill="none" stroke="black" d="M87.75,-90C85.29,-90 82.84,-90 80.38,-90"/>
<polygon fill="black" stroke="black" points="80.28,-86.5 70.28,-90 80.28,-93.5 80.28,-86.5"/>
<g id="a_edge5&#45;headlabel"><a xlink:href="dir_000086_000101.html" target="_top" xlink:title="1">
<text text-anchor="middle" x="83.88" y="-81.16" font-family="FreeSans" font-size="10.00">1</text>
</a>
</g>
</g>
<!-- dir_150f406a44a04ce55518da03ec553ece&#45;&gt;dir_32348ece3c89569e6a714937ae854c89 -->
<g id="edge6" class="edge">
<title>dir_150f406a44a04ce55518da03ec553ece&#45;&gt;dir_32348ece3c89569e6a714937ae854c89</title>
<path fill="none" stroke="black" d="M115,-71.7C115,-63.98 115,-54.71 115,-46.11"/>
<polygon fill="black" stroke="black" points="118.5,-46.1 115,-36.1 111.5,-46.1 118.5,-46.1"/>
<g id="a_edge6&#45;headlabel"><a xlink:href="dir_000086_000123.html" target="_top" xlink:title="13">
<text text-anchor="middle" x="121.34" y="-47.2" font-family="FreeSans" font-size="10.00">13</text>
</a>
</g>
</g>
</g>
</svg>
