<?xml version="1.0" encoding="UTF-8" standalone="no"?>
<!DOCTYPE svg PUBLIC "-//W3C//DTD SVG 1.1//EN"
 "http://www.w3.org/Graphics/SVG/1.1/DTD/svg11.dtd">
<!-- Generated by graphviz version 2.43.0 (0)
 -->
<!-- Title: fourfit_libs Pages: 1 -->
<svg width="542pt" height="463pt"
 viewBox="0.00 0.00 542.00 463.00" xmlns="http://www.w3.org/2000/svg" xmlns:xlink="http://www.w3.org/1999/xlink">
<g id="graph0" class="graph" transform="scale(1 1) rotate(0) translate(4 459)">
<title>fourfit_libs</title>
<polygon fill="white" stroke="transparent" points="-4,4 -4,-459 538,-459 538,4 -4,4"/>
<g id="clust1" class="cluster">
<title>clusterdir_0c6283dd7716efebfcf76fdb98d8e794</title>
<g id="a_clust1"><a xlink:href="dir_0c6283dd7716efebfcf76fdb98d8e794.html" target="_top" xlink:title="c_src">
<polygon fill="#ddddee" stroke="black" points="8,-8 8,-447 526,-447 526,-8 8,-8"/>
<text text-anchor="middle" x="267" y="-435" font-family="FreeSans" font-size="10.00">c_src</text>
</a>
</g>
</g>
<g id="clust2" class="cluster">
<title>clusterdir_9ef7e4ca5af767b4d78801a8e1d37f3e</title>
<g id="a_clust2"><a xlink:href="dir_9ef7e4ca5af767b4d78801a8e1d37f3e.html" target="_top">
<polygon fill="#eeeeff" stroke="black" points="142,-152 142,-420 344,-420 344,-152 142,-152"/>
</a>
</g>
</g>
<!-- dir_64078e4dd55db1ba2b4e557207803e4b -->
<g id="node1" class="node">
<title>dir_64078e4dd55db1ba2b4e557207803e4b</title>
<g id="a_node1"><a xlink:href="dir_64078e4dd55db1ba2b4e557207803e4b.html" target="_top" xlink:title="vex">
<polygon fill="white" stroke="red" points="478,-196 424,-196 424,-160 478,-160 478,-196"/>
<text text-anchor="middle" x="451" y="-175.5" font-family="FreeSans" font-size="10.00">vex</text>
</a>
</g>
</g>
<!-- dir_cb2d4e92f47691559fc9d122a5e37fac -->
<g id="node2" class="node">
<title>dir_cb2d4e92f47691559fc9d122a5e37fac</title>
<g id="a_node2"><a xlink:href="dir_cb2d4e92f47691559fc9d122a5e37fac.html" target="_top" xlink:title="mk4util">
<polygon fill="white" stroke="red" points="173,-124 119,-124 119,-88 173,-88 173,-124"/>
<text text-anchor="middle" x="146" y="-103.5" font-family="FreeSans" font-size="10.00">mk4util</text>
</a>
</g>
</g>
<!-- dir_64078e4dd55db1ba2b4e557207803e4b&#45;&gt;dir_cb2d4e92f47691559fc9d122a5e37fac -->
<g id="edge2" class="edge">
<title>dir_64078e4dd55db1ba2b4e557207803e4b&#45;&gt;dir_cb2d4e92f47691559fc9d122a5e37fac</title>
<path fill="none" stroke="black" d="M429.42,-159.76C424.86,-156.79 419.93,-154.01 415,-152 336.63,-120.12 236.6,-110.82 183.34,-108.11"/>
<polygon fill="black" stroke="black" points="183.17,-104.6 173.02,-107.64 182.85,-111.59 183.17,-104.6"/>
<g id="a_edge2&#45;headlabel"><a xlink:href="dir_000044_000014.html" target="_top" xlink:title="76">
<text text-anchor="middle" x="186.89" y="-99.43" font-family="FreeSans" font-size="10.00">76</text>
</a>
</g>
</g>
<!-- dir_758df28fbdbb54fb46d6d3d6484a4984 -->
<g id="node4" class="node">
<title>dir_758df28fbdbb54fb46d6d3d6484a4984</title>
<g id="a_node4"><a xlink:href="dir_758df28fbdbb54fb46d6d3d6484a4984.html" target="_top" xlink:title="msg">
<polygon fill="white" stroke="red" points="291,-52 237,-52 237,-16 291,-16 291,-52"/>
<text text-anchor="middle" x="264" y="-31.5" font-family="FreeSans" font-size="10.00">msg</text>
</a>
</g>
</g>
<!-- dir_64078e4dd55db1ba2b4e557207803e4b&#45;&gt;dir_758df28fbdbb54fb46d6d3d6484a4984 -->
<g id="edge1" class="edge">
<title>dir_64078e4dd55db1ba2b4e557207803e4b&#45;&gt;dir_758df28fbdbb54fb46d6d3d6484a4984</title>
<path fill="none" stroke="black" d="M428.44,-159.87C395.03,-134.5 332.29,-86.85 294.71,-58.32"/>
<polygon fill="black" stroke="black" points="296.72,-55.45 286.64,-52.19 292.48,-61.02 296.72,-55.45"/>
<g id="a_edge1&#45;headlabel"><a xlink:href="dir_000044_000144.html" target="_top" xlink:title="1">
<text text-anchor="middle" x="301.3" y="-52.86" font-family="FreeSans" font-size="10.00">1</text>
</a>
</g>
</g>
<!-- dir_cb2d4e92f47691559fc9d122a5e37fac&#45;&gt;dir_758df28fbdbb54fb46d6d3d6484a4984 -->
<g id="edge35" class="edge">
<title>dir_cb2d4e92f47691559fc9d122a5e37fac&#45;&gt;dir_758df28fbdbb54fb46d6d3d6484a4984</title>
<path fill="none" stroke="black" d="M173.07,-88.94C189.3,-79.32 210.13,-66.96 227.76,-56.5"/>
<polygon fill="black" stroke="black" points="229.83,-59.34 236.65,-51.23 226.26,-53.32 229.83,-59.34"/>
<g id="a_edge35&#45;headlabel"><a xlink:href="dir_000014_000144.html" target="_top" xlink:title="3">
<text text-anchor="middle" x="228.19" y="-61.12" font-family="FreeSans" font-size="10.00">3</text>
</a>
</g>
</g>
<!-- dir_db8d68003073a61b7114dbc4f792cfed -->
<g id="node3" class="node">
<title>dir_db8d68003073a61b7114dbc4f792cfed</title>
<g id="a_node3"><a xlink:href="dir_db8d68003073a61b7114dbc4f792cfed.html" target="_top" xlink:title="dfio">
<polygon fill="white" stroke="red" points="110,-196 56,-196 56,-160 110,-160 110,-196"/>
<text text-anchor="middle" x="83" y="-175.5" font-family="FreeSans" font-size="10.00">dfio</text>
</a>
</g>
</g>
<!-- dir_db8d68003073a61b7114dbc4f792cfed&#45;&gt;dir_cb2d4e92f47691559fc9d122a5e37fac -->
<g id="edge38" class="edge">
<title>dir_db8d68003073a61b7114dbc4f792cfed&#45;&gt;dir_cb2d4e92f47691559fc9d122a5e37fac</title>
<path fill="none" stroke="black" d="M98.57,-159.7C106.2,-151.22 115.52,-140.86 123.88,-131.58"/>
<polygon fill="black" stroke="black" points="126.52,-133.88 130.61,-124.1 121.31,-129.2 126.52,-133.88"/>
<g id="a_edge38&#45;headlabel"><a xlink:href="dir_000024_000014.html" target="_top" xlink:title="117">
<text text-anchor="middle" x="126.22" y="-135.95" font-family="FreeSans" font-size="10.00">117</text>
</a>
</g>
</g>
<!-- dir_db8d68003073a61b7114dbc4f792cfed&#45;&gt;dir_758df28fbdbb54fb46d6d3d6484a4984 -->
<g id="edge39" class="edge">
<title>dir_db8d68003073a61b7114dbc4f792cfed&#45;&gt;dir_758df28fbdbb54fb46d6d3d6484a4984</title>
<path fill="none" stroke="black" d="M83.67,-159.96C85.36,-140.14 91.06,-107.65 110,-88 140.85,-55.99 191.9,-43.31 226.7,-38.29"/>
<polygon fill="black" stroke="black" points="227.47,-41.71 236.93,-36.96 226.57,-34.77 227.47,-41.71"/>
<g id="a_edge39&#45;headlabel"><a xlink:href="dir_000024_000144.html" target="_top" xlink:title="1">
<text text-anchor="middle" x="224.27" y="-42.49" font-family="FreeSans" font-size="10.00">1</text>
</a>
</g>
</g>
<!-- dir_637a76a7abf5a01e5c2aa724f3c1e96e -->
<g id="node5" class="node">
<title>dir_637a76a7abf5a01e5c2aa724f3c1e96e</title>
<g id="a_node5"><a xlink:href="dir_637a76a7abf5a01e5c2aa724f3c1e96e.html" target="_top" xlink:title="afio">
<polygon fill="white" stroke="red" points="406,-196 352,-196 352,-160 406,-160 406,-196"/>
<text text-anchor="middle" x="379" y="-175.5" font-family="FreeSans" font-size="10.00">afio</text>
</a>
</g>
</g>
<!-- dir_637a76a7abf5a01e5c2aa724f3c1e96e&#45;&gt;dir_cb2d4e92f47691559fc9d122a5e37fac -->
<g id="edge36" class="edge">
<title>dir_637a76a7abf5a01e5c2aa724f3c1e96e&#45;&gt;dir_cb2d4e92f47691559fc9d122a5e37fac</title>
<path fill="none" stroke="black" d="M360.59,-159.91C356.65,-156.92 352.36,-154.1 348,-152 294.14,-126.05 224.95,-114.82 183.12,-110.14"/>
<polygon fill="black" stroke="black" points="183.41,-106.65 173.1,-109.09 182.68,-113.62 183.41,-106.65"/>
<g id="a_edge36&#45;headlabel"><a xlink:href="dir_000022_000014.html" target="_top" xlink:title="17">
<text text-anchor="middle" x="187.28" y="-101.71" font-family="FreeSans" font-size="10.00">17</text>
</a>
</g>
</g>
<!-- dir_637a76a7abf5a01e5c2aa724f3c1e96e&#45;&gt;dir_758df28fbdbb54fb46d6d3d6484a4984 -->
<g id="edge37" class="edge">
<title>dir_637a76a7abf5a01e5c2aa724f3c1e96e&#45;&gt;dir_758df28fbdbb54fb46d6d3d6484a4984</title>
<path fill="none" stroke="black" d="M365.13,-159.87C345.01,-135.03 307.61,-88.85 284.36,-60.14"/>
<polygon fill="black" stroke="black" points="286.93,-57.76 277.92,-52.19 281.49,-62.16 286.93,-57.76"/>
<g id="a_edge37&#45;headlabel"><a xlink:href="dir_000022_000144.html" target="_top" xlink:title="1">
<text text-anchor="middle" x="291.4" y="-56.26" font-family="FreeSans" font-size="10.00">1</text>
</a>
</g>
</g>
<!-- dir_9ef7e4ca5af767b4d78801a8e1d37f3e -->
<g id="node6" class="node">
<title>dir_9ef7e4ca5af767b4d78801a8e1d37f3e</title>
<text text-anchor="middle" x="305" y="-391.5" font-family="FreeSans" font-size="10.00">fourfit_libs</text>
</g>
<!-- dir_f79eaa419c9665ed0522066c5c6851c4 -->
<g id="node7" class="node">
<title>dir_f79eaa419c9665ed0522066c5c6851c4</title>
<g id="a_node7"><a xlink:href="dir_f79eaa419c9665ed0522066c5c6851c4.html" target="_top" xlink:title="ffcontrol">
<polygon fill="white" stroke="red" points="262,-196 208,-196 208,-160 262,-160 262,-196"/>
<text text-anchor="middle" x="235" y="-175.5" font-family="FreeSans" font-size="10.00">ffcontrol</text>
</a>
</g>
</g>
<!-- dir_f79eaa419c9665ed0522066c5c6851c4&#45;&gt;dir_cb2d4e92f47691559fc9d122a5e37fac -->
<g id="edge10" class="edge">
<title>dir_f79eaa419c9665ed0522066c5c6851c4&#45;&gt;dir_cb2d4e92f47691559fc9d122a5e37fac</title>
<path fill="none" stroke="black" d="M213.7,-159.73C210.46,-157.13 207.15,-154.49 204,-152 195.05,-144.92 185.26,-137.28 176.31,-130.35"/>
<polygon fill="black" stroke="black" points="178.44,-127.56 168.39,-124.21 174.15,-133.1 178.44,-127.56"/>
<g id="a_edge10&#45;headlabel"><a xlink:href="dir_000054_000014.html" target="_top" xlink:title="9">
<text text-anchor="middle" x="183.02" y="-125.02" font-family="FreeSans" font-size="10.00">9</text>
</a>
</g>
</g>
<!-- dir_f79eaa419c9665ed0522066c5c6851c4&#45;&gt;dir_758df28fbdbb54fb46d6d3d6484a4984 -->
<g id="edge11" class="edge">
<title>dir_f79eaa419c9665ed0522066c5c6851c4&#45;&gt;dir_758df28fbdbb54fb46d6d3d6484a4984</title>
<path fill="none" stroke="black" d="M238.5,-159.87C243.46,-135.56 252.6,-90.82 258.48,-62.01"/>
<polygon fill="black" stroke="black" points="261.92,-62.69 260.49,-52.19 255.06,-61.29 261.92,-62.69"/>
<g id="a_edge11&#45;headlabel"><a xlink:href="dir_000054_000144.html" target="_top" xlink:title="8">
<text text-anchor="middle" x="263.98" y="-64.28" font-family="FreeSans" font-size="10.00">8</text>
</a>
</g>
</g>
<!-- dir_0908837483934fe24781ea7898fec311 -->
<g id="node8" class="node">
<title>dir_0908837483934fe24781ea7898fec311</title>
<g id="a_node8"><a xlink:href="dir_0908837483934fe24781ea7898fec311.html" target="_top" xlink:title="ffcore">
<polygon fill="white" stroke="red" points="270,-268 216,-268 216,-232 270,-232 270,-268"/>
<text text-anchor="middle" x="243" y="-247.5" font-family="FreeSans" font-size="10.00">ffcore</text>
</a>
</g>
</g>
<!-- dir_0908837483934fe24781ea7898fec311&#45;&gt;dir_64078e4dd55db1ba2b4e557207803e4b -->
<g id="edge32" class="edge">
<title>dir_0908837483934fe24781ea7898fec311&#45;&gt;dir_64078e4dd55db1ba2b4e557207803e4b</title>
<path fill="none" stroke="black" d="M270.2,-233.6C271.47,-233.03 272.74,-232.5 274,-232 331.34,-209.38 352.19,-217.08 414.25,-195.89"/>
<polygon fill="black" stroke="black" points="415.45,-199.18 423.71,-192.55 413.12,-192.58 415.45,-199.18"/>
<g id="a_edge32&#45;headlabel"><a xlink:href="dir_000047_000044.html" target="_top" xlink:title="7">
<text text-anchor="middle" x="413" y="-200.55" font-family="FreeSans" font-size="10.00">7</text>
</a>
</g>
</g>
<!-- dir_0908837483934fe24781ea7898fec311&#45;&gt;dir_cb2d4e92f47691559fc9d122a5e37fac -->
<g id="edge28" class="edge">
<title>dir_0908837483934fe24781ea7898fec311&#45;&gt;dir_cb2d4e92f47691559fc9d122a5e37fac</title>
<path fill="none" stroke="black" d="M219.46,-231.87C207.64,-222.34 193.78,-209.66 184,-196 170.39,-176.98 160.34,-152.33 154.01,-133.79"/>
<polygon fill="black" stroke="black" points="157.31,-132.62 150.87,-124.2 150.65,-134.79 157.31,-132.62"/>
<g id="a_edge28&#45;headlabel"><a xlink:href="dir_000047_000014.html" target="_top" xlink:title="19">
<text text-anchor="middle" x="161.12" y="-132.65" font-family="FreeSans" font-size="10.00">19</text>
</a>
</g>
</g>
<!-- dir_0908837483934fe24781ea7898fec311&#45;&gt;dir_db8d68003073a61b7114dbc4f792cfed -->
<g id="edge30" class="edge">
<title>dir_0908837483934fe24781ea7898fec311&#45;&gt;dir_db8d68003073a61b7114dbc4f792cfed</title>
<path fill="none" stroke="black" d="M215.7,-233.81C214.46,-233.19 213.22,-232.58 212,-232 181.39,-217.38 145.65,-202.88 119.56,-192.76"/>
<polygon fill="black" stroke="black" points="120.65,-189.43 110.06,-189.1 118.14,-195.96 120.65,-189.43"/>
<g id="a_edge30&#45;headlabel"><a xlink:href="dir_000047_000024.html" target="_top" xlink:title="20">
<text text-anchor="middle" x="125.03" y="-185.57" font-family="FreeSans" font-size="10.00">20</text>
</a>
</g>
</g>
<!-- dir_0908837483934fe24781ea7898fec311&#45;&gt;dir_758df28fbdbb54fb46d6d3d6484a4984 -->
<g id="edge31" class="edge">
<title>dir_0908837483934fe24781ea7898fec311&#45;&gt;dir_758df28fbdbb54fb46d6d3d6484a4984</title>
<path fill="none" stroke="black" d="M223.53,-231.92C214.18,-222.4 203.95,-209.72 199,-196 192.36,-177.61 194.09,-170.93 199,-152 207.85,-117.84 229.07,-83.04 244.87,-60.38"/>
<polygon fill="black" stroke="black" points="247.87,-62.2 250.84,-52.03 242.18,-58.13 247.87,-62.2"/>
<g id="a_edge31&#45;headlabel"><a xlink:href="dir_000047_000144.html" target="_top" xlink:title="18">
<text text-anchor="middle" x="248.1" y="-64.28" font-family="FreeSans" font-size="10.00">18</text>
</a>
</g>
</g>
<!-- dir_0908837483934fe24781ea7898fec311&#45;&gt;dir_637a76a7abf5a01e5c2aa724f3c1e96e -->
<g id="edge34" class="edge">
<title>dir_0908837483934fe24781ea7898fec311&#45;&gt;dir_637a76a7abf5a01e5c2aa724f3c1e96e</title>
<path fill="none" stroke="black" d="M270.01,-234.09C271.36,-233.38 272.69,-232.68 274,-232 303.57,-216.71 313.7,-213.35 342.79,-198.63"/>
<polygon fill="black" stroke="black" points="344.68,-201.59 351.99,-193.91 341.49,-195.36 344.68,-201.59"/>
<g id="a_edge34&#45;headlabel"><a xlink:href="dir_000047_000022.html" target="_top" xlink:title="2">
<text text-anchor="middle" x="342.78" y="-203.25" font-family="FreeSans" font-size="10.00">2</text>
</a>
</g>
</g>
<!-- dir_0908837483934fe24781ea7898fec311&#45;&gt;dir_f79eaa419c9665ed0522066c5c6851c4 -->
<g id="edge29" class="edge">
<title>dir_0908837483934fe24781ea7898fec311&#45;&gt;dir_f79eaa419c9665ed0522066c5c6851c4</title>
<path fill="none" stroke="black" d="M241.02,-231.7C240.14,-223.98 239.08,-214.71 238.1,-206.11"/>
<polygon fill="black" stroke="black" points="241.57,-205.64 236.95,-196.1 234.61,-206.44 241.57,-205.64"/>
<g id="a_edge29&#45;headlabel"><a xlink:href="dir_000047_000054.html" target="_top" xlink:title="13">
<text text-anchor="middle" x="244.8" y="-206.39" font-family="FreeSans" font-size="10.00">13</text>
</a>
</g>
</g>
<!-- dir_85c02f264b7a99962a0503cb6605bebc -->
<g id="node10" class="node">
<title>dir_85c02f264b7a99962a0503cb6605bebc</title>
<g id="a_node10"><a xlink:href="dir_85c02f264b7a99962a0503cb6605bebc.html" target="_top" xlink:title="ffmath">
<polygon fill="white" stroke="red" points="334,-196 280,-196 280,-160 334,-160 334,-196"/>
<text text-anchor="middle" x="307" y="-175.5" font-family="FreeSans" font-size="10.00">ffmath</text>
</a>
</g>
</g>
<!-- dir_0908837483934fe24781ea7898fec311&#45;&gt;dir_85c02f264b7a99962a0503cb6605bebc -->
<g id="edge33" class="edge">
<title>dir_0908837483934fe24781ea7898fec311&#45;&gt;dir_85c02f264b7a99962a0503cb6605bebc</title>
<path fill="none" stroke="black" d="M258.82,-231.7C266.57,-223.22 276.04,-212.86 284.52,-203.58"/>
<polygon fill="black" stroke="black" points="287.2,-205.85 291.36,-196.1 282.03,-201.12 287.2,-205.85"/>
<g id="a_edge33&#45;headlabel"><a xlink:href="dir_000047_000037.html" target="_top" xlink:title="2">
<text text-anchor="middle" x="286.87" y="-207.92" font-family="FreeSans" font-size="10.00">2</text>
</a>
</g>
</g>
<!-- dir_278308b947a9d3d19de751244af66d4b -->
<g id="node9" class="node">
<title>dir_278308b947a9d3d19de751244af66d4b</title>
<g id="a_node9"><a xlink:href="dir_278308b947a9d3d19de751244af66d4b.html" target="_top" xlink:title="ffio">
<polygon fill="white" stroke="red" points="316,-340 262,-340 262,-304 316,-304 316,-340"/>
<text text-anchor="middle" x="289" y="-319.5" font-family="FreeSans" font-size="10.00">ffio</text>
</a>
</g>
</g>
<!-- dir_278308b947a9d3d19de751244af66d4b&#45;&gt;dir_64078e4dd55db1ba2b4e557207803e4b -->
<g id="edge13" class="edge">
<title>dir_278308b947a9d3d19de751244af66d4b&#45;&gt;dir_64078e4dd55db1ba2b4e557207803e4b</title>
<path fill="none" stroke="black" d="M316.04,-304.69C331.55,-294.84 351.05,-281.59 367,-268 390.25,-248.2 413.87,-222.58 430.12,-203.91"/>
<polygon fill="black" stroke="black" points="432.95,-205.99 436.82,-196.12 427.64,-201.42 432.95,-205.99"/>
<g id="a_edge13&#45;headlabel"><a xlink:href="dir_000071_000044.html" target="_top" xlink:title="9">
<text text-anchor="middle" x="432.76" y="-208.06" font-family="FreeSans" font-size="10.00">9</text>
</a>
</g>
</g>
<!-- dir_278308b947a9d3d19de751244af66d4b&#45;&gt;dir_cb2d4e92f47691559fc9d122a5e37fac -->
<g id="edge16" class="edge">
<title>dir_278308b947a9d3d19de751244af66d4b&#45;&gt;dir_cb2d4e92f47691559fc9d122a5e37fac</title>
<path fill="none" stroke="black" d="M261.95,-307.17C244.96,-297.65 223.25,-283.87 207,-268 179.31,-240.96 171.85,-232.15 158,-196 150.44,-176.25 147.52,-152.45 146.45,-134.43"/>
<polygon fill="black" stroke="black" points="149.94,-134.14 146,-124.31 142.95,-134.45 149.94,-134.14"/>
<g id="a_edge16&#45;headlabel"><a xlink:href="dir_000071_000014.html" target="_top" xlink:title="5">
<text text-anchor="middle" x="152.93" y="-135.11" font-family="FreeSans" font-size="10.00">5</text>
</a>
</g>
</g>
<!-- dir_278308b947a9d3d19de751244af66d4b&#45;&gt;dir_db8d68003073a61b7114dbc4f792cfed -->
<g id="edge14" class="edge">
<title>dir_278308b947a9d3d19de751244af66d4b&#45;&gt;dir_db8d68003073a61b7114dbc4f792cfed</title>
<path fill="none" stroke="black" d="M261.75,-312.04C222.48,-298.98 153.61,-275.46 144,-268 122.51,-251.32 105.77,-224.92 95.31,-205.2"/>
<polygon fill="black" stroke="black" points="98.34,-203.44 90.68,-196.12 92.11,-206.62 98.34,-203.44"/>
<g id="a_edge14&#45;headlabel"><a xlink:href="dir_000071_000024.html" target="_top" xlink:title="28">
<text text-anchor="middle" x="102.51" y="-202.86" font-family="FreeSans" font-size="10.00">28</text>
</a>
</g>
</g>
<!-- dir_278308b947a9d3d19de751244af66d4b&#45;&gt;dir_758df28fbdbb54fb46d6d3d6484a4984 -->
<g id="edge12" class="edge">
<title>dir_278308b947a9d3d19de751244af66d4b&#45;&gt;dir_758df28fbdbb54fb46d6d3d6484a4984</title>
<path fill="none" stroke="black" d="M316.03,-306.12C317.37,-305.4 318.7,-304.69 320,-304 398.06,-262.53 447.27,-274.96 487,-196 495.79,-178.53 497.12,-168.73 487,-152 446.39,-84.83 353.06,-54.33 300.93,-42.1"/>
<polygon fill="black" stroke="black" points="301.61,-38.67 291.09,-39.89 300.08,-45.5 301.61,-38.67"/>
<g id="a_edge12&#45;headlabel"><a xlink:href="dir_000071_000144.html" target="_top" xlink:title="8">
<text text-anchor="middle" x="305.74" y="-34.18" font-family="FreeSans" font-size="10.00">8</text>
</a>
</g>
</g>
<!-- dir_278308b947a9d3d19de751244af66d4b&#45;&gt;dir_0908837483934fe24781ea7898fec311 -->
<g id="edge15" class="edge">
<title>dir_278308b947a9d3d19de751244af66d4b&#45;&gt;dir_0908837483934fe24781ea7898fec311</title>
<path fill="none" stroke="black" d="M277.63,-303.7C272.28,-295.56 265.8,-285.69 259.89,-276.7"/>
<polygon fill="black" stroke="black" points="262.66,-274.54 254.24,-268.1 256.81,-278.38 262.66,-274.54"/>
<g id="a_edge15&#45;headlabel"><a xlink:href="dir_000071_000047.html" target="_top" xlink:title="22">
<text text-anchor="middle" x="267" y="-273.48" font-family="FreeSans" font-size="10.00">22</text>
</a>
</g>
</g>
<!-- dir_85c02f264b7a99962a0503cb6605bebc&#45;&gt;dir_db8d68003073a61b7114dbc4f792cfed -->
<g id="edge26" class="edge">
<title>dir_85c02f264b7a99962a0503cb6605bebc&#45;&gt;dir_db8d68003073a61b7114dbc4f792cfed</title>
<path fill="none" stroke="black" d="M289.92,-196.22C282.15,-203.2 272.38,-210.36 262,-214 213.77,-230.92 196.44,-226.95 147,-214 136.63,-211.28 126.16,-206.46 116.78,-201.22"/>
<polygon fill="black" stroke="black" points="118.55,-198.2 108.16,-196.11 114.98,-204.22 118.55,-198.2"/>
<g id="a_edge26&#45;headlabel"><a xlink:href="dir_000037_000024.html" target="_top" xlink:title="1">
<text text-anchor="middle" x="123.09" y="-195.09" font-family="FreeSans" font-size="10.00">1</text>
</a>
</g>
</g>
<!-- dir_85c02f264b7a99962a0503cb6605bebc&#45;&gt;dir_758df28fbdbb54fb46d6d3d6484a4984 -->
<g id="edge27" class="edge">
<title>dir_85c02f264b7a99962a0503cb6605bebc&#45;&gt;dir_758df28fbdbb54fb46d6d3d6484a4984</title>
<path fill="none" stroke="black" d="M301.81,-159.87C294.45,-135.56 280.9,-90.82 272.18,-62.01"/>
<polygon fill="black" stroke="black" points="275.45,-60.75 269.21,-52.19 268.75,-62.77 275.45,-60.75"/>
<g id="a_edge27&#45;headlabel"><a xlink:href="dir_000037_000144.html" target="_top" xlink:title="3">
<text text-anchor="middle" x="279.21" y="-60.86" font-family="FreeSans" font-size="10.00">3</text>
</a>
</g>
</g>
<!-- dir_de95cbaa0f0c0c60f30a64ffd12dfdd2 -->
<g id="node11" class="node">
<title>dir_de95cbaa0f0c0c60f30a64ffd12dfdd2</title>
<g id="a_node11"><a xlink:href="dir_de95cbaa0f0c0c60f30a64ffd12dfdd2.html" target="_top" xlink:title="ffplot">
<polygon fill="white" stroke="red" points="256,-412 202,-412 202,-376 256,-376 256,-412"/>
<text text-anchor="middle" x="229" y="-391.5" font-family="FreeSans" font-size="10.00">ffplot</text>
</a>
</g>
</g>
<!-- dir_de95cbaa0f0c0c60f30a64ffd12dfdd2&#45;&gt;dir_64078e4dd55db1ba2b4e557207803e4b -->
<g id="edge17" class="edge">
<title>dir_de95cbaa0f0c0c60f30a64ffd12dfdd2&#45;&gt;dir_64078e4dd55db1ba2b4e557207803e4b</title>
<path fill="none" stroke="black" d="M256.13,-380.22C285.29,-366.36 328.38,-345.47 335,-340 381.59,-301.47 418.82,-240.1 437.62,-205.32"/>
<polygon fill="black" stroke="black" points="440.84,-206.73 442.43,-196.25 434.65,-203.45 440.84,-206.73"/>
<g id="a_edge17&#45;headlabel"><a xlink:href="dir_000066_000044.html" target="_top" xlink:title="6">
<text text-anchor="middle" x="441.66" y="-208.73" font-family="FreeSans" font-size="10.00">6</text>
</a>
</g>
</g>
<!-- dir_de95cbaa0f0c0c60f30a64ffd12dfdd2&#45;&gt;dir_cb2d4e92f47691559fc9d122a5e37fac -->
<g id="edge22" class="edge">
<title>dir_de95cbaa0f0c0c60f30a64ffd12dfdd2&#45;&gt;dir_cb2d4e92f47691559fc9d122a5e37fac</title>
<path fill="none" stroke="black" d="M201.96,-387.83C174.09,-381.2 131,-367.17 104,-340 55.48,-291.18 59.28,-263.73 47,-196 43.51,-176.76 36.41,-168.44 47,-152 60.65,-130.8 87,-119.47 109.09,-113.49"/>
<polygon fill="black" stroke="black" points="109.99,-116.87 118.87,-111.1 108.33,-110.07 109.99,-116.87"/>
<g id="a_edge22&#45;headlabel"><a xlink:href="dir_000066_000014.html" target="_top" xlink:title="8">
<text text-anchor="middle" x="107.17" y="-117.98" font-family="FreeSans" font-size="10.00">8</text>
</a>
</g>
</g>
<!-- dir_de95cbaa0f0c0c60f30a64ffd12dfdd2&#45;&gt;dir_db8d68003073a61b7114dbc4f792cfed -->
<g id="edge20" class="edge">
<title>dir_de95cbaa0f0c0c60f30a64ffd12dfdd2&#45;&gt;dir_db8d68003073a61b7114dbc4f792cfed</title>
<path fill="none" stroke="black" d="M201.79,-379.64C166.56,-360.55 107.07,-321.74 85,-268 76.95,-248.4 76.95,-224.27 78.68,-206.08"/>
<polygon fill="black" stroke="black" points="82.16,-206.48 79.86,-196.14 75.21,-205.66 82.16,-206.48"/>
<g id="a_edge20&#45;headlabel"><a xlink:href="dir_000066_000024.html" target="_top" xlink:title="7">
<text text-anchor="middle" x="84.56" y="-207.88" font-family="FreeSans" font-size="10.00">7</text>
</a>
</g>
</g>
<!-- dir_de95cbaa0f0c0c60f30a64ffd12dfdd2&#45;&gt;dir_758df28fbdbb54fb46d6d3d6484a4984 -->
<g id="edge19" class="edge">
<title>dir_de95cbaa0f0c0c60f30a64ffd12dfdd2&#45;&gt;dir_758df28fbdbb54fb46d6d3d6484a4984</title>
<path fill="none" stroke="black" d="M256.04,-379.99C259.05,-378.61 262.08,-377.26 265,-376 379.8,-326.5 517,-376.02 517,-251 517,-251 517,-251 517,-177 517,-79.26 371.65,-48.11 301.29,-38.75"/>
<polygon fill="black" stroke="black" points="301.43,-35.24 291.08,-37.48 300.56,-42.19 301.43,-35.24"/>
<g id="a_edge19&#45;headlabel"><a xlink:href="dir_000066_000144.html" target="_top" xlink:title="8">
<text text-anchor="middle" x="305.35" y="-30.37" font-family="FreeSans" font-size="10.00">8</text>
</a>
</g>
</g>
<!-- dir_de95cbaa0f0c0c60f30a64ffd12dfdd2&#45;&gt;dir_f79eaa419c9665ed0522066c5c6851c4 -->
<g id="edge25" class="edge">
<title>dir_de95cbaa0f0c0c60f30a64ffd12dfdd2&#45;&gt;dir_f79eaa419c9665ed0522066c5c6851c4</title>
<path fill="none" stroke="black" d="M201.66,-379.62C186.67,-370.67 169.47,-357.35 161,-340 153.98,-325.62 157.41,-319.59 161,-304 169.8,-265.75 195.26,-227.8 213.86,-203.93"/>
<polygon fill="black" stroke="black" points="216.61,-206.09 220.12,-196.1 211.14,-201.73 216.61,-206.09"/>
<g id="a_edge25&#45;headlabel"><a xlink:href="dir_000066_000054.html" target="_top" xlink:title="1">
<text text-anchor="middle" x="216.59" y="-208.18" font-family="FreeSans" font-size="10.00">1</text>
</a>
</g>
</g>
<!-- dir_de95cbaa0f0c0c60f30a64ffd12dfdd2&#45;&gt;dir_0908837483934fe24781ea7898fec311 -->
<g id="edge18" class="edge">
<title>dir_de95cbaa0f0c0c60f30a64ffd12dfdd2&#45;&gt;dir_0908837483934fe24781ea7898fec311</title>
<path fill="none" stroke="black" d="M230.69,-375.87C233.07,-351.67 237.46,-307.21 240.3,-278.39"/>
<polygon fill="black" stroke="black" points="243.81,-278.48 241.31,-268.19 236.84,-277.8 243.81,-278.48"/>
<g id="a_edge18&#45;headlabel"><a xlink:href="dir_000066_000047.html" target="_top" xlink:title="16">
<text text-anchor="middle" x="246.28" y="-279.84" font-family="FreeSans" font-size="10.00">16</text>
</a>
</g>
</g>
<!-- dir_de95cbaa0f0c0c60f30a64ffd12dfdd2&#45;&gt;dir_278308b947a9d3d19de751244af66d4b -->
<g id="edge24" class="edge">
<title>dir_de95cbaa0f0c0c60f30a64ffd12dfdd2&#45;&gt;dir_278308b947a9d3d19de751244af66d4b</title>
<path fill="none" stroke="black" d="M243.83,-375.7C251.02,-367.3 259.8,-357.07 267.69,-347.86"/>
<polygon fill="black" stroke="black" points="270.49,-349.97 274.34,-340.1 265.17,-345.42 270.49,-349.97"/>
<g id="a_edge24&#45;headlabel"><a xlink:href="dir_000066_000071.html" target="_top" xlink:title="1">
<text text-anchor="middle" x="270.31" y="-352.05" font-family="FreeSans" font-size="10.00">1</text>
</a>
</g>
</g>
<!-- dir_de95cbaa0f0c0c60f30a64ffd12dfdd2&#45;&gt;dir_85c02f264b7a99962a0503cb6605bebc -->
<g id="edge21" class="edge">
<title>dir_de95cbaa0f0c0c60f30a64ffd12dfdd2&#45;&gt;dir_85c02f264b7a99962a0503cb6605bebc</title>
<path fill="none" stroke="black" d="M256.24,-379.74C283.22,-366.34 321.06,-346.68 325,-340 349.61,-298.29 332.97,-239.85 319.44,-206.06"/>
<polygon fill="black" stroke="black" points="322.49,-204.27 315.39,-196.41 316.03,-206.98 322.49,-204.27"/>
<g id="a_edge21&#45;headlabel"><a xlink:href="dir_000066_000037.html" target="_top" xlink:title="2">
<text text-anchor="middle" x="326.5" y="-203.99" font-family="FreeSans" font-size="10.00">2</text>
</a>
</g>
</g>
<!-- dir_86b85e15943ea3cbc40c546f382f4970 -->
<g id="node12" class="node">
<title>dir_86b85e15943ea3cbc40c546f382f4970</title>
<g id="a_node12"><a xlink:href="dir_86b85e15943ea3cbc40c546f382f4970.html" target="_top" xlink:title="ffsearch">
<polygon fill="white" stroke="red" points="224,-340 170,-340 170,-304 224,-304 224,-340"/>
<text text-anchor="middle" x="197" y="-319.5" font-family="FreeSans" font-size="10.00">ffsearch</text>
</a>
</g>
</g>
<!-- dir_de95cbaa0f0c0c60f30a64ffd12dfdd2&#45;&gt;dir_86b85e15943ea3cbc40c546f382f4970 -->
<g id="edge23" class="edge">
<title>dir_de95cbaa0f0c0c60f30a64ffd12dfdd2&#45;&gt;dir_86b85e15943ea3cbc40c546f382f4970</title>
<path fill="none" stroke="black" d="M221.09,-375.7C217.45,-367.73 213.05,-358.1 209.01,-349.26"/>
<polygon fill="black" stroke="black" points="212.16,-347.74 204.82,-340.1 205.79,-350.65 212.16,-347.74"/>
<g id="a_edge23&#45;headlabel"><a xlink:href="dir_000066_000027.html" target="_top" xlink:title="1">
<text text-anchor="middle" x="216.24" y="-347.33" font-family="FreeSans" font-size="10.00">1</text>
</a>
</g>
</g>
<!-- dir_86b85e15943ea3cbc40c546f382f4970&#45;&gt;dir_64078e4dd55db1ba2b4e557207803e4b -->
<g id="edge3" class="edge">
<title>dir_86b85e15943ea3cbc40c546f382f4970&#45;&gt;dir_64078e4dd55db1ba2b4e557207803e4b</title>
<path fill="none" stroke="black" d="M224.35,-305.98C243.57,-295.41 269.89,-280.89 293,-268 334.92,-244.62 382.94,-217.53 414.94,-199.43"/>
<polygon fill="black" stroke="black" points="416.94,-202.32 423.92,-194.35 413.49,-196.23 416.94,-202.32"/>
<g id="a_edge3&#45;headlabel"><a xlink:href="dir_000027_000044.html" target="_top" xlink:title="5">
<text text-anchor="middle" x="415.21" y="-204.06" font-family="FreeSans" font-size="10.00">5</text>
</a>
</g>
</g>
<!-- dir_86b85e15943ea3cbc40c546f382f4970&#45;&gt;dir_cb2d4e92f47691559fc9d122a5e37fac -->
<g id="edge4" class="edge">
<title>dir_86b85e15943ea3cbc40c546f382f4970&#45;&gt;dir_cb2d4e92f47691559fc9d122a5e37fac</title>
<path fill="none" stroke="black" d="M172.52,-303.77C161.6,-294.56 149.88,-282.19 144,-268 125.76,-223.96 132.71,-167.14 139.38,-134.12"/>
<polygon fill="black" stroke="black" points="142.82,-134.79 141.51,-124.28 135.97,-133.32 142.82,-134.79"/>
<g id="a_edge4&#45;headlabel"><a xlink:href="dir_000027_000014.html" target="_top" xlink:title="21">
<text text-anchor="middle" x="144.83" y="-136.41" font-family="FreeSans" font-size="10.00">21</text>
</a>
</g>
</g>
<!-- dir_86b85e15943ea3cbc40c546f382f4970&#45;&gt;dir_db8d68003073a61b7114dbc4f792cfed -->
<g id="edge7" class="edge">
<title>dir_86b85e15943ea3cbc40c546f382f4970&#45;&gt;dir_db8d68003073a61b7114dbc4f792cfed</title>
<path fill="none" stroke="black" d="M169.55,-305.7C142.53,-290.59 105.13,-269.52 104,-268 90.66,-250.17 85.64,-225.16 83.82,-206.19"/>
<polygon fill="black" stroke="black" points="87.3,-205.82 83.09,-196.09 80.32,-206.32 87.3,-205.82"/>
<g id="a_edge7&#45;headlabel"><a xlink:href="dir_000027_000024.html" target="_top" xlink:title="25">
<text text-anchor="middle" x="90.39" y="-206.7" font-family="FreeSans" font-size="10.00">25</text>
</a>
</g>
</g>
<!-- dir_86b85e15943ea3cbc40c546f382f4970&#45;&gt;dir_758df28fbdbb54fb46d6d3d6484a4984 -->
<g id="edge6" class="edge">
<title>dir_86b85e15943ea3cbc40c546f382f4970&#45;&gt;dir_758df28fbdbb54fb46d6d3d6484a4984</title>
<path fill="none" stroke="black" d="M169.7,-313.53C145.06,-305.62 109.09,-291.06 85,-268 45.81,-230.48 32.04,-204.15 47,-152 56.25,-119.76 60.33,-108.34 87,-88 128.27,-56.53 188.07,-43.67 226.49,-38.46"/>
<polygon fill="black" stroke="black" points="227.24,-41.9 236.73,-37.19 226.38,-34.95 227.24,-41.9"/>
<g id="a_edge6&#45;headlabel"><a xlink:href="dir_000027_000144.html" target="_top" xlink:title="29">
<text text-anchor="middle" x="224.03" y="-42.66" font-family="FreeSans" font-size="10.00">29</text>
</a>
</g>
</g>
<!-- dir_86b85e15943ea3cbc40c546f382f4970&#45;&gt;dir_f79eaa419c9665ed0522066c5c6851c4 -->
<g id="edge8" class="edge">
<title>dir_86b85e15943ea3cbc40c546f382f4970&#45;&gt;dir_f79eaa419c9665ed0522066c5c6851c4</title>
<path fill="none" stroke="black" d="M197.04,-303.89C197.52,-285.68 199.54,-256.22 207,-232 209.81,-222.9 214.19,-213.53 218.65,-205.24"/>
<polygon fill="black" stroke="black" points="221.77,-206.85 223.66,-196.43 215.68,-203.4 221.77,-206.85"/>
<g id="a_edge8&#45;headlabel"><a xlink:href="dir_000027_000054.html" target="_top" xlink:title="11">
<text text-anchor="middle" x="222.46" y="-208.88" font-family="FreeSans" font-size="10.00">11</text>
</a>
</g>
</g>
<!-- dir_86b85e15943ea3cbc40c546f382f4970&#45;&gt;dir_0908837483934fe24781ea7898fec311 -->
<g id="edge5" class="edge">
<title>dir_86b85e15943ea3cbc40c546f382f4970&#45;&gt;dir_0908837483934fe24781ea7898fec311</title>
<path fill="none" stroke="black" d="M208.37,-303.7C213.72,-295.56 220.2,-285.69 226.11,-276.7"/>
<polygon fill="black" stroke="black" points="229.19,-278.38 231.76,-268.1 223.34,-274.54 229.19,-278.38"/>
<g id="a_edge5&#45;headlabel"><a xlink:href="dir_000027_000047.html" target="_top" xlink:title="63">
<text text-anchor="middle" x="229.59" y="-280.45" font-family="FreeSans" font-size="10.00">63</text>
</a>
</g>
</g>
<!-- dir_86b85e15943ea3cbc40c546f382f4970&#45;&gt;dir_85c02f264b7a99962a0503cb6605bebc -->
<g id="edge9" class="edge">
<title>dir_86b85e15943ea3cbc40c546f382f4970&#45;&gt;dir_85c02f264b7a99962a0503cb6605bebc</title>
<path fill="none" stroke="black" d="M224.17,-309.46C242.11,-300.56 264.83,-286.61 279,-268 292.68,-250.03 299.77,-225.24 303.38,-206.39"/>
<polygon fill="black" stroke="black" points="306.86,-206.78 305.09,-196.33 299.96,-205.61 306.86,-206.78"/>
<g id="a_edge9&#45;headlabel"><a xlink:href="dir_000027_000037.html" target="_top" xlink:title="3">
<text text-anchor="middle" x="309.06" y="-208.3" font-family="FreeSans" font-size="10.00">3</text>
</a>
</g>
</g>
</g>
</svg>
