<?xml version="1.0" encoding="UTF-8" standalone="no"?>
<!DOCTYPE svg PUBLIC "-//W3C//DTD SVG 1.1//EN"
 "http://www.w3.org/Graphics/SVG/1.1/DTD/svg11.dtd">
<!-- Generated by graphviz version 2.43.0 (0)
 -->
<!-- Title: src Pages: 1 -->
<svg width="177pt" height="223pt"
 viewBox="0.00 0.00 177.20 223.00" xmlns="http://www.w3.org/2000/svg" xmlns:xlink="http://www.w3.org/1999/xlink">
<g id="graph0" class="graph" transform="scale(1 1) rotate(0) translate(4 219)">
<title>src</title>
<polygon fill="white" stroke="transparent" points="-4,4 -4,-219 173.2,-219 173.2,4 -4,4"/>
<g id="clust1" class="cluster">
<title>clusterdir_951752c50ea76680db3b9d1455b475f2</title>
<g id="a_clust1"><a xlink:href="dir_951752c50ea76680db3b9d1455b475f2.html" target="_top" xlink:title="aedit">
<polygon fill="#ddddee" stroke="black" points="20,-64 20,-207 90,-207 90,-64 20,-64"/>
<text text-anchor="middle" x="55" y="-195" font-family="FreeSans" font-size="10.00">aedit</text>
</a>
</g>
</g>
<!-- dir_fb738a07a661f1b5bb3ba111f0d8789d -->
<g id="node1" class="node">
<title>dir_fb738a07a661f1b5bb3ba111f0d8789d</title>
<g id="a_node1"><a xlink:href="dir_fb738a07a661f1b5bb3ba111f0d8789d.html" target="_top" xlink:title="include">
<polygon fill="none" stroke="black" points="82,-108 28,-108 28,-72 82,-72 82,-108"/>
<text text-anchor="middle" x="55" y="-87.5" font-family="FreeSans" font-size="10.00">include</text>
</a>
</g>
</g>
<!-- dir_637a76a7abf5a01e5c2aa724f3c1e96e -->
<g id="node3" class="node">
<title>dir_637a76a7abf5a01e5c2aa724f3c1e96e</title>
<g id="a_node3"><a xlink:href="dir_637a76a7abf5a01e5c2aa724f3c1e96e.html" target="_top" xlink:title="afio">
<polygon fill="white" stroke="red" points="54,-36 0,-36 0,0 54,0 54,-36"/>
<text text-anchor="middle" x="27" y="-15.5" font-family="FreeSans" font-size="10.00">afio</text>
</a>
</g>
</g>
<!-- dir_fb738a07a661f1b5bb3ba111f0d8789d&#45;&gt;dir_637a76a7abf5a01e5c2aa724f3c1e96e -->
<g id="edge1" class="edge">
<title>dir_fb738a07a661f1b5bb3ba111f0d8789d&#45;&gt;dir_637a76a7abf5a01e5c2aa724f3c1e96e</title>
<path fill="none" stroke="black" d="M48.08,-71.7C44.93,-63.81 41.12,-54.3 37.62,-45.55"/>
<polygon fill="black" stroke="black" points="40.81,-44.09 33.84,-36.1 34.31,-46.69 40.81,-44.09"/>
<g id="a_edge1&#45;headlabel"><a xlink:href="dir_000032_000022.html" target="_top" xlink:title="1">
<text text-anchor="middle" x="44.78" y="-43.87" font-family="FreeSans" font-size="10.00">1</text>
</a>
</g>
</g>
<!-- dir_db8d68003073a61b7114dbc4f792cfed -->
<g id="node5" class="node">
<title>dir_db8d68003073a61b7114dbc4f792cfed</title>
<g id="a_node5"><a xlink:href="dir_db8d68003073a61b7114dbc4f792cfed.html" target="_top" xlink:title="dfio">
<polygon fill="white" stroke="red" points="167,-36 113,-36 113,0 167,0 167,-36"/>
<text text-anchor="middle" x="140" y="-15.5" font-family="FreeSans" font-size="10.00">dfio</text>
</a>
</g>
</g>
<!-- dir_fb738a07a661f1b5bb3ba111f0d8789d&#45;&gt;dir_db8d68003073a61b7114dbc4f792cfed -->
<g id="edge2" class="edge">
<title>dir_fb738a07a661f1b5bb3ba111f0d8789d&#45;&gt;dir_db8d68003073a61b7114dbc4f792cfed</title>
<path fill="none" stroke="black" d="M76.01,-71.7C86.72,-62.88 99.89,-52.03 111.5,-42.47"/>
<polygon fill="black" stroke="black" points="113.74,-45.16 119.23,-36.1 109.29,-39.76 113.74,-45.16"/>
<g id="a_edge2&#45;headlabel"><a xlink:href="dir_000032_000024.html" target="_top" xlink:title="1">
<text text-anchor="middle" x="112.77" y="-47.14" font-family="FreeSans" font-size="10.00">1</text>
</a>
</g>
</g>
<!-- dir_1b75fd834cf94c531fa8adfe16e003e9 -->
<g id="node2" class="node">
<title>dir_1b75fd834cf94c531fa8adfe16e003e9</title>
<g id="a_node2"><a xlink:href="dir_1b75fd834cf94c531fa8adfe16e003e9.html" target="_top" xlink:title="src">
<polygon fill="#eeeeff" stroke="black" points="82,-180 28,-180 28,-144 82,-144 82,-180"/>
<text text-anchor="middle" x="55" y="-159.5" font-family="FreeSans" font-size="10.00">src</text>
</a>
</g>
</g>
<!-- dir_1b75fd834cf94c531fa8adfe16e003e9&#45;&gt;dir_fb738a07a661f1b5bb3ba111f0d8789d -->
<g id="edge6" class="edge">
<title>dir_1b75fd834cf94c531fa8adfe16e003e9&#45;&gt;dir_fb738a07a661f1b5bb3ba111f0d8789d</title>
<path fill="none" stroke="black" d="M55,-143.7C55,-135.98 55,-126.71 55,-118.11"/>
<polygon fill="black" stroke="black" points="58.5,-118.1 55,-108.1 51.5,-118.1 58.5,-118.1"/>
<g id="a_edge6&#45;headlabel"><a xlink:href="dir_000021_000032.html" target="_top" xlink:title="331">
<text text-anchor="middle" x="61.34" y="-119.2" font-family="FreeSans" font-size="10.00">331</text>
</a>
</g>
</g>
<!-- dir_1b75fd834cf94c531fa8adfe16e003e9&#45;&gt;dir_637a76a7abf5a01e5c2aa724f3c1e96e -->
<g id="edge3" class="edge">
<title>dir_1b75fd834cf94c531fa8adfe16e003e9&#45;&gt;dir_637a76a7abf5a01e5c2aa724f3c1e96e</title>
<path fill="none" stroke="black" d="M39.39,-143.77C31.63,-134.03 23.05,-121.18 19,-108 12.79,-87.8 15.45,-63.89 19.31,-45.94"/>
<polygon fill="black" stroke="black" points="22.73,-46.67 21.66,-36.13 15.92,-45.04 22.73,-46.67"/>
<g id="a_edge3&#45;headlabel"><a xlink:href="dir_000021_000022.html" target="_top" xlink:title="9">
<text text-anchor="middle" x="24.66" y="-48.33" font-family="FreeSans" font-size="10.00">9</text>
</a>
</g>
</g>
<!-- dir_64078e4dd55db1ba2b4e557207803e4b -->
<g id="node4" class="node">
<title>dir_64078e4dd55db1ba2b4e557207803e4b</title>
<g id="a_node4"><a xlink:href="dir_64078e4dd55db1ba2b4e557207803e4b.html" target="_top" xlink:title="vex">
<polygon fill="white" stroke="red" points="154,-108 100,-108 100,-72 154,-72 154,-108"/>
<text text-anchor="middle" x="127" y="-87.5" font-family="FreeSans" font-size="10.00">vex</text>
</a>
</g>
</g>
<!-- dir_1b75fd834cf94c531fa8adfe16e003e9&#45;&gt;dir_64078e4dd55db1ba2b4e557207803e4b -->
<g id="edge4" class="edge">
<title>dir_1b75fd834cf94c531fa8adfe16e003e9&#45;&gt;dir_64078e4dd55db1ba2b4e557207803e4b</title>
<path fill="none" stroke="black" d="M72.8,-143.7C81.6,-135.14 92.38,-124.66 102,-115.3"/>
<polygon fill="black" stroke="black" points="104.68,-117.58 109.41,-108.1 99.8,-112.57 104.68,-117.58"/>
<g id="a_edge4&#45;headlabel"><a xlink:href="dir_000021_000044.html" target="_top" xlink:title="4">
<text text-anchor="middle" x="104.08" y="-119.63" font-family="FreeSans" font-size="10.00">4</text>
</a>
</g>
</g>
<!-- dir_1b75fd834cf94c531fa8adfe16e003e9&#45;&gt;dir_db8d68003073a61b7114dbc4f792cfed -->
<g id="edge5" class="edge">
<title>dir_1b75fd834cf94c531fa8adfe16e003e9&#45;&gt;dir_db8d68003073a61b7114dbc4f792cfed</title>
<path fill="none" stroke="black" d="M82.2,-156.08C108.03,-149.8 145.44,-136.18 163,-108 174.91,-88.88 166.7,-63.79 156.93,-45.12"/>
<polygon fill="black" stroke="black" points="159.9,-43.26 151.93,-36.27 153.8,-46.7 159.9,-43.26"/>
<g id="a_edge5&#45;headlabel"><a xlink:href="dir_000021_000024.html" target="_top" xlink:title="8">
<text text-anchor="middle" x="164.13" y="-42.49" font-family="FreeSans" font-size="10.00">8</text>
</a>
</g>
</g>
</g>
</svg>
