<?xml version="1.0" encoding="UTF-8" standalone="no"?>
<!DOCTYPE svg PUBLIC "-//W3C//DTD SVG 1.1//EN"
 "http://www.w3.org/Graphics/SVG/1.1/DTD/svg11.dtd">
<!-- Generated by graphviz version 2.43.0 (0)
 -->
<!-- Title: ffcontrol_module Pages: 1 -->
<svg width="342pt" height="183pt"
 viewBox="0.00 0.00 342.00 183.00" xmlns="http://www.w3.org/2000/svg" xmlns:xlink="http://www.w3.org/1999/xlink">
<g id="graph0" class="graph" transform="scale(1 1) rotate(0) translate(4 179)">
<title>ffcontrol_module</title>
<polygon fill="white" stroke="transparent" points="-4,4 -4,-179 338,-179 338,4 -4,4"/>
<g id="clust1" class="cluster">
<title>clusterdir_3a5cd54c2ec608c33032a11cbff54533</title>
<g id="a_clust1"><a xlink:href="dir_3a5cd54c2ec608c33032a11cbff54533.html" target="_top" xlink:title="python_src">
<polygon fill="#ddddee" stroke="black" points="8,-8 8,-167 272,-167 272,-8 8,-8"/>
<text text-anchor="middle" x="140" y="-155" font-family="FreeSans" font-size="10.00">python_src</text>
</a>
</g>
</g>
<g id="clust2" class="cluster">
<title>clusterdir_3de3da6d4c9d65ab754731601bf39ce5</title>
<g id="a_clust2"><a xlink:href="dir_3de3da6d4c9d65ab754731601bf39ce5.html" target="_top">
<polygon fill="#eeeeff" stroke="black" points="16,-16 16,-140 264,-140 264,-16 16,-16"/>
</a>
</g>
</g>
<!-- dir_3de3da6d4c9d65ab754731601bf39ce5 -->
<g id="node1" class="node">
<title>dir_3de3da6d4c9d65ab754731601bf39ce5</title>
<text text-anchor="middle" x="212" y="-111.5" font-family="FreeSans" font-size="10.00">ffcontrol_module</text>
</g>
<!-- dir_f18ed3017aeeb5ae8030fd47930d133c -->
<g id="node2" class="node">
<title>dir_f18ed3017aeeb5ae8030fd47930d133c</title>
<g id="a_node2"><a xlink:href="dir_f18ed3017aeeb5ae8030fd47930d133c.html" target="_top" xlink:title="ffcontrol">
<polygon fill="white" stroke="black" points="150,-132 96,-132 96,-96 150,-96 150,-132"/>
<text text-anchor="middle" x="123" y="-111.5" font-family="FreeSans" font-size="10.00">ffcontrol</text>
</a>
</g>
</g>
<!-- dir_02cc3aad29f95b313e122d53772d6737 -->
<g id="node3" class="node">
<title>dir_02cc3aad29f95b313e122d53772d6737</title>
<g id="a_node3"><a xlink:href="dir_02cc3aad29f95b313e122d53772d6737.html" target="_top" xlink:title="include">
<polygon fill="white" stroke="black" points="78,-60 24,-60 24,-24 78,-24 78,-60"/>
<text text-anchor="middle" x="51" y="-39.5" font-family="FreeSans" font-size="10.00">include</text>
</a>
</g>
</g>
<!-- dir_3ad2767cd686ee93335873d1cbbf2f48 -->
<g id="node4" class="node">
<title>dir_3ad2767cd686ee93335873d1cbbf2f48</title>
<g id="a_node4"><a xlink:href="dir_3ad2767cd686ee93335873d1cbbf2f48.html" target="_top" xlink:title="src">
<polygon fill="white" stroke="black" points="78,-132 24,-132 24,-96 78,-96 78,-132"/>
<text text-anchor="middle" x="51" y="-111.5" font-family="FreeSans" font-size="10.00">src</text>
</a>
</g>
</g>
<!-- dir_3ad2767cd686ee93335873d1cbbf2f48&#45;&gt;dir_02cc3aad29f95b313e122d53772d6737 -->
<g id="edge1" class="edge">
<title>dir_3ad2767cd686ee93335873d1cbbf2f48&#45;&gt;dir_02cc3aad29f95b313e122d53772d6737</title>
<path fill="none" stroke="black" d="M51,-95.7C51,-87.98 51,-78.71 51,-70.11"/>
<polygon fill="black" stroke="black" points="54.5,-70.1 51,-60.1 47.5,-70.1 54.5,-70.1"/>
<g id="a_edge1&#45;headlabel"><a xlink:href="dir_000053_000069.html" target="_top" xlink:title="2">
<text text-anchor="middle" x="57.34" y="-71.2" font-family="FreeSans" font-size="10.00">2</text>
</a>
</g>
</g>
<!-- dir_0c6283dd7716efebfcf76fdb98d8e794 -->
<g id="node5" class="node">
<title>dir_0c6283dd7716efebfcf76fdb98d8e794</title>
<g id="a_node5"><a xlink:href="dir_0c6283dd7716efebfcf76fdb98d8e794.html" target="_top" xlink:title="c_src">
<polygon fill="white" stroke="red" points="334,-60 280,-60 280,-24 334,-24 334,-60"/>
<text text-anchor="middle" x="307" y="-39.5" font-family="FreeSans" font-size="10.00">c_src</text>
</a>
</g>
</g>
<!-- dir_3ad2767cd686ee93335873d1cbbf2f48&#45;&gt;dir_0c6283dd7716efebfcf76fdb98d8e794 -->
<g id="edge2" class="edge">
<title>dir_3ad2767cd686ee93335873d1cbbf2f48&#45;&gt;dir_0c6283dd7716efebfcf76fdb98d8e794</title>
<path fill="none" stroke="black" d="M78.23,-99.29C81.15,-98.08 84.11,-96.95 87,-96 164.89,-70.3 189.73,-84.53 268,-60 268.71,-59.78 269.43,-59.54 270.15,-59.3"/>
<polygon fill="black" stroke="black" points="271.41,-62.57 279.58,-55.82 268.99,-56 271.41,-62.57"/>
<g id="a_edge2&#45;headlabel"><a xlink:href="dir_000053_000013.html" target="_top" xlink:title="4">
<text text-anchor="middle" x="269.03" y="-63.98" font-family="FreeSans" font-size="10.00">4</text>
</a>
</g>
</g>
</g>
</svg>
