<?xml version="1.0" encoding="UTF-8" standalone="no"?>
<!DOCTYPE svg PUBLIC "-//W3C//DTD SVG 1.1//EN"
 "http://www.w3.org/Graphics/SVG/1.1/DTD/svg11.dtd">
<!-- Generated by graphviz version 2.43.0 (0)
 -->
<!-- Title: applications Pages: 1 -->
<svg width="202pt" height="367pt"
 viewBox="0.00 0.00 201.50 367.00" xmlns="http://www.w3.org/2000/svg" xmlns:xlink="http://www.w3.org/1999/xlink">
<g id="graph0" class="graph" transform="scale(1 1) rotate(0) translate(4 363)">
<title>applications</title>
<polygon fill="white" stroke="transparent" points="-4,4 -4,-363 197.5,-363 197.5,4 -4,4"/>
<g id="clust1" class="cluster">
<title>clusterdir_c308a59eafa98348538c534617a3f49b</title>
<g id="a_clust1"><a xlink:href="dir_c308a59eafa98348538c534617a3f49b.html" target="_top" xlink:title="HDF5">
<polygon fill="#ddddee" stroke="black" points="8,-208 8,-351 92,-351 92,-208 8,-208"/>
<text text-anchor="middle" x="50" y="-339" font-family="FreeSans" font-size="10.00">HDF5</text>
</a>
</g>
</g>
<!-- dir_4d6ae01ad466892f749a7b1c5b35172b -->
<g id="node1" class="node">
<title>dir_4d6ae01ad466892f749a7b1c5b35172b</title>
<g id="a_node1"><a xlink:href="dir_4d6ae01ad466892f749a7b1c5b35172b.html" target="_top" xlink:title="include">
<polygon fill="none" stroke="black" points="74,-252 20,-252 20,-216 74,-216 74,-252"/>
<text text-anchor="middle" x="47" y="-231.5" font-family="FreeSans" font-size="10.00">include</text>
</a>
</g>
</g>
<!-- dir_150f406a44a04ce55518da03ec553ece -->
<g id="node3" class="node">
<title>dir_150f406a44a04ce55518da03ec553ece</title>
<g id="a_node3"><a xlink:href="dir_150f406a44a04ce55518da03ec553ece.html" target="_top" xlink:title="Utilities">
<polygon fill="white" stroke="red" points="118,-108 64,-108 64,-72 118,-72 118,-108"/>
<text text-anchor="middle" x="91" y="-87.5" font-family="FreeSans" font-size="10.00">Utilities</text>
</a>
</g>
</g>
<!-- dir_4d6ae01ad466892f749a7b1c5b35172b&#45;&gt;dir_150f406a44a04ce55518da03ec553ece -->
<g id="edge8" class="edge">
<title>dir_4d6ae01ad466892f749a7b1c5b35172b&#45;&gt;dir_150f406a44a04ce55518da03ec553ece</title>
<path fill="none" stroke="black" d="M52.31,-215.87C59.84,-191.56 73.7,-146.82 82.63,-118.01"/>
<polygon fill="black" stroke="black" points="86.06,-118.78 85.67,-108.19 79.37,-116.71 86.06,-118.78"/>
<g id="a_edge8&#45;headlabel"><a xlink:href="dir_000111_000086.html" target="_top" xlink:title="20">
<text text-anchor="middle" x="87.71" y="-120.55" font-family="FreeSans" font-size="10.00">20</text>
</a>
</g>
</g>
<!-- dir_32348ece3c89569e6a714937ae854c89 -->
<g id="node4" class="node">
<title>dir_32348ece3c89569e6a714937ae854c89</title>
<g id="a_node4"><a xlink:href="dir_32348ece3c89569e6a714937ae854c89.html" target="_top" xlink:title="Message">
<polygon fill="white" stroke="red" points="81,-36 25,-36 25,0 81,0 81,-36"/>
<text text-anchor="middle" x="53" y="-15.5" font-family="FreeSans" font-size="10.00">Message</text>
</a>
</g>
</g>
<!-- dir_4d6ae01ad466892f749a7b1c5b35172b&#45;&gt;dir_32348ece3c89569e6a714937ae854c89 -->
<g id="edge9" class="edge">
<title>dir_4d6ae01ad466892f749a7b1c5b35172b&#45;&gt;dir_32348ece3c89569e6a714937ae854c89</title>
<path fill="none" stroke="black" d="M47.48,-215.85C48.52,-178.83 50.98,-91.18 52.23,-46.39"/>
<polygon fill="black" stroke="black" points="55.74,-46.33 52.52,-36.23 48.74,-46.13 55.74,-46.33"/>
<g id="a_edge9&#45;headlabel"><a xlink:href="dir_000111_000123.html" target="_top" xlink:title="1">
<text text-anchor="middle" x="58.47" y="-47.5" font-family="FreeSans" font-size="10.00">1</text>
</a>
</g>
</g>
<!-- dir_a06008c3e245d1092ba6894d6caedef2 -->
<g id="node5" class="node">
<title>dir_a06008c3e245d1092ba6894d6caedef2</title>
<g id="a_node5"><a xlink:href="dir_a06008c3e245d1092ba6894d6caedef2.html" target="_top" xlink:title="Containers">
<polygon fill="white" stroke="red" points="193.5,-180 130.5,-180 130.5,-144 193.5,-144 193.5,-180"/>
<text text-anchor="middle" x="162" y="-159.5" font-family="FreeSans" font-size="10.00">Containers</text>
</a>
</g>
</g>
<!-- dir_4d6ae01ad466892f749a7b1c5b35172b&#45;&gt;dir_a06008c3e245d1092ba6894d6caedef2 -->
<g id="edge10" class="edge">
<title>dir_4d6ae01ad466892f749a7b1c5b35172b&#45;&gt;dir_a06008c3e245d1092ba6894d6caedef2</title>
<path fill="none" stroke="black" d="M74.25,-216.41C89.38,-207.2 108.42,-195.61 124.89,-185.59"/>
<polygon fill="black" stroke="black" points="127.02,-188.39 133.74,-180.2 123.38,-182.41 127.02,-188.39"/>
<g id="a_edge10&#45;headlabel"><a xlink:href="dir_000111_000096.html" target="_top" xlink:title="38">
<text text-anchor="middle" x="125.42" y="-190.18" font-family="FreeSans" font-size="10.00">38</text>
</a>
</g>
</g>
<!-- dir_d557d928f5c7b43f802526f61e0bbdeb -->
<g id="node2" class="node">
<title>dir_d557d928f5c7b43f802526f61e0bbdeb</title>
<g id="a_node2"><a xlink:href="dir_d557d928f5c7b43f802526f61e0bbdeb.html" target="_top" xlink:title="applications">
<polygon fill="#eeeeff" stroke="black" points="84,-324 16,-324 16,-288 84,-288 84,-324"/>
<text text-anchor="middle" x="50" y="-303.5" font-family="FreeSans" font-size="10.00">applications</text>
</a>
</g>
</g>
<!-- dir_d557d928f5c7b43f802526f61e0bbdeb&#45;&gt;dir_4d6ae01ad466892f749a7b1c5b35172b -->
<g id="edge6" class="edge">
<title>dir_d557d928f5c7b43f802526f61e0bbdeb&#45;&gt;dir_4d6ae01ad466892f749a7b1c5b35172b</title>
<path fill="none" stroke="black" d="M49.26,-287.7C48.93,-279.98 48.53,-270.71 48.16,-262.11"/>
<polygon fill="black" stroke="black" points="51.66,-261.95 47.73,-252.1 44.66,-262.25 51.66,-261.95"/>
<g id="a_edge6&#45;headlabel"><a xlink:href="dir_000085_000111.html" target="_top" xlink:title="2">
<text text-anchor="middle" x="54.65" y="-262.92" font-family="FreeSans" font-size="10.00">2</text>
</a>
</g>
</g>
<!-- dir_d557d928f5c7b43f802526f61e0bbdeb&#45;&gt;dir_150f406a44a04ce55518da03ec553ece -->
<g id="edge4" class="edge">
<title>dir_d557d928f5c7b43f802526f61e0bbdeb&#45;&gt;dir_150f406a44a04ce55518da03ec553ece</title>
<path fill="none" stroke="black" d="M63.73,-287.96C70.86,-278.08 78.92,-265.03 83,-252 97.12,-206.89 96.09,-151.22 93.75,-118.56"/>
<polygon fill="black" stroke="black" points="97.23,-118.1 92.93,-108.42 90.25,-118.67 97.23,-118.1"/>
<g id="a_edge4&#45;headlabel"><a xlink:href="dir_000085_000086.html" target="_top" xlink:title="1">
<text text-anchor="middle" x="100.35" y="-118.95" font-family="FreeSans" font-size="10.00">1</text>
</a>
</g>
</g>
<!-- dir_d557d928f5c7b43f802526f61e0bbdeb&#45;&gt;dir_32348ece3c89569e6a714937ae854c89 -->
<g id="edge5" class="edge">
<title>dir_d557d928f5c7b43f802526f61e0bbdeb&#45;&gt;dir_32348ece3c89569e6a714937ae854c89</title>
<path fill="none" stroke="black" d="M33.11,-287.99C24.71,-278.31 15.42,-265.46 11,-252 -12.9,-179.2 20.27,-88.89 40.08,-45.16"/>
<polygon fill="black" stroke="black" points="43.26,-46.61 44.31,-36.06 36.92,-43.65 43.26,-46.61"/>
<g id="a_edge5&#45;headlabel"><a xlink:href="dir_000085_000123.html" target="_top" xlink:title="1">
<text text-anchor="middle" x="44.32" y="-48.56" font-family="FreeSans" font-size="10.00">1</text>
</a>
</g>
</g>
<!-- dir_d557d928f5c7b43f802526f61e0bbdeb&#45;&gt;dir_a06008c3e245d1092ba6894d6caedef2 -->
<g id="edge7" class="edge">
<title>dir_d557d928f5c7b43f802526f61e0bbdeb&#45;&gt;dir_a06008c3e245d1092ba6894d6caedef2</title>
<path fill="none" stroke="black" d="M76.31,-287.81C89.38,-278.36 104.74,-265.76 116,-252 131.4,-233.17 143.71,-208.35 151.7,-189.71"/>
<polygon fill="black" stroke="black" points="154.99,-190.9 155.58,-180.32 148.52,-188.22 154.99,-190.9"/>
<g id="a_edge7&#45;headlabel"><a xlink:href="dir_000085_000096.html" target="_top" xlink:title="3">
<text text-anchor="middle" x="156.24" y="-192.81" font-family="FreeSans" font-size="10.00">3</text>
</a>
</g>
</g>
<!-- dir_150f406a44a04ce55518da03ec553ece&#45;&gt;dir_32348ece3c89569e6a714937ae854c89 -->
<g id="edge3" class="edge">
<title>dir_150f406a44a04ce55518da03ec553ece&#45;&gt;dir_32348ece3c89569e6a714937ae854c89</title>
<path fill="none" stroke="black" d="M81.61,-71.7C77.24,-63.64 71.94,-53.89 67.1,-44.98"/>
<polygon fill="black" stroke="black" points="70.13,-43.22 62.29,-36.1 63.98,-46.56 70.13,-43.22"/>
<g id="a_edge3&#45;headlabel"><a xlink:href="dir_000086_000123.html" target="_top" xlink:title="13">
<text text-anchor="middle" x="74.34" y="-42.53" font-family="FreeSans" font-size="10.00">13</text>
</a>
</g>
</g>
<!-- dir_a06008c3e245d1092ba6894d6caedef2&#45;&gt;dir_150f406a44a04ce55518da03ec553ece -->
<g id="edge1" class="edge">
<title>dir_a06008c3e245d1092ba6894d6caedef2&#45;&gt;dir_150f406a44a04ce55518da03ec553ece</title>
<path fill="none" stroke="black" d="M144.45,-143.7C135.77,-135.14 125.14,-124.66 115.65,-115.3"/>
<polygon fill="black" stroke="black" points="117.93,-112.63 108.35,-108.1 113.01,-117.62 117.93,-112.63"/>
<g id="a_edge1&#45;headlabel"><a xlink:href="dir_000096_000086.html" target="_top" xlink:title="42">
<text text-anchor="middle" x="122.48" y="-110.63" font-family="FreeSans" font-size="10.00">42</text>
</a>
</g>
</g>
<!-- dir_a06008c3e245d1092ba6894d6caedef2&#45;&gt;dir_32348ece3c89569e6a714937ae854c89 -->
<g id="edge2" class="edge">
<title>dir_a06008c3e245d1092ba6894d6caedef2&#45;&gt;dir_32348ece3c89569e6a714937ae854c89</title>
<path fill="none" stroke="black" d="M158.35,-143.8C153.63,-124.71 143.94,-93.74 127,-72 116.88,-59.01 102.74,-47.82 89.53,-39.11"/>
<polygon fill="black" stroke="black" points="91.36,-36.13 81.04,-33.75 87.63,-42.05 91.36,-36.13"/>
<g id="a_edge2&#45;headlabel"><a xlink:href="dir_000096_000123.html" target="_top" xlink:title="9">
<text text-anchor="middle" x="95.92" y="-33.14" font-family="FreeSans" font-size="10.00">9</text>
</a>
</g>
</g>
</g>
</svg>
