<?xml version="1.0" encoding="UTF-8" standalone="no"?>
<!DOCTYPE svg PUBLIC "-//W3C//DTD SVG 1.1//EN"
 "http://www.w3.org/Graphics/SVG/1.1/DTD/svg11.dtd">
<!-- Generated by graphviz version 2.43.0 (0)
 -->
<!-- Title: aedit Pages: 1 -->
<svg width="282pt" height="375pt"
 viewBox="0.00 0.00 282.00 375.00" xmlns="http://www.w3.org/2000/svg" xmlns:xlink="http://www.w3.org/1999/xlink">
<g id="graph0" class="graph" transform="scale(1 1) rotate(0) translate(4 371)">
<title>aedit</title>
<polygon fill="white" stroke="transparent" points="-4,4 -4,-371 278,-371 278,4 -4,4"/>
<g id="clust1" class="cluster">
<title>clusterdir_9de42bc92121356a26b664e34e3ff194</title>
<g id="a_clust1"><a xlink:href="dir_9de42bc92121356a26b664e34e3ff194.html" target="_top" xlink:title="applications">
<polygon fill="#ddddee" stroke="black" points="60,-200 60,-359 218,-359 218,-200 60,-200"/>
<text text-anchor="middle" x="139" y="-347" font-family="FreeSans" font-size="10.00">applications</text>
</a>
</g>
</g>
<g id="clust2" class="cluster">
<title>clusterdir_951752c50ea76680db3b9d1455b475f2</title>
<g id="a_clust2"><a xlink:href="dir_951752c50ea76680db3b9d1455b475f2.html" target="_top">
<polygon fill="#eeeeff" stroke="black" points="68,-208 68,-332 210,-332 210,-208 68,-208"/>
</a>
</g>
</g>
<!-- dir_951752c50ea76680db3b9d1455b475f2 -->
<g id="node1" class="node">
<title>dir_951752c50ea76680db3b9d1455b475f2</title>
<text text-anchor="middle" x="103" y="-303.5" font-family="FreeSans" font-size="10.00">aedit</text>
</g>
<!-- dir_fb738a07a661f1b5bb3ba111f0d8789d -->
<g id="node2" class="node">
<title>dir_fb738a07a661f1b5bb3ba111f0d8789d</title>
<g id="a_node2"><a xlink:href="dir_fb738a07a661f1b5bb3ba111f0d8789d.html" target="_top" xlink:title="include">
<polygon fill="white" stroke="black" points="138,-252 84,-252 84,-216 138,-216 138,-252"/>
<text text-anchor="middle" x="111" y="-231.5" font-family="FreeSans" font-size="10.00">include</text>
</a>
</g>
</g>
<!-- dir_951752c50ea76680db3b9d1455b475f2&#45;&gt;dir_fb738a07a661f1b5bb3ba111f0d8789d -->
<g id="edge7" class="edge">
<title>dir_951752c50ea76680db3b9d1455b475f2&#45;&gt;dir_fb738a07a661f1b5bb3ba111f0d8789d</title>
<path fill="none" stroke="black" d="M104.98,-287.7C105.86,-279.98 106.92,-270.71 107.9,-262.11"/>
<polygon fill="black" stroke="black" points="111.39,-262.44 109.05,-252.1 104.43,-261.64 111.39,-262.44"/>
<g id="a_edge7&#45;headlabel"><a xlink:href="dir_000020_000032.html" target="_top" xlink:title="335">
<text text-anchor="middle" x="113.8" y="-263.83" font-family="FreeSans" font-size="10.00">335</text>
</a>
</g>
</g>
<!-- dir_637a76a7abf5a01e5c2aa724f3c1e96e -->
<g id="node4" class="node">
<title>dir_637a76a7abf5a01e5c2aa724f3c1e96e</title>
<g id="a_node4"><a xlink:href="dir_637a76a7abf5a01e5c2aa724f3c1e96e.html" target="_top" xlink:title="afio">
<polygon fill="white" stroke="red" points="54,-180 0,-180 0,-144 54,-144 54,-180"/>
<text text-anchor="middle" x="27" y="-159.5" font-family="FreeSans" font-size="10.00">afio</text>
</a>
</g>
</g>
<!-- dir_fb738a07a661f1b5bb3ba111f0d8789d&#45;&gt;dir_637a76a7abf5a01e5c2aa724f3c1e96e -->
<g id="edge3" class="edge">
<title>dir_fb738a07a661f1b5bb3ba111f0d8789d&#45;&gt;dir_637a76a7abf5a01e5c2aa724f3c1e96e</title>
<path fill="none" stroke="black" d="M90.24,-215.7C79.76,-206.97 66.89,-196.24 55.5,-186.75"/>
<polygon fill="black" stroke="black" points="57.45,-183.82 47.53,-180.1 52.97,-189.19 57.45,-183.82"/>
<g id="a_edge3&#45;headlabel"><a xlink:href="dir_000032_000022.html" target="_top" xlink:title="1">
<text text-anchor="middle" x="62.03" y="-181.44" font-family="FreeSans" font-size="10.00">1</text>
</a>
</g>
</g>
<!-- dir_cb2d4e92f47691559fc9d122a5e37fac -->
<g id="node5" class="node">
<title>dir_cb2d4e92f47691559fc9d122a5e37fac</title>
<g id="a_node5"><a xlink:href="dir_cb2d4e92f47691559fc9d122a5e37fac.html" target="_top" xlink:title="mk4util">
<polygon fill="white" stroke="red" points="164,-108 110,-108 110,-72 164,-72 164,-108"/>
<text text-anchor="middle" x="137" y="-87.5" font-family="FreeSans" font-size="10.00">mk4util</text>
</a>
</g>
</g>
<!-- dir_fb738a07a661f1b5bb3ba111f0d8789d&#45;&gt;dir_cb2d4e92f47691559fc9d122a5e37fac -->
<g id="edge5" class="edge">
<title>dir_fb738a07a661f1b5bb3ba111f0d8789d&#45;&gt;dir_cb2d4e92f47691559fc9d122a5e37fac</title>
<path fill="none" stroke="black" d="M114.14,-215.87C118.57,-191.67 126.71,-147.21 131.98,-118.39"/>
<polygon fill="black" stroke="black" points="135.49,-118.66 133.85,-108.19 128.61,-117.4 135.49,-118.66"/>
<g id="a_edge5&#45;headlabel"><a xlink:href="dir_000032_000014.html" target="_top" xlink:title="1">
<text text-anchor="middle" x="137.64" y="-120.2" font-family="FreeSans" font-size="10.00">1</text>
</a>
</g>
</g>
<!-- dir_758df28fbdbb54fb46d6d3d6484a4984 -->
<g id="node6" class="node">
<title>dir_758df28fbdbb54fb46d6d3d6484a4984</title>
<g id="a_node6"><a xlink:href="dir_758df28fbdbb54fb46d6d3d6484a4984.html" target="_top" xlink:title="msg">
<polygon fill="white" stroke="red" points="164,-36 110,-36 110,0 164,0 164,-36"/>
<text text-anchor="middle" x="137" y="-15.5" font-family="FreeSans" font-size="10.00">msg</text>
</a>
</g>
</g>
<!-- dir_fb738a07a661f1b5bb3ba111f0d8789d&#45;&gt;dir_758df28fbdbb54fb46d6d3d6484a4984 -->
<g id="edge4" class="edge">
<title>dir_fb738a07a661f1b5bb3ba111f0d8789d&#45;&gt;dir_758df28fbdbb54fb46d6d3d6484a4984</title>
<path fill="none" stroke="black" d="M105.98,-215.61C98.17,-185.56 85.52,-122.32 101,-72 104.01,-62.22 109.51,-52.62 115.32,-44.33"/>
<polygon fill="black" stroke="black" points="118.19,-46.33 121.39,-36.23 112.59,-42.13 118.19,-46.33"/>
<g id="a_edge4&#45;headlabel"><a xlink:href="dir_000032_000144.html" target="_top" xlink:title="1">
<text text-anchor="middle" x="118.31" y="-48.41" font-family="FreeSans" font-size="10.00">1</text>
</a>
</g>
</g>
<!-- dir_db8d68003073a61b7114dbc4f792cfed -->
<g id="node7" class="node">
<title>dir_db8d68003073a61b7114dbc4f792cfed</title>
<g id="a_node7"><a xlink:href="dir_db8d68003073a61b7114dbc4f792cfed.html" target="_top" xlink:title="dfio">
<polygon fill="white" stroke="red" points="202,-180 148,-180 148,-144 202,-144 202,-180"/>
<text text-anchor="middle" x="175" y="-159.5" font-family="FreeSans" font-size="10.00">dfio</text>
</a>
</g>
</g>
<!-- dir_fb738a07a661f1b5bb3ba111f0d8789d&#45;&gt;dir_db8d68003073a61b7114dbc4f792cfed -->
<g id="edge6" class="edge">
<title>dir_fb738a07a661f1b5bb3ba111f0d8789d&#45;&gt;dir_db8d68003073a61b7114dbc4f792cfed</title>
<path fill="none" stroke="black" d="M126.82,-215.7C134.57,-207.22 144.04,-196.86 152.52,-187.58"/>
<polygon fill="black" stroke="black" points="155.2,-189.85 159.36,-180.1 150.03,-185.12 155.2,-189.85"/>
<g id="a_edge6&#45;headlabel"><a xlink:href="dir_000032_000024.html" target="_top" xlink:title="1">
<text text-anchor="middle" x="154.87" y="-191.92" font-family="FreeSans" font-size="10.00">1</text>
</a>
</g>
</g>
<!-- dir_1b75fd834cf94c531fa8adfe16e003e9 -->
<g id="node3" class="node">
<title>dir_1b75fd834cf94c531fa8adfe16e003e9</title>
<g id="a_node3"><a xlink:href="dir_1b75fd834cf94c531fa8adfe16e003e9.html" target="_top" xlink:title="src">
<polygon fill="white" stroke="black" points="202,-324 148,-324 148,-288 202,-288 202,-324"/>
<text text-anchor="middle" x="175" y="-303.5" font-family="FreeSans" font-size="10.00">src</text>
</a>
</g>
</g>
<!-- dir_1b75fd834cf94c531fa8adfe16e003e9&#45;&gt;dir_fb738a07a661f1b5bb3ba111f0d8789d -->
<g id="edge11" class="edge">
<title>dir_1b75fd834cf94c531fa8adfe16e003e9&#45;&gt;dir_fb738a07a661f1b5bb3ba111f0d8789d</title>
<path fill="none" stroke="black" d="M159.18,-287.7C151.43,-279.22 141.96,-268.86 133.48,-259.58"/>
<polygon fill="black" stroke="black" points="135.97,-257.12 126.64,-252.1 130.8,-261.85 135.97,-257.12"/>
<g id="a_edge11&#45;headlabel"><a xlink:href="dir_000021_000032.html" target="_top" xlink:title="331">
<text text-anchor="middle" x="140.49" y="-255.36" font-family="FreeSans" font-size="10.00">331</text>
</a>
</g>
</g>
<!-- dir_1b75fd834cf94c531fa8adfe16e003e9&#45;&gt;dir_637a76a7abf5a01e5c2aa724f3c1e96e -->
<g id="edge8" class="edge">
<title>dir_1b75fd834cf94c531fa8adfe16e003e9&#45;&gt;dir_637a76a7abf5a01e5c2aa724f3c1e96e</title>
<path fill="none" stroke="black" d="M147.75,-291.58C120.15,-277.83 80.72,-257.68 75,-252 57.28,-234.41 44.44,-208.9 36.52,-189.69"/>
<polygon fill="black" stroke="black" points="39.74,-188.33 32.83,-180.3 33.23,-190.89 39.74,-188.33"/>
<g id="a_edge8&#45;headlabel"><a xlink:href="dir_000021_000022.html" target="_top" xlink:title="9">
<text text-anchor="middle" x="43.7" y="-188.14" font-family="FreeSans" font-size="10.00">9</text>
</a>
</g>
</g>
<!-- dir_1b75fd834cf94c531fa8adfe16e003e9&#45;&gt;dir_db8d68003073a61b7114dbc4f792cfed -->
<g id="edge10" class="edge">
<title>dir_1b75fd834cf94c531fa8adfe16e003e9&#45;&gt;dir_db8d68003073a61b7114dbc4f792cfed</title>
<path fill="none" stroke="black" d="M175,-287.87C175,-263.67 175,-219.21 175,-190.39"/>
<polygon fill="black" stroke="black" points="178.5,-190.19 175,-180.19 171.5,-190.19 178.5,-190.19"/>
<g id="a_edge10&#45;headlabel"><a xlink:href="dir_000021_000024.html" target="_top" xlink:title="8">
<text text-anchor="middle" x="181.34" y="-191.28" font-family="FreeSans" font-size="10.00">8</text>
</a>
</g>
</g>
<!-- dir_64078e4dd55db1ba2b4e557207803e4b -->
<g id="node8" class="node">
<title>dir_64078e4dd55db1ba2b4e557207803e4b</title>
<g id="a_node8"><a xlink:href="dir_64078e4dd55db1ba2b4e557207803e4b.html" target="_top" xlink:title="vex">
<polygon fill="white" stroke="red" points="274,-180 220,-180 220,-144 274,-144 274,-180"/>
<text text-anchor="middle" x="247" y="-159.5" font-family="FreeSans" font-size="10.00">vex</text>
</a>
</g>
</g>
<!-- dir_1b75fd834cf94c531fa8adfe16e003e9&#45;&gt;dir_64078e4dd55db1ba2b4e557207803e4b -->
<g id="edge9" class="edge">
<title>dir_1b75fd834cf94c531fa8adfe16e003e9&#45;&gt;dir_64078e4dd55db1ba2b4e557207803e4b</title>
<path fill="none" stroke="black" d="M183.68,-287.87C196.12,-263.35 219.1,-218.03 233.69,-189.26"/>
<polygon fill="black" stroke="black" points="236.88,-190.69 238.28,-180.19 230.64,-187.53 236.88,-190.69"/>
<g id="a_edge9&#45;headlabel"><a xlink:href="dir_000021_000044.html" target="_top" xlink:title="4">
<text text-anchor="middle" x="237.79" y="-192.68" font-family="FreeSans" font-size="10.00">4</text>
</a>
</g>
</g>
<!-- dir_637a76a7abf5a01e5c2aa724f3c1e96e&#45;&gt;dir_cb2d4e92f47691559fc9d122a5e37fac -->
<g id="edge13" class="edge">
<title>dir_637a76a7abf5a01e5c2aa724f3c1e96e&#45;&gt;dir_cb2d4e92f47691559fc9d122a5e37fac</title>
<path fill="none" stroke="black" d="M53.91,-143.88C68.16,-134.81 85.85,-123.55 101.24,-113.76"/>
<polygon fill="black" stroke="black" points="103.43,-116.51 109.99,-108.19 99.67,-110.61 103.43,-116.51"/>
<g id="a_edge13&#45;headlabel"><a xlink:href="dir_000022_000014.html" target="_top" xlink:title="17">
<text text-anchor="middle" x="101.92" y="-118.34" font-family="FreeSans" font-size="10.00">17</text>
</a>
</g>
</g>
<!-- dir_637a76a7abf5a01e5c2aa724f3c1e96e&#45;&gt;dir_758df28fbdbb54fb46d6d3d6484a4984 -->
<g id="edge14" class="edge">
<title>dir_637a76a7abf5a01e5c2aa724f3c1e96e&#45;&gt;dir_758df28fbdbb54fb46d6d3d6484a4984</title>
<path fill="none" stroke="black" d="M32.11,-143.92C38.37,-124.94 50.38,-94.07 68,-72 77.33,-60.32 89.76,-49.74 101.5,-41.17"/>
<polygon fill="black" stroke="black" points="103.69,-43.91 109.87,-35.29 99.67,-38.18 103.69,-43.91"/>
<g id="a_edge14&#45;headlabel"><a xlink:href="dir_000022_000144.html" target="_top" xlink:title="1">
<text text-anchor="middle" x="102.38" y="-45.79" font-family="FreeSans" font-size="10.00">1</text>
</a>
</g>
</g>
<!-- dir_cb2d4e92f47691559fc9d122a5e37fac&#45;&gt;dir_758df28fbdbb54fb46d6d3d6484a4984 -->
<g id="edge12" class="edge">
<title>dir_cb2d4e92f47691559fc9d122a5e37fac&#45;&gt;dir_758df28fbdbb54fb46d6d3d6484a4984</title>
<path fill="none" stroke="black" d="M137,-71.7C137,-63.98 137,-54.71 137,-46.11"/>
<polygon fill="black" stroke="black" points="140.5,-46.1 137,-36.1 133.5,-46.1 140.5,-46.1"/>
<g id="a_edge12&#45;headlabel"><a xlink:href="dir_000014_000144.html" target="_top" xlink:title="3">
<text text-anchor="middle" x="143.34" y="-47.2" font-family="FreeSans" font-size="10.00">3</text>
</a>
</g>
</g>
<!-- dir_db8d68003073a61b7114dbc4f792cfed&#45;&gt;dir_cb2d4e92f47691559fc9d122a5e37fac -->
<g id="edge15" class="edge">
<title>dir_db8d68003073a61b7114dbc4f792cfed&#45;&gt;dir_cb2d4e92f47691559fc9d122a5e37fac</title>
<path fill="none" stroke="black" d="M165.61,-143.7C161.24,-135.64 155.94,-125.89 151.1,-116.98"/>
<polygon fill="black" stroke="black" points="154.13,-115.22 146.29,-108.1 147.98,-118.56 154.13,-115.22"/>
<g id="a_edge15&#45;headlabel"><a xlink:href="dir_000024_000014.html" target="_top" xlink:title="117">
<text text-anchor="middle" x="158.34" y="-114.53" font-family="FreeSans" font-size="10.00">117</text>
</a>
</g>
</g>
<!-- dir_db8d68003073a61b7114dbc4f792cfed&#45;&gt;dir_758df28fbdbb54fb46d6d3d6484a4984 -->
<g id="edge16" class="edge">
<title>dir_db8d68003073a61b7114dbc4f792cfed&#45;&gt;dir_758df28fbdbb54fb46d6d3d6484a4984</title>
<path fill="none" stroke="black" d="M177.44,-143.8C179.39,-125.52 180.67,-95.99 173,-72 169.88,-62.25 164.35,-52.66 158.55,-44.38"/>
<polygon fill="black" stroke="black" points="161.28,-42.18 152.49,-36.26 155.67,-46.37 161.28,-42.18"/>
<g id="a_edge16&#45;headlabel"><a xlink:href="dir_000024_000144.html" target="_top" xlink:title="1">
<text text-anchor="middle" x="165.7" y="-40.86" font-family="FreeSans" font-size="10.00">1</text>
</a>
</g>
</g>
<!-- dir_64078e4dd55db1ba2b4e557207803e4b&#45;&gt;dir_cb2d4e92f47691559fc9d122a5e37fac -->
<g id="edge2" class="edge">
<title>dir_64078e4dd55db1ba2b4e557207803e4b&#45;&gt;dir_cb2d4e92f47691559fc9d122a5e37fac</title>
<path fill="none" stroke="black" d="M220.09,-143.88C205.84,-134.81 188.15,-123.55 172.76,-113.76"/>
<polygon fill="black" stroke="black" points="174.33,-110.61 164.01,-108.19 170.57,-116.51 174.33,-110.61"/>
<g id="a_edge2&#45;headlabel"><a xlink:href="dir_000044_000014.html" target="_top" xlink:title="76">
<text text-anchor="middle" x="178.89" y="-107.64" font-family="FreeSans" font-size="10.00">76</text>
</a>
</g>
</g>
<!-- dir_64078e4dd55db1ba2b4e557207803e4b&#45;&gt;dir_758df28fbdbb54fb46d6d3d6484a4984 -->
<g id="edge1" class="edge">
<title>dir_64078e4dd55db1ba2b4e557207803e4b&#45;&gt;dir_758df28fbdbb54fb46d6d3d6484a4984</title>
<path fill="none" stroke="black" d="M237.25,-143.91C226.42,-125.47 207.94,-95.58 189,-72 181.13,-62.21 171.72,-52.19 163.08,-43.54"/>
<polygon fill="black" stroke="black" points="165.33,-40.84 155.74,-36.32 160.42,-45.83 165.33,-40.84"/>
<g id="a_edge1&#45;headlabel"><a xlink:href="dir_000044_000144.html" target="_top" xlink:title="1">
<text text-anchor="middle" x="169.88" y="-38.83" font-family="FreeSans" font-size="10.00">1</text>
</a>
</g>
</g>
</g>
</svg>
