<?xml version="1.0" encoding="UTF-8" standalone="no"?>
<!DOCTYPE svg PUBLIC "-//W3C//DTD SVG 1.1//EN"
 "http://www.w3.org/Graphics/SVG/1.1/DTD/svg11.dtd">
<!-- Generated by graphviz version 2.43.0 (0)
 -->
<!-- Title: Applications Pages: 1 -->
<svg width="482pt" height="671pt"
 viewBox="0.00 0.00 482.00 671.00" xmlns="http://www.w3.org/2000/svg" xmlns:xlink="http://www.w3.org/1999/xlink">
<g id="graph0" class="graph" transform="scale(1 1) rotate(0) translate(4 667)">
<title>Applications</title>
<polygon fill="white" stroke="transparent" points="-4,4 -4,-667 478,-667 478,4 -4,4"/>
<g id="clust1" class="cluster">
<title>clusterdir_730935399589b544a579302a37a46c03</title>
<g id="a_clust1"><a xlink:href="dir_730935399589b544a579302a37a46c03.html" target="_top" xlink:title="cpp_src">
<polygon fill="#ddddee" stroke="black" points="8,-8 8,-655 466,-655 466,-8 8,-8"/>
<text text-anchor="middle" x="237" y="-643" font-family="FreeSans" font-size="10.00">cpp_src</text>
</a>
</g>
</g>
<!-- dir_0c8523deb6301657d04bd2a03358f9f8 -->
<g id="node1" class="node">
<title>dir_0c8523deb6301657d04bd2a03358f9f8</title>
<g id="a_node1"><a xlink:href="dir_0c8523deb6301657d04bd2a03358f9f8.html" target="_top" xlink:title="MK4Interface">
<polygon fill="white" stroke="red" points="158.5,-556 83.5,-556 83.5,-520 158.5,-520 158.5,-556"/>
<text text-anchor="middle" x="121" y="-535.5" font-family="FreeSans" font-size="10.00">MK4Interface</text>
</a>
</g>
</g>
<!-- dir_150f406a44a04ce55518da03ec553ece -->
<g id="node2" class="node">
<title>dir_150f406a44a04ce55518da03ec553ece</title>
<g id="a_node2"><a xlink:href="dir_150f406a44a04ce55518da03ec553ece.html" target="_top" xlink:title="Utilities">
<polygon fill="white" stroke="red" points="272,-196 218,-196 218,-160 272,-160 272,-196"/>
<text text-anchor="middle" x="245" y="-175.5" font-family="FreeSans" font-size="10.00">Utilities</text>
</a>
</g>
</g>
<!-- dir_0c8523deb6301657d04bd2a03358f9f8&#45;&gt;dir_150f406a44a04ce55518da03ec553ece -->
<g id="edge37" class="edge">
<title>dir_0c8523deb6301657d04bd2a03358f9f8&#45;&gt;dir_150f406a44a04ce55518da03ec553ece</title>
<path fill="none" stroke="black" d="M117.67,-519.82C110.77,-480.12 97.95,-379.59 128,-304 144.94,-261.39 183.95,-224.74 212.28,-202.34"/>
<polygon fill="black" stroke="black" points="214.55,-205.01 220.33,-196.13 210.27,-199.47 214.55,-205.01"/>
<g id="a_edge37&#45;headlabel"><a xlink:href="dir_000126_000086.html" target="_top" xlink:title="18">
<text text-anchor="middle" x="213.44" y="-206.96" font-family="FreeSans" font-size="10.00">18</text>
</a>
</g>
</g>
<!-- dir_32348ece3c89569e6a714937ae854c89 -->
<g id="node3" class="node">
<title>dir_32348ece3c89569e6a714937ae854c89</title>
<g id="a_node3"><a xlink:href="dir_32348ece3c89569e6a714937ae854c89.html" target="_top" xlink:title="Message">
<polygon fill="white" stroke="red" points="273,-52 217,-52 217,-16 273,-16 273,-52"/>
<text text-anchor="middle" x="245" y="-31.5" font-family="FreeSans" font-size="10.00">Message</text>
</a>
</g>
</g>
<!-- dir_0c8523deb6301657d04bd2a03358f9f8&#45;&gt;dir_32348ece3c89569e6a714937ae854c89 -->
<g id="edge38" class="edge">
<title>dir_0c8523deb6301657d04bd2a03358f9f8&#45;&gt;dir_32348ece3c89569e6a714937ae854c89</title>
<path fill="none" stroke="black" d="M110.09,-519.58C104.44,-509.57 98.09,-496.54 95,-484 75.83,-406.32 82.4,-383.43 92,-304 103.86,-205.87 84.24,-165.97 145,-88 160.61,-67.98 185.93,-54.66 207.19,-46.39"/>
<polygon fill="black" stroke="black" points="208.44,-49.66 216.63,-42.93 206.03,-43.09 208.44,-49.66"/>
<g id="a_edge38&#45;headlabel"><a xlink:href="dir_000126_000123.html" target="_top" xlink:title="7">
<text text-anchor="middle" x="206.04" y="-51.06" font-family="FreeSans" font-size="10.00">7</text>
</a>
</g>
</g>
<!-- dir_4546011bd625f1142c4c4ae06dcdb5ba -->
<g id="node4" class="node">
<title>dir_4546011bd625f1142c4c4ae06dcdb5ba</title>
<g id="a_node4"><a xlink:href="dir_4546011bd625f1142c4c4ae06dcdb5ba.html" target="_top" xlink:title="Operators">
<polygon fill="white" stroke="red" points="195.5,-340 136.5,-340 136.5,-304 195.5,-304 195.5,-340"/>
<text text-anchor="middle" x="166" y="-319.5" font-family="FreeSans" font-size="10.00">Operators</text>
</a>
</g>
</g>
<!-- dir_0c8523deb6301657d04bd2a03358f9f8&#45;&gt;dir_4546011bd625f1142c4c4ae06dcdb5ba -->
<g id="edge39" class="edge">
<title>dir_0c8523deb6301657d04bd2a03358f9f8&#45;&gt;dir_4546011bd625f1142c4c4ae06dcdb5ba</title>
<path fill="none" stroke="black" d="M123.88,-520C128.96,-490.55 140.1,-428.17 152,-376 153.93,-367.52 156.27,-358.34 158.48,-350.04"/>
<polygon fill="black" stroke="black" points="161.93,-350.68 161.16,-340.11 155.17,-348.85 161.93,-350.68"/>
<g id="a_edge39&#45;headlabel"><a xlink:href="dir_000126_000089.html" target="_top" xlink:title="1">
<text text-anchor="middle" x="163.73" y="-352.39" font-family="FreeSans" font-size="10.00">1</text>
</a>
</g>
</g>
<!-- dir_91ae3e556fa9cad9030b784323206cc7 -->
<g id="node5" class="node">
<title>dir_91ae3e556fa9cad9030b784323206cc7</title>
<g id="a_node5"><a xlink:href="dir_91ae3e556fa9cad9030b784323206cc7.html" target="_top" xlink:title="Calibration">
<polygon fill="white" stroke="red" points="298,-412 236,-412 236,-376 298,-376 298,-412"/>
<text text-anchor="middle" x="267" y="-391.5" font-family="FreeSans" font-size="10.00">Calibration</text>
</a>
</g>
</g>
<!-- dir_0c8523deb6301657d04bd2a03358f9f8&#45;&gt;dir_91ae3e556fa9cad9030b784323206cc7 -->
<g id="edge40" class="edge">
<title>dir_0c8523deb6301657d04bd2a03358f9f8&#45;&gt;dir_91ae3e556fa9cad9030b784323206cc7</title>
<path fill="none" stroke="black" d="M138.61,-519.87C164.37,-494.82 212.45,-448.05 241.91,-419.41"/>
<polygon fill="black" stroke="black" points="244.6,-421.67 249.33,-412.19 239.72,-416.65 244.6,-421.67"/>
<g id="a_edge40&#45;headlabel"><a xlink:href="dir_000126_000102.html" target="_top" xlink:title="3">
<text text-anchor="middle" x="244" y="-423.71" font-family="FreeSans" font-size="10.00">3</text>
</a>
</g>
</g>
<!-- dir_a06008c3e245d1092ba6894d6caedef2 -->
<g id="node6" class="node">
<title>dir_a06008c3e245d1092ba6894d6caedef2</title>
<g id="a_node6"><a xlink:href="dir_a06008c3e245d1092ba6894d6caedef2.html" target="_top" xlink:title="Containers">
<polygon fill="white" stroke="red" points="357.5,-268 294.5,-268 294.5,-232 357.5,-232 357.5,-268"/>
<text text-anchor="middle" x="326" y="-247.5" font-family="FreeSans" font-size="10.00">Containers</text>
</a>
</g>
</g>
<!-- dir_0c8523deb6301657d04bd2a03358f9f8&#45;&gt;dir_a06008c3e245d1092ba6894d6caedef2 -->
<g id="edge41" class="edge">
<title>dir_0c8523deb6301657d04bd2a03358f9f8&#45;&gt;dir_a06008c3e245d1092ba6894d6caedef2</title>
<path fill="none" stroke="black" d="M129.94,-519.87C139.65,-501.65 155.94,-472.18 172,-448 215.1,-383.12 273.44,-312.41 304.48,-275.92"/>
<polygon fill="black" stroke="black" points="307.2,-278.12 311.03,-268.24 301.88,-273.57 307.2,-278.12"/>
<g id="a_edge41&#45;headlabel"><a xlink:href="dir_000126_000096.html" target="_top" xlink:title="11">
<text text-anchor="middle" x="307.02" y="-280.19" font-family="FreeSans" font-size="10.00">11</text>
</a>
</g>
</g>
<!-- dir_ff42852cc454de79d2ecb9482f4de9d8 -->
<g id="node9" class="node">
<title>dir_ff42852cc454de79d2ecb9482f4de9d8</title>
<g id="a_node9"><a xlink:href="dir_ff42852cc454de79d2ecb9482f4de9d8.html" target="_top" xlink:title="Math">
<polygon fill="white" stroke="red" points="226,-124 172,-124 172,-88 226,-88 226,-124"/>
<text text-anchor="middle" x="199" y="-103.5" font-family="FreeSans" font-size="10.00">Math</text>
</a>
</g>
</g>
<!-- dir_0c8523deb6301657d04bd2a03358f9f8&#45;&gt;dir_ff42852cc454de79d2ecb9482f4de9d8 -->
<g id="edge42" class="edge">
<title>dir_0c8523deb6301657d04bd2a03358f9f8&#45;&gt;dir_ff42852cc454de79d2ecb9482f4de9d8</title>
<path fill="none" stroke="black" d="M114.76,-519.56C111.34,-509.33 107.34,-496.08 105,-484 97.44,-445.01 97,-434.72 97,-395 97,-395 97,-395 97,-249 97,-199.82 137.86,-156.01 167.85,-130.48"/>
<polygon fill="black" stroke="black" points="170.12,-133.15 175.6,-124.08 165.66,-127.75 170.12,-133.15"/>
<g id="a_edge42&#45;headlabel"><a xlink:href="dir_000126_000099.html" target="_top" xlink:title="2">
<text text-anchor="middle" x="169.16" y="-135.12" font-family="FreeSans" font-size="10.00">2</text>
</a>
</g>
</g>
<!-- dir_150f406a44a04ce55518da03ec553ece&#45;&gt;dir_32348ece3c89569e6a714937ae854c89 -->
<g id="edge23" class="edge">
<title>dir_150f406a44a04ce55518da03ec553ece&#45;&gt;dir_32348ece3c89569e6a714937ae854c89</title>
<path fill="none" stroke="black" d="M245,-159.87C245,-135.67 245,-91.21 245,-62.39"/>
<polygon fill="black" stroke="black" points="248.5,-62.19 245,-52.19 241.5,-62.19 248.5,-62.19"/>
<g id="a_edge23&#45;headlabel"><a xlink:href="dir_000086_000123.html" target="_top" xlink:title="13">
<text text-anchor="middle" x="251.34" y="-63.28" font-family="FreeSans" font-size="10.00">13</text>
</a>
</g>
</g>
<!-- dir_150f406a44a04ce55518da03ec553ece&#45;&gt;dir_ff42852cc454de79d2ecb9482f4de9d8 -->
<g id="edge24" class="edge">
<title>dir_150f406a44a04ce55518da03ec553ece&#45;&gt;dir_ff42852cc454de79d2ecb9482f4de9d8</title>
<path fill="none" stroke="black" d="M227.71,-159.7C221.59,-151.64 214.97,-141.89 209.53,-132.98"/>
<polygon fill="black" stroke="black" points="212.41,-130.98 204.34,-124.1 206.36,-134.51 212.41,-130.98"/>
<g id="a_edge24&#45;headlabel"><a xlink:href="dir_000086_000099.html" target="_top" xlink:title="1">
<text text-anchor="middle" x="216.67" y="-130.15" font-family="FreeSans" font-size="10.00">1</text>
</a>
</g>
</g>
<!-- dir_4546011bd625f1142c4c4ae06dcdb5ba&#45;&gt;dir_150f406a44a04ce55518da03ec553ece -->
<g id="edge19" class="edge">
<title>dir_4546011bd625f1142c4c4ae06dcdb5ba&#45;&gt;dir_150f406a44a04ce55518da03ec553ece</title>
<path fill="none" stroke="black" d="M175.53,-303.87C189.17,-279.35 214.38,-234.03 230.39,-205.26"/>
<polygon fill="black" stroke="black" points="233.63,-206.63 235.44,-196.19 227.52,-203.23 233.63,-206.63"/>
<g id="a_edge19&#45;headlabel"><a xlink:href="dir_000089_000086.html" target="_top" xlink:title="5">
<text text-anchor="middle" x="234.37" y="-208.65" font-family="FreeSans" font-size="10.00">5</text>
</a>
</g>
</g>
<!-- dir_4546011bd625f1142c4c4ae06dcdb5ba&#45;&gt;dir_32348ece3c89569e6a714937ae854c89 -->
<g id="edge20" class="edge">
<title>dir_4546011bd625f1142c4c4ae06dcdb5ba&#45;&gt;dir_32348ece3c89569e6a714937ae854c89</title>
<path fill="none" stroke="black" d="M160.44,-303.85C148.39,-263.35 123.93,-159.77 163,-88 172.57,-70.41 190.77,-57.77 207.6,-49.26"/>
<polygon fill="black" stroke="black" points="209.19,-52.38 216.74,-44.95 206.2,-46.05 209.19,-52.38"/>
<g id="a_edge20&#45;headlabel"><a xlink:href="dir_000089_000123.html" target="_top" xlink:title="12">
<text text-anchor="middle" x="207.15" y="-53.98" font-family="FreeSans" font-size="10.00">12</text>
</a>
</g>
</g>
<!-- dir_4546011bd625f1142c4c4ae06dcdb5ba&#45;&gt;dir_a06008c3e245d1092ba6894d6caedef2 -->
<g id="edge21" class="edge">
<title>dir_4546011bd625f1142c4c4ae06dcdb5ba&#45;&gt;dir_a06008c3e245d1092ba6894d6caedef2</title>
<path fill="none" stroke="black" d="M195.72,-308C220.78,-297.03 256.91,-281.23 284.77,-269.04"/>
<polygon fill="black" stroke="black" points="286.49,-272.11 294.25,-264.89 283.68,-265.69 286.49,-272.11"/>
<g id="a_edge21&#45;headlabel"><a xlink:href="dir_000089_000096.html" target="_top" xlink:title="22">
<text text-anchor="middle" x="284.33" y="-273.65" font-family="FreeSans" font-size="10.00">22</text>
</a>
</g>
</g>
<!-- dir_4546011bd625f1142c4c4ae06dcdb5ba&#45;&gt;dir_ff42852cc454de79d2ecb9482f4de9d8 -->
<g id="edge22" class="edge">
<title>dir_4546011bd625f1142c4c4ae06dcdb5ba&#45;&gt;dir_ff42852cc454de79d2ecb9482f4de9d8</title>
<path fill="none" stroke="black" d="M168.64,-303.85C174.35,-266.83 187.87,-179.18 194.78,-134.39"/>
<polygon fill="black" stroke="black" points="198.28,-134.65 196.34,-124.23 191.36,-133.58 198.28,-134.65"/>
<g id="a_edge22&#45;headlabel"><a xlink:href="dir_000089_000099.html" target="_top" xlink:title="8">
<text text-anchor="middle" x="200.54" y="-136.13" font-family="FreeSans" font-size="10.00">8</text>
</a>
</g>
</g>
<!-- dir_91ae3e556fa9cad9030b784323206cc7&#45;&gt;dir_150f406a44a04ce55518da03ec553ece -->
<g id="edge11" class="edge">
<title>dir_91ae3e556fa9cad9030b784323206cc7&#45;&gt;dir_150f406a44a04ce55518da03ec553ece</title>
<path fill="none" stroke="black" d="M265.24,-375.85C261.43,-338.83 252.42,-251.18 247.82,-206.39"/>
<polygon fill="black" stroke="black" points="251.28,-205.82 246.77,-196.23 244.31,-206.54 251.28,-205.82"/>
<g id="a_edge11&#45;headlabel"><a xlink:href="dir_000102_000086.html" target="_top" xlink:title="29">
<text text-anchor="middle" x="254.47" y="-206.61" font-family="FreeSans" font-size="10.00">29</text>
</a>
</g>
</g>
<!-- dir_91ae3e556fa9cad9030b784323206cc7&#45;&gt;dir_32348ece3c89569e6a714937ae854c89 -->
<g id="edge10" class="edge">
<title>dir_91ae3e556fa9cad9030b784323206cc7&#45;&gt;dir_32348ece3c89569e6a714937ae854c89</title>
<path fill="none" stroke="black" d="M270.34,-375.95C277.41,-337.32 292.33,-240.25 281,-160 276.09,-125.21 263.85,-86.54 255.01,-61.56"/>
<polygon fill="black" stroke="black" points="258.26,-60.27 251.57,-52.06 251.68,-62.65 258.26,-60.27"/>
<g id="a_edge10&#45;headlabel"><a xlink:href="dir_000102_000123.html" target="_top" xlink:title="22">
<text text-anchor="middle" x="262.16" y="-60.19" font-family="FreeSans" font-size="10.00">22</text>
</a>
</g>
</g>
<!-- dir_91ae3e556fa9cad9030b784323206cc7&#45;&gt;dir_4546011bd625f1142c4c4ae06dcdb5ba -->
<g id="edge13" class="edge">
<title>dir_91ae3e556fa9cad9030b784323206cc7&#45;&gt;dir_4546011bd625f1142c4c4ae06dcdb5ba</title>
<path fill="none" stroke="black" d="M242.29,-375.88C229.33,-366.89 213.27,-355.76 199.23,-346.03"/>
<polygon fill="black" stroke="black" points="201.02,-343.01 190.8,-340.19 197.03,-348.76 201.02,-343.01"/>
<g id="a_edge13&#45;headlabel"><a xlink:href="dir_000102_000089.html" target="_top" xlink:title="55">
<text text-anchor="middle" x="205.59" y="-340.22" font-family="FreeSans" font-size="10.00">55</text>
</a>
</g>
</g>
<!-- dir_91ae3e556fa9cad9030b784323206cc7&#45;&gt;dir_a06008c3e245d1092ba6894d6caedef2 -->
<g id="edge12" class="edge">
<title>dir_91ae3e556fa9cad9030b784323206cc7&#45;&gt;dir_a06008c3e245d1092ba6894d6caedef2</title>
<path fill="none" stroke="black" d="M274.12,-375.87C284.26,-351.46 302.97,-306.43 314.93,-277.64"/>
<polygon fill="black" stroke="black" points="318.25,-278.77 318.86,-268.19 311.79,-276.08 318.25,-278.77"/>
<g id="a_edge12&#45;headlabel"><a xlink:href="dir_000102_000096.html" target="_top" xlink:title="64">
<text text-anchor="middle" x="319.5" y="-280.68" font-family="FreeSans" font-size="10.00">64</text>
</a>
</g>
</g>
<!-- dir_91ae3e556fa9cad9030b784323206cc7&#45;&gt;dir_ff42852cc454de79d2ecb9482f4de9d8 -->
<g id="edge14" class="edge">
<title>dir_91ae3e556fa9cad9030b784323206cc7&#45;&gt;dir_ff42852cc454de79d2ecb9482f4de9d8</title>
<path fill="none" stroke="black" d="M260.85,-375.86C248.93,-341.97 222.68,-263.8 209,-196 204.87,-175.55 202.33,-152.09 200.84,-134.4"/>
<polygon fill="black" stroke="black" points="204.31,-133.9 200.04,-124.2 197.33,-134.44 204.31,-133.9"/>
<g id="a_edge14&#45;headlabel"><a xlink:href="dir_000102_000099.html" target="_top" xlink:title="10">
<text text-anchor="middle" x="207.42" y="-134.76" font-family="FreeSans" font-size="10.00">10</text>
</a>
</g>
</g>
<!-- dir_a06008c3e245d1092ba6894d6caedef2&#45;&gt;dir_150f406a44a04ce55518da03ec553ece -->
<g id="edge15" class="edge">
<title>dir_a06008c3e245d1092ba6894d6caedef2&#45;&gt;dir_150f406a44a04ce55518da03ec553ece</title>
<path fill="none" stroke="black" d="M305.98,-231.7C295.87,-222.97 283.46,-212.24 272.48,-202.75"/>
<polygon fill="black" stroke="black" points="274.65,-199.99 264.79,-196.1 270.07,-205.29 274.65,-199.99"/>
<g id="a_edge15&#45;headlabel"><a xlink:href="dir_000096_000086.html" target="_top" xlink:title="42">
<text text-anchor="middle" x="279.22" y="-197.7" font-family="FreeSans" font-size="10.00">42</text>
</a>
</g>
</g>
<!-- dir_a06008c3e245d1092ba6894d6caedef2&#45;&gt;dir_32348ece3c89569e6a714937ae854c89 -->
<g id="edge16" class="edge">
<title>dir_a06008c3e245d1092ba6894d6caedef2&#45;&gt;dir_32348ece3c89569e6a714937ae854c89</title>
<path fill="none" stroke="black" d="M329.4,-231.75C334.56,-200.82 341.31,-134.8 316,-88 308.26,-73.68 294.78,-62.15 281.64,-53.54"/>
<polygon fill="black" stroke="black" points="283.47,-50.55 273.11,-48.3 279.81,-56.52 283.47,-50.55"/>
<g id="a_edge16&#45;headlabel"><a xlink:href="dir_000096_000123.html" target="_top" xlink:title="9">
<text text-anchor="middle" x="288.02" y="-47.51" font-family="FreeSans" font-size="10.00">9</text>
</a>
</g>
</g>
<!-- dir_b8ce078ed9f8fd90d71e02c796d93353 -->
<g id="node7" class="node">
<title>dir_b8ce078ed9f8fd90d71e02c796d93353</title>
<g id="a_node7"><a xlink:href="dir_b8ce078ed9f8fd90d71e02c796d93353.html" target="_top" xlink:title="Initialization">
<polygon fill="white" stroke="red" points="344,-484 276,-484 276,-448 344,-448 344,-484"/>
<text text-anchor="middle" x="310" y="-463.5" font-family="FreeSans" font-size="10.00">Initialization</text>
</a>
</g>
</g>
<!-- dir_b8ce078ed9f8fd90d71e02c796d93353&#45;&gt;dir_150f406a44a04ce55518da03ec553ece -->
<g id="edge32" class="edge">
<title>dir_b8ce078ed9f8fd90d71e02c796d93353&#45;&gt;dir_150f406a44a04ce55518da03ec553ece</title>
<path fill="none" stroke="black" d="M322.49,-447.96C350.67,-407.26 413.25,-302.52 367,-232 365.72,-230.05 317.33,-209.39 281.89,-194.46"/>
<polygon fill="black" stroke="black" points="282.86,-191.07 272.28,-190.42 280.14,-197.52 282.86,-191.07"/>
<g id="a_edge32&#45;headlabel"><a xlink:href="dir_000104_000086.html" target="_top" xlink:title="44">
<text text-anchor="middle" x="287.27" y="-187.35" font-family="FreeSans" font-size="10.00">44</text>
</a>
</g>
</g>
<!-- dir_b8ce078ed9f8fd90d71e02c796d93353&#45;&gt;dir_32348ece3c89569e6a714937ae854c89 -->
<g id="edge33" class="edge">
<title>dir_b8ce078ed9f8fd90d71e02c796d93353&#45;&gt;dir_32348ece3c89569e6a714937ae854c89</title>
<path fill="none" stroke="black" d="M329.01,-447.91C364.44,-414.08 437,-334.6 437,-251 437,-251 437,-251 437,-177 437,-101.28 339.28,-61.33 283.27,-44.65"/>
<polygon fill="black" stroke="black" points="283.91,-41.19 273.33,-41.8 281.98,-47.92 283.91,-41.19"/>
<g id="a_edge33&#45;headlabel"><a xlink:href="dir_000104_000123.html" target="_top" xlink:title="3">
<text text-anchor="middle" x="288.14" y="-36.95" font-family="FreeSans" font-size="10.00">3</text>
</a>
</g>
</g>
<!-- dir_b8ce078ed9f8fd90d71e02c796d93353&#45;&gt;dir_4546011bd625f1142c4c4ae06dcdb5ba -->
<g id="edge34" class="edge">
<title>dir_b8ce078ed9f8fd90d71e02c796d93353&#45;&gt;dir_4546011bd625f1142c4c4ae06dcdb5ba</title>
<path fill="none" stroke="black" d="M276.69,-447.87C260.58,-438.6 241.62,-426.15 227,-412 225.62,-410.66 200.85,-374.33 183.3,-348.51"/>
<polygon fill="black" stroke="black" points="186.19,-346.53 177.68,-340.22 180.4,-350.46 186.19,-346.53"/>
<g id="a_edge34&#45;headlabel"><a xlink:href="dir_000104_000089.html" target="_top" xlink:title="4">
<text text-anchor="middle" x="190.56" y="-345.41" font-family="FreeSans" font-size="10.00">4</text>
</a>
</g>
</g>
<!-- dir_b8ce078ed9f8fd90d71e02c796d93353&#45;&gt;dir_91ae3e556fa9cad9030b784323206cc7 -->
<g id="edge36" class="edge">
<title>dir_b8ce078ed9f8fd90d71e02c796d93353&#45;&gt;dir_91ae3e556fa9cad9030b784323206cc7</title>
<path fill="none" stroke="black" d="M299.37,-447.7C294.37,-439.56 288.31,-429.69 282.79,-420.7"/>
<polygon fill="black" stroke="black" points="285.72,-418.79 277.51,-412.1 279.76,-422.46 285.72,-418.79"/>
<g id="a_edge36&#45;headlabel"><a xlink:href="dir_000104_000102.html" target="_top" xlink:title="17">
<text text-anchor="middle" x="290.02" y="-417.87" font-family="FreeSans" font-size="10.00">17</text>
</a>
</g>
</g>
<!-- dir_b8ce078ed9f8fd90d71e02c796d93353&#45;&gt;dir_a06008c3e245d1092ba6894d6caedef2 -->
<g id="edge35" class="edge">
<title>dir_b8ce078ed9f8fd90d71e02c796d93353&#45;&gt;dir_a06008c3e245d1092ba6894d6caedef2</title>
<path fill="none" stroke="black" d="M311.28,-447.85C314.05,-410.83 320.6,-323.18 323.95,-278.39"/>
<polygon fill="black" stroke="black" points="327.46,-278.47 324.71,-268.23 320.48,-277.94 327.46,-278.47"/>
<g id="a_edge35&#45;headlabel"><a xlink:href="dir_000104_000096.html" target="_top" xlink:title="7">
<text text-anchor="middle" x="330.02" y="-279.76" font-family="FreeSans" font-size="10.00">7</text>
</a>
</g>
</g>
<!-- dir_d14d15cadc30134a390deae00e4dfae9 -->
<g id="node8" class="node">
<title>dir_d14d15cadc30134a390deae00e4dfae9</title>
<g id="a_node8"><a xlink:href="dir_d14d15cadc30134a390deae00e4dfae9.html" target="_top" xlink:title="Fringe">
<polygon fill="white" stroke="red" points="384,-556 330,-556 330,-520 384,-520 384,-556"/>
<text text-anchor="middle" x="357" y="-535.5" font-family="FreeSans" font-size="10.00">Fringe</text>
</a>
</g>
</g>
<!-- dir_d14d15cadc30134a390deae00e4dfae9&#45;&gt;dir_150f406a44a04ce55518da03ec553ece -->
<g id="edge25" class="edge">
<title>dir_d14d15cadc30134a390deae00e4dfae9&#45;&gt;dir_150f406a44a04ce55518da03ec553ece</title>
<path fill="none" stroke="black" d="M365.28,-519.69C387.97,-469.48 445.17,-321.73 379,-232 352.69,-196.33 327.14,-212.49 286,-196 284.61,-195.44 283.2,-194.88 281.78,-194.3"/>
<polygon fill="black" stroke="black" points="282.89,-190.97 272.31,-190.43 280.24,-197.45 282.89,-190.97"/>
<g id="a_edge25&#45;headlabel"><a xlink:href="dir_000091_000086.html" target="_top" xlink:title="35">
<text text-anchor="middle" x="287.29" y="-187.2" font-family="FreeSans" font-size="10.00">35</text>
</a>
</g>
</g>
<!-- dir_d14d15cadc30134a390deae00e4dfae9&#45;&gt;dir_32348ece3c89569e6a714937ae854c89 -->
<g id="edge26" class="edge">
<title>dir_d14d15cadc30134a390deae00e4dfae9&#45;&gt;dir_32348ece3c89569e6a714937ae854c89</title>
<path fill="none" stroke="black" d="M380.19,-519.61C409.73,-495.28 457,-448.07 457,-395 457,-395 457,-395 457,-177 457,-130.73 439.13,-116.9 403,-88 368.09,-60.08 317.76,-46.56 283.34,-40.22"/>
<polygon fill="black" stroke="black" points="283.66,-36.72 273.21,-38.48 282.47,-43.62 283.66,-36.72"/>
<g id="a_edge26&#45;headlabel"><a xlink:href="dir_000091_000123.html" target="_top" xlink:title="14">
<text text-anchor="middle" x="287.68" y="-32.03" font-family="FreeSans" font-size="10.00">14</text>
</a>
</g>
</g>
<!-- dir_d14d15cadc30134a390deae00e4dfae9&#45;&gt;dir_4546011bd625f1142c4c4ae06dcdb5ba -->
<g id="edge28" class="edge">
<title>dir_d14d15cadc30134a390deae00e4dfae9&#45;&gt;dir_4546011bd625f1142c4c4ae06dcdb5ba</title>
<path fill="none" stroke="black" d="M329.97,-527.2C307.88,-518.29 276.72,-503.54 254,-484 211.58,-447.52 185.94,-385.3 174.03,-349.84"/>
<polygon fill="black" stroke="black" points="177.31,-348.61 170.9,-340.17 170.65,-350.76 177.31,-348.61"/>
<g id="a_edge28&#45;headlabel"><a xlink:href="dir_000091_000089.html" target="_top" xlink:title="21">
<text text-anchor="middle" x="181.11" y="-348.65" font-family="FreeSans" font-size="10.00">21</text>
</a>
</g>
</g>
<!-- dir_d14d15cadc30134a390deae00e4dfae9&#45;&gt;dir_91ae3e556fa9cad9030b784323206cc7 -->
<g id="edge30" class="edge">
<title>dir_d14d15cadc30134a390deae00e4dfae9&#45;&gt;dir_91ae3e556fa9cad9030b784323206cc7</title>
<path fill="none" stroke="black" d="M329.57,-529.1C308.32,-521.37 280.32,-507.3 267,-484 256.31,-465.3 257.26,-440.57 260.35,-421.93"/>
<polygon fill="black" stroke="black" points="263.8,-422.49 262.28,-412.01 256.93,-421.16 263.8,-422.49"/>
<g id="a_edge30&#45;headlabel"><a xlink:href="dir_000091_000102.html" target="_top" xlink:title="14">
<text text-anchor="middle" x="265.9" y="-424.06" font-family="FreeSans" font-size="10.00">14</text>
</a>
</g>
</g>
<!-- dir_d14d15cadc30134a390deae00e4dfae9&#45;&gt;dir_a06008c3e245d1092ba6894d6caedef2 -->
<g id="edge27" class="edge">
<title>dir_d14d15cadc30134a390deae00e4dfae9&#45;&gt;dir_a06008c3e245d1092ba6894d6caedef2</title>
<path fill="none" stroke="black" d="M356.69,-519.91C356.27,-501.97 355.27,-472.95 353,-448 347.47,-387.14 336.68,-316.25 330.55,-278.3"/>
<polygon fill="black" stroke="black" points="333.94,-277.37 328.87,-268.07 327.03,-278.5 333.94,-277.37"/>
<g id="a_edge27&#45;headlabel"><a xlink:href="dir_000091_000096.html" target="_top" xlink:title="23">
<text text-anchor="middle" x="337.32" y="-277.96" font-family="FreeSans" font-size="10.00">23</text>
</a>
</g>
</g>
<!-- dir_d14d15cadc30134a390deae00e4dfae9&#45;&gt;dir_b8ce078ed9f8fd90d71e02c796d93353 -->
<g id="edge29" class="edge">
<title>dir_d14d15cadc30134a390deae00e4dfae9&#45;&gt;dir_b8ce078ed9f8fd90d71e02c796d93353</title>
<path fill="none" stroke="black" d="M345.38,-519.7C339.86,-511.47 333.15,-501.48 327.07,-492.42"/>
<polygon fill="black" stroke="black" points="329.96,-490.46 321.48,-484.1 324.15,-494.36 329.96,-490.46"/>
<g id="a_edge29&#45;headlabel"><a xlink:href="dir_000091_000104.html" target="_top" xlink:title="12">
<text text-anchor="middle" x="334.33" y="-489.36" font-family="FreeSans" font-size="10.00">12</text>
</a>
</g>
</g>
<!-- dir_d14d15cadc30134a390deae00e4dfae9&#45;&gt;dir_ff42852cc454de79d2ecb9482f4de9d8 -->
<g id="edge31" class="edge">
<title>dir_d14d15cadc30134a390deae00e4dfae9&#45;&gt;dir_ff42852cc454de79d2ecb9482f4de9d8</title>
<path fill="none" stroke="black" d="M370.17,-519.66C377.22,-509.68 385.54,-496.65 391,-484 435.41,-381.18 458.82,-322.62 393,-232 352.72,-176.55 279.65,-139.39 235.59,-120.84"/>
<polygon fill="black" stroke="black" points="236.7,-117.51 226.12,-116.95 234.04,-123.98 236.7,-117.51"/>
<g id="a_edge31&#45;headlabel"><a xlink:href="dir_000091_000099.html" target="_top" xlink:title="8">
<text text-anchor="middle" x="241.11" y="-113.75" font-family="FreeSans" font-size="10.00">8</text>
</a>
</g>
</g>
<!-- dir_ff42852cc454de79d2ecb9482f4de9d8&#45;&gt;dir_150f406a44a04ce55518da03ec553ece -->
<g id="edge18" class="edge">
<title>dir_ff42852cc454de79d2ecb9482f4de9d8&#45;&gt;dir_150f406a44a04ce55518da03ec553ece</title>
<path fill="none" stroke="black" d="M216.14,-124.1C222.25,-132.13 228.87,-141.87 234.34,-150.8"/>
<polygon fill="black" stroke="black" points="231.47,-152.83 239.54,-159.7 237.52,-149.3 231.47,-152.83"/>
<g id="a_edge18&#45;headlabel"><a xlink:href="dir_000099_000086.html" target="_top" xlink:title="1">
<text text-anchor="middle" x="227.21" y="-148.66" font-family="FreeSans" font-size="10.00">1</text>
</a>
</g>
</g>
<!-- dir_ff42852cc454de79d2ecb9482f4de9d8&#45;&gt;dir_32348ece3c89569e6a714937ae854c89 -->
<g id="edge17" class="edge">
<title>dir_ff42852cc454de79d2ecb9482f4de9d8&#45;&gt;dir_32348ece3c89569e6a714937ae854c89</title>
<path fill="none" stroke="black" d="M210.37,-87.7C215.72,-79.56 222.2,-69.69 228.11,-60.7"/>
<polygon fill="black" stroke="black" points="231.19,-62.38 233.76,-52.1 225.34,-58.54 231.19,-62.38"/>
<g id="a_edge17&#45;headlabel"><a xlink:href="dir_000099_000123.html" target="_top" xlink:title="6">
<text text-anchor="middle" x="231.59" y="-64.45" font-family="FreeSans" font-size="10.00">6</text>
</a>
</g>
</g>
<!-- dir_692e4fa8827bc0493914a8892ac7caba -->
<g id="node10" class="node">
<title>dir_692e4fa8827bc0493914a8892ac7caba</title>
<g id="a_node10"><a xlink:href="dir_692e4fa8827bc0493914a8892ac7caba.html" target="_top" xlink:title="Applications">
<polygon fill="#eeeeff" stroke="black" points="212,-628 142,-628 142,-592 212,-592 212,-628"/>
<text text-anchor="middle" x="177" y="-607.5" font-family="FreeSans" font-size="10.00">Applications</text>
</a>
</g>
</g>
<!-- dir_692e4fa8827bc0493914a8892ac7caba&#45;&gt;dir_0c8523deb6301657d04bd2a03358f9f8 -->
<g id="edge1" class="edge">
<title>dir_692e4fa8827bc0493914a8892ac7caba&#45;&gt;dir_0c8523deb6301657d04bd2a03358f9f8</title>
<path fill="none" stroke="black" d="M163.16,-591.7C156.51,-583.39 148.42,-573.28 141.11,-564.14"/>
<polygon fill="black" stroke="black" points="143.66,-561.73 134.68,-556.1 138.2,-566.1 143.66,-561.73"/>
<g id="a_edge1&#45;headlabel"><a xlink:href="dir_000036_000126.html" target="_top" xlink:title="3">
<text text-anchor="middle" x="148.13" y="-560.26" font-family="FreeSans" font-size="10.00">3</text>
</a>
</g>
</g>
<!-- dir_692e4fa8827bc0493914a8892ac7caba&#45;&gt;dir_150f406a44a04ce55518da03ec553ece -->
<g id="edge2" class="edge">
<title>dir_692e4fa8827bc0493914a8892ac7caba&#45;&gt;dir_150f406a44a04ce55518da03ec553ece</title>
<path fill="none" stroke="black" d="M141.83,-600.84C118.44,-593.39 89.45,-579.79 75,-556 66.69,-542.32 73.61,-535.94 75,-520 86.45,-388.88 54.57,-328.57 144,-232 161.5,-213.1 187.29,-199.72 208.43,-191.14"/>
<polygon fill="black" stroke="black" points="209.71,-194.4 217.77,-187.53 207.18,-187.87 209.71,-194.4"/>
<g id="a_edge2&#45;headlabel"><a xlink:href="dir_000036_000086.html" target="_top" xlink:title="16">
<text text-anchor="middle" x="207.38" y="-195.84" font-family="FreeSans" font-size="10.00">16</text>
</a>
</g>
</g>
<!-- dir_692e4fa8827bc0493914a8892ac7caba&#45;&gt;dir_32348ece3c89569e6a714937ae854c89 -->
<g id="edge3" class="edge">
<title>dir_692e4fa8827bc0493914a8892ac7caba&#45;&gt;dir_32348ece3c89569e6a714937ae854c89</title>
<path fill="none" stroke="black" d="M141.78,-604.88C110.06,-599.28 64.45,-586.22 38,-556 11.23,-525.42 17,-507.64 17,-467 17,-467 17,-467 17,-177 17,-88.69 141.76,-53.33 206.7,-40.9"/>
<polygon fill="black" stroke="black" points="207.37,-44.34 216.58,-39.1 206.12,-37.45 207.37,-44.34"/>
<g id="a_edge3&#45;headlabel"><a xlink:href="dir_000036_000123.html" target="_top" xlink:title="11">
<text text-anchor="middle" x="204.35" y="-45.28" font-family="FreeSans" font-size="10.00">11</text>
</a>
</g>
</g>
<!-- dir_692e4fa8827bc0493914a8892ac7caba&#45;&gt;dir_4546011bd625f1142c4c4ae06dcdb5ba -->
<g id="edge4" class="edge">
<title>dir_692e4fa8827bc0493914a8892ac7caba&#45;&gt;dir_4546011bd625f1142c4c4ae06dcdb5ba</title>
<path fill="none" stroke="black" d="M176.34,-591.97C174.51,-544.29 169.31,-409.18 167.06,-350.63"/>
<polygon fill="black" stroke="black" points="170.55,-350.16 166.67,-340.31 163.55,-350.43 170.55,-350.16"/>
<g id="a_edge4&#45;headlabel"><a xlink:href="dir_000036_000089.html" target="_top" xlink:title="5">
<text text-anchor="middle" x="173.52" y="-351.15" font-family="FreeSans" font-size="10.00">5</text>
</a>
</g>
</g>
<!-- dir_692e4fa8827bc0493914a8892ac7caba&#45;&gt;dir_91ae3e556fa9cad9030b784323206cc7 -->
<g id="edge5" class="edge">
<title>dir_692e4fa8827bc0493914a8892ac7caba&#45;&gt;dir_91ae3e556fa9cad9030b784323206cc7</title>
<path fill="none" stroke="black" d="M184.21,-591.85C199.88,-554.6 237.11,-466.07 255.84,-421.54"/>
<polygon fill="black" stroke="black" points="259.1,-422.81 259.75,-412.23 252.65,-420.09 259.1,-422.81"/>
<g id="a_edge5&#45;headlabel"><a xlink:href="dir_000036_000102.html" target="_top" xlink:title="1">
<text text-anchor="middle" x="260.33" y="-424.72" font-family="FreeSans" font-size="10.00">1</text>
</a>
</g>
</g>
<!-- dir_692e4fa8827bc0493914a8892ac7caba&#45;&gt;dir_a06008c3e245d1092ba6894d6caedef2 -->
<g id="edge6" class="edge">
<title>dir_692e4fa8827bc0493914a8892ac7caba&#45;&gt;dir_a06008c3e245d1092ba6894d6caedef2</title>
<path fill="none" stroke="black" d="M212.09,-605.57C267.41,-599.35 370.9,-584.18 393,-556 459.69,-470.97 381.9,-333.43 344.2,-276.72"/>
<polygon fill="black" stroke="black" points="347.02,-274.65 338.52,-268.33 341.23,-278.57 347.02,-274.65"/>
<g id="a_edge6&#45;headlabel"><a xlink:href="dir_000036_000096.html" target="_top" xlink:title="23">
<text text-anchor="middle" x="351.39" y="-273.53" font-family="FreeSans" font-size="10.00">23</text>
</a>
</g>
</g>
<!-- dir_692e4fa8827bc0493914a8892ac7caba&#45;&gt;dir_b8ce078ed9f8fd90d71e02c796d93353 -->
<g id="edge7" class="edge">
<title>dir_692e4fa8827bc0493914a8892ac7caba&#45;&gt;dir_b8ce078ed9f8fd90d71e02c796d93353</title>
<path fill="none" stroke="black" d="M200.69,-591.84C213.54,-582.01 229.34,-569.07 242,-556 261.27,-536.11 280.15,-510.8 293.11,-492.26"/>
<polygon fill="black" stroke="black" points="296,-494.23 298.79,-484.01 290.24,-490.25 296,-494.23"/>
<g id="a_edge7&#45;headlabel"><a xlink:href="dir_000036_000104.html" target="_top" xlink:title="3">
<text text-anchor="middle" x="296.3" y="-496.3" font-family="FreeSans" font-size="10.00">3</text>
</a>
</g>
</g>
<!-- dir_692e4fa8827bc0493914a8892ac7caba&#45;&gt;dir_d14d15cadc30134a390deae00e4dfae9 -->
<g id="edge8" class="edge">
<title>dir_692e4fa8827bc0493914a8892ac7caba&#45;&gt;dir_d14d15cadc30134a390deae00e4dfae9</title>
<path fill="none" stroke="black" d="M212.13,-595.34C243.38,-583.19 288.89,-565.49 320.54,-553.18"/>
<polygon fill="black" stroke="black" points="321.83,-556.43 329.88,-549.55 319.29,-549.91 321.83,-556.43"/>
<g id="a_edge8&#45;headlabel"><a xlink:href="dir_000036_000091.html" target="_top" xlink:title="9">
<text text-anchor="middle" x="319.51" y="-557.88" font-family="FreeSans" font-size="10.00">9</text>
</a>
</g>
</g>
<!-- dir_692e4fa8827bc0493914a8892ac7caba&#45;&gt;dir_ff42852cc454de79d2ecb9482f4de9d8 -->
<g id="edge9" class="edge">
<title>dir_692e4fa8827bc0493914a8892ac7caba&#45;&gt;dir_ff42852cc454de79d2ecb9482f4de9d8</title>
<path fill="none" stroke="black" d="M141.95,-600.23C117.51,-592.41 85.86,-578.63 66,-556 38.56,-524.73 37,-508.6 37,-467 37,-467 37,-467 37,-393 37,-284.48 42.73,-245.15 110,-160 123.58,-142.82 144.37,-129.99 162.45,-121.26"/>
<polygon fill="black" stroke="black" points="163.97,-124.41 171.61,-117.07 161.06,-118.05 163.97,-124.41"/>
<g id="a_edge9&#45;headlabel"><a xlink:href="dir_000036_000099.html" target="_top" xlink:title="3">
<text text-anchor="middle" x="161.88" y="-125.99" font-family="FreeSans" font-size="10.00">3</text>
</a>
</g>
</g>
</g>
</svg>
