<?xml version="1.0" encoding="UTF-8" standalone="no"?>
<!DOCTYPE svg PUBLIC "-//W3C//DTD SVG 1.1//EN"
 "http://www.w3.org/Graphics/SVG/1.1/DTD/svg11.dtd">
<!-- Generated by graphviz version 2.43.0 (0)
 -->
<!-- Title: c_src Pages: 1 -->
<svg width="406pt" height="399pt"
 viewBox="0.00 0.00 406.00 399.00" xmlns="http://www.w3.org/2000/svg" xmlns:xlink="http://www.w3.org/1999/xlink">
<g id="graph0" class="graph" transform="scale(1 1) rotate(0) translate(4 395)">
<title>c_src</title>
<polygon fill="white" stroke="transparent" points="-4,4 -4,-395 402,-395 402,4 -4,4"/>
<g id="clust1" class="cluster">
<title>clusterdir_b2f33c71d4aa5e7af42a1ca61ff5af1b</title>
<g id="a_clust1"><a xlink:href="dir_b2f33c71d4aa5e7af42a1ca61ff5af1b.html" target="_top" xlink:title="source">
<polygon fill="#ddddee" stroke="black" points="8,-8 8,-383 390,-383 390,-8 8,-8"/>
<text text-anchor="middle" x="199" y="-371" font-family="FreeSans" font-size="10.00">source</text>
</a>
</g>
</g>
<g id="clust2" class="cluster">
<title>clusterdir_0c6283dd7716efebfcf76fdb98d8e794</title>
<g id="a_clust2"><a xlink:href="dir_0c6283dd7716efebfcf76fdb98d8e794.html" target="_top">
<polygon fill="#eeeeff" stroke="black" points="16,-16 16,-356 382,-356 382,-16 16,-16"/>
</a>
</g>
</g>
<!-- dir_0c6283dd7716efebfcf76fdb98d8e794 -->
<g id="node1" class="node">
<title>dir_0c6283dd7716efebfcf76fdb98d8e794</title>
<text text-anchor="middle" x="337" y="-327.5" font-family="FreeSans" font-size="10.00">c_src</text>
</g>
<!-- dir_637a76a7abf5a01e5c2aa724f3c1e96e -->
<g id="node2" class="node">
<title>dir_637a76a7abf5a01e5c2aa724f3c1e96e</title>
<g id="a_node2"><a xlink:href="dir_637a76a7abf5a01e5c2aa724f3c1e96e.html" target="_top" xlink:title="afio">
<polygon fill="white" stroke="red" points="78,-204 24,-204 24,-168 78,-168 78,-204"/>
<text text-anchor="middle" x="51" y="-183.5" font-family="FreeSans" font-size="10.00">afio</text>
</a>
</g>
</g>
<!-- dir_cb2d4e92f47691559fc9d122a5e37fac -->
<g id="node7" class="node">
<title>dir_cb2d4e92f47691559fc9d122a5e37fac</title>
<g id="a_node7"><a xlink:href="dir_cb2d4e92f47691559fc9d122a5e37fac.html" target="_top" xlink:title="mk4util">
<polygon fill="white" stroke="red" points="242,-132 188,-132 188,-96 242,-96 242,-132"/>
<text text-anchor="middle" x="215" y="-111.5" font-family="FreeSans" font-size="10.00">mk4util</text>
</a>
</g>
</g>
<!-- dir_637a76a7abf5a01e5c2aa724f3c1e96e&#45;&gt;dir_cb2d4e92f47691559fc9d122a5e37fac -->
<g id="edge16" class="edge">
<title>dir_637a76a7abf5a01e5c2aa724f3c1e96e&#45;&gt;dir_cb2d4e92f47691559fc9d122a5e37fac</title>
<path fill="none" stroke="black" d="M78.06,-172.05C81.07,-170.66 84.09,-169.29 87,-168 117.62,-154.44 152.79,-139.96 178.5,-129.56"/>
<polygon fill="black" stroke="black" points="179.9,-132.77 187.87,-125.79 177.29,-126.28 179.9,-132.77"/>
<g id="a_edge16&#45;headlabel"><a xlink:href="dir_000022_000014.html" target="_top" xlink:title="17">
<text text-anchor="middle" x="177.63" y="-134.25" font-family="FreeSans" font-size="10.00">17</text>
</a>
</g>
</g>
<!-- dir_758df28fbdbb54fb46d6d3d6484a4984 -->
<g id="node8" class="node">
<title>dir_758df28fbdbb54fb46d6d3d6484a4984</title>
<g id="a_node8"><a xlink:href="dir_758df28fbdbb54fb46d6d3d6484a4984.html" target="_top" xlink:title="msg">
<polygon fill="white" stroke="red" points="265,-60 211,-60 211,-24 265,-24 265,-60"/>
<text text-anchor="middle" x="238" y="-39.5" font-family="FreeSans" font-size="10.00">msg</text>
</a>
</g>
</g>
<!-- dir_637a76a7abf5a01e5c2aa724f3c1e96e&#45;&gt;dir_758df28fbdbb54fb46d6d3d6484a4984 -->
<g id="edge17" class="edge">
<title>dir_637a76a7abf5a01e5c2aa724f3c1e96e&#45;&gt;dir_758df28fbdbb54fb46d6d3d6484a4984</title>
<path fill="none" stroke="black" d="M67.79,-167.81C86.62,-149.01 118.52,-118.56 149,-96 165.59,-83.72 185.19,-71.8 201.76,-62.39"/>
<polygon fill="black" stroke="black" points="203.61,-65.37 210.62,-57.43 200.19,-59.26 203.61,-65.37"/>
<g id="a_edge17&#45;headlabel"><a xlink:href="dir_000022_000144.html" target="_top" xlink:title="1">
<text text-anchor="middle" x="201.86" y="-67.1" font-family="FreeSans" font-size="10.00">1</text>
</a>
</g>
</g>
<!-- dir_9de42bc92121356a26b664e34e3ff194 -->
<g id="node3" class="node">
<title>dir_9de42bc92121356a26b664e34e3ff194</title>
<g id="a_node3"><a xlink:href="dir_9de42bc92121356a26b664e34e3ff194.html" target="_top" xlink:title="applications">
<polygon fill="white" stroke="red" points="274,-348 206,-348 206,-312 274,-312 274,-348"/>
<text text-anchor="middle" x="240" y="-327.5" font-family="FreeSans" font-size="10.00">applications</text>
</a>
</g>
</g>
<!-- dir_9de42bc92121356a26b664e34e3ff194&#45;&gt;dir_637a76a7abf5a01e5c2aa724f3c1e96e -->
<g id="edge4" class="edge">
<title>dir_9de42bc92121356a26b664e34e3ff194&#45;&gt;dir_637a76a7abf5a01e5c2aa724f3c1e96e</title>
<path fill="none" stroke="black" d="M212.88,-311.99C197.17,-301.9 177.17,-288.65 160,-276 131.4,-254.93 100.12,-229.08 78.43,-210.68"/>
<polygon fill="black" stroke="black" points="80.5,-207.84 70.62,-204.01 75.96,-213.17 80.5,-207.84"/>
<g id="a_edge4&#45;headlabel"><a xlink:href="dir_000017_000022.html" target="_top" xlink:title="30">
<text text-anchor="middle" x="85.07" y="-205.51" font-family="FreeSans" font-size="10.00">30</text>
</a>
</g>
</g>
<!-- dir_db8d68003073a61b7114dbc4f792cfed -->
<g id="node4" class="node">
<title>dir_db8d68003073a61b7114dbc4f792cfed</title>
<g id="a_node4"><a xlink:href="dir_db8d68003073a61b7114dbc4f792cfed.html" target="_top" xlink:title="dfio">
<polygon fill="white" stroke="red" points="150,-204 96,-204 96,-168 150,-168 150,-204"/>
<text text-anchor="middle" x="123" y="-183.5" font-family="FreeSans" font-size="10.00">dfio</text>
</a>
</g>
</g>
<!-- dir_9de42bc92121356a26b664e34e3ff194&#45;&gt;dir_db8d68003073a61b7114dbc4f792cfed -->
<g id="edge7" class="edge">
<title>dir_9de42bc92121356a26b664e34e3ff194&#45;&gt;dir_db8d68003073a61b7114dbc4f792cfed</title>
<path fill="none" stroke="black" d="M223.66,-311.63C214.21,-301.43 202.21,-288.18 192,-276 174.4,-255.01 155.41,-230.35 141.81,-212.31"/>
<polygon fill="black" stroke="black" points="144.4,-209.93 135.6,-204.03 138.8,-214.13 144.4,-209.93"/>
<g id="a_edge7&#45;headlabel"><a xlink:href="dir_000017_000024.html" target="_top" xlink:title="91">
<text text-anchor="middle" x="148.83" y="-208.6" font-family="FreeSans" font-size="10.00">91</text>
</a>
</g>
</g>
<!-- dir_9ef7e4ca5af767b4d78801a8e1d37f3e -->
<g id="node5" class="node">
<title>dir_9ef7e4ca5af767b4d78801a8e1d37f3e</title>
<g id="a_node5"><a xlink:href="dir_9ef7e4ca5af767b4d78801a8e1d37f3e.html" target="_top" xlink:title="fourfit_libs">
<polygon fill="white" stroke="red" points="261.5,-276 200.5,-276 200.5,-240 261.5,-240 261.5,-276"/>
<text text-anchor="middle" x="231" y="-255.5" font-family="FreeSans" font-size="10.00">fourfit_libs</text>
</a>
</g>
</g>
<!-- dir_9de42bc92121356a26b664e34e3ff194&#45;&gt;dir_9ef7e4ca5af767b4d78801a8e1d37f3e -->
<g id="edge9" class="edge">
<title>dir_9de42bc92121356a26b664e34e3ff194&#45;&gt;dir_9ef7e4ca5af767b4d78801a8e1d37f3e</title>
<path fill="none" stroke="black" d="M237.78,-311.7C236.78,-303.98 235.59,-294.71 234.49,-286.11"/>
<polygon fill="black" stroke="black" points="237.95,-285.58 233.2,-276.1 231,-286.47 237.95,-285.58"/>
<g id="a_edge9&#45;headlabel"><a xlink:href="dir_000017_000026.html" target="_top" xlink:title="9">
<text text-anchor="middle" x="241.22" y="-286.28" font-family="FreeSans" font-size="10.00">9</text>
</a>
</g>
</g>
<!-- dir_9de42bc92121356a26b664e34e3ff194&#45;&gt;dir_cb2d4e92f47691559fc9d122a5e37fac -->
<g id="edge6" class="edge">
<title>dir_9de42bc92121356a26b664e34e3ff194&#45;&gt;dir_cb2d4e92f47691559fc9d122a5e37fac</title>
<path fill="none" stroke="black" d="M253.15,-311.91C259.92,-302.01 267.49,-288.96 271,-276 275.18,-260.56 274.34,-255.65 271,-240 263.24,-203.71 244.13,-165.21 230.39,-140.68"/>
<polygon fill="black" stroke="black" points="233.43,-138.94 225.43,-132 227.35,-142.42 233.43,-138.94"/>
<g id="a_edge6&#45;headlabel"><a xlink:href="dir_000017_000014.html" target="_top" xlink:title="42">
<text text-anchor="middle" x="237.68" y="-138.15" font-family="FreeSans" font-size="10.00">42</text>
</a>
</g>
</g>
<!-- dir_9de42bc92121356a26b664e34e3ff194&#45;&gt;dir_758df28fbdbb54fb46d6d3d6484a4984 -->
<g id="edge5" class="edge">
<title>dir_9de42bc92121356a26b664e34e3ff194&#45;&gt;dir_758df28fbdbb54fb46d6d3d6484a4984</title>
<path fill="none" stroke="black" d="M269.95,-311.92C313.79,-284.5 387.7,-227.63 363,-168 344.91,-124.33 303.34,-87.96 273.09,-65.91"/>
<polygon fill="black" stroke="black" points="275.07,-63.02 264.89,-60.08 271.01,-68.73 275.07,-63.02"/>
<g id="a_edge5&#45;headlabel"><a xlink:href="dir_000017_000144.html" target="_top" xlink:title="12">
<text text-anchor="middle" x="279.64" y="-60.29" font-family="FreeSans" font-size="10.00">12</text>
</a>
</g>
</g>
<!-- dir_64078e4dd55db1ba2b4e557207803e4b -->
<g id="node9" class="node">
<title>dir_64078e4dd55db1ba2b4e557207803e4b</title>
<g id="a_node9"><a xlink:href="dir_64078e4dd55db1ba2b4e557207803e4b.html" target="_top" xlink:title="vex">
<polygon fill="white" stroke="red" points="354,-204 300,-204 300,-168 354,-168 354,-204"/>
<text text-anchor="middle" x="327" y="-183.5" font-family="FreeSans" font-size="10.00">vex</text>
</a>
</g>
</g>
<!-- dir_9de42bc92121356a26b664e34e3ff194&#45;&gt;dir_64078e4dd55db1ba2b4e557207803e4b -->
<g id="edge8" class="edge">
<title>dir_9de42bc92121356a26b664e34e3ff194&#45;&gt;dir_64078e4dd55db1ba2b4e557207803e4b</title>
<path fill="none" stroke="black" d="M257.1,-311.86C266.4,-301.94 277.67,-288.9 286,-276 298.77,-256.22 309.71,-231.82 317.07,-213.58"/>
<polygon fill="black" stroke="black" points="320.38,-214.73 320.78,-204.14 313.87,-212.17 320.38,-214.73"/>
<g id="a_edge8&#45;headlabel"><a xlink:href="dir_000017_000044.html" target="_top" xlink:title="6">
<text text-anchor="middle" x="321.71" y="-216.61" font-family="FreeSans" font-size="10.00">6</text>
</a>
</g>
</g>
<!-- dir_db8d68003073a61b7114dbc4f792cfed&#45;&gt;dir_cb2d4e92f47691559fc9d122a5e37fac -->
<g id="edge18" class="edge">
<title>dir_db8d68003073a61b7114dbc4f792cfed&#45;&gt;dir_cb2d4e92f47691559fc9d122a5e37fac</title>
<path fill="none" stroke="black" d="M145.74,-167.7C157.44,-158.8 171.86,-147.82 184.51,-138.2"/>
<polygon fill="black" stroke="black" points="186.68,-140.94 192.52,-132.1 182.44,-135.37 186.68,-140.94"/>
<g id="a_edge18&#45;headlabel"><a xlink:href="dir_000024_000014.html" target="_top" xlink:title="117">
<text text-anchor="middle" x="185.54" y="-142.88" font-family="FreeSans" font-size="10.00">117</text>
</a>
</g>
</g>
<!-- dir_db8d68003073a61b7114dbc4f792cfed&#45;&gt;dir_758df28fbdbb54fb46d6d3d6484a4984 -->
<g id="edge19" class="edge">
<title>dir_db8d68003073a61b7114dbc4f792cfed&#45;&gt;dir_758df28fbdbb54fb46d6d3d6484a4984</title>
<path fill="none" stroke="black" d="M131.84,-167.99C141.94,-149.35 159.59,-119.03 179,-96 187.75,-85.62 198.52,-75.37 208.45,-66.69"/>
<polygon fill="black" stroke="black" points="210.84,-69.25 216.18,-60.09 206.3,-63.92 210.84,-69.25"/>
<g id="a_edge19&#45;headlabel"><a xlink:href="dir_000024_000144.html" target="_top" xlink:title="1">
<text text-anchor="middle" x="209.95" y="-71.24" font-family="FreeSans" font-size="10.00">1</text>
</a>
</g>
</g>
<!-- dir_9ef7e4ca5af767b4d78801a8e1d37f3e&#45;&gt;dir_637a76a7abf5a01e5c2aa724f3c1e96e -->
<g id="edge14" class="edge">
<title>dir_9ef7e4ca5af767b4d78801a8e1d37f3e&#45;&gt;dir_637a76a7abf5a01e5c2aa724f3c1e96e</title>
<path fill="none" stroke="black" d="M200.36,-246.61C172.94,-237.11 131.53,-222.3 87.45,-204.02"/>
<polygon fill="black" stroke="black" points="88.59,-200.7 78.01,-200.07 85.88,-207.16 88.59,-200.7"/>
<g id="a_edge14&#45;headlabel"><a xlink:href="dir_000026_000022.html" target="_top" xlink:title="2">
<text text-anchor="middle" x="93" y="-196.97" font-family="FreeSans" font-size="10.00">2</text>
</a>
</g>
</g>
<!-- dir_9ef7e4ca5af767b4d78801a8e1d37f3e&#45;&gt;dir_db8d68003073a61b7114dbc4f792cfed -->
<g id="edge12" class="edge">
<title>dir_9ef7e4ca5af767b4d78801a8e1d37f3e&#45;&gt;dir_db8d68003073a61b7114dbc4f792cfed</title>
<path fill="none" stroke="black" d="M204.58,-239.88C190.59,-230.81 173.22,-219.55 158.11,-209.76"/>
<polygon fill="black" stroke="black" points="159.82,-206.69 149.52,-204.19 156.01,-212.57 159.82,-206.69"/>
<g id="a_edge12&#45;headlabel"><a xlink:href="dir_000026_000024.html" target="_top" xlink:title="81">
<text text-anchor="middle" x="164.38" y="-203.76" font-family="FreeSans" font-size="10.00">81</text>
</a>
</g>
</g>
<!-- dir_9ef7e4ca5af767b4d78801a8e1d37f3e&#45;&gt;dir_cb2d4e92f47691559fc9d122a5e37fac -->
<g id="edge11" class="edge">
<title>dir_9ef7e4ca5af767b4d78801a8e1d37f3e&#45;&gt;dir_cb2d4e92f47691559fc9d122a5e37fac</title>
<path fill="none" stroke="black" d="M232.48,-239.83C233.69,-221.83 234.66,-192.76 231,-168 229.72,-159.35 227.33,-150.15 224.78,-141.89"/>
<polygon fill="black" stroke="black" points="228.1,-140.78 221.65,-132.37 221.45,-142.96 228.1,-140.78"/>
<g id="a_edge11&#45;headlabel"><a xlink:href="dir_000026_000014.html" target="_top" xlink:title="62">
<text text-anchor="middle" x="231.92" y="-140.81" font-family="FreeSans" font-size="10.00">62</text>
</a>
</g>
</g>
<!-- dir_9ef7e4ca5af767b4d78801a8e1d37f3e&#45;&gt;dir_758df28fbdbb54fb46d6d3d6484a4984 -->
<g id="edge13" class="edge">
<title>dir_9ef7e4ca5af767b4d78801a8e1d37f3e&#45;&gt;dir_758df28fbdbb54fb46d6d3d6484a4984</title>
<path fill="none" stroke="black" d="M235.95,-239.61C243.73,-210.09 257.32,-148.29 251,-96 249.98,-87.53 248.07,-78.47 246.02,-70.28"/>
<polygon fill="black" stroke="black" points="249.36,-69.23 243.41,-60.47 242.6,-71.03 249.36,-69.23"/>
<g id="a_edge13&#45;headlabel"><a xlink:href="dir_000026_000144.html" target="_top" xlink:title="72">
<text text-anchor="middle" x="253.03" y="-69.48" font-family="FreeSans" font-size="10.00">72</text>
</a>
</g>
</g>
<!-- dir_9ef7e4ca5af767b4d78801a8e1d37f3e&#45;&gt;dir_64078e4dd55db1ba2b4e557207803e4b -->
<g id="edge10" class="edge">
<title>dir_9ef7e4ca5af767b4d78801a8e1d37f3e&#45;&gt;dir_64078e4dd55db1ba2b4e557207803e4b</title>
<path fill="none" stroke="black" d="M254.73,-239.7C266.94,-230.8 281.99,-219.82 295.18,-210.2"/>
<polygon fill="black" stroke="black" points="297.52,-212.82 303.54,-204.1 293.4,-207.17 297.52,-212.82"/>
<g id="a_edge10&#45;headlabel"><a xlink:href="dir_000026_000044.html" target="_top" xlink:title="26">
<text text-anchor="middle" x="296.29" y="-214.74" font-family="FreeSans" font-size="10.00">26</text>
</a>
</g>
</g>
<!-- dir_6a3dba19d7ed4d02543522954172b2ac -->
<g id="node6" class="node">
<title>dir_6a3dba19d7ed4d02543522954172b2ac</title>
<g id="a_node6"><a xlink:href="dir_6a3dba19d7ed4d02543522954172b2ac.html" target="_top" xlink:title="misc">
<polygon fill="white" stroke="red" points="222,-204 168,-204 168,-168 222,-168 222,-204"/>
<text text-anchor="middle" x="195" y="-183.5" font-family="FreeSans" font-size="10.00">misc</text>
</a>
</g>
</g>
<!-- dir_6a3dba19d7ed4d02543522954172b2ac&#45;&gt;dir_cb2d4e92f47691559fc9d122a5e37fac -->
<g id="edge3" class="edge">
<title>dir_6a3dba19d7ed4d02543522954172b2ac&#45;&gt;dir_cb2d4e92f47691559fc9d122a5e37fac</title>
<path fill="none" stroke="black" d="M199.94,-167.7C202.17,-159.9 204.85,-150.51 207.33,-141.83"/>
<polygon fill="black" stroke="black" points="210.73,-142.68 210.11,-132.1 204,-140.76 210.73,-142.68"/>
<g id="a_edge3&#45;headlabel"><a xlink:href="dir_000051_000014.html" target="_top" xlink:title="1">
<text text-anchor="middle" x="212.47" y="-144.42" font-family="FreeSans" font-size="10.00">1</text>
</a>
</g>
</g>
<!-- dir_cb2d4e92f47691559fc9d122a5e37fac&#45;&gt;dir_758df28fbdbb54fb46d6d3d6484a4984 -->
<g id="edge15" class="edge">
<title>dir_cb2d4e92f47691559fc9d122a5e37fac&#45;&gt;dir_758df28fbdbb54fb46d6d3d6484a4984</title>
<path fill="none" stroke="black" d="M220.69,-95.7C223.25,-87.9 226.33,-78.51 229.18,-69.83"/>
<polygon fill="black" stroke="black" points="232.58,-70.7 232.38,-60.1 225.93,-68.51 232.58,-70.7"/>
<g id="a_edge15&#45;headlabel"><a xlink:href="dir_000014_000144.html" target="_top" xlink:title="3">
<text text-anchor="middle" x="234.16" y="-72.5" font-family="FreeSans" font-size="10.00">3</text>
</a>
</g>
</g>
<!-- dir_64078e4dd55db1ba2b4e557207803e4b&#45;&gt;dir_cb2d4e92f47691559fc9d122a5e37fac -->
<g id="edge2" class="edge">
<title>dir_64078e4dd55db1ba2b4e557207803e4b&#45;&gt;dir_cb2d4e92f47691559fc9d122a5e37fac</title>
<path fill="none" stroke="black" d="M299.89,-168.05C285.14,-158.84 266.71,-147.32 250.79,-137.37"/>
<polygon fill="black" stroke="black" points="252.59,-134.36 242.25,-132.03 248.88,-140.3 252.59,-134.36"/>
<g id="a_edge2&#45;headlabel"><a xlink:href="dir_000044_000014.html" target="_top" xlink:title="76">
<text text-anchor="middle" x="257.14" y="-131.36" font-family="FreeSans" font-size="10.00">76</text>
</a>
</g>
</g>
<!-- dir_64078e4dd55db1ba2b4e557207803e4b&#45;&gt;dir_758df28fbdbb54fb46d6d3d6484a4984 -->
<g id="edge1" class="edge">
<title>dir_64078e4dd55db1ba2b4e557207803e4b&#45;&gt;dir_758df28fbdbb54fb46d6d3d6484a4984</title>
<path fill="none" stroke="black" d="M316.26,-167.87C300.83,-143.24 272.24,-97.64 254.22,-68.88"/>
<polygon fill="black" stroke="black" points="257.05,-66.8 248.77,-60.19 251.12,-70.52 257.05,-66.8"/>
<g id="a_edge1&#45;headlabel"><a xlink:href="dir_000044_000144.html" target="_top" xlink:title="1">
<text text-anchor="middle" x="261.36" y="-65.84" font-family="FreeSans" font-size="10.00">1</text>
</a>
</g>
</g>
</g>
</svg>
