<?xml version="1.0" encoding="UTF-8" standalone="no"?>
<!DOCTYPE svg PUBLIC "-//W3C//DTD SVG 1.1//EN"
 "http://www.w3.org/Graphics/SVG/1.1/DTD/svg11.dtd">
<!-- Generated by graphviz version 2.43.0 (0)
 -->
<!-- Title: src Pages: 1 -->
<svg width="700pt" height="583pt"
 viewBox="0.00 0.00 700.00 583.00" xmlns="http://www.w3.org/2000/svg" xmlns:xlink="http://www.w3.org/1999/xlink">
<g id="graph0" class="graph" transform="scale(1 1) rotate(0) translate(4 579)">
<title>src</title>
<polygon fill="white" stroke="transparent" points="-4,4 -4,-579 696,-579 696,4 -4,4"/>
<g id="clust1" class="cluster">
<title>clusterdir_d14d15cadc30134a390deae00e4dfae9</title>
<g id="a_clust1"><a xlink:href="dir_d14d15cadc30134a390deae00e4dfae9.html" target="_top" xlink:title="Fringe">
<polygon fill="#ddddee" stroke="black" points="288,-424 288,-567 358,-567 358,-424 288,-424"/>
<text text-anchor="middle" x="323" y="-555" font-family="FreeSans" font-size="10.00">Fringe</text>
</a>
</g>
</g>
<!-- dir_99cb44effd617a0e3e19608eb3eacd49 -->
<g id="node1" class="node">
<title>dir_99cb44effd617a0e3e19608eb3eacd49</title>
<g id="a_node1"><a xlink:href="dir_99cb44effd617a0e3e19608eb3eacd49.html" target="_top" xlink:title="include">
<polygon fill="none" stroke="black" points="350,-468 296,-468 296,-432 350,-432 350,-468"/>
<text text-anchor="middle" x="323" y="-447.5" font-family="FreeSans" font-size="10.00">include</text>
</a>
</g>
</g>
<!-- dir_150f406a44a04ce55518da03ec553ece -->
<g id="node3" class="node">
<title>dir_150f406a44a04ce55518da03ec553ece</title>
<g id="a_node3"><a xlink:href="dir_150f406a44a04ce55518da03ec553ece.html" target="_top" xlink:title="Utilities">
<polygon fill="white" stroke="red" points="396,-180 342,-180 342,-144 396,-144 396,-180"/>
<text text-anchor="middle" x="369" y="-159.5" font-family="FreeSans" font-size="10.00">Utilities</text>
</a>
</g>
</g>
<!-- dir_99cb44effd617a0e3e19608eb3eacd49&#45;&gt;dir_150f406a44a04ce55518da03ec553ece -->
<g id="edge23" class="edge">
<title>dir_99cb44effd617a0e3e19608eb3eacd49&#45;&gt;dir_150f406a44a04ce55518da03ec553ece</title>
<path fill="none" stroke="black" d="M325.74,-431.97C333.42,-384.19 355.23,-248.62 364.61,-190.27"/>
<polygon fill="black" stroke="black" points="368.08,-190.74 366.22,-180.31 361.17,-189.62 368.08,-190.74"/>
<g id="a_edge23&#45;headlabel"><a xlink:href="dir_000093_000086.html" target="_top" xlink:title="26">
<text text-anchor="middle" x="370.32" y="-192.24" font-family="FreeSans" font-size="10.00">26</text>
</a>
</g>
</g>
<!-- dir_32348ece3c89569e6a714937ae854c89 -->
<g id="node4" class="node">
<title>dir_32348ece3c89569e6a714937ae854c89</title>
<g id="a_node4"><a xlink:href="dir_32348ece3c89569e6a714937ae854c89.html" target="_top" xlink:title="Message">
<polygon fill="white" stroke="red" points="332,-36 276,-36 276,0 332,0 332,-36"/>
<text text-anchor="middle" x="304" y="-15.5" font-family="FreeSans" font-size="10.00">Message</text>
</a>
</g>
</g>
<!-- dir_99cb44effd617a0e3e19608eb3eacd49&#45;&gt;dir_32348ece3c89569e6a714937ae854c89 -->
<g id="edge24" class="edge">
<title>dir_99cb44effd617a0e3e19608eb3eacd49&#45;&gt;dir_32348ece3c89569e6a714937ae854c89</title>
<path fill="none" stroke="black" d="M295.81,-448.32C259.88,-445.83 197.48,-435.65 166,-396 146.01,-370.82 160.56,-356.11 159,-324 153.52,-211.06 126.36,-162.61 194,-72 211.39,-48.71 241.7,-35.16 266.11,-27.61"/>
<polygon fill="black" stroke="black" points="267.17,-30.94 275.81,-24.81 265.24,-24.21 267.17,-30.94"/>
<g id="a_edge24&#45;headlabel"><a xlink:href="dir_000093_000123.html" target="_top" xlink:title="12">
<text text-anchor="middle" x="264.5" y="-32.16" font-family="FreeSans" font-size="10.00">12</text>
</a>
</g>
</g>
<!-- dir_4546011bd625f1142c4c4ae06dcdb5ba -->
<g id="node5" class="node">
<title>dir_4546011bd625f1142c4c4ae06dcdb5ba</title>
<g id="a_node5"><a xlink:href="dir_4546011bd625f1142c4c4ae06dcdb5ba.html" target="_top" xlink:title="Operators">
<polygon fill="white" stroke="red" points="315.5,-324 256.5,-324 256.5,-288 315.5,-288 315.5,-324"/>
<text text-anchor="middle" x="286" y="-303.5" font-family="FreeSans" font-size="10.00">Operators</text>
</a>
</g>
</g>
<!-- dir_99cb44effd617a0e3e19608eb3eacd49&#45;&gt;dir_4546011bd625f1142c4c4ae06dcdb5ba -->
<g id="edge25" class="edge">
<title>dir_99cb44effd617a0e3e19608eb3eacd49&#45;&gt;dir_4546011bd625f1142c4c4ae06dcdb5ba</title>
<path fill="none" stroke="black" d="M318.44,-431.82C315.69,-421.45 312.13,-407.97 309,-396 303.59,-375.29 297.53,-351.84 292.99,-334.21"/>
<polygon fill="black" stroke="black" points="296.26,-332.88 290.38,-324.07 289.48,-334.63 296.26,-332.88"/>
<g id="a_edge25&#45;headlabel"><a xlink:href="dir_000093_000089.html" target="_top" xlink:title="14">
<text text-anchor="middle" x="299.91" y="-333.15" font-family="FreeSans" font-size="10.00">14</text>
</a>
</g>
</g>
<!-- dir_91ae3e556fa9cad9030b784323206cc7 -->
<g id="node6" class="node">
<title>dir_91ae3e556fa9cad9030b784323206cc7</title>
<g id="a_node6"><a xlink:href="dir_91ae3e556fa9cad9030b784323206cc7.html" target="_top" xlink:title="Calibration">
<polygon fill="white" stroke="red" points="257,-396 195,-396 195,-360 257,-360 257,-396"/>
<text text-anchor="middle" x="226" y="-375.5" font-family="FreeSans" font-size="10.00">Calibration</text>
</a>
</g>
</g>
<!-- dir_99cb44effd617a0e3e19608eb3eacd49&#45;&gt;dir_91ae3e556fa9cad9030b784323206cc7 -->
<g id="edge26" class="edge">
<title>dir_99cb44effd617a0e3e19608eb3eacd49&#45;&gt;dir_91ae3e556fa9cad9030b784323206cc7</title>
<path fill="none" stroke="black" d="M299.02,-431.7C286.69,-422.8 271.48,-411.82 258.15,-402.2"/>
<polygon fill="black" stroke="black" points="259.86,-399.12 249.7,-396.1 255.76,-404.79 259.86,-399.12"/>
<g id="a_edge26&#45;headlabel"><a xlink:href="dir_000093_000102.html" target="_top" xlink:title="5">
<text text-anchor="middle" x="264.44" y="-396.42" font-family="FreeSans" font-size="10.00">5</text>
</a>
</g>
</g>
<!-- dir_a06008c3e245d1092ba6894d6caedef2 -->
<g id="node7" class="node">
<title>dir_a06008c3e245d1092ba6894d6caedef2</title>
<g id="a_node7"><a xlink:href="dir_a06008c3e245d1092ba6894d6caedef2.html" target="_top" xlink:title="Containers">
<polygon fill="white" stroke="red" points="471.5,-252 408.5,-252 408.5,-216 471.5,-216 471.5,-252"/>
<text text-anchor="middle" x="440" y="-231.5" font-family="FreeSans" font-size="10.00">Containers</text>
</a>
</g>
</g>
<!-- dir_99cb44effd617a0e3e19608eb3eacd49&#45;&gt;dir_a06008c3e245d1092ba6894d6caedef2 -->
<g id="edge27" class="edge">
<title>dir_99cb44effd617a0e3e19608eb3eacd49&#45;&gt;dir_a06008c3e245d1092ba6894d6caedef2</title>
<path fill="none" stroke="black" d="M332.38,-431.85C352.79,-394.52 401.35,-305.69 425.64,-261.26"/>
<polygon fill="black" stroke="black" points="428.85,-262.69 430.58,-252.23 422.71,-259.33 428.85,-262.69"/>
<g id="a_edge27&#45;headlabel"><a xlink:href="dir_000093_000096.html" target="_top" xlink:title="15">
<text text-anchor="middle" x="429.62" y="-264.7" font-family="FreeSans" font-size="10.00">15</text>
</a>
</g>
</g>
<!-- dir_b8ce078ed9f8fd90d71e02c796d93353 -->
<g id="node8" class="node">
<title>dir_b8ce078ed9f8fd90d71e02c796d93353</title>
<g id="a_node8"><a xlink:href="dir_b8ce078ed9f8fd90d71e02c796d93353.html" target="_top" xlink:title="Initialization">
<polygon fill="white" stroke="red" points="495,-468 427,-468 427,-432 495,-432 495,-468"/>
<text text-anchor="middle" x="461" y="-447.5" font-family="FreeSans" font-size="10.00">Initialization</text>
</a>
</g>
</g>
<!-- dir_99cb44effd617a0e3e19608eb3eacd49&#45;&gt;dir_b8ce078ed9f8fd90d71e02c796d93353 -->
<g id="edge28" class="edge">
<title>dir_99cb44effd617a0e3e19608eb3eacd49&#45;&gt;dir_b8ce078ed9f8fd90d71e02c796d93353</title>
<path fill="none" stroke="black" d="M350.22,-450C372.36,-450 394.5,-450 416.64,-450"/>
<polygon fill="black" stroke="black" points="416.81,-453.5 426.81,-450 416.81,-446.5 416.81,-453.5"/>
<g id="a_edge28&#45;headlabel"><a xlink:href="dir_000093_000104.html" target="_top" xlink:title="5">
<text text-anchor="middle" x="413.22" y="-453.84" font-family="FreeSans" font-size="10.00">5</text>
</a>
</g>
</g>
<!-- dir_ff42852cc454de79d2ecb9482f4de9d8 -->
<g id="node10" class="node">
<title>dir_ff42852cc454de79d2ecb9482f4de9d8</title>
<g id="a_node10"><a xlink:href="dir_ff42852cc454de79d2ecb9482f4de9d8.html" target="_top" xlink:title="Math">
<polygon fill="white" stroke="red" points="276,-108 222,-108 222,-72 276,-72 276,-108"/>
<text text-anchor="middle" x="249" y="-87.5" font-family="FreeSans" font-size="10.00">Math</text>
</a>
</g>
</g>
<!-- dir_99cb44effd617a0e3e19608eb3eacd49&#45;&gt;dir_ff42852cc454de79d2ecb9482f4de9d8 -->
<g id="edge29" class="edge">
<title>dir_99cb44effd617a0e3e19608eb3eacd49&#45;&gt;dir_ff42852cc454de79d2ecb9482f4de9d8</title>
<path fill="none" stroke="black" d="M295.87,-447.25C263.5,-443.54 210.65,-431.97 186,-396 125.34,-307.49 196.59,-172.92 231.68,-116.89"/>
<polygon fill="black" stroke="black" points="234.75,-118.6 237.18,-108.28 228.85,-114.83 234.75,-118.6"/>
<g id="a_edge29&#45;headlabel"><a xlink:href="dir_000093_000099.html" target="_top" xlink:title="2">
<text text-anchor="middle" x="235.21" y="-120.65" font-family="FreeSans" font-size="10.00">2</text>
</a>
</g>
</g>
<!-- dir_7b90604c2bb76efaeb493a4bf97a39f0 -->
<g id="node2" class="node">
<title>dir_7b90604c2bb76efaeb493a4bf97a39f0</title>
<g id="a_node2"><a xlink:href="dir_7b90604c2bb76efaeb493a4bf97a39f0.html" target="_top" xlink:title="src">
<polygon fill="#eeeeff" stroke="black" points="350,-540 296,-540 296,-504 350,-504 350,-540"/>
<text text-anchor="middle" x="323" y="-519.5" font-family="FreeSans" font-size="10.00">src</text>
</a>
</g>
</g>
<!-- dir_7b90604c2bb76efaeb493a4bf97a39f0&#45;&gt;dir_99cb44effd617a0e3e19608eb3eacd49 -->
<g id="edge34" class="edge">
<title>dir_7b90604c2bb76efaeb493a4bf97a39f0&#45;&gt;dir_99cb44effd617a0e3e19608eb3eacd49</title>
<path fill="none" stroke="black" d="M323,-503.7C323,-495.98 323,-486.71 323,-478.11"/>
<polygon fill="black" stroke="black" points="326.5,-478.1 323,-468.1 319.5,-478.1 326.5,-478.1"/>
<g id="a_edge34&#45;headlabel"><a xlink:href="dir_000092_000093.html" target="_top" xlink:title="37">
<text text-anchor="middle" x="329.34" y="-479.2" font-family="FreeSans" font-size="10.00">37</text>
</a>
</g>
</g>
<!-- dir_7b90604c2bb76efaeb493a4bf97a39f0&#45;&gt;dir_150f406a44a04ce55518da03ec553ece -->
<g id="edge30" class="edge">
<title>dir_7b90604c2bb76efaeb493a4bf97a39f0&#45;&gt;dir_150f406a44a04ce55518da03ec553ece</title>
<path fill="none" stroke="black" d="M350.14,-517.82C400.11,-511.36 503.62,-494.99 526,-468 597.82,-381.4 574.06,-302.4 502,-216 478.15,-187.4 436.65,-174.12 406.34,-168.03"/>
<polygon fill="black" stroke="black" points="406.6,-164.52 396.13,-166.16 405.34,-171.4 406.6,-164.52"/>
<g id="a_edge30&#45;headlabel"><a xlink:href="dir_000092_000086.html" target="_top" xlink:title="9">
<text text-anchor="middle" x="410.65" y="-159.87" font-family="FreeSans" font-size="10.00">9</text>
</a>
</g>
</g>
<!-- dir_7b90604c2bb76efaeb493a4bf97a39f0&#45;&gt;dir_32348ece3c89569e6a714937ae854c89 -->
<g id="edge31" class="edge">
<title>dir_7b90604c2bb76efaeb493a4bf97a39f0&#45;&gt;dir_32348ece3c89569e6a714937ae854c89</title>
<path fill="none" stroke="black" d="M295.74,-521.36C217.87,-520.81 0,-507.79 0,-379 0,-379 0,-379 0,-161 0,-45.04 183.81,-23.56 265.58,-19.74"/>
<polygon fill="black" stroke="black" points="266.09,-23.22 275.95,-19.33 265.81,-16.23 266.09,-23.22"/>
<g id="a_edge31&#45;headlabel"><a xlink:href="dir_000092_000123.html" target="_top" xlink:title="2">
<text text-anchor="middle" x="262.61" y="-23.7" font-family="FreeSans" font-size="10.00">2</text>
</a>
</g>
</g>
<!-- dir_7b90604c2bb76efaeb493a4bf97a39f0&#45;&gt;dir_4546011bd625f1142c4c4ae06dcdb5ba -->
<g id="edge32" class="edge">
<title>dir_7b90604c2bb76efaeb493a4bf97a39f0&#45;&gt;dir_4546011bd625f1142c4c4ae06dcdb5ba</title>
<path fill="none" stroke="black" d="M338.61,-503.77C346.37,-494.03 354.95,-481.18 359,-468 364.75,-449.31 364.38,-442.8 359,-424 349.01,-389.1 325.24,-354.5 307.52,-332.08"/>
<polygon fill="black" stroke="black" points="310.08,-329.68 301.07,-324.11 304.64,-334.09 310.08,-329.68"/>
<g id="a_edge32&#45;headlabel"><a xlink:href="dir_000092_000089.html" target="_top" xlink:title="7">
<text text-anchor="middle" x="314.55" y="-328.19" font-family="FreeSans" font-size="10.00">7</text>
</a>
</g>
</g>
<!-- dir_7b90604c2bb76efaeb493a4bf97a39f0&#45;&gt;dir_91ae3e556fa9cad9030b784323206cc7 -->
<g id="edge33" class="edge">
<title>dir_7b90604c2bb76efaeb493a4bf97a39f0&#45;&gt;dir_91ae3e556fa9cad9030b784323206cc7</title>
<path fill="none" stroke="black" d="M311.3,-503.87C294.4,-479.14 263.05,-433.24 243.43,-404.51"/>
<polygon fill="black" stroke="black" points="246.27,-402.47 237.74,-396.19 240.49,-406.42 246.27,-402.47"/>
<g id="a_edge33&#45;headlabel"><a xlink:href="dir_000092_000102.html" target="_top" xlink:title="9">
<text text-anchor="middle" x="250.64" y="-401.34" font-family="FreeSans" font-size="10.00">9</text>
</a>
</g>
</g>
<!-- dir_7b90604c2bb76efaeb493a4bf97a39f0&#45;&gt;dir_a06008c3e245d1092ba6894d6caedef2 -->
<g id="edge35" class="edge">
<title>dir_7b90604c2bb76efaeb493a4bf97a39f0&#45;&gt;dir_a06008c3e245d1092ba6894d6caedef2</title>
<path fill="none" stroke="black" d="M350.26,-517.04C396.11,-509.76 485.5,-492.7 504,-468 551.97,-403.97 492.95,-306.03 459.73,-260.24"/>
<polygon fill="black" stroke="black" points="462.43,-258.01 453.66,-252.06 456.8,-262.18 462.43,-258.01"/>
<g id="a_edge35&#45;headlabel"><a xlink:href="dir_000092_000096.html" target="_top" xlink:title="8">
<text text-anchor="middle" x="466.85" y="-256.71" font-family="FreeSans" font-size="10.00">8</text>
</a>
</g>
</g>
<!-- dir_7b90604c2bb76efaeb493a4bf97a39f0&#45;&gt;dir_b8ce078ed9f8fd90d71e02c796d93353 -->
<g id="edge36" class="edge">
<title>dir_7b90604c2bb76efaeb493a4bf97a39f0&#45;&gt;dir_b8ce078ed9f8fd90d71e02c796d93353</title>
<path fill="none" stroke="black" d="M350.26,-507.17C369.65,-497.34 396.07,-483.94 418.24,-472.69"/>
<polygon fill="black" stroke="black" points="420.11,-475.66 427.45,-468.02 416.95,-469.42 420.11,-475.66"/>
<g id="a_edge36&#45;headlabel"><a xlink:href="dir_000092_000104.html" target="_top" xlink:title="7">
<text text-anchor="middle" x="418.19" y="-477.32" font-family="FreeSans" font-size="10.00">7</text>
</a>
</g>
</g>
<!-- dir_c845d92bb8a5c5488679fccc6a213ce0 -->
<g id="node9" class="node">
<title>dir_c845d92bb8a5c5488679fccc6a213ce0</title>
<g id="a_node9"><a xlink:href="dir_c845d92bb8a5c5488679fccc6a213ce0.html" target="_top" xlink:title="Control">
<polygon fill="white" stroke="red" points="692,-252 638,-252 638,-216 692,-216 692,-252"/>
<text text-anchor="middle" x="665" y="-231.5" font-family="FreeSans" font-size="10.00">Control</text>
</a>
</g>
</g>
<!-- dir_7b90604c2bb76efaeb493a4bf97a39f0&#45;&gt;dir_c845d92bb8a5c5488679fccc6a213ce0 -->
<g id="edge37" class="edge">
<title>dir_7b90604c2bb76efaeb493a4bf97a39f0&#45;&gt;dir_c845d92bb8a5c5488679fccc6a213ce0</title>
<path fill="none" stroke="black" d="M350.14,-520.53C419.67,-518.73 601.53,-510.02 641,-468 693.93,-411.65 681.48,-310.49 671.57,-262.15"/>
<polygon fill="black" stroke="black" points="674.93,-261.16 669.39,-252.14 668.09,-262.65 674.93,-261.16"/>
<g id="a_edge37&#45;headlabel"><a xlink:href="dir_000092_000112.html" target="_top" xlink:title="7">
<text text-anchor="middle" x="678.47" y="-261.57" font-family="FreeSans" font-size="10.00">7</text>
</a>
</g>
</g>
<!-- dir_7b90604c2bb76efaeb493a4bf97a39f0&#45;&gt;dir_ff42852cc454de79d2ecb9482f4de9d8 -->
<g id="edge38" class="edge">
<title>dir_7b90604c2bb76efaeb493a4bf97a39f0&#45;&gt;dir_ff42852cc454de79d2ecb9482f4de9d8</title>
<path fill="none" stroke="black" d="M295.95,-508.35C259.27,-489.59 195.01,-450.62 166,-396 113.15,-296.47 132.69,-238.55 194,-144 200.88,-133.4 210.26,-123.34 219.32,-114.9"/>
<polygon fill="black" stroke="black" points="221.68,-117.48 226.8,-108.2 217.02,-112.26 221.68,-117.48"/>
<g id="a_edge38&#45;headlabel"><a xlink:href="dir_000092_000099.html" target="_top" xlink:title="6">
<text text-anchor="middle" x="220.9" y="-119.49" font-family="FreeSans" font-size="10.00">6</text>
</a>
</g>
</g>
<!-- dir_150f406a44a04ce55518da03ec553ece&#45;&gt;dir_32348ece3c89569e6a714937ae854c89 -->
<g id="edge14" class="edge">
<title>dir_150f406a44a04ce55518da03ec553ece&#45;&gt;dir_32348ece3c89569e6a714937ae854c89</title>
<path fill="none" stroke="black" d="M361.16,-143.87C349.98,-119.46 329.37,-74.43 316.19,-45.64"/>
<polygon fill="black" stroke="black" points="319.21,-43.83 311.87,-36.19 312.85,-46.74 319.21,-43.83"/>
<g id="a_edge14&#45;headlabel"><a xlink:href="dir_000086_000123.html" target="_top" xlink:title="13">
<text text-anchor="middle" x="323.29" y="-43.41" font-family="FreeSans" font-size="10.00">13</text>
</a>
</g>
</g>
<!-- dir_150f406a44a04ce55518da03ec553ece&#45;&gt;dir_ff42852cc454de79d2ecb9482f4de9d8 -->
<g id="edge15" class="edge">
<title>dir_150f406a44a04ce55518da03ec553ece&#45;&gt;dir_ff42852cc454de79d2ecb9482f4de9d8</title>
<path fill="none" stroke="black" d="M341.93,-148.32C323.81,-138.6 300.03,-124.92 281,-113.37"/>
<polygon fill="black" stroke="black" points="282.71,-110.31 272.36,-108.06 279.05,-116.27 282.71,-110.31"/>
<g id="a_edge15&#45;headlabel"><a xlink:href="dir_000086_000099.html" target="_top" xlink:title="1">
<text text-anchor="middle" x="287.26" y="-107.27" font-family="FreeSans" font-size="10.00">1</text>
</a>
</g>
</g>
<!-- dir_4546011bd625f1142c4c4ae06dcdb5ba&#45;&gt;dir_150f406a44a04ce55518da03ec553ece -->
<g id="edge10" class="edge">
<title>dir_4546011bd625f1142c4c4ae06dcdb5ba&#45;&gt;dir_150f406a44a04ce55518da03ec553ece</title>
<path fill="none" stroke="black" d="M296.48,-287.87C302.77,-277.52 310.91,-264.04 318,-252 330.34,-231.02 344.04,-207.07 354.14,-189.3"/>
<polygon fill="black" stroke="black" points="357.45,-190.55 359.34,-180.13 351.36,-187.1 357.45,-190.55"/>
<g id="a_edge10&#45;headlabel"><a xlink:href="dir_000089_000086.html" target="_top" xlink:title="5">
<text text-anchor="middle" x="358.15" y="-192.58" font-family="FreeSans" font-size="10.00">5</text>
</a>
</g>
</g>
<!-- dir_4546011bd625f1142c4c4ae06dcdb5ba&#45;&gt;dir_32348ece3c89569e6a714937ae854c89 -->
<g id="edge11" class="edge">
<title>dir_4546011bd625f1142c4c4ae06dcdb5ba&#45;&gt;dir_32348ece3c89569e6a714937ae854c89</title>
<path fill="none" stroke="black" d="M287.07,-287.97C290.07,-240.29 298.58,-105.18 302.26,-46.63"/>
<polygon fill="black" stroke="black" points="305.78,-46.51 302.91,-36.31 298.79,-46.07 305.78,-46.51"/>
<g id="a_edge11&#45;headlabel"><a xlink:href="dir_000089_000123.html" target="_top" xlink:title="12">
<text text-anchor="middle" x="308.38" y="-47.77" font-family="FreeSans" font-size="10.00">12</text>
</a>
</g>
</g>
<!-- dir_4546011bd625f1142c4c4ae06dcdb5ba&#45;&gt;dir_a06008c3e245d1092ba6894d6caedef2 -->
<g id="edge12" class="edge">
<title>dir_4546011bd625f1142c4c4ae06dcdb5ba&#45;&gt;dir_a06008c3e245d1092ba6894d6caedef2</title>
<path fill="none" stroke="black" d="M315.69,-291.5C339.36,-280.75 372.75,-265.57 398.97,-253.65"/>
<polygon fill="black" stroke="black" points="400.62,-256.74 408.28,-249.42 397.73,-250.37 400.62,-256.74"/>
<g id="a_edge12&#45;headlabel"><a xlink:href="dir_000089_000096.html" target="_top" xlink:title="22">
<text text-anchor="middle" x="398.52" y="-258.32" font-family="FreeSans" font-size="10.00">22</text>
</a>
</g>
</g>
<!-- dir_4546011bd625f1142c4c4ae06dcdb5ba&#45;&gt;dir_ff42852cc454de79d2ecb9482f4de9d8 -->
<g id="edge13" class="edge">
<title>dir_4546011bd625f1142c4c4ae06dcdb5ba&#45;&gt;dir_ff42852cc454de79d2ecb9482f4de9d8</title>
<path fill="none" stroke="black" d="M283.03,-287.85C276.62,-250.75 261.42,-162.81 253.69,-118.1"/>
<polygon fill="black" stroke="black" points="257.13,-117.49 251.98,-108.23 250.23,-118.68 257.13,-117.49"/>
<g id="a_edge13&#45;headlabel"><a xlink:href="dir_000089_000099.html" target="_top" xlink:title="8">
<text text-anchor="middle" x="260.54" y="-118.05" font-family="FreeSans" font-size="10.00">8</text>
</a>
</g>
</g>
<!-- dir_91ae3e556fa9cad9030b784323206cc7&#45;&gt;dir_150f406a44a04ce55518da03ec553ece -->
<g id="edge2" class="edge">
<title>dir_91ae3e556fa9cad9030b784323206cc7&#45;&gt;dir_150f406a44a04ce55518da03ec553ece</title>
<path fill="none" stroke="black" d="M227.7,-359.69C230.11,-341.06 235.67,-311.01 248,-288 270.21,-246.57 310.14,-209.31 338.03,-186.47"/>
<polygon fill="black" stroke="black" points="340.31,-189.13 345.91,-180.14 335.92,-183.67 340.31,-189.13"/>
<g id="a_edge2&#45;headlabel"><a xlink:href="dir_000102_000086.html" target="_top" xlink:title="29">
<text text-anchor="middle" x="339.29" y="-191.09" font-family="FreeSans" font-size="10.00">29</text>
</a>
</g>
</g>
<!-- dir_91ae3e556fa9cad9030b784323206cc7&#45;&gt;dir_32348ece3c89569e6a714937ae854c89 -->
<g id="edge1" class="edge">
<title>dir_91ae3e556fa9cad9030b784323206cc7&#45;&gt;dir_32348ece3c89569e6a714937ae854c89</title>
<path fill="none" stroke="black" d="M219.39,-359.99C201.6,-311.23 157.67,-168.26 213,-72 224.51,-51.98 246.82,-38.81 266.47,-30.61"/>
<polygon fill="black" stroke="black" points="267.78,-33.85 275.84,-26.97 265.25,-27.32 267.78,-33.85"/>
<g id="a_edge1&#45;headlabel"><a xlink:href="dir_000102_000123.html" target="_top" xlink:title="22">
<text text-anchor="middle" x="265.46" y="-35.3" font-family="FreeSans" font-size="10.00">22</text>
</a>
</g>
</g>
<!-- dir_91ae3e556fa9cad9030b784323206cc7&#45;&gt;dir_4546011bd625f1142c4c4ae06dcdb5ba -->
<g id="edge4" class="edge">
<title>dir_91ae3e556fa9cad9030b784323206cc7&#45;&gt;dir_4546011bd625f1142c4c4ae06dcdb5ba</title>
<path fill="none" stroke="black" d="M240.83,-359.7C248.02,-351.3 256.8,-341.07 264.69,-331.86"/>
<polygon fill="black" stroke="black" points="267.49,-333.97 271.34,-324.1 262.17,-329.42 267.49,-333.97"/>
<g id="a_edge4&#45;headlabel"><a xlink:href="dir_000102_000089.html" target="_top" xlink:title="55">
<text text-anchor="middle" x="267.31" y="-336.05" font-family="FreeSans" font-size="10.00">55</text>
</a>
</g>
</g>
<!-- dir_91ae3e556fa9cad9030b784323206cc7&#45;&gt;dir_a06008c3e245d1092ba6894d6caedef2 -->
<g id="edge3" class="edge">
<title>dir_91ae3e556fa9cad9030b784323206cc7&#45;&gt;dir_a06008c3e245d1092ba6894d6caedef2</title>
<path fill="none" stroke="black" d="M257.09,-362.04C276.98,-352.06 303.08,-338.21 325,-324 356.13,-303.82 389.42,-277.48 412.12,-258.7"/>
<polygon fill="black" stroke="black" points="414.54,-261.24 419.99,-252.15 410.06,-255.87 414.54,-261.24"/>
<g id="a_edge3&#45;headlabel"><a xlink:href="dir_000102_000096.html" target="_top" xlink:title="64">
<text text-anchor="middle" x="413.6" y="-263.23" font-family="FreeSans" font-size="10.00">64</text>
</a>
</g>
</g>
<!-- dir_91ae3e556fa9cad9030b784323206cc7&#45;&gt;dir_ff42852cc454de79d2ecb9482f4de9d8 -->
<g id="edge5" class="edge">
<title>dir_91ae3e556fa9cad9030b784323206cc7&#45;&gt;dir_ff42852cc454de79d2ecb9482f4de9d8</title>
<path fill="none" stroke="black" d="M226.51,-359.92C227.1,-342 228.23,-312.99 230,-288 234.29,-227.33 241.73,-156.36 245.91,-118.35"/>
<polygon fill="black" stroke="black" points="249.43,-118.43 247.05,-108.1 242.47,-117.66 249.43,-118.43"/>
<g id="a_edge5&#45;headlabel"><a xlink:href="dir_000102_000099.html" target="_top" xlink:title="10">
<text text-anchor="middle" x="251.85" y="-119.81" font-family="FreeSans" font-size="10.00">10</text>
</a>
</g>
</g>
<!-- dir_a06008c3e245d1092ba6894d6caedef2&#45;&gt;dir_150f406a44a04ce55518da03ec553ece -->
<g id="edge6" class="edge">
<title>dir_a06008c3e245d1092ba6894d6caedef2&#45;&gt;dir_150f406a44a04ce55518da03ec553ece</title>
<path fill="none" stroke="black" d="M422.45,-215.7C413.77,-207.14 403.14,-196.66 393.65,-187.3"/>
<polygon fill="black" stroke="black" points="395.93,-184.63 386.35,-180.1 391.01,-189.62 395.93,-184.63"/>
<g id="a_edge6&#45;headlabel"><a xlink:href="dir_000096_000086.html" target="_top" xlink:title="42">
<text text-anchor="middle" x="400.48" y="-182.63" font-family="FreeSans" font-size="10.00">42</text>
</a>
</g>
</g>
<!-- dir_a06008c3e245d1092ba6894d6caedef2&#45;&gt;dir_32348ece3c89569e6a714937ae854c89 -->
<g id="edge7" class="edge">
<title>dir_a06008c3e245d1092ba6894d6caedef2&#45;&gt;dir_32348ece3c89569e6a714937ae854c89</title>
<path fill="none" stroke="black" d="M434.87,-215.97C428.98,-197.57 418.38,-167.72 405,-144 385.22,-108.93 375.43,-103.22 350,-72 342.46,-62.74 333.95,-52.81 326.32,-44.07"/>
<polygon fill="black" stroke="black" points="328.84,-41.63 319.61,-36.43 323.58,-46.25 328.84,-41.63"/>
<g id="a_edge7&#45;headlabel"><a xlink:href="dir_000096_000123.html" target="_top" xlink:title="9">
<text text-anchor="middle" x="333.35" y="-39.96" font-family="FreeSans" font-size="10.00">9</text>
</a>
</g>
</g>
<!-- dir_b8ce078ed9f8fd90d71e02c796d93353&#45;&gt;dir_150f406a44a04ce55518da03ec553ece -->
<g id="edge16" class="edge">
<title>dir_b8ce078ed9f8fd90d71e02c796d93353&#45;&gt;dir_150f406a44a04ce55518da03ec553ece</title>
<path fill="none" stroke="black" d="M469.02,-431.83C486.87,-390.82 524.98,-285.46 481,-216 464.65,-190.17 431.93,-176.68 406.06,-169.8"/>
<polygon fill="black" stroke="black" points="406.71,-166.35 396.17,-167.39 405.06,-173.16 406.71,-166.35"/>
<g id="a_edge16&#45;headlabel"><a xlink:href="dir_000104_000086.html" target="_top" xlink:title="44">
<text text-anchor="middle" x="410.88" y="-161.95" font-family="FreeSans" font-size="10.00">44</text>
</a>
</g>
</g>
<!-- dir_b8ce078ed9f8fd90d71e02c796d93353&#45;&gt;dir_32348ece3c89569e6a714937ae854c89 -->
<g id="edge17" class="edge">
<title>dir_b8ce078ed9f8fd90d71e02c796d93353&#45;&gt;dir_32348ece3c89569e6a714937ae854c89</title>
<path fill="none" stroke="black" d="M484.28,-431.86C526.19,-398.84 610,-321.92 610,-235 610,-235 610,-235 610,-161 610,-44.3 424.6,-23.24 342.43,-19.64"/>
<polygon fill="black" stroke="black" points="342.36,-16.13 332.24,-19.26 342.1,-23.13 342.36,-16.13"/>
<g id="a_edge17&#45;headlabel"><a xlink:href="dir_000104_000123.html" target="_top" xlink:title="3">
<text text-anchor="middle" x="346.06" y="-10.93" font-family="FreeSans" font-size="10.00">3</text>
</a>
</g>
</g>
<!-- dir_b8ce078ed9f8fd90d71e02c796d93353&#45;&gt;dir_4546011bd625f1142c4c4ae06dcdb5ba -->
<g id="edge18" class="edge">
<title>dir_b8ce078ed9f8fd90d71e02c796d93353&#45;&gt;dir_4546011bd625f1142c4c4ae06dcdb5ba</title>
<path fill="none" stroke="black" d="M455.63,-431.7C448.7,-411.94 434.86,-379.79 413,-360 388.26,-337.61 352.72,-323.87 325.52,-316.01"/>
<polygon fill="black" stroke="black" points="326.12,-312.55 315.55,-313.28 324.27,-319.3 326.12,-312.55"/>
<g id="a_edge18&#45;headlabel"><a xlink:href="dir_000104_000089.html" target="_top" xlink:title="4">
<text text-anchor="middle" x="330.33" y="-308.26" font-family="FreeSans" font-size="10.00">4</text>
</a>
</g>
</g>
<!-- dir_b8ce078ed9f8fd90d71e02c796d93353&#45;&gt;dir_91ae3e556fa9cad9030b784323206cc7 -->
<g id="edge20" class="edge">
<title>dir_b8ce078ed9f8fd90d71e02c796d93353&#45;&gt;dir_91ae3e556fa9cad9030b784323206cc7</title>
<path fill="none" stroke="black" d="M426.83,-438.82C384.46,-426.2 312.31,-404.71 267,-391.21"/>
<polygon fill="black" stroke="black" points="267.79,-387.8 257.21,-388.3 265.79,-394.51 267.79,-387.8"/>
<g id="a_edge20&#45;headlabel"><a xlink:href="dir_000104_000102.html" target="_top" xlink:title="17">
<text text-anchor="middle" x="272.05" y="-383.6" font-family="FreeSans" font-size="10.00">17</text>
</a>
</g>
</g>
<!-- dir_b8ce078ed9f8fd90d71e02c796d93353&#45;&gt;dir_a06008c3e245d1092ba6894d6caedef2 -->
<g id="edge19" class="edge">
<title>dir_b8ce078ed9f8fd90d71e02c796d93353&#45;&gt;dir_a06008c3e245d1092ba6894d6caedef2</title>
<path fill="none" stroke="black" d="M459.32,-431.85C455.68,-394.83 447.08,-307.18 442.69,-262.39"/>
<polygon fill="black" stroke="black" points="446.15,-261.84 441.69,-252.23 439.18,-262.53 446.15,-261.84"/>
<g id="a_edge19&#45;headlabel"><a xlink:href="dir_000104_000096.html" target="_top" xlink:title="7">
<text text-anchor="middle" x="449.33" y="-262.64" font-family="FreeSans" font-size="10.00">7</text>
</a>
</g>
</g>
<!-- dir_c845d92bb8a5c5488679fccc6a213ce0&#45;&gt;dir_150f406a44a04ce55518da03ec553ece -->
<g id="edge22" class="edge">
<title>dir_c845d92bb8a5c5488679fccc6a213ce0&#45;&gt;dir_150f406a44a04ce55518da03ec553ece</title>
<path fill="none" stroke="black" d="M637.95,-226.6C584.79,-214.03 466.65,-186.09 406.2,-171.8"/>
<polygon fill="black" stroke="black" points="406.85,-168.35 396.31,-169.46 405.24,-175.17 406.85,-168.35"/>
<g id="a_edge22&#45;headlabel"><a xlink:href="dir_000112_000086.html" target="_top" xlink:title="8">
<text text-anchor="middle" x="411" y="-163.92" font-family="FreeSans" font-size="10.00">8</text>
</a>
</g>
</g>
<!-- dir_c845d92bb8a5c5488679fccc6a213ce0&#45;&gt;dir_32348ece3c89569e6a714937ae854c89 -->
<g id="edge21" class="edge">
<title>dir_c845d92bb8a5c5488679fccc6a213ce0&#45;&gt;dir_32348ece3c89569e6a714937ae854c89</title>
<path fill="none" stroke="black" d="M666.2,-215.9C667.51,-182.79 665.22,-109.85 624,-72 583.44,-34.76 418.13,-23.49 342.32,-20.24"/>
<polygon fill="black" stroke="black" points="342.37,-16.74 332.23,-19.83 342.09,-23.73 342.37,-16.74"/>
<g id="a_edge21&#45;headlabel"><a xlink:href="dir_000112_000123.html" target="_top" xlink:title="4">
<text text-anchor="middle" x="346.07" y="-11.55" font-family="FreeSans" font-size="10.00">4</text>
</a>
</g>
</g>
<!-- dir_ff42852cc454de79d2ecb9482f4de9d8&#45;&gt;dir_150f406a44a04ce55518da03ec553ece -->
<g id="edge9" class="edge">
<title>dir_ff42852cc454de79d2ecb9482f4de9d8&#45;&gt;dir_150f406a44a04ce55518da03ec553ece</title>
<path fill="none" stroke="black" d="M276.26,-103.78C294.33,-113.49 317.98,-127.09 336.93,-138.59"/>
<polygon fill="black" stroke="black" points="335.19,-141.63 345.54,-143.88 338.85,-135.66 335.19,-141.63"/>
<g id="a_edge9&#45;headlabel"><a xlink:href="dir_000099_000086.html" target="_top" xlink:title="1">
<text text-anchor="middle" x="330.64" y="-139.67" font-family="FreeSans" font-size="10.00">1</text>
</a>
</g>
</g>
<!-- dir_ff42852cc454de79d2ecb9482f4de9d8&#45;&gt;dir_32348ece3c89569e6a714937ae854c89 -->
<g id="edge8" class="edge">
<title>dir_ff42852cc454de79d2ecb9482f4de9d8&#45;&gt;dir_32348ece3c89569e6a714937ae854c89</title>
<path fill="none" stroke="black" d="M262.6,-71.7C269.12,-63.39 277.07,-53.28 284.25,-44.14"/>
<polygon fill="black" stroke="black" points="287.13,-46.13 290.56,-36.1 281.63,-41.81 287.13,-46.13"/>
<g id="a_edge8&#45;headlabel"><a xlink:href="dir_000099_000123.html" target="_top" xlink:title="6">
<text text-anchor="middle" x="287.15" y="-48.21" font-family="FreeSans" font-size="10.00">6</text>
</a>
</g>
</g>
</g>
</svg>
