<?xml version="1.0" encoding="UTF-8" standalone="no"?>
<!DOCTYPE svg PUBLIC "-//W3C//DTD SVG 1.1//EN"
 "http://www.w3.org/Graphics/SVG/1.1/DTD/svg11.dtd">
<!-- Generated by graphviz version 2.43.0 (0)
 -->
<!-- Title: include Pages: 1 -->
<svg width="209pt" height="367pt"
 viewBox="0.00 0.00 209.02 367.00" xmlns="http://www.w3.org/2000/svg" xmlns:xlink="http://www.w3.org/1999/xlink">
<g id="graph0" class="graph" transform="scale(1 1) rotate(0) translate(4 363)">
<title>include</title>
<polygon fill="white" stroke="transparent" points="-4,4 -4,-363 205.02,-363 205.02,4 -4,4"/>
<g id="clust1" class="cluster">
<title>clusterdir_b8ce078ed9f8fd90d71e02c796d93353</title>
<g id="a_clust1"><a xlink:href="dir_b8ce078ed9f8fd90d71e02c796d93353.html" target="_top" xlink:title="Initialization">
<polygon fill="#ddddee" stroke="black" points="45.52,-280 45.52,-351 115.52,-351 115.52,-280 45.52,-280"/>
<text text-anchor="middle" x="80.52" y="-339" font-family="FreeSans" font-size="10.00">Initialization</text>
</a>
</g>
</g>
<!-- dir_0dc70d85b9b46e117d15d6fa142bde30 -->
<g id="node1" class="node">
<title>dir_0dc70d85b9b46e117d15d6fa142bde30</title>
<g id="a_node1"><a xlink:href="dir_0dc70d85b9b46e117d15d6fa142bde30.html" target="_top" xlink:title="include">
<polygon fill="#eeeeff" stroke="black" points="107.52,-324 53.52,-324 53.52,-288 107.52,-288 107.52,-324"/>
<text text-anchor="middle" x="80.52" y="-303.5" font-family="FreeSans" font-size="10.00">include</text>
</a>
</g>
</g>
<!-- dir_150f406a44a04ce55518da03ec553ece -->
<g id="node2" class="node">
<title>dir_150f406a44a04ce55518da03ec553ece</title>
<g id="a_node2"><a xlink:href="dir_150f406a44a04ce55518da03ec553ece.html" target="_top" xlink:title="Utilities">
<polygon fill="white" stroke="red" points="125.52,-108 71.52,-108 71.52,-72 125.52,-72 125.52,-108"/>
<text text-anchor="middle" x="98.52" y="-87.5" font-family="FreeSans" font-size="10.00">Utilities</text>
</a>
</g>
</g>
<!-- dir_0dc70d85b9b46e117d15d6fa142bde30&#45;&gt;dir_150f406a44a04ce55518da03ec553ece -->
<g id="edge6" class="edge">
<title>dir_0dc70d85b9b46e117d15d6fa142bde30&#45;&gt;dir_150f406a44a04ce55518da03ec553ece</title>
<path fill="none" stroke="black" d="M83.93,-287.88C85.87,-277.54 88.17,-264.06 89.52,-252 94.76,-205.46 96.99,-151 97.92,-118.84"/>
<polygon fill="black" stroke="black" points="101.43,-118.53 98.19,-108.45 94.43,-118.35 101.43,-118.53"/>
<g id="a_edge6&#45;headlabel"><a xlink:href="dir_000106_000086.html" target="_top" xlink:title="7">
<text text-anchor="middle" x="104.17" y="-119.7" font-family="FreeSans" font-size="10.00">7</text>
</a>
</g>
</g>
<!-- dir_32348ece3c89569e6a714937ae854c89 -->
<g id="node3" class="node">
<title>dir_32348ece3c89569e6a714937ae854c89</title>
<g id="a_node3"><a xlink:href="dir_32348ece3c89569e6a714937ae854c89.html" target="_top" xlink:title="Message">
<polygon fill="white" stroke="red" points="93.52,-36 37.52,-36 37.52,0 93.52,0 93.52,-36"/>
<text text-anchor="middle" x="65.52" y="-15.5" font-family="FreeSans" font-size="10.00">Message</text>
</a>
</g>
</g>
<!-- dir_0dc70d85b9b46e117d15d6fa142bde30&#45;&gt;dir_32348ece3c89569e6a714937ae854c89 -->
<g id="edge7" class="edge">
<title>dir_0dc70d85b9b46e117d15d6fa142bde30&#45;&gt;dir_32348ece3c89569e6a714937ae854c89</title>
<path fill="none" stroke="black" d="M53.18,-291.62C38.2,-282.67 21,-269.35 12.52,-252 -21.64,-182.05 22.76,-89.46 48.9,-45"/>
<polygon fill="black" stroke="black" points="52,-46.64 54.17,-36.27 46.01,-43.02 52,-46.64"/>
<g id="a_edge7&#45;headlabel"><a xlink:href="dir_000106_000123.html" target="_top" xlink:title="3">
<text text-anchor="middle" x="52.57" y="-48.68" font-family="FreeSans" font-size="10.00">3</text>
</a>
</g>
</g>
<!-- dir_4546011bd625f1142c4c4ae06dcdb5ba -->
<g id="node4" class="node">
<title>dir_4546011bd625f1142c4c4ae06dcdb5ba</title>
<g id="a_node4"><a xlink:href="dir_4546011bd625f1142c4c4ae06dcdb5ba.html" target="_top" xlink:title="Operators">
<polygon fill="white" stroke="red" points="81.02,-252 22.02,-252 22.02,-216 81.02,-216 81.02,-252"/>
<text text-anchor="middle" x="51.52" y="-231.5" font-family="FreeSans" font-size="10.00">Operators</text>
</a>
</g>
</g>
<!-- dir_0dc70d85b9b46e117d15d6fa142bde30&#45;&gt;dir_4546011bd625f1142c4c4ae06dcdb5ba -->
<g id="edge8" class="edge">
<title>dir_0dc70d85b9b46e117d15d6fa142bde30&#45;&gt;dir_4546011bd625f1142c4c4ae06dcdb5ba</title>
<path fill="none" stroke="black" d="M73.35,-287.7C70.09,-279.81 66.15,-270.3 62.52,-261.55"/>
<polygon fill="black" stroke="black" points="65.67,-260 58.61,-252.1 59.2,-262.68 65.67,-260"/>
<g id="a_edge8&#45;headlabel"><a xlink:href="dir_000106_000089.html" target="_top" xlink:title="3">
<text text-anchor="middle" x="69.67" y="-259.74" font-family="FreeSans" font-size="10.00">3</text>
</a>
</g>
</g>
<!-- dir_a06008c3e245d1092ba6894d6caedef2 -->
<g id="node5" class="node">
<title>dir_a06008c3e245d1092ba6894d6caedef2</title>
<g id="a_node5"><a xlink:href="dir_a06008c3e245d1092ba6894d6caedef2.html" target="_top" xlink:title="Containers">
<polygon fill="white" stroke="red" points="201.02,-180 138.02,-180 138.02,-144 201.02,-144 201.02,-180"/>
<text text-anchor="middle" x="169.52" y="-159.5" font-family="FreeSans" font-size="10.00">Containers</text>
</a>
</g>
</g>
<!-- dir_0dc70d85b9b46e117d15d6fa142bde30&#45;&gt;dir_a06008c3e245d1092ba6894d6caedef2 -->
<g id="edge9" class="edge">
<title>dir_0dc70d85b9b46e117d15d6fa142bde30&#45;&gt;dir_a06008c3e245d1092ba6894d6caedef2</title>
<path fill="none" stroke="black" d="M96.2,-287.54C104.81,-277.53 115.35,-264.49 123.52,-252 136.62,-231.98 148.92,-207.79 157.5,-189.68"/>
<polygon fill="black" stroke="black" points="160.82,-190.85 161.87,-180.31 154.47,-187.9 160.82,-190.85"/>
<g id="a_edge9&#45;headlabel"><a xlink:href="dir_000106_000096.html" target="_top" xlink:title="5">
<text text-anchor="middle" x="161.87" y="-192.81" font-family="FreeSans" font-size="10.00">5</text>
</a>
</g>
</g>
<!-- dir_150f406a44a04ce55518da03ec553ece&#45;&gt;dir_32348ece3c89569e6a714937ae854c89 -->
<g id="edge10" class="edge">
<title>dir_150f406a44a04ce55518da03ec553ece&#45;&gt;dir_32348ece3c89569e6a714937ae854c89</title>
<path fill="none" stroke="black" d="M90.37,-71.7C86.61,-63.73 82.07,-54.1 77.91,-45.26"/>
<polygon fill="black" stroke="black" points="81.02,-43.66 73.59,-36.1 74.69,-46.64 81.02,-43.66"/>
<g id="a_edge10&#45;headlabel"><a xlink:href="dir_000086_000123.html" target="_top" xlink:title="13">
<text text-anchor="middle" x="85.12" y="-43.2" font-family="FreeSans" font-size="10.00">13</text>
</a>
</g>
</g>
<!-- dir_4546011bd625f1142c4c4ae06dcdb5ba&#45;&gt;dir_150f406a44a04ce55518da03ec553ece -->
<g id="edge3" class="edge">
<title>dir_4546011bd625f1142c4c4ae06dcdb5ba&#45;&gt;dir_150f406a44a04ce55518da03ec553ece</title>
<path fill="none" stroke="black" d="M57.19,-215.87C65.24,-191.56 80.05,-146.82 89.58,-118.01"/>
<polygon fill="black" stroke="black" points="93.01,-118.78 92.83,-108.19 86.37,-116.58 93.01,-118.78"/>
<g id="a_edge3&#45;headlabel"><a xlink:href="dir_000089_000086.html" target="_top" xlink:title="5">
<text text-anchor="middle" x="94.58" y="-120.59" font-family="FreeSans" font-size="10.00">5</text>
</a>
</g>
</g>
<!-- dir_4546011bd625f1142c4c4ae06dcdb5ba&#45;&gt;dir_32348ece3c89569e6a714937ae854c89 -->
<g id="edge4" class="edge">
<title>dir_4546011bd625f1142c4c4ae06dcdb5ba&#45;&gt;dir_32348ece3c89569e6a714937ae854c89</title>
<path fill="none" stroke="black" d="M52.65,-215.85C55.07,-178.83 60.8,-91.18 63.73,-46.39"/>
<polygon fill="black" stroke="black" points="67.24,-46.44 64.4,-36.23 60.25,-45.98 67.24,-46.44"/>
<g id="a_edge4&#45;headlabel"><a xlink:href="dir_000089_000123.html" target="_top" xlink:title="12">
<text text-anchor="middle" x="69.83" y="-47.71" font-family="FreeSans" font-size="10.00">12</text>
</a>
</g>
</g>
<!-- dir_4546011bd625f1142c4c4ae06dcdb5ba&#45;&gt;dir_a06008c3e245d1092ba6894d6caedef2 -->
<g id="edge5" class="edge">
<title>dir_4546011bd625f1142c4c4ae06dcdb5ba&#45;&gt;dir_a06008c3e245d1092ba6894d6caedef2</title>
<path fill="none" stroke="black" d="M80.39,-215.88C95.82,-206.72 115,-195.34 131.62,-185.48"/>
<polygon fill="black" stroke="black" points="133.73,-188.3 140.55,-180.19 130.16,-182.28 133.73,-188.3"/>
<g id="a_edge5&#45;headlabel"><a xlink:href="dir_000089_000096.html" target="_top" xlink:title="22">
<text text-anchor="middle" x="132.09" y="-190.08" font-family="FreeSans" font-size="10.00">22</text>
</a>
</g>
</g>
<!-- dir_a06008c3e245d1092ba6894d6caedef2&#45;&gt;dir_150f406a44a04ce55518da03ec553ece -->
<g id="edge1" class="edge">
<title>dir_a06008c3e245d1092ba6894d6caedef2&#45;&gt;dir_150f406a44a04ce55518da03ec553ece</title>
<path fill="none" stroke="black" d="M151.97,-143.7C143.29,-135.14 132.66,-124.66 123.18,-115.3"/>
<polygon fill="black" stroke="black" points="125.45,-112.63 115.87,-108.1 120.54,-117.62 125.45,-112.63"/>
<g id="a_edge1&#45;headlabel"><a xlink:href="dir_000096_000086.html" target="_top" xlink:title="42">
<text text-anchor="middle" x="130" y="-110.63" font-family="FreeSans" font-size="10.00">42</text>
</a>
</g>
</g>
<!-- dir_a06008c3e245d1092ba6894d6caedef2&#45;&gt;dir_32348ece3c89569e6a714937ae854c89 -->
<g id="edge2" class="edge">
<title>dir_a06008c3e245d1092ba6894d6caedef2&#45;&gt;dir_32348ece3c89569e6a714937ae854c89</title>
<path fill="none" stroke="black" d="M165.73,-143.9C160.89,-124.9 151.1,-94.02 134.52,-72 125.68,-60.25 113.58,-49.77 101.98,-41.3"/>
<polygon fill="black" stroke="black" points="103.88,-38.35 93.68,-35.49 99.87,-44.09 103.88,-38.35"/>
<g id="a_edge2&#45;headlabel"><a xlink:href="dir_000096_000123.html" target="_top" xlink:title="9">
<text text-anchor="middle" x="108.45" y="-35.59" font-family="FreeSans" font-size="10.00">9</text>
</a>
</g>
</g>
</g>
</svg>
