<?xml version="1.0" encoding="UTF-8" standalone="no"?>
<!DOCTYPE svg PUBLIC "-//W3C//DTD SVG 1.1//EN"
 "http://www.w3.org/Graphics/SVG/1.1/DTD/svg11.dtd">
<!-- Generated by graphviz version 2.43.0 (0)
 -->
<!-- Title: fourfit Pages: 1 -->
<svg width="260pt" height="367pt"
 viewBox="0.00 0.00 260.21 367.00" xmlns="http://www.w3.org/2000/svg" xmlns:xlink="http://www.w3.org/1999/xlink">
<g id="graph0" class="graph" transform="scale(1 1) rotate(0) translate(4 363)">
<title>fourfit</title>
<polygon fill="white" stroke="transparent" points="-4,4 -4,-363 256.21,-363 256.21,4 -4,4"/>
<g id="clust1" class="cluster">
<title>clusterdir_9de42bc92121356a26b664e34e3ff194</title>
<g id="a_clust1"><a xlink:href="dir_9de42bc92121356a26b664e34e3ff194.html" target="_top" xlink:title="applications">
<polygon fill="#ddddee" stroke="black" points="72.21,-280 72.21,-351 142.21,-351 142.21,-280 72.21,-280"/>
<text text-anchor="middle" x="107.21" y="-339" font-family="FreeSans" font-size="10.00">applications</text>
</a>
</g>
</g>
<!-- dir_cebca0613dcb0ce3fb6e28f86b332494 -->
<g id="node1" class="node">
<title>dir_cebca0613dcb0ce3fb6e28f86b332494</title>
<g id="a_node1"><a xlink:href="dir_cebca0613dcb0ce3fb6e28f86b332494.html" target="_top" xlink:title="fourfit">
<polygon fill="#eeeeff" stroke="black" points="134.21,-324 80.21,-324 80.21,-288 134.21,-288 134.21,-324"/>
<text text-anchor="middle" x="107.21" y="-303.5" font-family="FreeSans" font-size="10.00">fourfit</text>
</a>
</g>
</g>
<!-- dir_64078e4dd55db1ba2b4e557207803e4b -->
<g id="node2" class="node">
<title>dir_64078e4dd55db1ba2b4e557207803e4b</title>
<g id="a_node2"><a xlink:href="dir_64078e4dd55db1ba2b4e557207803e4b.html" target="_top" xlink:title="vex">
<polygon fill="white" stroke="red" points="66.21,-180 12.21,-180 12.21,-144 66.21,-144 66.21,-180"/>
<text text-anchor="middle" x="39.21" y="-159.5" font-family="FreeSans" font-size="10.00">vex</text>
</a>
</g>
</g>
<!-- dir_cebca0613dcb0ce3fb6e28f86b332494&#45;&gt;dir_64078e4dd55db1ba2b4e557207803e4b -->
<g id="edge7" class="edge">
<title>dir_cebca0613dcb0ce3fb6e28f86b332494&#45;&gt;dir_64078e4dd55db1ba2b4e557207803e4b</title>
<path fill="none" stroke="black" d="M91.89,-287.87C83.66,-277.95 73.86,-264.91 67.21,-252 57.04,-232.26 49.73,-208.14 45.14,-189.99"/>
<polygon fill="black" stroke="black" points="48.49,-188.97 42.75,-180.07 41.69,-190.61 48.49,-188.97"/>
<g id="a_edge7&#45;headlabel"><a xlink:href="dir_000075_000044.html" target="_top" xlink:title="1">
<text text-anchor="middle" x="52.1" y="-189.3" font-family="FreeSans" font-size="10.00">1</text>
</a>
</g>
</g>
<!-- dir_758df28fbdbb54fb46d6d3d6484a4984 -->
<g id="node3" class="node">
<title>dir_758df28fbdbb54fb46d6d3d6484a4984</title>
<g id="a_node3"><a xlink:href="dir_758df28fbdbb54fb46d6d3d6484a4984.html" target="_top" xlink:title="msg">
<polygon fill="white" stroke="red" points="121.21,-36 67.21,-36 67.21,0 121.21,0 121.21,-36"/>
<text text-anchor="middle" x="94.21" y="-15.5" font-family="FreeSans" font-size="10.00">msg</text>
</a>
</g>
</g>
<!-- dir_cebca0613dcb0ce3fb6e28f86b332494&#45;&gt;dir_758df28fbdbb54fb46d6d3d6484a4984 -->
<g id="edge8" class="edge">
<title>dir_cebca0613dcb0ce3fb6e28f86b332494&#45;&gt;dir_758df28fbdbb54fb46d6d3d6484a4984</title>
<path fill="none" stroke="black" d="M84.44,-287.75C58.12,-266.07 16.67,-226.07 3.21,-180 -12.21,-127.22 33.73,-73 65.83,-42.89"/>
<polygon fill="black" stroke="black" points="68.22,-45.45 73.25,-36.13 63.5,-40.28 68.22,-45.45"/>
<g id="a_edge8&#45;headlabel"><a xlink:href="dir_000075_000144.html" target="_top" xlink:title="1">
<text text-anchor="middle" x="67.48" y="-47.47" font-family="FreeSans" font-size="10.00">1</text>
</a>
</g>
</g>
<!-- dir_9ef7e4ca5af767b4d78801a8e1d37f3e -->
<g id="node4" class="node">
<title>dir_9ef7e4ca5af767b4d78801a8e1d37f3e</title>
<g id="a_node4"><a xlink:href="dir_9ef7e4ca5af767b4d78801a8e1d37f3e.html" target="_top" xlink:title="fourfit_libs">
<polygon fill="white" stroke="red" points="137.71,-252 76.71,-252 76.71,-216 137.71,-216 137.71,-252"/>
<text text-anchor="middle" x="107.21" y="-231.5" font-family="FreeSans" font-size="10.00">fourfit_libs</text>
</a>
</g>
</g>
<!-- dir_cebca0613dcb0ce3fb6e28f86b332494&#45;&gt;dir_9ef7e4ca5af767b4d78801a8e1d37f3e -->
<g id="edge9" class="edge">
<title>dir_cebca0613dcb0ce3fb6e28f86b332494&#45;&gt;dir_9ef7e4ca5af767b4d78801a8e1d37f3e</title>
<path fill="none" stroke="black" d="M107.21,-287.7C107.21,-279.98 107.21,-270.71 107.21,-262.11"/>
<polygon fill="black" stroke="black" points="110.71,-262.1 107.21,-252.1 103.71,-262.1 110.71,-262.1"/>
<g id="a_edge9&#45;headlabel"><a xlink:href="dir_000075_000026.html" target="_top" xlink:title="9">
<text text-anchor="middle" x="113.55" y="-263.2" font-family="FreeSans" font-size="10.00">9</text>
</a>
</g>
</g>
<!-- dir_cb2d4e92f47691559fc9d122a5e37fac -->
<g id="node5" class="node">
<title>dir_cb2d4e92f47691559fc9d122a5e37fac</title>
<g id="a_node5"><a xlink:href="dir_cb2d4e92f47691559fc9d122a5e37fac.html" target="_top" xlink:title="mk4util">
<polygon fill="white" stroke="red" points="176.21,-108 122.21,-108 122.21,-72 176.21,-72 176.21,-108"/>
<text text-anchor="middle" x="149.21" y="-87.5" font-family="FreeSans" font-size="10.00">mk4util</text>
</a>
</g>
</g>
<!-- dir_cebca0613dcb0ce3fb6e28f86b332494&#45;&gt;dir_cb2d4e92f47691559fc9d122a5e37fac -->
<g id="edge10" class="edge">
<title>dir_cebca0613dcb0ce3fb6e28f86b332494&#45;&gt;dir_cb2d4e92f47691559fc9d122a5e37fac</title>
<path fill="none" stroke="black" d="M124,-287.96C132.37,-278.27 141.67,-265.42 146.21,-252 161.44,-207.04 157.78,-150.89 153.6,-118.17"/>
<polygon fill="black" stroke="black" points="157.03,-117.45 152.18,-108.03 150.1,-118.41 157.03,-117.45"/>
<g id="a_edge10&#45;headlabel"><a xlink:href="dir_000075_000014.html" target="_top" xlink:title="3">
<text text-anchor="middle" x="160.34" y="-118.12" font-family="FreeSans" font-size="10.00">3</text>
</a>
</g>
</g>
<!-- dir_db8d68003073a61b7114dbc4f792cfed -->
<g id="node6" class="node">
<title>dir_db8d68003073a61b7114dbc4f792cfed</title>
<g id="a_node6"><a xlink:href="dir_db8d68003073a61b7114dbc4f792cfed.html" target="_top" xlink:title="dfio">
<polygon fill="white" stroke="red" points="252.21,-180 198.21,-180 198.21,-144 252.21,-144 252.21,-180"/>
<text text-anchor="middle" x="225.21" y="-159.5" font-family="FreeSans" font-size="10.00">dfio</text>
</a>
</g>
</g>
<!-- dir_cebca0613dcb0ce3fb6e28f86b332494&#45;&gt;dir_db8d68003073a61b7114dbc4f792cfed -->
<g id="edge11" class="edge">
<title>dir_cebca0613dcb0ce3fb6e28f86b332494&#45;&gt;dir_db8d68003073a61b7114dbc4f792cfed</title>
<path fill="none" stroke="black" d="M134.56,-291.06C150.68,-281.76 170.52,-268.26 184.21,-252 199.63,-233.69 210.48,-208.62 217.14,-189.75"/>
<polygon fill="black" stroke="black" points="220.46,-190.85 220.32,-180.26 213.82,-188.63 220.46,-190.85"/>
<g id="a_edge11&#45;headlabel"><a xlink:href="dir_000075_000024.html" target="_top" xlink:title="2">
<text text-anchor="middle" x="222.01" y="-192.66" font-family="FreeSans" font-size="10.00">2</text>
</a>
</g>
</g>
<!-- dir_64078e4dd55db1ba2b4e557207803e4b&#45;&gt;dir_758df28fbdbb54fb46d6d3d6484a4984 -->
<g id="edge1" class="edge">
<title>dir_64078e4dd55db1ba2b4e557207803e4b&#45;&gt;dir_758df28fbdbb54fb46d6d3d6484a4984</title>
<path fill="none" stroke="black" d="M45.84,-143.87C55.3,-119.46 72.74,-74.43 83.89,-45.64"/>
<polygon fill="black" stroke="black" points="87.2,-46.78 87.55,-36.19 80.68,-44.25 87.2,-46.78"/>
<g id="a_edge1&#45;headlabel"><a xlink:href="dir_000044_000144.html" target="_top" xlink:title="1">
<text text-anchor="middle" x="88.55" y="-48.66" font-family="FreeSans" font-size="10.00">1</text>
</a>
</g>
</g>
<!-- dir_64078e4dd55db1ba2b4e557207803e4b&#45;&gt;dir_cb2d4e92f47691559fc9d122a5e37fac -->
<g id="edge2" class="edge">
<title>dir_64078e4dd55db1ba2b4e557207803e4b&#45;&gt;dir_cb2d4e92f47691559fc9d122a5e37fac</title>
<path fill="none" stroke="black" d="M66.12,-143.88C80.37,-134.81 98.06,-123.55 113.45,-113.76"/>
<polygon fill="black" stroke="black" points="115.64,-116.51 122.2,-108.19 111.88,-110.61 115.64,-116.51"/>
<g id="a_edge2&#45;headlabel"><a xlink:href="dir_000044_000014.html" target="_top" xlink:title="76">
<text text-anchor="middle" x="114.13" y="-118.34" font-family="FreeSans" font-size="10.00">76</text>
</a>
</g>
</g>
<!-- dir_9ef7e4ca5af767b4d78801a8e1d37f3e&#45;&gt;dir_64078e4dd55db1ba2b4e557207803e4b -->
<g id="edge3" class="edge">
<title>dir_9ef7e4ca5af767b4d78801a8e1d37f3e&#45;&gt;dir_64078e4dd55db1ba2b4e557207803e4b</title>
<path fill="none" stroke="black" d="M90.4,-215.7C82.08,-207.14 71.91,-196.66 62.82,-187.3"/>
<polygon fill="black" stroke="black" points="65.3,-184.84 55.83,-180.1 60.28,-189.72 65.3,-184.84"/>
<g id="a_edge3&#45;headlabel"><a xlink:href="dir_000026_000044.html" target="_top" xlink:title="26">
<text text-anchor="middle" x="69.85" y="-182.94" font-family="FreeSans" font-size="10.00">26</text>
</a>
</g>
</g>
<!-- dir_9ef7e4ca5af767b4d78801a8e1d37f3e&#45;&gt;dir_758df28fbdbb54fb46d6d3d6484a4984 -->
<g id="edge6" class="edge">
<title>dir_9ef7e4ca5af767b4d78801a8e1d37f3e&#45;&gt;dir_758df28fbdbb54fb46d6d3d6484a4984</title>
<path fill="none" stroke="black" d="M106.17,-215.85C103.92,-178.83 98.6,-91.18 95.87,-46.39"/>
<polygon fill="black" stroke="black" points="99.36,-46 95.26,-36.23 92.37,-46.43 99.36,-46"/>
<g id="a_edge6&#45;headlabel"><a xlink:href="dir_000026_000144.html" target="_top" xlink:title="72">
<text text-anchor="middle" x="102.41" y="-46.92" font-family="FreeSans" font-size="10.00">72</text>
</a>
</g>
</g>
<!-- dir_9ef7e4ca5af767b4d78801a8e1d37f3e&#45;&gt;dir_cb2d4e92f47691559fc9d122a5e37fac -->
<g id="edge4" class="edge">
<title>dir_9ef7e4ca5af767b4d78801a8e1d37f3e&#45;&gt;dir_cb2d4e92f47691559fc9d122a5e37fac</title>
<path fill="none" stroke="black" d="M112.28,-215.87C119.47,-191.56 132.7,-146.82 141.22,-118.01"/>
<polygon fill="black" stroke="black" points="144.65,-118.77 144.13,-108.19 137.93,-116.79 144.65,-118.77"/>
<g id="a_edge4&#45;headlabel"><a xlink:href="dir_000026_000014.html" target="_top" xlink:title="62">
<text text-anchor="middle" x="146.35" y="-120.52" font-family="FreeSans" font-size="10.00">62</text>
</a>
</g>
</g>
<!-- dir_9ef7e4ca5af767b4d78801a8e1d37f3e&#45;&gt;dir_db8d68003073a61b7114dbc4f792cfed -->
<g id="edge5" class="edge">
<title>dir_9ef7e4ca5af767b4d78801a8e1d37f3e&#45;&gt;dir_db8d68003073a61b7114dbc4f792cfed</title>
<path fill="none" stroke="black" d="M136.08,-215.88C151.97,-206.45 171.84,-194.66 188.79,-184.61"/>
<polygon fill="black" stroke="black" points="191.04,-187.34 197.86,-179.23 187.47,-181.32 191.04,-187.34"/>
<g id="a_edge5&#45;headlabel"><a xlink:href="dir_000026_000024.html" target="_top" xlink:title="81">
<text text-anchor="middle" x="189.4" y="-189.11" font-family="FreeSans" font-size="10.00">81</text>
</a>
</g>
</g>
<!-- dir_cb2d4e92f47691559fc9d122a5e37fac&#45;&gt;dir_758df28fbdbb54fb46d6d3d6484a4984 -->
<g id="edge12" class="edge">
<title>dir_cb2d4e92f47691559fc9d122a5e37fac&#45;&gt;dir_758df28fbdbb54fb46d6d3d6484a4984</title>
<path fill="none" stroke="black" d="M135.62,-71.7C129.09,-63.39 121.14,-53.28 113.96,-44.14"/>
<polygon fill="black" stroke="black" points="116.58,-41.81 107.65,-36.1 111.08,-46.13 116.58,-41.81"/>
<g id="a_edge12&#45;headlabel"><a xlink:href="dir_000014_000144.html" target="_top" xlink:title="3">
<text text-anchor="middle" x="121.03" y="-40.38" font-family="FreeSans" font-size="10.00">3</text>
</a>
</g>
</g>
<!-- dir_db8d68003073a61b7114dbc4f792cfed&#45;&gt;dir_758df28fbdbb54fb46d6d3d6484a4984 -->
<g id="edge14" class="edge">
<title>dir_db8d68003073a61b7114dbc4f792cfed&#45;&gt;dir_758df28fbdbb54fb46d6d3d6484a4984</title>
<path fill="none" stroke="black" d="M220.93,-143.83C215.39,-124.49 204.14,-93.03 185.21,-72 170.32,-55.45 149,-42.66 130.74,-33.78"/>
<polygon fill="black" stroke="black" points="132.07,-30.54 121.53,-29.5 129.12,-36.89 132.07,-30.54"/>
<g id="a_edge14&#45;headlabel"><a xlink:href="dir_000024_000144.html" target="_top" xlink:title="1">
<text text-anchor="middle" x="136.53" y="-26.98" font-family="FreeSans" font-size="10.00">1</text>
</a>
</g>
</g>
<!-- dir_db8d68003073a61b7114dbc4f792cfed&#45;&gt;dir_cb2d4e92f47691559fc9d122a5e37fac -->
<g id="edge13" class="edge">
<title>dir_db8d68003073a61b7114dbc4f792cfed&#45;&gt;dir_cb2d4e92f47691559fc9d122a5e37fac</title>
<path fill="none" stroke="black" d="M206.42,-143.7C197.04,-135.05 185.53,-124.45 175.3,-115.03"/>
<polygon fill="black" stroke="black" points="177.51,-112.3 167.78,-108.1 172.77,-117.45 177.51,-112.3"/>
<g id="a_edge13&#45;headlabel"><a xlink:href="dir_000024_000014.html" target="_top" xlink:title="117">
<text text-anchor="middle" x="182.08" y="-110.15" font-family="FreeSans" font-size="10.00">117</text>
</a>
</g>
</g>
</g>
</svg>
