<?xml version="1.0" encoding="UTF-8" standalone="no"?>
<!DOCTYPE svg PUBLIC "-//W3C//DTD SVG 1.1//EN"
 "http://www.w3.org/Graphics/SVG/1.1/DTD/svg11.dtd">
<!-- Generated by graphviz version 2.43.0 (0)
 -->
<!-- Title: fplot Pages: 1 -->
<svg width="208pt" height="375pt"
 viewBox="0.00 0.00 208.25 375.00" xmlns="http://www.w3.org/2000/svg" xmlns:xlink="http://www.w3.org/1999/xlink">
<g id="graph0" class="graph" transform="scale(1 1) rotate(0) translate(4 371)">
<title>fplot</title>
<polygon fill="white" stroke="transparent" points="-4,4 -4,-371 204.25,-371 204.25,4 -4,4"/>
<g id="clust1" class="cluster">
<title>clusterdir_9de42bc92121356a26b664e34e3ff194</title>
<g id="a_clust1"><a xlink:href="dir_9de42bc92121356a26b664e34e3ff194.html" target="_top" xlink:title="applications">
<polygon fill="#ddddee" stroke="black" points="8,-200 8,-359 166,-359 166,-200 8,-200"/>
<text text-anchor="middle" x="87" y="-347" font-family="FreeSans" font-size="10.00">applications</text>
</a>
</g>
</g>
<g id="clust2" class="cluster">
<title>clusterdir_83ee83338e970cd0afba3d801181149d</title>
<g id="a_clust2"><a xlink:href="dir_83ee83338e970cd0afba3d801181149d.html" target="_top">
<polygon fill="#eeeeff" stroke="black" points="16,-208 16,-332 158,-332 158,-208 16,-208"/>
</a>
</g>
</g>
<!-- dir_83ee83338e970cd0afba3d801181149d -->
<g id="node1" class="node">
<title>dir_83ee83338e970cd0afba3d801181149d</title>
<text text-anchor="middle" x="51" y="-303.5" font-family="FreeSans" font-size="10.00">fplot</text>
</g>
<!-- dir_be1673e5112679701f144c4cb4ba6a98 -->
<g id="node2" class="node">
<title>dir_be1673e5112679701f144c4cb4ba6a98</title>
<g id="a_node2"><a xlink:href="dir_be1673e5112679701f144c4cb4ba6a98.html" target="_top" xlink:title="include">
<polygon fill="white" stroke="black" points="114,-252 60,-252 60,-216 114,-216 114,-252"/>
<text text-anchor="middle" x="87" y="-231.5" font-family="FreeSans" font-size="10.00">include</text>
</a>
</g>
</g>
<!-- dir_83ee83338e970cd0afba3d801181149d&#45;&gt;dir_be1673e5112679701f144c4cb4ba6a98 -->
<g id="edge8" class="edge">
<title>dir_83ee83338e970cd0afba3d801181149d&#45;&gt;dir_be1673e5112679701f144c4cb4ba6a98</title>
<path fill="none" stroke="black" d="M59.9,-287.7C64,-279.73 68.95,-270.1 73.49,-261.26"/>
<polygon fill="black" stroke="black" points="76.74,-262.6 78.2,-252.1 70.52,-259.4 76.74,-262.6"/>
<g id="a_edge8&#45;headlabel"><a xlink:href="dir_000077_000078.html" target="_top" xlink:title="2">
<text text-anchor="middle" x="77.62" y="-264.59" font-family="FreeSans" font-size="10.00">2</text>
</a>
</g>
</g>
<!-- dir_758df28fbdbb54fb46d6d3d6484a4984 -->
<g id="node4" class="node">
<title>dir_758df28fbdbb54fb46d6d3d6484a4984</title>
<g id="a_node4"><a xlink:href="dir_758df28fbdbb54fb46d6d3d6484a4984.html" target="_top" xlink:title="msg">
<polygon fill="white" stroke="red" points="141,-36 87,-36 87,0 141,0 141,-36"/>
<text text-anchor="middle" x="114" y="-15.5" font-family="FreeSans" font-size="10.00">msg</text>
</a>
</g>
</g>
<!-- dir_83ee83338e970cd0afba3d801181149d&#45;&gt;dir_758df28fbdbb54fb46d6d3d6484a4984 -->
<g id="edge7" class="edge">
<title>dir_83ee83338e970cd0afba3d801181149d&#45;&gt;dir_758df28fbdbb54fb46d6d3d6484a4984</title>
<path fill="none" stroke="black" d="M41.46,-287.93C36.36,-277.82 30.61,-264.57 28,-252 23.3,-229.37 23.53,-222.67 28,-200 39.64,-141.03 74.73,-79.23 96.33,-45.26"/>
<polygon fill="black" stroke="black" points="99.54,-46.75 102.03,-36.45 93.66,-42.94 99.54,-46.75"/>
<g id="a_edge7&#45;headlabel"><a xlink:href="dir_000077_000144.html" target="_top" xlink:title="2">
<text text-anchor="middle" x="99.97" y="-48.81" font-family="FreeSans" font-size="10.00">2</text>
</a>
</g>
</g>
<!-- dir_cb2d4e92f47691559fc9d122a5e37fac -->
<g id="node5" class="node">
<title>dir_cb2d4e92f47691559fc9d122a5e37fac</title>
<g id="a_node5"><a xlink:href="dir_cb2d4e92f47691559fc9d122a5e37fac.html" target="_top" xlink:title="mk4util">
<polygon fill="white" stroke="red" points="169,-108 115,-108 115,-72 169,-72 169,-108"/>
<text text-anchor="middle" x="142" y="-87.5" font-family="FreeSans" font-size="10.00">mk4util</text>
</a>
</g>
</g>
<!-- dir_83ee83338e970cd0afba3d801181149d&#45;&gt;dir_cb2d4e92f47691559fc9d122a5e37fac -->
<g id="edge9" class="edge">
<title>dir_83ee83338e970cd0afba3d801181149d&#45;&gt;dir_cb2d4e92f47691559fc9d122a5e37fac</title>
<path fill="none" stroke="black" d="M78.06,-292.21C93.88,-283.25 112.7,-269.71 123,-252 147.26,-210.29 147.55,-152.24 145.09,-118.44"/>
<polygon fill="black" stroke="black" points="148.57,-118.03 144.22,-108.37 141.6,-118.63 148.57,-118.03"/>
<g id="a_edge9&#45;headlabel"><a xlink:href="dir_000077_000014.html" target="_top" xlink:title="4">
<text text-anchor="middle" x="151.71" y="-118.87" font-family="FreeSans" font-size="10.00">4</text>
</a>
</g>
</g>
<!-- dir_db8d68003073a61b7114dbc4f792cfed -->
<g id="node6" class="node">
<title>dir_db8d68003073a61b7114dbc4f792cfed</title>
<g id="a_node6"><a xlink:href="dir_db8d68003073a61b7114dbc4f792cfed.html" target="_top" xlink:title="dfio">
<polygon fill="white" stroke="red" points="114,-180 60,-180 60,-144 114,-144 114,-180"/>
<text text-anchor="middle" x="87" y="-159.5" font-family="FreeSans" font-size="10.00">dfio</text>
</a>
</g>
</g>
<!-- dir_83ee83338e970cd0afba3d801181149d&#45;&gt;dir_db8d68003073a61b7114dbc4f792cfed -->
<g id="edge10" class="edge">
<title>dir_83ee83338e970cd0afba3d801181149d&#45;&gt;dir_db8d68003073a61b7114dbc4f792cfed</title>
<path fill="none" stroke="black" d="M43.47,-287.65C35.28,-265.98 25.07,-228.32 39,-200 42.06,-193.78 46.72,-188.32 51.95,-183.63"/>
<polygon fill="black" stroke="black" points="54.26,-186.27 59.92,-177.31 49.91,-180.78 54.26,-186.27"/>
<g id="a_edge10&#45;headlabel"><a xlink:href="dir_000077_000024.html" target="_top" xlink:title="6">
<text text-anchor="middle" x="53.2" y="-188.22" font-family="FreeSans" font-size="10.00">6</text>
</a>
</g>
</g>
<!-- dir_be1673e5112679701f144c4cb4ba6a98&#45;&gt;dir_db8d68003073a61b7114dbc4f792cfed -->
<g id="edge1" class="edge">
<title>dir_be1673e5112679701f144c4cb4ba6a98&#45;&gt;dir_db8d68003073a61b7114dbc4f792cfed</title>
<path fill="none" stroke="black" d="M87,-215.7C87,-207.98 87,-198.71 87,-190.11"/>
<polygon fill="black" stroke="black" points="90.5,-190.1 87,-180.1 83.5,-190.1 90.5,-190.1"/>
<g id="a_edge1&#45;headlabel"><a xlink:href="dir_000078_000024.html" target="_top" xlink:title="2">
<text text-anchor="middle" x="93.34" y="-191.2" font-family="FreeSans" font-size="10.00">2</text>
</a>
</g>
</g>
<!-- dir_4ee03f1d6d97361d935d16cc00b775ae -->
<g id="node3" class="node">
<title>dir_4ee03f1d6d97361d935d16cc00b775ae</title>
<g id="a_node3"><a xlink:href="dir_4ee03f1d6d97361d935d16cc00b775ae.html" target="_top" xlink:title="src">
<polygon fill="white" stroke="black" points="150,-324 96,-324 96,-288 150,-288 150,-324"/>
<text text-anchor="middle" x="123" y="-303.5" font-family="FreeSans" font-size="10.00">src</text>
</a>
</g>
</g>
<!-- dir_4ee03f1d6d97361d935d16cc00b775ae&#45;&gt;dir_be1673e5112679701f144c4cb4ba6a98 -->
<g id="edge4" class="edge">
<title>dir_4ee03f1d6d97361d935d16cc00b775ae&#45;&gt;dir_be1673e5112679701f144c4cb4ba6a98</title>
<path fill="none" stroke="black" d="M114.1,-287.7C110,-279.73 105.05,-270.1 100.51,-261.26"/>
<polygon fill="black" stroke="black" points="103.48,-259.4 95.8,-252.1 97.26,-262.6 103.48,-259.4"/>
<g id="a_edge4&#45;headlabel"><a xlink:href="dir_000149_000078.html" target="_top" xlink:title="1">
<text text-anchor="middle" x="107.65" y="-258.79" font-family="FreeSans" font-size="10.00">1</text>
</a>
</g>
</g>
<!-- dir_4ee03f1d6d97361d935d16cc00b775ae&#45;&gt;dir_758df28fbdbb54fb46d6d3d6484a4984 -->
<g id="edge3" class="edge">
<title>dir_4ee03f1d6d97361d935d16cc00b775ae&#45;&gt;dir_758df28fbdbb54fb46d6d3d6484a4984</title>
<path fill="none" stroke="black" d="M145.39,-287.88C155.8,-278.53 167.15,-266.01 173,-252 203.83,-178.15 212.06,-144.42 178,-72 171.82,-58.87 160.62,-47.87 149.3,-39.36"/>
<polygon fill="black" stroke="black" points="151.29,-36.49 141.1,-33.61 147.27,-42.22 151.29,-36.49"/>
<g id="a_edge3&#45;headlabel"><a xlink:href="dir_000149_000144.html" target="_top" xlink:title="1">
<text text-anchor="middle" x="155.87" y="-33.73" font-family="FreeSans" font-size="10.00">1</text>
</a>
</g>
</g>
<!-- dir_4ee03f1d6d97361d935d16cc00b775ae&#45;&gt;dir_cb2d4e92f47691559fc9d122a5e37fac -->
<g id="edge5" class="edge">
<title>dir_4ee03f1d6d97361d935d16cc00b775ae&#45;&gt;dir_cb2d4e92f47691559fc9d122a5e37fac</title>
<path fill="none" stroke="black" d="M137.33,-287.57C144.45,-277.76 152.31,-264.92 156,-252 169.08,-206.24 158.68,-150.43 150.17,-117.98"/>
<polygon fill="black" stroke="black" points="153.54,-117.02 147.51,-108.31 146.79,-118.88 153.54,-117.02"/>
<g id="a_edge5&#45;headlabel"><a xlink:href="dir_000149_000014.html" target="_top" xlink:title="3">
<text text-anchor="middle" x="157.23" y="-117.23" font-family="FreeSans" font-size="10.00">3</text>
</a>
</g>
</g>
<!-- dir_4ee03f1d6d97361d935d16cc00b775ae&#45;&gt;dir_db8d68003073a61b7114dbc4f792cfed -->
<g id="edge6" class="edge">
<title>dir_4ee03f1d6d97361d935d16cc00b775ae&#45;&gt;dir_db8d68003073a61b7114dbc4f792cfed</title>
<path fill="none" stroke="black" d="M95.92,-293.01C79.67,-284.21 60.38,-270.56 51,-252 40.57,-231.38 42.3,-221.41 51,-200 52.76,-195.68 55.28,-191.59 58.2,-187.81"/>
<polygon fill="black" stroke="black" points="61.04,-189.88 65.05,-180.07 55.8,-185.24 61.04,-189.88"/>
<g id="a_edge6&#45;headlabel"><a xlink:href="dir_000149_000024.html" target="_top" xlink:title="2">
<text text-anchor="middle" x="60.79" y="-191.95" font-family="FreeSans" font-size="10.00">2</text>
</a>
</g>
</g>
<!-- dir_cb2d4e92f47691559fc9d122a5e37fac&#45;&gt;dir_758df28fbdbb54fb46d6d3d6484a4984 -->
<g id="edge2" class="edge">
<title>dir_cb2d4e92f47691559fc9d122a5e37fac&#45;&gt;dir_758df28fbdbb54fb46d6d3d6484a4984</title>
<path fill="none" stroke="black" d="M135.08,-71.7C131.93,-63.81 128.12,-54.3 124.62,-45.55"/>
<polygon fill="black" stroke="black" points="127.81,-44.09 120.84,-36.1 121.31,-46.69 127.81,-44.09"/>
<g id="a_edge2&#45;headlabel"><a xlink:href="dir_000014_000144.html" target="_top" xlink:title="3">
<text text-anchor="middle" x="131.78" y="-43.87" font-family="FreeSans" font-size="10.00">3</text>
</a>
</g>
</g>
<!-- dir_db8d68003073a61b7114dbc4f792cfed&#45;&gt;dir_758df28fbdbb54fb46d6d3d6484a4984 -->
<g id="edge12" class="edge">
<title>dir_db8d68003073a61b7114dbc4f792cfed&#45;&gt;dir_758df28fbdbb54fb46d6d3d6484a4984</title>
<path fill="none" stroke="black" d="M90.26,-143.87C94.86,-119.67 103.31,-75.21 108.79,-46.39"/>
<polygon fill="black" stroke="black" points="112.3,-46.67 110.73,-36.19 105.43,-45.36 112.3,-46.67"/>
<g id="a_edge12&#45;headlabel"><a xlink:href="dir_000024_000144.html" target="_top" xlink:title="1">
<text text-anchor="middle" x="114.42" y="-48.23" font-family="FreeSans" font-size="10.00">1</text>
</a>
</g>
</g>
<!-- dir_db8d68003073a61b7114dbc4f792cfed&#45;&gt;dir_cb2d4e92f47691559fc9d122a5e37fac -->
<g id="edge11" class="edge">
<title>dir_db8d68003073a61b7114dbc4f792cfed&#45;&gt;dir_cb2d4e92f47691559fc9d122a5e37fac</title>
<path fill="none" stroke="black" d="M100.6,-143.7C107.12,-135.39 115.07,-125.28 122.25,-116.14"/>
<polygon fill="black" stroke="black" points="125.13,-118.13 128.56,-108.1 119.63,-113.81 125.13,-118.13"/>
<g id="a_edge11&#45;headlabel"><a xlink:href="dir_000024_000014.html" target="_top" xlink:title="117">
<text text-anchor="middle" x="125.15" y="-120.21" font-family="FreeSans" font-size="10.00">117</text>
</a>
</g>
</g>
</g>
</svg>
