<?xml version="1.0" encoding="UTF-8" standalone="no"?>
<!DOCTYPE svg PUBLIC "-//W3C//DTD SVG 1.1//EN"
 "http://www.w3.org/Graphics/SVG/1.1/DTD/svg11.dtd">
<!-- Generated by graphviz version 2.43.0 (0)
 -->
<!-- Title: src Pages: 1 -->
<svg width="261pt" height="439pt"
 viewBox="0.00 0.00 261.13 439.00" xmlns="http://www.w3.org/2000/svg" xmlns:xlink="http://www.w3.org/1999/xlink">
<g id="graph0" class="graph" transform="scale(1 1) rotate(0) translate(4 435)">
<title>src</title>
<polygon fill="white" stroke="transparent" points="-4,4 -4,-435 257.13,-435 257.13,4 -4,4"/>
<g id="clust1" class="cluster">
<title>clusterdir_91ae3e556fa9cad9030b784323206cc7</title>
<g id="a_clust1"><a xlink:href="dir_91ae3e556fa9cad9030b784323206cc7.html" target="_top" xlink:title="Calibration">
<polygon fill="#ddddee" stroke="black" points="89,-280 89,-423 159,-423 159,-280 89,-280"/>
<text text-anchor="middle" x="124" y="-411" font-family="FreeSans" font-size="10.00">Calibration</text>
</a>
</g>
</g>
<!-- dir_7be2fd11ca2616dfba72a6921a1b3394 -->
<g id="node1" class="node">
<title>dir_7be2fd11ca2616dfba72a6921a1b3394</title>
<g id="a_node1"><a xlink:href="dir_7be2fd11ca2616dfba72a6921a1b3394.html" target="_top" xlink:title="include">
<polygon fill="none" stroke="black" points="151,-324 97,-324 97,-288 151,-288 151,-324"/>
<text text-anchor="middle" x="124" y="-303.5" font-family="FreeSans" font-size="10.00">include</text>
</a>
</g>
</g>
<!-- dir_150f406a44a04ce55518da03ec553ece -->
<g id="node3" class="node">
<title>dir_150f406a44a04ce55518da03ec553ece</title>
<g id="a_node3"><a xlink:href="dir_150f406a44a04ce55518da03ec553ece.html" target="_top" xlink:title="Utilities">
<polygon fill="white" stroke="red" points="234,-180 180,-180 180,-144 234,-144 234,-180"/>
<text text-anchor="middle" x="207" y="-159.5" font-family="FreeSans" font-size="10.00">Utilities</text>
</a>
</g>
</g>
<!-- dir_7be2fd11ca2616dfba72a6921a1b3394&#45;&gt;dir_150f406a44a04ce55518da03ec553ece -->
<g id="edge13" class="edge">
<title>dir_7be2fd11ca2616dfba72a6921a1b3394&#45;&gt;dir_150f406a44a04ce55518da03ec553ece</title>
<path fill="none" stroke="black" d="M132.76,-287.69C142.06,-269.56 157.4,-240.41 172,-216 177.38,-207.01 183.58,-197.39 189.26,-188.85"/>
<polygon fill="black" stroke="black" points="192.26,-190.67 194.93,-180.42 186.45,-186.76 192.26,-190.67"/>
<g id="a_edge13&#45;headlabel"><a xlink:href="dir_000103_000086.html" target="_top" xlink:title="22">
<text text-anchor="middle" x="192.61" y="-192.74" font-family="FreeSans" font-size="10.00">22</text>
</a>
</g>
</g>
<!-- dir_32348ece3c89569e6a714937ae854c89 -->
<g id="node4" class="node">
<title>dir_32348ece3c89569e6a714937ae854c89</title>
<g id="a_node4"><a xlink:href="dir_32348ece3c89569e6a714937ae854c89.html" target="_top" xlink:title="Message">
<polygon fill="white" stroke="red" points="180,-36 124,-36 124,0 180,0 180,-36"/>
<text text-anchor="middle" x="152" y="-15.5" font-family="FreeSans" font-size="10.00">Message</text>
</a>
</g>
</g>
<!-- dir_7be2fd11ca2616dfba72a6921a1b3394&#45;&gt;dir_32348ece3c89569e6a714937ae854c89 -->
<g id="edge14" class="edge">
<title>dir_7be2fd11ca2616dfba72a6921a1b3394&#45;&gt;dir_32348ece3c89569e6a714937ae854c89</title>
<path fill="none" stroke="black" d="M119.67,-287.83C110.56,-248.56 92.15,-149.57 116,-72 119.01,-62.22 124.51,-52.62 130.32,-44.33"/>
<polygon fill="black" stroke="black" points="133.19,-46.33 136.39,-36.23 127.59,-42.13 133.19,-46.33"/>
<g id="a_edge14&#45;headlabel"><a xlink:href="dir_000103_000123.html" target="_top" xlink:title="21">
<text text-anchor="middle" x="133.31" y="-48.41" font-family="FreeSans" font-size="10.00">21</text>
</a>
</g>
</g>
<!-- dir_4546011bd625f1142c4c4ae06dcdb5ba -->
<g id="node5" class="node">
<title>dir_4546011bd625f1142c4c4ae06dcdb5ba</title>
<g id="a_node5"><a xlink:href="dir_4546011bd625f1142c4c4ae06dcdb5ba.html" target="_top" xlink:title="Operators">
<polygon fill="white" stroke="red" points="239.5,-252 180.5,-252 180.5,-216 239.5,-216 239.5,-252"/>
<text text-anchor="middle" x="210" y="-231.5" font-family="FreeSans" font-size="10.00">Operators</text>
</a>
</g>
</g>
<!-- dir_7be2fd11ca2616dfba72a6921a1b3394&#45;&gt;dir_4546011bd625f1142c4c4ae06dcdb5ba -->
<g id="edge15" class="edge">
<title>dir_7be2fd11ca2616dfba72a6921a1b3394&#45;&gt;dir_4546011bd625f1142c4c4ae06dcdb5ba</title>
<path fill="none" stroke="black" d="M145.26,-287.7C156.09,-278.88 169.42,-268.03 181.16,-258.47"/>
<polygon fill="black" stroke="black" points="183.44,-261.13 188.99,-252.1 179.02,-255.7 183.44,-261.13"/>
<g id="a_edge15&#45;headlabel"><a xlink:href="dir_000103_000089.html" target="_top" xlink:title="54">
<text text-anchor="middle" x="182.44" y="-263.1" font-family="FreeSans" font-size="10.00">54</text>
</a>
</g>
</g>
<!-- dir_ff42852cc454de79d2ecb9482f4de9d8 -->
<g id="node6" class="node">
<title>dir_ff42852cc454de79d2ecb9482f4de9d8</title>
<g id="a_node6"><a xlink:href="dir_ff42852cc454de79d2ecb9482f4de9d8.html" target="_top" xlink:title="Math">
<polygon fill="white" stroke="red" points="179,-108 125,-108 125,-72 179,-72 179,-108"/>
<text text-anchor="middle" x="152" y="-87.5" font-family="FreeSans" font-size="10.00">Math</text>
</a>
</g>
</g>
<!-- dir_7be2fd11ca2616dfba72a6921a1b3394&#45;&gt;dir_ff42852cc454de79d2ecb9482f4de9d8 -->
<g id="edge16" class="edge">
<title>dir_7be2fd11ca2616dfba72a6921a1b3394&#45;&gt;dir_ff42852cc454de79d2ecb9482f4de9d8</title>
<path fill="none" stroke="black" d="M126.24,-287.85C131.09,-250.83 142.56,-163.18 148.42,-118.39"/>
<polygon fill="black" stroke="black" points="151.92,-118.6 149.75,-108.23 144.98,-117.69 151.92,-118.6"/>
<g id="a_edge16&#45;headlabel"><a xlink:href="dir_000103_000099.html" target="_top" xlink:title="3">
<text text-anchor="middle" x="154.27" y="-120.03" font-family="FreeSans" font-size="10.00">3</text>
</a>
</g>
</g>
<!-- dir_4babaf99262da0ba626adfb482a31f7a -->
<g id="node2" class="node">
<title>dir_4babaf99262da0ba626adfb482a31f7a</title>
<g id="a_node2"><a xlink:href="dir_4babaf99262da0ba626adfb482a31f7a.html" target="_top" xlink:title="src">
<polygon fill="#eeeeff" stroke="black" points="151,-396 97,-396 97,-360 151,-360 151,-396"/>
<text text-anchor="middle" x="124" y="-375.5" font-family="FreeSans" font-size="10.00">src</text>
</a>
</g>
</g>
<!-- dir_4babaf99262da0ba626adfb482a31f7a&#45;&gt;dir_7be2fd11ca2616dfba72a6921a1b3394 -->
<g id="edge11" class="edge">
<title>dir_4babaf99262da0ba626adfb482a31f7a&#45;&gt;dir_7be2fd11ca2616dfba72a6921a1b3394</title>
<path fill="none" stroke="black" d="M124,-359.7C124,-351.98 124,-342.71 124,-334.11"/>
<polygon fill="black" stroke="black" points="127.5,-334.1 124,-324.1 120.5,-334.1 127.5,-334.1"/>
<g id="a_edge11&#45;headlabel"><a xlink:href="dir_000107_000103.html" target="_top" xlink:title="28">
<text text-anchor="middle" x="130.34" y="-335.2" font-family="FreeSans" font-size="10.00">28</text>
</a>
</g>
</g>
<!-- dir_4babaf99262da0ba626adfb482a31f7a&#45;&gt;dir_150f406a44a04ce55518da03ec553ece -->
<g id="edge8" class="edge">
<title>dir_4babaf99262da0ba626adfb482a31f7a&#45;&gt;dir_150f406a44a04ce55518da03ec553ece</title>
<path fill="none" stroke="black" d="M151.18,-360.32C182.12,-339.48 230.76,-300.55 249,-252 254.63,-237.02 254.26,-231.11 249,-216 245.47,-205.86 239.09,-196.19 232.36,-187.96"/>
<polygon fill="black" stroke="black" points="234.83,-185.46 225.6,-180.24 229.56,-190.07 234.83,-185.46"/>
<g id="a_edge8&#45;headlabel"><a xlink:href="dir_000107_000086.html" target="_top" xlink:title="7">
<text text-anchor="middle" x="239.33" y="-183.79" font-family="FreeSans" font-size="10.00">7</text>
</a>
</g>
</g>
<!-- dir_4babaf99262da0ba626adfb482a31f7a&#45;&gt;dir_32348ece3c89569e6a714937ae854c89 -->
<g id="edge9" class="edge">
<title>dir_4babaf99262da0ba626adfb482a31f7a&#45;&gt;dir_32348ece3c89569e6a714937ae854c89</title>
<path fill="none" stroke="black" d="M96.79,-361.9C60.29,-339.41 0,-293.42 0,-235 0,-235 0,-235 0,-161 0,-98.46 69.56,-55.55 114.57,-34.33"/>
<polygon fill="black" stroke="black" points="116.12,-37.47 123.77,-30.13 113.22,-31.1 116.12,-37.47"/>
<g id="a_edge9&#45;headlabel"><a xlink:href="dir_000107_000123.html" target="_top" xlink:title="1">
<text text-anchor="middle" x="114.03" y="-39.05" font-family="FreeSans" font-size="10.00">1</text>
</a>
</g>
</g>
<!-- dir_4babaf99262da0ba626adfb482a31f7a&#45;&gt;dir_4546011bd625f1142c4c4ae06dcdb5ba -->
<g id="edge10" class="edge">
<title>dir_4babaf99262da0ba626adfb482a31f7a&#45;&gt;dir_4546011bd625f1142c4c4ae06dcdb5ba</title>
<path fill="none" stroke="black" d="M136.38,-359.58C143.51,-349.36 152.51,-336.11 160,-324 172.75,-303.4 186.14,-279.43 195.85,-261.55"/>
<polygon fill="black" stroke="black" points="199.17,-262.77 200.84,-252.31 193.01,-259.45 199.17,-262.77"/>
<g id="a_edge10&#45;headlabel"><a xlink:href="dir_000107_000089.html" target="_top" xlink:title="1">
<text text-anchor="middle" x="199.96" y="-264.79" font-family="FreeSans" font-size="10.00">1</text>
</a>
</g>
</g>
<!-- dir_4babaf99262da0ba626adfb482a31f7a&#45;&gt;dir_ff42852cc454de79d2ecb9482f4de9d8 -->
<g id="edge12" class="edge">
<title>dir_4babaf99262da0ba626adfb482a31f7a&#45;&gt;dir_ff42852cc454de79d2ecb9482f4de9d8</title>
<path fill="none" stroke="black" d="M108.39,-359.77C100.63,-350.03 92.05,-337.18 88,-324 82.25,-305.31 84.82,-299.3 88,-280 97.88,-220.01 124.29,-153.45 139.93,-117.52"/>
<polygon fill="black" stroke="black" points="143.19,-118.79 144.03,-108.23 136.79,-115.96 143.19,-118.79"/>
<g id="a_edge12&#45;headlabel"><a xlink:href="dir_000107_000099.html" target="_top" xlink:title="7">
<text text-anchor="middle" x="144.34" y="-120.72" font-family="FreeSans" font-size="10.00">7</text>
</a>
</g>
</g>
<!-- dir_150f406a44a04ce55518da03ec553ece&#45;&gt;dir_32348ece3c89569e6a714937ae854c89 -->
<g id="edge6" class="edge">
<title>dir_150f406a44a04ce55518da03ec553ece&#45;&gt;dir_32348ece3c89569e6a714937ae854c89</title>
<path fill="none" stroke="black" d="M205.3,-143.67C203.05,-125.29 198.11,-95.69 188,-72 183.92,-62.43 178.01,-52.78 172.16,-44.39"/>
<polygon fill="black" stroke="black" points="174.88,-42.17 166.16,-36.15 169.22,-46.29 174.88,-42.17"/>
<g id="a_edge6&#45;headlabel"><a xlink:href="dir_000086_000123.html" target="_top" xlink:title="13">
<text text-anchor="middle" x="179.29" y="-40.91" font-family="FreeSans" font-size="10.00">13</text>
</a>
</g>
</g>
<!-- dir_150f406a44a04ce55518da03ec553ece&#45;&gt;dir_ff42852cc454de79d2ecb9482f4de9d8 -->
<g id="edge7" class="edge">
<title>dir_150f406a44a04ce55518da03ec553ece&#45;&gt;dir_ff42852cc454de79d2ecb9482f4de9d8</title>
<path fill="none" stroke="black" d="M187.49,-143.7C180.18,-135.47 172.13,-125.48 165.45,-116.42"/>
<polygon fill="black" stroke="black" points="168.19,-114.23 159.54,-108.1 162.48,-118.28 168.19,-114.23"/>
<g id="a_edge7&#45;headlabel"><a xlink:href="dir_000086_000099.html" target="_top" xlink:title="1">
<text text-anchor="middle" x="172.59" y="-113.01" font-family="FreeSans" font-size="10.00">1</text>
</a>
</g>
</g>
<!-- dir_4546011bd625f1142c4c4ae06dcdb5ba&#45;&gt;dir_150f406a44a04ce55518da03ec553ece -->
<g id="edge3" class="edge">
<title>dir_4546011bd625f1142c4c4ae06dcdb5ba&#45;&gt;dir_150f406a44a04ce55518da03ec553ece</title>
<path fill="none" stroke="black" d="M209.26,-215.7C208.93,-207.98 208.53,-198.71 208.16,-190.11"/>
<polygon fill="black" stroke="black" points="211.66,-189.95 207.73,-180.1 204.66,-190.25 211.66,-189.95"/>
<g id="a_edge3&#45;headlabel"><a xlink:href="dir_000089_000086.html" target="_top" xlink:title="5">
<text text-anchor="middle" x="214.65" y="-190.92" font-family="FreeSans" font-size="10.00">5</text>
</a>
</g>
</g>
<!-- dir_4546011bd625f1142c4c4ae06dcdb5ba&#45;&gt;dir_32348ece3c89569e6a714937ae854c89 -->
<g id="edge4" class="edge">
<title>dir_4546011bd625f1142c4c4ae06dcdb5ba&#45;&gt;dir_32348ece3c89569e6a714937ae854c89</title>
<path fill="none" stroke="black" d="M224.33,-215.57C231.45,-205.76 239.31,-192.92 243,-180 247.4,-164.62 246.68,-159.57 243,-144 234.78,-109.18 228.19,-100.83 207,-72 199.39,-61.65 189.67,-51.54 180.52,-42.98"/>
<polygon fill="black" stroke="black" points="182.78,-40.3 173.02,-36.17 178.07,-45.49 182.78,-40.3"/>
<g id="a_edge4&#45;headlabel"><a xlink:href="dir_000089_000123.html" target="_top" xlink:title="12">
<text text-anchor="middle" x="187.35" y="-38.12" font-family="FreeSans" font-size="10.00">12</text>
</a>
</g>
</g>
<!-- dir_4546011bd625f1142c4c4ae06dcdb5ba&#45;&gt;dir_ff42852cc454de79d2ecb9482f4de9d8 -->
<g id="edge5" class="edge">
<title>dir_4546011bd625f1142c4c4ae06dcdb5ba&#45;&gt;dir_ff42852cc454de79d2ecb9482f4de9d8</title>
<path fill="none" stroke="black" d="M194.22,-215.56C186.14,-205.76 176.81,-192.92 171,-180 162.16,-160.34 157.35,-136.35 154.78,-118.23"/>
<polygon fill="black" stroke="black" points="158.22,-117.54 153.48,-108.06 151.28,-118.43 158.22,-117.54"/>
<g id="a_edge5&#45;headlabel"><a xlink:href="dir_000089_000099.html" target="_top" xlink:title="8">
<text text-anchor="middle" x="161.49" y="-118.25" font-family="FreeSans" font-size="10.00">8</text>
</a>
</g>
</g>
<!-- dir_ff42852cc454de79d2ecb9482f4de9d8&#45;&gt;dir_150f406a44a04ce55518da03ec553ece -->
<g id="edge2" class="edge">
<title>dir_ff42852cc454de79d2ecb9482f4de9d8&#45;&gt;dir_150f406a44a04ce55518da03ec553ece</title>
<path fill="none" stroke="black" d="M171.33,-108.1C178.63,-116.3 186.69,-126.28 193.38,-135.36"/>
<polygon fill="black" stroke="black" points="190.67,-137.58 199.32,-143.7 196.37,-133.52 190.67,-137.58"/>
<g id="a_edge2&#45;headlabel"><a xlink:href="dir_000099_000086.html" target="_top" xlink:title="1">
<text text-anchor="middle" x="186.27" y="-133.8" font-family="FreeSans" font-size="10.00">1</text>
</a>
</g>
</g>
<!-- dir_ff42852cc454de79d2ecb9482f4de9d8&#45;&gt;dir_32348ece3c89569e6a714937ae854c89 -->
<g id="edge1" class="edge">
<title>dir_ff42852cc454de79d2ecb9482f4de9d8&#45;&gt;dir_32348ece3c89569e6a714937ae854c89</title>
<path fill="none" stroke="black" d="M152,-71.7C152,-63.98 152,-54.71 152,-46.11"/>
<polygon fill="black" stroke="black" points="155.5,-46.1 152,-36.1 148.5,-46.1 155.5,-46.1"/>
<g id="a_edge1&#45;headlabel"><a xlink:href="dir_000099_000123.html" target="_top" xlink:title="6">
<text text-anchor="middle" x="158.34" y="-47.2" font-family="FreeSans" font-size="10.00">6</text>
</a>
</g>
</g>
</g>
</svg>
