<?xml version="1.0" encoding="UTF-8" standalone="no"?>
<!DOCTYPE svg PUBLIC "-//W3C//DTD SVG 1.1//EN"
 "http://www.w3.org/Graphics/SVG/1.1/DTD/svg11.dtd">
<!-- Generated by graphviz version 2.43.0 (0)
 -->
<!-- Title: Math Pages: 1 -->
<svg width="244pt" height="247pt"
 viewBox="0.00 0.00 244.00 247.00" xmlns="http://www.w3.org/2000/svg" xmlns:xlink="http://www.w3.org/1999/xlink">
<g id="graph0" class="graph" transform="scale(1 1) rotate(0) translate(4 243)">
<title>Math</title>
<polygon fill="white" stroke="transparent" points="-4,4 -4,-243 240,-243 240,4 -4,4"/>
<g id="clust1" class="cluster">
<title>clusterdir_730935399589b544a579302a37a46c03</title>
<g id="a_clust1"><a xlink:href="dir_730935399589b544a579302a37a46c03.html" target="_top" xlink:title="cpp_src">
<polygon fill="#ddddee" stroke="black" points="8,-8 8,-231 228,-231 228,-8 8,-8"/>
<text text-anchor="middle" x="118" y="-219" font-family="FreeSans" font-size="10.00">cpp_src</text>
</a>
</g>
</g>
<g id="clust2" class="cluster">
<title>clusterdir_ff42852cc454de79d2ecb9482f4de9d8</title>
<g id="a_clust2"><a xlink:href="dir_ff42852cc454de79d2ecb9482f4de9d8.html" target="_top">
<polygon fill="#eeeeff" stroke="black" points="16,-80 16,-204 158,-204 158,-80 16,-80"/>
</a>
</g>
</g>
<!-- dir_32348ece3c89569e6a714937ae854c89 -->
<g id="node1" class="node">
<title>dir_32348ece3c89569e6a714937ae854c89</title>
<g id="a_node1"><a xlink:href="dir_32348ece3c89569e6a714937ae854c89.html" target="_top" xlink:title="Message">
<polygon fill="white" stroke="red" points="150,-52 94,-52 94,-16 150,-16 150,-52"/>
<text text-anchor="middle" x="122" y="-31.5" font-family="FreeSans" font-size="10.00">Message</text>
</a>
</g>
</g>
<!-- dir_150f406a44a04ce55518da03ec553ece -->
<g id="node2" class="node">
<title>dir_150f406a44a04ce55518da03ec553ece</title>
<g id="a_node2"><a xlink:href="dir_150f406a44a04ce55518da03ec553ece.html" target="_top" xlink:title="Utilities">
<polygon fill="white" stroke="red" points="220,-124 166,-124 166,-88 220,-88 220,-124"/>
<text text-anchor="middle" x="193" y="-103.5" font-family="FreeSans" font-size="10.00">Utilities</text>
</a>
</g>
</g>
<!-- dir_150f406a44a04ce55518da03ec553ece&#45;&gt;dir_32348ece3c89569e6a714937ae854c89 -->
<g id="edge6" class="edge">
<title>dir_150f406a44a04ce55518da03ec553ece&#45;&gt;dir_32348ece3c89569e6a714937ae854c89</title>
<path fill="none" stroke="black" d="M175.45,-87.7C166.77,-79.14 156.14,-68.66 146.65,-59.3"/>
<polygon fill="black" stroke="black" points="148.93,-56.63 139.35,-52.1 144.01,-61.62 148.93,-56.63"/>
<g id="a_edge6&#45;headlabel"><a xlink:href="dir_000086_000123.html" target="_top" xlink:title="13">
<text text-anchor="middle" x="153.48" y="-54.63" font-family="FreeSans" font-size="10.00">13</text>
</a>
</g>
</g>
<!-- dir_158de98f8b9180e98dec16a5c6f07451 -->
<g id="node4" class="node">
<title>dir_158de98f8b9180e98dec16a5c6f07451</title>
<g id="a_node4"><a xlink:href="dir_158de98f8b9180e98dec16a5c6f07451.html" target="_top" xlink:title="include">
<polygon fill="white" stroke="black" points="103,-124 49,-124 49,-88 103,-88 103,-124"/>
<text text-anchor="middle" x="76" y="-103.5" font-family="FreeSans" font-size="10.00">include</text>
</a>
</g>
</g>
<!-- dir_150f406a44a04ce55518da03ec553ece&#45;&gt;dir_158de98f8b9180e98dec16a5c6f07451 -->
<g id="edge5" class="edge">
<title>dir_150f406a44a04ce55518da03ec553ece&#45;&gt;dir_158de98f8b9180e98dec16a5c6f07451</title>
<path fill="none" stroke="black" d="M165.71,-106C148.35,-106 131,-106 113.64,-106"/>
<polygon fill="black" stroke="black" points="113.42,-102.5 103.42,-106 113.42,-109.5 113.42,-102.5"/>
<g id="a_edge5&#45;headlabel"><a xlink:href="dir_000086_000101.html" target="_top" xlink:title="1">
<text text-anchor="middle" x="117.02" y="-97.16" font-family="FreeSans" font-size="10.00">1</text>
</a>
</g>
</g>
<!-- dir_ff42852cc454de79d2ecb9482f4de9d8 -->
<g id="node3" class="node">
<title>dir_ff42852cc454de79d2ecb9482f4de9d8</title>
<text text-anchor="middle" x="123" y="-175.5" font-family="FreeSans" font-size="10.00">Math</text>
</g>
<!-- dir_158de98f8b9180e98dec16a5c6f07451&#45;&gt;dir_32348ece3c89569e6a714937ae854c89 -->
<g id="edge1" class="edge">
<title>dir_158de98f8b9180e98dec16a5c6f07451&#45;&gt;dir_32348ece3c89569e6a714937ae854c89</title>
<path fill="none" stroke="black" d="M87.37,-87.7C92.72,-79.56 99.2,-69.69 105.11,-60.7"/>
<polygon fill="black" stroke="black" points="108.19,-62.38 110.76,-52.1 102.34,-58.54 108.19,-62.38"/>
<g id="a_edge1&#45;headlabel"><a xlink:href="dir_000101_000123.html" target="_top" xlink:title="3">
<text text-anchor="middle" x="108.59" y="-64.45" font-family="FreeSans" font-size="10.00">3</text>
</a>
</g>
</g>
<!-- dir_7d37709c3006278800184bcbe356fdb7 -->
<g id="node5" class="node">
<title>dir_7d37709c3006278800184bcbe356fdb7</title>
<g id="a_node5"><a xlink:href="dir_7d37709c3006278800184bcbe356fdb7.html" target="_top" xlink:title="src">
<polygon fill="white" stroke="black" points="78,-196 24,-196 24,-160 78,-160 78,-196"/>
<text text-anchor="middle" x="51" y="-175.5" font-family="FreeSans" font-size="10.00">src</text>
</a>
</g>
</g>
<!-- dir_7d37709c3006278800184bcbe356fdb7&#45;&gt;dir_32348ece3c89569e6a714937ae854c89 -->
<g id="edge4" class="edge">
<title>dir_7d37709c3006278800184bcbe356fdb7&#45;&gt;dir_32348ece3c89569e6a714937ae854c89</title>
<path fill="none" stroke="black" d="M78.04,-160.41C90.51,-151.27 104.24,-138.78 112,-124 121.97,-105.01 124.1,-80.65 123.95,-62.22"/>
<polygon fill="black" stroke="black" points="127.44,-62.02 123.63,-52.13 120.44,-62.24 127.44,-62.02"/>
<g id="a_edge4&#45;headlabel"><a xlink:href="dir_000100_000123.html" target="_top" xlink:title="3">
<text text-anchor="middle" x="130.39" y="-63.02" font-family="FreeSans" font-size="10.00">3</text>
</a>
</g>
</g>
<!-- dir_7d37709c3006278800184bcbe356fdb7&#45;&gt;dir_150f406a44a04ce55518da03ec553ece -->
<g id="edge2" class="edge">
<title>dir_7d37709c3006278800184bcbe356fdb7&#45;&gt;dir_150f406a44a04ce55518da03ec553ece</title>
<path fill="none" stroke="black" d="M78.23,-164.1C103.13,-152.28 138.45,-135.49 156.82,-126.49"/>
<polygon fill="black" stroke="black" points="158.61,-129.52 166,-121.92 155.48,-123.25 158.61,-129.52"/>
<g id="a_edge2&#45;headlabel"><a xlink:href="dir_000100_000086.html" target="_top" xlink:title="1">
<text text-anchor="middle" x="156.65" y="-131.16" font-family="FreeSans" font-size="10.00">1</text>
</a>
</g>
</g>
<!-- dir_7d37709c3006278800184bcbe356fdb7&#45;&gt;dir_158de98f8b9180e98dec16a5c6f07451 -->
<g id="edge3" class="edge">
<title>dir_7d37709c3006278800184bcbe356fdb7&#45;&gt;dir_158de98f8b9180e98dec16a5c6f07451</title>
<path fill="none" stroke="black" d="M57.18,-159.7C60,-151.81 63.39,-142.3 66.52,-133.55"/>
<polygon fill="black" stroke="black" points="69.82,-134.7 69.89,-124.1 63.23,-132.34 69.82,-134.7"/>
<g id="a_edge3&#45;headlabel"><a xlink:href="dir_000100_000101.html" target="_top" xlink:title="6">
<text text-anchor="middle" x="71.29" y="-136.54" font-family="FreeSans" font-size="10.00">6</text>
</a>
</g>
</g>
</g>
</svg>
