<?xml version="1.0" encoding="UTF-8" standalone="no"?>
<!DOCTYPE svg PUBLIC "-//W3C//DTD SVG 1.1//EN"
 "http://www.w3.org/Graphics/SVG/1.1/DTD/svg11.dtd">
<!-- Generated by graphviz version 2.43.0 (0)
 -->
<!-- Title: ffcontrol Pages: 1 -->
<svg width="182pt" height="303pt"
 viewBox="0.00 0.00 182.00 303.00" xmlns="http://www.w3.org/2000/svg" xmlns:xlink="http://www.w3.org/1999/xlink">
<g id="graph0" class="graph" transform="scale(1 1) rotate(0) translate(4 299)">
<title>ffcontrol</title>
<polygon fill="white" stroke="transparent" points="-4,4 -4,-299 178,-299 178,4 -4,4"/>
<g id="clust1" class="cluster">
<title>clusterdir_9ef7e4ca5af767b4d78801a8e1d37f3e</title>
<g id="a_clust1"><a xlink:href="dir_9ef7e4ca5af767b4d78801a8e1d37f3e.html" target="_top" xlink:title="fourfit_libs">
<polygon fill="#ddddee" stroke="black" points="8,-128 8,-287 166,-287 166,-128 8,-128"/>
<text text-anchor="middle" x="87" y="-275" font-family="FreeSans" font-size="10.00">fourfit_libs</text>
</a>
</g>
</g>
<g id="clust2" class="cluster">
<title>clusterdir_f79eaa419c9665ed0522066c5c6851c4</title>
<g id="a_clust2"><a xlink:href="dir_f79eaa419c9665ed0522066c5c6851c4.html" target="_top">
<polygon fill="#eeeeff" stroke="black" points="16,-136 16,-260 158,-260 158,-136 16,-136"/>
</a>
</g>
</g>
<!-- dir_f79eaa419c9665ed0522066c5c6851c4 -->
<g id="node1" class="node">
<title>dir_f79eaa419c9665ed0522066c5c6851c4</title>
<text text-anchor="middle" x="123" y="-231.5" font-family="FreeSans" font-size="10.00">ffcontrol</text>
</g>
<!-- dir_bff080f090c055aa6c554a4799e71e04 -->
<g id="node2" class="node">
<title>dir_bff080f090c055aa6c554a4799e71e04</title>
<g id="a_node2"><a xlink:href="dir_bff080f090c055aa6c554a4799e71e04.html" target="_top" xlink:title="include">
<polygon fill="white" stroke="black" points="78,-180 24,-180 24,-144 78,-144 78,-180"/>
<text text-anchor="middle" x="51" y="-159.5" font-family="FreeSans" font-size="10.00">include</text>
</a>
</g>
</g>
<!-- dir_cb2d4e92f47691559fc9d122a5e37fac -->
<g id="node4" class="node">
<title>dir_cb2d4e92f47691559fc9d122a5e37fac</title>
<g id="a_node4"><a xlink:href="dir_cb2d4e92f47691559fc9d122a5e37fac.html" target="_top" xlink:title="mk4util">
<polygon fill="white" stroke="red" points="116,-108 62,-108 62,-72 116,-72 116,-108"/>
<text text-anchor="middle" x="89" y="-87.5" font-family="FreeSans" font-size="10.00">mk4util</text>
</a>
</g>
</g>
<!-- dir_bff080f090c055aa6c554a4799e71e04&#45;&gt;dir_cb2d4e92f47691559fc9d122a5e37fac -->
<g id="edge1" class="edge">
<title>dir_bff080f090c055aa6c554a4799e71e04&#45;&gt;dir_cb2d4e92f47691559fc9d122a5e37fac</title>
<path fill="none" stroke="black" d="M60.39,-143.7C64.76,-135.64 70.06,-125.89 74.9,-116.98"/>
<polygon fill="black" stroke="black" points="78.02,-118.56 79.71,-108.1 71.87,-115.22 78.02,-118.56"/>
<g id="a_edge1&#45;headlabel"><a xlink:href="dir_000056_000014.html" target="_top" xlink:title="2">
<text text-anchor="middle" x="78.8" y="-120.58" font-family="FreeSans" font-size="10.00">2</text>
</a>
</g>
</g>
<!-- dir_2de8c689fb59fd3db1a07a4b4927be9f -->
<g id="node3" class="node">
<title>dir_2de8c689fb59fd3db1a07a4b4927be9f</title>
<g id="a_node3"><a xlink:href="dir_2de8c689fb59fd3db1a07a4b4927be9f.html" target="_top" xlink:title="src">
<polygon fill="white" stroke="black" points="78,-252 24,-252 24,-216 78,-216 78,-252"/>
<text text-anchor="middle" x="51" y="-231.5" font-family="FreeSans" font-size="10.00">src</text>
</a>
</g>
</g>
<!-- dir_2de8c689fb59fd3db1a07a4b4927be9f&#45;&gt;dir_bff080f090c055aa6c554a4799e71e04 -->
<g id="edge4" class="edge">
<title>dir_2de8c689fb59fd3db1a07a4b4927be9f&#45;&gt;dir_bff080f090c055aa6c554a4799e71e04</title>
<path fill="none" stroke="black" d="M51,-215.7C51,-207.98 51,-198.71 51,-190.11"/>
<polygon fill="black" stroke="black" points="54.5,-190.1 51,-180.1 47.5,-190.1 54.5,-190.1"/>
<g id="a_edge4&#45;headlabel"><a xlink:href="dir_000055_000056.html" target="_top" xlink:title="30">
<text text-anchor="middle" x="57.34" y="-191.2" font-family="FreeSans" font-size="10.00">30</text>
</a>
</g>
</g>
<!-- dir_2de8c689fb59fd3db1a07a4b4927be9f&#45;&gt;dir_cb2d4e92f47691559fc9d122a5e37fac -->
<g id="edge5" class="edge">
<title>dir_2de8c689fb59fd3db1a07a4b4927be9f&#45;&gt;dir_cb2d4e92f47691559fc9d122a5e37fac</title>
<path fill="none" stroke="black" d="M66.49,-215.74C74.22,-205.98 82.8,-193.14 87,-180 93.39,-160.04 93.57,-136.25 92.33,-118.29"/>
<polygon fill="black" stroke="black" points="95.8,-117.86 91.44,-108.2 88.83,-118.47 95.8,-117.86"/>
<g id="a_edge5&#45;headlabel"><a xlink:href="dir_000055_000014.html" target="_top" xlink:title="7">
<text text-anchor="middle" x="98.94" y="-118.69" font-family="FreeSans" font-size="10.00">7</text>
</a>
</g>
</g>
<!-- dir_758df28fbdbb54fb46d6d3d6484a4984 -->
<g id="node5" class="node">
<title>dir_758df28fbdbb54fb46d6d3d6484a4984</title>
<g id="a_node5"><a xlink:href="dir_758df28fbdbb54fb46d6d3d6484a4984.html" target="_top" xlink:title="msg">
<polygon fill="white" stroke="red" points="143,-36 89,-36 89,0 143,0 143,-36"/>
<text text-anchor="middle" x="116" y="-15.5" font-family="FreeSans" font-size="10.00">msg</text>
</a>
</g>
</g>
<!-- dir_2de8c689fb59fd3db1a07a4b4927be9f&#45;&gt;dir_758df28fbdbb54fb46d6d3d6484a4984 -->
<g id="edge3" class="edge">
<title>dir_2de8c689fb59fd3db1a07a4b4927be9f&#45;&gt;dir_758df28fbdbb54fb46d6d3d6484a4984</title>
<path fill="none" stroke="black" d="M71.96,-215.98C82.58,-206.4 94.9,-193.63 103,-180 128.03,-137.89 129.12,-120.81 125,-72 124.28,-63.5 122.93,-54.31 121.49,-46.01"/>
<polygon fill="black" stroke="black" points="124.91,-45.29 119.65,-36.09 118.03,-46.56 124.91,-45.29"/>
<g id="a_edge3&#45;headlabel"><a xlink:href="dir_000055_000144.html" target="_top" xlink:title="8">
<text text-anchor="middle" x="128.36" y="-45.81" font-family="FreeSans" font-size="10.00">8</text>
</a>
</g>
</g>
<!-- dir_cb2d4e92f47691559fc9d122a5e37fac&#45;&gt;dir_758df28fbdbb54fb46d6d3d6484a4984 -->
<g id="edge2" class="edge">
<title>dir_cb2d4e92f47691559fc9d122a5e37fac&#45;&gt;dir_758df28fbdbb54fb46d6d3d6484a4984</title>
<path fill="none" stroke="black" d="M95.67,-71.7C98.71,-63.81 102.38,-54.3 105.76,-45.55"/>
<polygon fill="black" stroke="black" points="109.07,-46.69 109.4,-36.1 102.54,-44.17 109.07,-46.69"/>
<g id="a_edge2&#45;headlabel"><a xlink:href="dir_000014_000144.html" target="_top" xlink:title="3">
<text text-anchor="middle" x="110.42" y="-48.57" font-family="FreeSans" font-size="10.00">3</text>
</a>
</g>
</g>
</g>
</svg>
