<?xml version="1.0" encoding="UTF-8" standalone="no"?>
<!DOCTYPE svg PUBLIC "-//W3C//DTD SVG 1.1//EN"
 "http://www.w3.org/Graphics/SVG/1.1/DTD/svg11.dtd">
<!-- Generated by graphviz version 2.43.0 (0)
 -->
<!-- Title: source Pages: 1 -->
<svg width="248pt" height="148pt"
 viewBox="0.00 0.00 248.00 148.00" xmlns="http://www.w3.org/2000/svg" xmlns:xlink="http://www.w3.org/1999/xlink">
<g id="graph0" class="graph" transform="scale(1 1) rotate(0) translate(4 144)">
<title>source</title>
<polygon fill="white" stroke="transparent" points="-4,4 -4,-144 244,-144 244,4 -4,4"/>
<g id="clust1" class="cluster">
<title>clusterdir_b2f33c71d4aa5e7af42a1ca61ff5af1b</title>
<g id="a_clust1"><a xlink:href="dir_b2f33c71d4aa5e7af42a1ca61ff5af1b.html" target="_top">
<polygon fill="#eeeeff" stroke="black" points="8,-8 8,-132 232,-132 232,-8 8,-8"/>
</a>
</g>
</g>
<!-- dir_b2f33c71d4aa5e7af42a1ca61ff5af1b -->
<g id="node1" class="node">
<title>dir_b2f33c71d4aa5e7af42a1ca61ff5af1b</title>
<text text-anchor="middle" x="197" y="-103.5" font-family="FreeSans" font-size="10.00">source</text>
</g>
<!-- dir_0c6283dd7716efebfcf76fdb98d8e794 -->
<g id="node2" class="node">
<title>dir_0c6283dd7716efebfcf76fdb98d8e794</title>
<g id="a_node2"><a xlink:href="dir_0c6283dd7716efebfcf76fdb98d8e794.html" target="_top" xlink:title="c_src">
<polygon fill="white" stroke="red" points="113,-52 59,-52 59,-16 113,-16 113,-52"/>
<text text-anchor="middle" x="86" y="-31.5" font-family="FreeSans" font-size="10.00">c_src</text>
</a>
</g>
</g>
<!-- dir_730935399589b544a579302a37a46c03 -->
<g id="node3" class="node">
<title>dir_730935399589b544a579302a37a46c03</title>
<g id="a_node3"><a xlink:href="dir_730935399589b544a579302a37a46c03.html" target="_top" xlink:title="cpp_src">
<polygon fill="white" stroke="red" points="152,-124 98,-124 98,-88 152,-88 152,-124"/>
<text text-anchor="middle" x="125" y="-103.5" font-family="FreeSans" font-size="10.00">cpp_src</text>
</a>
</g>
</g>
<!-- dir_730935399589b544a579302a37a46c03&#45;&gt;dir_0c6283dd7716efebfcf76fdb98d8e794 -->
<g id="edge1" class="edge">
<title>dir_730935399589b544a579302a37a46c03&#45;&gt;dir_0c6283dd7716efebfcf76fdb98d8e794</title>
<path fill="none" stroke="black" d="M115.36,-87.7C110.87,-79.64 105.44,-69.89 100.48,-60.98"/>
<polygon fill="black" stroke="black" points="103.45,-59.14 95.53,-52.1 97.34,-62.54 103.45,-59.14"/>
<g id="a_edge1&#45;headlabel"><a xlink:href="dir_000035_000013.html" target="_top" xlink:title="18">
<text text-anchor="middle" x="107.68" y="-58.39" font-family="FreeSans" font-size="10.00">18</text>
</a>
</g>
</g>
<!-- dir_3a5cd54c2ec608c33032a11cbff54533 -->
<g id="node4" class="node">
<title>dir_3a5cd54c2ec608c33032a11cbff54533</title>
<g id="a_node4"><a xlink:href="dir_3a5cd54c2ec608c33032a11cbff54533.html" target="_top" xlink:title="python_src">
<polygon fill="white" stroke="red" points="80,-124 16,-124 16,-88 80,-88 80,-124"/>
<text text-anchor="middle" x="48" y="-103.5" font-family="FreeSans" font-size="10.00">python_src</text>
</a>
</g>
</g>
<!-- dir_3a5cd54c2ec608c33032a11cbff54533&#45;&gt;dir_0c6283dd7716efebfcf76fdb98d8e794 -->
<g id="edge2" class="edge">
<title>dir_3a5cd54c2ec608c33032a11cbff54533&#45;&gt;dir_0c6283dd7716efebfcf76fdb98d8e794</title>
<path fill="none" stroke="black" d="M57.39,-87.7C61.76,-79.64 67.06,-69.89 71.9,-60.98"/>
<polygon fill="black" stroke="black" points="75.02,-62.56 76.71,-52.1 68.87,-59.22 75.02,-62.56"/>
<g id="a_edge2&#45;headlabel"><a xlink:href="dir_000001_000013.html" target="_top" xlink:title="4">
<text text-anchor="middle" x="75.8" y="-64.58" font-family="FreeSans" font-size="10.00">4</text>
</a>
</g>
</g>
</g>
</svg>
