<?xml version="1.0" encoding="UTF-8" standalone="no"?>
<!DOCTYPE svg PUBLIC "-//W3C//DTD SVG 1.1//EN"
 "http://www.w3.org/Graphics/SVG/1.1/DTD/svg11.dtd">
<!-- Generated by graphviz version 2.43.0 (0)
 -->
<!-- Title: Initialization Pages: 1 -->
<svg width="286pt" height="463pt"
 viewBox="0.00 0.00 286.00 463.00" xmlns="http://www.w3.org/2000/svg" xmlns:xlink="http://www.w3.org/1999/xlink">
<g id="graph0" class="graph" transform="scale(1 1) rotate(0) translate(4 459)">
<title>Initialization</title>
<polygon fill="white" stroke="transparent" points="-4,4 -4,-459 282,-459 282,4 -4,4"/>
<g id="clust1" class="cluster">
<title>clusterdir_730935399589b544a579302a37a46c03</title>
<g id="a_clust1"><a xlink:href="dir_730935399589b544a579302a37a46c03.html" target="_top" xlink:title="cpp_src">
<polygon fill="#ddddee" stroke="black" points="8,-8 8,-447 270,-447 270,-8 8,-8"/>
<text text-anchor="middle" x="139" y="-435" font-family="FreeSans" font-size="10.00">cpp_src</text>
</a>
</g>
</g>
<g id="clust2" class="cluster">
<title>clusterdir_b8ce078ed9f8fd90d71e02c796d93353</title>
<g id="a_clust2"><a xlink:href="dir_b8ce078ed9f8fd90d71e02c796d93353.html" target="_top">
<polygon fill="#eeeeff" stroke="black" points="16,-296 16,-420 172,-420 172,-296 16,-296"/>
</a>
</g>
</g>
<!-- dir_150f406a44a04ce55518da03ec553ece -->
<g id="node1" class="node">
<title>dir_150f406a44a04ce55518da03ec553ece</title>
<g id="a_node1"><a xlink:href="dir_150f406a44a04ce55518da03ec553ece.html" target="_top" xlink:title="Utilities">
<polygon fill="white" stroke="red" points="126,-124 72,-124 72,-88 126,-88 126,-124"/>
<text text-anchor="middle" x="99" y="-103.5" font-family="FreeSans" font-size="10.00">Utilities</text>
</a>
</g>
</g>
<!-- dir_32348ece3c89569e6a714937ae854c89 -->
<g id="node2" class="node">
<title>dir_32348ece3c89569e6a714937ae854c89</title>
<g id="a_node2"><a xlink:href="dir_32348ece3c89569e6a714937ae854c89.html" target="_top" xlink:title="Message">
<polygon fill="white" stroke="red" points="127,-52 71,-52 71,-16 127,-16 127,-52"/>
<text text-anchor="middle" x="99" y="-31.5" font-family="FreeSans" font-size="10.00">Message</text>
</a>
</g>
</g>
<!-- dir_150f406a44a04ce55518da03ec553ece&#45;&gt;dir_32348ece3c89569e6a714937ae854c89 -->
<g id="edge19" class="edge">
<title>dir_150f406a44a04ce55518da03ec553ece&#45;&gt;dir_32348ece3c89569e6a714937ae854c89</title>
<path fill="none" stroke="black" d="M99,-87.7C99,-79.98 99,-70.71 99,-62.11"/>
<polygon fill="black" stroke="black" points="102.5,-62.1 99,-52.1 95.5,-62.1 102.5,-62.1"/>
<g id="a_edge19&#45;headlabel"><a xlink:href="dir_000086_000123.html" target="_top" xlink:title="13">
<text text-anchor="middle" x="105.34" y="-63.2" font-family="FreeSans" font-size="10.00">13</text>
</a>
</g>
</g>
<!-- dir_4546011bd625f1142c4c4ae06dcdb5ba -->
<g id="node3" class="node">
<title>dir_4546011bd625f1142c4c4ae06dcdb5ba</title>
<g id="a_node3"><a xlink:href="dir_4546011bd625f1142c4c4ae06dcdb5ba.html" target="_top" xlink:title="Operators">
<polygon fill="white" stroke="red" points="123.5,-268 64.5,-268 64.5,-232 123.5,-232 123.5,-268"/>
<text text-anchor="middle" x="94" y="-247.5" font-family="FreeSans" font-size="10.00">Operators</text>
</a>
</g>
</g>
<!-- dir_4546011bd625f1142c4c4ae06dcdb5ba&#45;&gt;dir_150f406a44a04ce55518da03ec553ece -->
<g id="edge12" class="edge">
<title>dir_4546011bd625f1142c4c4ae06dcdb5ba&#45;&gt;dir_150f406a44a04ce55518da03ec553ece</title>
<path fill="none" stroke="black" d="M94.6,-231.87C95.46,-207.67 97.02,-163.21 98.04,-134.39"/>
<polygon fill="black" stroke="black" points="101.54,-134.31 98.39,-124.19 94.54,-134.06 101.54,-134.31"/>
<g id="a_edge12&#45;headlabel"><a xlink:href="dir_000089_000086.html" target="_top" xlink:title="5">
<text text-anchor="middle" x="104.25" y="-135.5" font-family="FreeSans" font-size="10.00">5</text>
</a>
</g>
</g>
<!-- dir_4546011bd625f1142c4c4ae06dcdb5ba&#45;&gt;dir_32348ece3c89569e6a714937ae854c89 -->
<g id="edge13" class="edge">
<title>dir_4546011bd625f1142c4c4ae06dcdb5ba&#45;&gt;dir_32348ece3c89569e6a714937ae854c89</title>
<path fill="none" stroke="black" d="M85.27,-231.78C71.36,-202 47.27,-139.15 63,-88 66.01,-78.22 71.51,-68.62 77.32,-60.33"/>
<polygon fill="black" stroke="black" points="80.19,-62.33 83.39,-52.23 74.59,-58.13 80.19,-62.33"/>
<g id="a_edge13&#45;headlabel"><a xlink:href="dir_000089_000123.html" target="_top" xlink:title="12">
<text text-anchor="middle" x="80.31" y="-64.41" font-family="FreeSans" font-size="10.00">12</text>
</a>
</g>
</g>
<!-- dir_a06008c3e245d1092ba6894d6caedef2 -->
<g id="node4" class="node">
<title>dir_a06008c3e245d1092ba6894d6caedef2</title>
<g id="a_node4"><a xlink:href="dir_a06008c3e245d1092ba6894d6caedef2.html" target="_top" xlink:title="Containers">
<polygon fill="white" stroke="red" points="176.5,-196 113.5,-196 113.5,-160 176.5,-160 176.5,-196"/>
<text text-anchor="middle" x="145" y="-175.5" font-family="FreeSans" font-size="10.00">Containers</text>
</a>
</g>
</g>
<!-- dir_4546011bd625f1142c4c4ae06dcdb5ba&#45;&gt;dir_a06008c3e245d1092ba6894d6caedef2 -->
<g id="edge14" class="edge">
<title>dir_4546011bd625f1142c4c4ae06dcdb5ba&#45;&gt;dir_a06008c3e245d1092ba6894d6caedef2</title>
<path fill="none" stroke="black" d="M106.61,-231.7C112.6,-223.47 119.88,-213.48 126.48,-204.42"/>
<polygon fill="black" stroke="black" points="129.48,-206.25 132.54,-196.1 123.82,-202.13 129.48,-206.25"/>
<g id="a_edge14&#45;headlabel"><a xlink:href="dir_000089_000096.html" target="_top" xlink:title="22">
<text text-anchor="middle" x="129.66" y="-208.32" font-family="FreeSans" font-size="10.00">22</text>
</a>
</g>
</g>
<!-- dir_a06008c3e245d1092ba6894d6caedef2&#45;&gt;dir_150f406a44a04ce55518da03ec553ece -->
<g id="edge5" class="edge">
<title>dir_a06008c3e245d1092ba6894d6caedef2&#45;&gt;dir_150f406a44a04ce55518da03ec553ece</title>
<path fill="none" stroke="black" d="M133.63,-159.7C128.28,-151.56 121.8,-141.69 115.89,-132.7"/>
<polygon fill="black" stroke="black" points="118.66,-130.54 110.24,-124.1 112.81,-134.38 118.66,-130.54"/>
<g id="a_edge5&#45;headlabel"><a xlink:href="dir_000096_000086.html" target="_top" xlink:title="42">
<text text-anchor="middle" x="123" y="-129.48" font-family="FreeSans" font-size="10.00">42</text>
</a>
</g>
</g>
<!-- dir_a06008c3e245d1092ba6894d6caedef2&#45;&gt;dir_32348ece3c89569e6a714937ae854c89 -->
<g id="edge6" class="edge">
<title>dir_a06008c3e245d1092ba6894d6caedef2&#45;&gt;dir_32348ece3c89569e6a714937ae854c89</title>
<path fill="none" stroke="black" d="M145.48,-159.71C145.44,-141.35 143.79,-111.77 135,-88 131.45,-78.4 125.8,-68.85 120.02,-60.56"/>
<polygon fill="black" stroke="black" points="122.77,-58.4 114.03,-52.42 117.14,-62.55 122.77,-58.4"/>
<g id="a_edge6&#45;headlabel"><a xlink:href="dir_000096_000123.html" target="_top" xlink:title="9">
<text text-anchor="middle" x="127.19" y="-57.11" font-family="FreeSans" font-size="10.00">9</text>
</a>
</g>
</g>
<!-- dir_91ae3e556fa9cad9030b784323206cc7 -->
<g id="node5" class="node">
<title>dir_91ae3e556fa9cad9030b784323206cc7</title>
<g id="a_node5"><a xlink:href="dir_91ae3e556fa9cad9030b784323206cc7.html" target="_top" xlink:title="Calibration">
<polygon fill="white" stroke="red" points="242,-340 180,-340 180,-304 242,-304 242,-340"/>
<text text-anchor="middle" x="211" y="-319.5" font-family="FreeSans" font-size="10.00">Calibration</text>
</a>
</g>
</g>
<!-- dir_91ae3e556fa9cad9030b784323206cc7&#45;&gt;dir_150f406a44a04ce55518da03ec553ece -->
<g id="edge2" class="edge">
<title>dir_91ae3e556fa9cad9030b784323206cc7&#45;&gt;dir_150f406a44a04ce55518da03ec553ece</title>
<path fill="none" stroke="black" d="M212.64,-303.83C214.74,-272.45 215.06,-204.96 185,-160 173.24,-142.41 153.46,-129.63 135.83,-121.03"/>
<polygon fill="black" stroke="black" points="136.88,-117.66 126.33,-116.68 133.96,-124.02 136.88,-117.66"/>
<g id="a_edge2&#45;headlabel"><a xlink:href="dir_000102_000086.html" target="_top" xlink:title="29">
<text text-anchor="middle" x="141.33" y="-114.07" font-family="FreeSans" font-size="10.00">29</text>
</a>
</g>
</g>
<!-- dir_91ae3e556fa9cad9030b784323206cc7&#45;&gt;dir_32348ece3c89569e6a714937ae854c89 -->
<g id="edge1" class="edge">
<title>dir_91ae3e556fa9cad9030b784323206cc7&#45;&gt;dir_32348ece3c89569e6a714937ae854c89</title>
<path fill="none" stroke="black" d="M213.44,-303.86C214.79,-293.5 216.32,-280.02 217,-268 219.74,-219.42 219.91,-203.94 199,-160 180.35,-120.83 147.26,-82.95 124.28,-59.35"/>
<polygon fill="black" stroke="black" points="126.73,-56.85 117.2,-52.21 121.75,-61.78 126.73,-56.85"/>
<g id="a_edge1&#45;headlabel"><a xlink:href="dir_000102_000123.html" target="_top" xlink:title="22">
<text text-anchor="middle" x="131.27" y="-54.9" font-family="FreeSans" font-size="10.00">22</text>
</a>
</g>
</g>
<!-- dir_91ae3e556fa9cad9030b784323206cc7&#45;&gt;dir_4546011bd625f1142c4c4ae06dcdb5ba -->
<g id="edge4" class="edge">
<title>dir_91ae3e556fa9cad9030b784323206cc7&#45;&gt;dir_4546011bd625f1142c4c4ae06dcdb5ba</title>
<path fill="none" stroke="black" d="M187.92,-303.93C183.99,-301.2 179.92,-298.46 176,-296 162.13,-287.28 146.45,-278.45 132.55,-270.94"/>
<polygon fill="black" stroke="black" points="134.18,-267.84 123.71,-266.21 130.88,-274.01 134.18,-267.84"/>
<g id="a_edge4&#45;headlabel"><a xlink:href="dir_000102_000089.html" target="_top" xlink:title="55">
<text text-anchor="middle" x="138.68" y="-264.53" font-family="FreeSans" font-size="10.00">55</text>
</a>
</g>
</g>
<!-- dir_91ae3e556fa9cad9030b784323206cc7&#45;&gt;dir_a06008c3e245d1092ba6894d6caedef2 -->
<g id="edge3" class="edge">
<title>dir_91ae3e556fa9cad9030b784323206cc7&#45;&gt;dir_a06008c3e245d1092ba6894d6caedef2</title>
<path fill="none" stroke="black" d="M203.04,-303.87C191.64,-279.35 170.58,-234.03 157.2,-205.26"/>
<polygon fill="black" stroke="black" points="160.38,-203.78 152.99,-196.19 154.03,-206.73 160.38,-203.78"/>
<g id="a_edge3&#45;headlabel"><a xlink:href="dir_000102_000096.html" target="_top" xlink:title="64">
<text text-anchor="middle" x="164.47" y="-203.35" font-family="FreeSans" font-size="10.00">64</text>
</a>
</g>
</g>
<!-- dir_b8ce078ed9f8fd90d71e02c796d93353 -->
<g id="node6" class="node">
<title>dir_b8ce078ed9f8fd90d71e02c796d93353</title>
<text text-anchor="middle" x="130" y="-391.5" font-family="FreeSans" font-size="10.00">Initialization</text>
</g>
<!-- dir_0dc70d85b9b46e117d15d6fa142bde30 -->
<g id="node7" class="node">
<title>dir_0dc70d85b9b46e117d15d6fa142bde30</title>
<g id="a_node7"><a xlink:href="dir_0dc70d85b9b46e117d15d6fa142bde30.html" target="_top" xlink:title="include">
<polygon fill="white" stroke="black" points="78,-340 24,-340 24,-304 78,-304 78,-340"/>
<text text-anchor="middle" x="51" y="-319.5" font-family="FreeSans" font-size="10.00">include</text>
</a>
</g>
</g>
<!-- dir_0dc70d85b9b46e117d15d6fa142bde30&#45;&gt;dir_150f406a44a04ce55518da03ec553ece -->
<g id="edge15" class="edge">
<title>dir_0dc70d85b9b46e117d15d6fa142bde30&#45;&gt;dir_150f406a44a04ce55518da03ec553ece</title>
<path fill="none" stroke="black" d="M50.29,-303.76C49.89,-285.7 50.23,-256.6 55,-232 61.78,-197.06 76.43,-158.71 86.97,-133.82"/>
<polygon fill="black" stroke="black" points="90.31,-134.91 91.05,-124.35 83.88,-132.14 90.31,-134.91"/>
<g id="a_edge15&#45;headlabel"><a xlink:href="dir_000106_000086.html" target="_top" xlink:title="7">
<text text-anchor="middle" x="91.49" y="-136.84" font-family="FreeSans" font-size="10.00">7</text>
</a>
</g>
</g>
<!-- dir_0dc70d85b9b46e117d15d6fa142bde30&#45;&gt;dir_32348ece3c89569e6a714937ae854c89 -->
<g id="edge16" class="edge">
<title>dir_0dc70d85b9b46e117d15d6fa142bde30&#45;&gt;dir_32348ece3c89569e6a714937ae854c89</title>
<path fill="none" stroke="black" d="M47.22,-303.83C39.31,-264.13 24.12,-163.63 54,-88 58.1,-77.62 65.11,-67.83 72.39,-59.55"/>
<polygon fill="black" stroke="black" points="75.08,-61.79 79.37,-52.1 69.97,-57.01 75.08,-61.79"/>
<g id="a_edge16&#45;headlabel"><a xlink:href="dir_000106_000123.html" target="_top" xlink:title="3">
<text text-anchor="middle" x="74.69" y="-63.86" font-family="FreeSans" font-size="10.00">3</text>
</a>
</g>
</g>
<!-- dir_0dc70d85b9b46e117d15d6fa142bde30&#45;&gt;dir_4546011bd625f1142c4c4ae06dcdb5ba -->
<g id="edge17" class="edge">
<title>dir_0dc70d85b9b46e117d15d6fa142bde30&#45;&gt;dir_4546011bd625f1142c4c4ae06dcdb5ba</title>
<path fill="none" stroke="black" d="M61.63,-303.7C66.63,-295.56 72.69,-285.69 78.21,-276.7"/>
<polygon fill="black" stroke="black" points="81.24,-278.46 83.49,-268.1 75.28,-274.79 81.24,-278.46"/>
<g id="a_edge17&#45;headlabel"><a xlink:href="dir_000106_000089.html" target="_top" xlink:title="3">
<text text-anchor="middle" x="81.78" y="-280.51" font-family="FreeSans" font-size="10.00">3</text>
</a>
</g>
</g>
<!-- dir_0dc70d85b9b46e117d15d6fa142bde30&#45;&gt;dir_a06008c3e245d1092ba6894d6caedef2 -->
<g id="edge18" class="edge">
<title>dir_0dc70d85b9b46e117d15d6fa142bde30&#45;&gt;dir_a06008c3e245d1092ba6894d6caedef2</title>
<path fill="none" stroke="black" d="M71.31,-303.83C74.8,-301.11 78.45,-298.4 82,-296 103.1,-281.73 117.56,-288.98 132,-268 144.41,-249.96 147.13,-224.97 147.04,-206.06"/>
<polygon fill="black" stroke="black" points="150.54,-205.89 146.74,-196 143.54,-206.1 150.54,-205.89"/>
<g id="a_edge18&#45;headlabel"><a xlink:href="dir_000106_000096.html" target="_top" xlink:title="5">
<text text-anchor="middle" x="153.49" y="-206.9" font-family="FreeSans" font-size="10.00">5</text>
</a>
</g>
</g>
<!-- dir_dffae469195e904fa488166b8250282a -->
<g id="node8" class="node">
<title>dir_dffae469195e904fa488166b8250282a</title>
<g id="a_node8"><a xlink:href="dir_dffae469195e904fa488166b8250282a.html" target="_top" xlink:title="src">
<polygon fill="white" stroke="black" points="78,-412 24,-412 24,-376 78,-376 78,-412"/>
<text text-anchor="middle" x="51" y="-391.5" font-family="FreeSans" font-size="10.00">src</text>
</a>
</g>
</g>
<!-- dir_dffae469195e904fa488166b8250282a&#45;&gt;dir_150f406a44a04ce55518da03ec553ece -->
<g id="edge8" class="edge">
<title>dir_dffae469195e904fa488166b8250282a&#45;&gt;dir_150f406a44a04ce55518da03ec553ece</title>
<path fill="none" stroke="black" d="M78.25,-379.35C81.17,-378.13 84.12,-376.98 87,-376 157.63,-351.92 204.23,-398.15 251,-340 288.55,-293.31 246.94,-214.19 199,-160 182.14,-140.94 156.75,-127.61 135.77,-119.08"/>
<polygon fill="black" stroke="black" points="136.78,-115.71 126.19,-115.38 134.26,-122.24 136.78,-115.71"/>
<g id="a_edge8&#45;headlabel"><a xlink:href="dir_000105_000086.html" target="_top" xlink:title="37">
<text text-anchor="middle" x="141.16" y="-111.86" font-family="FreeSans" font-size="10.00">37</text>
</a>
</g>
</g>
<!-- dir_dffae469195e904fa488166b8250282a&#45;&gt;dir_4546011bd625f1142c4c4ae06dcdb5ba -->
<g id="edge9" class="edge">
<title>dir_dffae469195e904fa488166b8250282a&#45;&gt;dir_4546011bd625f1142c4c4ae06dcdb5ba</title>
<path fill="none" stroke="black" d="M66.2,-375.64C73.84,-365.86 82.43,-353.01 87,-340 93.96,-320.17 95.51,-296.37 95.43,-278.37"/>
<polygon fill="black" stroke="black" points="98.93,-278.19 95.21,-268.27 91.93,-278.34 98.93,-278.19"/>
<g id="a_edge9&#45;headlabel"><a xlink:href="dir_000105_000089.html" target="_top" xlink:title="1">
<text text-anchor="middle" x="101.84" y="-279.22" font-family="FreeSans" font-size="10.00">1</text>
</a>
</g>
</g>
<!-- dir_dffae469195e904fa488166b8250282a&#45;&gt;dir_a06008c3e245d1092ba6894d6caedef2 -->
<g id="edge11" class="edge">
<title>dir_dffae469195e904fa488166b8250282a&#45;&gt;dir_a06008c3e245d1092ba6894d6caedef2</title>
<path fill="none" stroke="black" d="M70.03,-375.81C93.01,-353.6 130.27,-312.45 144,-268 150.19,-247.98 150.1,-224.19 148.65,-206.25"/>
<polygon fill="black" stroke="black" points="152.12,-205.78 147.64,-196.18 145.15,-206.47 152.12,-205.78"/>
<g id="a_edge11&#45;headlabel"><a xlink:href="dir_000105_000096.html" target="_top" xlink:title="2">
<text text-anchor="middle" x="155.3" y="-206.57" font-family="FreeSans" font-size="10.00">2</text>
</a>
</g>
</g>
<!-- dir_dffae469195e904fa488166b8250282a&#45;&gt;dir_91ae3e556fa9cad9030b784323206cc7 -->
<g id="edge10" class="edge">
<title>dir_dffae469195e904fa488166b8250282a&#45;&gt;dir_91ae3e556fa9cad9030b784323206cc7</title>
<path fill="none" stroke="black" d="M78.05,-380.02C81.06,-378.64 84.09,-377.28 87,-376 123.03,-360.22 135.13,-357.67 170.29,-342.46"/>
<polygon fill="black" stroke="black" points="172.01,-345.53 179.76,-338.31 169.19,-339.12 172.01,-345.53"/>
<g id="a_edge10&#45;headlabel"><a xlink:href="dir_000105_000102.html" target="_top" xlink:title="17">
<text text-anchor="middle" x="169.86" y="-347.07" font-family="FreeSans" font-size="10.00">17</text>
</a>
</g>
</g>
<!-- dir_dffae469195e904fa488166b8250282a&#45;&gt;dir_0dc70d85b9b46e117d15d6fa142bde30 -->
<g id="edge7" class="edge">
<title>dir_dffae469195e904fa488166b8250282a&#45;&gt;dir_0dc70d85b9b46e117d15d6fa142bde30</title>
<path fill="none" stroke="black" d="M51,-375.7C51,-367.98 51,-358.71 51,-350.11"/>
<polygon fill="black" stroke="black" points="54.5,-350.1 51,-340.1 47.5,-350.1 54.5,-350.1"/>
<g id="a_edge7&#45;headlabel"><a xlink:href="dir_000105_000106.html" target="_top" xlink:title="40">
<text text-anchor="middle" x="57.34" y="-351.2" font-family="FreeSans" font-size="10.00">40</text>
</a>
</g>
</g>
</g>
</svg>
