<?xml version="1.0" encoding="UTF-8" standalone="no"?>
<!DOCTYPE svg PUBLIC "-//W3C//DTD SVG 1.1//EN"
 "http://www.w3.org/Graphics/SVG/1.1/DTD/svg11.dtd">
<!-- Generated by graphviz version 2.43.0 (0)
 -->
<!-- Title: OpenCL Pages: 1 -->
<svg width="470pt" height="447pt"
 viewBox="0.00 0.00 470.37 447.00" xmlns="http://www.w3.org/2000/svg" xmlns:xlink="http://www.w3.org/1999/xlink">
<g id="graph0" class="graph" transform="scale(1 1) rotate(0) translate(4 443)">
<title>OpenCL</title>
<polygon fill="white" stroke="transparent" points="-4,4 -4,-443 466.37,-443 466.37,4 -4,4"/>
<g id="clust1" class="cluster">
<title>clusterdir_26953edb3cb67a8e3bae1da7766c1e03</title>
<g id="a_clust1"><a xlink:href="dir_26953edb3cb67a8e3bae1da7766c1e03.html" target="_top" xlink:title="Plugins">
<polygon fill="#ddddee" stroke="black" points="8,-200 8,-431 244,-431 244,-200 8,-200"/>
<text text-anchor="middle" x="126" y="-419" font-family="FreeSans" font-size="10.00">Plugins</text>
</a>
</g>
</g>
<g id="clust2" class="cluster">
<title>clusterdir_cbaa4243dba62e6c31a85be2a7f37267</title>
<g id="a_clust2"><a xlink:href="dir_cbaa4243dba62e6c31a85be2a7f37267.html" target="_top">
<polygon fill="#eeeeff" stroke="black" points="16,-208 16,-404 236,-404 236,-208 16,-208"/>
</a>
</g>
</g>
<!-- dir_cbaa4243dba62e6c31a85be2a7f37267 -->
<g id="node1" class="node">
<title>dir_cbaa4243dba62e6c31a85be2a7f37267</title>
<text text-anchor="middle" x="201" y="-375.5" font-family="FreeSans" font-size="10.00">OpenCL</text>
</g>
<!-- dir_e2fcaed8db8bcf350f433431a993c8b5 -->
<g id="node2" class="node">
<title>dir_e2fcaed8db8bcf350f433431a993c8b5</title>
<g id="a_node2"><a xlink:href="dir_e2fcaed8db8bcf350f433431a993c8b5.html" target="_top" xlink:title="Containers">
<polygon fill="white" stroke="red" points="226.5,-324 163.5,-324 163.5,-288 226.5,-288 226.5,-324"/>
<text text-anchor="middle" x="195" y="-303.5" font-family="FreeSans" font-size="10.00">Containers</text>
</a>
</g>
</g>
<!-- dir_c452024336701c9bf6340e0043ea0543 -->
<g id="node3" class="node">
<title>dir_c452024336701c9bf6340e0043ea0543</title>
<g id="a_node3"><a xlink:href="dir_c452024336701c9bf6340e0043ea0543.html" target="_top" xlink:title="Core">
<polygon fill="white" stroke="red" points="196,-252 142,-252 142,-216 196,-216 196,-252"/>
<text text-anchor="middle" x="169" y="-231.5" font-family="FreeSans" font-size="10.00">Core</text>
</a>
</g>
</g>
<!-- dir_e2fcaed8db8bcf350f433431a993c8b5&#45;&gt;dir_c452024336701c9bf6340e0043ea0543 -->
<g id="edge17" class="edge">
<title>dir_e2fcaed8db8bcf350f433431a993c8b5&#45;&gt;dir_c452024336701c9bf6340e0043ea0543</title>
<path fill="none" stroke="black" d="M188.57,-287.7C185.64,-279.81 182.11,-270.3 178.86,-261.55"/>
<polygon fill="black" stroke="black" points="182.12,-260.26 175.35,-252.1 175.55,-262.7 182.12,-260.26"/>
<g id="a_edge17&#45;headlabel"><a xlink:href="dir_000132_000082.html" target="_top" xlink:title="1">
<text text-anchor="middle" x="186.03" y="-260.14" font-family="FreeSans" font-size="10.00">1</text>
</a>
</g>
</g>
<!-- dir_150f406a44a04ce55518da03ec553ece -->
<g id="node6" class="node">
<title>dir_150f406a44a04ce55518da03ec553ece</title>
<g id="a_node6"><a xlink:href="dir_150f406a44a04ce55518da03ec553ece.html" target="_top" xlink:title="Utilities">
<polygon fill="white" stroke="red" points="369,-180 315,-180 315,-144 369,-144 369,-180"/>
<text text-anchor="middle" x="342" y="-159.5" font-family="FreeSans" font-size="10.00">Utilities</text>
</a>
</g>
</g>
<!-- dir_e2fcaed8db8bcf350f433431a993c8b5&#45;&gt;dir_150f406a44a04ce55518da03ec553ece -->
<g id="edge16" class="edge">
<title>dir_e2fcaed8db8bcf350f433431a993c8b5&#45;&gt;dir_150f406a44a04ce55518da03ec553ece</title>
<path fill="none" stroke="black" d="M198.76,-287.7C204.61,-264.67 218.04,-224.07 244,-200 260.89,-184.35 285.04,-175.13 305.14,-169.8"/>
<polygon fill="black" stroke="black" points="306.04,-173.19 314.93,-167.43 304.39,-166.39 306.04,-173.19"/>
<g id="a_edge16&#45;headlabel"><a xlink:href="dir_000132_000086.html" target="_top" xlink:title="2">
<text text-anchor="middle" x="303.21" y="-174.3" font-family="FreeSans" font-size="10.00">2</text>
</a>
</g>
</g>
<!-- dir_a06008c3e245d1092ba6894d6caedef2 -->
<g id="node9" class="node">
<title>dir_a06008c3e245d1092ba6894d6caedef2</title>
<g id="a_node9"><a xlink:href="dir_a06008c3e245d1092ba6894d6caedef2.html" target="_top" xlink:title="Containers">
<polygon fill="white" stroke="red" points="315.5,-252 252.5,-252 252.5,-216 315.5,-216 315.5,-252"/>
<text text-anchor="middle" x="284" y="-231.5" font-family="FreeSans" font-size="10.00">Containers</text>
</a>
</g>
</g>
<!-- dir_e2fcaed8db8bcf350f433431a993c8b5&#45;&gt;dir_a06008c3e245d1092ba6894d6caedef2 -->
<g id="edge18" class="edge">
<title>dir_e2fcaed8db8bcf350f433431a993c8b5&#45;&gt;dir_a06008c3e245d1092ba6894d6caedef2</title>
<path fill="none" stroke="black" d="M217,-287.7C228.21,-278.88 242,-268.03 254.15,-258.47"/>
<polygon fill="black" stroke="black" points="256.56,-261.04 262.25,-252.1 252.23,-255.54 256.56,-261.04"/>
<g id="a_edge18&#45;headlabel"><a xlink:href="dir_000132_000096.html" target="_top" xlink:title="1">
<text text-anchor="middle" x="255.49" y="-262.99" font-family="FreeSans" font-size="10.00">1</text>
</a>
</g>
</g>
<!-- dir_c452024336701c9bf6340e0043ea0543&#45;&gt;dir_150f406a44a04ce55518da03ec553ece -->
<g id="edge22" class="edge">
<title>dir_c452024336701c9bf6340e0043ea0543&#45;&gt;dir_150f406a44a04ce55518da03ec553ece</title>
<path fill="none" stroke="black" d="M187.07,-215.83C193.84,-210.13 201.88,-204.18 210,-200 240.11,-184.49 277.54,-174.79 304.84,-169.24"/>
<polygon fill="black" stroke="black" points="305.63,-172.65 314.78,-167.3 304.29,-165.78 305.63,-172.65"/>
<g id="a_edge22&#45;headlabel"><a xlink:href="dir_000082_000086.html" target="_top" xlink:title="1">
<text text-anchor="middle" x="302.64" y="-173.62" font-family="FreeSans" font-size="10.00">1</text>
</a>
</g>
</g>
<!-- dir_32348ece3c89569e6a714937ae854c89 -->
<g id="node7" class="node">
<title>dir_32348ece3c89569e6a714937ae854c89</title>
<g id="a_node7"><a xlink:href="dir_32348ece3c89569e6a714937ae854c89.html" target="_top" xlink:title="Message">
<polygon fill="white" stroke="red" points="331,-36 275,-36 275,0 331,0 331,-36"/>
<text text-anchor="middle" x="303" y="-15.5" font-family="FreeSans" font-size="10.00">Message</text>
</a>
</g>
</g>
<!-- dir_c452024336701c9bf6340e0043ea0543&#45;&gt;dir_32348ece3c89569e6a714937ae854c89 -->
<g id="edge21" class="edge">
<title>dir_c452024336701c9bf6340e0043ea0543&#45;&gt;dir_32348ece3c89569e6a714937ae854c89</title>
<path fill="none" stroke="black" d="M179.74,-215.85C203.16,-178.44 258.97,-89.32 286.73,-44.98"/>
<polygon fill="black" stroke="black" points="289.87,-46.57 292.21,-36.23 283.94,-42.85 289.87,-46.57"/>
<g id="a_edge21&#45;headlabel"><a xlink:href="dir_000082_000123.html" target="_top" xlink:title="2">
<text text-anchor="middle" x="290.37" y="-48.62" font-family="FreeSans" font-size="10.00">2</text>
</a>
</g>
</g>
<!-- dir_4d5b50bac2e8240a72f7da0fc2eb46d6 -->
<g id="node4" class="node">
<title>dir_4d5b50bac2e8240a72f7da0fc2eb46d6</title>
<g id="a_node4"><a xlink:href="dir_4d5b50bac2e8240a72f7da0fc2eb46d6.html" target="_top" xlink:title="Math">
<polygon fill="white" stroke="red" points="156,-396 102,-396 102,-360 156,-360 156,-396"/>
<text text-anchor="middle" x="129" y="-375.5" font-family="FreeSans" font-size="10.00">Math</text>
</a>
</g>
</g>
<!-- dir_33a62e81222a3378099f7b5a2aa63b54 -->
<g id="node5" class="node">
<title>dir_33a62e81222a3378099f7b5a2aa63b54</title>
<g id="a_node5"><a xlink:href="dir_33a62e81222a3378099f7b5a2aa63b54.html" target="_top" xlink:title="Operators">
<polygon fill="white" stroke="red" points="83.5,-396 24.5,-396 24.5,-360 83.5,-360 83.5,-396"/>
<text text-anchor="middle" x="54" y="-375.5" font-family="FreeSans" font-size="10.00">Operators</text>
</a>
</g>
</g>
<!-- dir_33a62e81222a3378099f7b5a2aa63b54&#45;&gt;dir_e2fcaed8db8bcf350f433431a993c8b5 -->
<g id="edge6" class="edge">
<title>dir_33a62e81222a3378099f7b5a2aa63b54&#45;&gt;dir_e2fcaed8db8bcf350f433431a993c8b5</title>
<path fill="none" stroke="black" d="M83.56,-362.33C104,-352.18 131.47,-338.54 154.02,-327.35"/>
<polygon fill="black" stroke="black" points="155.63,-330.45 163.03,-322.87 152.51,-324.18 155.63,-330.45"/>
<g id="a_edge6&#45;headlabel"><a xlink:href="dir_000108_000132.html" target="_top" xlink:title="2">
<text text-anchor="middle" x="153.67" y="-332.1" font-family="FreeSans" font-size="10.00">2</text>
</a>
</g>
</g>
<!-- dir_33a62e81222a3378099f7b5a2aa63b54&#45;&gt;dir_c452024336701c9bf6340e0043ea0543 -->
<g id="edge5" class="edge">
<title>dir_33a62e81222a3378099f7b5a2aa63b54&#45;&gt;dir_c452024336701c9bf6340e0043ea0543</title>
<path fill="none" stroke="black" d="M68.35,-359.88C76.99,-349.54 88.19,-336.06 98,-324 115.37,-302.66 134.85,-278.21 149,-260.34"/>
<polygon fill="black" stroke="black" points="152.03,-262.15 155.49,-252.14 146.54,-257.81 152.03,-262.15"/>
<g id="a_edge5&#45;headlabel"><a xlink:href="dir_000108_000082.html" target="_top" xlink:title="12">
<text text-anchor="middle" x="152.02" y="-264.24" font-family="FreeSans" font-size="10.00">12</text>
</a>
</g>
</g>
<!-- dir_33a62e81222a3378099f7b5a2aa63b54&#45;&gt;dir_150f406a44a04ce55518da03ec553ece -->
<g id="edge1" class="edge">
<title>dir_33a62e81222a3378099f7b5a2aa63b54&#45;&gt;dir_150f406a44a04ce55518da03ec553ece</title>
<path fill="none" stroke="black" d="M83.57,-363.37C86.72,-362.14 89.9,-360.99 93,-360 166.55,-336.45 196.53,-363.33 263,-324 299.34,-302.5 306.64,-290.03 325,-252 334.38,-232.58 338.59,-208.44 340.47,-190.2"/>
<polygon fill="black" stroke="black" points="343.96,-190.49 341.34,-180.22 336.99,-189.88 343.96,-190.49"/>
<g id="a_edge1&#45;headlabel"><a xlink:href="dir_000108_000086.html" target="_top" xlink:title="2">
<text text-anchor="middle" x="346.48" y="-191.81" font-family="FreeSans" font-size="10.00">2</text>
</a>
</g>
</g>
<!-- dir_33a62e81222a3378099f7b5a2aa63b54&#45;&gt;dir_32348ece3c89569e6a714937ae854c89 -->
<g id="edge2" class="edge">
<title>dir_33a62e81222a3378099f7b5a2aa63b54&#45;&gt;dir_32348ece3c89569e6a714937ae854c89</title>
<path fill="none" stroke="black" d="M60.07,-359.76C68.84,-333.28 84,-280.86 84,-235 84,-235 84,-235 84,-161 84,-75.8 202.15,-39.15 264.89,-25.7"/>
<polygon fill="black" stroke="black" points="265.72,-29.1 274.82,-23.66 264.32,-22.24 265.72,-29.1"/>
<g id="a_edge2&#45;headlabel"><a xlink:href="dir_000108_000123.html" target="_top" xlink:title="4">
<text text-anchor="middle" x="262.77" y="-30.1" font-family="FreeSans" font-size="10.00">4</text>
</a>
</g>
</g>
<!-- dir_4546011bd625f1142c4c4ae06dcdb5ba -->
<g id="node8" class="node">
<title>dir_4546011bd625f1142c4c4ae06dcdb5ba</title>
<g id="a_node8"><a xlink:href="dir_4546011bd625f1142c4c4ae06dcdb5ba.html" target="_top" xlink:title="Operators">
<polygon fill="white" stroke="red" points="431.5,-324 372.5,-324 372.5,-288 431.5,-288 431.5,-324"/>
<text text-anchor="middle" x="402" y="-303.5" font-family="FreeSans" font-size="10.00">Operators</text>
</a>
</g>
</g>
<!-- dir_33a62e81222a3378099f7b5a2aa63b54&#45;&gt;dir_4546011bd625f1142c4c4ae06dcdb5ba -->
<g id="edge3" class="edge">
<title>dir_33a62e81222a3378099f7b5a2aa63b54&#45;&gt;dir_4546011bd625f1142c4c4ae06dcdb5ba</title>
<path fill="none" stroke="black" d="M83.5,-363.14C86.66,-361.95 89.87,-360.88 93,-360 207.46,-327.95 242.89,-353.62 358,-324 359.64,-323.58 361.29,-323.12 362.96,-322.62"/>
<polygon fill="black" stroke="black" points="364.08,-325.93 372.49,-319.48 361.89,-319.29 364.08,-325.93"/>
<g id="a_edge3&#45;headlabel"><a xlink:href="dir_000108_000089.html" target="_top" xlink:title="11">
<text text-anchor="middle" x="361.56" y="-327.26" font-family="FreeSans" font-size="10.00">11</text>
</a>
</g>
</g>
<!-- dir_33a62e81222a3378099f7b5a2aa63b54&#45;&gt;dir_a06008c3e245d1092ba6894d6caedef2 -->
<g id="edge4" class="edge">
<title>dir_33a62e81222a3378099f7b5a2aa63b54&#45;&gt;dir_a06008c3e245d1092ba6894d6caedef2</title>
<path fill="none" stroke="black" d="M83.61,-363.49C86.75,-362.24 89.92,-361.05 93,-360 155.03,-338.83 184.28,-364.26 236,-324 256.15,-308.32 268.89,-281.73 276.15,-261.69"/>
<polygon fill="black" stroke="black" points="279.48,-262.77 279.36,-252.18 272.84,-260.53 279.48,-262.77"/>
<g id="a_edge4&#45;headlabel"><a xlink:href="dir_000108_000096.html" target="_top" xlink:title="7">
<text text-anchor="middle" x="281.02" y="-264.59" font-family="FreeSans" font-size="10.00">7</text>
</a>
</g>
</g>
<!-- dir_ff42852cc454de79d2ecb9482f4de9d8 -->
<g id="node10" class="node">
<title>dir_ff42852cc454de79d2ecb9482f4de9d8</title>
<g id="a_node10"><a xlink:href="dir_ff42852cc454de79d2ecb9482f4de9d8.html" target="_top" xlink:title="Math">
<polygon fill="white" stroke="red" points="404,-108 350,-108 350,-72 404,-72 404,-108"/>
<text text-anchor="middle" x="377" y="-87.5" font-family="FreeSans" font-size="10.00">Math</text>
</a>
</g>
</g>
<!-- dir_33a62e81222a3378099f7b5a2aa63b54&#45;&gt;dir_ff42852cc454de79d2ecb9482f4de9d8 -->
<g id="edge7" class="edge">
<title>dir_33a62e81222a3378099f7b5a2aa63b54&#45;&gt;dir_ff42852cc454de79d2ecb9482f4de9d8</title>
<path fill="none" stroke="black" d="M83.91,-362.88C86.93,-361.78 90,-360.79 93,-360 168.19,-340.23 388.93,-381.73 441,-324 494.96,-264.17 431.94,-162.98 397.09,-116.16"/>
<polygon fill="black" stroke="black" points="399.78,-113.91 390.94,-108.07 394.21,-118.15 399.78,-113.91"/>
<g id="a_edge7&#45;headlabel"><a xlink:href="dir_000108_000099.html" target="_top" xlink:title="7">
<text text-anchor="middle" x="404.22" y="-112.56" font-family="FreeSans" font-size="10.00">7</text>
</a>
</g>
</g>
<!-- dir_150f406a44a04ce55518da03ec553ece&#45;&gt;dir_32348ece3c89569e6a714937ae854c89 -->
<g id="edge19" class="edge">
<title>dir_150f406a44a04ce55518da03ec553ece&#45;&gt;dir_32348ece3c89569e6a714937ae854c89</title>
<path fill="none" stroke="black" d="M337.3,-143.87C330.62,-119.56 318.33,-74.82 310.42,-46.01"/>
<polygon fill="black" stroke="black" points="313.74,-44.91 307.72,-36.19 306.99,-46.76 313.74,-44.91"/>
<g id="a_edge19&#45;headlabel"><a xlink:href="dir_000086_000123.html" target="_top" xlink:title="13">
<text text-anchor="middle" x="317.43" y="-45.12" font-family="FreeSans" font-size="10.00">13</text>
</a>
</g>
</g>
<!-- dir_150f406a44a04ce55518da03ec553ece&#45;&gt;dir_ff42852cc454de79d2ecb9482f4de9d8 -->
<g id="edge20" class="edge">
<title>dir_150f406a44a04ce55518da03ec553ece&#45;&gt;dir_ff42852cc454de79d2ecb9482f4de9d8</title>
<path fill="none" stroke="black" d="M344.74,-143.7C347.93,-135.64 352.6,-125.89 357.46,-116.98"/>
<polygon fill="black" stroke="black" points="360.61,-118.52 362.55,-108.1 354.54,-115.04 360.61,-118.52"/>
<g id="a_edge20&#45;headlabel"><a xlink:href="dir_000086_000099.html" target="_top" xlink:title="1">
<text text-anchor="middle" x="361.29" y="-120.55" font-family="FreeSans" font-size="10.00">1</text>
</a>
</g>
</g>
<!-- dir_4546011bd625f1142c4c4ae06dcdb5ba&#45;&gt;dir_150f406a44a04ce55518da03ec553ece -->
<g id="edge12" class="edge">
<title>dir_4546011bd625f1142c4c4ae06dcdb5ba&#45;&gt;dir_150f406a44a04ce55518da03ec553ece</title>
<path fill="none" stroke="black" d="M394.9,-287.88C386.25,-267.07 371.16,-230.92 358,-200 356.59,-196.68 355.09,-193.2 353.61,-189.75"/>
<polygon fill="black" stroke="black" points="356.71,-188.09 349.53,-180.3 350.28,-190.87 356.71,-188.09"/>
<g id="a_edge12&#45;headlabel"><a xlink:href="dir_000089_000086.html" target="_top" xlink:title="5">
<text text-anchor="middle" x="360.74" y="-187.77" font-family="FreeSans" font-size="10.00">5</text>
</a>
</g>
</g>
<!-- dir_4546011bd625f1142c4c4ae06dcdb5ba&#45;&gt;dir_32348ece3c89569e6a714937ae854c89 -->
<g id="edge13" class="edge">
<title>dir_4546011bd625f1142c4c4ae06dcdb5ba&#45;&gt;dir_32348ece3c89569e6a714937ae854c89</title>
<path fill="none" stroke="black" d="M408.96,-287.82C424.35,-246.81 456.62,-141.44 413,-72 397.34,-47.07 366.3,-33.59 341.18,-26.48"/>
<polygon fill="black" stroke="black" points="341.74,-23.01 331.19,-23.89 339.99,-29.78 341.74,-23.01"/>
<g id="a_edge13&#45;headlabel"><a xlink:href="dir_000089_000123.html" target="_top" xlink:title="12">
<text text-anchor="middle" x="345.94" y="-18.66" font-family="FreeSans" font-size="10.00">12</text>
</a>
</g>
</g>
<!-- dir_4546011bd625f1142c4c4ae06dcdb5ba&#45;&gt;dir_a06008c3e245d1092ba6894d6caedef2 -->
<g id="edge14" class="edge">
<title>dir_4546011bd625f1142c4c4ae06dcdb5ba&#45;&gt;dir_a06008c3e245d1092ba6894d6caedef2</title>
<path fill="none" stroke="black" d="M373.13,-287.88C357.71,-278.72 338.52,-267.34 321.9,-257.48"/>
<polygon fill="black" stroke="black" points="323.36,-254.28 312.98,-252.19 319.79,-260.3 323.36,-254.28"/>
<g id="a_edge14&#45;headlabel"><a xlink:href="dir_000089_000096.html" target="_top" xlink:title="22">
<text text-anchor="middle" x="327.9" y="-251.17" font-family="FreeSans" font-size="10.00">22</text>
</a>
</g>
</g>
<!-- dir_4546011bd625f1142c4c4ae06dcdb5ba&#45;&gt;dir_ff42852cc454de79d2ecb9482f4de9d8 -->
<g id="edge15" class="edge">
<title>dir_4546011bd625f1142c4c4ae06dcdb5ba&#45;&gt;dir_ff42852cc454de79d2ecb9482f4de9d8</title>
<path fill="none" stroke="black" d="M400,-287.85C395.67,-250.83 385.43,-163.18 380.2,-118.39"/>
<polygon fill="black" stroke="black" points="383.65,-117.76 379.01,-108.23 376.7,-118.57 383.65,-117.76"/>
<g id="a_edge15&#45;headlabel"><a xlink:href="dir_000089_000099.html" target="_top" xlink:title="8">
<text text-anchor="middle" x="386.89" y="-118.5" font-family="FreeSans" font-size="10.00">8</text>
</a>
</g>
</g>
<!-- dir_a06008c3e245d1092ba6894d6caedef2&#45;&gt;dir_150f406a44a04ce55518da03ec553ece -->
<g id="edge8" class="edge">
<title>dir_a06008c3e245d1092ba6894d6caedef2&#45;&gt;dir_150f406a44a04ce55518da03ec553ece</title>
<path fill="none" stroke="black" d="M298.34,-215.7C305.29,-207.3 313.77,-197.07 321.4,-187.86"/>
<polygon fill="black" stroke="black" points="324.14,-190.04 327.83,-180.1 318.75,-185.57 324.14,-190.04"/>
<g id="a_edge8&#45;headlabel"><a xlink:href="dir_000096_000086.html" target="_top" xlink:title="42">
<text text-anchor="middle" x="324.04" y="-192.12" font-family="FreeSans" font-size="10.00">42</text>
</a>
</g>
</g>
<!-- dir_a06008c3e245d1092ba6894d6caedef2&#45;&gt;dir_32348ece3c89569e6a714937ae854c89 -->
<g id="edge9" class="edge">
<title>dir_a06008c3e245d1092ba6894d6caedef2&#45;&gt;dir_32348ece3c89569e6a714937ae854c89</title>
<path fill="none" stroke="black" d="M285.52,-215.85C288.81,-178.83 296.59,-91.18 300.57,-46.39"/>
<polygon fill="black" stroke="black" points="304.07,-46.5 301.47,-36.23 297.1,-45.88 304.07,-46.5"/>
<g id="a_edge9&#45;headlabel"><a xlink:href="dir_000096_000123.html" target="_top" xlink:title="9">
<text text-anchor="middle" x="306.58" y="-47.83" font-family="FreeSans" font-size="10.00">9</text>
</a>
</g>
</g>
<!-- dir_ff42852cc454de79d2ecb9482f4de9d8&#45;&gt;dir_150f406a44a04ce55518da03ec553ece -->
<g id="edge11" class="edge">
<title>dir_ff42852cc454de79d2ecb9482f4de9d8&#45;&gt;dir_150f406a44a04ce55518da03ec553ece</title>
<path fill="none" stroke="black" d="M374.34,-108.1C371.17,-116.13 366.52,-125.87 361.66,-134.8"/>
<polygon fill="black" stroke="black" points="358.49,-133.28 356.57,-143.7 364.57,-136.75 358.49,-133.28"/>
<g id="a_edge11&#45;headlabel"><a xlink:href="dir_000099_000086.html" target="_top" xlink:title="1">
<text text-anchor="middle" x="357.82" y="-126.25" font-family="FreeSans" font-size="10.00">1</text>
</a>
</g>
</g>
<!-- dir_ff42852cc454de79d2ecb9482f4de9d8&#45;&gt;dir_32348ece3c89569e6a714937ae854c89 -->
<g id="edge10" class="edge">
<title>dir_ff42852cc454de79d2ecb9482f4de9d8&#45;&gt;dir_32348ece3c89569e6a714937ae854c89</title>
<path fill="none" stroke="black" d="M358.71,-71.7C349.57,-63.05 338.36,-52.45 328.4,-43.03"/>
<polygon fill="black" stroke="black" points="330.75,-40.43 321.08,-36.1 325.94,-45.52 330.75,-40.43"/>
<g id="a_edge10&#45;headlabel"><a xlink:href="dir_000099_000123.html" target="_top" xlink:title="6">
<text text-anchor="middle" x="335.31" y="-38.34" font-family="FreeSans" font-size="10.00">6</text>
</a>
</g>
</g>
</g>
</svg>
