<?xml version="1.0" encoding="UTF-8" standalone="no"?>
<!DOCTYPE svg PUBLIC "-//W3C//DTD SVG 1.1//EN"
 "http://www.w3.org/Graphics/SVG/1.1/DTD/svg11.dtd">
<!-- Generated by graphviz version 2.43.0 (0)
 -->
<!-- Title: src Pages: 1 -->
<svg width="94pt" height="167pt"
 viewBox="0.00 0.00 94.00 167.00" xmlns="http://www.w3.org/2000/svg" xmlns:xlink="http://www.w3.org/1999/xlink">
<g id="graph0" class="graph" transform="scale(1 1) rotate(0) translate(4 163)">
<title>src</title>
<polygon fill="white" stroke="transparent" points="-4,4 -4,-163 90,-163 90,4 -4,4"/>
<g id="clust1" class="cluster">
<title>clusterdir_33a62e81222a3378099f7b5a2aa63b54</title>
<g id="a_clust1"><a xlink:href="dir_33a62e81222a3378099f7b5a2aa63b54.html" target="_top" xlink:title="Operators">
<polygon fill="#ddddee" stroke="black" points="8,-8 8,-151 78,-151 78,-8 8,-8"/>
<text text-anchor="middle" x="43" y="-139" font-family="FreeSans" font-size="10.00">Operators</text>
</a>
</g>
</g>
<!-- dir_5f54002e10037f8fa6b21f97509f63d1 -->
<g id="node1" class="node">
<title>dir_5f54002e10037f8fa6b21f97509f63d1</title>
<g id="a_node1"><a xlink:href="dir_5f54002e10037f8fa6b21f97509f63d1.html" target="_top" xlink:title="include">
<polygon fill="none" stroke="black" points="70,-52 16,-52 16,-16 70,-16 70,-52"/>
<text text-anchor="middle" x="43" y="-31.5" font-family="FreeSans" font-size="10.00">include</text>
</a>
</g>
</g>
<!-- dir_07e50417bbcc869d922b4463d87e0cdf -->
<g id="node2" class="node">
<title>dir_07e50417bbcc869d922b4463d87e0cdf</title>
<g id="a_node2"><a xlink:href="dir_07e50417bbcc869d922b4463d87e0cdf.html" target="_top" xlink:title="src">
<polygon fill="#eeeeff" stroke="black" points="70,-124 16,-124 16,-88 70,-88 70,-124"/>
<text text-anchor="middle" x="43" y="-103.5" font-family="FreeSans" font-size="10.00">src</text>
</a>
</g>
</g>
<!-- dir_07e50417bbcc869d922b4463d87e0cdf&#45;&gt;dir_5f54002e10037f8fa6b21f97509f63d1 -->
<g id="edge1" class="edge">
<title>dir_07e50417bbcc869d922b4463d87e0cdf&#45;&gt;dir_5f54002e10037f8fa6b21f97509f63d1</title>
<path fill="none" stroke="black" d="M43,-87.7C43,-79.98 43,-70.71 43,-62.11"/>
<polygon fill="black" stroke="black" points="46.5,-62.1 43,-52.1 39.5,-62.1 46.5,-62.1"/>
<g id="a_edge1&#45;headlabel"><a xlink:href="dir_000130_000109.html" target="_top" xlink:title="1">
<text text-anchor="middle" x="49.34" y="-63.2" font-family="FreeSans" font-size="10.00">1</text>
</a>
</g>
</g>
</g>
</svg>
