<?xml version="1.0" encoding="UTF-8" standalone="no"?>
<!DOCTYPE svg PUBLIC "-//W3C//DTD SVG 1.1//EN"
 "http://www.w3.org/Graphics/SVG/1.1/DTD/svg11.dtd">
<!-- Generated by graphviz version 2.43.0 (0)
 -->
<!-- Title: src Pages: 1 -->
<svg width="144pt" height="367pt"
 viewBox="0.00 0.00 143.51 367.00" xmlns="http://www.w3.org/2000/svg" xmlns:xlink="http://www.w3.org/1999/xlink">
<g id="graph0" class="graph" transform="scale(1 1) rotate(0) translate(4 363)">
<title>src</title>
<polygon fill="white" stroke="transparent" points="-4,4 -4,-363 139.51,-363 139.51,4 -4,4"/>
<g id="clust1" class="cluster">
<title>clusterdir_83ee83338e970cd0afba3d801181149d</title>
<g id="a_clust1"><a xlink:href="dir_83ee83338e970cd0afba3d801181149d.html" target="_top" xlink:title="fplot">
<polygon fill="#ddddee" stroke="black" points="8.51,-208 8.51,-351 78.51,-351 78.51,-208 8.51,-208"/>
<text text-anchor="middle" x="43.51" y="-339" font-family="FreeSans" font-size="10.00">fplot</text>
</a>
</g>
</g>
<!-- dir_be1673e5112679701f144c4cb4ba6a98 -->
<g id="node1" class="node">
<title>dir_be1673e5112679701f144c4cb4ba6a98</title>
<g id="a_node1"><a xlink:href="dir_be1673e5112679701f144c4cb4ba6a98.html" target="_top" xlink:title="include">
<polygon fill="none" stroke="black" points="70.51,-252 16.51,-252 16.51,-216 70.51,-216 70.51,-252"/>
<text text-anchor="middle" x="43.51" y="-231.5" font-family="FreeSans" font-size="10.00">include</text>
</a>
</g>
</g>
<!-- dir_db8d68003073a61b7114dbc4f792cfed -->
<g id="node5" class="node">
<title>dir_db8d68003073a61b7114dbc4f792cfed</title>
<g id="a_node5"><a xlink:href="dir_db8d68003073a61b7114dbc4f792cfed.html" target="_top" xlink:title="dfio">
<polygon fill="white" stroke="red" points="94.51,-180 40.51,-180 40.51,-144 94.51,-144 94.51,-180"/>
<text text-anchor="middle" x="67.51" y="-159.5" font-family="FreeSans" font-size="10.00">dfio</text>
</a>
</g>
</g>
<!-- dir_be1673e5112679701f144c4cb4ba6a98&#45;&gt;dir_db8d68003073a61b7114dbc4f792cfed -->
<g id="edge1" class="edge">
<title>dir_be1673e5112679701f144c4cb4ba6a98&#45;&gt;dir_db8d68003073a61b7114dbc4f792cfed</title>
<path fill="none" stroke="black" d="M49.45,-215.7C52.12,-207.9 55.34,-198.51 58.31,-189.83"/>
<polygon fill="black" stroke="black" points="61.72,-190.7 61.65,-180.1 55.09,-188.43 61.72,-190.7"/>
<g id="a_edge1&#45;headlabel"><a xlink:href="dir_000078_000024.html" target="_top" xlink:title="2">
<text text-anchor="middle" x="63.24" y="-192.52" font-family="FreeSans" font-size="10.00">2</text>
</a>
</g>
</g>
<!-- dir_4ee03f1d6d97361d935d16cc00b775ae -->
<g id="node2" class="node">
<title>dir_4ee03f1d6d97361d935d16cc00b775ae</title>
<g id="a_node2"><a xlink:href="dir_4ee03f1d6d97361d935d16cc00b775ae.html" target="_top" xlink:title="src">
<polygon fill="#eeeeff" stroke="black" points="70.51,-324 16.51,-324 16.51,-288 70.51,-288 70.51,-324"/>
<text text-anchor="middle" x="43.51" y="-303.5" font-family="FreeSans" font-size="10.00">src</text>
</a>
</g>
</g>
<!-- dir_4ee03f1d6d97361d935d16cc00b775ae&#45;&gt;dir_be1673e5112679701f144c4cb4ba6a98 -->
<g id="edge4" class="edge">
<title>dir_4ee03f1d6d97361d935d16cc00b775ae&#45;&gt;dir_be1673e5112679701f144c4cb4ba6a98</title>
<path fill="none" stroke="black" d="M43.51,-287.7C43.51,-279.98 43.51,-270.71 43.51,-262.11"/>
<polygon fill="black" stroke="black" points="47.01,-262.1 43.51,-252.1 40.01,-262.1 47.01,-262.1"/>
<g id="a_edge4&#45;headlabel"><a xlink:href="dir_000149_000078.html" target="_top" xlink:title="1">
<text text-anchor="middle" x="49.85" y="-263.2" font-family="FreeSans" font-size="10.00">1</text>
</a>
</g>
</g>
<!-- dir_758df28fbdbb54fb46d6d3d6484a4984 -->
<g id="node3" class="node">
<title>dir_758df28fbdbb54fb46d6d3d6484a4984</title>
<g id="a_node3"><a xlink:href="dir_758df28fbdbb54fb46d6d3d6484a4984.html" target="_top" xlink:title="msg">
<polygon fill="white" stroke="red" points="80.51,-36 26.51,-36 26.51,0 80.51,0 80.51,-36"/>
<text text-anchor="middle" x="53.51" y="-15.5" font-family="FreeSans" font-size="10.00">msg</text>
</a>
</g>
</g>
<!-- dir_4ee03f1d6d97361d935d16cc00b775ae&#45;&gt;dir_758df28fbdbb54fb46d6d3d6484a4984 -->
<g id="edge3" class="edge">
<title>dir_4ee03f1d6d97361d935d16cc00b775ae&#45;&gt;dir_758df28fbdbb54fb46d6d3d6484a4984</title>
<path fill="none" stroke="black" d="M27.9,-287.77C20.14,-278.03 11.57,-265.18 7.51,-252 -15.02,-178.72 19.45,-88.97 40,-45.34"/>
<polygon fill="black" stroke="black" points="43.19,-46.78 44.39,-36.26 36.89,-43.73 43.19,-46.78"/>
<g id="a_edge3&#45;headlabel"><a xlink:href="dir_000149_000144.html" target="_top" xlink:title="1">
<text text-anchor="middle" x="44.18" y="-48.75" font-family="FreeSans" font-size="10.00">1</text>
</a>
</g>
</g>
<!-- dir_cb2d4e92f47691559fc9d122a5e37fac -->
<g id="node4" class="node">
<title>dir_cb2d4e92f47691559fc9d122a5e37fac</title>
<g id="a_node4"><a xlink:href="dir_cb2d4e92f47691559fc9d122a5e37fac.html" target="_top" xlink:title="mk4util">
<polygon fill="white" stroke="red" points="135.51,-108 81.51,-108 81.51,-72 135.51,-72 135.51,-108"/>
<text text-anchor="middle" x="108.51" y="-87.5" font-family="FreeSans" font-size="10.00">mk4util</text>
</a>
</g>
</g>
<!-- dir_4ee03f1d6d97361d935d16cc00b775ae&#45;&gt;dir_cb2d4e92f47691559fc9d122a5e37fac -->
<g id="edge5" class="edge">
<title>dir_4ee03f1d6d97361d935d16cc00b775ae&#45;&gt;dir_cb2d4e92f47691559fc9d122a5e37fac</title>
<path fill="none" stroke="black" d="M65.55,-287.96C76.1,-278.55 87.86,-265.94 94.51,-252 115.03,-209 114.49,-152.21 111.8,-118.84"/>
<polygon fill="black" stroke="black" points="115.25,-118.11 110.83,-108.48 108.28,-118.76 115.25,-118.11"/>
<g id="a_edge5&#45;headlabel"><a xlink:href="dir_000149_000014.html" target="_top" xlink:title="3">
<text text-anchor="middle" x="118.41" y="-118.92" font-family="FreeSans" font-size="10.00">3</text>
</a>
</g>
</g>
<!-- dir_4ee03f1d6d97361d935d16cc00b775ae&#45;&gt;dir_db8d68003073a61b7114dbc4f792cfed -->
<g id="edge6" class="edge">
<title>dir_4ee03f1d6d97361d935d16cc00b775ae&#45;&gt;dir_db8d68003073a61b7114dbc4f792cfed</title>
<path fill="none" stroke="black" d="M59.12,-287.77C66.89,-278.03 75.46,-265.18 79.51,-252 85.76,-231.69 81.95,-207.79 77.03,-189.87"/>
<polygon fill="black" stroke="black" points="80.32,-188.64 74.07,-180.09 73.62,-190.67 80.32,-188.64"/>
<g id="a_edge6&#45;headlabel"><a xlink:href="dir_000149_000024.html" target="_top" xlink:title="2">
<text text-anchor="middle" x="84.07" y="-188.76" font-family="FreeSans" font-size="10.00">2</text>
</a>
</g>
</g>
<!-- dir_cb2d4e92f47691559fc9d122a5e37fac&#45;&gt;dir_758df28fbdbb54fb46d6d3d6484a4984 -->
<g id="edge2" class="edge">
<title>dir_cb2d4e92f47691559fc9d122a5e37fac&#45;&gt;dir_758df28fbdbb54fb46d6d3d6484a4984</title>
<path fill="none" stroke="black" d="M94.92,-71.7C88.39,-63.39 80.44,-53.28 73.27,-44.14"/>
<polygon fill="black" stroke="black" points="75.88,-41.81 66.95,-36.1 70.38,-46.13 75.88,-41.81"/>
<g id="a_edge2&#45;headlabel"><a xlink:href="dir_000014_000144.html" target="_top" xlink:title="3">
<text text-anchor="middle" x="80.34" y="-40.38" font-family="FreeSans" font-size="10.00">3</text>
</a>
</g>
</g>
<!-- dir_db8d68003073a61b7114dbc4f792cfed&#45;&gt;dir_758df28fbdbb54fb46d6d3d6484a4984 -->
<g id="edge8" class="edge">
<title>dir_db8d68003073a61b7114dbc4f792cfed&#45;&gt;dir_758df28fbdbb54fb46d6d3d6484a4984</title>
<path fill="none" stroke="black" d="M65.82,-143.87C63.44,-119.67 59.05,-75.21 56.21,-46.39"/>
<polygon fill="black" stroke="black" points="59.67,-45.8 55.21,-36.19 52.71,-46.48 59.67,-45.8"/>
<g id="a_edge8&#45;headlabel"><a xlink:href="dir_000024_000144.html" target="_top" xlink:title="1">
<text text-anchor="middle" x="62.85" y="-46.6" font-family="FreeSans" font-size="10.00">1</text>
</a>
</g>
</g>
<!-- dir_db8d68003073a61b7114dbc4f792cfed&#45;&gt;dir_cb2d4e92f47691559fc9d122a5e37fac -->
<g id="edge7" class="edge">
<title>dir_db8d68003073a61b7114dbc4f792cfed&#45;&gt;dir_cb2d4e92f47691559fc9d122a5e37fac</title>
<path fill="none" stroke="black" d="M77.65,-143.7C82.36,-135.64 88.07,-125.89 93.29,-116.98"/>
<polygon fill="black" stroke="black" points="96.46,-118.5 98.49,-108.1 90.42,-114.96 96.46,-118.5"/>
<g id="a_edge7&#45;headlabel"><a xlink:href="dir_000024_000014.html" target="_top" xlink:title="117">
<text text-anchor="middle" x="97.09" y="-120.54" font-family="FreeSans" font-size="10.00">117</text>
</a>
</g>
</g>
</g>
</svg>
