<?xml version="1.0" encoding="UTF-8" standalone="no"?>
<!DOCTYPE svg PUBLIC "-//W3C//DTD SVG 1.1//EN"
 "http://www.w3.org/Graphics/SVG/1.1/DTD/svg11.dtd">
<!-- Generated by graphviz version 2.43.0 (0)
 -->
<!-- Title: CUDAModules Pages: 1 -->
<svg width="210pt" height="231pt"
 viewBox="0.00 0.00 210.00 231.00" xmlns="http://www.w3.org/2000/svg" xmlns:xlink="http://www.w3.org/1999/xlink">
<g id="graph0" class="graph" transform="scale(1 1) rotate(0) translate(4 227)">
<title>CUDAModules</title>
<polygon fill="white" stroke="transparent" points="-4,4 -4,-227 206,-227 206,4 -4,4"/>
<g id="clust1" class="cluster">
<title>clusterdir_a7f85dca1d9cad931d7bd4b89571ac6c</title>
<g id="a_clust1"><a xlink:href="dir_a7f85dca1d9cad931d7bd4b89571ac6c.html" target="_top" xlink:title="CUDA">
<polygon fill="#ddddee" stroke="black" points="8,-56 8,-215 194,-215 194,-56 8,-56"/>
<text text-anchor="middle" x="101" y="-203" font-family="FreeSans" font-size="10.00">CUDA</text>
</a>
</g>
</g>
<g id="clust2" class="cluster">
<title>clusterdir_42a987f8cfdd983be9677f634438bfef</title>
<g id="a_clust2"><a xlink:href="dir_42a987f8cfdd983be9677f634438bfef.html" target="_top">
<polygon fill="#eeeeff" stroke="black" points="16,-64 16,-188 186,-188 186,-64 16,-64"/>
</a>
</g>
</g>
<!-- dir_42a987f8cfdd983be9677f634438bfef -->
<g id="node1" class="node">
<title>dir_42a987f8cfdd983be9677f634438bfef</title>
<text text-anchor="middle" x="137" y="-159.5" font-family="FreeSans" font-size="10.00">CUDAModules</text>
</g>
<!-- dir_eafb08cc50b44fd3d5a5354e0f178598 -->
<g id="node2" class="node">
<title>dir_eafb08cc50b44fd3d5a5354e0f178598</title>
<g id="a_node2"><a xlink:href="dir_eafb08cc50b44fd3d5a5354e0f178598.html" target="_top" xlink:title="include">
<polygon fill="white" stroke="black" points="78,-108 24,-108 24,-72 78,-72 78,-108"/>
<text text-anchor="middle" x="51" y="-87.5" font-family="FreeSans" font-size="10.00">include</text>
</a>
</g>
</g>
<!-- dir_91ae3e556fa9cad9030b784323206cc7 -->
<g id="node4" class="node">
<title>dir_91ae3e556fa9cad9030b784323206cc7</title>
<g id="a_node4"><a xlink:href="dir_91ae3e556fa9cad9030b784323206cc7.html" target="_top" xlink:title="Calibration">
<polygon fill="white" stroke="red" points="82,-36 20,-36 20,0 82,0 82,-36"/>
<text text-anchor="middle" x="51" y="-15.5" font-family="FreeSans" font-size="10.00">Calibration</text>
</a>
</g>
</g>
<!-- dir_eafb08cc50b44fd3d5a5354e0f178598&#45;&gt;dir_91ae3e556fa9cad9030b784323206cc7 -->
<g id="edge2" class="edge">
<title>dir_eafb08cc50b44fd3d5a5354e0f178598&#45;&gt;dir_91ae3e556fa9cad9030b784323206cc7</title>
<path fill="none" stroke="black" d="M51,-71.7C51,-63.98 51,-54.71 51,-46.11"/>
<polygon fill="black" stroke="black" points="54.5,-46.1 51,-36.1 47.5,-46.1 54.5,-46.1"/>
<g id="a_edge2&#45;headlabel"><a xlink:href="dir_000122_000102.html" target="_top" xlink:title="1">
<text text-anchor="middle" x="57.34" y="-47.2" font-family="FreeSans" font-size="10.00">1</text>
</a>
</g>
</g>
<!-- dir_b12962be78f8f68eec3eadb4368d629b -->
<g id="node3" class="node">
<title>dir_b12962be78f8f68eec3eadb4368d629b</title>
<g id="a_node3"><a xlink:href="dir_b12962be78f8f68eec3eadb4368d629b.html" target="_top" xlink:title="src">
<polygon fill="white" stroke="black" points="78,-180 24,-180 24,-144 78,-144 78,-180"/>
<text text-anchor="middle" x="51" y="-159.5" font-family="FreeSans" font-size="10.00">src</text>
</a>
</g>
</g>
<!-- dir_b12962be78f8f68eec3eadb4368d629b&#45;&gt;dir_eafb08cc50b44fd3d5a5354e0f178598 -->
<g id="edge1" class="edge">
<title>dir_b12962be78f8f68eec3eadb4368d629b&#45;&gt;dir_eafb08cc50b44fd3d5a5354e0f178598</title>
<path fill="none" stroke="black" d="M51,-143.7C51,-135.98 51,-126.71 51,-118.11"/>
<polygon fill="black" stroke="black" points="54.5,-118.1 51,-108.1 47.5,-118.1 54.5,-118.1"/>
<g id="a_edge1&#45;headlabel"><a xlink:href="dir_000121_000122.html" target="_top" xlink:title="1">
<text text-anchor="middle" x="57.34" y="-119.2" font-family="FreeSans" font-size="10.00">1</text>
</a>
</g>
</g>
</g>
</svg>
