<?xml version="1.0" encoding="UTF-8" standalone="no"?>
<!DOCTYPE svg PUBLIC "-//W3C//DTD SVG 1.1//EN"
 "http://www.w3.org/Graphics/SVG/1.1/DTD/svg11.dtd">
<!-- Generated by graphviz version 2.43.0 (0)
 -->
<!-- Title: afio Pages: 1 -->
<svg width="264pt" height="247pt"
 viewBox="0.00 0.00 264.00 247.00" xmlns="http://www.w3.org/2000/svg" xmlns:xlink="http://www.w3.org/1999/xlink">
<g id="graph0" class="graph" transform="scale(1 1) rotate(0) translate(4 243)">
<title>afio</title>
<polygon fill="white" stroke="transparent" points="-4,4 -4,-243 260,-243 260,4 -4,4"/>
<g id="clust1" class="cluster">
<title>clusterdir_0c6283dd7716efebfcf76fdb98d8e794</title>
<g id="a_clust1"><a xlink:href="dir_0c6283dd7716efebfcf76fdb98d8e794.html" target="_top" xlink:title="c_src">
<polygon fill="#ddddee" stroke="black" points="8,-8 8,-231 248,-231 248,-8 8,-8"/>
<text text-anchor="middle" x="128" y="-219" font-family="FreeSans" font-size="10.00">c_src</text>
</a>
</g>
</g>
<g id="clust2" class="cluster">
<title>clusterdir_637a76a7abf5a01e5c2aa724f3c1e96e</title>
<g id="a_clust2"><a xlink:href="dir_637a76a7abf5a01e5c2aa724f3c1e96e.html" target="_top">
<polygon fill="#eeeeff" stroke="black" points="16,-80 16,-204 158,-204 158,-80 16,-80"/>
</a>
</g>
</g>
<!-- dir_cb2d4e92f47691559fc9d122a5e37fac -->
<g id="node1" class="node">
<title>dir_cb2d4e92f47691559fc9d122a5e37fac</title>
<g id="a_node1"><a xlink:href="dir_cb2d4e92f47691559fc9d122a5e37fac.html" target="_top" xlink:title="mk4util">
<polygon fill="white" stroke="red" points="220,-124 166,-124 166,-88 220,-88 220,-124"/>
<text text-anchor="middle" x="193" y="-103.5" font-family="FreeSans" font-size="10.00">mk4util</text>
</a>
</g>
</g>
<!-- dir_758df28fbdbb54fb46d6d3d6484a4984 -->
<g id="node2" class="node">
<title>dir_758df28fbdbb54fb46d6d3d6484a4984</title>
<g id="a_node2"><a xlink:href="dir_758df28fbdbb54fb46d6d3d6484a4984.html" target="_top" xlink:title="msg">
<polygon fill="white" stroke="red" points="230,-52 176,-52 176,-16 230,-16 230,-52"/>
<text text-anchor="middle" x="203" y="-31.5" font-family="FreeSans" font-size="10.00">msg</text>
</a>
</g>
</g>
<!-- dir_cb2d4e92f47691559fc9d122a5e37fac&#45;&gt;dir_758df28fbdbb54fb46d6d3d6484a4984 -->
<g id="edge1" class="edge">
<title>dir_cb2d4e92f47691559fc9d122a5e37fac&#45;&gt;dir_758df28fbdbb54fb46d6d3d6484a4984</title>
<path fill="none" stroke="black" d="M195.47,-87.7C196.57,-79.98 197.9,-70.71 199.13,-62.11"/>
<polygon fill="black" stroke="black" points="202.61,-62.5 200.56,-52.1 195.68,-61.51 202.61,-62.5"/>
<g id="a_edge1&#45;headlabel"><a xlink:href="dir_000014_000144.html" target="_top" xlink:title="3">
<text text-anchor="middle" x="204.91" y="-63.96" font-family="FreeSans" font-size="10.00">3</text>
</a>
</g>
</g>
<!-- dir_637a76a7abf5a01e5c2aa724f3c1e96e -->
<g id="node3" class="node">
<title>dir_637a76a7abf5a01e5c2aa724f3c1e96e</title>
<text text-anchor="middle" x="123" y="-175.5" font-family="FreeSans" font-size="10.00">afio</text>
</g>
<!-- dir_83c1a9c78d2f4f53a1ff6f61772b58f2 -->
<g id="node4" class="node">
<title>dir_83c1a9c78d2f4f53a1ff6f61772b58f2</title>
<g id="a_node4"><a xlink:href="dir_83c1a9c78d2f4f53a1ff6f61772b58f2.html" target="_top" xlink:title="include">
<polygon fill="white" stroke="black" points="78,-124 24,-124 24,-88 78,-88 78,-124"/>
<text text-anchor="middle" x="51" y="-103.5" font-family="FreeSans" font-size="10.00">include</text>
</a>
</g>
</g>
<!-- dir_a83f57f9bf6352142b006be3d76b0075 -->
<g id="node5" class="node">
<title>dir_a83f57f9bf6352142b006be3d76b0075</title>
<g id="a_node5"><a xlink:href="dir_a83f57f9bf6352142b006be3d76b0075.html" target="_top" xlink:title="src">
<polygon fill="white" stroke="black" points="78,-196 24,-196 24,-160 78,-160 78,-196"/>
<text text-anchor="middle" x="51" y="-175.5" font-family="FreeSans" font-size="10.00">src</text>
</a>
</g>
</g>
<!-- dir_a83f57f9bf6352142b006be3d76b0075&#45;&gt;dir_cb2d4e92f47691559fc9d122a5e37fac -->
<g id="edge4" class="edge">
<title>dir_a83f57f9bf6352142b006be3d76b0075&#45;&gt;dir_cb2d4e92f47691559fc9d122a5e37fac</title>
<path fill="none" stroke="black" d="M78.23,-164.1C103.13,-152.28 138.45,-135.49 156.82,-126.49"/>
<polygon fill="black" stroke="black" points="158.61,-129.52 166,-121.92 155.48,-123.25 158.61,-129.52"/>
<g id="a_edge4&#45;headlabel"><a xlink:href="dir_000033_000014.html" target="_top" xlink:title="17">
<text text-anchor="middle" x="156.65" y="-131.16" font-family="FreeSans" font-size="10.00">17</text>
</a>
</g>
</g>
<!-- dir_a83f57f9bf6352142b006be3d76b0075&#45;&gt;dir_758df28fbdbb54fb46d6d3d6484a4984 -->
<g id="edge2" class="edge">
<title>dir_a83f57f9bf6352142b006be3d76b0075&#45;&gt;dir_758df28fbdbb54fb46d6d3d6484a4984</title>
<path fill="none" stroke="black" d="M78.29,-163.45C81.2,-162.2 84.14,-161.03 87,-160 148.28,-138 189.02,-175.38 229,-124 243.25,-105.68 233.21,-79.77 221.71,-60.63"/>
<polygon fill="black" stroke="black" points="224.58,-58.62 216.23,-52.1 218.69,-62.4 224.58,-58.62"/>
<g id="a_edge2&#45;headlabel"><a xlink:href="dir_000033_000144.html" target="_top" xlink:title="1">
<text text-anchor="middle" x="228.91" y="-57.61" font-family="FreeSans" font-size="10.00">1</text>
</a>
</g>
</g>
<!-- dir_a83f57f9bf6352142b006be3d76b0075&#45;&gt;dir_83c1a9c78d2f4f53a1ff6f61772b58f2 -->
<g id="edge3" class="edge">
<title>dir_a83f57f9bf6352142b006be3d76b0075&#45;&gt;dir_83c1a9c78d2f4f53a1ff6f61772b58f2</title>
<path fill="none" stroke="black" d="M51,-159.7C51,-151.98 51,-142.71 51,-134.11"/>
<polygon fill="black" stroke="black" points="54.5,-134.1 51,-124.1 47.5,-134.1 54.5,-134.1"/>
<g id="a_edge3&#45;headlabel"><a xlink:href="dir_000033_000023.html" target="_top" xlink:title="38">
<text text-anchor="middle" x="57.34" y="-135.2" font-family="FreeSans" font-size="10.00">38</text>
</a>
</g>
</g>
</g>
</svg>
