<?xml version="1.0" encoding="UTF-8" standalone="no"?>
<!DOCTYPE svg PUBLIC "-//W3C//DTD SVG 1.1//EN"
 "http://www.w3.org/Graphics/SVG/1.1/DTD/svg11.dtd">
<!-- Generated by graphviz version 2.43.0 (0)
 -->
<!-- Title: src Pages: 1 -->
<svg width="438pt" height="511pt"
 viewBox="0.00 0.00 438.00 511.00" xmlns="http://www.w3.org/2000/svg" xmlns:xlink="http://www.w3.org/1999/xlink">
<g id="graph0" class="graph" transform="scale(1 1) rotate(0) translate(4 507)">
<title>src</title>
<polygon fill="white" stroke="transparent" points="-4,4 -4,-507 434,-507 434,4 -4,4"/>
<g id="clust1" class="cluster">
<title>clusterdir_0c8523deb6301657d04bd2a03358f9f8</title>
<g id="a_clust1"><a xlink:href="dir_0c8523deb6301657d04bd2a03358f9f8.html" target="_top" xlink:title="MK4Interface">
<polygon fill="#ddddee" stroke="black" points="132,-352 132,-495 207,-495 207,-352 132,-352"/>
<text text-anchor="middle" x="169.5" y="-483" font-family="FreeSans" font-size="10.00">MK4Interface</text>
</a>
</g>
</g>
<!-- dir_f5effd4e5946b2caa27c744fe2078285 -->
<g id="node1" class="node">
<title>dir_f5effd4e5946b2caa27c744fe2078285</title>
<g id="a_node1"><a xlink:href="dir_f5effd4e5946b2caa27c744fe2078285.html" target="_top" xlink:title="include">
<polygon fill="none" stroke="black" points="194,-396 140,-396 140,-360 194,-360 194,-396"/>
<text text-anchor="middle" x="167" y="-375.5" font-family="FreeSans" font-size="10.00">include</text>
</a>
</g>
</g>
<!-- dir_150f406a44a04ce55518da03ec553ece -->
<g id="node4" class="node">
<title>dir_150f406a44a04ce55518da03ec553ece</title>
<g id="a_node4"><a xlink:href="dir_150f406a44a04ce55518da03ec553ece.html" target="_top" xlink:title="Utilities">
<polygon fill="white" stroke="red" points="253,-180 199,-180 199,-144 253,-144 253,-180"/>
<text text-anchor="middle" x="226" y="-159.5" font-family="FreeSans" font-size="10.00">Utilities</text>
</a>
</g>
</g>
<!-- dir_f5effd4e5946b2caa27c744fe2078285&#45;&gt;dir_150f406a44a04ce55518da03ec553ece -->
<g id="edge19" class="edge">
<title>dir_f5effd4e5946b2caa27c744fe2078285&#45;&gt;dir_150f406a44a04ce55518da03ec553ece</title>
<path fill="none" stroke="black" d="M175.23,-359.64C186.11,-335.89 205.08,-291.69 215,-252 220.09,-231.64 222.87,-208.05 224.36,-190.27"/>
<polygon fill="black" stroke="black" points="227.85,-190.52 225.11,-180.29 220.87,-190 227.85,-190.52"/>
<g id="a_edge19&#45;headlabel"><a xlink:href="dir_000128_000086.html" target="_top" xlink:title="9">
<text text-anchor="middle" x="230.41" y="-191.82" font-family="FreeSans" font-size="10.00">9</text>
</a>
</g>
</g>
<!-- dir_2d98c6b8f23a5c53321666bdc86a2d6a -->
<g id="node5" class="node">
<title>dir_2d98c6b8f23a5c53321666bdc86a2d6a</title>
<g id="a_node5"><a xlink:href="dir_2d98c6b8f23a5c53321666bdc86a2d6a.html" target="_top" xlink:title="Vex2JSON">
<polygon fill="white" stroke="red" points="325.5,-324 260.5,-324 260.5,-288 325.5,-288 325.5,-324"/>
<text text-anchor="middle" x="293" y="-303.5" font-family="FreeSans" font-size="10.00">Vex2JSON</text>
</a>
</g>
</g>
<!-- dir_f5effd4e5946b2caa27c744fe2078285&#45;&gt;dir_2d98c6b8f23a5c53321666bdc86a2d6a -->
<g id="edge20" class="edge">
<title>dir_f5effd4e5946b2caa27c744fe2078285&#45;&gt;dir_2d98c6b8f23a5c53321666bdc86a2d6a</title>
<path fill="none" stroke="black" d="M194.03,-361.98C211.26,-352.41 233.89,-339.84 253.16,-329.14"/>
<polygon fill="black" stroke="black" points="254.98,-332.13 262.02,-324.21 251.58,-326.01 254.98,-332.13"/>
<g id="a_edge20&#45;headlabel"><a xlink:href="dir_000128_000141.html" target="_top" xlink:title="1">
<text text-anchor="middle" x="253.22" y="-333.85" font-family="FreeSans" font-size="10.00">1</text>
</a>
</g>
</g>
<!-- dir_32348ece3c89569e6a714937ae854c89 -->
<g id="node6" class="node">
<title>dir_32348ece3c89569e6a714937ae854c89</title>
<g id="a_node6"><a xlink:href="dir_32348ece3c89569e6a714937ae854c89.html" target="_top" xlink:title="Message">
<polygon fill="white" stroke="red" points="254,-36 198,-36 198,0 254,0 254,-36"/>
<text text-anchor="middle" x="226" y="-15.5" font-family="FreeSans" font-size="10.00">Message</text>
</a>
</g>
</g>
<!-- dir_f5effd4e5946b2caa27c744fe2078285&#45;&gt;dir_32348ece3c89569e6a714937ae854c89 -->
<g id="edge21" class="edge">
<title>dir_f5effd4e5946b2caa27c744fe2078285&#45;&gt;dir_32348ece3c89569e6a714937ae854c89</title>
<path fill="none" stroke="black" d="M144.37,-359.83C140.06,-356.99 135.49,-354.24 131,-352 95.41,-334.25 76.27,-349.81 46,-324 12.12,-295.11 0,-279.53 0,-235 0,-235 0,-235 0,-161 0,-73.43 123.16,-37.77 187.64,-25.1"/>
<polygon fill="black" stroke="black" points="188.65,-28.47 197.83,-23.19 187.36,-21.59 188.65,-28.47"/>
<g id="a_edge21&#45;headlabel"><a xlink:href="dir_000128_000123.html" target="_top" xlink:title="5">
<text text-anchor="middle" x="185.64" y="-29.42" font-family="FreeSans" font-size="10.00">5</text>
</a>
</g>
</g>
<!-- dir_91ae3e556fa9cad9030b784323206cc7 -->
<g id="node7" class="node">
<title>dir_91ae3e556fa9cad9030b784323206cc7</title>
<g id="a_node7"><a xlink:href="dir_91ae3e556fa9cad9030b784323206cc7.html" target="_top" xlink:title="Calibration">
<polygon fill="white" stroke="red" points="117,-324 55,-324 55,-288 117,-288 117,-324"/>
<text text-anchor="middle" x="86" y="-303.5" font-family="FreeSans" font-size="10.00">Calibration</text>
</a>
</g>
</g>
<!-- dir_f5effd4e5946b2caa27c744fe2078285&#45;&gt;dir_91ae3e556fa9cad9030b784323206cc7 -->
<g id="edge22" class="edge">
<title>dir_f5effd4e5946b2caa27c744fe2078285&#45;&gt;dir_91ae3e556fa9cad9030b784323206cc7</title>
<path fill="none" stroke="black" d="M146.98,-359.7C136.87,-350.97 124.46,-340.24 113.48,-330.75"/>
<polygon fill="black" stroke="black" points="115.65,-327.99 105.79,-324.1 111.07,-333.29 115.65,-327.99"/>
<g id="a_edge22&#45;headlabel"><a xlink:href="dir_000128_000102.html" target="_top" xlink:title="2">
<text text-anchor="middle" x="120.22" y="-325.7" font-family="FreeSans" font-size="10.00">2</text>
</a>
</g>
</g>
<!-- dir_a06008c3e245d1092ba6894d6caedef2 -->
<g id="node8" class="node">
<title>dir_a06008c3e245d1092ba6894d6caedef2</title>
<g id="a_node8"><a xlink:href="dir_a06008c3e245d1092ba6894d6caedef2.html" target="_top" xlink:title="Containers">
<polygon fill="white" stroke="red" points="205.5,-252 142.5,-252 142.5,-216 205.5,-216 205.5,-252"/>
<text text-anchor="middle" x="174" y="-231.5" font-family="FreeSans" font-size="10.00">Containers</text>
</a>
</g>
</g>
<!-- dir_f5effd4e5946b2caa27c744fe2078285&#45;&gt;dir_a06008c3e245d1092ba6894d6caedef2 -->
<g id="edge23" class="edge">
<title>dir_f5effd4e5946b2caa27c744fe2078285&#45;&gt;dir_a06008c3e245d1092ba6894d6caedef2</title>
<path fill="none" stroke="black" d="M167.84,-359.87C169.04,-335.67 171.23,-291.21 172.65,-262.39"/>
<polygon fill="black" stroke="black" points="176.16,-262.35 173.15,-252.19 169.16,-262 176.16,-262.35"/>
<g id="a_edge23&#45;headlabel"><a xlink:href="dir_000128_000096.html" target="_top" xlink:title="9">
<text text-anchor="middle" x="178.81" y="-263.58" font-family="FreeSans" font-size="10.00">9</text>
</a>
</g>
</g>
<!-- dir_aed06bd2bd23a81c06cd39cc832a7382 -->
<g id="node2" class="node">
<title>dir_aed06bd2bd23a81c06cd39cc832a7382</title>
<g id="a_node2"><a xlink:href="dir_aed06bd2bd23a81c06cd39cc832a7382.html" target="_top" xlink:title="src">
<polygon fill="#eeeeff" stroke="black" points="199,-468 145,-468 145,-432 199,-432 199,-468"/>
<text text-anchor="middle" x="172" y="-447.5" font-family="FreeSans" font-size="10.00">src</text>
</a>
</g>
</g>
<!-- dir_aed06bd2bd23a81c06cd39cc832a7382&#45;&gt;dir_f5effd4e5946b2caa27c744fe2078285 -->
<g id="edge15" class="edge">
<title>dir_aed06bd2bd23a81c06cd39cc832a7382&#45;&gt;dir_f5effd4e5946b2caa27c744fe2078285</title>
<path fill="none" stroke="black" d="M170.76,-431.7C170.21,-423.98 169.55,-414.71 168.94,-406.11"/>
<polygon fill="black" stroke="black" points="172.43,-405.83 168.22,-396.1 165.44,-406.33 172.43,-405.83"/>
<g id="a_edge15&#45;headlabel"><a xlink:href="dir_000127_000128.html" target="_top" xlink:title="10">
<text text-anchor="middle" x="175.51" y="-406.71" font-family="FreeSans" font-size="10.00">10</text>
</a>
</g>
</g>
<!-- dir_0c6283dd7716efebfcf76fdb98d8e794 -->
<g id="node3" class="node">
<title>dir_0c6283dd7716efebfcf76fdb98d8e794</title>
<g id="a_node3"><a xlink:href="dir_0c6283dd7716efebfcf76fdb98d8e794.html" target="_top" xlink:title="c_src">
<polygon fill="white" stroke="red" points="122,-396 68,-396 68,-360 122,-360 122,-396"/>
<text text-anchor="middle" x="95" y="-375.5" font-family="FreeSans" font-size="10.00">c_src</text>
</a>
</g>
</g>
<!-- dir_aed06bd2bd23a81c06cd39cc832a7382&#45;&gt;dir_0c6283dd7716efebfcf76fdb98d8e794 -->
<g id="edge9" class="edge">
<title>dir_aed06bd2bd23a81c06cd39cc832a7382&#45;&gt;dir_0c6283dd7716efebfcf76fdb98d8e794</title>
<path fill="none" stroke="black" d="M152.97,-431.7C143.46,-423.05 131.79,-412.45 121.43,-403.03"/>
<polygon fill="black" stroke="black" points="123.57,-400.24 113.81,-396.1 118.86,-405.42 123.57,-400.24"/>
<g id="a_edge9&#45;headlabel"><a xlink:href="dir_000127_000013.html" target="_top" xlink:title="18">
<text text-anchor="middle" x="128.14" y="-398.06" font-family="FreeSans" font-size="10.00">18</text>
</a>
</g>
</g>
<!-- dir_aed06bd2bd23a81c06cd39cc832a7382&#45;&gt;dir_150f406a44a04ce55518da03ec553ece -->
<g id="edge10" class="edge">
<title>dir_aed06bd2bd23a81c06cd39cc832a7382&#45;&gt;dir_150f406a44a04ce55518da03ec553ece</title>
<path fill="none" stroke="black" d="M199.19,-438.64C238.9,-421.74 310.65,-383.97 335,-324 356.87,-270.13 299.96,-215.86 260.39,-186.12"/>
<polygon fill="black" stroke="black" points="262.38,-183.24 252.24,-180.16 258.24,-188.89 262.38,-183.24"/>
<g id="a_edge10&#45;headlabel"><a xlink:href="dir_000127_000086.html" target="_top" xlink:title="9">
<text text-anchor="middle" x="266.95" y="-180.57" font-family="FreeSans" font-size="10.00">9</text>
</a>
</g>
</g>
<!-- dir_aed06bd2bd23a81c06cd39cc832a7382&#45;&gt;dir_2d98c6b8f23a5c53321666bdc86a2d6a -->
<g id="edge11" class="edge">
<title>dir_aed06bd2bd23a81c06cd39cc832a7382&#45;&gt;dir_2d98c6b8f23a5c53321666bdc86a2d6a</title>
<path fill="none" stroke="black" d="M196.04,-431.94C208.76,-422.25 224.15,-409.4 236,-396 253.16,-376.6 268.73,-351.54 279.24,-332.95"/>
<polygon fill="black" stroke="black" points="282.33,-334.59 284.12,-324.15 276.21,-331.2 282.33,-334.59"/>
<g id="a_edge11&#45;headlabel"><a xlink:href="dir_000127_000141.html" target="_top" xlink:title="1">
<text text-anchor="middle" x="283.08" y="-336.61" font-family="FreeSans" font-size="10.00">1</text>
</a>
</g>
</g>
<!-- dir_aed06bd2bd23a81c06cd39cc832a7382&#45;&gt;dir_32348ece3c89569e6a714937ae854c89 -->
<g id="edge12" class="edge">
<title>dir_aed06bd2bd23a81c06cd39cc832a7382&#45;&gt;dir_32348ece3c89569e6a714937ae854c89</title>
<path fill="none" stroke="black" d="M199.12,-446.77C265.36,-439.68 430,-411.56 430,-307 430,-307 430,-307 430,-161 430,-81.05 323.14,-42.44 264.1,-27.22"/>
<polygon fill="black" stroke="black" points="264.91,-23.81 254.37,-24.81 263.23,-30.61 264.91,-23.81"/>
<g id="a_edge12&#45;headlabel"><a xlink:href="dir_000127_000123.html" target="_top" xlink:title="2">
<text text-anchor="middle" x="269.09" y="-19.42" font-family="FreeSans" font-size="10.00">2</text>
</a>
</g>
</g>
<!-- dir_aed06bd2bd23a81c06cd39cc832a7382&#45;&gt;dir_91ae3e556fa9cad9030b784323206cc7 -->
<g id="edge13" class="edge">
<title>dir_aed06bd2bd23a81c06cd39cc832a7382&#45;&gt;dir_91ae3e556fa9cad9030b784323206cc7</title>
<path fill="none" stroke="black" d="M144.85,-444.74C117.83,-438.9 77.77,-425.54 59,-396 46.72,-376.68 56.33,-351.45 67.34,-332.8"/>
<polygon fill="black" stroke="black" points="70.38,-334.54 72.77,-324.22 64.47,-330.8 70.38,-334.54"/>
<g id="a_edge13&#45;headlabel"><a xlink:href="dir_000127_000102.html" target="_top" xlink:title="1">
<text text-anchor="middle" x="70.86" y="-336.6" font-family="FreeSans" font-size="10.00">1</text>
</a>
</g>
</g>
<!-- dir_aed06bd2bd23a81c06cd39cc832a7382&#45;&gt;dir_a06008c3e245d1092ba6894d6caedef2 -->
<g id="edge14" class="edge">
<title>dir_aed06bd2bd23a81c06cd39cc832a7382&#45;&gt;dir_a06008c3e245d1092ba6894d6caedef2</title>
<path fill="none" stroke="black" d="M185.15,-431.91C191.92,-422.01 199.49,-408.96 203,-396 215.6,-349.5 198.77,-293.93 185.98,-261.73"/>
<polygon fill="black" stroke="black" points="189.06,-260.04 182.01,-252.14 182.6,-262.71 189.06,-260.04"/>
<g id="a_edge14&#45;headlabel"><a xlink:href="dir_000127_000096.html" target="_top" xlink:title="2">
<text text-anchor="middle" x="193.06" y="-259.77" font-family="FreeSans" font-size="10.00">2</text>
</a>
</g>
</g>
<!-- dir_ff42852cc454de79d2ecb9482f4de9d8 -->
<g id="node9" class="node">
<title>dir_ff42852cc454de79d2ecb9482f4de9d8</title>
<g id="a_node9"><a xlink:href="dir_ff42852cc454de79d2ecb9482f4de9d8.html" target="_top" xlink:title="Math">
<polygon fill="white" stroke="red" points="253,-108 199,-108 199,-72 253,-72 253,-108"/>
<text text-anchor="middle" x="226" y="-87.5" font-family="FreeSans" font-size="10.00">Math</text>
</a>
</g>
</g>
<!-- dir_aed06bd2bd23a81c06cd39cc832a7382&#45;&gt;dir_ff42852cc454de79d2ecb9482f4de9d8 -->
<g id="edge16" class="edge">
<title>dir_aed06bd2bd23a81c06cd39cc832a7382&#45;&gt;dir_ff42852cc454de79d2ecb9482f4de9d8</title>
<path fill="none" stroke="black" d="M199.2,-444.25C229.26,-437.81 277.69,-423.77 310,-396 337.93,-372 341.57,-359.6 351,-324 372.89,-241.32 296.71,-155.57 253.61,-115.02"/>
<polygon fill="black" stroke="black" points="255.96,-112.42 246.23,-108.21 251.21,-117.56 255.96,-112.42"/>
<g id="a_edge16&#45;headlabel"><a xlink:href="dir_000127_000099.html" target="_top" xlink:title="2">
<text text-anchor="middle" x="260.52" y="-110.27" font-family="FreeSans" font-size="10.00">2</text>
</a>
</g>
</g>
<!-- dir_150f406a44a04ce55518da03ec553ece&#45;&gt;dir_32348ece3c89569e6a714937ae854c89 -->
<g id="edge24" class="edge">
<title>dir_150f406a44a04ce55518da03ec553ece&#45;&gt;dir_32348ece3c89569e6a714937ae854c89</title>
<path fill="none" stroke="black" d="M241.61,-143.77C249.37,-134.03 257.95,-121.18 262,-108 266.7,-92.71 266.7,-87.29 262,-72 258.99,-62.22 253.49,-52.62 247.68,-44.33"/>
<polygon fill="black" stroke="black" points="250.41,-42.13 241.61,-36.23 244.81,-46.33 250.41,-42.13"/>
<g id="a_edge24&#45;headlabel"><a xlink:href="dir_000086_000123.html" target="_top" xlink:title="13">
<text text-anchor="middle" x="254.83" y="-40.8" font-family="FreeSans" font-size="10.00">13</text>
</a>
</g>
</g>
<!-- dir_150f406a44a04ce55518da03ec553ece&#45;&gt;dir_ff42852cc454de79d2ecb9482f4de9d8 -->
<g id="edge25" class="edge">
<title>dir_150f406a44a04ce55518da03ec553ece&#45;&gt;dir_ff42852cc454de79d2ecb9482f4de9d8</title>
<path fill="none" stroke="black" d="M220.08,-143.7C219.29,-135.98 219.06,-126.71 219.4,-118.11"/>
<polygon fill="black" stroke="black" points="222.9,-118.32 220.1,-108.1 215.92,-117.84 222.9,-118.32"/>
<g id="a_edge25&#45;headlabel"><a xlink:href="dir_000086_000099.html" target="_top" xlink:title="1">
<text text-anchor="middle" x="225.48" y="-119.61" font-family="FreeSans" font-size="10.00">1</text>
</a>
</g>
</g>
<!-- dir_2d98c6b8f23a5c53321666bdc86a2d6a&#45;&gt;dir_150f406a44a04ce55518da03ec553ece -->
<g id="edge17" class="edge">
<title>dir_2d98c6b8f23a5c53321666bdc86a2d6a&#45;&gt;dir_150f406a44a04ce55518da03ec553ece</title>
<path fill="none" stroke="black" d="M284.92,-287.87C273.35,-263.35 251.97,-218.03 238.39,-189.26"/>
<polygon fill="black" stroke="black" points="241.54,-187.74 234.11,-180.19 235.21,-190.73 241.54,-187.74"/>
<g id="a_edge17&#45;headlabel"><a xlink:href="dir_000141_000086.html" target="_top" xlink:title="13">
<text text-anchor="middle" x="245.64" y="-187.28" font-family="FreeSans" font-size="10.00">13</text>
</a>
</g>
</g>
<!-- dir_2d98c6b8f23a5c53321666bdc86a2d6a&#45;&gt;dir_32348ece3c89569e6a714937ae854c89 -->
<g id="edge18" class="edge">
<title>dir_2d98c6b8f23a5c53321666bdc86a2d6a&#45;&gt;dir_32348ece3c89569e6a714937ae854c89</title>
<path fill="none" stroke="black" d="M295.64,-287.97C301.01,-248.15 310.12,-146.69 277,-72 272.24,-61.28 264.33,-51.42 256.14,-43.2"/>
<polygon fill="black" stroke="black" points="258.31,-40.43 248.63,-36.12 253.51,-45.52 258.31,-40.43"/>
<g id="a_edge18&#45;headlabel"><a xlink:href="dir_000141_000123.html" target="_top" xlink:title="6">
<text text-anchor="middle" x="262.87" y="-38.32" font-family="FreeSans" font-size="10.00">6</text>
</a>
</g>
</g>
<!-- dir_91ae3e556fa9cad9030b784323206cc7&#45;&gt;dir_150f406a44a04ce55518da03ec553ece -->
<g id="edge2" class="edge">
<title>dir_91ae3e556fa9cad9030b784323206cc7&#45;&gt;dir_150f406a44a04ce55518da03ec553ece</title>
<path fill="none" stroke="black" d="M91.96,-287.83C99.36,-268.49 113.56,-237.02 134,-216 149.65,-199.91 171.23,-187.13 189.55,-178.16"/>
<polygon fill="black" stroke="black" points="191.23,-181.24 198.79,-173.82 188.25,-174.9 191.23,-181.24"/>
<g id="a_edge2&#45;headlabel"><a xlink:href="dir_000102_000086.html" target="_top" xlink:title="29">
<text text-anchor="middle" x="189.18" y="-182.84" font-family="FreeSans" font-size="10.00">29</text>
</a>
</g>
</g>
<!-- dir_91ae3e556fa9cad9030b784323206cc7&#45;&gt;dir_32348ece3c89569e6a714937ae854c89 -->
<g id="edge1" class="edge">
<title>dir_91ae3e556fa9cad9030b784323206cc7&#45;&gt;dir_32348ece3c89569e6a714937ae854c89</title>
<path fill="none" stroke="black" d="M84.44,-287.97C83.28,-269.83 82.8,-240.42 89,-216 107.11,-144.68 165.45,-77.99 199.89,-43.49"/>
<polygon fill="black" stroke="black" points="202.59,-45.74 207.26,-36.23 197.68,-40.76 202.59,-45.74"/>
<g id="a_edge1&#45;headlabel"><a xlink:href="dir_000102_000123.html" target="_top" xlink:title="22">
<text text-anchor="middle" x="202.02" y="-47.79" font-family="FreeSans" font-size="10.00">22</text>
</a>
</g>
</g>
<!-- dir_91ae3e556fa9cad9030b784323206cc7&#45;&gt;dir_a06008c3e245d1092ba6894d6caedef2 -->
<g id="edge3" class="edge">
<title>dir_91ae3e556fa9cad9030b784323206cc7&#45;&gt;dir_a06008c3e245d1092ba6894d6caedef2</title>
<path fill="none" stroke="black" d="M107.75,-287.7C118.84,-278.88 132.47,-268.03 144.49,-258.47"/>
<polygon fill="black" stroke="black" points="146.85,-261.07 152.5,-252.1 142.49,-255.59 146.85,-261.07"/>
<g id="a_edge3&#45;headlabel"><a xlink:href="dir_000102_000096.html" target="_top" xlink:title="64">
<text text-anchor="middle" x="145.8" y="-263.03" font-family="FreeSans" font-size="10.00">64</text>
</a>
</g>
</g>
<!-- dir_91ae3e556fa9cad9030b784323206cc7&#45;&gt;dir_ff42852cc454de79d2ecb9482f4de9d8 -->
<g id="edge4" class="edge">
<title>dir_91ae3e556fa9cad9030b784323206cc7&#45;&gt;dir_ff42852cc454de79d2ecb9482f4de9d8</title>
<path fill="none" stroke="black" d="M86.85,-287.98C88.39,-269.33 92.74,-239.01 105,-216 127.11,-174.52 167.06,-137.27 194.99,-114.45"/>
<polygon fill="black" stroke="black" points="197.26,-117.1 202.87,-108.12 192.88,-111.64 197.26,-117.1"/>
<g id="a_edge4&#45;headlabel"><a xlink:href="dir_000102_000099.html" target="_top" xlink:title="10">
<text text-anchor="middle" x="196.24" y="-119.07" font-family="FreeSans" font-size="10.00">10</text>
</a>
</g>
</g>
<!-- dir_a06008c3e245d1092ba6894d6caedef2&#45;&gt;dir_150f406a44a04ce55518da03ec553ece -->
<g id="edge5" class="edge">
<title>dir_a06008c3e245d1092ba6894d6caedef2&#45;&gt;dir_150f406a44a04ce55518da03ec553ece</title>
<path fill="none" stroke="black" d="M186.85,-215.7C193.03,-207.39 200.54,-197.28 207.32,-188.14"/>
<polygon fill="black" stroke="black" points="210.14,-190.22 213.29,-180.1 204.52,-186.04 210.14,-190.22"/>
<g id="a_edge5&#45;headlabel"><a xlink:href="dir_000096_000086.html" target="_top" xlink:title="42">
<text text-anchor="middle" x="210.28" y="-192.3" font-family="FreeSans" font-size="10.00">42</text>
</a>
</g>
</g>
<!-- dir_a06008c3e245d1092ba6894d6caedef2&#45;&gt;dir_32348ece3c89569e6a714937ae854c89 -->
<g id="edge6" class="edge">
<title>dir_a06008c3e245d1092ba6894d6caedef2&#45;&gt;dir_32348ece3c89569e6a714937ae854c89</title>
<path fill="none" stroke="black" d="M173,-215.94C171.81,-185.88 171.9,-121.91 190,-72 193.49,-62.38 199.12,-52.82 204.91,-44.53"/>
<polygon fill="black" stroke="black" points="207.79,-46.52 210.91,-36.4 202.15,-42.37 207.79,-46.52"/>
<g id="a_edge6&#45;headlabel"><a xlink:href="dir_000096_000123.html" target="_top" xlink:title="9">
<text text-anchor="middle" x="207.94" y="-48.6" font-family="FreeSans" font-size="10.00">9</text>
</a>
</g>
</g>
<!-- dir_ff42852cc454de79d2ecb9482f4de9d8&#45;&gt;dir_150f406a44a04ce55518da03ec553ece -->
<g id="edge8" class="edge">
<title>dir_ff42852cc454de79d2ecb9482f4de9d8&#45;&gt;dir_150f406a44a04ce55518da03ec553ece</title>
<path fill="none" stroke="black" d="M231.9,-108.1C232.7,-115.79 232.94,-125.05 232.6,-133.67"/>
<polygon fill="black" stroke="black" points="229.11,-133.48 231.92,-143.7 236.09,-133.96 229.11,-133.48"/>
<g id="a_edge8&#45;headlabel"><a xlink:href="dir_000099_000086.html" target="_top" xlink:title="1">
<text text-anchor="middle" x="226.52" y="-127.2" font-family="FreeSans" font-size="10.00">1</text>
</a>
</g>
</g>
<!-- dir_ff42852cc454de79d2ecb9482f4de9d8&#45;&gt;dir_32348ece3c89569e6a714937ae854c89 -->
<g id="edge7" class="edge">
<title>dir_ff42852cc454de79d2ecb9482f4de9d8&#45;&gt;dir_32348ece3c89569e6a714937ae854c89</title>
<path fill="none" stroke="black" d="M226,-71.7C226,-63.98 226,-54.71 226,-46.11"/>
<polygon fill="black" stroke="black" points="229.5,-46.1 226,-36.1 222.5,-46.1 229.5,-46.1"/>
<g id="a_edge7&#45;headlabel"><a xlink:href="dir_000099_000123.html" target="_top" xlink:title="6">
<text text-anchor="middle" x="232.34" y="-47.2" font-family="FreeSans" font-size="10.00">6</text>
</a>
</g>
</g>
</g>
</svg>
