<?xml version="1.0" encoding="UTF-8" standalone="no"?>
<!DOCTYPE svg PUBLIC "-//W3C//DTD SVG 1.1//EN"
 "http://www.w3.org/Graphics/SVG/1.1/DTD/svg11.dtd">
<!-- Generated by graphviz version 2.43.0 (0)
 -->
<!-- Title: mk4util Pages: 1 -->
<svg width="182pt" height="247pt"
 viewBox="0.00 0.00 182.00 247.00" xmlns="http://www.w3.org/2000/svg" xmlns:xlink="http://www.w3.org/1999/xlink">
<g id="graph0" class="graph" transform="scale(1 1) rotate(0) translate(4 243)">
<title>mk4util</title>
<polygon fill="white" stroke="transparent" points="-4,4 -4,-243 178,-243 178,4 -4,4"/>
<g id="clust1" class="cluster">
<title>clusterdir_0c6283dd7716efebfcf76fdb98d8e794</title>
<g id="a_clust1"><a xlink:href="dir_0c6283dd7716efebfcf76fdb98d8e794.html" target="_top" xlink:title="c_src">
<polygon fill="#ddddee" stroke="black" points="8,-8 8,-231 166,-231 166,-8 8,-8"/>
<text text-anchor="middle" x="87" y="-219" font-family="FreeSans" font-size="10.00">c_src</text>
</a>
</g>
</g>
<g id="clust2" class="cluster">
<title>clusterdir_cb2d4e92f47691559fc9d122a5e37fac</title>
<g id="a_clust2"><a xlink:href="dir_cb2d4e92f47691559fc9d122a5e37fac.html" target="_top">
<polygon fill="#eeeeff" stroke="black" points="16,-80 16,-204 158,-204 158,-80 16,-80"/>
</a>
</g>
</g>
<!-- dir_758df28fbdbb54fb46d6d3d6484a4984 -->
<g id="node1" class="node">
<title>dir_758df28fbdbb54fb46d6d3d6484a4984</title>
<g id="a_node1"><a xlink:href="dir_758df28fbdbb54fb46d6d3d6484a4984.html" target="_top" xlink:title="msg">
<polygon fill="white" stroke="red" points="101,-52 47,-52 47,-16 101,-16 101,-52"/>
<text text-anchor="middle" x="74" y="-31.5" font-family="FreeSans" font-size="10.00">msg</text>
</a>
</g>
</g>
<!-- dir_cb2d4e92f47691559fc9d122a5e37fac -->
<g id="node2" class="node">
<title>dir_cb2d4e92f47691559fc9d122a5e37fac</title>
<text text-anchor="middle" x="123" y="-175.5" font-family="FreeSans" font-size="10.00">mk4util</text>
</g>
<!-- dir_a9cd4a31284cbea32c0beb9190310289 -->
<g id="node3" class="node">
<title>dir_a9cd4a31284cbea32c0beb9190310289</title>
<g id="a_node3"><a xlink:href="dir_a9cd4a31284cbea32c0beb9190310289.html" target="_top" xlink:title="include">
<polygon fill="white" stroke="black" points="78,-124 24,-124 24,-88 78,-88 78,-124"/>
<text text-anchor="middle" x="51" y="-103.5" font-family="FreeSans" font-size="10.00">include</text>
</a>
</g>
</g>
<!-- dir_a9cd4a31284cbea32c0beb9190310289&#45;&gt;dir_758df28fbdbb54fb46d6d3d6484a4984 -->
<g id="edge3" class="edge">
<title>dir_a9cd4a31284cbea32c0beb9190310289&#45;&gt;dir_758df28fbdbb54fb46d6d3d6484a4984</title>
<path fill="none" stroke="black" d="M56.69,-87.7C59.25,-79.9 62.33,-70.51 65.18,-61.83"/>
<polygon fill="black" stroke="black" points="68.58,-62.7 68.38,-52.1 61.93,-60.51 68.58,-62.7"/>
<g id="a_edge3&#45;headlabel"><a xlink:href="dir_000016_000144.html" target="_top" xlink:title="1">
<text text-anchor="middle" x="70.16" y="-64.5" font-family="FreeSans" font-size="10.00">1</text>
</a>
</g>
</g>
<!-- dir_232a63e2a82f65c9f768d25810934ad8 -->
<g id="node4" class="node">
<title>dir_232a63e2a82f65c9f768d25810934ad8</title>
<g id="a_node4"><a xlink:href="dir_232a63e2a82f65c9f768d25810934ad8.html" target="_top" xlink:title="src">
<polygon fill="white" stroke="black" points="78,-196 24,-196 24,-160 78,-160 78,-196"/>
<text text-anchor="middle" x="51" y="-175.5" font-family="FreeSans" font-size="10.00">src</text>
</a>
</g>
</g>
<!-- dir_232a63e2a82f65c9f768d25810934ad8&#45;&gt;dir_758df28fbdbb54fb46d6d3d6484a4984 -->
<g id="edge1" class="edge">
<title>dir_232a63e2a82f65c9f768d25810934ad8&#45;&gt;dir_758df28fbdbb54fb46d6d3d6484a4984</title>
<path fill="none" stroke="black" d="M66.61,-159.77C74.37,-150.03 82.95,-137.18 87,-124 93.28,-103.57 89.13,-79.54 83.9,-61.6"/>
<polygon fill="black" stroke="black" points="87.24,-60.53 80.86,-52.07 80.57,-62.66 87.24,-60.53"/>
<g id="a_edge1&#45;headlabel"><a xlink:href="dir_000015_000144.html" target="_top" xlink:title="2">
<text text-anchor="middle" x="91.03" y="-60.59" font-family="FreeSans" font-size="10.00">2</text>
</a>
</g>
</g>
<!-- dir_232a63e2a82f65c9f768d25810934ad8&#45;&gt;dir_a9cd4a31284cbea32c0beb9190310289 -->
<g id="edge2" class="edge">
<title>dir_232a63e2a82f65c9f768d25810934ad8&#45;&gt;dir_a9cd4a31284cbea32c0beb9190310289</title>
<path fill="none" stroke="black" d="M51,-159.7C51,-151.98 51,-142.71 51,-134.11"/>
<polygon fill="black" stroke="black" points="54.5,-134.1 51,-124.1 47.5,-134.1 54.5,-134.1"/>
<g id="a_edge2&#45;headlabel"><a xlink:href="dir_000015_000016.html" target="_top" xlink:title="40">
<text text-anchor="middle" x="57.34" y="-135.2" font-family="FreeSans" font-size="10.00">40</text>
</a>
</g>
</g>
</g>
</svg>
