<?xml version="1.0" encoding="UTF-8" standalone="no"?>
<!DOCTYPE svg PUBLIC "-//W3C//DTD SVG 1.1//EN"
 "http://www.w3.org/Graphics/SVG/1.1/DTD/svg11.dtd">
<!-- Generated by graphviz version 2.43.0 (0)
 -->
<!-- Title: Calibration Pages: 1 -->
<svg width="284pt" height="535pt"
 viewBox="0.00 0.00 284.00 535.00" xmlns="http://www.w3.org/2000/svg" xmlns:xlink="http://www.w3.org/1999/xlink">
<g id="graph0" class="graph" transform="scale(1 1) rotate(0) translate(4 531)">
<title>Calibration</title>
<polygon fill="white" stroke="transparent" points="-4,4 -4,-531 280,-531 280,4 -4,4"/>
<g id="clust1" class="cluster">
<title>clusterdir_730935399589b544a579302a37a46c03</title>
<g id="a_clust1"><a xlink:href="dir_730935399589b544a579302a37a46c03.html" target="_top" xlink:title="cpp_src">
<polygon fill="#ddddee" stroke="black" points="8,-8 8,-519 268,-519 268,-8 8,-8"/>
<text text-anchor="middle" x="138" y="-507" font-family="FreeSans" font-size="10.00">cpp_src</text>
</a>
</g>
</g>
<g id="clust2" class="cluster">
<title>clusterdir_91ae3e556fa9cad9030b784323206cc7</title>
<g id="a_clust2"><a xlink:href="dir_91ae3e556fa9cad9030b784323206cc7.html" target="_top">
<polygon fill="#eeeeff" stroke="black" points="86,-368 86,-492 236,-492 236,-368 86,-368"/>
</a>
</g>
</g>
<!-- dir_32348ece3c89569e6a714937ae854c89 -->
<g id="node1" class="node">
<title>dir_32348ece3c89569e6a714937ae854c89</title>
<g id="a_node1"><a xlink:href="dir_32348ece3c89569e6a714937ae854c89.html" target="_top" xlink:title="Message">
<polygon fill="white" stroke="red" points="148,-52 92,-52 92,-16 148,-16 148,-52"/>
<text text-anchor="middle" x="120" y="-31.5" font-family="FreeSans" font-size="10.00">Message</text>
</a>
</g>
</g>
<!-- dir_150f406a44a04ce55518da03ec553ece -->
<g id="node2" class="node">
<title>dir_150f406a44a04ce55518da03ec553ece</title>
<g id="a_node2"><a xlink:href="dir_150f406a44a04ce55518da03ec553ece.html" target="_top" xlink:title="Utilities">
<polygon fill="white" stroke="red" points="180,-196 126,-196 126,-160 180,-160 180,-196"/>
<text text-anchor="middle" x="153" y="-175.5" font-family="FreeSans" font-size="10.00">Utilities</text>
</a>
</g>
</g>
<!-- dir_150f406a44a04ce55518da03ec553ece&#45;&gt;dir_32348ece3c89569e6a714937ae854c89 -->
<g id="edge9" class="edge">
<title>dir_150f406a44a04ce55518da03ec553ece&#45;&gt;dir_32348ece3c89569e6a714937ae854c89</title>
<path fill="none" stroke="black" d="M149.02,-159.87C143.37,-135.56 132.97,-90.82 126.28,-62.01"/>
<polygon fill="black" stroke="black" points="129.67,-61.14 123.99,-52.19 122.85,-62.72 129.67,-61.14"/>
<g id="a_edge9&#45;headlabel"><a xlink:href="dir_000086_000123.html" target="_top" xlink:title="13">
<text text-anchor="middle" x="133.25" y="-61.5" font-family="FreeSans" font-size="10.00">13</text>
</a>
</g>
</g>
<!-- dir_ff42852cc454de79d2ecb9482f4de9d8 -->
<g id="node5" class="node">
<title>dir_ff42852cc454de79d2ecb9482f4de9d8</title>
<g id="a_node5"><a xlink:href="dir_ff42852cc454de79d2ecb9482f4de9d8.html" target="_top" xlink:title="Math">
<polygon fill="white" stroke="red" points="213,-124 159,-124 159,-88 213,-88 213,-124"/>
<text text-anchor="middle" x="186" y="-103.5" font-family="FreeSans" font-size="10.00">Math</text>
</a>
</g>
</g>
<!-- dir_150f406a44a04ce55518da03ec553ece&#45;&gt;dir_ff42852cc454de79d2ecb9482f4de9d8 -->
<g id="edge10" class="edge">
<title>dir_150f406a44a04ce55518da03ec553ece&#45;&gt;dir_ff42852cc454de79d2ecb9482f4de9d8</title>
<path fill="none" stroke="black" d="M155.24,-159.7C158.21,-151.64 162.59,-141.89 167.2,-132.98"/>
<polygon fill="black" stroke="black" points="170.33,-134.56 172.04,-124.1 164.18,-131.21 170.33,-134.56"/>
<g id="a_edge10&#45;headlabel"><a xlink:href="dir_000086_000099.html" target="_top" xlink:title="1">
<text text-anchor="middle" x="171.1" y="-136.58" font-family="FreeSans" font-size="10.00">1</text>
</a>
</g>
</g>
<!-- dir_a06008c3e245d1092ba6894d6caedef2 -->
<g id="node3" class="node">
<title>dir_a06008c3e245d1092ba6894d6caedef2</title>
<g id="a_node3"><a xlink:href="dir_a06008c3e245d1092ba6894d6caedef2.html" target="_top" xlink:title="Containers">
<polygon fill="white" stroke="red" points="159.5,-268 96.5,-268 96.5,-232 159.5,-232 159.5,-268"/>
<text text-anchor="middle" x="128" y="-247.5" font-family="FreeSans" font-size="10.00">Containers</text>
</a>
</g>
</g>
<!-- dir_a06008c3e245d1092ba6894d6caedef2&#45;&gt;dir_32348ece3c89569e6a714937ae854c89 -->
<g id="edge2" class="edge">
<title>dir_a06008c3e245d1092ba6894d6caedef2&#45;&gt;dir_32348ece3c89569e6a714937ae854c89</title>
<path fill="none" stroke="black" d="M123.54,-231.95C121.06,-221.63 118.25,-208.15 117,-196 112.2,-149.28 114.99,-94.54 117.48,-62.43"/>
<polygon fill="black" stroke="black" points="120.97,-62.7 118.3,-52.45 113.99,-62.13 120.97,-62.7"/>
<g id="a_edge2&#45;headlabel"><a xlink:href="dir_000096_000123.html" target="_top" xlink:title="9">
<text text-anchor="middle" x="123.5" y="-64.02" font-family="FreeSans" font-size="10.00">9</text>
</a>
</g>
</g>
<!-- dir_a06008c3e245d1092ba6894d6caedef2&#45;&gt;dir_150f406a44a04ce55518da03ec553ece -->
<g id="edge1" class="edge">
<title>dir_a06008c3e245d1092ba6894d6caedef2&#45;&gt;dir_150f406a44a04ce55518da03ec553ece</title>
<path fill="none" stroke="black" d="M134.18,-231.7C137,-223.81 140.39,-214.3 143.52,-205.55"/>
<polygon fill="black" stroke="black" points="146.82,-206.7 146.89,-196.1 140.23,-204.34 146.82,-206.7"/>
<g id="a_edge1&#45;headlabel"><a xlink:href="dir_000096_000086.html" target="_top" xlink:title="42">
<text text-anchor="middle" x="148.29" y="-208.54" font-family="FreeSans" font-size="10.00">42</text>
</a>
</g>
</g>
<!-- dir_4546011bd625f1142c4c4ae06dcdb5ba -->
<g id="node4" class="node">
<title>dir_4546011bd625f1142c4c4ae06dcdb5ba</title>
<g id="a_node4"><a xlink:href="dir_4546011bd625f1142c4c4ae06dcdb5ba.html" target="_top" xlink:title="Operators">
<polygon fill="white" stroke="red" points="219.5,-340 160.5,-340 160.5,-304 219.5,-304 219.5,-340"/>
<text text-anchor="middle" x="190" y="-319.5" font-family="FreeSans" font-size="10.00">Operators</text>
</a>
</g>
</g>
<!-- dir_4546011bd625f1142c4c4ae06dcdb5ba&#45;&gt;dir_32348ece3c89569e6a714937ae854c89 -->
<g id="edge6" class="edge">
<title>dir_4546011bd625f1142c4c4ae06dcdb5ba&#45;&gt;dir_32348ece3c89569e6a714937ae854c89</title>
<path fill="none" stroke="black" d="M199.23,-303.98C219.92,-263.33 264.92,-158.67 222,-88 208.1,-65.12 180.76,-51.66 157.88,-44.04"/>
<polygon fill="black" stroke="black" points="158.66,-40.62 148.08,-41.03 156.61,-47.31 158.66,-40.62"/>
<g id="a_edge6&#45;headlabel"><a xlink:href="dir_000089_000123.html" target="_top" xlink:title="12">
<text text-anchor="middle" x="162.93" y="-36.46" font-family="FreeSans" font-size="10.00">12</text>
</a>
</g>
</g>
<!-- dir_4546011bd625f1142c4c4ae06dcdb5ba&#45;&gt;dir_150f406a44a04ce55518da03ec553ece -->
<g id="edge5" class="edge">
<title>dir_4546011bd625f1142c4c4ae06dcdb5ba&#45;&gt;dir_150f406a44a04ce55518da03ec553ece</title>
<path fill="none" stroke="black" d="M186.28,-303.86C182.31,-285.88 175.67,-256.84 169,-232 166.7,-223.42 163.97,-214.13 161.43,-205.76"/>
<polygon fill="black" stroke="black" points="164.74,-204.64 158.46,-196.11 158.05,-206.7 164.74,-204.64"/>
<g id="a_edge5&#45;headlabel"><a xlink:href="dir_000089_000086.html" target="_top" xlink:title="5">
<text text-anchor="middle" x="168.52" y="-204.74" font-family="FreeSans" font-size="10.00">5</text>
</a>
</g>
</g>
<!-- dir_4546011bd625f1142c4c4ae06dcdb5ba&#45;&gt;dir_a06008c3e245d1092ba6894d6caedef2 -->
<g id="edge7" class="edge">
<title>dir_4546011bd625f1142c4c4ae06dcdb5ba&#45;&gt;dir_a06008c3e245d1092ba6894d6caedef2</title>
<path fill="none" stroke="black" d="M174.67,-303.7C167.24,-295.3 158.18,-285.07 150.02,-275.86"/>
<polygon fill="black" stroke="black" points="152.4,-273.27 143.15,-268.1 147.16,-277.91 152.4,-273.27"/>
<g id="a_edge7&#45;headlabel"><a xlink:href="dir_000089_000096.html" target="_top" xlink:title="22">
<text text-anchor="middle" x="156.91" y="-271.58" font-family="FreeSans" font-size="10.00">22</text>
</a>
</g>
</g>
<!-- dir_4546011bd625f1142c4c4ae06dcdb5ba&#45;&gt;dir_ff42852cc454de79d2ecb9482f4de9d8 -->
<g id="edge8" class="edge">
<title>dir_4546011bd625f1142c4c4ae06dcdb5ba&#45;&gt;dir_ff42852cc454de79d2ecb9482f4de9d8</title>
<path fill="none" stroke="black" d="M195.82,-303.56C198.93,-293.33 202.43,-280.08 204,-268 210.18,-220.4 211.82,-207.36 204,-160 202.56,-151.28 199.87,-142.06 197,-133.8"/>
<polygon fill="black" stroke="black" points="200.23,-132.46 193.48,-124.3 193.67,-134.89 200.23,-132.46"/>
<g id="a_edge8&#45;headlabel"><a xlink:href="dir_000089_000099.html" target="_top" xlink:title="8">
<text text-anchor="middle" x="204.14" y="-132.34" font-family="FreeSans" font-size="10.00">8</text>
</a>
</g>
</g>
<!-- dir_ff42852cc454de79d2ecb9482f4de9d8&#45;&gt;dir_32348ece3c89569e6a714937ae854c89 -->
<g id="edge3" class="edge">
<title>dir_ff42852cc454de79d2ecb9482f4de9d8&#45;&gt;dir_32348ece3c89569e6a714937ae854c89</title>
<path fill="none" stroke="black" d="M169.69,-87.7C161.69,-79.22 151.93,-68.86 143.18,-59.58"/>
<polygon fill="black" stroke="black" points="145.53,-56.98 136.13,-52.1 140.44,-61.78 145.53,-56.98"/>
<g id="a_edge3&#45;headlabel"><a xlink:href="dir_000099_000123.html" target="_top" xlink:title="6">
<text text-anchor="middle" x="150.07" y="-55.15" font-family="FreeSans" font-size="10.00">6</text>
</a>
</g>
</g>
<!-- dir_ff42852cc454de79d2ecb9482f4de9d8&#45;&gt;dir_150f406a44a04ce55518da03ec553ece -->
<g id="edge4" class="edge">
<title>dir_ff42852cc454de79d2ecb9482f4de9d8&#45;&gt;dir_150f406a44a04ce55518da03ec553ece</title>
<path fill="none" stroke="black" d="M183.83,-124.1C180.89,-132.13 176.52,-141.87 171.91,-150.8"/>
<polygon fill="black" stroke="black" points="168.77,-149.24 167.07,-159.7 174.92,-152.58 168.77,-149.24"/>
<g id="a_edge4&#45;headlabel"><a xlink:href="dir_000099_000086.html" target="_top" xlink:title="1">
<text text-anchor="middle" x="167.99" y="-142.22" font-family="FreeSans" font-size="10.00">1</text>
</a>
</g>
</g>
<!-- dir_91ae3e556fa9cad9030b784323206cc7 -->
<g id="node6" class="node">
<title>dir_91ae3e556fa9cad9030b784323206cc7</title>
<text text-anchor="middle" x="197" y="-463.5" font-family="FreeSans" font-size="10.00">Calibration</text>
</g>
<!-- dir_7be2fd11ca2616dfba72a6921a1b3394 -->
<g id="node7" class="node">
<title>dir_7be2fd11ca2616dfba72a6921a1b3394</title>
<g id="a_node7"><a xlink:href="dir_7be2fd11ca2616dfba72a6921a1b3394.html" target="_top" xlink:title="include">
<polygon fill="white" stroke="black" points="148,-412 94,-412 94,-376 148,-376 148,-412"/>
<text text-anchor="middle" x="121" y="-391.5" font-family="FreeSans" font-size="10.00">include</text>
</a>
</g>
</g>
<!-- dir_7be2fd11ca2616dfba72a6921a1b3394&#45;&gt;dir_32348ece3c89569e6a714937ae854c89 -->
<g id="edge17" class="edge">
<title>dir_7be2fd11ca2616dfba72a6921a1b3394&#45;&gt;dir_32348ece3c89569e6a714937ae854c89</title>
<path fill="none" stroke="black" d="M102.7,-375.64C93.86,-366.06 84.08,-353.39 79,-340 67.63,-310.04 75.89,-300.04 75,-268 74.56,-252.01 73.21,-247.9 75,-232 81.97,-170.18 100.88,-99.48 111.84,-61.86"/>
<polygon fill="black" stroke="black" points="115.23,-62.75 114.7,-52.17 108.51,-60.77 115.23,-62.75"/>
<g id="a_edge17&#45;headlabel"><a xlink:href="dir_000103_000123.html" target="_top" xlink:title="21">
<text text-anchor="middle" x="116.93" y="-64.5" font-family="FreeSans" font-size="10.00">21</text>
</a>
</g>
</g>
<!-- dir_7be2fd11ca2616dfba72a6921a1b3394&#45;&gt;dir_150f406a44a04ce55518da03ec553ece -->
<g id="edge16" class="edge">
<title>dir_7be2fd11ca2616dfba72a6921a1b3394&#45;&gt;dir_150f406a44a04ce55518da03ec553ece</title>
<path fill="none" stroke="black" d="M110.65,-375.7C93.88,-345.25 64.87,-280.71 88,-232 94.33,-218.66 105.85,-207.58 117.44,-199.05"/>
<polygon fill="black" stroke="black" points="119.56,-201.84 125.83,-193.3 115.6,-196.07 119.56,-201.84"/>
<g id="a_edge16&#45;headlabel"><a xlink:href="dir_000103_000086.html" target="_top" xlink:title="22">
<text text-anchor="middle" x="118.2" y="-203.72" font-family="FreeSans" font-size="10.00">22</text>
</a>
</g>
</g>
<!-- dir_7be2fd11ca2616dfba72a6921a1b3394&#45;&gt;dir_a06008c3e245d1092ba6894d6caedef2 -->
<g id="edge19" class="edge">
<title>dir_7be2fd11ca2616dfba72a6921a1b3394&#45;&gt;dir_a06008c3e245d1092ba6894d6caedef2</title>
<path fill="none" stroke="black" d="M121.84,-375.87C123.04,-351.67 125.23,-307.21 126.65,-278.39"/>
<polygon fill="black" stroke="black" points="130.16,-278.35 127.15,-268.19 123.16,-278 130.16,-278.35"/>
<g id="a_edge19&#45;headlabel"><a xlink:href="dir_000103_000096.html" target="_top" xlink:title="64">
<text text-anchor="middle" x="132.81" y="-279.58" font-family="FreeSans" font-size="10.00">64</text>
</a>
</g>
</g>
<!-- dir_7be2fd11ca2616dfba72a6921a1b3394&#45;&gt;dir_4546011bd625f1142c4c4ae06dcdb5ba -->
<g id="edge18" class="edge">
<title>dir_7be2fd11ca2616dfba72a6921a1b3394&#45;&gt;dir_4546011bd625f1142c4c4ae06dcdb5ba</title>
<path fill="none" stroke="black" d="M138.06,-375.7C146.5,-367.14 156.82,-356.66 166.04,-347.3"/>
<polygon fill="black" stroke="black" points="168.61,-349.68 173.14,-340.1 163.63,-344.77 168.61,-349.68"/>
<g id="a_edge18&#45;headlabel"><a xlink:href="dir_000103_000089.html" target="_top" xlink:title="54">
<text text-anchor="middle" x="168.11" y="-351.74" font-family="FreeSans" font-size="10.00">54</text>
</a>
</g>
</g>
<!-- dir_7be2fd11ca2616dfba72a6921a1b3394&#45;&gt;dir_ff42852cc454de79d2ecb9482f4de9d8 -->
<g id="edge20" class="edge">
<title>dir_7be2fd11ca2616dfba72a6921a1b3394&#45;&gt;dir_ff42852cc454de79d2ecb9482f4de9d8</title>
<path fill="none" stroke="black" d="M126.41,-375.74C132.22,-357.66 141.97,-328.53 152,-304 158.7,-287.62 162.83,-284.58 169,-268 180.58,-236.87 184.51,-228.91 189,-196 191.8,-175.45 190.84,-152 189.3,-134.33"/>
<polygon fill="black" stroke="black" points="192.76,-133.75 188.28,-124.15 185.79,-134.45 192.76,-133.75"/>
<g id="a_edge20&#45;headlabel"><a xlink:href="dir_000103_000099.html" target="_top" xlink:title="3">
<text text-anchor="middle" x="195.94" y="-134.55" font-family="FreeSans" font-size="10.00">3</text>
</a>
</g>
</g>
<!-- dir_4babaf99262da0ba626adfb482a31f7a -->
<g id="node8" class="node">
<title>dir_4babaf99262da0ba626adfb482a31f7a</title>
<g id="a_node8"><a xlink:href="dir_4babaf99262da0ba626adfb482a31f7a.html" target="_top" xlink:title="src">
<polygon fill="white" stroke="black" points="148,-484 94,-484 94,-448 148,-448 148,-484"/>
<text text-anchor="middle" x="121" y="-463.5" font-family="FreeSans" font-size="10.00">src</text>
</a>
</g>
</g>
<!-- dir_4babaf99262da0ba626adfb482a31f7a&#45;&gt;dir_32348ece3c89569e6a714937ae854c89 -->
<g id="edge12" class="edge">
<title>dir_4babaf99262da0ba626adfb482a31f7a&#45;&gt;dir_32348ece3c89569e6a714937ae854c89</title>
<path fill="none" stroke="black" d="M96.88,-447.82C66.16,-423.73 17,-376.78 17,-323 17,-323 17,-323 17,-177 17,-127.66 58.26,-83.89 88.55,-58.41"/>
<polygon fill="black" stroke="black" points="90.84,-61.06 96.37,-52.03 86.41,-55.64 90.84,-61.06"/>
<g id="a_edge12&#45;headlabel"><a xlink:href="dir_000107_000123.html" target="_top" xlink:title="1">
<text text-anchor="middle" x="89.85" y="-63.03" font-family="FreeSans" font-size="10.00">1</text>
</a>
</g>
</g>
<!-- dir_4babaf99262da0ba626adfb482a31f7a&#45;&gt;dir_150f406a44a04ce55518da03ec553ece -->
<g id="edge11" class="edge">
<title>dir_4babaf99262da0ba626adfb482a31f7a&#45;&gt;dir_150f406a44a04ce55518da03ec553ece</title>
<path fill="none" stroke="black" d="M105.82,-447.63C98.19,-437.84 89.6,-425 85,-412 58.29,-336.46 37.51,-302.81 75,-232 83.9,-215.19 100.79,-202.72 116.59,-194.11"/>
<polygon fill="black" stroke="black" points="118.36,-197.14 125.69,-189.49 115.19,-190.9 118.36,-197.14"/>
<g id="a_edge11&#45;headlabel"><a xlink:href="dir_000107_000086.html" target="_top" xlink:title="7">
<text text-anchor="middle" x="116.44" y="-198.8" font-family="FreeSans" font-size="10.00">7</text>
</a>
</g>
</g>
<!-- dir_4babaf99262da0ba626adfb482a31f7a&#45;&gt;dir_4546011bd625f1142c4c4ae06dcdb5ba -->
<g id="edge13" class="edge">
<title>dir_4babaf99262da0ba626adfb482a31f7a&#45;&gt;dir_4546011bd625f1142c4c4ae06dcdb5ba</title>
<path fill="none" stroke="black" d="M134.11,-447.99C141.48,-437.91 150.48,-424.66 157,-412 167.33,-391.95 176.05,-367.89 181.93,-349.85"/>
<polygon fill="black" stroke="black" points="185.29,-350.84 184.97,-340.25 178.61,-348.72 185.29,-350.84"/>
<g id="a_edge13&#45;headlabel"><a xlink:href="dir_000107_000089.html" target="_top" xlink:title="1">
<text text-anchor="middle" x="186.91" y="-352.62" font-family="FreeSans" font-size="10.00">1</text>
</a>
</g>
</g>
<!-- dir_4babaf99262da0ba626adfb482a31f7a&#45;&gt;dir_ff42852cc454de79d2ecb9482f4de9d8 -->
<g id="edge15" class="edge">
<title>dir_4babaf99262da0ba626adfb482a31f7a&#45;&gt;dir_ff42852cc454de79d2ecb9482f4de9d8</title>
<path fill="none" stroke="black" d="M148.07,-448.79C182.91,-425.64 239,-379.57 239,-323 239,-323 239,-323 239,-249 239,-206.21 217.61,-160.48 202.01,-132.82"/>
<polygon fill="black" stroke="black" points="205.03,-131.05 196.98,-124.16 198.98,-134.56 205.03,-131.05"/>
<g id="a_edge15&#45;headlabel"><a xlink:href="dir_000107_000099.html" target="_top" xlink:title="7">
<text text-anchor="middle" x="209.29" y="-130.23" font-family="FreeSans" font-size="10.00">7</text>
</a>
</g>
</g>
<!-- dir_4babaf99262da0ba626adfb482a31f7a&#45;&gt;dir_7be2fd11ca2616dfba72a6921a1b3394 -->
<g id="edge14" class="edge">
<title>dir_4babaf99262da0ba626adfb482a31f7a&#45;&gt;dir_7be2fd11ca2616dfba72a6921a1b3394</title>
<path fill="none" stroke="black" d="M121,-447.7C121,-439.98 121,-430.71 121,-422.11"/>
<polygon fill="black" stroke="black" points="124.5,-422.1 121,-412.1 117.5,-422.1 124.5,-422.1"/>
<g id="a_edge14&#45;headlabel"><a xlink:href="dir_000107_000103.html" target="_top" xlink:title="28">
<text text-anchor="middle" x="127.34" y="-423.2" font-family="FreeSans" font-size="10.00">28</text>
</a>
</g>
</g>
</g>
</svg>
