<?xml version="1.0" encoding="UTF-8" standalone="no"?>
<!DOCTYPE svg PUBLIC "-//W3C//DTD SVG 1.1//EN"
 "http://www.w3.org/Graphics/SVG/1.1/DTD/svg11.dtd">
<!-- Generated by graphviz version 2.43.0 (0)
 -->
<!-- Title: src Pages: 1 -->
<svg width="254pt" height="367pt"
 viewBox="0.00 0.00 254.00 367.00" xmlns="http://www.w3.org/2000/svg" xmlns:xlink="http://www.w3.org/1999/xlink">
<g id="graph0" class="graph" transform="scale(1 1) rotate(0) translate(4 363)">
<title>src</title>
<polygon fill="white" stroke="transparent" points="-4,4 -4,-363 250,-363 250,4 -4,4"/>
<g id="clust1" class="cluster">
<title>clusterdir_b8ce078ed9f8fd90d71e02c796d93353</title>
<g id="a_clust1"><a xlink:href="dir_b8ce078ed9f8fd90d71e02c796d93353.html" target="_top" xlink:title="Initialization">
<polygon fill="#ddddee" stroke="black" points="8,-208 8,-351 78,-351 78,-208 8,-208"/>
<text text-anchor="middle" x="43" y="-339" font-family="FreeSans" font-size="10.00">Initialization</text>
</a>
</g>
</g>
<!-- dir_0dc70d85b9b46e117d15d6fa142bde30 -->
<g id="node1" class="node">
<title>dir_0dc70d85b9b46e117d15d6fa142bde30</title>
<g id="a_node1"><a xlink:href="dir_0dc70d85b9b46e117d15d6fa142bde30.html" target="_top" xlink:title="include">
<polygon fill="none" stroke="black" points="70,-252 16,-252 16,-216 70,-216 70,-252"/>
<text text-anchor="middle" x="43" y="-231.5" font-family="FreeSans" font-size="10.00">include</text>
</a>
</g>
</g>
<!-- dir_150f406a44a04ce55518da03ec553ece -->
<g id="node3" class="node">
<title>dir_150f406a44a04ce55518da03ec553ece</title>
<g id="a_node3"><a xlink:href="dir_150f406a44a04ce55518da03ec553ece.html" target="_top" xlink:title="Utilities">
<polygon fill="white" stroke="red" points="95,-36 41,-36 41,0 95,0 95,-36"/>
<text text-anchor="middle" x="68" y="-15.5" font-family="FreeSans" font-size="10.00">Utilities</text>
</a>
</g>
</g>
<!-- dir_0dc70d85b9b46e117d15d6fa142bde30&#45;&gt;dir_150f406a44a04ce55518da03ec553ece -->
<g id="edge12" class="edge">
<title>dir_0dc70d85b9b46e117d15d6fa142bde30&#45;&gt;dir_150f406a44a04ce55518da03ec553ece</title>
<path fill="none" stroke="black" d="M42,-215.89C41.19,-197.93 40.53,-168.91 43,-144 46.38,-109.89 54.82,-71.3 60.96,-46.14"/>
<polygon fill="black" stroke="black" points="64.41,-46.78 63.43,-36.23 57.62,-45.08 64.41,-46.78"/>
<g id="a_edge12&#45;headlabel"><a xlink:href="dir_000106_000086.html" target="_top" xlink:title="7">
<text text-anchor="middle" x="66.29" y="-48.45" font-family="FreeSans" font-size="10.00">7</text>
</a>
</g>
</g>
<!-- dir_4546011bd625f1142c4c4ae06dcdb5ba -->
<g id="node4" class="node">
<title>dir_4546011bd625f1142c4c4ae06dcdb5ba</title>
<g id="a_node4"><a xlink:href="dir_4546011bd625f1142c4c4ae06dcdb5ba.html" target="_top" xlink:title="Operators">
<polygon fill="white" stroke="red" points="127.5,-180 68.5,-180 68.5,-144 127.5,-144 127.5,-180"/>
<text text-anchor="middle" x="98" y="-159.5" font-family="FreeSans" font-size="10.00">Operators</text>
</a>
</g>
</g>
<!-- dir_0dc70d85b9b46e117d15d6fa142bde30&#45;&gt;dir_4546011bd625f1142c4c4ae06dcdb5ba -->
<g id="edge13" class="edge">
<title>dir_0dc70d85b9b46e117d15d6fa142bde30&#45;&gt;dir_4546011bd625f1142c4c4ae06dcdb5ba</title>
<path fill="none" stroke="black" d="M56.6,-215.7C63.12,-207.39 71.07,-197.28 78.25,-188.14"/>
<polygon fill="black" stroke="black" points="81.13,-190.13 84.56,-180.1 75.63,-185.81 81.13,-190.13"/>
<g id="a_edge13&#45;headlabel"><a xlink:href="dir_000106_000089.html" target="_top" xlink:title="3">
<text text-anchor="middle" x="81.15" y="-192.21" font-family="FreeSans" font-size="10.00">3</text>
</a>
</g>
</g>
<!-- dir_a06008c3e245d1092ba6894d6caedef2 -->
<g id="node6" class="node">
<title>dir_a06008c3e245d1092ba6894d6caedef2</title>
<g id="a_node6"><a xlink:href="dir_a06008c3e245d1092ba6894d6caedef2.html" target="_top" xlink:title="Containers">
<polygon fill="white" stroke="red" points="159.5,-108 96.5,-108 96.5,-72 159.5,-72 159.5,-108"/>
<text text-anchor="middle" x="128" y="-87.5" font-family="FreeSans" font-size="10.00">Containers</text>
</a>
</g>
</g>
<!-- dir_0dc70d85b9b46e117d15d6fa142bde30&#45;&gt;dir_a06008c3e245d1092ba6894d6caedef2 -->
<g id="edge14" class="edge">
<title>dir_0dc70d85b9b46e117d15d6fa142bde30&#45;&gt;dir_a06008c3e245d1092ba6894d6caedef2</title>
<path fill="none" stroke="black" d="M42.78,-216C43.27,-197.09 46.38,-166.28 60,-144 67.15,-132.3 77.9,-122.18 88.75,-114.02"/>
<polygon fill="black" stroke="black" points="90.88,-116.8 97.01,-108.16 86.83,-111.09 90.88,-116.8"/>
<g id="a_edge14&#45;headlabel"><a xlink:href="dir_000106_000096.html" target="_top" xlink:title="5">
<text text-anchor="middle" x="89.59" y="-118.69" font-family="FreeSans" font-size="10.00">5</text>
</a>
</g>
</g>
<!-- dir_dffae469195e904fa488166b8250282a -->
<g id="node2" class="node">
<title>dir_dffae469195e904fa488166b8250282a</title>
<g id="a_node2"><a xlink:href="dir_dffae469195e904fa488166b8250282a.html" target="_top" xlink:title="src">
<polygon fill="#eeeeff" stroke="black" points="70,-324 16,-324 16,-288 70,-288 70,-324"/>
<text text-anchor="middle" x="43" y="-303.5" font-family="FreeSans" font-size="10.00">src</text>
</a>
</g>
</g>
<!-- dir_dffae469195e904fa488166b8250282a&#45;&gt;dir_0dc70d85b9b46e117d15d6fa142bde30 -->
<g id="edge5" class="edge">
<title>dir_dffae469195e904fa488166b8250282a&#45;&gt;dir_0dc70d85b9b46e117d15d6fa142bde30</title>
<path fill="none" stroke="black" d="M43,-287.7C43,-279.98 43,-270.71 43,-262.11"/>
<polygon fill="black" stroke="black" points="46.5,-262.1 43,-252.1 39.5,-262.1 46.5,-262.1"/>
<g id="a_edge5&#45;headlabel"><a xlink:href="dir_000105_000106.html" target="_top" xlink:title="40">
<text text-anchor="middle" x="49.34" y="-263.2" font-family="FreeSans" font-size="10.00">40</text>
</a>
</g>
</g>
<!-- dir_dffae469195e904fa488166b8250282a&#45;&gt;dir_150f406a44a04ce55518da03ec553ece -->
<g id="edge6" class="edge">
<title>dir_dffae469195e904fa488166b8250282a&#45;&gt;dir_150f406a44a04ce55518da03ec553ece</title>
<path fill="none" stroke="black" d="M27.39,-287.77C19.63,-278.03 11.05,-265.18 7,-252 1.25,-233.31 4.41,-227.38 7,-208 15.3,-145.91 22.79,-130.94 44,-72 47.15,-63.26 51.13,-53.95 54.94,-45.62"/>
<polygon fill="black" stroke="black" points="58.2,-46.92 59.28,-36.38 51.87,-43.94 58.2,-46.92"/>
<g id="a_edge6&#45;headlabel"><a xlink:href="dir_000105_000086.html" target="_top" xlink:title="37">
<text text-anchor="middle" x="59.25" y="-48.88" font-family="FreeSans" font-size="10.00">37</text>
</a>
</g>
</g>
<!-- dir_dffae469195e904fa488166b8250282a&#45;&gt;dir_4546011bd625f1142c4c4ae06dcdb5ba -->
<g id="edge7" class="edge">
<title>dir_dffae469195e904fa488166b8250282a&#45;&gt;dir_4546011bd625f1142c4c4ae06dcdb5ba</title>
<path fill="none" stroke="black" d="M57.16,-287.85C64.69,-277.93 73.5,-264.89 79,-252 87.41,-232.29 92.24,-208.49 94.93,-190.46"/>
<polygon fill="black" stroke="black" points="98.43,-190.71 96.3,-180.33 91.49,-189.76 98.43,-190.71"/>
<g id="a_edge7&#45;headlabel"><a xlink:href="dir_000105_000089.html" target="_top" xlink:title="1">
<text text-anchor="middle" x="100.76" y="-192.15" font-family="FreeSans" font-size="10.00">1</text>
</a>
</g>
</g>
<!-- dir_91ae3e556fa9cad9030b784323206cc7 -->
<g id="node5" class="node">
<title>dir_91ae3e556fa9cad9030b784323206cc7</title>
<g id="a_node5"><a xlink:href="dir_91ae3e556fa9cad9030b784323206cc7.html" target="_top" xlink:title="Calibration">
<polygon fill="white" stroke="red" points="246,-252 184,-252 184,-216 246,-216 246,-252"/>
<text text-anchor="middle" x="215" y="-231.5" font-family="FreeSans" font-size="10.00">Calibration</text>
</a>
</g>
</g>
<!-- dir_dffae469195e904fa488166b8250282a&#45;&gt;dir_91ae3e556fa9cad9030b784323206cc7 -->
<g id="edge8" class="edge">
<title>dir_dffae469195e904fa488166b8250282a&#45;&gt;dir_91ae3e556fa9cad9030b784323206cc7</title>
<path fill="none" stroke="black" d="M70.25,-293.91C98.24,-282.52 142.12,-264.66 174.24,-251.59"/>
<polygon fill="black" stroke="black" points="175.85,-254.71 183.8,-247.7 173.22,-248.23 175.85,-254.71"/>
<g id="a_edge8&#45;headlabel"><a xlink:href="dir_000105_000102.html" target="_top" xlink:title="17">
<text text-anchor="middle" x="173.6" y="-256.19" font-family="FreeSans" font-size="10.00">17</text>
</a>
</g>
</g>
<!-- dir_dffae469195e904fa488166b8250282a&#45;&gt;dir_a06008c3e245d1092ba6894d6caedef2 -->
<g id="edge9" class="edge">
<title>dir_dffae469195e904fa488166b8250282a&#45;&gt;dir_a06008c3e245d1092ba6894d6caedef2</title>
<path fill="none" stroke="black" d="M64.31,-287.8C75.51,-278.07 88.96,-265.22 99,-252 120.88,-223.18 128.3,-215.12 137,-180 142.06,-159.59 139.24,-135.86 135.47,-118.05"/>
<polygon fill="black" stroke="black" points="138.88,-117.25 133.2,-108.31 132.07,-118.84 138.88,-117.25"/>
<g id="a_edge9&#45;headlabel"><a xlink:href="dir_000105_000096.html" target="_top" xlink:title="2">
<text text-anchor="middle" x="142.47" y="-117.6" font-family="FreeSans" font-size="10.00">2</text>
</a>
</g>
</g>
<!-- dir_4546011bd625f1142c4c4ae06dcdb5ba&#45;&gt;dir_150f406a44a04ce55518da03ec553ece -->
<g id="edge10" class="edge">
<title>dir_4546011bd625f1142c4c4ae06dcdb5ba&#45;&gt;dir_150f406a44a04ce55518da03ec553ece</title>
<path fill="none" stroke="black" d="M94.38,-143.87C89.25,-119.56 79.79,-74.82 73.71,-46.01"/>
<polygon fill="black" stroke="black" points="77.12,-45.25 71.63,-36.19 70.27,-46.7 77.12,-45.25"/>
<g id="a_edge10&#45;headlabel"><a xlink:href="dir_000089_000086.html" target="_top" xlink:title="5">
<text text-anchor="middle" x="80.64" y="-45.68" font-family="FreeSans" font-size="10.00">5</text>
</a>
</g>
</g>
<!-- dir_4546011bd625f1142c4c4ae06dcdb5ba&#45;&gt;dir_a06008c3e245d1092ba6894d6caedef2 -->
<g id="edge11" class="edge">
<title>dir_4546011bd625f1142c4c4ae06dcdb5ba&#45;&gt;dir_a06008c3e245d1092ba6894d6caedef2</title>
<path fill="none" stroke="black" d="M105.42,-143.7C108.79,-135.81 112.87,-126.3 116.62,-117.55"/>
<polygon fill="black" stroke="black" points="119.95,-118.67 120.67,-108.1 113.51,-115.92 119.95,-118.67"/>
<g id="a_edge11&#45;headlabel"><a xlink:href="dir_000089_000096.html" target="_top" xlink:title="22">
<text text-anchor="middle" x="121.14" y="-120.6" font-family="FreeSans" font-size="10.00">22</text>
</a>
</g>
</g>
<!-- dir_91ae3e556fa9cad9030b784323206cc7&#45;&gt;dir_150f406a44a04ce55518da03ec553ece -->
<g id="edge1" class="edge">
<title>dir_91ae3e556fa9cad9030b784323206cc7&#45;&gt;dir_150f406a44a04ce55518da03ec553ece</title>
<path fill="none" stroke="black" d="M214.64,-215.77C213.08,-183.71 205.42,-114.3 169,-72 152.08,-52.35 126.04,-38.94 104.65,-30.52"/>
<polygon fill="black" stroke="black" points="105.78,-27.21 95.19,-27 103.34,-33.77 105.78,-27.21"/>
<g id="a_edge1&#45;headlabel"><a xlink:href="dir_000102_000086.html" target="_top" xlink:title="29">
<text text-anchor="middle" x="110.14" y="-23.3" font-family="FreeSans" font-size="10.00">29</text>
</a>
</g>
</g>
<!-- dir_91ae3e556fa9cad9030b784323206cc7&#45;&gt;dir_4546011bd625f1142c4c4ae06dcdb5ba -->
<g id="edge3" class="edge">
<title>dir_91ae3e556fa9cad9030b784323206cc7&#45;&gt;dir_4546011bd625f1142c4c4ae06dcdb5ba</title>
<path fill="none" stroke="black" d="M186.38,-215.88C171.08,-206.72 152.06,-195.34 135.58,-185.48"/>
<polygon fill="black" stroke="black" points="137.11,-182.32 126.73,-180.19 133.52,-188.33 137.11,-182.32"/>
<g id="a_edge3&#45;headlabel"><a xlink:href="dir_000102_000089.html" target="_top" xlink:title="55">
<text text-anchor="middle" x="141.65" y="-179.23" font-family="FreeSans" font-size="10.00">55</text>
</a>
</g>
</g>
<!-- dir_91ae3e556fa9cad9030b784323206cc7&#45;&gt;dir_a06008c3e245d1092ba6894d6caedef2 -->
<g id="edge2" class="edge">
<title>dir_91ae3e556fa9cad9030b784323206cc7&#45;&gt;dir_a06008c3e245d1092ba6894d6caedef2</title>
<path fill="none" stroke="black" d="M207.52,-215.71C199.29,-197.35 185.21,-167.77 170,-144 163.86,-134.41 156.35,-124.47 149.38,-115.84"/>
<polygon fill="black" stroke="black" points="151.99,-113.5 142.93,-108.01 146.58,-117.95 151.99,-113.5"/>
<g id="a_edge2&#45;headlabel"><a xlink:href="dir_000102_000096.html" target="_top" xlink:title="64">
<text text-anchor="middle" x="156.46" y="-111.97" font-family="FreeSans" font-size="10.00">64</text>
</a>
</g>
</g>
<!-- dir_a06008c3e245d1092ba6894d6caedef2&#45;&gt;dir_150f406a44a04ce55518da03ec553ece -->
<g id="edge4" class="edge">
<title>dir_a06008c3e245d1092ba6894d6caedef2&#45;&gt;dir_150f406a44a04ce55518da03ec553ece</title>
<path fill="none" stroke="black" d="M113.17,-71.7C105.98,-63.3 97.2,-53.07 89.31,-43.86"/>
<polygon fill="black" stroke="black" points="91.83,-41.42 82.66,-36.1 86.51,-45.97 91.83,-41.42"/>
<g id="a_edge4&#45;headlabel"><a xlink:href="dir_000096_000086.html" target="_top" xlink:title="42">
<text text-anchor="middle" x="96.32" y="-39.8" font-family="FreeSans" font-size="10.00">42</text>
</a>
</g>
</g>
</g>
</svg>
