<?xml version="1.0" encoding="UTF-8" standalone="no"?>
<!DOCTYPE svg PUBLIC "-//W3C//DTD SVG 1.1//EN"
 "http://www.w3.org/Graphics/SVG/1.1/DTD/svg11.dtd">
<!-- Generated by graphviz version 2.43.0 (0)
 -->
<!-- Title: search Pages: 1 -->
<svg width="196pt" height="375pt"
 viewBox="0.00 0.00 196.00 375.00" xmlns="http://www.w3.org/2000/svg" xmlns:xlink="http://www.w3.org/1999/xlink">
<g id="graph0" class="graph" transform="scale(1 1) rotate(0) translate(4 371)">
<title>search</title>
<polygon fill="white" stroke="transparent" points="-4,4 -4,-371 192,-371 192,4 -4,4"/>
<g id="clust1" class="cluster">
<title>clusterdir_9de42bc92121356a26b664e34e3ff194</title>
<g id="a_clust1"><a xlink:href="dir_9de42bc92121356a26b664e34e3ff194.html" target="_top" xlink:title="applications">
<polygon fill="#ddddee" stroke="black" points="22,-200 22,-359 180,-359 180,-200 22,-200"/>
<text text-anchor="middle" x="101" y="-347" font-family="FreeSans" font-size="10.00">applications</text>
</a>
</g>
</g>
<g id="clust2" class="cluster">
<title>clusterdir_ad5b12cdd0e5859b1349e1ee1ebbb92b</title>
<g id="a_clust2"><a xlink:href="dir_ad5b12cdd0e5859b1349e1ee1ebbb92b.html" target="_top">
<polygon fill="#eeeeff" stroke="black" points="30,-208 30,-332 172,-332 172,-208 30,-208"/>
</a>
</g>
</g>
<!-- dir_ad5b12cdd0e5859b1349e1ee1ebbb92b -->
<g id="node1" class="node">
<title>dir_ad5b12cdd0e5859b1349e1ee1ebbb92b</title>
<text text-anchor="middle" x="137" y="-303.5" font-family="FreeSans" font-size="10.00">search</text>
</g>
<!-- dir_97538d6d2f36941ea3d19750f9ea8c20 -->
<g id="node2" class="node">
<title>dir_97538d6d2f36941ea3d19750f9ea8c20</title>
<g id="a_node2"><a xlink:href="dir_97538d6d2f36941ea3d19750f9ea8c20.html" target="_top" xlink:title="include">
<polygon fill="white" stroke="black" points="100,-252 46,-252 46,-216 100,-216 100,-252"/>
<text text-anchor="middle" x="73" y="-231.5" font-family="FreeSans" font-size="10.00">include</text>
</a>
</g>
</g>
<!-- dir_ad5b12cdd0e5859b1349e1ee1ebbb92b&#45;&gt;dir_97538d6d2f36941ea3d19750f9ea8c20 -->
<g id="edge3" class="edge">
<title>dir_ad5b12cdd0e5859b1349e1ee1ebbb92b&#45;&gt;dir_97538d6d2f36941ea3d19750f9ea8c20</title>
<path fill="none" stroke="black" d="M121.18,-287.7C113.43,-279.22 103.96,-268.86 95.48,-259.58"/>
<polygon fill="black" stroke="black" points="97.97,-257.12 88.64,-252.1 92.8,-261.85 97.97,-257.12"/>
<g id="a_edge3&#45;headlabel"><a xlink:href="dir_000049_000150.html" target="_top" xlink:title="11">
<text text-anchor="middle" x="102.49" y="-255.36" font-family="FreeSans" font-size="10.00">11</text>
</a>
</g>
</g>
<!-- dir_758df28fbdbb54fb46d6d3d6484a4984 -->
<g id="node5" class="node">
<title>dir_758df28fbdbb54fb46d6d3d6484a4984</title>
<g id="a_node5"><a xlink:href="dir_758df28fbdbb54fb46d6d3d6484a4984.html" target="_top" xlink:title="msg">
<polygon fill="white" stroke="red" points="109,-36 55,-36 55,0 109,0 109,-36"/>
<text text-anchor="middle" x="82" y="-15.5" font-family="FreeSans" font-size="10.00">msg</text>
</a>
</g>
</g>
<!-- dir_ad5b12cdd0e5859b1349e1ee1ebbb92b&#45;&gt;dir_758df28fbdbb54fb46d6d3d6484a4984 -->
<g id="edge2" class="edge">
<title>dir_ad5b12cdd0e5859b1349e1ee1ebbb92b&#45;&gt;dir_758df28fbdbb54fb46d6d3d6484a4984</title>
<path fill="none" stroke="black" d="M138.52,-287.72C141.39,-248.2 145.06,-148.74 118,-72 114.6,-62.35 108.99,-52.78 103.2,-44.49"/>
<polygon fill="black" stroke="black" points="105.95,-42.32 97.18,-36.37 100.32,-46.49 105.95,-42.32"/>
<g id="a_edge2&#45;headlabel"><a xlink:href="dir_000049_000144.html" target="_top" xlink:title="1">
<text text-anchor="middle" x="110.37" y="-41.03" font-family="FreeSans" font-size="10.00">1</text>
</a>
</g>
</g>
<!-- dir_637a76a7abf5a01e5c2aa724f3c1e96e -->
<g id="node4" class="node">
<title>dir_637a76a7abf5a01e5c2aa724f3c1e96e</title>
<g id="a_node4"><a xlink:href="dir_637a76a7abf5a01e5c2aa724f3c1e96e.html" target="_top" xlink:title="afio">
<polygon fill="white" stroke="red" points="54,-180 0,-180 0,-144 54,-144 54,-180"/>
<text text-anchor="middle" x="27" y="-159.5" font-family="FreeSans" font-size="10.00">afio</text>
</a>
</g>
</g>
<!-- dir_97538d6d2f36941ea3d19750f9ea8c20&#45;&gt;dir_637a76a7abf5a01e5c2aa724f3c1e96e -->
<g id="edge7" class="edge">
<title>dir_97538d6d2f36941ea3d19750f9ea8c20&#45;&gt;dir_637a76a7abf5a01e5c2aa724f3c1e96e</title>
<path fill="none" stroke="black" d="M61.63,-215.7C56.28,-207.56 49.8,-197.69 43.89,-188.7"/>
<polygon fill="black" stroke="black" points="46.66,-186.54 38.24,-180.1 40.81,-190.38 46.66,-186.54"/>
<g id="a_edge7&#45;headlabel"><a xlink:href="dir_000150_000022.html" target="_top" xlink:title="2">
<text text-anchor="middle" x="51" y="-185.48" font-family="FreeSans" font-size="10.00">2</text>
</a>
</g>
</g>
<!-- dir_cb2d4e92f47691559fc9d122a5e37fac -->
<g id="node6" class="node">
<title>dir_cb2d4e92f47691559fc9d122a5e37fac</title>
<g id="a_node6"><a xlink:href="dir_cb2d4e92f47691559fc9d122a5e37fac.html" target="_top" xlink:title="mk4util">
<polygon fill="white" stroke="red" points="109,-108 55,-108 55,-72 109,-72 109,-108"/>
<text text-anchor="middle" x="82" y="-87.5" font-family="FreeSans" font-size="10.00">mk4util</text>
</a>
</g>
</g>
<!-- dir_97538d6d2f36941ea3d19750f9ea8c20&#45;&gt;dir_cb2d4e92f47691559fc9d122a5e37fac -->
<g id="edge8" class="edge">
<title>dir_97538d6d2f36941ea3d19750f9ea8c20&#45;&gt;dir_cb2d4e92f47691559fc9d122a5e37fac</title>
<path fill="none" stroke="black" d="M74.09,-215.87C75.62,-191.67 78.44,-147.21 80.26,-118.39"/>
<polygon fill="black" stroke="black" points="83.77,-118.39 80.91,-108.19 76.78,-117.95 83.77,-118.39"/>
<g id="a_edge8&#45;headlabel"><a xlink:href="dir_000150_000014.html" target="_top" xlink:title="1">
<text text-anchor="middle" x="86.38" y="-119.66" font-family="FreeSans" font-size="10.00">1</text>
</a>
</g>
</g>
<!-- dir_ea77c5aa62ce6fce68ae5996a6713140 -->
<g id="node3" class="node">
<title>dir_ea77c5aa62ce6fce68ae5996a6713140</title>
<g id="a_node3"><a xlink:href="dir_ea77c5aa62ce6fce68ae5996a6713140.html" target="_top" xlink:title="src">
<polygon fill="white" stroke="black" points="92,-324 38,-324 38,-288 92,-288 92,-324"/>
<text text-anchor="middle" x="65" y="-303.5" font-family="FreeSans" font-size="10.00">src</text>
</a>
</g>
</g>
<!-- dir_ea77c5aa62ce6fce68ae5996a6713140&#45;&gt;dir_97538d6d2f36941ea3d19750f9ea8c20 -->
<g id="edge1" class="edge">
<title>dir_ea77c5aa62ce6fce68ae5996a6713140&#45;&gt;dir_97538d6d2f36941ea3d19750f9ea8c20</title>
<path fill="none" stroke="black" d="M66.98,-287.7C67.86,-279.98 68.92,-270.71 69.9,-262.11"/>
<polygon fill="black" stroke="black" points="73.39,-262.44 71.05,-252.1 66.43,-261.64 73.39,-262.44"/>
<g id="a_edge1&#45;headlabel"><a xlink:href="dir_000050_000150.html" target="_top" xlink:title="10">
<text text-anchor="middle" x="75.8" y="-263.83" font-family="FreeSans" font-size="10.00">10</text>
</a>
</g>
</g>
<!-- dir_637a76a7abf5a01e5c2aa724f3c1e96e&#45;&gt;dir_758df28fbdbb54fb46d6d3d6484a4984 -->
<g id="edge6" class="edge">
<title>dir_637a76a7abf5a01e5c2aa724f3c1e96e&#45;&gt;dir_758df28fbdbb54fb46d6d3d6484a4984</title>
<path fill="none" stroke="black" d="M28.7,-143.67C30.95,-125.29 35.89,-95.69 46,-72 50.08,-62.43 55.99,-52.78 61.84,-44.39"/>
<polygon fill="black" stroke="black" points="64.78,-46.29 67.84,-36.15 59.12,-42.17 64.78,-46.29"/>
<g id="a_edge6&#45;headlabel"><a xlink:href="dir_000022_000144.html" target="_top" xlink:title="1">
<text text-anchor="middle" x="64.96" y="-48.37" font-family="FreeSans" font-size="10.00">1</text>
</a>
</g>
</g>
<!-- dir_637a76a7abf5a01e5c2aa724f3c1e96e&#45;&gt;dir_cb2d4e92f47691559fc9d122a5e37fac -->
<g id="edge5" class="edge">
<title>dir_637a76a7abf5a01e5c2aa724f3c1e96e&#45;&gt;dir_cb2d4e92f47691559fc9d122a5e37fac</title>
<path fill="none" stroke="black" d="M40.6,-143.7C47.12,-135.39 55.07,-125.28 62.25,-116.14"/>
<polygon fill="black" stroke="black" points="65.13,-118.13 68.56,-108.1 59.63,-113.81 65.13,-118.13"/>
<g id="a_edge5&#45;headlabel"><a xlink:href="dir_000022_000014.html" target="_top" xlink:title="17">
<text text-anchor="middle" x="65.15" y="-120.21" font-family="FreeSans" font-size="10.00">17</text>
</a>
</g>
</g>
<!-- dir_cb2d4e92f47691559fc9d122a5e37fac&#45;&gt;dir_758df28fbdbb54fb46d6d3d6484a4984 -->
<g id="edge4" class="edge">
<title>dir_cb2d4e92f47691559fc9d122a5e37fac&#45;&gt;dir_758df28fbdbb54fb46d6d3d6484a4984</title>
<path fill="none" stroke="black" d="M82,-71.7C82,-63.98 82,-54.71 82,-46.11"/>
<polygon fill="black" stroke="black" points="85.5,-46.1 82,-36.1 78.5,-46.1 85.5,-46.1"/>
<g id="a_edge4&#45;headlabel"><a xlink:href="dir_000014_000144.html" target="_top" xlink:title="3">
<text text-anchor="middle" x="88.34" y="-47.2" font-family="FreeSans" font-size="10.00">3</text>
</a>
</g>
</g>
</g>
</svg>
