<?xml version="1.0" encoding="UTF-8" standalone="no"?>
<!DOCTYPE svg PUBLIC "-//W3C//DTD SVG 1.1//EN"
 "http://www.w3.org/Graphics/SVG/1.1/DTD/svg11.dtd">
<!-- Generated by graphviz version 2.43.0 (0)
 -->
<!-- Title: include Pages: 1 -->
<svg width="349pt" height="439pt"
 viewBox="0.00 0.00 349.42 439.00" xmlns="http://www.w3.org/2000/svg" xmlns:xlink="http://www.w3.org/1999/xlink">
<g id="graph0" class="graph" transform="scale(1 1) rotate(0) translate(4 435)">
<title>include</title>
<polygon fill="white" stroke="transparent" points="-4,4 -4,-435 345.42,-435 345.42,4 -4,4"/>
<g id="clust1" class="cluster">
<title>clusterdir_0c8523deb6301657d04bd2a03358f9f8</title>
<g id="a_clust1"><a xlink:href="dir_0c8523deb6301657d04bd2a03358f9f8.html" target="_top" xlink:title="MK4Interface">
<polygon fill="#ddddee" stroke="black" points="104,-352 104,-423 179,-423 179,-352 104,-352"/>
<text text-anchor="middle" x="141.5" y="-411" font-family="FreeSans" font-size="10.00">MK4Interface</text>
</a>
</g>
</g>
<!-- dir_f5effd4e5946b2caa27c744fe2078285 -->
<g id="node1" class="node">
<title>dir_f5effd4e5946b2caa27c744fe2078285</title>
<g id="a_node1"><a xlink:href="dir_f5effd4e5946b2caa27c744fe2078285.html" target="_top" xlink:title="include">
<polygon fill="#eeeeff" stroke="black" points="168,-396 114,-396 114,-360 168,-360 168,-396"/>
<text text-anchor="middle" x="141" y="-375.5" font-family="FreeSans" font-size="10.00">include</text>
</a>
</g>
</g>
<!-- dir_150f406a44a04ce55518da03ec553ece -->
<g id="node2" class="node">
<title>dir_150f406a44a04ce55518da03ec553ece</title>
<g id="a_node2"><a xlink:href="dir_150f406a44a04ce55518da03ec553ece.html" target="_top" xlink:title="Utilities">
<polygon fill="white" stroke="red" points="197,-108 143,-108 143,-72 197,-72 197,-108"/>
<text text-anchor="middle" x="170" y="-87.5" font-family="FreeSans" font-size="10.00">Utilities</text>
</a>
</g>
</g>
<!-- dir_f5effd4e5946b2caa27c744fe2078285&#45;&gt;dir_150f406a44a04ce55518da03ec553ece -->
<g id="edge12" class="edge">
<title>dir_f5effd4e5946b2caa27c744fe2078285&#45;&gt;dir_150f406a44a04ce55518da03ec553ece</title>
<path fill="none" stroke="black" d="M142.2,-359.72C144.97,-321.01 152.31,-224.45 162,-144 163.02,-135.56 164.33,-126.38 165.59,-118.08"/>
<polygon fill="black" stroke="black" points="169.06,-118.57 167.14,-108.15 162.14,-117.49 169.06,-118.57"/>
<g id="a_edge12&#45;headlabel"><a xlink:href="dir_000128_000086.html" target="_top" xlink:title="9">
<text text-anchor="middle" x="171.31" y="-120.06" font-family="FreeSans" font-size="10.00">9</text>
</a>
</g>
</g>
<!-- dir_2d98c6b8f23a5c53321666bdc86a2d6a -->
<g id="node3" class="node">
<title>dir_2d98c6b8f23a5c53321666bdc86a2d6a</title>
<g id="a_node3"><a xlink:href="dir_2d98c6b8f23a5c53321666bdc86a2d6a.html" target="_top" xlink:title="Vex2JSON">
<polygon fill="white" stroke="red" points="93.5,-180 28.5,-180 28.5,-144 93.5,-144 93.5,-180"/>
<text text-anchor="middle" x="61" y="-159.5" font-family="FreeSans" font-size="10.00">Vex2JSON</text>
</a>
</g>
</g>
<!-- dir_f5effd4e5946b2caa27c744fe2078285&#45;&gt;dir_2d98c6b8f23a5c53321666bdc86a2d6a -->
<g id="edge13" class="edge">
<title>dir_f5effd4e5946b2caa27c744fe2078285&#45;&gt;dir_2d98c6b8f23a5c53321666bdc86a2d6a</title>
<path fill="none" stroke="black" d="M128.75,-360C121.91,-349.92 113.66,-336.67 108,-324 87.92,-279.1 73.88,-223.36 66.65,-190.63"/>
<polygon fill="black" stroke="black" points="69.98,-189.5 64.46,-180.47 63.14,-190.98 69.98,-189.5"/>
<g id="a_edge13&#45;headlabel"><a xlink:href="dir_000128_000141.html" target="_top" xlink:title="1">
<text text-anchor="middle" x="73.52" y="-189.92" font-family="FreeSans" font-size="10.00">1</text>
</a>
</g>
</g>
<!-- dir_32348ece3c89569e6a714937ae854c89 -->
<g id="node4" class="node">
<title>dir_32348ece3c89569e6a714937ae854c89</title>
<g id="a_node4"><a xlink:href="dir_32348ece3c89569e6a714937ae854c89.html" target="_top" xlink:title="Message">
<polygon fill="white" stroke="red" points="236,-36 180,-36 180,0 236,0 236,-36"/>
<text text-anchor="middle" x="208" y="-15.5" font-family="FreeSans" font-size="10.00">Message</text>
</a>
</g>
</g>
<!-- dir_f5effd4e5946b2caa27c744fe2078285&#45;&gt;dir_32348ece3c89569e6a714937ae854c89 -->
<g id="edge14" class="edge">
<title>dir_f5effd4e5946b2caa27c744fe2078285&#45;&gt;dir_32348ece3c89569e6a714937ae854c89</title>
<path fill="none" stroke="black" d="M113.81,-364.79C72.84,-344.32 0,-298.92 0,-235 0,-235 0,-235 0,-161 0,-79.57 110.07,-41.47 170.07,-26.75"/>
<polygon fill="black" stroke="black" points="171.02,-30.12 179.95,-24.43 169.41,-23.31 171.02,-30.12"/>
<g id="a_edge14&#45;headlabel"><a xlink:href="dir_000128_000123.html" target="_top" xlink:title="5">
<text text-anchor="middle" x="168.17" y="-31.21" font-family="FreeSans" font-size="10.00">5</text>
</a>
</g>
</g>
<!-- dir_4546011bd625f1142c4c4ae06dcdb5ba -->
<g id="node5" class="node">
<title>dir_4546011bd625f1142c4c4ae06dcdb5ba</title>
<g id="a_node5"><a xlink:href="dir_4546011bd625f1142c4c4ae06dcdb5ba.html" target="_top" xlink:title="Operators">
<polygon fill="white" stroke="red" points="247.5,-252 188.5,-252 188.5,-216 247.5,-216 247.5,-252"/>
<text text-anchor="middle" x="218" y="-231.5" font-family="FreeSans" font-size="10.00">Operators</text>
</a>
</g>
</g>
<!-- dir_f5effd4e5946b2caa27c744fe2078285&#45;&gt;dir_4546011bd625f1142c4c4ae06dcdb5ba -->
<g id="edge15" class="edge">
<title>dir_f5effd4e5946b2caa27c744fe2078285&#45;&gt;dir_4546011bd625f1142c4c4ae06dcdb5ba</title>
<path fill="none" stroke="black" d="M147.02,-359.71C153.73,-341.36 165.42,-311.78 179,-288 184.35,-278.63 191.07,-268.95 197.41,-260.47"/>
<polygon fill="black" stroke="black" points="200.26,-262.52 203.57,-252.45 194.7,-258.26 200.26,-262.52"/>
<g id="a_edge15&#45;headlabel"><a xlink:href="dir_000128_000089.html" target="_top" xlink:title="1">
<text text-anchor="middle" x="200.32" y="-264.6" font-family="FreeSans" font-size="10.00">1</text>
</a>
</g>
</g>
<!-- dir_91ae3e556fa9cad9030b784323206cc7 -->
<g id="node6" class="node">
<title>dir_91ae3e556fa9cad9030b784323206cc7</title>
<g id="a_node6"><a xlink:href="dir_91ae3e556fa9cad9030b784323206cc7.html" target="_top" xlink:title="Calibration">
<polygon fill="white" stroke="red" points="250,-324 188,-324 188,-288 250,-288 250,-324"/>
<text text-anchor="middle" x="219" y="-303.5" font-family="FreeSans" font-size="10.00">Calibration</text>
</a>
</g>
</g>
<!-- dir_f5effd4e5946b2caa27c744fe2078285&#45;&gt;dir_91ae3e556fa9cad9030b784323206cc7 -->
<g id="edge16" class="edge">
<title>dir_f5effd4e5946b2caa27c744fe2078285&#45;&gt;dir_91ae3e556fa9cad9030b784323206cc7</title>
<path fill="none" stroke="black" d="M160.28,-359.7C169.92,-351.05 181.73,-340.45 192.23,-331.03"/>
<polygon fill="black" stroke="black" points="194.84,-333.39 199.94,-324.1 190.16,-328.18 194.84,-333.39"/>
<g id="a_edge16&#45;headlabel"><a xlink:href="dir_000128_000102.html" target="_top" xlink:title="2">
<text text-anchor="middle" x="194.06" y="-335.4" font-family="FreeSans" font-size="10.00">2</text>
</a>
</g>
</g>
<!-- dir_a06008c3e245d1092ba6894d6caedef2 -->
<g id="node7" class="node">
<title>dir_a06008c3e245d1092ba6894d6caedef2</title>
<g id="a_node7"><a xlink:href="dir_a06008c3e245d1092ba6894d6caedef2.html" target="_top" xlink:title="Containers">
<polygon fill="white" stroke="red" points="327.5,-180 264.5,-180 264.5,-144 327.5,-144 327.5,-180"/>
<text text-anchor="middle" x="296" y="-159.5" font-family="FreeSans" font-size="10.00">Containers</text>
</a>
</g>
</g>
<!-- dir_f5effd4e5946b2caa27c744fe2078285&#45;&gt;dir_a06008c3e245d1092ba6894d6caedef2 -->
<g id="edge17" class="edge">
<title>dir_f5effd4e5946b2caa27c744fe2078285&#45;&gt;dir_a06008c3e245d1092ba6894d6caedef2</title>
<path fill="none" stroke="black" d="M168.46,-371.73C195.34,-365.14 235.58,-351.25 259,-324 291.38,-286.31 296.88,-225.9 297.05,-190.78"/>
<polygon fill="black" stroke="black" points="300.55,-190.29 296.95,-180.32 293.55,-190.36 300.55,-190.29"/>
<g id="a_edge17&#45;headlabel"><a xlink:href="dir_000128_000096.html" target="_top" xlink:title="9">
<text text-anchor="middle" x="303.42" y="-191.36" font-family="FreeSans" font-size="10.00">9</text>
</a>
</g>
</g>
<!-- dir_150f406a44a04ce55518da03ec553ece&#45;&gt;dir_32348ece3c89569e6a714937ae854c89 -->
<g id="edge18" class="edge">
<title>dir_150f406a44a04ce55518da03ec553ece&#45;&gt;dir_32348ece3c89569e6a714937ae854c89</title>
<path fill="none" stroke="black" d="M179.39,-71.7C183.76,-63.64 189.06,-53.89 193.9,-44.98"/>
<polygon fill="black" stroke="black" points="197.02,-46.56 198.71,-36.1 190.87,-43.22 197.02,-46.56"/>
<g id="a_edge18&#45;headlabel"><a xlink:href="dir_000086_000123.html" target="_top" xlink:title="13">
<text text-anchor="middle" x="197.8" y="-48.58" font-family="FreeSans" font-size="10.00">13</text>
</a>
</g>
</g>
<!-- dir_2d98c6b8f23a5c53321666bdc86a2d6a&#45;&gt;dir_150f406a44a04ce55518da03ec553ece -->
<g id="edge10" class="edge">
<title>dir_2d98c6b8f23a5c53321666bdc86a2d6a&#45;&gt;dir_150f406a44a04ce55518da03ec553ece</title>
<path fill="none" stroke="black" d="M87.66,-143.88C101.78,-134.81 119.31,-123.55 134.56,-113.76"/>
<polygon fill="black" stroke="black" points="136.71,-116.54 143.23,-108.19 132.93,-110.65 136.71,-116.54"/>
<g id="a_edge10&#45;headlabel"><a xlink:href="dir_000141_000086.html" target="_top" xlink:title="13">
<text text-anchor="middle" x="135.22" y="-118.37" font-family="FreeSans" font-size="10.00">13</text>
</a>
</g>
</g>
<!-- dir_2d98c6b8f23a5c53321666bdc86a2d6a&#45;&gt;dir_32348ece3c89569e6a714937ae854c89 -->
<g id="edge11" class="edge">
<title>dir_2d98c6b8f23a5c53321666bdc86a2d6a&#45;&gt;dir_32348ece3c89569e6a714937ae854c89</title>
<path fill="none" stroke="black" d="M72.99,-143.8C86.56,-125 109.93,-94.54 134,-72 145.62,-61.12 159.56,-50.59 172.18,-41.83"/>
<polygon fill="black" stroke="black" points="174.37,-44.57 180.67,-36.06 170.43,-38.78 174.37,-44.57"/>
<g id="a_edge11&#45;headlabel"><a xlink:href="dir_000141_000123.html" target="_top" xlink:title="6">
<text text-anchor="middle" x="172.99" y="-46.44" font-family="FreeSans" font-size="10.00">6</text>
</a>
</g>
</g>
<!-- dir_4546011bd625f1142c4c4ae06dcdb5ba&#45;&gt;dir_150f406a44a04ce55518da03ec553ece -->
<g id="edge7" class="edge">
<title>dir_4546011bd625f1142c4c4ae06dcdb5ba&#45;&gt;dir_150f406a44a04ce55518da03ec553ece</title>
<path fill="none" stroke="black" d="M212.21,-215.87C203.99,-191.56 188.87,-146.82 179.13,-118.01"/>
<polygon fill="black" stroke="black" points="182.33,-116.54 175.81,-108.19 175.7,-118.78 182.33,-116.54"/>
<g id="a_edge7&#45;headlabel"><a xlink:href="dir_000089_000086.html" target="_top" xlink:title="5">
<text text-anchor="middle" x="186.17" y="-116.54" font-family="FreeSans" font-size="10.00">5</text>
</a>
</g>
</g>
<!-- dir_4546011bd625f1142c4c4ae06dcdb5ba&#45;&gt;dir_32348ece3c89569e6a714937ae854c89 -->
<g id="edge8" class="edge">
<title>dir_4546011bd625f1142c4c4ae06dcdb5ba&#45;&gt;dir_32348ece3c89569e6a714937ae854c89</title>
<path fill="none" stroke="black" d="M217.2,-215.85C215.47,-178.83 211.37,-91.18 209.28,-46.39"/>
<polygon fill="black" stroke="black" points="212.77,-46.06 208.81,-36.23 205.78,-46.38 212.77,-46.06"/>
<g id="a_edge8&#45;headlabel"><a xlink:href="dir_000089_000123.html" target="_top" xlink:title="12">
<text text-anchor="middle" x="215.77" y="-47.02" font-family="FreeSans" font-size="10.00">12</text>
</a>
</g>
</g>
<!-- dir_4546011bd625f1142c4c4ae06dcdb5ba&#45;&gt;dir_a06008c3e245d1092ba6894d6caedef2 -->
<g id="edge9" class="edge">
<title>dir_4546011bd625f1142c4c4ae06dcdb5ba&#45;&gt;dir_a06008c3e245d1092ba6894d6caedef2</title>
<path fill="none" stroke="black" d="M237.28,-215.7C246.92,-207.05 258.73,-196.45 269.23,-187.03"/>
<polygon fill="black" stroke="black" points="271.84,-189.39 276.94,-180.1 267.16,-184.18 271.84,-189.39"/>
<g id="a_edge9&#45;headlabel"><a xlink:href="dir_000089_000096.html" target="_top" xlink:title="22">
<text text-anchor="middle" x="271.06" y="-191.4" font-family="FreeSans" font-size="10.00">22</text>
</a>
</g>
</g>
<!-- dir_91ae3e556fa9cad9030b784323206cc7&#45;&gt;dir_150f406a44a04ce55518da03ec553ece -->
<g id="edge2" class="edge">
<title>dir_91ae3e556fa9cad9030b784323206cc7&#45;&gt;dir_150f406a44a04ce55518da03ec553ece</title>
<path fill="none" stroke="black" d="M201.98,-287.96C193.46,-278.28 183.92,-265.42 179,-252 162.65,-207.36 164.03,-151.11 166.81,-118.28"/>
<polygon fill="black" stroke="black" points="170.32,-118.39 167.79,-108.1 163.35,-117.72 170.32,-118.39"/>
<g id="a_edge2&#45;headlabel"><a xlink:href="dir_000102_000086.html" target="_top" xlink:title="29">
<text text-anchor="middle" x="172.8" y="-119.74" font-family="FreeSans" font-size="10.00">29</text>
</a>
</g>
</g>
<!-- dir_91ae3e556fa9cad9030b784323206cc7&#45;&gt;dir_32348ece3c89569e6a714937ae854c89 -->
<g id="edge1" class="edge">
<title>dir_91ae3e556fa9cad9030b784323206cc7&#45;&gt;dir_32348ece3c89569e6a714937ae854c89</title>
<path fill="none" stroke="black" d="M247.41,-287.9C289.04,-260.44 359.37,-203.53 337,-144 320.06,-98.9 276.59,-62.72 244.78,-41.11"/>
<polygon fill="black" stroke="black" points="246.42,-38 236.15,-35.4 242.56,-43.84 246.42,-38"/>
<g id="a_edge1&#45;headlabel"><a xlink:href="dir_000102_000123.html" target="_top" xlink:title="22">
<text text-anchor="middle" x="250.98" y="-35.11" font-family="FreeSans" font-size="10.00">22</text>
</a>
</g>
</g>
<!-- dir_91ae3e556fa9cad9030b784323206cc7&#45;&gt;dir_4546011bd625f1142c4c4ae06dcdb5ba -->
<g id="edge4" class="edge">
<title>dir_91ae3e556fa9cad9030b784323206cc7&#45;&gt;dir_4546011bd625f1142c4c4ae06dcdb5ba</title>
<path fill="none" stroke="black" d="M218.75,-287.7C218.64,-279.98 218.51,-270.71 218.39,-262.11"/>
<polygon fill="black" stroke="black" points="221.89,-262.05 218.24,-252.1 214.89,-262.15 221.89,-262.05"/>
<g id="a_edge4&#45;headlabel"><a xlink:href="dir_000102_000089.html" target="_top" xlink:title="55">
<text text-anchor="middle" x="224.78" y="-263.11" font-family="FreeSans" font-size="10.00">55</text>
</a>
</g>
</g>
<!-- dir_91ae3e556fa9cad9030b784323206cc7&#45;&gt;dir_a06008c3e245d1092ba6894d6caedef2 -->
<g id="edge3" class="edge">
<title>dir_91ae3e556fa9cad9030b784323206cc7&#45;&gt;dir_a06008c3e245d1092ba6894d6caedef2</title>
<path fill="none" stroke="black" d="M232.62,-287.95C240.33,-277.84 249.83,-264.59 257,-252 268.48,-231.84 278.88,-207.65 286.05,-189.58"/>
<polygon fill="black" stroke="black" points="289.32,-190.83 289.68,-180.24 282.8,-188.29 289.32,-190.83"/>
<g id="a_edge3&#45;headlabel"><a xlink:href="dir_000102_000096.html" target="_top" xlink:title="64">
<text text-anchor="middle" x="290.66" y="-192.71" font-family="FreeSans" font-size="10.00">64</text>
</a>
</g>
</g>
<!-- dir_a06008c3e245d1092ba6894d6caedef2&#45;&gt;dir_150f406a44a04ce55518da03ec553ece -->
<g id="edge5" class="edge">
<title>dir_a06008c3e245d1092ba6894d6caedef2&#45;&gt;dir_150f406a44a04ce55518da03ec553ece</title>
<path fill="none" stroke="black" d="M265.18,-143.88C247.27,-133.93 224.62,-121.35 205.91,-110.95"/>
<polygon fill="black" stroke="black" points="207.52,-107.84 197.08,-106.05 204.12,-113.96 207.52,-107.84"/>
<g id="a_edge5&#45;headlabel"><a xlink:href="dir_000096_000086.html" target="_top" xlink:title="42">
<text text-anchor="middle" x="212.04" y="-104.61" font-family="FreeSans" font-size="10.00">42</text>
</a>
</g>
</g>
<!-- dir_a06008c3e245d1092ba6894d6caedef2&#45;&gt;dir_32348ece3c89569e6a714937ae854c89 -->
<g id="edge6" class="edge">
<title>dir_a06008c3e245d1092ba6894d6caedef2&#45;&gt;dir_32348ece3c89569e6a714937ae854c89</title>
<path fill="none" stroke="black" d="M288.29,-143.73C279.83,-125.38 265.38,-95.81 250,-72 243.82,-62.43 236.29,-52.51 229.33,-43.87"/>
<polygon fill="black" stroke="black" points="231.94,-41.53 222.88,-36.03 226.53,-45.98 231.94,-41.53"/>
<g id="a_edge6&#45;headlabel"><a xlink:href="dir_000096_000123.html" target="_top" xlink:title="9">
<text text-anchor="middle" x="236.42" y="-40.01" font-family="FreeSans" font-size="10.00">9</text>
</a>
</g>
</g>
</g>
</svg>
