<?xml version="1.0" encoding="UTF-8" standalone="no"?>
<!DOCTYPE svg PUBLIC "-//W3C//DTD SVG 1.1//EN"
 "http://www.w3.org/Graphics/SVG/1.1/DTD/svg11.dtd">
<!-- Generated by graphviz version 2.43.0 (0)
 -->
<!-- Title: src Pages: 1 -->
<svg width="688pt" height="511pt"
 viewBox="0.00 0.00 688.00 511.00" xmlns="http://www.w3.org/2000/svg" xmlns:xlink="http://www.w3.org/1999/xlink">
<g id="graph0" class="graph" transform="scale(1 1) rotate(0) translate(4 507)">
<title>src</title>
<polygon fill="white" stroke="transparent" points="-4,4 -4,-507 684,-507 684,4 -4,4"/>
<g id="clust1" class="cluster">
<title>clusterdir_de95cbaa0f0c0c60f30a64ffd12dfdd2</title>
<g id="a_clust1"><a xlink:href="dir_de95cbaa0f0c0c60f30a64ffd12dfdd2.html" target="_top" xlink:title="ffplot">
<polygon fill="#ddddee" stroke="black" points="354,-352 354,-495 424,-495 424,-352 354,-352"/>
<text text-anchor="middle" x="389" y="-483" font-family="FreeSans" font-size="10.00">ffplot</text>
</a>
</g>
</g>
<!-- dir_0057024deded2ff24003f61a80827c99 -->
<g id="node1" class="node">
<title>dir_0057024deded2ff24003f61a80827c99</title>
<g id="a_node1"><a xlink:href="dir_0057024deded2ff24003f61a80827c99.html" target="_top" xlink:title="include">
<polygon fill="none" stroke="black" points="416,-396 362,-396 362,-360 416,-360 416,-396"/>
<text text-anchor="middle" x="389" y="-375.5" font-family="FreeSans" font-size="10.00">include</text>
</a>
</g>
</g>
<!-- dir_0908837483934fe24781ea7898fec311 -->
<g id="node3" class="node">
<title>dir_0908837483934fe24781ea7898fec311</title>
<g id="a_node3"><a xlink:href="dir_0908837483934fe24781ea7898fec311.html" target="_top" xlink:title="ffcore">
<polygon fill="white" stroke="red" points="424,-324 370,-324 370,-288 424,-288 424,-324"/>
<text text-anchor="middle" x="397" y="-303.5" font-family="FreeSans" font-size="10.00">ffcore</text>
</a>
</g>
</g>
<!-- dir_0057024deded2ff24003f61a80827c99&#45;&gt;dir_0908837483934fe24781ea7898fec311 -->
<g id="edge36" class="edge">
<title>dir_0057024deded2ff24003f61a80827c99&#45;&gt;dir_0908837483934fe24781ea7898fec311</title>
<path fill="none" stroke="black" d="M390.98,-359.7C391.86,-351.98 392.92,-342.71 393.9,-334.11"/>
<polygon fill="black" stroke="black" points="397.39,-334.44 395.05,-324.1 390.43,-333.64 397.39,-334.44"/>
<g id="a_edge36&#45;headlabel"><a xlink:href="dir_000088_000047.html" target="_top" xlink:title="3">
<text text-anchor="middle" x="399.8" y="-335.83" font-family="FreeSans" font-size="10.00">3</text>
</a>
</g>
</g>
<!-- dir_64078e4dd55db1ba2b4e557207803e4b -->
<g id="node5" class="node">
<title>dir_64078e4dd55db1ba2b4e557207803e4b</title>
<g id="a_node5"><a xlink:href="dir_64078e4dd55db1ba2b4e557207803e4b.html" target="_top" xlink:title="vex">
<polygon fill="white" stroke="red" points="276,-252 222,-252 222,-216 276,-216 276,-252"/>
<text text-anchor="middle" x="249" y="-231.5" font-family="FreeSans" font-size="10.00">vex</text>
</a>
</g>
</g>
<!-- dir_0057024deded2ff24003f61a80827c99&#45;&gt;dir_64078e4dd55db1ba2b4e557207803e4b -->
<g id="edge37" class="edge">
<title>dir_0057024deded2ff24003f61a80827c99&#45;&gt;dir_64078e4dd55db1ba2b4e557207803e4b</title>
<path fill="none" stroke="black" d="M361.57,-367.87C339.78,-359.44 309.78,-345 290,-324 273.49,-306.47 262.7,-281.11 256.36,-261.95"/>
<polygon fill="black" stroke="black" points="259.67,-260.8 253.36,-252.29 252.98,-262.88 259.67,-260.8"/>
<g id="a_edge37&#45;headlabel"><a xlink:href="dir_000088_000044.html" target="_top" xlink:title="2">
<text text-anchor="middle" x="263.44" y="-260.9" font-family="FreeSans" font-size="10.00">2</text>
</a>
</g>
</g>
<!-- dir_b4e48db5bc7dd3cb9cf33b7d54662e39 -->
<g id="node2" class="node">
<title>dir_b4e48db5bc7dd3cb9cf33b7d54662e39</title>
<g id="a_node2"><a xlink:href="dir_b4e48db5bc7dd3cb9cf33b7d54662e39.html" target="_top" xlink:title="src">
<polygon fill="#eeeeff" stroke="black" points="416,-468 362,-468 362,-432 416,-432 416,-468"/>
<text text-anchor="middle" x="389" y="-447.5" font-family="FreeSans" font-size="10.00">src</text>
</a>
</g>
</g>
<!-- dir_b4e48db5bc7dd3cb9cf33b7d54662e39&#45;&gt;dir_0057024deded2ff24003f61a80827c99 -->
<g id="edge1" class="edge">
<title>dir_b4e48db5bc7dd3cb9cf33b7d54662e39&#45;&gt;dir_0057024deded2ff24003f61a80827c99</title>
<path fill="none" stroke="black" d="M389,-431.7C389,-423.98 389,-414.71 389,-406.11"/>
<polygon fill="black" stroke="black" points="392.5,-406.1 389,-396.1 385.5,-406.1 392.5,-406.1"/>
<g id="a_edge1&#45;headlabel"><a xlink:href="dir_000067_000088.html" target="_top" xlink:title="6">
<text text-anchor="middle" x="395.34" y="-407.2" font-family="FreeSans" font-size="10.00">6</text>
</a>
</g>
</g>
<!-- dir_b4e48db5bc7dd3cb9cf33b7d54662e39&#45;&gt;dir_0908837483934fe24781ea7898fec311 -->
<g id="edge2" class="edge">
<title>dir_b4e48db5bc7dd3cb9cf33b7d54662e39&#45;&gt;dir_0908837483934fe24781ea7898fec311</title>
<path fill="none" stroke="black" d="M404.61,-431.77C412.37,-422.03 420.95,-409.18 425,-396 430.75,-377.31 430.37,-370.8 425,-352 423.14,-345.5 420.04,-339.02 416.57,-333.09"/>
<polygon fill="black" stroke="black" points="419.27,-330.82 410.92,-324.29 413.38,-334.6 419.27,-330.82"/>
<g id="a_edge2&#45;headlabel"><a xlink:href="dir_000067_000047.html" target="_top" xlink:title="13">
<text text-anchor="middle" x="423.6" y="-329.81" font-family="FreeSans" font-size="10.00">13</text>
</a>
</g>
</g>
<!-- dir_278308b947a9d3d19de751244af66d4b -->
<g id="node4" class="node">
<title>dir_278308b947a9d3d19de751244af66d4b</title>
<g id="a_node4"><a xlink:href="dir_278308b947a9d3d19de751244af66d4b.html" target="_top" xlink:title="ffio">
<polygon fill="white" stroke="red" points="189,-396 135,-396 135,-360 189,-360 189,-396"/>
<text text-anchor="middle" x="162" y="-375.5" font-family="FreeSans" font-size="10.00">ffio</text>
</a>
</g>
</g>
<!-- dir_b4e48db5bc7dd3cb9cf33b7d54662e39&#45;&gt;dir_278308b947a9d3d19de751244af66d4b -->
<g id="edge3" class="edge">
<title>dir_b4e48db5bc7dd3cb9cf33b7d54662e39&#45;&gt;dir_278308b947a9d3d19de751244af66d4b</title>
<path fill="none" stroke="black" d="M361.96,-441.01C327.53,-430.79 266.23,-412.45 214,-396 209.09,-394.45 203.92,-392.8 198.83,-391.15"/>
<polygon fill="black" stroke="black" points="199.81,-387.79 189.22,-388.02 197.65,-394.45 199.81,-387.79"/>
<g id="a_edge3&#45;headlabel"><a xlink:href="dir_000067_000071.html" target="_top" xlink:title="1">
<text text-anchor="middle" x="204.11" y="-383.7" font-family="FreeSans" font-size="10.00">1</text>
</a>
</g>
</g>
<!-- dir_b4e48db5bc7dd3cb9cf33b7d54662e39&#45;&gt;dir_64078e4dd55db1ba2b4e557207803e4b -->
<g id="edge4" class="edge">
<title>dir_b4e48db5bc7dd3cb9cf33b7d54662e39&#45;&gt;dir_64078e4dd55db1ba2b4e557207803e4b</title>
<path fill="none" stroke="black" d="M363.97,-431.95C334.59,-410.46 286.85,-370.64 263,-324 253.18,-304.79 249.88,-280.45 248.92,-262.07"/>
<polygon fill="black" stroke="black" points="252.42,-261.91 248.6,-252.03 245.42,-262.14 252.42,-261.91"/>
<g id="a_edge4&#45;headlabel"><a xlink:href="dir_000067_000044.html" target="_top" xlink:title="4">
<text text-anchor="middle" x="255.37" y="-262.92" font-family="FreeSans" font-size="10.00">4</text>
</a>
</g>
</g>
<!-- dir_758df28fbdbb54fb46d6d3d6484a4984 -->
<g id="node6" class="node">
<title>dir_758df28fbdbb54fb46d6d3d6484a4984</title>
<g id="a_node6"><a xlink:href="dir_758df28fbdbb54fb46d6d3d6484a4984.html" target="_top" xlink:title="msg">
<polygon fill="white" stroke="red" points="445,-36 391,-36 391,0 445,0 445,-36"/>
<text text-anchor="middle" x="418" y="-15.5" font-family="FreeSans" font-size="10.00">msg</text>
</a>
</g>
</g>
<!-- dir_b4e48db5bc7dd3cb9cf33b7d54662e39&#45;&gt;dir_758df28fbdbb54fb46d6d3d6484a4984 -->
<g id="edge5" class="edge">
<title>dir_b4e48db5bc7dd3cb9cf33b7d54662e39&#45;&gt;dir_758df28fbdbb54fb46d6d3d6484a4984</title>
<path fill="none" stroke="black" d="M361.8,-447.77C290.57,-444.08 100.58,-431.13 50,-396 12.73,-370.12 0,-352.37 0,-307 0,-307 0,-307 0,-161 0,-93.88 60.28,-98.37 122,-72 209.68,-34.54 322.91,-23.56 380.6,-20.34"/>
<polygon fill="black" stroke="black" points="380.9,-23.82 390.71,-19.82 380.55,-16.83 380.9,-23.82"/>
<g id="a_edge5&#45;headlabel"><a xlink:href="dir_000067_000144.html" target="_top" xlink:title="8">
<text text-anchor="middle" x="377.46" y="-24.34" font-family="FreeSans" font-size="10.00">8</text>
</a>
</g>
</g>
<!-- dir_85c02f264b7a99962a0503cb6605bebc -->
<g id="node7" class="node">
<title>dir_85c02f264b7a99962a0503cb6605bebc</title>
<g id="a_node7"><a xlink:href="dir_85c02f264b7a99962a0503cb6605bebc.html" target="_top" xlink:title="ffmath">
<polygon fill="white" stroke="red" points="610,-252 556,-252 556,-216 610,-216 610,-252"/>
<text text-anchor="middle" x="583" y="-231.5" font-family="FreeSans" font-size="10.00">ffmath</text>
</a>
</g>
</g>
<!-- dir_b4e48db5bc7dd3cb9cf33b7d54662e39&#45;&gt;dir_85c02f264b7a99962a0503cb6605bebc -->
<g id="edge6" class="edge">
<title>dir_b4e48db5bc7dd3cb9cf33b7d54662e39&#45;&gt;dir_85c02f264b7a99962a0503cb6605bebc</title>
<path fill="none" stroke="black" d="M416.13,-445.79C448.34,-440.64 501.84,-427.65 535,-396 572,-360.69 580.83,-298.21 582.73,-262.35"/>
<polygon fill="black" stroke="black" points="586.23,-262.26 583.11,-252.14 579.24,-262 586.23,-262.26"/>
<g id="a_edge6&#45;headlabel"><a xlink:href="dir_000067_000037.html" target="_top" xlink:title="2">
<text text-anchor="middle" x="588.93" y="-263.46" font-family="FreeSans" font-size="10.00">2</text>
</a>
</g>
</g>
<!-- dir_86b85e15943ea3cbc40c546f382f4970 -->
<g id="node8" class="node">
<title>dir_86b85e15943ea3cbc40c546f382f4970</title>
<g id="a_node8"><a xlink:href="dir_86b85e15943ea3cbc40c546f382f4970.html" target="_top" xlink:title="ffsearch">
<polygon fill="white" stroke="red" points="526,-396 472,-396 472,-360 526,-360 526,-396"/>
<text text-anchor="middle" x="499" y="-375.5" font-family="FreeSans" font-size="10.00">ffsearch</text>
</a>
</g>
</g>
<!-- dir_b4e48db5bc7dd3cb9cf33b7d54662e39&#45;&gt;dir_86b85e15943ea3cbc40c546f382f4970 -->
<g id="edge7" class="edge">
<title>dir_b4e48db5bc7dd3cb9cf33b7d54662e39&#45;&gt;dir_86b85e15943ea3cbc40c546f382f4970</title>
<path fill="none" stroke="black" d="M415.91,-431.88C430.16,-422.81 447.85,-411.55 463.24,-401.76"/>
<polygon fill="black" stroke="black" points="465.43,-404.51 471.99,-396.19 461.67,-398.61 465.43,-404.51"/>
<g id="a_edge7&#45;headlabel"><a xlink:href="dir_000067_000027.html" target="_top" xlink:title="1">
<text text-anchor="middle" x="463.92" y="-406.34" font-family="FreeSans" font-size="10.00">1</text>
</a>
</g>
</g>
<!-- dir_cb2d4e92f47691559fc9d122a5e37fac -->
<g id="node9" class="node">
<title>dir_cb2d4e92f47691559fc9d122a5e37fac</title>
<g id="a_node9"><a xlink:href="dir_cb2d4e92f47691559fc9d122a5e37fac.html" target="_top" xlink:title="mk4util">
<polygon fill="white" stroke="red" points="350,-108 296,-108 296,-72 350,-72 350,-108"/>
<text text-anchor="middle" x="323" y="-87.5" font-family="FreeSans" font-size="10.00">mk4util</text>
</a>
</g>
</g>
<!-- dir_b4e48db5bc7dd3cb9cf33b7d54662e39&#45;&gt;dir_cb2d4e92f47691559fc9d122a5e37fac -->
<g id="edge8" class="edge">
<title>dir_b4e48db5bc7dd3cb9cf33b7d54662e39&#45;&gt;dir_cb2d4e92f47691559fc9d122a5e37fac</title>
<path fill="none" stroke="black" d="M361.89,-448.66C312.16,-446.96 204.29,-438.26 126,-396 77.05,-369.58 38,-362.63 38,-307 38,-307 38,-307 38,-233 38,-123.58 208.39,-98.47 285.67,-92.71"/>
<polygon fill="black" stroke="black" points="286.19,-96.19 295.93,-92.02 285.72,-89.2 286.19,-96.19"/>
<g id="a_edge8&#45;headlabel"><a xlink:href="dir_000067_000014.html" target="_top" xlink:title="8">
<text text-anchor="middle" x="282.79" y="-96.76" font-family="FreeSans" font-size="10.00">8</text>
</a>
</g>
</g>
<!-- dir_db8d68003073a61b7114dbc4f792cfed -->
<g id="node10" class="node">
<title>dir_db8d68003073a61b7114dbc4f792cfed</title>
<g id="a_node10"><a xlink:href="dir_db8d68003073a61b7114dbc4f792cfed.html" target="_top" xlink:title="dfio">
<polygon fill="white" stroke="red" points="538,-180 484,-180 484,-144 538,-144 538,-180"/>
<text text-anchor="middle" x="511" y="-159.5" font-family="FreeSans" font-size="10.00">dfio</text>
</a>
</g>
</g>
<!-- dir_b4e48db5bc7dd3cb9cf33b7d54662e39&#45;&gt;dir_db8d68003073a61b7114dbc4f792cfed -->
<g id="edge9" class="edge">
<title>dir_b4e48db5bc7dd3cb9cf33b7d54662e39&#45;&gt;dir_db8d68003073a61b7114dbc4f792cfed</title>
<path fill="none" stroke="black" d="M416.14,-447.88C453.76,-444.92 521.79,-434.22 563,-396 624.43,-339.03 663.31,-287.11 619,-216 603.56,-191.23 572.8,-177.71 548.04,-170.54"/>
<polygon fill="black" stroke="black" points="548.77,-167.11 538.2,-167.92 546.97,-173.87 548.77,-167.11"/>
<g id="a_edge9&#45;headlabel"><a xlink:href="dir_000067_000024.html" target="_top" xlink:title="7">
<text text-anchor="middle" x="552.97" y="-162.79" font-family="FreeSans" font-size="10.00">7</text>
</a>
</g>
</g>
<!-- dir_f79eaa419c9665ed0522066c5c6851c4 -->
<g id="node11" class="node">
<title>dir_f79eaa419c9665ed0522066c5c6851c4</title>
<g id="a_node11"><a xlink:href="dir_f79eaa419c9665ed0522066c5c6851c4.html" target="_top" xlink:title="ffcontrol">
<polygon fill="white" stroke="red" points="386,-252 332,-252 332,-216 386,-216 386,-252"/>
<text text-anchor="middle" x="359" y="-231.5" font-family="FreeSans" font-size="10.00">ffcontrol</text>
</a>
</g>
</g>
<!-- dir_b4e48db5bc7dd3cb9cf33b7d54662e39&#45;&gt;dir_f79eaa419c9665ed0522066c5c6851c4 -->
<g id="edge10" class="edge">
<title>dir_b4e48db5bc7dd3cb9cf33b7d54662e39&#45;&gt;dir_f79eaa419c9665ed0522066c5c6851c4</title>
<path fill="none" stroke="black" d="M373.39,-431.77C365.63,-422.03 357.05,-409.18 353,-396 339.11,-350.84 346.16,-295.19 352.57,-262.54"/>
<polygon fill="black" stroke="black" points="356.07,-262.91 354.68,-252.41 349.21,-261.48 356.07,-262.91"/>
<g id="a_edge10&#45;headlabel"><a xlink:href="dir_000067_000054.html" target="_top" xlink:title="1">
<text text-anchor="middle" x="358.11" y="-264.51" font-family="FreeSans" font-size="10.00">1</text>
</a>
</g>
</g>
<!-- dir_0908837483934fe24781ea7898fec311&#45;&gt;dir_64078e4dd55db1ba2b4e557207803e4b -->
<g id="edge33" class="edge">
<title>dir_0908837483934fe24781ea7898fec311&#45;&gt;dir_64078e4dd55db1ba2b4e557207803e4b</title>
<path fill="none" stroke="black" d="M369.85,-292.16C346.15,-280.95 311.54,-264.58 285.42,-252.23"/>
<polygon fill="black" stroke="black" points="286.76,-248.99 276.22,-247.88 283.77,-255.32 286.76,-248.99"/>
<g id="a_edge33&#45;headlabel"><a xlink:href="dir_000047_000044.html" target="_top" xlink:title="7">
<text text-anchor="middle" x="291.22" y="-245.46" font-family="FreeSans" font-size="10.00">7</text>
</a>
</g>
</g>
<!-- dir_0908837483934fe24781ea7898fec311&#45;&gt;dir_758df28fbdbb54fb46d6d3d6484a4984 -->
<g id="edge32" class="edge">
<title>dir_0908837483934fe24781ea7898fec311&#45;&gt;dir_758df28fbdbb54fb46d6d3d6484a4984</title>
<path fill="none" stroke="black" d="M398.35,-287.88C401.05,-253.69 407.22,-174.54 412,-108 413.49,-87.28 415.06,-63.83 416.23,-46.21"/>
<polygon fill="black" stroke="black" points="419.73,-46.27 416.89,-36.06 412.75,-45.81 419.73,-46.27"/>
<g id="a_edge32&#45;headlabel"><a xlink:href="dir_000047_000144.html" target="_top" xlink:title="18">
<text text-anchor="middle" x="422.33" y="-47.55" font-family="FreeSans" font-size="10.00">18</text>
</a>
</g>
</g>
<!-- dir_0908837483934fe24781ea7898fec311&#45;&gt;dir_85c02f264b7a99962a0503cb6605bebc -->
<g id="edge34" class="edge">
<title>dir_0908837483934fe24781ea7898fec311&#45;&gt;dir_85c02f264b7a99962a0503cb6605bebc</title>
<path fill="none" stroke="black" d="M424.05,-294.82C456.28,-282.69 510.29,-262.36 546.28,-248.82"/>
<polygon fill="black" stroke="black" points="547.8,-251.99 555.92,-245.19 545.33,-245.44 547.8,-251.99"/>
<g id="a_edge34&#45;headlabel"><a xlink:href="dir_000047_000037.html" target="_top" xlink:title="2">
<text text-anchor="middle" x="545.43" y="-253.41" font-family="FreeSans" font-size="10.00">2</text>
</a>
</g>
</g>
<!-- dir_0908837483934fe24781ea7898fec311&#45;&gt;dir_cb2d4e92f47691559fc9d122a5e37fac -->
<g id="edge29" class="edge">
<title>dir_0908837483934fe24781ea7898fec311&#45;&gt;dir_cb2d4e92f47691559fc9d122a5e37fac</title>
<path fill="none" stroke="black" d="M369.94,-293.58C353.09,-284.88 332.82,-271.12 323,-252 301.1,-209.38 308.53,-151.63 315.83,-118.14"/>
<polygon fill="black" stroke="black" points="319.3,-118.7 318.16,-108.17 312.48,-117.11 319.3,-118.7"/>
<g id="a_edge29&#45;headlabel"><a xlink:href="dir_000047_000014.html" target="_top" xlink:title="19">
<text text-anchor="middle" x="321.24" y="-120.35" font-family="FreeSans" font-size="10.00">19</text>
</a>
</g>
</g>
<!-- dir_0908837483934fe24781ea7898fec311&#45;&gt;dir_db8d68003073a61b7114dbc4f792cfed -->
<g id="edge31" class="edge">
<title>dir_0908837483934fe24781ea7898fec311&#45;&gt;dir_db8d68003073a61b7114dbc4f792cfed</title>
<path fill="none" stroke="black" d="M424.26,-288.3C438.02,-278.89 454.24,-266.19 466,-252 481.54,-233.24 493.6,-208.22 501.3,-189.48"/>
<polygon fill="black" stroke="black" points="504.6,-190.65 505.02,-180.06 498.09,-188.07 504.6,-190.65"/>
<g id="a_edge31&#45;headlabel"><a xlink:href="dir_000047_000024.html" target="_top" xlink:title="20">
<text text-anchor="middle" x="505.92" y="-192.53" font-family="FreeSans" font-size="10.00">20</text>
</a>
</g>
</g>
<!-- dir_0908837483934fe24781ea7898fec311&#45;&gt;dir_f79eaa419c9665ed0522066c5c6851c4 -->
<g id="edge30" class="edge">
<title>dir_0908837483934fe24781ea7898fec311&#45;&gt;dir_f79eaa419c9665ed0522066c5c6851c4</title>
<path fill="none" stroke="black" d="M387.61,-287.7C383.24,-279.64 377.94,-269.89 373.1,-260.98"/>
<polygon fill="black" stroke="black" points="376.13,-259.22 368.29,-252.1 369.98,-262.56 376.13,-259.22"/>
<g id="a_edge30&#45;headlabel"><a xlink:href="dir_000047_000054.html" target="_top" xlink:title="13">
<text text-anchor="middle" x="380.34" y="-258.53" font-family="FreeSans" font-size="10.00">13</text>
</a>
</g>
</g>
<!-- dir_278308b947a9d3d19de751244af66d4b&#45;&gt;dir_0908837483934fe24781ea7898fec311 -->
<g id="edge25" class="edge">
<title>dir_278308b947a9d3d19de751244af66d4b&#45;&gt;dir_0908837483934fe24781ea7898fec311</title>
<path fill="none" stroke="black" d="M189.42,-368.83C231.6,-356.27 312.51,-332.17 359.9,-318.05"/>
<polygon fill="black" stroke="black" points="361.17,-321.32 369.76,-315.11 359.17,-314.62 361.17,-321.32"/>
<g id="a_edge25&#45;headlabel"><a xlink:href="dir_000071_000047.html" target="_top" xlink:title="22">
<text text-anchor="middle" x="358.54" y="-322.57" font-family="FreeSans" font-size="10.00">22</text>
</a>
</g>
</g>
<!-- dir_278308b947a9d3d19de751244af66d4b&#45;&gt;dir_64078e4dd55db1ba2b4e557207803e4b -->
<g id="edge23" class="edge">
<title>dir_278308b947a9d3d19de751244af66d4b&#45;&gt;dir_64078e4dd55db1ba2b4e557207803e4b</title>
<path fill="none" stroke="black" d="M171.69,-359.77C181.94,-341.72 198.69,-312.62 214,-288 219.62,-278.96 225.97,-269.21 231.71,-260.56"/>
<polygon fill="black" stroke="black" points="234.77,-262.29 237.41,-252.03 228.95,-258.4 234.77,-262.29"/>
<g id="a_edge23&#45;headlabel"><a xlink:href="dir_000071_000044.html" target="_top" xlink:title="9">
<text text-anchor="middle" x="235.13" y="-264.36" font-family="FreeSans" font-size="10.00">9</text>
</a>
</g>
</g>
<!-- dir_278308b947a9d3d19de751244af66d4b&#45;&gt;dir_758df28fbdbb54fb46d6d3d6484a4984 -->
<g id="edge22" class="edge">
<title>dir_278308b947a9d3d19de751244af66d4b&#45;&gt;dir_758df28fbdbb54fb46d6d3d6484a4984</title>
<path fill="none" stroke="black" d="M142.91,-359.77C117.58,-334.91 76,-286.3 76,-235 76,-235 76,-235 76,-161 76,-95.53 292.5,-44.35 380.99,-26.16"/>
<polygon fill="black" stroke="black" points="381.77,-29.58 390.88,-24.16 380.38,-22.72 381.77,-29.58"/>
<g id="a_edge22&#45;headlabel"><a xlink:href="dir_000071_000144.html" target="_top" xlink:title="8">
<text text-anchor="middle" x="378.81" y="-30.57" font-family="FreeSans" font-size="10.00">8</text>
</a>
</g>
</g>
<!-- dir_278308b947a9d3d19de751244af66d4b&#45;&gt;dir_cb2d4e92f47691559fc9d122a5e37fac -->
<g id="edge26" class="edge">
<title>dir_278308b947a9d3d19de751244af66d4b&#45;&gt;dir_cb2d4e92f47691559fc9d122a5e37fac</title>
<path fill="none" stroke="black" d="M159.82,-359.94C156.72,-328.74 154.27,-261.53 183,-216 209.94,-173.3 255.55,-136.5 287.36,-114.1"/>
<polygon fill="black" stroke="black" points="289.71,-116.74 295.94,-108.17 285.73,-110.98 289.71,-116.74"/>
<g id="a_edge26&#45;headlabel"><a xlink:href="dir_000071_000014.html" target="_top" xlink:title="5">
<text text-anchor="middle" x="288.36" y="-118.62" font-family="FreeSans" font-size="10.00">5</text>
</a>
</g>
</g>
<!-- dir_278308b947a9d3d19de751244af66d4b&#45;&gt;dir_db8d68003073a61b7114dbc4f792cfed -->
<g id="edge24" class="edge">
<title>dir_278308b947a9d3d19de751244af66d4b&#45;&gt;dir_db8d68003073a61b7114dbc4f792cfed</title>
<path fill="none" stroke="black" d="M161.99,-359.83C162.98,-326.6 170.19,-253.46 213,-216 251.27,-182.51 402.04,-169.36 473.3,-164.94"/>
<polygon fill="black" stroke="black" points="473.84,-168.42 483.62,-164.33 473.43,-161.43 473.84,-168.42"/>
<g id="a_edge24&#45;headlabel"><a xlink:href="dir_000071_000024.html" target="_top" xlink:title="28">
<text text-anchor="middle" x="470.42" y="-168.97" font-family="FreeSans" font-size="10.00">28</text>
</a>
</g>
</g>
<!-- dir_64078e4dd55db1ba2b4e557207803e4b&#45;&gt;dir_758df28fbdbb54fb46d6d3d6484a4984 -->
<g id="edge11" class="edge">
<title>dir_64078e4dd55db1ba2b4e557207803e4b&#45;&gt;dir_758df28fbdbb54fb46d6d3d6484a4984</title>
<path fill="none" stroke="black" d="M248.15,-215.65C247.54,-183.37 250.82,-113.61 287,-72 310.97,-44.42 351.39,-31 381.01,-24.59"/>
<polygon fill="black" stroke="black" points="381.86,-27.99 390.99,-22.6 380.5,-21.12 381.86,-27.99"/>
<g id="a_edge11&#45;headlabel"><a xlink:href="dir_000044_000144.html" target="_top" xlink:title="1">
<text text-anchor="middle" x="378.89" y="-28.97" font-family="FreeSans" font-size="10.00">1</text>
</a>
</g>
</g>
<!-- dir_64078e4dd55db1ba2b4e557207803e4b&#45;&gt;dir_cb2d4e92f47691559fc9d122a5e37fac -->
<g id="edge12" class="edge">
<title>dir_64078e4dd55db1ba2b4e557207803e4b&#45;&gt;dir_cb2d4e92f47691559fc9d122a5e37fac</title>
<path fill="none" stroke="black" d="M256.09,-215.96C263.82,-197.82 276.84,-168.41 290,-144 294.83,-135.03 300.57,-125.5 305.89,-117.03"/>
<polygon fill="black" stroke="black" points="309.01,-118.65 311.44,-108.34 303.11,-114.89 309.01,-118.65"/>
<g id="a_edge12&#45;headlabel"><a xlink:href="dir_000044_000014.html" target="_top" xlink:title="76">
<text text-anchor="middle" x="309.47" y="-120.71" font-family="FreeSans" font-size="10.00">76</text>
</a>
</g>
</g>
<!-- dir_85c02f264b7a99962a0503cb6605bebc&#45;&gt;dir_758df28fbdbb54fb46d6d3d6484a4984 -->
<g id="edge28" class="edge">
<title>dir_85c02f264b7a99962a0503cb6605bebc&#45;&gt;dir_758df28fbdbb54fb46d6d3d6484a4984</title>
<path fill="none" stroke="black" d="M577.49,-215.66C571.3,-197.27 560.36,-167.66 547,-144 527.34,-109.17 521.68,-99.88 493,-72 481.18,-60.51 466.68,-49.66 453.59,-40.81"/>
<polygon fill="black" stroke="black" points="455.51,-37.88 445.23,-35.29 451.65,-43.72 455.51,-37.88"/>
<g id="a_edge28&#45;headlabel"><a xlink:href="dir_000037_000144.html" target="_top" xlink:title="3">
<text text-anchor="middle" x="460.07" y="-34.99" font-family="FreeSans" font-size="10.00">3</text>
</a>
</g>
</g>
<!-- dir_85c02f264b7a99962a0503cb6605bebc&#45;&gt;dir_db8d68003073a61b7114dbc4f792cfed -->
<g id="edge27" class="edge">
<title>dir_85c02f264b7a99962a0503cb6605bebc&#45;&gt;dir_db8d68003073a61b7114dbc4f792cfed</title>
<path fill="none" stroke="black" d="M565.2,-215.7C556.4,-207.14 545.62,-196.66 536,-187.3"/>
<polygon fill="black" stroke="black" points="538.2,-184.57 528.59,-180.1 533.32,-189.58 538.2,-184.57"/>
<g id="a_edge27&#45;headlabel"><a xlink:href="dir_000037_000024.html" target="_top" xlink:title="1">
<text text-anchor="middle" x="542.76" y="-182.54" font-family="FreeSans" font-size="10.00">1</text>
</a>
</g>
</g>
<!-- dir_86b85e15943ea3cbc40c546f382f4970&#45;&gt;dir_0908837483934fe24781ea7898fec311 -->
<g id="edge15" class="edge">
<title>dir_86b85e15943ea3cbc40c546f382f4970&#45;&gt;dir_0908837483934fe24781ea7898fec311</title>
<path fill="none" stroke="black" d="M474.05,-359.88C460.96,-350.89 444.74,-339.76 430.56,-330.03"/>
<polygon fill="black" stroke="black" points="432.27,-326.96 422.05,-324.19 428.31,-332.73 432.27,-326.96"/>
<g id="a_edge15&#45;headlabel"><a xlink:href="dir_000027_000047.html" target="_top" xlink:title="63">
<text text-anchor="middle" x="436.84" y="-324.16" font-family="FreeSans" font-size="10.00">63</text>
</a>
</g>
</g>
<!-- dir_86b85e15943ea3cbc40c546f382f4970&#45;&gt;dir_64078e4dd55db1ba2b4e557207803e4b -->
<g id="edge13" class="edge">
<title>dir_86b85e15943ea3cbc40c546f382f4970&#45;&gt;dir_64078e4dd55db1ba2b4e557207803e4b</title>
<path fill="none" stroke="black" d="M471.86,-367.68C437.5,-355.7 380.44,-335.11 361,-324 328.93,-305.67 296.32,-278.6 274.62,-259.13"/>
<polygon fill="black" stroke="black" points="276.89,-256.47 267.14,-252.33 272.18,-261.65 276.89,-256.47"/>
<g id="a_edge13&#45;headlabel"><a xlink:href="dir_000027_000044.html" target="_top" xlink:title="5">
<text text-anchor="middle" x="281.46" y="-254.29" font-family="FreeSans" font-size="10.00">5</text>
</a>
</g>
</g>
<!-- dir_86b85e15943ea3cbc40c546f382f4970&#45;&gt;dir_758df28fbdbb54fb46d6d3d6484a4984 -->
<g id="edge16" class="edge">
<title>dir_86b85e15943ea3cbc40c546f382f4970&#45;&gt;dir_758df28fbdbb54fb46d6d3d6484a4984</title>
<path fill="none" stroke="black" d="M526.1,-369.56C576.59,-353.86 680,-312.28 680,-235 680,-235 680,-235 680,-161 680,-59.91 527.37,-30.41 455.1,-22.11"/>
<polygon fill="black" stroke="black" points="455.37,-18.62 445.05,-21.03 454.62,-25.58 455.37,-18.62"/>
<g id="a_edge16&#45;headlabel"><a xlink:href="dir_000027_000144.html" target="_top" xlink:title="29">
<text text-anchor="middle" x="459.24" y="-13.68" font-family="FreeSans" font-size="10.00">29</text>
</a>
</g>
</g>
<!-- dir_86b85e15943ea3cbc40c546f382f4970&#45;&gt;dir_85c02f264b7a99962a0503cb6605bebc -->
<g id="edge19" class="edge">
<title>dir_86b85e15943ea3cbc40c546f382f4970&#45;&gt;dir_85c02f264b7a99962a0503cb6605bebc</title>
<path fill="none" stroke="black" d="M514.9,-359.69C523.57,-349.71 534.11,-336.68 542,-324 554.44,-304.01 565.41,-279.63 572.86,-261.44"/>
<polygon fill="black" stroke="black" points="576.16,-262.63 576.63,-252.04 569.66,-260.02 576.16,-262.63"/>
<g id="a_edge19&#45;headlabel"><a xlink:href="dir_000027_000037.html" target="_top" xlink:title="3">
<text text-anchor="middle" x="577.46" y="-264.52" font-family="FreeSans" font-size="10.00">3</text>
</a>
</g>
</g>
<!-- dir_86b85e15943ea3cbc40c546f382f4970&#45;&gt;dir_cb2d4e92f47691559fc9d122a5e37fac -->
<g id="edge14" class="edge">
<title>dir_86b85e15943ea3cbc40c546f382f4970&#45;&gt;dir_cb2d4e92f47691559fc9d122a5e37fac</title>
<path fill="none" stroke="black" d="M492.87,-359.77C486.07,-341.47 474.3,-311.94 461,-288 424.75,-222.79 371.88,-152.64 343.24,-116.21"/>
<polygon fill="black" stroke="black" points="345.79,-113.79 336.85,-108.12 340.3,-118.14 345.79,-113.79"/>
<g id="a_edge14&#45;headlabel"><a xlink:href="dir_000027_000014.html" target="_top" xlink:title="21">
<text text-anchor="middle" x="350.25" y="-112.35" font-family="FreeSans" font-size="10.00">21</text>
</a>
</g>
</g>
<!-- dir_86b85e15943ea3cbc40c546f382f4970&#45;&gt;dir_db8d68003073a61b7114dbc4f792cfed -->
<g id="edge17" class="edge">
<title>dir_86b85e15943ea3cbc40c546f382f4970&#45;&gt;dir_db8d68003073a61b7114dbc4f792cfed</title>
<path fill="none" stroke="black" d="M500.84,-359.83C501.9,-349.47 503.17,-335.99 504,-324 507.22,-277.31 509.22,-222.9 510.22,-190.79"/>
<polygon fill="black" stroke="black" points="513.73,-190.51 510.53,-180.41 506.73,-190.3 513.73,-190.51"/>
<g id="a_edge17&#45;headlabel"><a xlink:href="dir_000027_000024.html" target="_top" xlink:title="25">
<text text-anchor="middle" x="516.46" y="-191.69" font-family="FreeSans" font-size="10.00">25</text>
</a>
</g>
</g>
<!-- dir_86b85e15943ea3cbc40c546f382f4970&#45;&gt;dir_f79eaa419c9665ed0522066c5c6851c4 -->
<g id="edge18" class="edge">
<title>dir_86b85e15943ea3cbc40c546f382f4970&#45;&gt;dir_f79eaa419c9665ed0522066c5c6851c4</title>
<path fill="none" stroke="black" d="M488.49,-359.69C476.51,-340.8 455.63,-310.26 433,-288 421.56,-276.75 407.55,-266.08 394.81,-257.31"/>
<polygon fill="black" stroke="black" points="396.49,-254.22 386.24,-251.55 392.59,-260.03 396.49,-254.22"/>
<g id="a_edge18&#45;headlabel"><a xlink:href="dir_000027_000054.html" target="_top" xlink:title="11">
<text text-anchor="middle" x="401.06" y="-251.37" font-family="FreeSans" font-size="10.00">11</text>
</a>
</g>
</g>
<!-- dir_cb2d4e92f47691559fc9d122a5e37fac&#45;&gt;dir_758df28fbdbb54fb46d6d3d6484a4984 -->
<g id="edge35" class="edge">
<title>dir_cb2d4e92f47691559fc9d122a5e37fac&#45;&gt;dir_758df28fbdbb54fb46d6d3d6484a4984</title>
<path fill="none" stroke="black" d="M346.48,-71.7C358.56,-62.8 373.45,-51.82 386.52,-42.2"/>
<polygon fill="black" stroke="black" points="388.81,-44.85 394.79,-36.1 384.66,-39.22 388.81,-44.85"/>
<g id="a_edge35&#45;headlabel"><a xlink:href="dir_000014_000144.html" target="_top" xlink:title="3">
<text text-anchor="middle" x="387.6" y="-46.77" font-family="FreeSans" font-size="10.00">3</text>
</a>
</g>
</g>
<!-- dir_db8d68003073a61b7114dbc4f792cfed&#45;&gt;dir_758df28fbdbb54fb46d6d3d6484a4984 -->
<g id="edge39" class="edge">
<title>dir_db8d68003073a61b7114dbc4f792cfed&#45;&gt;dir_758df28fbdbb54fb46d6d3d6484a4984</title>
<path fill="none" stroke="black" d="M505.06,-143.68C498.21,-125.03 485.84,-94.97 470,-72 462.92,-61.74 453.78,-51.67 445.13,-43.11"/>
<polygon fill="black" stroke="black" points="447.37,-40.41 437.73,-36.01 442.52,-45.46 447.37,-40.41"/>
<g id="a_edge39&#45;headlabel"><a xlink:href="dir_000024_000144.html" target="_top" xlink:title="1">
<text text-anchor="middle" x="451.93" y="-38.35" font-family="FreeSans" font-size="10.00">1</text>
</a>
</g>
</g>
<!-- dir_db8d68003073a61b7114dbc4f792cfed&#45;&gt;dir_cb2d4e92f47691559fc9d122a5e37fac -->
<g id="edge38" class="edge">
<title>dir_db8d68003073a61b7114dbc4f792cfed&#45;&gt;dir_cb2d4e92f47691559fc9d122a5e37fac</title>
<path fill="none" stroke="black" d="M483.66,-150.82C450.99,-138.66 396.18,-118.25 359.8,-104.7"/>
<polygon fill="black" stroke="black" points="360.66,-101.29 350.06,-101.08 358.21,-107.85 360.66,-101.29"/>
<g id="a_edge38&#45;headlabel"><a xlink:href="dir_000024_000014.html" target="_top" xlink:title="117">
<text text-anchor="middle" x="365.02" y="-97.38" font-family="FreeSans" font-size="10.00">117</text>
</a>
</g>
</g>
<!-- dir_f79eaa419c9665ed0522066c5c6851c4&#45;&gt;dir_758df28fbdbb54fb46d6d3d6484a4984 -->
<g id="edge21" class="edge">
<title>dir_f79eaa419c9665ed0522066c5c6851c4&#45;&gt;dir_758df28fbdbb54fb46d6d3d6484a4984</title>
<path fill="none" stroke="black" d="M363.73,-215.85C373.96,-178.75 398.2,-90.81 410.53,-46.1"/>
<polygon fill="black" stroke="black" points="413.97,-46.8 413.25,-36.23 407.22,-44.94 413.97,-46.8"/>
<g id="a_edge21&#45;headlabel"><a xlink:href="dir_000054_000144.html" target="_top" xlink:title="8">
<text text-anchor="middle" x="415.75" y="-48.52" font-family="FreeSans" font-size="10.00">8</text>
</a>
</g>
</g>
<!-- dir_f79eaa419c9665ed0522066c5c6851c4&#45;&gt;dir_cb2d4e92f47691559fc9d122a5e37fac -->
<g id="edge20" class="edge">
<title>dir_f79eaa419c9665ed0522066c5c6851c4&#45;&gt;dir_cb2d4e92f47691559fc9d122a5e37fac</title>
<path fill="none" stroke="black" d="M354.66,-215.87C348.5,-191.56 337.15,-146.82 329.85,-118.01"/>
<polygon fill="black" stroke="black" points="333.21,-117.02 327.36,-108.19 326.42,-118.74 333.21,-117.02"/>
<g id="a_edge20&#45;headlabel"><a xlink:href="dir_000054_000014.html" target="_top" xlink:title="9">
<text text-anchor="middle" x="336.84" y="-117.31" font-family="FreeSans" font-size="10.00">9</text>
</a>
</g>
</g>
</g>
</svg>
