<?xml version="1.0" encoding="UTF-8" standalone="no"?>
<!DOCTYPE svg PUBLIC "-//W3C//DTD SVG 1.1//EN"
 "http://www.w3.org/Graphics/SVG/1.1/DTD/svg11.dtd">
<!-- Generated by graphviz version 2.43.0 (0)
 -->
<!-- Title: src Pages: 1 -->
<svg width="318pt" height="295pt"
 viewBox="0.00 0.00 318.00 295.00" xmlns="http://www.w3.org/2000/svg" xmlns:xlink="http://www.w3.org/1999/xlink">
<g id="graph0" class="graph" transform="scale(1 1) rotate(0) translate(4 291)">
<title>src</title>
<polygon fill="white" stroke="transparent" points="-4,4 -4,-291 314,-291 314,4 -4,4"/>
<g id="clust1" class="cluster">
<title>clusterdir_ffd3462840ed92d3b36f06c2f7a1a3a4</title>
<g id="a_clust1"><a xlink:href="dir_ffd3462840ed92d3b36f06c2f7a1a3a4.html" target="_top" xlink:title="DiFXInterface">
<polygon fill="#ddddee" stroke="black" points="8,-136 8,-279 85,-279 85,-136 8,-136"/>
<text text-anchor="middle" x="46.5" y="-267" font-family="FreeSans" font-size="10.00">DiFXInterface</text>
</a>
</g>
</g>
<!-- dir_f34f84663972769b5eb23cb9a774d90b -->
<g id="node1" class="node">
<title>dir_f34f84663972769b5eb23cb9a774d90b</title>
<g id="a_node1"><a xlink:href="dir_f34f84663972769b5eb23cb9a774d90b.html" target="_top" xlink:title="include">
<polygon fill="none" stroke="black" points="70,-180 16,-180 16,-144 70,-144 70,-180"/>
<text text-anchor="middle" x="43" y="-159.5" font-family="FreeSans" font-size="10.00">include</text>
</a>
</g>
</g>
<!-- dir_150f406a44a04ce55518da03ec553ece -->
<g id="node3" class="node">
<title>dir_150f406a44a04ce55518da03ec553ece</title>
<g id="a_node3"><a xlink:href="dir_150f406a44a04ce55518da03ec553ece.html" target="_top" xlink:title="Utilities">
<polygon fill="white" stroke="red" points="186,-36 132,-36 132,0 186,0 186,-36"/>
<text text-anchor="middle" x="159" y="-15.5" font-family="FreeSans" font-size="10.00">Utilities</text>
</a>
</g>
</g>
<!-- dir_f34f84663972769b5eb23cb9a774d90b&#45;&gt;dir_150f406a44a04ce55518da03ec553ece -->
<g id="edge3" class="edge">
<title>dir_f34f84663972769b5eb23cb9a774d90b&#45;&gt;dir_150f406a44a04ce55518da03ec553ece</title>
<path fill="none" stroke="black" d="M47.94,-143.79C54.07,-124.69 65.94,-93.71 84,-72 94.79,-59.03 109.47,-47.72 122.99,-38.93"/>
<polygon fill="black" stroke="black" points="125.02,-41.78 131.65,-33.51 121.31,-35.84 125.02,-41.78"/>
<g id="a_edge3&#45;headlabel"><a xlink:href="dir_000116_000086.html" target="_top" xlink:title="15">
<text text-anchor="middle" x="123.48" y="-43.59" font-family="FreeSans" font-size="10.00">15</text>
</a>
</g>
</g>
<!-- dir_e14b6f56da0f770cf537fc2113754b6e -->
<g id="node2" class="node">
<title>dir_e14b6f56da0f770cf537fc2113754b6e</title>
<g id="a_node2"><a xlink:href="dir_e14b6f56da0f770cf537fc2113754b6e.html" target="_top" xlink:title="src">
<polygon fill="#eeeeff" stroke="black" points="77,-252 23,-252 23,-216 77,-216 77,-252"/>
<text text-anchor="middle" x="50" y="-231.5" font-family="FreeSans" font-size="10.00">src</text>
</a>
</g>
</g>
<!-- dir_e14b6f56da0f770cf537fc2113754b6e&#45;&gt;dir_f34f84663972769b5eb23cb9a774d90b -->
<g id="edge10" class="edge">
<title>dir_e14b6f56da0f770cf537fc2113754b6e&#45;&gt;dir_f34f84663972769b5eb23cb9a774d90b</title>
<path fill="none" stroke="black" d="M48.27,-215.7C47.5,-207.98 46.57,-198.71 45.71,-190.11"/>
<polygon fill="black" stroke="black" points="49.19,-189.71 44.71,-180.1 42.22,-190.4 49.19,-189.71"/>
<g id="a_edge10&#45;headlabel"><a xlink:href="dir_000115_000116.html" target="_top" xlink:title="8">
<text text-anchor="middle" x="52.37" y="-190.5" font-family="FreeSans" font-size="10.00">8</text>
</a>
</g>
</g>
<!-- dir_e14b6f56da0f770cf537fc2113754b6e&#45;&gt;dir_150f406a44a04ce55518da03ec553ece -->
<g id="edge6" class="edge">
<title>dir_e14b6f56da0f770cf537fc2113754b6e&#45;&gt;dir_150f406a44a04ce55518da03ec553ece</title>
<path fill="none" stroke="black" d="M59.58,-215.91C65.31,-205.57 72.69,-192.09 79,-180 103.6,-132.85 130.89,-77.15 146.39,-45.16"/>
<polygon fill="black" stroke="black" points="149.61,-46.56 150.81,-36.03 143.3,-43.51 149.61,-46.56"/>
<g id="a_edge6&#45;headlabel"><a xlink:href="dir_000115_000086.html" target="_top" xlink:title="3">
<text text-anchor="middle" x="150.6" y="-48.53" font-family="FreeSans" font-size="10.00">3</text>
</a>
</g>
</g>
<!-- dir_2d98c6b8f23a5c53321666bdc86a2d6a -->
<g id="node4" class="node">
<title>dir_2d98c6b8f23a5c53321666bdc86a2d6a</title>
<g id="a_node4"><a xlink:href="dir_2d98c6b8f23a5c53321666bdc86a2d6a.html" target="_top" xlink:title="Vex2JSON">
<polygon fill="white" stroke="red" points="191.5,-180 126.5,-180 126.5,-144 191.5,-144 191.5,-180"/>
<text text-anchor="middle" x="159" y="-159.5" font-family="FreeSans" font-size="10.00">Vex2JSON</text>
</a>
</g>
</g>
<!-- dir_e14b6f56da0f770cf537fc2113754b6e&#45;&gt;dir_2d98c6b8f23a5c53321666bdc86a2d6a -->
<g id="edge7" class="edge">
<title>dir_e14b6f56da0f770cf537fc2113754b6e&#45;&gt;dir_2d98c6b8f23a5c53321666bdc86a2d6a</title>
<path fill="none" stroke="black" d="M76.66,-215.88C90.78,-206.81 108.31,-195.55 123.56,-185.76"/>
<polygon fill="black" stroke="black" points="125.71,-188.54 132.23,-180.19 121.93,-182.65 125.71,-188.54"/>
<g id="a_edge7&#45;headlabel"><a xlink:href="dir_000115_000141.html" target="_top" xlink:title="2">
<text text-anchor="middle" x="124.22" y="-190.37" font-family="FreeSans" font-size="10.00">2</text>
</a>
</g>
</g>
<!-- dir_4546011bd625f1142c4c4ae06dcdb5ba -->
<g id="node5" class="node">
<title>dir_4546011bd625f1142c4c4ae06dcdb5ba</title>
<g id="a_node5"><a xlink:href="dir_4546011bd625f1142c4c4ae06dcdb5ba.html" target="_top" xlink:title="Operators">
<polygon fill="white" stroke="red" points="249.5,-108 190.5,-108 190.5,-72 249.5,-72 249.5,-108"/>
<text text-anchor="middle" x="220" y="-87.5" font-family="FreeSans" font-size="10.00">Operators</text>
</a>
</g>
</g>
<!-- dir_e14b6f56da0f770cf537fc2113754b6e&#45;&gt;dir_4546011bd625f1142c4c4ae06dcdb5ba -->
<g id="edge8" class="edge">
<title>dir_e14b6f56da0f770cf537fc2113754b6e&#45;&gt;dir_4546011bd625f1142c4c4ae06dcdb5ba</title>
<path fill="none" stroke="black" d="M77.02,-231.31C111.11,-227.67 169.15,-216.18 201,-180 215.8,-163.19 220.03,-137.71 220.87,-118.31"/>
<polygon fill="black" stroke="black" points="224.37,-118.31 221.03,-108.26 217.37,-118.2 224.37,-118.31"/>
<g id="a_edge8&#45;headlabel"><a xlink:href="dir_000115_000089.html" target="_top" xlink:title="2">
<text text-anchor="middle" x="227.15" y="-119.45" font-family="FreeSans" font-size="10.00">2</text>
</a>
</g>
</g>
<!-- dir_91ae3e556fa9cad9030b784323206cc7 -->
<g id="node6" class="node">
<title>dir_91ae3e556fa9cad9030b784323206cc7</title>
<g id="a_node6"><a xlink:href="dir_91ae3e556fa9cad9030b784323206cc7.html" target="_top" xlink:title="Calibration">
<polygon fill="white" stroke="red" points="310,-180 248,-180 248,-144 310,-144 310,-180"/>
<text text-anchor="middle" x="279" y="-159.5" font-family="FreeSans" font-size="10.00">Calibration</text>
</a>
</g>
</g>
<!-- dir_e14b6f56da0f770cf537fc2113754b6e&#45;&gt;dir_91ae3e556fa9cad9030b784323206cc7 -->
<g id="edge9" class="edge">
<title>dir_e14b6f56da0f770cf537fc2113754b6e&#45;&gt;dir_91ae3e556fa9cad9030b784323206cc7</title>
<path fill="none" stroke="black" d="M77.02,-225.95C113.08,-216.38 178.79,-198.35 234,-180 235.39,-179.54 236.79,-179.06 238.21,-178.57"/>
<polygon fill="black" stroke="black" points="239.4,-181.87 247.64,-175.21 237.05,-175.27 239.4,-181.87"/>
<g id="a_edge9&#45;headlabel"><a xlink:href="dir_000115_000102.html" target="_top" xlink:title="1">
<text text-anchor="middle" x="236.96" y="-183.25" font-family="FreeSans" font-size="10.00">1</text>
</a>
</g>
</g>
<!-- dir_2d98c6b8f23a5c53321666bdc86a2d6a&#45;&gt;dir_150f406a44a04ce55518da03ec553ece -->
<g id="edge5" class="edge">
<title>dir_2d98c6b8f23a5c53321666bdc86a2d6a&#45;&gt;dir_150f406a44a04ce55518da03ec553ece</title>
<path fill="none" stroke="black" d="M159,-143.87C159,-119.67 159,-75.21 159,-46.39"/>
<polygon fill="black" stroke="black" points="162.5,-46.19 159,-36.19 155.5,-46.19 162.5,-46.19"/>
<g id="a_edge5&#45;headlabel"><a xlink:href="dir_000141_000086.html" target="_top" xlink:title="13">
<text text-anchor="middle" x="165.34" y="-47.28" font-family="FreeSans" font-size="10.00">13</text>
</a>
</g>
</g>
<!-- dir_4546011bd625f1142c4c4ae06dcdb5ba&#45;&gt;dir_150f406a44a04ce55518da03ec553ece -->
<g id="edge4" class="edge">
<title>dir_4546011bd625f1142c4c4ae06dcdb5ba&#45;&gt;dir_150f406a44a04ce55518da03ec553ece</title>
<path fill="none" stroke="black" d="M204.92,-71.7C197.61,-63.3 188.69,-53.07 180.66,-43.86"/>
<polygon fill="black" stroke="black" points="183.11,-41.34 173.91,-36.1 177.84,-45.94 183.11,-41.34"/>
<g id="a_edge4&#45;headlabel"><a xlink:href="dir_000089_000086.html" target="_top" xlink:title="5">
<text text-anchor="middle" x="187.62" y="-39.69" font-family="FreeSans" font-size="10.00">5</text>
</a>
</g>
</g>
<!-- dir_91ae3e556fa9cad9030b784323206cc7&#45;&gt;dir_150f406a44a04ce55518da03ec553ece -->
<g id="edge1" class="edge">
<title>dir_91ae3e556fa9cad9030b784323206cc7&#45;&gt;dir_150f406a44a04ce55518da03ec553ece</title>
<path fill="none" stroke="black" d="M279.25,-143.83C278.67,-124.49 275.05,-93.02 259,-72 243.28,-51.42 217.24,-37.98 195.67,-29.79"/>
<polygon fill="black" stroke="black" points="196.72,-26.44 186.13,-26.38 194.37,-33.04 196.72,-26.44"/>
<g id="a_edge1&#45;headlabel"><a xlink:href="dir_000102_000086.html" target="_top" xlink:title="29">
<text text-anchor="middle" x="201.06" y="-22.48" font-family="FreeSans" font-size="10.00">29</text>
</a>
</g>
</g>
<!-- dir_91ae3e556fa9cad9030b784323206cc7&#45;&gt;dir_4546011bd625f1142c4c4ae06dcdb5ba -->
<g id="edge2" class="edge">
<title>dir_91ae3e556fa9cad9030b784323206cc7&#45;&gt;dir_4546011bd625f1142c4c4ae06dcdb5ba</title>
<path fill="none" stroke="black" d="M264.42,-143.7C257.34,-135.3 248.72,-125.07 240.95,-115.86"/>
<polygon fill="black" stroke="black" points="243.54,-113.49 234.42,-108.1 238.19,-118.01 243.54,-113.49"/>
<g id="a_edge2&#45;headlabel"><a xlink:href="dir_000102_000089.html" target="_top" xlink:title="55">
<text text-anchor="middle" x="248.03" y="-111.91" font-family="FreeSans" font-size="10.00">55</text>
</a>
</g>
</g>
</g>
</svg>
