<?xml version="1.0" encoding="UTF-8" standalone="no"?>
<!DOCTYPE svg PUBLIC "-//W3C//DTD SVG 1.1//EN"
 "http://www.w3.org/Graphics/SVG/1.1/DTD/svg11.dtd">
<!-- Generated by graphviz version 2.43.0 (0)
 -->
<!-- Title: ffplot Pages: 1 -->
<svg width="583pt" height="447pt"
 viewBox="0.00 0.00 583.01 447.00" xmlns="http://www.w3.org/2000/svg" xmlns:xlink="http://www.w3.org/1999/xlink">
<g id="graph0" class="graph" transform="scale(1 1) rotate(0) translate(4 443)">
<title>ffplot</title>
<polygon fill="white" stroke="transparent" points="-4,4 -4,-443 579.01,-443 579.01,4 -4,4"/>
<g id="clust1" class="cluster">
<title>clusterdir_9ef7e4ca5af767b4d78801a8e1d37f3e</title>
<g id="a_clust1"><a xlink:href="dir_9ef7e4ca5af767b4d78801a8e1d37f3e.html" target="_top" xlink:title="fourfit_libs">
<polygon fill="#ddddee" stroke="black" points="89.01,-136 89.01,-431 441.01,-431 441.01,-136 89.01,-136"/>
<text text-anchor="middle" x="265.01" y="-419" font-family="FreeSans" font-size="10.00">fourfit_libs</text>
</a>
</g>
</g>
<g id="clust2" class="cluster">
<title>clusterdir_de95cbaa0f0c0c60f30a64ffd12dfdd2</title>
<g id="a_clust2"><a xlink:href="dir_de95cbaa0f0c0c60f30a64ffd12dfdd2.html" target="_top">
<polygon fill="#eeeeff" stroke="black" points="97.01,-280 97.01,-404 239.01,-404 239.01,-280 97.01,-280"/>
</a>
</g>
</g>
<!-- dir_0908837483934fe24781ea7898fec311 -->
<g id="node1" class="node">
<title>dir_0908837483934fe24781ea7898fec311</title>
<g id="a_node1"><a xlink:href="dir_0908837483934fe24781ea7898fec311.html" target="_top" xlink:title="ffcore">
<polygon fill="white" stroke="red" points="353.01,-252 299.01,-252 299.01,-216 353.01,-216 353.01,-252"/>
<text text-anchor="middle" x="326.01" y="-231.5" font-family="FreeSans" font-size="10.00">ffcore</text>
</a>
</g>
</g>
<!-- dir_85c02f264b7a99962a0503cb6605bebc -->
<g id="node2" class="node">
<title>dir_85c02f264b7a99962a0503cb6605bebc</title>
<g id="a_node2"><a xlink:href="dir_85c02f264b7a99962a0503cb6605bebc.html" target="_top" xlink:title="ffmath">
<polygon fill="white" stroke="red" points="361.01,-180 307.01,-180 307.01,-144 361.01,-144 361.01,-180"/>
<text text-anchor="middle" x="334.01" y="-159.5" font-family="FreeSans" font-size="10.00">ffmath</text>
</a>
</g>
</g>
<!-- dir_0908837483934fe24781ea7898fec311&#45;&gt;dir_85c02f264b7a99962a0503cb6605bebc -->
<g id="edge34" class="edge">
<title>dir_0908837483934fe24781ea7898fec311&#45;&gt;dir_85c02f264b7a99962a0503cb6605bebc</title>
<path fill="none" stroke="black" d="M327.99,-215.7C328.87,-207.98 329.93,-198.71 330.92,-190.11"/>
<polygon fill="black" stroke="black" points="334.4,-190.44 332.06,-180.1 327.45,-189.64 334.4,-190.44"/>
<g id="a_edge34&#45;headlabel"><a xlink:href="dir_000047_000037.html" target="_top" xlink:title="2">
<text text-anchor="middle" x="336.81" y="-191.83" font-family="FreeSans" font-size="10.00">2</text>
</a>
</g>
</g>
<!-- dir_f79eaa419c9665ed0522066c5c6851c4 -->
<g id="node5" class="node">
<title>dir_f79eaa419c9665ed0522066c5c6851c4</title>
<g id="a_node5"><a xlink:href="dir_f79eaa419c9665ed0522066c5c6851c4.html" target="_top" xlink:title="ffcontrol">
<polygon fill="white" stroke="red" points="433.01,-180 379.01,-180 379.01,-144 433.01,-144 433.01,-180"/>
<text text-anchor="middle" x="406.01" y="-159.5" font-family="FreeSans" font-size="10.00">ffcontrol</text>
</a>
</g>
</g>
<!-- dir_0908837483934fe24781ea7898fec311&#45;&gt;dir_f79eaa419c9665ed0522066c5c6851c4 -->
<g id="edge30" class="edge">
<title>dir_0908837483934fe24781ea7898fec311&#45;&gt;dir_f79eaa419c9665ed0522066c5c6851c4</title>
<path fill="none" stroke="black" d="M345.79,-215.7C355.77,-206.97 368.03,-196.24 378.87,-186.75"/>
<polygon fill="black" stroke="black" points="381.25,-189.32 386.47,-180.1 376.64,-184.06 381.25,-189.32"/>
<g id="a_edge30&#45;headlabel"><a xlink:href="dir_000047_000054.html" target="_top" xlink:title="13">
<text text-anchor="middle" x="380.41" y="-191.33" font-family="FreeSans" font-size="10.00">13</text>
</a>
</g>
</g>
<!-- dir_64078e4dd55db1ba2b4e557207803e4b -->
<g id="node9" class="node">
<title>dir_64078e4dd55db1ba2b4e557207803e4b</title>
<g id="a_node9"><a xlink:href="dir_64078e4dd55db1ba2b4e557207803e4b.html" target="_top" xlink:title="vex">
<polygon fill="white" stroke="red" points="81.01,-180 27.01,-180 27.01,-144 81.01,-144 81.01,-180"/>
<text text-anchor="middle" x="54.01" y="-159.5" font-family="FreeSans" font-size="10.00">vex</text>
</a>
</g>
</g>
<!-- dir_0908837483934fe24781ea7898fec311&#45;&gt;dir_64078e4dd55db1ba2b4e557207803e4b -->
<g id="edge33" class="edge">
<title>dir_0908837483934fe24781ea7898fec311&#45;&gt;dir_64078e4dd55db1ba2b4e557207803e4b</title>
<path fill="none" stroke="black" d="M298.91,-229.61C255.4,-223.63 167.42,-209.31 90.94,-182.03"/>
<polygon fill="black" stroke="black" points="91.79,-178.61 81.2,-178.46 89.38,-185.18 91.79,-178.61"/>
<g id="a_edge33&#45;headlabel"><a xlink:href="dir_000047_000044.html" target="_top" xlink:title="7">
<text text-anchor="middle" x="96.14" y="-174.68" font-family="FreeSans" font-size="10.00">7</text>
</a>
</g>
</g>
<!-- dir_758df28fbdbb54fb46d6d3d6484a4984 -->
<g id="node10" class="node">
<title>dir_758df28fbdbb54fb46d6d3d6484a4984</title>
<g id="a_node10"><a xlink:href="dir_758df28fbdbb54fb46d6d3d6484a4984.html" target="_top" xlink:title="msg">
<polygon fill="white" stroke="red" points="361.01,-36 307.01,-36 307.01,0 361.01,0 361.01,-36"/>
<text text-anchor="middle" x="334.01" y="-15.5" font-family="FreeSans" font-size="10.00">msg</text>
</a>
</g>
</g>
<!-- dir_0908837483934fe24781ea7898fec311&#45;&gt;dir_758df28fbdbb54fb46d6d3d6484a4984 -->
<g id="edge32" class="edge">
<title>dir_0908837483934fe24781ea7898fec311&#45;&gt;dir_758df28fbdbb54fb46d6d3d6484a4984</title>
<path fill="none" stroke="black" d="M353.12,-220.14C356.12,-218.73 359.13,-217.33 362.01,-216 397.42,-199.67 420.84,-212.74 442.01,-180 474.14,-130.32 411.23,-72.95 368.65,-41.88"/>
<polygon fill="black" stroke="black" points="370.61,-38.98 360.43,-36.03 366.55,-44.68 370.61,-38.98"/>
<g id="a_edge32&#45;headlabel"><a xlink:href="dir_000047_000144.html" target="_top" xlink:title="18">
<text text-anchor="middle" x="375.18" y="-36.26" font-family="FreeSans" font-size="10.00">18</text>
</a>
</g>
</g>
<!-- dir_db8d68003073a61b7114dbc4f792cfed -->
<g id="node11" class="node">
<title>dir_db8d68003073a61b7114dbc4f792cfed</title>
<g id="a_node11"><a xlink:href="dir_db8d68003073a61b7114dbc4f792cfed.html" target="_top" xlink:title="dfio">
<polygon fill="white" stroke="red" points="543.01,-180 489.01,-180 489.01,-144 543.01,-144 543.01,-180"/>
<text text-anchor="middle" x="516.01" y="-159.5" font-family="FreeSans" font-size="10.00">dfio</text>
</a>
</g>
</g>
<!-- dir_0908837483934fe24781ea7898fec311&#45;&gt;dir_db8d68003073a61b7114dbc4f792cfed -->
<g id="edge31" class="edge">
<title>dir_0908837483934fe24781ea7898fec311&#45;&gt;dir_db8d68003073a61b7114dbc4f792cfed</title>
<path fill="none" stroke="black" d="M353.08,-223.84C383.06,-213.59 432.74,-196.27 475.01,-180 476.41,-179.46 477.83,-178.91 479.25,-178.35"/>
<polygon fill="black" stroke="black" points="480.77,-181.51 488.75,-174.54 478.16,-175.02 480.77,-181.51"/>
<g id="a_edge31&#45;headlabel"><a xlink:href="dir_000047_000024.html" target="_top" xlink:title="20">
<text text-anchor="middle" x="478.49" y="-182.99" font-family="FreeSans" font-size="10.00">20</text>
</a>
</g>
</g>
<!-- dir_cb2d4e92f47691559fc9d122a5e37fac -->
<g id="node12" class="node">
<title>dir_cb2d4e92f47691559fc9d122a5e37fac</title>
<g id="a_node12"><a xlink:href="dir_cb2d4e92f47691559fc9d122a5e37fac.html" target="_top" xlink:title="mk4util">
<polygon fill="white" stroke="red" points="287.01,-108 233.01,-108 233.01,-72 287.01,-72 287.01,-108"/>
<text text-anchor="middle" x="260.01" y="-87.5" font-family="FreeSans" font-size="10.00">mk4util</text>
</a>
</g>
</g>
<!-- dir_0908837483934fe24781ea7898fec311&#45;&gt;dir_cb2d4e92f47691559fc9d122a5e37fac -->
<g id="edge29" class="edge">
<title>dir_0908837483934fe24781ea7898fec311&#45;&gt;dir_cb2d4e92f47691559fc9d122a5e37fac</title>
<path fill="none" stroke="black" d="M316.57,-216C310.96,-205.69 303.84,-192.21 298.01,-180 288.18,-159.37 278.07,-135.53 270.75,-117.72"/>
<polygon fill="black" stroke="black" points="273.9,-116.19 266.89,-108.25 267.42,-118.83 273.9,-116.19"/>
<g id="a_edge29&#45;headlabel"><a xlink:href="dir_000047_000014.html" target="_top" xlink:title="19">
<text text-anchor="middle" x="277.89" y="-115.94" font-family="FreeSans" font-size="10.00">19</text>
</a>
</g>
</g>
<!-- dir_85c02f264b7a99962a0503cb6605bebc&#45;&gt;dir_758df28fbdbb54fb46d6d3d6484a4984 -->
<g id="edge28" class="edge">
<title>dir_85c02f264b7a99962a0503cb6605bebc&#45;&gt;dir_758df28fbdbb54fb46d6d3d6484a4984</title>
<path fill="none" stroke="black" d="M334.01,-143.87C334.01,-119.67 334.01,-75.21 334.01,-46.39"/>
<polygon fill="black" stroke="black" points="337.51,-46.19 334.01,-36.19 330.51,-46.19 337.51,-46.19"/>
<g id="a_edge28&#45;headlabel"><a xlink:href="dir_000037_000144.html" target="_top" xlink:title="3">
<text text-anchor="middle" x="340.35" y="-47.28" font-family="FreeSans" font-size="10.00">3</text>
</a>
</g>
</g>
<!-- dir_85c02f264b7a99962a0503cb6605bebc&#45;&gt;dir_db8d68003073a61b7114dbc4f792cfed -->
<g id="edge27" class="edge">
<title>dir_85c02f264b7a99962a0503cb6605bebc&#45;&gt;dir_db8d68003073a61b7114dbc4f792cfed</title>
<path fill="none" stroke="black" d="M351.1,-180.22C358.86,-187.2 368.63,-194.36 379.01,-198 415.5,-210.8 429.21,-209.87 466.01,-198 473.89,-195.46 481.57,-191.17 488.45,-186.42"/>
<polygon fill="black" stroke="black" points="490.79,-189.04 496.7,-180.25 486.6,-183.43 490.79,-189.04"/>
<g id="a_edge27&#45;headlabel"><a xlink:href="dir_000037_000024.html" target="_top" xlink:title="1">
<text text-anchor="middle" x="489.61" y="-190.97" font-family="FreeSans" font-size="10.00">1</text>
</a>
</g>
</g>
<!-- dir_86b85e15943ea3cbc40c546f382f4970 -->
<g id="node3" class="node">
<title>dir_86b85e15943ea3cbc40c546f382f4970</title>
<g id="a_node3"><a xlink:href="dir_86b85e15943ea3cbc40c546f382f4970.html" target="_top" xlink:title="ffsearch">
<polygon fill="white" stroke="red" points="393.01,-324 339.01,-324 339.01,-288 393.01,-288 393.01,-324"/>
<text text-anchor="middle" x="366.01" y="-303.5" font-family="FreeSans" font-size="10.00">ffsearch</text>
</a>
</g>
</g>
<!-- dir_86b85e15943ea3cbc40c546f382f4970&#45;&gt;dir_0908837483934fe24781ea7898fec311 -->
<g id="edge15" class="edge">
<title>dir_86b85e15943ea3cbc40c546f382f4970&#45;&gt;dir_0908837483934fe24781ea7898fec311</title>
<path fill="none" stroke="black" d="M356.13,-287.7C351.53,-279.64 345.95,-269.89 340.86,-260.98"/>
<polygon fill="black" stroke="black" points="343.79,-259.05 335.79,-252.1 337.71,-262.52 343.79,-259.05"/>
<g id="a_edge15&#45;headlabel"><a xlink:href="dir_000027_000047.html" target="_top" xlink:title="63">
<text text-anchor="middle" x="348.04" y="-258.26" font-family="FreeSans" font-size="10.00">63</text>
</a>
</g>
</g>
<!-- dir_86b85e15943ea3cbc40c546f382f4970&#45;&gt;dir_85c02f264b7a99962a0503cb6605bebc -->
<g id="edge19" class="edge">
<title>dir_86b85e15943ea3cbc40c546f382f4970&#45;&gt;dir_85c02f264b7a99962a0503cb6605bebc</title>
<path fill="none" stroke="black" d="M367.43,-287.93C368.44,-269.76 368.63,-240.33 362.01,-216 359.51,-206.81 355.22,-197.41 350.74,-189.13"/>
<polygon fill="black" stroke="black" points="353.7,-187.26 345.68,-180.33 347.63,-190.75 353.7,-187.26"/>
<g id="a_edge19&#45;headlabel"><a xlink:href="dir_000027_000037.html" target="_top" xlink:title="3">
<text text-anchor="middle" x="357.95" y="-186.46" font-family="FreeSans" font-size="10.00">3</text>
</a>
</g>
</g>
<!-- dir_86b85e15943ea3cbc40c546f382f4970&#45;&gt;dir_f79eaa419c9665ed0522066c5c6851c4 -->
<g id="edge18" class="edge">
<title>dir_86b85e15943ea3cbc40c546f382f4970&#45;&gt;dir_f79eaa419c9665ed0522066c5c6851c4</title>
<path fill="none" stroke="black" d="M370.84,-287.87C377.69,-263.56 390.29,-218.82 398.41,-190.01"/>
<polygon fill="black" stroke="black" points="401.83,-190.76 401.17,-180.19 395.09,-188.87 401.83,-190.76"/>
<g id="a_edge18&#45;headlabel"><a xlink:href="dir_000027_000054.html" target="_top" xlink:title="11">
<text text-anchor="middle" x="403.59" y="-192.49" font-family="FreeSans" font-size="10.00">11</text>
</a>
</g>
</g>
<!-- dir_86b85e15943ea3cbc40c546f382f4970&#45;&gt;dir_64078e4dd55db1ba2b4e557207803e4b -->
<g id="edge13" class="edge">
<title>dir_86b85e15943ea3cbc40c546f382f4970&#45;&gt;dir_64078e4dd55db1ba2b4e557207803e4b</title>
<path fill="none" stroke="black" d="M338.95,-292.12C329.85,-288.01 319.58,-283.59 310.01,-280 270.4,-265.13 258.06,-268.31 219.01,-252 159.68,-227.21 145.74,-213.62 89.99,-182.74"/>
<polygon fill="black" stroke="black" points="91.51,-179.59 81.06,-177.85 88.14,-185.72 91.51,-179.59"/>
<g id="a_edge13&#45;headlabel"><a xlink:href="dir_000027_000044.html" target="_top" xlink:title="5">
<text text-anchor="middle" x="96.03" y="-176.33" font-family="FreeSans" font-size="10.00">5</text>
</a>
</g>
</g>
<!-- dir_86b85e15943ea3cbc40c546f382f4970&#45;&gt;dir_758df28fbdbb54fb46d6d3d6484a4984 -->
<g id="edge16" class="edge">
<title>dir_86b85e15943ea3cbc40c546f382f4970&#45;&gt;dir_758df28fbdbb54fb46d6d3d6484a4984</title>
<path fill="none" stroke="black" d="M338.96,-293.02C313.76,-281.39 278.69,-263.8 269.01,-252 226.5,-200.15 234.13,-174.28 224.01,-108 221.6,-92.18 215.5,-85.55 224.01,-72 239.94,-46.65 271.78,-33.13 297.12,-26.12"/>
<polygon fill="black" stroke="black" points="297.99,-29.51 306.82,-23.65 296.27,-22.72 297.99,-29.51"/>
<g id="a_edge16&#45;headlabel"><a xlink:href="dir_000027_000144.html" target="_top" xlink:title="28">
<text text-anchor="middle" x="295.21" y="-30.65" font-family="FreeSans" font-size="10.00">28</text>
</a>
</g>
</g>
<!-- dir_86b85e15943ea3cbc40c546f382f4970&#45;&gt;dir_db8d68003073a61b7114dbc4f792cfed -->
<g id="edge17" class="edge">
<title>dir_86b85e15943ea3cbc40c546f382f4970&#45;&gt;dir_db8d68003073a61b7114dbc4f792cfed</title>
<path fill="none" stroke="black" d="M393.34,-297.49C417.5,-289.63 452.34,-275.15 475.01,-252 491.97,-234.69 502.74,-209.1 508.97,-189.8"/>
<polygon fill="black" stroke="black" points="512.37,-190.67 511.9,-180.08 505.66,-188.65 512.37,-190.67"/>
<g id="a_edge17&#45;headlabel"><a xlink:href="dir_000027_000024.html" target="_top" xlink:title="25">
<text text-anchor="middle" x="514.05" y="-192.43" font-family="FreeSans" font-size="10.00">25</text>
</a>
</g>
</g>
<!-- dir_86b85e15943ea3cbc40c546f382f4970&#45;&gt;dir_cb2d4e92f47691559fc9d122a5e37fac -->
<g id="edge14" class="edge">
<title>dir_86b85e15943ea3cbc40c546f382f4970&#45;&gt;dir_cb2d4e92f47691559fc9d122a5e37fac</title>
<path fill="none" stroke="black" d="M338.86,-292.56C322.27,-283.59 302.01,-269.91 290.01,-252 262.74,-211.29 258.59,-152.42 258.79,-118.3"/>
<polygon fill="black" stroke="black" points="262.3,-118.21 258.99,-108.14 255.3,-118.07 262.3,-118.21"/>
<g id="a_edge14&#45;headlabel"><a xlink:href="dir_000027_000014.html" target="_top" xlink:title="21">
<text text-anchor="middle" x="265.07" y="-119.35" font-family="FreeSans" font-size="10.00">21</text>
</a>
</g>
</g>
<!-- dir_278308b947a9d3d19de751244af66d4b -->
<g id="node4" class="node">
<title>dir_278308b947a9d3d19de751244af66d4b</title>
<g id="a_node4"><a xlink:href="dir_278308b947a9d3d19de751244af66d4b.html" target="_top" xlink:title="ffio">
<polygon fill="white" stroke="red" points="301.01,-324 247.01,-324 247.01,-288 301.01,-288 301.01,-324"/>
<text text-anchor="middle" x="274.01" y="-303.5" font-family="FreeSans" font-size="10.00">ffio</text>
</a>
</g>
</g>
<!-- dir_278308b947a9d3d19de751244af66d4b&#45;&gt;dir_0908837483934fe24781ea7898fec311 -->
<g id="edge25" class="edge">
<title>dir_278308b947a9d3d19de751244af66d4b&#45;&gt;dir_0908837483934fe24781ea7898fec311</title>
<path fill="none" stroke="black" d="M286.87,-287.7C293.04,-279.39 300.55,-269.28 307.34,-260.14"/>
<polygon fill="black" stroke="black" points="310.15,-262.22 313.31,-252.1 304.54,-258.04 310.15,-262.22"/>
<g id="a_edge25&#45;headlabel"><a xlink:href="dir_000071_000047.html" target="_top" xlink:title="22">
<text text-anchor="middle" x="310.29" y="-264.3" font-family="FreeSans" font-size="10.00">22</text>
</a>
</g>
</g>
<!-- dir_278308b947a9d3d19de751244af66d4b&#45;&gt;dir_64078e4dd55db1ba2b4e557207803e4b -->
<g id="edge23" class="edge">
<title>dir_278308b947a9d3d19de751244af66d4b&#45;&gt;dir_64078e4dd55db1ba2b4e557207803e4b</title>
<path fill="none" stroke="black" d="M255.18,-287.84C251.34,-284.93 247.19,-282.15 243.01,-280 201.99,-258.86 182.85,-275.3 143.01,-252 127.93,-243.18 96.96,-210.65 75.84,-187.47"/>
<polygon fill="black" stroke="black" points="78.4,-185.08 69.09,-180.02 73.21,-189.78 78.4,-185.08"/>
<g id="a_edge23&#45;headlabel"><a xlink:href="dir_000071_000044.html" target="_top" xlink:title="9">
<text text-anchor="middle" x="82.91" y="-183.34" font-family="FreeSans" font-size="10.00">9</text>
</a>
</g>
</g>
<!-- dir_278308b947a9d3d19de751244af66d4b&#45;&gt;dir_758df28fbdbb54fb46d6d3d6484a4984 -->
<g id="edge22" class="edge">
<title>dir_278308b947a9d3d19de751244af66d4b&#45;&gt;dir_758df28fbdbb54fb46d6d3d6484a4984</title>
<path fill="none" stroke="black" d="M255.65,-287.82C251.71,-284.84 247.4,-282.04 243.01,-280 183.9,-252.5 157.45,-280.91 99.01,-252 42.65,-224.12 -9.56,-192.51 18.01,-136 67.9,-33.78 224.3,-19.34 296.64,-18.31"/>
<polygon fill="black" stroke="black" points="296.7,-21.81 306.68,-18.25 296.65,-14.81 296.7,-21.81"/>
<g id="a_edge22&#45;headlabel"><a xlink:href="dir_000071_000144.html" target="_top" xlink:title="8">
<text text-anchor="middle" x="293.12" y="-22.17" font-family="FreeSans" font-size="10.00">8</text>
</a>
</g>
</g>
<!-- dir_278308b947a9d3d19de751244af66d4b&#45;&gt;dir_db8d68003073a61b7114dbc4f792cfed -->
<g id="edge24" class="edge">
<title>dir_278308b947a9d3d19de751244af66d4b&#45;&gt;dir_db8d68003073a61b7114dbc4f792cfed</title>
<path fill="none" stroke="black" d="M301.3,-288.99C345.18,-263.24 431.39,-212.65 480.17,-184.03"/>
<polygon fill="black" stroke="black" points="481.97,-187.03 488.82,-178.95 478.43,-181 481.97,-187.03"/>
<g id="a_edge24&#45;headlabel"><a xlink:href="dir_000071_000024.html" target="_top" xlink:title="28">
<text text-anchor="middle" x="480.31" y="-188.8" font-family="FreeSans" font-size="10.00">28</text>
</a>
</g>
</g>
<!-- dir_278308b947a9d3d19de751244af66d4b&#45;&gt;dir_cb2d4e92f47691559fc9d122a5e37fac -->
<g id="edge26" class="edge">
<title>dir_278308b947a9d3d19de751244af66d4b&#45;&gt;dir_cb2d4e92f47691559fc9d122a5e37fac</title>
<path fill="none" stroke="black" d="M265.25,-287.77C253.79,-264.17 234.31,-220.15 227.01,-180 223.52,-160.76 220.93,-154.59 227.01,-136 229.24,-129.2 232.93,-122.57 237.06,-116.59"/>
<polygon fill="black" stroke="black" points="240.06,-118.42 243.29,-108.33 234.47,-114.2 240.06,-118.42"/>
<g id="a_edge26&#45;headlabel"><a xlink:href="dir_000071_000014.html" target="_top" xlink:title="5">
<text text-anchor="middle" x="240.16" y="-120.5" font-family="FreeSans" font-size="10.00">5</text>
</a>
</g>
</g>
<!-- dir_f79eaa419c9665ed0522066c5c6851c4&#45;&gt;dir_758df28fbdbb54fb46d6d3d6484a4984 -->
<g id="edge21" class="edge">
<title>dir_f79eaa419c9665ed0522066c5c6851c4&#45;&gt;dir_758df28fbdbb54fb46d6d3d6484a4984</title>
<path fill="none" stroke="black" d="M397.33,-143.87C384.9,-119.35 361.92,-74.03 347.33,-45.26"/>
<polygon fill="black" stroke="black" points="350.37,-43.53 342.73,-36.19 344.13,-46.69 350.37,-43.53"/>
<g id="a_edge21&#45;headlabel"><a xlink:href="dir_000054_000144.html" target="_top" xlink:title="7">
<text text-anchor="middle" x="354.53" y="-42.95" font-family="FreeSans" font-size="10.00">7</text>
</a>
</g>
</g>
<!-- dir_f79eaa419c9665ed0522066c5c6851c4&#45;&gt;dir_cb2d4e92f47691559fc9d122a5e37fac -->
<g id="edge20" class="edge">
<title>dir_f79eaa419c9665ed0522066c5c6851c4&#45;&gt;dir_cb2d4e92f47691559fc9d122a5e37fac</title>
<path fill="none" stroke="black" d="M382.86,-143.83C378.68,-141.05 374.29,-138.32 370.01,-136 346.59,-123.27 318.79,-111.93 296.99,-103.82"/>
<polygon fill="black" stroke="black" points="298.04,-100.47 287.44,-100.32 295.63,-107.04 298.04,-100.47"/>
<g id="a_edge20&#45;headlabel"><a xlink:href="dir_000054_000014.html" target="_top" xlink:title="9">
<text text-anchor="middle" x="302.39" y="-96.54" font-family="FreeSans" font-size="10.00">9</text>
</a>
</g>
</g>
<!-- dir_de95cbaa0f0c0c60f30a64ffd12dfdd2 -->
<g id="node6" class="node">
<title>dir_de95cbaa0f0c0c60f30a64ffd12dfdd2</title>
<text text-anchor="middle" x="204.01" y="-375.5" font-family="FreeSans" font-size="10.00">ffplot</text>
</g>
<!-- dir_0057024deded2ff24003f61a80827c99 -->
<g id="node7" class="node">
<title>dir_0057024deded2ff24003f61a80827c99</title>
<g id="a_node7"><a xlink:href="dir_0057024deded2ff24003f61a80827c99.html" target="_top" xlink:title="include">
<polygon fill="white" stroke="black" points="159.01,-324 105.01,-324 105.01,-288 159.01,-288 159.01,-324"/>
<text text-anchor="middle" x="132.01" y="-303.5" font-family="FreeSans" font-size="10.00">include</text>
</a>
</g>
</g>
<!-- dir_0057024deded2ff24003f61a80827c99&#45;&gt;dir_0908837483934fe24781ea7898fec311 -->
<g id="edge36" class="edge">
<title>dir_0057024deded2ff24003f61a80827c99&#45;&gt;dir_0908837483934fe24781ea7898fec311</title>
<path fill="none" stroke="black" d="M150.85,-287.83C154.68,-284.92 158.83,-282.15 163.01,-280 203.49,-259.23 254.69,-247.12 288.8,-240.79"/>
<polygon fill="black" stroke="black" points="289.58,-244.21 298.81,-239.01 288.35,-237.32 289.58,-244.21"/>
<g id="a_edge36&#45;headlabel"><a xlink:href="dir_000088_000047.html" target="_top" xlink:title="2">
<text text-anchor="middle" x="286.54" y="-245.13" font-family="FreeSans" font-size="10.00">2</text>
</a>
</g>
</g>
<!-- dir_0057024deded2ff24003f61a80827c99&#45;&gt;dir_64078e4dd55db1ba2b4e557207803e4b -->
<g id="edge37" class="edge">
<title>dir_0057024deded2ff24003f61a80827c99&#45;&gt;dir_64078e4dd55db1ba2b4e557207803e4b</title>
<path fill="none" stroke="black" d="M118.87,-287.85C111.41,-277.71 102.16,-264.46 95.01,-252 83.38,-231.7 72.41,-207.53 64.75,-189.5"/>
<polygon fill="black" stroke="black" points="67.94,-188.05 60.86,-180.18 61.48,-190.75 67.94,-188.05"/>
<g id="a_edge37&#45;headlabel"><a xlink:href="dir_000088_000044.html" target="_top" xlink:title="1">
<text text-anchor="middle" x="71.95" y="-187.77" font-family="FreeSans" font-size="10.00">1</text>
</a>
</g>
</g>
<!-- dir_b4e48db5bc7dd3cb9cf33b7d54662e39 -->
<g id="node8" class="node">
<title>dir_b4e48db5bc7dd3cb9cf33b7d54662e39</title>
<g id="a_node8"><a xlink:href="dir_b4e48db5bc7dd3cb9cf33b7d54662e39.html" target="_top" xlink:title="src">
<polygon fill="white" stroke="black" points="159.01,-396 105.01,-396 105.01,-360 159.01,-360 159.01,-396"/>
<text text-anchor="middle" x="132.01" y="-375.5" font-family="FreeSans" font-size="10.00">src</text>
</a>
</g>
</g>
<!-- dir_b4e48db5bc7dd3cb9cf33b7d54662e39&#45;&gt;dir_0908837483934fe24781ea7898fec311 -->
<g id="edge2" class="edge">
<title>dir_b4e48db5bc7dd3cb9cf33b7d54662e39&#45;&gt;dir_0908837483934fe24781ea7898fec311</title>
<path fill="none" stroke="black" d="M159.3,-363.45C162.21,-362.2 165.15,-361.03 168.01,-360 229.29,-338 265.63,-371.63 310.01,-324 325.28,-307.62 328.5,-281.88 328.36,-262.28"/>
<polygon fill="black" stroke="black" points="331.85,-261.99 327.99,-252.13 324.86,-262.25 331.85,-261.99"/>
<g id="a_edge2&#45;headlabel"><a xlink:href="dir_000067_000047.html" target="_top" xlink:title="13">
<text text-anchor="middle" x="334.82" y="-262.98" font-family="FreeSans" font-size="10.00">13</text>
</a>
</g>
</g>
<!-- dir_b4e48db5bc7dd3cb9cf33b7d54662e39&#45;&gt;dir_85c02f264b7a99962a0503cb6605bebc -->
<g id="edge6" class="edge">
<title>dir_b4e48db5bc7dd3cb9cf33b7d54662e39&#45;&gt;dir_85c02f264b7a99962a0503cb6605bebc</title>
<path fill="none" stroke="black" d="M159.21,-363.16C162.13,-361.98 165.11,-360.89 168.01,-360 218.32,-344.61 367.76,-363.93 402.01,-324 437.04,-283.17 390.94,-221.68 359.28,-187.72"/>
<polygon fill="black" stroke="black" points="361.44,-184.92 351.99,-180.11 356.38,-189.76 361.44,-184.92"/>
<g id="a_edge6&#45;headlabel"><a xlink:href="dir_000067_000037.html" target="_top" xlink:title="2">
<text text-anchor="middle" x="365.98" y="-183.05" font-family="FreeSans" font-size="10.00">2</text>
</a>
</g>
</g>
<!-- dir_b4e48db5bc7dd3cb9cf33b7d54662e39&#45;&gt;dir_86b85e15943ea3cbc40c546f382f4970 -->
<g id="edge7" class="edge">
<title>dir_b4e48db5bc7dd3cb9cf33b7d54662e39&#45;&gt;dir_86b85e15943ea3cbc40c546f382f4970</title>
<path fill="none" stroke="black" d="M159.28,-363.38C162.19,-362.15 165.14,-360.99 168.01,-360 235.66,-336.58 256.82,-345.79 325.01,-324 326.44,-323.55 327.88,-323.06 329.33,-322.56"/>
<polygon fill="black" stroke="black" points="330.76,-325.76 338.9,-318.99 328.31,-319.2 330.76,-325.76"/>
<g id="a_edge7&#45;headlabel"><a xlink:href="dir_000067_000027.html" target="_top" xlink:title="1">
<text text-anchor="middle" x="328.38" y="-327.18" font-family="FreeSans" font-size="10.00">1</text>
</a>
</g>
</g>
<!-- dir_b4e48db5bc7dd3cb9cf33b7d54662e39&#45;&gt;dir_278308b947a9d3d19de751244af66d4b -->
<g id="edge3" class="edge">
<title>dir_b4e48db5bc7dd3cb9cf33b7d54662e39&#45;&gt;dir_278308b947a9d3d19de751244af66d4b</title>
<path fill="none" stroke="black" d="M159.25,-364.1C184.14,-352.28 219.47,-335.49 237.84,-326.49"/>
<polygon fill="black" stroke="black" points="239.62,-329.52 247.01,-321.92 236.5,-323.25 239.62,-329.52"/>
<g id="a_edge3&#45;headlabel"><a xlink:href="dir_000067_000071.html" target="_top" xlink:title="1">
<text text-anchor="middle" x="237.67" y="-331.16" font-family="FreeSans" font-size="10.00">1</text>
</a>
</g>
</g>
<!-- dir_b4e48db5bc7dd3cb9cf33b7d54662e39&#45;&gt;dir_f79eaa419c9665ed0522066c5c6851c4 -->
<g id="edge10" class="edge">
<title>dir_b4e48db5bc7dd3cb9cf33b7d54662e39&#45;&gt;dir_f79eaa419c9665ed0522066c5c6851c4</title>
<path fill="none" stroke="black" d="M159.2,-363.14C162.13,-361.96 165.1,-360.88 168.01,-360 220.69,-344.08 377.04,-365.64 413.01,-324 445.14,-286.81 429.88,-224.85 417.14,-189.63"/>
<polygon fill="black" stroke="black" points="420.32,-188.13 413.49,-180.03 413.77,-190.62 420.32,-188.13"/>
<g id="a_edge10&#45;headlabel"><a xlink:href="dir_000067_000054.html" target="_top" xlink:title="1">
<text text-anchor="middle" x="424.25" y="-187.98" font-family="FreeSans" font-size="10.00">1</text>
</a>
</g>
</g>
<!-- dir_b4e48db5bc7dd3cb9cf33b7d54662e39&#45;&gt;dir_0057024deded2ff24003f61a80827c99 -->
<g id="edge1" class="edge">
<title>dir_b4e48db5bc7dd3cb9cf33b7d54662e39&#45;&gt;dir_0057024deded2ff24003f61a80827c99</title>
<path fill="none" stroke="black" d="M132.01,-359.7C132.01,-351.98 132.01,-342.71 132.01,-334.11"/>
<polygon fill="black" stroke="black" points="135.51,-334.1 132.01,-324.1 128.51,-334.1 135.51,-334.1"/>
<g id="a_edge1&#45;headlabel"><a xlink:href="dir_000067_000088.html" target="_top" xlink:title="5">
<text text-anchor="middle" x="138.35" y="-335.2" font-family="FreeSans" font-size="10.00">5</text>
</a>
</g>
</g>
<!-- dir_b4e48db5bc7dd3cb9cf33b7d54662e39&#45;&gt;dir_64078e4dd55db1ba2b4e557207803e4b -->
<g id="edge4" class="edge">
<title>dir_b4e48db5bc7dd3cb9cf33b7d54662e39&#45;&gt;dir_64078e4dd55db1ba2b4e557207803e4b</title>
<path fill="none" stroke="black" d="M118.34,-359.63C110.96,-349.64 102.15,-336.6 96.01,-324 74.55,-279.89 63.08,-223.46 57.79,-190.47"/>
<polygon fill="black" stroke="black" points="61.2,-189.58 56.23,-180.22 54.28,-190.64 61.2,-189.58"/>
<g id="a_edge4&#45;headlabel"><a xlink:href="dir_000067_000044.html" target="_top" xlink:title="4">
<text text-anchor="middle" x="64.55" y="-190.21" font-family="FreeSans" font-size="10.00">4</text>
</a>
</g>
</g>
<!-- dir_b4e48db5bc7dd3cb9cf33b7d54662e39&#45;&gt;dir_758df28fbdbb54fb46d6d3d6484a4984 -->
<g id="edge5" class="edge">
<title>dir_b4e48db5bc7dd3cb9cf33b7d54662e39&#45;&gt;dir_758df28fbdbb54fb46d6d3d6484a4984</title>
<path fill="none" stroke="black" d="M159.17,-363.05C162.11,-361.88 165.09,-360.83 168.01,-360 302.24,-321.69 353.36,-382.68 480.01,-324 532.51,-299.68 575.01,-292.86 575.01,-235 575.01,-235 575.01,-235 575.01,-161 575.01,-67.65 439.15,-34.43 371.44,-23.67"/>
<polygon fill="black" stroke="black" points="371.6,-20.15 361.19,-22.13 370.56,-27.08 371.6,-20.15"/>
<g id="a_edge5&#45;headlabel"><a xlink:href="dir_000067_000144.html" target="_top" xlink:title="8">
<text text-anchor="middle" x="375.58" y="-15.38" font-family="FreeSans" font-size="10.00">8</text>
</a>
</g>
</g>
<!-- dir_b4e48db5bc7dd3cb9cf33b7d54662e39&#45;&gt;dir_db8d68003073a61b7114dbc4f792cfed -->
<g id="edge9" class="edge">
<title>dir_b4e48db5bc7dd3cb9cf33b7d54662e39&#45;&gt;dir_db8d68003073a61b7114dbc4f792cfed</title>
<path fill="none" stroke="black" d="M159.19,-363.09C162.12,-361.92 165.1,-360.86 168.01,-360 287.15,-325.07 337.52,-386.1 445.01,-324 479.88,-303.86 483.77,-288.85 500.01,-252 508.65,-232.4 512.63,-208.41 514.46,-190.27"/>
<polygon fill="black" stroke="black" points="517.96,-190.35 515.32,-180.09 510.99,-189.76 517.96,-190.35"/>
<g id="a_edge9&#45;headlabel"><a xlink:href="dir_000067_000024.html" target="_top" xlink:title="7">
<text text-anchor="middle" x="520.49" y="-191.68" font-family="FreeSans" font-size="10.00">7</text>
</a>
</g>
</g>
<!-- dir_b4e48db5bc7dd3cb9cf33b7d54662e39&#45;&gt;dir_cb2d4e92f47691559fc9d122a5e37fac -->
<g id="edge8" class="edge">
<title>dir_b4e48db5bc7dd3cb9cf33b7d54662e39&#45;&gt;dir_cb2d4e92f47691559fc9d122a5e37fac</title>
<path fill="none" stroke="black" d="M112,-359.89C65.36,-318 -42.19,-208.44 18.01,-136 43.64,-105.17 161.72,-95.36 222.95,-92.32"/>
<polygon fill="black" stroke="black" points="223.15,-95.81 232.98,-91.85 222.83,-88.82 223.15,-95.81"/>
<g id="a_edge8&#45;headlabel"><a xlink:href="dir_000067_000014.html" target="_top" xlink:title="8">
<text text-anchor="middle" x="219.69" y="-96.31" font-family="FreeSans" font-size="10.00">8</text>
</a>
</g>
</g>
<!-- dir_64078e4dd55db1ba2b4e557207803e4b&#45;&gt;dir_758df28fbdbb54fb46d6d3d6484a4984 -->
<g id="edge11" class="edge">
<title>dir_64078e4dd55db1ba2b4e557207803e4b&#45;&gt;dir_758df28fbdbb54fb46d6d3d6484a4984</title>
<path fill="none" stroke="black" d="M68.34,-143.71C85.86,-123.65 117.35,-90.93 151.01,-72 197.53,-45.85 258.1,-31.61 296.53,-24.65"/>
<polygon fill="black" stroke="black" points="297.5,-28.04 306.75,-22.88 296.3,-21.14 297.5,-28.04"/>
<g id="a_edge11&#45;headlabel"><a xlink:href="dir_000044_000144.html" target="_top" xlink:title="1">
<text text-anchor="middle" x="294.44" y="-28.95" font-family="FreeSans" font-size="10.00">1</text>
</a>
</g>
</g>
<!-- dir_64078e4dd55db1ba2b4e557207803e4b&#45;&gt;dir_cb2d4e92f47691559fc9d122a5e37fac -->
<g id="edge12" class="edge">
<title>dir_64078e4dd55db1ba2b4e557207803e4b&#45;&gt;dir_cb2d4e92f47691559fc9d122a5e37fac</title>
<path fill="none" stroke="black" d="M72.82,-143.77C76.66,-140.86 80.81,-138.11 85.01,-136 129.54,-113.65 186.18,-101.71 222.76,-95.87"/>
<polygon fill="black" stroke="black" points="223.61,-99.28 232.97,-94.31 222.56,-92.36 223.61,-99.28"/>
<g id="a_edge12&#45;headlabel"><a xlink:href="dir_000044_000014.html" target="_top" xlink:title="76">
<text text-anchor="middle" x="220.49" y="-100.13" font-family="FreeSans" font-size="10.00">76</text>
</a>
</g>
</g>
<!-- dir_db8d68003073a61b7114dbc4f792cfed&#45;&gt;dir_758df28fbdbb54fb46d6d3d6484a4984 -->
<g id="edge39" class="edge">
<title>dir_db8d68003073a61b7114dbc4f792cfed&#45;&gt;dir_758df28fbdbb54fb46d6d3d6484a4984</title>
<path fill="none" stroke="black" d="M512.32,-143.93C507.19,-124.1 496.06,-91.58 475.01,-72 446.11,-45.11 402.28,-31.51 371.16,-24.87"/>
<polygon fill="black" stroke="black" points="371.63,-21.39 361.14,-22.87 370.27,-28.26 371.63,-21.39"/>
<g id="a_edge39&#45;headlabel"><a xlink:href="dir_000024_000144.html" target="_top" xlink:title="1">
<text text-anchor="middle" x="375.71" y="-16.81" font-family="FreeSans" font-size="10.00">1</text>
</a>
</g>
</g>
<!-- dir_db8d68003073a61b7114dbc4f792cfed&#45;&gt;dir_cb2d4e92f47691559fc9d122a5e37fac -->
<g id="edge38" class="edge">
<title>dir_db8d68003073a61b7114dbc4f792cfed&#45;&gt;dir_cb2d4e92f47691559fc9d122a5e37fac</title>
<path fill="none" stroke="black" d="M488.91,-150.74C475.76,-145.95 459.67,-140.35 445.01,-136 394.33,-120.95 334.75,-107.14 297.19,-98.89"/>
<polygon fill="black" stroke="black" points="297.72,-95.43 287.2,-96.72 296.23,-102.27 297.72,-95.43"/>
<g id="a_edge38&#45;headlabel"><a xlink:href="dir_000024_000014.html" target="_top" xlink:title="117">
<text text-anchor="middle" x="301.83" y="-90.92" font-family="FreeSans" font-size="10.00">117</text>
</a>
</g>
</g>
<!-- dir_cb2d4e92f47691559fc9d122a5e37fac&#45;&gt;dir_758df28fbdbb54fb46d6d3d6484a4984 -->
<g id="edge35" class="edge">
<title>dir_cb2d4e92f47691559fc9d122a5e37fac&#45;&gt;dir_758df28fbdbb54fb46d6d3d6484a4984</title>
<path fill="none" stroke="black" d="M278.31,-71.7C287.45,-63.05 298.65,-52.45 308.61,-43.03"/>
<polygon fill="black" stroke="black" points="311.07,-45.52 315.93,-36.1 306.26,-40.43 311.07,-45.52"/>
<g id="a_edge35&#45;headlabel"><a xlink:href="dir_000014_000144.html" target="_top" xlink:title="3">
<text text-anchor="middle" x="310.41" y="-47.55" font-family="FreeSans" font-size="10.00">3</text>
</a>
</g>
</g>
</g>
</svg>
