<?xml version="1.0" encoding="UTF-8" standalone="no"?>
<!DOCTYPE svg PUBLIC "-//W3C//DTD SVG 1.1//EN"
 "http://www.w3.org/Graphics/SVG/1.1/DTD/svg11.dtd">
<!-- Generated by graphviz version 2.43.0 (0)
 -->
<!-- Title: include Pages: 1 -->
<svg width="187pt" height="367pt"
 viewBox="0.00 0.00 187.46 367.00" xmlns="http://www.w3.org/2000/svg" xmlns:xlink="http://www.w3.org/1999/xlink">
<g id="graph0" class="graph" transform="scale(1 1) rotate(0) translate(4 363)">
<title>include</title>
<polygon fill="white" stroke="transparent" points="-4,4 -4,-363 183.46,-363 183.46,4 -4,4"/>
<g id="clust1" class="cluster">
<title>clusterdir_4546011bd625f1142c4c4ae06dcdb5ba</title>
<g id="a_clust1"><a xlink:href="dir_4546011bd625f1142c4c4ae06dcdb5ba.html" target="_top" xlink:title="Operators">
<polygon fill="#ddddee" stroke="black" points="30.96,-280 30.96,-351 100.96,-351 100.96,-280 30.96,-280"/>
<text text-anchor="middle" x="65.96" y="-339" font-family="FreeSans" font-size="10.00">Operators</text>
</a>
</g>
</g>
<!-- dir_b5e9aade64ae05a5887f411b6f0da59e -->
<g id="node1" class="node">
<title>dir_b5e9aade64ae05a5887f411b6f0da59e</title>
<g id="a_node1"><a xlink:href="dir_b5e9aade64ae05a5887f411b6f0da59e.html" target="_top" xlink:title="include">
<polygon fill="#eeeeff" stroke="black" points="92.96,-324 38.96,-324 38.96,-288 92.96,-288 92.96,-324"/>
<text text-anchor="middle" x="65.96" y="-303.5" font-family="FreeSans" font-size="10.00">include</text>
</a>
</g>
</g>
<!-- dir_150f406a44a04ce55518da03ec553ece -->
<g id="node2" class="node">
<title>dir_150f406a44a04ce55518da03ec553ece</title>
<g id="a_node2"><a xlink:href="dir_150f406a44a04ce55518da03ec553ece.html" target="_top" xlink:title="Utilities">
<polygon fill="white" stroke="red" points="65.96,-180 11.96,-180 11.96,-144 65.96,-144 65.96,-180"/>
<text text-anchor="middle" x="38.96" y="-159.5" font-family="FreeSans" font-size="10.00">Utilities</text>
</a>
</g>
</g>
<!-- dir_b5e9aade64ae05a5887f411b6f0da59e&#45;&gt;dir_150f406a44a04ce55518da03ec553ece -->
<g id="edge7" class="edge">
<title>dir_b5e9aade64ae05a5887f411b6f0da59e&#45;&gt;dir_150f406a44a04ce55518da03ec553ece</title>
<path fill="none" stroke="black" d="M62.71,-287.87C58.11,-263.67 49.65,-219.21 44.17,-190.39"/>
<polygon fill="black" stroke="black" points="47.54,-189.36 42.23,-180.19 40.66,-190.67 47.54,-189.36"/>
<g id="a_edge7&#45;headlabel"><a xlink:href="dir_000090_000086.html" target="_top" xlink:title="5">
<text text-anchor="middle" x="51" y="-189.86" font-family="FreeSans" font-size="10.00">5</text>
</a>
</g>
</g>
<!-- dir_32348ece3c89569e6a714937ae854c89 -->
<g id="node3" class="node">
<title>dir_32348ece3c89569e6a714937ae854c89</title>
<g id="a_node3"><a xlink:href="dir_32348ece3c89569e6a714937ae854c89.html" target="_top" xlink:title="Message">
<polygon fill="white" stroke="red" points="82.96,-36 26.96,-36 26.96,0 82.96,0 82.96,-36"/>
<text text-anchor="middle" x="54.96" y="-15.5" font-family="FreeSans" font-size="10.00">Message</text>
</a>
</g>
</g>
<!-- dir_b5e9aade64ae05a5887f411b6f0da59e&#45;&gt;dir_32348ece3c89569e6a714937ae854c89 -->
<g id="edge8" class="edge">
<title>dir_b5e9aade64ae05a5887f411b6f0da59e&#45;&gt;dir_32348ece3c89569e6a714937ae854c89</title>
<path fill="none" stroke="black" d="M53.99,-287.8C38.63,-264.6 12.8,-221.37 2.96,-180 -8.6,-131.36 18.2,-76.23 37.46,-44.74"/>
<polygon fill="black" stroke="black" points="40.51,-46.46 42.9,-36.14 34.6,-42.72 40.51,-46.46"/>
<g id="a_edge8&#45;headlabel"><a xlink:href="dir_000090_000123.html" target="_top" xlink:title="12">
<text text-anchor="middle" x="40.99" y="-48.52" font-family="FreeSans" font-size="10.00">12</text>
</a>
</g>
</g>
<!-- dir_a06008c3e245d1092ba6894d6caedef2 -->
<g id="node4" class="node">
<title>dir_a06008c3e245d1092ba6894d6caedef2</title>
<g id="a_node4"><a xlink:href="dir_a06008c3e245d1092ba6894d6caedef2.html" target="_top" xlink:title="Containers">
<polygon fill="white" stroke="red" points="179.46,-252 116.46,-252 116.46,-216 179.46,-216 179.46,-252"/>
<text text-anchor="middle" x="147.96" y="-231.5" font-family="FreeSans" font-size="10.00">Containers</text>
</a>
</g>
</g>
<!-- dir_b5e9aade64ae05a5887f411b6f0da59e&#45;&gt;dir_a06008c3e245d1092ba6894d6caedef2 -->
<g id="edge9" class="edge">
<title>dir_b5e9aade64ae05a5887f411b6f0da59e&#45;&gt;dir_a06008c3e245d1092ba6894d6caedef2</title>
<path fill="none" stroke="black" d="M86.23,-287.7C96.46,-278.97 109.03,-268.24 120.14,-258.75"/>
<polygon fill="black" stroke="black" points="122.59,-261.26 127.93,-252.1 118.05,-255.94 122.59,-261.26"/>
<g id="a_edge9&#45;headlabel"><a xlink:href="dir_000090_000096.html" target="_top" xlink:title="22">
<text text-anchor="middle" x="121.7" y="-263.25" font-family="FreeSans" font-size="10.00">22</text>
</a>
</g>
</g>
<!-- dir_ff42852cc454de79d2ecb9482f4de9d8 -->
<g id="node5" class="node">
<title>dir_ff42852cc454de79d2ecb9482f4de9d8</title>
<g id="a_node5"><a xlink:href="dir_ff42852cc454de79d2ecb9482f4de9d8.html" target="_top" xlink:title="Math">
<polygon fill="white" stroke="red" points="109.96,-108 55.96,-108 55.96,-72 109.96,-72 109.96,-108"/>
<text text-anchor="middle" x="82.96" y="-87.5" font-family="FreeSans" font-size="10.00">Math</text>
</a>
</g>
</g>
<!-- dir_b5e9aade64ae05a5887f411b6f0da59e&#45;&gt;dir_ff42852cc454de79d2ecb9482f4de9d8 -->
<g id="edge10" class="edge">
<title>dir_b5e9aade64ae05a5887f411b6f0da59e&#45;&gt;dir_ff42852cc454de79d2ecb9482f4de9d8</title>
<path fill="none" stroke="black" d="M67.33,-287.85C70.27,-250.83 77.23,-163.18 80.79,-118.39"/>
<polygon fill="black" stroke="black" points="84.29,-118.48 81.6,-108.23 77.31,-117.92 84.29,-118.48"/>
<g id="a_edge10&#45;headlabel"><a xlink:href="dir_000090_000099.html" target="_top" xlink:title="8">
<text text-anchor="middle" x="86.84" y="-119.79" font-family="FreeSans" font-size="10.00">8</text>
</a>
</g>
</g>
<!-- dir_150f406a44a04ce55518da03ec553ece&#45;&gt;dir_32348ece3c89569e6a714937ae854c89 -->
<g id="edge5" class="edge">
<title>dir_150f406a44a04ce55518da03ec553ece&#45;&gt;dir_32348ece3c89569e6a714937ae854c89</title>
<path fill="none" stroke="black" d="M40.19,-143.91C41.56,-125.96 43.96,-96.95 46.96,-72 47.98,-63.55 49.29,-54.38 50.56,-46.08"/>
<polygon fill="black" stroke="black" points="54.02,-46.57 52.11,-36.15 47.11,-45.49 54.02,-46.57"/>
<g id="a_edge5&#45;headlabel"><a xlink:href="dir_000086_000123.html" target="_top" xlink:title="13">
<text text-anchor="middle" x="56.27" y="-48.06" font-family="FreeSans" font-size="10.00">13</text>
</a>
</g>
</g>
<!-- dir_150f406a44a04ce55518da03ec553ece&#45;&gt;dir_ff42852cc454de79d2ecb9482f4de9d8 -->
<g id="edge6" class="edge">
<title>dir_150f406a44a04ce55518da03ec553ece&#45;&gt;dir_ff42852cc454de79d2ecb9482f4de9d8</title>
<path fill="none" stroke="black" d="M43.92,-143.7C48.25,-135.47 54.32,-125.48 60.47,-116.42"/>
<polygon fill="black" stroke="black" points="63.43,-118.3 66.32,-108.1 57.7,-114.27 63.43,-118.3"/>
<g id="a_edge6&#45;headlabel"><a xlink:href="dir_000086_000099.html" target="_top" xlink:title="1">
<text text-anchor="middle" x="63.68" y="-120.37" font-family="FreeSans" font-size="10.00">1</text>
</a>
</g>
</g>
<!-- dir_a06008c3e245d1092ba6894d6caedef2&#45;&gt;dir_150f406a44a04ce55518da03ec553ece -->
<g id="edge1" class="edge">
<title>dir_a06008c3e245d1092ba6894d6caedef2&#45;&gt;dir_150f406a44a04ce55518da03ec553ece</title>
<path fill="none" stroke="black" d="M121.3,-215.88C107.18,-206.81 89.65,-195.55 74.4,-185.76"/>
<polygon fill="black" stroke="black" points="76.04,-182.65 65.73,-180.19 72.25,-188.54 76.04,-182.65"/>
<g id="a_edge1&#45;headlabel"><a xlink:href="dir_000096_000086.html" target="_top" xlink:title="42">
<text text-anchor="middle" x="80.6" y="-179.7" font-family="FreeSans" font-size="10.00">42</text>
</a>
</g>
</g>
<!-- dir_a06008c3e245d1092ba6894d6caedef2&#45;&gt;dir_32348ece3c89569e6a714937ae854c89 -->
<g id="edge2" class="edge">
<title>dir_a06008c3e245d1092ba6894d6caedef2&#45;&gt;dir_32348ece3c89569e6a714937ae854c89</title>
<path fill="none" stroke="black" d="M148.6,-215.71C148.97,-184.71 146.18,-118.6 118.96,-72 112.19,-60.4 101.88,-50.23 91.5,-41.98"/>
<polygon fill="black" stroke="black" points="93.32,-38.98 83.22,-35.78 89.13,-44.58 93.32,-38.98"/>
<g id="a_edge2&#45;headlabel"><a xlink:href="dir_000096_000123.html" target="_top" xlink:title="9">
<text text-anchor="middle" x="97.9" y="-36.36" font-family="FreeSans" font-size="10.00">9</text>
</a>
</g>
</g>
<!-- dir_ff42852cc454de79d2ecb9482f4de9d8&#45;&gt;dir_150f406a44a04ce55518da03ec553ece -->
<g id="edge4" class="edge">
<title>dir_ff42852cc454de79d2ecb9482f4de9d8&#45;&gt;dir_150f406a44a04ce55518da03ec553ece</title>
<path fill="none" stroke="black" d="M78.11,-108.1C73.82,-116.3 67.75,-126.28 61.61,-135.36"/>
<polygon fill="black" stroke="black" points="58.64,-133.5 55.76,-143.7 64.37,-137.52 58.64,-133.5"/>
<g id="a_edge4&#45;headlabel"><a xlink:href="dir_000099_000086.html" target="_top" xlink:title="1">
<text text-anchor="middle" x="58.38" y="-126.43" font-family="FreeSans" font-size="10.00">1</text>
</a>
</g>
</g>
<!-- dir_ff42852cc454de79d2ecb9482f4de9d8&#45;&gt;dir_32348ece3c89569e6a714937ae854c89 -->
<g id="edge3" class="edge">
<title>dir_ff42852cc454de79d2ecb9482f4de9d8&#45;&gt;dir_32348ece3c89569e6a714937ae854c89</title>
<path fill="none" stroke="black" d="M76.04,-71.7C72.89,-63.81 69.09,-54.3 65.58,-45.55"/>
<polygon fill="black" stroke="black" points="68.77,-44.09 61.81,-36.1 62.27,-46.69 68.77,-44.09"/>
<g id="a_edge3&#45;headlabel"><a xlink:href="dir_000099_000123.html" target="_top" xlink:title="6">
<text text-anchor="middle" x="72.74" y="-43.87" font-family="FreeSans" font-size="10.00">6</text>
</a>
</g>
</g>
</g>
</svg>
