<?xml version="1.0" encoding="UTF-8" standalone="no"?>
<!DOCTYPE svg PUBLIC "-//W3C//DTD SVG 1.1//EN"
 "http://www.w3.org/Graphics/SVG/1.1/DTD/svg11.dtd">
<!-- Generated by graphviz version 2.43.0 (0)
 -->
<!-- Title: fourmer Pages: 1 -->
<svg width="196pt" height="375pt"
 viewBox="0.00 0.00 196.00 375.00" xmlns="http://www.w3.org/2000/svg" xmlns:xlink="http://www.w3.org/1999/xlink">
<g id="graph0" class="graph" transform="scale(1 1) rotate(0) translate(4 371)">
<title>fourmer</title>
<polygon fill="white" stroke="transparent" points="-4,4 -4,-371 192,-371 192,4 -4,4"/>
<g id="clust1" class="cluster">
<title>clusterdir_9de42bc92121356a26b664e34e3ff194</title>
<g id="a_clust1"><a xlink:href="dir_9de42bc92121356a26b664e34e3ff194.html" target="_top" xlink:title="applications">
<polygon fill="#ddddee" stroke="black" points="22,-200 22,-359 180,-359 180,-200 22,-200"/>
<text text-anchor="middle" x="101" y="-347" font-family="FreeSans" font-size="10.00">applications</text>
</a>
</g>
</g>
<g id="clust2" class="cluster">
<title>clusterdir_97db59fee4708edccba4daf2e2c41ab1</title>
<g id="a_clust2"><a xlink:href="dir_97db59fee4708edccba4daf2e2c41ab1.html" target="_top">
<polygon fill="#eeeeff" stroke="black" points="30,-208 30,-332 172,-332 172,-208 30,-208"/>
</a>
</g>
</g>
<!-- dir_97db59fee4708edccba4daf2e2c41ab1 -->
<g id="node1" class="node">
<title>dir_97db59fee4708edccba4daf2e2c41ab1</title>
<text text-anchor="middle" x="137" y="-303.5" font-family="FreeSans" font-size="10.00">fourmer</text>
</g>
<!-- dir_e4a5190427ac115e2738153ac185f2c6 -->
<g id="node2" class="node">
<title>dir_e4a5190427ac115e2738153ac185f2c6</title>
<g id="a_node2"><a xlink:href="dir_e4a5190427ac115e2738153ac185f2c6.html" target="_top" xlink:title="include">
<polygon fill="white" stroke="black" points="92,-252 38,-252 38,-216 92,-216 92,-252"/>
<text text-anchor="middle" x="65" y="-231.5" font-family="FreeSans" font-size="10.00">include</text>
</a>
</g>
</g>
<!-- dir_97db59fee4708edccba4daf2e2c41ab1&#45;&gt;dir_e4a5190427ac115e2738153ac185f2c6 -->
<g id="edge3" class="edge">
<title>dir_97db59fee4708edccba4daf2e2c41ab1&#45;&gt;dir_e4a5190427ac115e2738153ac185f2c6</title>
<path fill="none" stroke="black" d="M119.2,-287.7C110.4,-279.14 99.62,-268.66 90,-259.3"/>
<polygon fill="black" stroke="black" points="92.2,-256.57 82.59,-252.1 87.32,-261.58 92.2,-256.57"/>
<g id="a_edge3&#45;headlabel"><a xlink:href="dir_000039_000076.html" target="_top" xlink:title="6">
<text text-anchor="middle" x="96.76" y="-254.54" font-family="FreeSans" font-size="10.00">6</text>
</a>
</g>
</g>
<!-- dir_758df28fbdbb54fb46d6d3d6484a4984 -->
<g id="node4" class="node">
<title>dir_758df28fbdbb54fb46d6d3d6484a4984</title>
<g id="a_node4"><a xlink:href="dir_758df28fbdbb54fb46d6d3d6484a4984.html" target="_top" xlink:title="msg">
<polygon fill="white" stroke="red" points="128,-36 74,-36 74,0 128,0 128,-36"/>
<text text-anchor="middle" x="101" y="-15.5" font-family="FreeSans" font-size="10.00">msg</text>
</a>
</g>
</g>
<!-- dir_97db59fee4708edccba4daf2e2c41ab1&#45;&gt;dir_758df28fbdbb54fb46d6d3d6484a4984 -->
<g id="edge1" class="edge">
<title>dir_97db59fee4708edccba4daf2e2c41ab1&#45;&gt;dir_758df28fbdbb54fb46d6d3d6484a4984</title>
<path fill="none" stroke="black" d="M145.31,-287.79C149.74,-277.63 154.74,-264.38 157,-252 171.44,-172.81 167.93,-146.31 137,-72 133,-62.4 127.12,-52.74 121.27,-44.34"/>
<polygon fill="black" stroke="black" points="123.98,-42.12 115.26,-36.11 118.33,-46.25 123.98,-42.12"/>
<g id="a_edge1&#45;headlabel"><a xlink:href="dir_000039_000144.html" target="_top" xlink:title="1">
<text text-anchor="middle" x="128.39" y="-40.85" font-family="FreeSans" font-size="10.00">1</text>
</a>
</g>
</g>
<!-- dir_cb2d4e92f47691559fc9d122a5e37fac -->
<g id="node5" class="node">
<title>dir_cb2d4e92f47691559fc9d122a5e37fac</title>
<g id="a_node5"><a xlink:href="dir_cb2d4e92f47691559fc9d122a5e37fac.html" target="_top" xlink:title="mk4util">
<polygon fill="white" stroke="red" points="128,-108 74,-108 74,-72 128,-72 128,-108"/>
<text text-anchor="middle" x="101" y="-87.5" font-family="FreeSans" font-size="10.00">mk4util</text>
</a>
</g>
</g>
<!-- dir_97db59fee4708edccba4daf2e2c41ab1&#45;&gt;dir_cb2d4e92f47691559fc9d122a5e37fac -->
<g id="edge2" class="edge">
<title>dir_97db59fee4708edccba4daf2e2c41ab1&#45;&gt;dir_cb2d4e92f47691559fc9d122a5e37fac</title>
<path fill="none" stroke="black" d="M139.63,-287.62C143.54,-257.6 148.92,-194.4 134,-144 131.2,-134.54 126.21,-125.1 120.96,-116.87"/>
<polygon fill="black" stroke="black" points="123.75,-114.76 115.23,-108.46 117.97,-118.7 123.75,-114.76"/>
<g id="a_edge2&#45;headlabel"><a xlink:href="dir_000039_000014.html" target="_top" xlink:title="5">
<text text-anchor="middle" x="128.12" y="-113.63" font-family="FreeSans" font-size="10.00">5</text>
</a>
</g>
</g>
<!-- dir_e4a5190427ac115e2738153ac185f2c6&#45;&gt;dir_cb2d4e92f47691559fc9d122a5e37fac -->
<g id="edge8" class="edge">
<title>dir_e4a5190427ac115e2738153ac185f2c6&#45;&gt;dir_cb2d4e92f47691559fc9d122a5e37fac</title>
<path fill="none" stroke="black" d="M69.34,-215.87C75.5,-191.56 86.85,-146.82 94.15,-118.01"/>
<polygon fill="black" stroke="black" points="97.58,-118.74 96.64,-108.19 90.79,-117.02 97.58,-118.74"/>
<g id="a_edge8&#45;headlabel"><a xlink:href="dir_000076_000014.html" target="_top" xlink:title="1">
<text text-anchor="middle" x="99.45" y="-120.42" font-family="FreeSans" font-size="10.00">1</text>
</a>
</g>
</g>
<!-- dir_db8d68003073a61b7114dbc4f792cfed -->
<g id="node6" class="node">
<title>dir_db8d68003073a61b7114dbc4f792cfed</title>
<g id="a_node6"><a xlink:href="dir_db8d68003073a61b7114dbc4f792cfed.html" target="_top" xlink:title="dfio">
<polygon fill="white" stroke="red" points="54,-180 0,-180 0,-144 54,-144 54,-180"/>
<text text-anchor="middle" x="27" y="-159.5" font-family="FreeSans" font-size="10.00">dfio</text>
</a>
</g>
</g>
<!-- dir_e4a5190427ac115e2738153ac185f2c6&#45;&gt;dir_db8d68003073a61b7114dbc4f792cfed -->
<g id="edge9" class="edge">
<title>dir_e4a5190427ac115e2738153ac185f2c6&#45;&gt;dir_db8d68003073a61b7114dbc4f792cfed</title>
<path fill="none" stroke="black" d="M55.61,-215.7C51.24,-207.64 45.94,-197.89 41.1,-188.98"/>
<polygon fill="black" stroke="black" points="44.13,-187.22 36.29,-180.1 37.98,-190.56 44.13,-187.22"/>
<g id="a_edge9&#45;headlabel"><a xlink:href="dir_000076_000024.html" target="_top" xlink:title="1">
<text text-anchor="middle" x="48.34" y="-186.53" font-family="FreeSans" font-size="10.00">1</text>
</a>
</g>
</g>
<!-- dir_f60fbe5dc3387f63c1e0cab0f78da170 -->
<g id="node3" class="node">
<title>dir_f60fbe5dc3387f63c1e0cab0f78da170</title>
<g id="a_node3"><a xlink:href="dir_f60fbe5dc3387f63c1e0cab0f78da170.html" target="_top" xlink:title="src">
<polygon fill="white" stroke="black" points="92,-324 38,-324 38,-288 92,-288 92,-324"/>
<text text-anchor="middle" x="65" y="-303.5" font-family="FreeSans" font-size="10.00">src</text>
</a>
</g>
</g>
<!-- dir_f60fbe5dc3387f63c1e0cab0f78da170&#45;&gt;dir_e4a5190427ac115e2738153ac185f2c6 -->
<g id="edge6" class="edge">
<title>dir_f60fbe5dc3387f63c1e0cab0f78da170&#45;&gt;dir_e4a5190427ac115e2738153ac185f2c6</title>
<path fill="none" stroke="black" d="M65,-287.7C65,-279.98 65,-270.71 65,-262.11"/>
<polygon fill="black" stroke="black" points="68.5,-262.1 65,-252.1 61.5,-262.1 68.5,-262.1"/>
<g id="a_edge6&#45;headlabel"><a xlink:href="dir_000040_000076.html" target="_top" xlink:title="5">
<text text-anchor="middle" x="71.34" y="-263.2" font-family="FreeSans" font-size="10.00">5</text>
</a>
</g>
</g>
<!-- dir_f60fbe5dc3387f63c1e0cab0f78da170&#45;&gt;dir_cb2d4e92f47691559fc9d122a5e37fac -->
<g id="edge4" class="edge">
<title>dir_f60fbe5dc3387f63c1e0cab0f78da170&#45;&gt;dir_cb2d4e92f47691559fc9d122a5e37fac</title>
<path fill="none" stroke="black" d="M80.61,-287.77C88.37,-278.03 96.95,-265.18 101,-252 114.88,-206.87 110.44,-151.21 105.82,-118.56"/>
<polygon fill="black" stroke="black" points="109.24,-117.77 104.27,-108.41 102.32,-118.83 109.24,-117.77"/>
<g id="a_edge4&#45;headlabel"><a xlink:href="dir_000040_000014.html" target="_top" xlink:title="3">
<text text-anchor="middle" x="112.59" y="-118.39" font-family="FreeSans" font-size="10.00">3</text>
</a>
</g>
</g>
<!-- dir_f60fbe5dc3387f63c1e0cab0f78da170&#45;&gt;dir_db8d68003073a61b7114dbc4f792cfed -->
<g id="edge5" class="edge">
<title>dir_f60fbe5dc3387f63c1e0cab0f78da170&#45;&gt;dir_db8d68003073a61b7114dbc4f792cfed</title>
<path fill="none" stroke="black" d="M49.51,-287.74C41.78,-277.98 33.2,-265.14 29,-252 22.61,-232.04 22.43,-208.25 23.67,-190.29"/>
<polygon fill="black" stroke="black" points="27.17,-190.47 24.56,-180.2 20.2,-189.86 27.17,-190.47"/>
<g id="a_edge5&#45;headlabel"><a xlink:href="dir_000040_000024.html" target="_top" xlink:title="2">
<text text-anchor="middle" x="29.69" y="-191.8" font-family="FreeSans" font-size="10.00">2</text>
</a>
</g>
</g>
<!-- dir_cb2d4e92f47691559fc9d122a5e37fac&#45;&gt;dir_758df28fbdbb54fb46d6d3d6484a4984 -->
<g id="edge7" class="edge">
<title>dir_cb2d4e92f47691559fc9d122a5e37fac&#45;&gt;dir_758df28fbdbb54fb46d6d3d6484a4984</title>
<path fill="none" stroke="black" d="M101,-71.7C101,-63.98 101,-54.71 101,-46.11"/>
<polygon fill="black" stroke="black" points="104.5,-46.1 101,-36.1 97.5,-46.1 104.5,-46.1"/>
<g id="a_edge7&#45;headlabel"><a xlink:href="dir_000014_000144.html" target="_top" xlink:title="3">
<text text-anchor="middle" x="107.34" y="-47.2" font-family="FreeSans" font-size="10.00">3</text>
</a>
</g>
</g>
<!-- dir_db8d68003073a61b7114dbc4f792cfed&#45;&gt;dir_758df28fbdbb54fb46d6d3d6484a4984 -->
<g id="edge11" class="edge">
<title>dir_db8d68003073a61b7114dbc4f792cfed&#45;&gt;dir_758df28fbdbb54fb46d6d3d6484a4984</title>
<path fill="none" stroke="black" d="M33.2,-143.81C40.05,-125.54 51.87,-96.03 65,-72 70.07,-62.73 76.33,-53.04 82.21,-44.52"/>
<polygon fill="black" stroke="black" points="85.22,-46.32 88.12,-36.13 79.5,-42.29 85.22,-46.32"/>
<g id="a_edge11&#45;headlabel"><a xlink:href="dir_000024_000144.html" target="_top" xlink:title="1">
<text text-anchor="middle" x="85.47" y="-48.39" font-family="FreeSans" font-size="10.00">1</text>
</a>
</g>
</g>
<!-- dir_db8d68003073a61b7114dbc4f792cfed&#45;&gt;dir_cb2d4e92f47691559fc9d122a5e37fac -->
<g id="edge10" class="edge">
<title>dir_db8d68003073a61b7114dbc4f792cfed&#45;&gt;dir_cb2d4e92f47691559fc9d122a5e37fac</title>
<path fill="none" stroke="black" d="M45.29,-143.7C54.43,-135.05 65.64,-124.45 75.6,-115.03"/>
<polygon fill="black" stroke="black" points="78.06,-117.52 82.92,-108.1 73.25,-112.43 78.06,-117.52"/>
<g id="a_edge10&#45;headlabel"><a xlink:href="dir_000024_000014.html" target="_top" xlink:title="117">
<text text-anchor="middle" x="77.4" y="-119.55" font-family="FreeSans" font-size="10.00">117</text>
</a>
</g>
</g>
</g>
</svg>
