<?xml version="1.0" encoding="UTF-8" standalone="no"?>
<!DOCTYPE svg PUBLIC "-//W3C//DTD SVG 1.1//EN"
 "http://www.w3.org/Graphics/SVG/1.1/DTD/svg11.dtd">
<!-- Generated by graphviz version 2.43.0 (0)
 -->
<!-- Title: difx2mark4 Pages: 1 -->
<svg width="192pt" height="231pt"
 viewBox="0.00 0.00 192.00 231.00" xmlns="http://www.w3.org/2000/svg" xmlns:xlink="http://www.w3.org/1999/xlink">
<g id="graph0" class="graph" transform="scale(1 1) rotate(0) translate(4 227)">
<title>difx2mark4</title>
<polygon fill="white" stroke="transparent" points="-4,4 -4,-227 188,-227 188,4 -4,4"/>
<g id="clust1" class="cluster">
<title>clusterdir_9de42bc92121356a26b664e34e3ff194</title>
<g id="a_clust1"><a xlink:href="dir_9de42bc92121356a26b664e34e3ff194.html" target="_top" xlink:title="applications">
<polygon fill="#ddddee" stroke="black" points="8,-56 8,-215 176,-215 176,-56 8,-56"/>
<text text-anchor="middle" x="92" y="-203" font-family="FreeSans" font-size="10.00">applications</text>
</a>
</g>
</g>
<g id="clust2" class="cluster">
<title>clusterdir_3236850d8b037e8ab5bc50d67a449e07</title>
<g id="a_clust2"><a xlink:href="dir_3236850d8b037e8ab5bc50d67a449e07.html" target="_top">
<polygon fill="#eeeeff" stroke="black" points="16,-64 16,-188 168,-188 168,-64 16,-64"/>
</a>
</g>
</g>
<!-- dir_3236850d8b037e8ab5bc50d67a449e07 -->
<g id="node1" class="node">
<title>dir_3236850d8b037e8ab5bc50d67a449e07</title>
<text text-anchor="middle" x="128" y="-159.5" font-family="FreeSans" font-size="10.00">difx2mark4</text>
</g>
<!-- dir_0215534aa34c97be1cfe9bf0e2410bee -->
<g id="node2" class="node">
<title>dir_0215534aa34c97be1cfe9bf0e2410bee</title>
<g id="a_node2"><a xlink:href="dir_0215534aa34c97be1cfe9bf0e2410bee.html" target="_top" xlink:title="include">
<polygon fill="white" stroke="black" points="116,-108 62,-108 62,-72 116,-72 116,-108"/>
<text text-anchor="middle" x="89" y="-87.5" font-family="FreeSans" font-size="10.00">include</text>
</a>
</g>
</g>
<!-- dir_3236850d8b037e8ab5bc50d67a449e07&#45;&gt;dir_0215534aa34c97be1cfe9bf0e2410bee -->
<g id="edge3" class="edge">
<title>dir_3236850d8b037e8ab5bc50d67a449e07&#45;&gt;dir_0215534aa34c97be1cfe9bf0e2410bee</title>
<path fill="none" stroke="black" d="M118.36,-143.7C113.87,-135.64 108.44,-125.89 103.48,-116.98"/>
<polygon fill="black" stroke="black" points="106.45,-115.14 98.53,-108.1 100.34,-118.54 106.45,-115.14"/>
<g id="a_edge3&#45;headlabel"><a xlink:href="dir_000057_000063.html" target="_top" xlink:title="33">
<text text-anchor="middle" x="110.68" y="-114.39" font-family="FreeSans" font-size="10.00">33</text>
</a>
</g>
</g>
<!-- dir_db8d68003073a61b7114dbc4f792cfed -->
<g id="node4" class="node">
<title>dir_db8d68003073a61b7114dbc4f792cfed</title>
<g id="a_node4"><a xlink:href="dir_db8d68003073a61b7114dbc4f792cfed.html" target="_top" xlink:title="dfio">
<polygon fill="white" stroke="red" points="116,-36 62,-36 62,0 116,0 116,-36"/>
<text text-anchor="middle" x="89" y="-15.5" font-family="FreeSans" font-size="10.00">dfio</text>
</a>
</g>
</g>
<!-- dir_0215534aa34c97be1cfe9bf0e2410bee&#45;&gt;dir_db8d68003073a61b7114dbc4f792cfed -->
<g id="edge1" class="edge">
<title>dir_0215534aa34c97be1cfe9bf0e2410bee&#45;&gt;dir_db8d68003073a61b7114dbc4f792cfed</title>
<path fill="none" stroke="black" d="M89,-71.7C89,-63.98 89,-54.71 89,-46.11"/>
<polygon fill="black" stroke="black" points="92.5,-46.1 89,-36.1 85.5,-46.1 92.5,-46.1"/>
<g id="a_edge1&#45;headlabel"><a xlink:href="dir_000063_000024.html" target="_top" xlink:title="9">
<text text-anchor="middle" x="95.34" y="-47.2" font-family="FreeSans" font-size="10.00">9</text>
</a>
</g>
</g>
<!-- dir_52326d5a1d122211127cb51a03913880 -->
<g id="node3" class="node">
<title>dir_52326d5a1d122211127cb51a03913880</title>
<g id="a_node3"><a xlink:href="dir_52326d5a1d122211127cb51a03913880.html" target="_top" xlink:title="src">
<polygon fill="white" stroke="black" points="78,-180 24,-180 24,-144 78,-144 78,-180"/>
<text text-anchor="middle" x="51" y="-159.5" font-family="FreeSans" font-size="10.00">src</text>
</a>
</g>
</g>
<!-- dir_52326d5a1d122211127cb51a03913880&#45;&gt;dir_0215534aa34c97be1cfe9bf0e2410bee -->
<g id="edge2" class="edge">
<title>dir_52326d5a1d122211127cb51a03913880&#45;&gt;dir_0215534aa34c97be1cfe9bf0e2410bee</title>
<path fill="none" stroke="black" d="M60.39,-143.7C64.76,-135.64 70.06,-125.89 74.9,-116.98"/>
<polygon fill="black" stroke="black" points="78.02,-118.56 79.71,-108.1 71.87,-115.22 78.02,-118.56"/>
<g id="a_edge2&#45;headlabel"><a xlink:href="dir_000058_000063.html" target="_top" xlink:title="32">
<text text-anchor="middle" x="78.8" y="-120.58" font-family="FreeSans" font-size="10.00">32</text>
</a>
</g>
</g>
</g>
</svg>
