<?xml version="1.0" encoding="UTF-8" standalone="no"?>
<!DOCTYPE svg PUBLIC "-//W3C//DTD SVG 1.1//EN"
 "http://www.w3.org/Graphics/SVG/1.1/DTD/svg11.dtd">
<!-- Generated by graphviz version 2.43.0 (0)
 -->
<!-- Title: HDF5 Pages: 1 -->
<svg width="268pt" height="375pt"
 viewBox="0.00 0.00 268.00 375.00" xmlns="http://www.w3.org/2000/svg" xmlns:xlink="http://www.w3.org/1999/xlink">
<g id="graph0" class="graph" transform="scale(1 1) rotate(0) translate(4 371)">
<title>HDF5</title>
<polygon fill="white" stroke="transparent" points="-4,4 -4,-371 264,-371 264,4 -4,4"/>
<g id="clust1" class="cluster">
<title>clusterdir_26953edb3cb67a8e3bae1da7766c1e03</title>
<g id="a_clust1"><a xlink:href="dir_26953edb3cb67a8e3bae1da7766c1e03.html" target="_top" xlink:title="Plugins">
<polygon fill="#ddddee" stroke="black" points="8,-200 8,-359 252,-359 252,-200 8,-200"/>
<text text-anchor="middle" x="130" y="-347" font-family="FreeSans" font-size="10.00">Plugins</text>
</a>
</g>
</g>
<g id="clust2" class="cluster">
<title>clusterdir_c308a59eafa98348538c534617a3f49b</title>
<g id="a_clust2"><a xlink:href="dir_c308a59eafa98348538c534617a3f49b.html" target="_top">
<polygon fill="#eeeeff" stroke="black" points="16,-208 16,-332 244,-332 244,-208 16,-208"/>
</a>
</g>
</g>
<!-- dir_c308a59eafa98348538c534617a3f49b -->
<g id="node1" class="node">
<title>dir_c308a59eafa98348538c534617a3f49b</title>
<text text-anchor="middle" x="209" y="-303.5" font-family="FreeSans" font-size="10.00">HDF5</text>
</g>
<!-- dir_d557d928f5c7b43f802526f61e0bbdeb -->
<g id="node2" class="node">
<title>dir_d557d928f5c7b43f802526f61e0bbdeb</title>
<g id="a_node2"><a xlink:href="dir_d557d928f5c7b43f802526f61e0bbdeb.html" target="_top" xlink:title="applications">
<polygon fill="white" stroke="black" points="92,-324 24,-324 24,-288 92,-288 92,-324"/>
<text text-anchor="middle" x="58" y="-303.5" font-family="FreeSans" font-size="10.00">applications</text>
</a>
</g>
</g>
<!-- dir_4d6ae01ad466892f749a7b1c5b35172b -->
<g id="node3" class="node">
<title>dir_4d6ae01ad466892f749a7b1c5b35172b</title>
<g id="a_node3"><a xlink:href="dir_4d6ae01ad466892f749a7b1c5b35172b.html" target="_top" xlink:title="include">
<polygon fill="white" stroke="black" points="112,-252 58,-252 58,-216 112,-216 112,-252"/>
<text text-anchor="middle" x="85" y="-231.5" font-family="FreeSans" font-size="10.00">include</text>
</a>
</g>
</g>
<!-- dir_d557d928f5c7b43f802526f61e0bbdeb&#45;&gt;dir_4d6ae01ad466892f749a7b1c5b35172b -->
<g id="edge6" class="edge">
<title>dir_d557d928f5c7b43f802526f61e0bbdeb&#45;&gt;dir_4d6ae01ad466892f749a7b1c5b35172b</title>
<path fill="none" stroke="black" d="M64.67,-287.7C67.71,-279.81 71.38,-270.3 74.76,-261.55"/>
<polygon fill="black" stroke="black" points="78.07,-262.69 78.4,-252.1 71.54,-260.17 78.07,-262.69"/>
<g id="a_edge6&#45;headlabel"><a xlink:href="dir_000085_000111.html" target="_top" xlink:title="2">
<text text-anchor="middle" x="79.42" y="-264.57" font-family="FreeSans" font-size="10.00">2</text>
</a>
</g>
</g>
<!-- dir_150f406a44a04ce55518da03ec553ece -->
<g id="node5" class="node">
<title>dir_150f406a44a04ce55518da03ec553ece</title>
<g id="a_node5"><a xlink:href="dir_150f406a44a04ce55518da03ec553ece.html" target="_top" xlink:title="Utilities">
<polygon fill="white" stroke="red" points="78,-108 24,-108 24,-72 78,-72 78,-108"/>
<text text-anchor="middle" x="51" y="-87.5" font-family="FreeSans" font-size="10.00">Utilities</text>
</a>
</g>
</g>
<!-- dir_d557d928f5c7b43f802526f61e0bbdeb&#45;&gt;dir_150f406a44a04ce55518da03ec553ece -->
<g id="edge4" class="edge">
<title>dir_d557d928f5c7b43f802526f61e0bbdeb&#45;&gt;dir_150f406a44a04ce55518da03ec553ece</title>
<path fill="none" stroke="black" d="M54.35,-287.91C52.32,-277.57 50.02,-264.09 49,-252 45.07,-205.41 47.13,-150.96 49.03,-118.82"/>
<polygon fill="black" stroke="black" points="52.55,-118.63 49.69,-108.43 45.56,-118.19 52.55,-118.63"/>
<g id="a_edge4&#45;headlabel"><a xlink:href="dir_000085_000086.html" target="_top" xlink:title="1">
<text text-anchor="middle" x="55.16" y="-119.9" font-family="FreeSans" font-size="10.00">1</text>
</a>
</g>
</g>
<!-- dir_32348ece3c89569e6a714937ae854c89 -->
<g id="node6" class="node">
<title>dir_32348ece3c89569e6a714937ae854c89</title>
<g id="a_node6"><a xlink:href="dir_32348ece3c89569e6a714937ae854c89.html" target="_top" xlink:title="Message">
<polygon fill="white" stroke="red" points="106,-36 50,-36 50,0 106,0 106,-36"/>
<text text-anchor="middle" x="78" y="-15.5" font-family="FreeSans" font-size="10.00">Message</text>
</a>
</g>
</g>
<!-- dir_d557d928f5c7b43f802526f61e0bbdeb&#45;&gt;dir_32348ece3c89569e6a714937ae854c89 -->
<g id="edge5" class="edge">
<title>dir_d557d928f5c7b43f802526f61e0bbdeb&#45;&gt;dir_32348ece3c89569e6a714937ae854c89</title>
<path fill="none" stroke="black" d="M48.07,-287.74C26.51,-247.85 -19.89,-146.96 15,-72 20.77,-59.61 31.02,-49.08 41.6,-40.75"/>
<polygon fill="black" stroke="black" points="43.69,-43.56 49.68,-34.82 39.55,-37.91 43.69,-43.56"/>
<g id="a_edge5&#45;headlabel"><a xlink:href="dir_000085_000123.html" target="_top" xlink:title="1">
<text text-anchor="middle" x="42.47" y="-45.47" font-family="FreeSans" font-size="10.00">1</text>
</a>
</g>
</g>
<!-- dir_a06008c3e245d1092ba6894d6caedef2 -->
<g id="node7" class="node">
<title>dir_a06008c3e245d1092ba6894d6caedef2</title>
<g id="a_node7"><a xlink:href="dir_a06008c3e245d1092ba6894d6caedef2.html" target="_top" xlink:title="Containers">
<polygon fill="white" stroke="red" points="197.5,-180 134.5,-180 134.5,-144 197.5,-144 197.5,-180"/>
<text text-anchor="middle" x="166" y="-159.5" font-family="FreeSans" font-size="10.00">Containers</text>
</a>
</g>
</g>
<!-- dir_d557d928f5c7b43f802526f61e0bbdeb&#45;&gt;dir_a06008c3e245d1092ba6894d6caedef2 -->
<g id="edge7" class="edge">
<title>dir_d557d928f5c7b43f802526f61e0bbdeb&#45;&gt;dir_a06008c3e245d1092ba6894d6caedef2</title>
<path fill="none" stroke="black" d="M82.82,-287.87C95.36,-278.35 110.17,-265.67 121,-252 136.03,-233.02 148.07,-208.21 155.9,-189.61"/>
<polygon fill="black" stroke="black" points="159.18,-190.83 159.71,-180.25 152.7,-188.2 159.18,-190.83"/>
<g id="a_edge7&#45;headlabel"><a xlink:href="dir_000085_000096.html" target="_top" xlink:title="3">
<text text-anchor="middle" x="160.46" y="-192.73" font-family="FreeSans" font-size="10.00">3</text>
</a>
</g>
</g>
<!-- dir_4d6ae01ad466892f749a7b1c5b35172b&#45;&gt;dir_150f406a44a04ce55518da03ec553ece -->
<g id="edge8" class="edge">
<title>dir_4d6ae01ad466892f749a7b1c5b35172b&#45;&gt;dir_150f406a44a04ce55518da03ec553ece</title>
<path fill="none" stroke="black" d="M80.9,-215.87C75.08,-191.56 64.37,-146.82 57.47,-118.01"/>
<polygon fill="black" stroke="black" points="60.85,-117.1 55.12,-108.19 54.04,-118.73 60.85,-117.1"/>
<g id="a_edge8&#45;headlabel"><a xlink:href="dir_000111_000086.html" target="_top" xlink:title="20">
<text text-anchor="middle" x="64.45" y="-117.43" font-family="FreeSans" font-size="10.00">20</text>
</a>
</g>
</g>
<!-- dir_4d6ae01ad466892f749a7b1c5b35172b&#45;&gt;dir_32348ece3c89569e6a714937ae854c89 -->
<g id="edge9" class="edge">
<title>dir_4d6ae01ad466892f749a7b1c5b35172b&#45;&gt;dir_32348ece3c89569e6a714937ae854c89</title>
<path fill="none" stroke="black" d="M86.31,-215.57C88.3,-185.99 91.39,-124.09 87,-72 86.28,-63.5 84.93,-54.31 83.49,-46.01"/>
<polygon fill="black" stroke="black" points="86.91,-45.29 81.65,-36.09 80.03,-46.56 86.91,-45.29"/>
<g id="a_edge9&#45;headlabel"><a xlink:href="dir_000111_000123.html" target="_top" xlink:title="1">
<text text-anchor="middle" x="90.36" y="-45.81" font-family="FreeSans" font-size="10.00">1</text>
</a>
</g>
</g>
<!-- dir_4d6ae01ad466892f749a7b1c5b35172b&#45;&gt;dir_a06008c3e245d1092ba6894d6caedef2 -->
<g id="edge10" class="edge">
<title>dir_4d6ae01ad466892f749a7b1c5b35172b&#45;&gt;dir_a06008c3e245d1092ba6894d6caedef2</title>
<path fill="none" stroke="black" d="M105.02,-215.7C115.13,-206.97 127.54,-196.24 138.52,-186.75"/>
<polygon fill="black" stroke="black" points="140.93,-189.29 146.21,-180.1 136.35,-183.99 140.93,-189.29"/>
<g id="a_edge10&#45;headlabel"><a xlink:href="dir_000111_000096.html" target="_top" xlink:title="38">
<text text-anchor="middle" x="140.07" y="-191.29" font-family="FreeSans" font-size="10.00">38</text>
</a>
</g>
</g>
<!-- dir_bf29cbf2dc33d73903d38b6738c5a974 -->
<g id="node4" class="node">
<title>dir_bf29cbf2dc33d73903d38b6738c5a974</title>
<g id="a_node4"><a xlink:href="dir_bf29cbf2dc33d73903d38b6738c5a974.html" target="_top" xlink:title="src">
<polygon fill="white" stroke="black" points="164,-324 110,-324 110,-288 164,-288 164,-324"/>
<text text-anchor="middle" x="137" y="-303.5" font-family="FreeSans" font-size="10.00">src</text>
</a>
</g>
</g>
<!-- dir_bf29cbf2dc33d73903d38b6738c5a974&#45;&gt;dir_4d6ae01ad466892f749a7b1c5b35172b -->
<g id="edge11" class="edge">
<title>dir_bf29cbf2dc33d73903d38b6738c5a974&#45;&gt;dir_4d6ae01ad466892f749a7b1c5b35172b</title>
<path fill="none" stroke="black" d="M124.15,-287.7C117.97,-279.39 110.46,-269.28 103.68,-260.14"/>
<polygon fill="black" stroke="black" points="106.48,-258.04 97.71,-252.1 100.86,-262.22 106.48,-258.04"/>
<g id="a_edge11&#45;headlabel"><a xlink:href="dir_000118_000111.html" target="_top" xlink:title="2">
<text text-anchor="middle" x="110.9" y="-256.74" font-family="FreeSans" font-size="10.00">2</text>
</a>
</g>
</g>
<!-- dir_bf29cbf2dc33d73903d38b6738c5a974&#45;&gt;dir_a06008c3e245d1092ba6894d6caedef2 -->
<g id="edge12" class="edge">
<title>dir_bf29cbf2dc33d73903d38b6738c5a974&#45;&gt;dir_a06008c3e245d1092ba6894d6caedef2</title>
<path fill="none" stroke="black" d="M143.46,-287.55C147.02,-277.31 151.27,-264.06 154,-252 158.61,-231.6 161.68,-208.14 163.57,-190.43"/>
<polygon fill="black" stroke="black" points="167.07,-190.52 164.59,-180.22 160.11,-189.82 167.07,-190.52"/>
<g id="a_edge12&#45;headlabel"><a xlink:href="dir_000118_000096.html" target="_top" xlink:title="1">
<text text-anchor="middle" x="169.54" y="-191.88" font-family="FreeSans" font-size="10.00">1</text>
</a>
</g>
</g>
<!-- dir_150f406a44a04ce55518da03ec553ece&#45;&gt;dir_32348ece3c89569e6a714937ae854c89 -->
<g id="edge3" class="edge">
<title>dir_150f406a44a04ce55518da03ec553ece&#45;&gt;dir_32348ece3c89569e6a714937ae854c89</title>
<path fill="none" stroke="black" d="M57.67,-71.7C60.71,-63.81 64.38,-54.3 67.76,-45.55"/>
<polygon fill="black" stroke="black" points="71.07,-46.69 71.4,-36.1 64.54,-44.17 71.07,-46.69"/>
<g id="a_edge3&#45;headlabel"><a xlink:href="dir_000086_000123.html" target="_top" xlink:title="13">
<text text-anchor="middle" x="72.42" y="-48.57" font-family="FreeSans" font-size="10.00">13</text>
</a>
</g>
</g>
<!-- dir_a06008c3e245d1092ba6894d6caedef2&#45;&gt;dir_150f406a44a04ce55518da03ec553ece -->
<g id="edge1" class="edge">
<title>dir_a06008c3e245d1092ba6894d6caedef2&#45;&gt;dir_150f406a44a04ce55518da03ec553ece</title>
<path fill="none" stroke="black" d="M137.87,-143.88C122.49,-134.52 103.29,-122.83 86.86,-112.83"/>
<polygon fill="black" stroke="black" points="88.41,-109.67 78.05,-107.47 84.77,-115.65 88.41,-109.67"/>
<g id="a_edge1&#45;headlabel"><a xlink:href="dir_000096_000086.html" target="_top" xlink:title="42">
<text text-anchor="middle" x="92.96" y="-106.62" font-family="FreeSans" font-size="10.00">42</text>
</a>
</g>
</g>
<!-- dir_a06008c3e245d1092ba6894d6caedef2&#45;&gt;dir_32348ece3c89569e6a714937ae854c89 -->
<g id="edge2" class="edge">
<title>dir_a06008c3e245d1092ba6894d6caedef2&#45;&gt;dir_32348ece3c89569e6a714937ae854c89</title>
<path fill="none" stroke="black" d="M158.29,-143.73C149.83,-125.38 135.38,-95.81 120,-72 113.82,-62.43 106.29,-52.51 99.33,-43.87"/>
<polygon fill="black" stroke="black" points="101.94,-41.53 92.88,-36.03 96.53,-45.98 101.94,-41.53"/>
<g id="a_edge2&#45;headlabel"><a xlink:href="dir_000096_000123.html" target="_top" xlink:title="9">
<text text-anchor="middle" x="106.42" y="-40.01" font-family="FreeSans" font-size="10.00">9</text>
</a>
</g>
</g>
</g>
</svg>
