<?xml version="1.0" encoding="UTF-8" standalone="no"?>
<!DOCTYPE svg PUBLIC "-//W3C//DTD SVG 1.1//EN"
 "http://www.w3.org/Graphics/SVG/1.1/DTD/svg11.dtd">
<!-- Generated by graphviz version 2.43.0 (0)
 -->
<!-- Title: include Pages: 1 -->
<svg width="143pt" height="295pt"
 viewBox="0.00 0.00 142.50 295.00" xmlns="http://www.w3.org/2000/svg" xmlns:xlink="http://www.w3.org/1999/xlink">
<g id="graph0" class="graph" transform="scale(1 1) rotate(0) translate(4 291)">
<title>include</title>
<polygon fill="white" stroke="transparent" points="-4,4 -4,-291 138.5,-291 138.5,4 -4,4"/>
<g id="clust1" class="cluster">
<title>clusterdir_68ccf097de5ef9ba8fe5a1575ab7d7d7</title>
<g id="a_clust1"><a xlink:href="dir_68ccf097de5ef9ba8fe5a1575ab7d7d7.html" target="_top" xlink:title="Containers">
<polygon fill="#ddddee" stroke="black" points="8,-208 8,-279 78,-279 78,-208 8,-208"/>
<text text-anchor="middle" x="43" y="-267" font-family="FreeSans" font-size="10.00">Containers</text>
</a>
</g>
</g>
<!-- dir_c4883bfeea456b22d4c7899d23561ce2 -->
<g id="node1" class="node">
<title>dir_c4883bfeea456b22d4c7899d23561ce2</title>
<g id="a_node1"><a xlink:href="dir_c4883bfeea456b22d4c7899d23561ce2.html" target="_top" xlink:title="include">
<polygon fill="#eeeeff" stroke="black" points="70,-252 16,-252 16,-216 70,-216 70,-252"/>
<text text-anchor="middle" x="43" y="-231.5" font-family="FreeSans" font-size="10.00">include</text>
</a>
</g>
</g>
<!-- dir_150f406a44a04ce55518da03ec553ece -->
<g id="node2" class="node">
<title>dir_150f406a44a04ce55518da03ec553ece</title>
<g id="a_node2"><a xlink:href="dir_150f406a44a04ce55518da03ec553ece.html" target="_top" xlink:title="Utilities">
<polygon fill="white" stroke="red" points="81,-108 27,-108 27,-72 81,-72 81,-108"/>
<text text-anchor="middle" x="54" y="-87.5" font-family="FreeSans" font-size="10.00">Utilities</text>
</a>
</g>
</g>
<!-- dir_c4883bfeea456b22d4c7899d23561ce2&#45;&gt;dir_150f406a44a04ce55518da03ec553ece -->
<g id="edge1" class="edge">
<title>dir_c4883bfeea456b22d4c7899d23561ce2&#45;&gt;dir_150f406a44a04ce55518da03ec553ece</title>
<path fill="none" stroke="black" d="M44.33,-215.87C46.2,-191.67 49.65,-147.21 51.88,-118.39"/>
<polygon fill="black" stroke="black" points="55.39,-118.43 52.67,-108.19 48.41,-117.89 55.39,-118.43"/>
<g id="a_edge1&#45;headlabel"><a xlink:href="dir_000136_000086.html" target="_top" xlink:title="4">
<text text-anchor="middle" x="57.94" y="-119.73" font-family="FreeSans" font-size="10.00">4</text>
</a>
</g>
</g>
<!-- dir_32348ece3c89569e6a714937ae854c89 -->
<g id="node3" class="node">
<title>dir_32348ece3c89569e6a714937ae854c89</title>
<g id="a_node3"><a xlink:href="dir_32348ece3c89569e6a714937ae854c89.html" target="_top" xlink:title="Message">
<polygon fill="white" stroke="red" points="82,-36 26,-36 26,0 82,0 82,-36"/>
<text text-anchor="middle" x="54" y="-15.5" font-family="FreeSans" font-size="10.00">Message</text>
</a>
</g>
</g>
<!-- dir_c4883bfeea456b22d4c7899d23561ce2&#45;&gt;dir_32348ece3c89569e6a714937ae854c89 -->
<g id="edge2" class="edge">
<title>dir_c4883bfeea456b22d4c7899d23561ce2&#45;&gt;dir_32348ece3c89569e6a714937ae854c89</title>
<path fill="none" stroke="black" d="M35.34,-215.71C23.18,-185.83 2.37,-122.83 18,-72 21.01,-62.22 26.51,-52.62 32.32,-44.33"/>
<polygon fill="black" stroke="black" points="35.19,-46.33 38.39,-36.23 29.59,-42.13 35.19,-46.33"/>
<g id="a_edge2&#45;headlabel"><a xlink:href="dir_000136_000123.html" target="_top" xlink:title="1">
<text text-anchor="middle" x="35.31" y="-48.41" font-family="FreeSans" font-size="10.00">1</text>
</a>
</g>
</g>
<!-- dir_a06008c3e245d1092ba6894d6caedef2 -->
<g id="node4" class="node">
<title>dir_a06008c3e245d1092ba6894d6caedef2</title>
<g id="a_node4"><a xlink:href="dir_a06008c3e245d1092ba6894d6caedef2.html" target="_top" xlink:title="Containers">
<polygon fill="white" stroke="red" points="134.5,-180 71.5,-180 71.5,-144 134.5,-144 134.5,-180"/>
<text text-anchor="middle" x="103" y="-159.5" font-family="FreeSans" font-size="10.00">Containers</text>
</a>
</g>
</g>
<!-- dir_c4883bfeea456b22d4c7899d23561ce2&#45;&gt;dir_a06008c3e245d1092ba6894d6caedef2 -->
<g id="edge3" class="edge">
<title>dir_c4883bfeea456b22d4c7899d23561ce2&#45;&gt;dir_a06008c3e245d1092ba6894d6caedef2</title>
<path fill="none" stroke="black" d="M57.83,-215.7C65.02,-207.3 73.8,-197.07 81.69,-187.86"/>
<polygon fill="black" stroke="black" points="84.49,-189.97 88.34,-180.1 79.17,-185.42 84.49,-189.97"/>
<g id="a_edge3&#45;headlabel"><a xlink:href="dir_000136_000096.html" target="_top" xlink:title="13">
<text text-anchor="middle" x="84.31" y="-192.05" font-family="FreeSans" font-size="10.00">13</text>
</a>
</g>
</g>
<!-- dir_150f406a44a04ce55518da03ec553ece&#45;&gt;dir_32348ece3c89569e6a714937ae854c89 -->
<g id="edge6" class="edge">
<title>dir_150f406a44a04ce55518da03ec553ece&#45;&gt;dir_32348ece3c89569e6a714937ae854c89</title>
<path fill="none" stroke="black" d="M54,-71.7C54,-63.98 54,-54.71 54,-46.11"/>
<polygon fill="black" stroke="black" points="57.5,-46.1 54,-36.1 50.5,-46.1 57.5,-46.1"/>
<g id="a_edge6&#45;headlabel"><a xlink:href="dir_000086_000123.html" target="_top" xlink:title="13">
<text text-anchor="middle" x="60.34" y="-47.2" font-family="FreeSans" font-size="10.00">13</text>
</a>
</g>
</g>
<!-- dir_a06008c3e245d1092ba6894d6caedef2&#45;&gt;dir_150f406a44a04ce55518da03ec553ece -->
<g id="edge4" class="edge">
<title>dir_a06008c3e245d1092ba6894d6caedef2&#45;&gt;dir_150f406a44a04ce55518da03ec553ece</title>
<path fill="none" stroke="black" d="M90.89,-143.7C85.13,-135.47 78.14,-125.48 71.79,-116.42"/>
<polygon fill="black" stroke="black" points="74.58,-114.29 65.97,-108.1 68.84,-118.3 74.58,-114.29"/>
<g id="a_edge4&#45;headlabel"><a xlink:href="dir_000096_000086.html" target="_top" xlink:title="42">
<text text-anchor="middle" x="78.96" y="-113.11" font-family="FreeSans" font-size="10.00">42</text>
</a>
</g>
</g>
<!-- dir_a06008c3e245d1092ba6894d6caedef2&#45;&gt;dir_32348ece3c89569e6a714937ae854c89 -->
<g id="edge5" class="edge">
<title>dir_a06008c3e245d1092ba6894d6caedef2&#45;&gt;dir_32348ece3c89569e6a714937ae854c89</title>
<path fill="none" stroke="black" d="M102.75,-143.69C101.97,-125.32 99.22,-95.72 90,-72 86.23,-62.31 80.41,-52.62 74.54,-44.23"/>
<polygon fill="black" stroke="black" points="77.24,-41.99 68.49,-36.02 71.6,-46.14 77.24,-41.99"/>
<g id="a_edge5&#45;headlabel"><a xlink:href="dir_000096_000123.html" target="_top" xlink:title="9">
<text text-anchor="middle" x="81.66" y="-40.71" font-family="FreeSans" font-size="10.00">9</text>
</a>
</g>
</g>
</g>
</svg>
