<?xml version="1.0" encoding="UTF-8" standalone="no"?>
<!DOCTYPE svg PUBLIC "-//W3C//DTD SVG 1.1//EN"
 "http://www.w3.org/Graphics/SVG/1.1/DTD/svg11.dtd">
<!-- Generated by graphviz version 2.43.0 (0)
 -->
<!-- Title: include Pages: 1 -->
<svg width="185pt" height="295pt"
 viewBox="0.00 0.00 185.32 295.00" xmlns="http://www.w3.org/2000/svg" xmlns:xlink="http://www.w3.org/1999/xlink">
<g id="graph0" class="graph" transform="scale(1 1) rotate(0) translate(4 291)">
<title>include</title>
<polygon fill="white" stroke="transparent" points="-4,4 -4,-291 181.32,-291 181.32,4 -4,4"/>
<g id="clust1" class="cluster">
<title>clusterdir_951752c50ea76680db3b9d1455b475f2</title>
<g id="a_clust1"><a xlink:href="dir_951752c50ea76680db3b9d1455b475f2.html" target="_top" xlink:title="aedit">
<polygon fill="#ddddee" stroke="black" points="74,-208 74,-279 144,-279 144,-208 74,-208"/>
<text text-anchor="middle" x="109" y="-267" font-family="FreeSans" font-size="10.00">aedit</text>
</a>
</g>
</g>
<!-- dir_fb738a07a661f1b5bb3ba111f0d8789d -->
<g id="node1" class="node">
<title>dir_fb738a07a661f1b5bb3ba111f0d8789d</title>
<g id="a_node1"><a xlink:href="dir_fb738a07a661f1b5bb3ba111f0d8789d.html" target="_top" xlink:title="include">
<polygon fill="#eeeeff" stroke="black" points="136,-252 82,-252 82,-216 136,-216 136,-252"/>
<text text-anchor="middle" x="109" y="-231.5" font-family="FreeSans" font-size="10.00">include</text>
</a>
</g>
</g>
<!-- dir_637a76a7abf5a01e5c2aa724f3c1e96e -->
<g id="node2" class="node">
<title>dir_637a76a7abf5a01e5c2aa724f3c1e96e</title>
<g id="a_node2"><a xlink:href="dir_637a76a7abf5a01e5c2aa724f3c1e96e.html" target="_top" xlink:title="afio">
<polygon fill="white" stroke="red" points="54,-180 0,-180 0,-144 54,-144 54,-180"/>
<text text-anchor="middle" x="27" y="-159.5" font-family="FreeSans" font-size="10.00">afio</text>
</a>
</g>
</g>
<!-- dir_fb738a07a661f1b5bb3ba111f0d8789d&#45;&gt;dir_637a76a7abf5a01e5c2aa724f3c1e96e -->
<g id="edge1" class="edge">
<title>dir_fb738a07a661f1b5bb3ba111f0d8789d&#45;&gt;dir_637a76a7abf5a01e5c2aa724f3c1e96e</title>
<path fill="none" stroke="black" d="M88.73,-215.7C78.5,-206.97 65.94,-196.24 54.82,-186.75"/>
<polygon fill="black" stroke="black" points="56.91,-183.94 47.04,-180.1 52.37,-189.26 56.91,-183.94"/>
<g id="a_edge1&#45;headlabel"><a xlink:href="dir_000032_000022.html" target="_top" xlink:title="1">
<text text-anchor="middle" x="61.49" y="-181.61" font-family="FreeSans" font-size="10.00">1</text>
</a>
</g>
</g>
<!-- dir_758df28fbdbb54fb46d6d3d6484a4984 -->
<g id="node3" class="node">
<title>dir_758df28fbdbb54fb46d6d3d6484a4984</title>
<g id="a_node3"><a xlink:href="dir_758df28fbdbb54fb46d6d3d6484a4984.html" target="_top" xlink:title="msg">
<polygon fill="white" stroke="red" points="136,-36 82,-36 82,0 136,0 136,-36"/>
<text text-anchor="middle" x="109" y="-15.5" font-family="FreeSans" font-size="10.00">msg</text>
</a>
</g>
</g>
<!-- dir_fb738a07a661f1b5bb3ba111f0d8789d&#45;&gt;dir_758df28fbdbb54fb46d6d3d6484a4984 -->
<g id="edge2" class="edge">
<title>dir_fb738a07a661f1b5bb3ba111f0d8789d&#45;&gt;dir_758df28fbdbb54fb46d6d3d6484a4984</title>
<path fill="none" stroke="black" d="M136.1,-218.39C149.89,-209.34 165.33,-196.32 173,-180 179.81,-165.52 176.68,-159.57 173,-144 164.31,-107.18 142.64,-69.07 126.92,-44.76"/>
<polygon fill="black" stroke="black" points="129.66,-42.56 121.22,-36.15 123.82,-46.42 129.66,-42.56"/>
<g id="a_edge2&#45;headlabel"><a xlink:href="dir_000032_000144.html" target="_top" xlink:title="1">
<text text-anchor="middle" x="134.01" y="-41.49" font-family="FreeSans" font-size="10.00">1</text>
</a>
</g>
</g>
<!-- dir_cb2d4e92f47691559fc9d122a5e37fac -->
<g id="node4" class="node">
<title>dir_cb2d4e92f47691559fc9d122a5e37fac</title>
<g id="a_node4"><a xlink:href="dir_cb2d4e92f47691559fc9d122a5e37fac.html" target="_top" xlink:title="mk4util">
<polygon fill="white" stroke="red" points="109,-108 55,-108 55,-72 109,-72 109,-108"/>
<text text-anchor="middle" x="82" y="-87.5" font-family="FreeSans" font-size="10.00">mk4util</text>
</a>
</g>
</g>
<!-- dir_fb738a07a661f1b5bb3ba111f0d8789d&#45;&gt;dir_cb2d4e92f47691559fc9d122a5e37fac -->
<g id="edge3" class="edge">
<title>dir_fb738a07a661f1b5bb3ba111f0d8789d&#45;&gt;dir_cb2d4e92f47691559fc9d122a5e37fac</title>
<path fill="none" stroke="black" d="M105.74,-215.87C101.14,-191.67 92.69,-147.21 87.21,-118.39"/>
<polygon fill="black" stroke="black" points="90.57,-117.36 85.27,-108.19 83.7,-118.67 90.57,-117.36"/>
<g id="a_edge3&#45;headlabel"><a xlink:href="dir_000032_000014.html" target="_top" xlink:title="1">
<text text-anchor="middle" x="94.04" y="-117.86" font-family="FreeSans" font-size="10.00">1</text>
</a>
</g>
</g>
<!-- dir_db8d68003073a61b7114dbc4f792cfed -->
<g id="node5" class="node">
<title>dir_db8d68003073a61b7114dbc4f792cfed</title>
<g id="a_node5"><a xlink:href="dir_db8d68003073a61b7114dbc4f792cfed.html" target="_top" xlink:title="dfio">
<polygon fill="white" stroke="red" points="164,-180 110,-180 110,-144 164,-144 164,-180"/>
<text text-anchor="middle" x="137" y="-159.5" font-family="FreeSans" font-size="10.00">dfio</text>
</a>
</g>
</g>
<!-- dir_fb738a07a661f1b5bb3ba111f0d8789d&#45;&gt;dir_db8d68003073a61b7114dbc4f792cfed -->
<g id="edge4" class="edge">
<title>dir_fb738a07a661f1b5bb3ba111f0d8789d&#45;&gt;dir_db8d68003073a61b7114dbc4f792cfed</title>
<path fill="none" stroke="black" d="M115.92,-215.7C119.07,-207.81 122.88,-198.3 126.38,-189.55"/>
<polygon fill="black" stroke="black" points="129.69,-190.69 130.16,-180.1 123.19,-188.09 129.69,-190.69"/>
<g id="a_edge4&#45;headlabel"><a xlink:href="dir_000032_000024.html" target="_top" xlink:title="1">
<text text-anchor="middle" x="131" y="-192.58" font-family="FreeSans" font-size="10.00">1</text>
</a>
</g>
</g>
<!-- dir_637a76a7abf5a01e5c2aa724f3c1e96e&#45;&gt;dir_758df28fbdbb54fb46d6d3d6484a4984 -->
<g id="edge7" class="edge">
<title>dir_637a76a7abf5a01e5c2aa724f3c1e96e&#45;&gt;dir_758df28fbdbb54fb46d6d3d6484a4984</title>
<path fill="none" stroke="black" d="M27.41,-143.73C28.56,-124.86 32.58,-94.35 46,-72 52.91,-60.49 63.23,-50.3 73.52,-42"/>
<polygon fill="black" stroke="black" points="75.87,-44.61 81.71,-35.76 71.63,-39.04 75.87,-44.61"/>
<g id="a_edge7&#45;headlabel"><a xlink:href="dir_000022_000144.html" target="_top" xlink:title="1">
<text text-anchor="middle" x="74.74" y="-46.54" font-family="FreeSans" font-size="10.00">1</text>
</a>
</g>
</g>
<!-- dir_637a76a7abf5a01e5c2aa724f3c1e96e&#45;&gt;dir_cb2d4e92f47691559fc9d122a5e37fac -->
<g id="edge6" class="edge">
<title>dir_637a76a7abf5a01e5c2aa724f3c1e96e&#45;&gt;dir_cb2d4e92f47691559fc9d122a5e37fac</title>
<path fill="none" stroke="black" d="M40.6,-143.7C47.12,-135.39 55.07,-125.28 62.25,-116.14"/>
<polygon fill="black" stroke="black" points="65.13,-118.13 68.56,-108.1 59.63,-113.81 65.13,-118.13"/>
<g id="a_edge6&#45;headlabel"><a xlink:href="dir_000022_000014.html" target="_top" xlink:title="17">
<text text-anchor="middle" x="65.15" y="-120.21" font-family="FreeSans" font-size="10.00">17</text>
</a>
</g>
</g>
<!-- dir_cb2d4e92f47691559fc9d122a5e37fac&#45;&gt;dir_758df28fbdbb54fb46d6d3d6484a4984 -->
<g id="edge5" class="edge">
<title>dir_cb2d4e92f47691559fc9d122a5e37fac&#45;&gt;dir_758df28fbdbb54fb46d6d3d6484a4984</title>
<path fill="none" stroke="black" d="M88.67,-71.7C91.71,-63.81 95.38,-54.3 98.76,-45.55"/>
<polygon fill="black" stroke="black" points="102.07,-46.69 102.4,-36.1 95.54,-44.17 102.07,-46.69"/>
<g id="a_edge5&#45;headlabel"><a xlink:href="dir_000014_000144.html" target="_top" xlink:title="3">
<text text-anchor="middle" x="103.42" y="-48.57" font-family="FreeSans" font-size="10.00">3</text>
</a>
</g>
</g>
<!-- dir_db8d68003073a61b7114dbc4f792cfed&#45;&gt;dir_758df28fbdbb54fb46d6d3d6484a4984 -->
<g id="edge9" class="edge">
<title>dir_db8d68003073a61b7114dbc4f792cfed&#45;&gt;dir_758df28fbdbb54fb46d6d3d6484a4984</title>
<path fill="none" stroke="black" d="M133.62,-143.87C128.83,-119.56 120.01,-74.82 114.33,-46.01"/>
<polygon fill="black" stroke="black" points="117.76,-45.32 112.39,-36.19 110.89,-46.68 117.76,-45.32"/>
<g id="a_edge9&#45;headlabel"><a xlink:href="dir_000024_000144.html" target="_top" xlink:title="1">
<text text-anchor="middle" x="121.24" y="-45.8" font-family="FreeSans" font-size="10.00">1</text>
</a>
</g>
</g>
<!-- dir_db8d68003073a61b7114dbc4f792cfed&#45;&gt;dir_cb2d4e92f47691559fc9d122a5e37fac -->
<g id="edge8" class="edge">
<title>dir_db8d68003073a61b7114dbc4f792cfed&#45;&gt;dir_cb2d4e92f47691559fc9d122a5e37fac</title>
<path fill="none" stroke="black" d="M123.4,-143.7C116.88,-135.39 108.93,-125.28 101.75,-116.14"/>
<polygon fill="black" stroke="black" points="104.37,-113.81 95.44,-108.1 98.87,-118.13 104.37,-113.81"/>
<g id="a_edge8&#45;headlabel"><a xlink:href="dir_000024_000014.html" target="_top" xlink:title="117">
<text text-anchor="middle" x="108.82" y="-112.38" font-family="FreeSans" font-size="10.00">117</text>
</a>
</g>
</g>
</g>
</svg>
