<?xml version="1.0" encoding="UTF-8" standalone="no"?>
<!DOCTYPE svg PUBLIC "-//W3C//DTD SVG 1.1//EN"
 "http://www.w3.org/Graphics/SVG/1.1/DTD/svg11.dtd">
<!-- Generated by graphviz version 2.43.0 (0)
 -->
<!-- Title: Utilities Pages: 1 -->
<svg width="244pt" height="247pt"
 viewBox="0.00 0.00 244.00 247.00" xmlns="http://www.w3.org/2000/svg" xmlns:xlink="http://www.w3.org/1999/xlink">
<g id="graph0" class="graph" transform="scale(1 1) rotate(0) translate(4 243)">
<title>Utilities</title>
<polygon fill="white" stroke="transparent" points="-4,4 -4,-243 240,-243 240,4 -4,4"/>
<g id="clust1" class="cluster">
<title>clusterdir_730935399589b544a579302a37a46c03</title>
<g id="a_clust1"><a xlink:href="dir_730935399589b544a579302a37a46c03.html" target="_top" xlink:title="cpp_src">
<polygon fill="#ddddee" stroke="black" points="8,-8 8,-231 228,-231 228,-8 8,-8"/>
<text text-anchor="middle" x="118" y="-219" font-family="FreeSans" font-size="10.00">cpp_src</text>
</a>
</g>
</g>
<g id="clust2" class="cluster">
<title>clusterdir_150f406a44a04ce55518da03ec553ece</title>
<g id="a_clust2"><a xlink:href="dir_150f406a44a04ce55518da03ec553ece.html" target="_top">
<polygon fill="#eeeeff" stroke="black" points="78,-80 78,-204 220,-204 220,-80 78,-80"/>
</a>
</g>
</g>
<!-- dir_32348ece3c89569e6a714937ae854c89 -->
<g id="node1" class="node">
<title>dir_32348ece3c89569e6a714937ae854c89</title>
<g id="a_node1"><a xlink:href="dir_32348ece3c89569e6a714937ae854c89.html" target="_top" xlink:title="Message">
<polygon fill="white" stroke="red" points="143,-52 87,-52 87,-16 143,-16 143,-52"/>
<text text-anchor="middle" x="115" y="-31.5" font-family="FreeSans" font-size="10.00">Message</text>
</a>
</g>
</g>
<!-- dir_ff42852cc454de79d2ecb9482f4de9d8 -->
<g id="node2" class="node">
<title>dir_ff42852cc454de79d2ecb9482f4de9d8</title>
<g id="a_node2"><a xlink:href="dir_ff42852cc454de79d2ecb9482f4de9d8.html" target="_top" xlink:title="Math">
<polygon fill="white" stroke="red" points="70,-124 16,-124 16,-88 70,-88 70,-124"/>
<text text-anchor="middle" x="43" y="-103.5" font-family="FreeSans" font-size="10.00">Math</text>
</a>
</g>
</g>
<!-- dir_ff42852cc454de79d2ecb9482f4de9d8&#45;&gt;dir_32348ece3c89569e6a714937ae854c89 -->
<g id="edge5" class="edge">
<title>dir_ff42852cc454de79d2ecb9482f4de9d8&#45;&gt;dir_32348ece3c89569e6a714937ae854c89</title>
<path fill="none" stroke="black" d="M60.8,-87.7C69.6,-79.14 80.38,-68.66 90,-59.3"/>
<polygon fill="black" stroke="black" points="92.68,-61.58 97.41,-52.1 87.8,-56.57 92.68,-61.58"/>
<g id="a_edge5&#45;headlabel"><a xlink:href="dir_000099_000123.html" target="_top" xlink:title="6">
<text text-anchor="middle" x="92.08" y="-63.63" font-family="FreeSans" font-size="10.00">6</text>
</a>
</g>
</g>
<!-- dir_2b079398b01ef0bdbabf5f6e7923d5d6 -->
<g id="node4" class="node">
<title>dir_2b079398b01ef0bdbabf5f6e7923d5d6</title>
<g id="a_node4"><a xlink:href="dir_2b079398b01ef0bdbabf5f6e7923d5d6.html" target="_top" xlink:title="include">
<polygon fill="white" stroke="black" points="142,-124 88,-124 88,-88 142,-88 142,-124"/>
<text text-anchor="middle" x="115" y="-103.5" font-family="FreeSans" font-size="10.00">include</text>
</a>
</g>
</g>
<!-- dir_ff42852cc454de79d2ecb9482f4de9d8&#45;&gt;dir_2b079398b01ef0bdbabf5f6e7923d5d6 -->
<g id="edge6" class="edge">
<title>dir_ff42852cc454de79d2ecb9482f4de9d8&#45;&gt;dir_2b079398b01ef0bdbabf5f6e7923d5d6</title>
<path fill="none" stroke="black" d="M70.28,-106C72.74,-106 75.19,-106 77.65,-106"/>
<polygon fill="black" stroke="black" points="77.75,-109.5 87.75,-106 77.75,-102.5 77.75,-109.5"/>
<g id="a_edge6&#45;headlabel"><a xlink:href="dir_000099_000087.html" target="_top" xlink:title="1">
<text text-anchor="middle" x="74.15" y="-109.84" font-family="FreeSans" font-size="10.00">1</text>
</a>
</g>
</g>
<!-- dir_150f406a44a04ce55518da03ec553ece -->
<g id="node3" class="node">
<title>dir_150f406a44a04ce55518da03ec553ece</title>
<text text-anchor="middle" x="185" y="-175.5" font-family="FreeSans" font-size="10.00">Utilities</text>
</g>
<!-- dir_2b079398b01ef0bdbabf5f6e7923d5d6&#45;&gt;dir_32348ece3c89569e6a714937ae854c89 -->
<g id="edge1" class="edge">
<title>dir_2b079398b01ef0bdbabf5f6e7923d5d6&#45;&gt;dir_32348ece3c89569e6a714937ae854c89</title>
<path fill="none" stroke="black" d="M115,-87.7C115,-79.98 115,-70.71 115,-62.11"/>
<polygon fill="black" stroke="black" points="118.5,-62.1 115,-52.1 111.5,-62.1 118.5,-62.1"/>
<g id="a_edge1&#45;headlabel"><a xlink:href="dir_000087_000123.html" target="_top" xlink:title="10">
<text text-anchor="middle" x="121.34" y="-63.2" font-family="FreeSans" font-size="10.00">10</text>
</a>
</g>
</g>
<!-- dir_2b079398b01ef0bdbabf5f6e7923d5d6&#45;&gt;dir_ff42852cc454de79d2ecb9482f4de9d8 -->
<g id="edge2" class="edge">
<title>dir_2b079398b01ef0bdbabf5f6e7923d5d6&#45;&gt;dir_ff42852cc454de79d2ecb9482f4de9d8</title>
<path fill="none" stroke="black" d="M87.75,-106C85.29,-106 82.84,-106 80.38,-106"/>
<polygon fill="black" stroke="black" points="80.28,-102.5 70.28,-106 80.28,-109.5 80.28,-102.5"/>
<g id="a_edge2&#45;headlabel"><a xlink:href="dir_000087_000099.html" target="_top" xlink:title="1">
<text text-anchor="middle" x="83.88" y="-97.16" font-family="FreeSans" font-size="10.00">1</text>
</a>
</g>
</g>
<!-- dir_d96677c2549b121793cb8317322e2192 -->
<g id="node5" class="node">
<title>dir_d96677c2549b121793cb8317322e2192</title>
<g id="a_node5"><a xlink:href="dir_d96677c2549b121793cb8317322e2192.html" target="_top" xlink:title="src">
<polygon fill="white" stroke="black" points="140,-196 86,-196 86,-160 140,-160 140,-196"/>
<text text-anchor="middle" x="113" y="-175.5" font-family="FreeSans" font-size="10.00">src</text>
</a>
</g>
</g>
<!-- dir_d96677c2549b121793cb8317322e2192&#45;&gt;dir_32348ece3c89569e6a714937ae854c89 -->
<g id="edge4" class="edge">
<title>dir_d96677c2549b121793cb8317322e2192&#45;&gt;dir_32348ece3c89569e6a714937ae854c89</title>
<path fill="none" stroke="black" d="M129.46,-159.92C137.65,-150.22 146.7,-137.37 151,-124 156.98,-105.38 157.47,-98.45 151,-80 148.5,-72.86 144.33,-66.01 139.7,-59.91"/>
<polygon fill="black" stroke="black" points="142.29,-57.55 133.22,-52.08 136.9,-62.01 142.29,-57.55"/>
<g id="a_edge4&#45;headlabel"><a xlink:href="dir_000098_000123.html" target="_top" xlink:title="3">
<text text-anchor="middle" x="146.77" y="-56" font-family="FreeSans" font-size="10.00">3</text>
</a>
</g>
</g>
<!-- dir_d96677c2549b121793cb8317322e2192&#45;&gt;dir_2b079398b01ef0bdbabf5f6e7923d5d6 -->
<g id="edge3" class="edge">
<title>dir_d96677c2549b121793cb8317322e2192&#45;&gt;dir_2b079398b01ef0bdbabf5f6e7923d5d6</title>
<path fill="none" stroke="black" d="M113.49,-159.7C113.71,-151.98 113.98,-142.71 114.23,-134.11"/>
<polygon fill="black" stroke="black" points="117.72,-134.2 114.51,-124.1 110.73,-134 117.72,-134.2"/>
<g id="a_edge3&#45;headlabel"><a xlink:href="dir_000098_000087.html" target="_top" xlink:title="12">
<text text-anchor="middle" x="120.46" y="-135.37" font-family="FreeSans" font-size="10.00">12</text>
</a>
</g>
</g>
</g>
</svg>
