<?xml version="1.0" encoding="UTF-8" standalone="no"?>
<!DOCTYPE svg PUBLIC "-//W3C//DTD SVG 1.1//EN"
 "http://www.w3.org/Graphics/SVG/1.1/DTD/svg11.dtd">
<!-- Generated by graphviz version 2.43.0 (0)
 -->
<!-- Title: Fringe Pages: 1 -->
<svg width="456pt" height="607pt"
 viewBox="0.00 0.00 456.00 607.00" xmlns="http://www.w3.org/2000/svg" xmlns:xlink="http://www.w3.org/1999/xlink">
<g id="graph0" class="graph" transform="scale(1 1) rotate(0) translate(4 603)">
<title>Fringe</title>
<polygon fill="white" stroke="transparent" points="-4,4 -4,-603 452,-603 452,4 -4,4"/>
<g id="clust1" class="cluster">
<title>clusterdir_730935399589b544a579302a37a46c03</title>
<g id="a_clust1"><a xlink:href="dir_730935399589b544a579302a37a46c03.html" target="_top" xlink:title="cpp_src">
<polygon fill="#ddddee" stroke="black" points="8,-8 8,-591 440,-591 440,-8 8,-8"/>
<text text-anchor="middle" x="224" y="-579" font-family="FreeSans" font-size="10.00">cpp_src</text>
</a>
</g>
</g>
<g id="clust2" class="cluster">
<title>clusterdir_d14d15cadc30134a390deae00e4dfae9</title>
<g id="a_clust2"><a xlink:href="dir_d14d15cadc30134a390deae00e4dfae9.html" target="_top">
<polygon fill="#eeeeff" stroke="black" points="183,-440 183,-564 325,-564 325,-440 183,-440"/>
</a>
</g>
</g>
<!-- dir_150f406a44a04ce55518da03ec553ece -->
<g id="node1" class="node">
<title>dir_150f406a44a04ce55518da03ec553ece</title>
<g id="a_node1"><a xlink:href="dir_150f406a44a04ce55518da03ec553ece.html" target="_top" xlink:title="Utilities">
<polygon fill="white" stroke="red" points="252,-196 198,-196 198,-160 252,-160 252,-196"/>
<text text-anchor="middle" x="225" y="-175.5" font-family="FreeSans" font-size="10.00">Utilities</text>
</a>
</g>
</g>
<!-- dir_32348ece3c89569e6a714937ae854c89 -->
<g id="node2" class="node">
<title>dir_32348ece3c89569e6a714937ae854c89</title>
<g id="a_node2"><a xlink:href="dir_32348ece3c89569e6a714937ae854c89.html" target="_top" xlink:title="Message">
<polygon fill="white" stroke="red" points="221,-52 165,-52 165,-16 221,-16 221,-52"/>
<text text-anchor="middle" x="193" y="-31.5" font-family="FreeSans" font-size="10.00">Message</text>
</a>
</g>
</g>
<!-- dir_150f406a44a04ce55518da03ec553ece&#45;&gt;dir_32348ece3c89569e6a714937ae854c89 -->
<g id="edge14" class="edge">
<title>dir_150f406a44a04ce55518da03ec553ece&#45;&gt;dir_32348ece3c89569e6a714937ae854c89</title>
<path fill="none" stroke="black" d="M216.39,-159.76C211.69,-149.6 206.19,-136.35 203,-124 197.76,-103.71 195.27,-80.11 194.08,-62.32"/>
<polygon fill="black" stroke="black" points="197.57,-62.11 193.51,-52.32 190.58,-62.51 197.57,-62.11"/>
<g id="a_edge14&#45;headlabel"><a xlink:href="dir_000086_000123.html" target="_top" xlink:title="13">
<text text-anchor="middle" x="200.61" y="-63.03" font-family="FreeSans" font-size="10.00">13</text>
</a>
</g>
</g>
<!-- dir_ff42852cc454de79d2ecb9482f4de9d8 -->
<g id="node7" class="node">
<title>dir_ff42852cc454de79d2ecb9482f4de9d8</title>
<g id="a_node7"><a xlink:href="dir_ff42852cc454de79d2ecb9482f4de9d8.html" target="_top" xlink:title="Math">
<polygon fill="white" stroke="red" points="266,-124 212,-124 212,-88 266,-88 266,-124"/>
<text text-anchor="middle" x="239" y="-103.5" font-family="FreeSans" font-size="10.00">Math</text>
</a>
</g>
</g>
<!-- dir_150f406a44a04ce55518da03ec553ece&#45;&gt;dir_ff42852cc454de79d2ecb9482f4de9d8 -->
<g id="edge15" class="edge">
<title>dir_150f406a44a04ce55518da03ec553ece&#45;&gt;dir_ff42852cc454de79d2ecb9482f4de9d8</title>
<path fill="none" stroke="black" d="M222.54,-159.7C223.3,-151.9 224.96,-142.51 227.05,-133.83"/>
<polygon fill="black" stroke="black" points="230.45,-134.67 229.68,-124.1 223.69,-132.84 230.45,-134.67"/>
<g id="a_edge15&#45;headlabel"><a xlink:href="dir_000086_000099.html" target="_top" xlink:title="1">
<text text-anchor="middle" x="232.25" y="-136.38" font-family="FreeSans" font-size="10.00">1</text>
</a>
</g>
</g>
<!-- dir_a06008c3e245d1092ba6894d6caedef2 -->
<g id="node3" class="node">
<title>dir_a06008c3e245d1092ba6894d6caedef2</title>
<g id="a_node3"><a xlink:href="dir_a06008c3e245d1092ba6894d6caedef2.html" target="_top" xlink:title="Containers">
<polygon fill="white" stroke="red" points="139.5,-268 76.5,-268 76.5,-232 139.5,-232 139.5,-268"/>
<text text-anchor="middle" x="108" y="-247.5" font-family="FreeSans" font-size="10.00">Containers</text>
</a>
</g>
</g>
<!-- dir_a06008c3e245d1092ba6894d6caedef2&#45;&gt;dir_150f406a44a04ce55518da03ec553ece -->
<g id="edge6" class="edge">
<title>dir_a06008c3e245d1092ba6894d6caedef2&#45;&gt;dir_150f406a44a04ce55518da03ec553ece</title>
<path fill="none" stroke="black" d="M136.62,-231.88C152.38,-222.45 172.08,-210.66 188.89,-200.61"/>
<polygon fill="black" stroke="black" points="191.1,-203.36 197.88,-195.23 187.5,-197.36 191.1,-203.36"/>
<g id="a_edge6&#45;headlabel"><a xlink:href="dir_000096_000086.html" target="_top" xlink:title="42">
<text text-anchor="middle" x="189.47" y="-205.15" font-family="FreeSans" font-size="10.00">42</text>
</a>
</g>
</g>
<!-- dir_a06008c3e245d1092ba6894d6caedef2&#45;&gt;dir_32348ece3c89569e6a714937ae854c89 -->
<g id="edge7" class="edge">
<title>dir_a06008c3e245d1092ba6894d6caedef2&#45;&gt;dir_32348ece3c89569e6a714937ae854c89</title>
<path fill="none" stroke="black" d="M110.83,-231.82C116.25,-201.57 129.79,-137.32 154,-88 158.76,-78.31 165.32,-68.55 171.7,-60.1"/>
<polygon fill="black" stroke="black" points="174.53,-62.15 177.95,-52.12 169.03,-57.83 174.53,-62.15"/>
<g id="a_edge7&#45;headlabel"><a xlink:href="dir_000096_000123.html" target="_top" xlink:title="9">
<text text-anchor="middle" x="174.55" y="-64.23" font-family="FreeSans" font-size="10.00">9</text>
</a>
</g>
</g>
<!-- dir_4546011bd625f1142c4c4ae06dcdb5ba -->
<g id="node4" class="node">
<title>dir_4546011bd625f1142c4c4ae06dcdb5ba</title>
<g id="a_node4"><a xlink:href="dir_4546011bd625f1142c4c4ae06dcdb5ba.html" target="_top" xlink:title="Operators">
<polygon fill="white" stroke="red" points="195.5,-340 136.5,-340 136.5,-304 195.5,-304 195.5,-340"/>
<text text-anchor="middle" x="166" y="-319.5" font-family="FreeSans" font-size="10.00">Operators</text>
</a>
</g>
</g>
<!-- dir_4546011bd625f1142c4c4ae06dcdb5ba&#45;&gt;dir_150f406a44a04ce55518da03ec553ece -->
<g id="edge10" class="edge">
<title>dir_4546011bd625f1142c4c4ae06dcdb5ba&#45;&gt;dir_150f406a44a04ce55518da03ec553ece</title>
<path fill="none" stroke="black" d="M173.12,-303.87C183.26,-279.46 201.97,-234.43 213.93,-205.64"/>
<polygon fill="black" stroke="black" points="217.25,-206.77 217.86,-196.19 210.79,-204.08 217.25,-206.77"/>
<g id="a_edge10&#45;headlabel"><a xlink:href="dir_000089_000086.html" target="_top" xlink:title="5">
<text text-anchor="middle" x="218.5" y="-208.68" font-family="FreeSans" font-size="10.00">5</text>
</a>
</g>
</g>
<!-- dir_4546011bd625f1142c4c4ae06dcdb5ba&#45;&gt;dir_32348ece3c89569e6a714937ae854c89 -->
<g id="edge11" class="edge">
<title>dir_4546011bd625f1142c4c4ae06dcdb5ba&#45;&gt;dir_32348ece3c89569e6a714937ae854c89</title>
<path fill="none" stroke="black" d="M165.19,-303.82C164.74,-293.45 164.23,-279.97 164,-268 163.7,-252 163.01,-247.97 164,-232 167.8,-170.92 180.21,-100.11 187.51,-62.24"/>
<polygon fill="black" stroke="black" points="191.02,-62.51 189.51,-52.03 184.15,-61.17 191.02,-62.51"/>
<g id="a_edge11&#45;headlabel"><a xlink:href="dir_000089_000123.html" target="_top" xlink:title="12">
<text text-anchor="middle" x="193.12" y="-64.09" font-family="FreeSans" font-size="10.00">12</text>
</a>
</g>
</g>
<!-- dir_4546011bd625f1142c4c4ae06dcdb5ba&#45;&gt;dir_a06008c3e245d1092ba6894d6caedef2 -->
<g id="edge12" class="edge">
<title>dir_4546011bd625f1142c4c4ae06dcdb5ba&#45;&gt;dir_a06008c3e245d1092ba6894d6caedef2</title>
<path fill="none" stroke="black" d="M151.66,-303.7C144.71,-295.3 136.23,-285.07 128.6,-275.86"/>
<polygon fill="black" stroke="black" points="131.25,-273.57 122.17,-268.1 125.86,-278.04 131.25,-273.57"/>
<g id="a_edge12&#45;headlabel"><a xlink:href="dir_000089_000096.html" target="_top" xlink:title="22">
<text text-anchor="middle" x="135.73" y="-272.03" font-family="FreeSans" font-size="10.00">22</text>
</a>
</g>
</g>
<!-- dir_4546011bd625f1142c4c4ae06dcdb5ba&#45;&gt;dir_ff42852cc454de79d2ecb9482f4de9d8 -->
<g id="edge13" class="edge">
<title>dir_4546011bd625f1142c4c4ae06dcdb5ba&#45;&gt;dir_ff42852cc454de79d2ecb9482f4de9d8</title>
<path fill="none" stroke="black" d="M165.14,-303.57C164.34,-272.92 165.83,-208.07 189,-160 194.09,-149.44 202.04,-139.59 210.12,-131.31"/>
<polygon fill="black" stroke="black" points="212.74,-133.64 217.5,-124.17 207.87,-128.61 212.74,-133.64"/>
<g id="a_edge13&#45;headlabel"><a xlink:href="dir_000089_000099.html" target="_top" xlink:title="8">
<text text-anchor="middle" x="212.13" y="-135.68" font-family="FreeSans" font-size="10.00">8</text>
</a>
</g>
</g>
<!-- dir_b8ce078ed9f8fd90d71e02c796d93353 -->
<g id="node5" class="node">
<title>dir_b8ce078ed9f8fd90d71e02c796d93353</title>
<g id="a_node5"><a xlink:href="dir_b8ce078ed9f8fd90d71e02c796d93353.html" target="_top" xlink:title="Initialization">
<polygon fill="white" stroke="red" points="153,-484 85,-484 85,-448 153,-448 153,-484"/>
<text text-anchor="middle" x="119" y="-463.5" font-family="FreeSans" font-size="10.00">Initialization</text>
</a>
</g>
</g>
<!-- dir_b8ce078ed9f8fd90d71e02c796d93353&#45;&gt;dir_150f406a44a04ce55518da03ec553ece -->
<g id="edge16" class="edge">
<title>dir_b8ce078ed9f8fd90d71e02c796d93353&#45;&gt;dir_150f406a44a04ce55518da03ec553ece</title>
<path fill="none" stroke="black" d="M106.92,-447.96C79.35,-406.79 17.87,-300.3 67,-232 94.33,-194 150.23,-182.86 187.66,-179.81"/>
<polygon fill="black" stroke="black" points="187.94,-183.3 197.69,-179.15 187.48,-176.32 187.94,-183.3"/>
<g id="a_edge16&#45;headlabel"><a xlink:href="dir_000104_000086.html" target="_top" xlink:title="44">
<text text-anchor="middle" x="184.54" y="-183.87" font-family="FreeSans" font-size="10.00">44</text>
</a>
</g>
</g>
<!-- dir_b8ce078ed9f8fd90d71e02c796d93353&#45;&gt;dir_32348ece3c89569e6a714937ae854c89 -->
<g id="edge17" class="edge">
<title>dir_b8ce078ed9f8fd90d71e02c796d93353&#45;&gt;dir_32348ece3c89569e6a714937ae854c89</title>
<path fill="none" stroke="black" d="M96.99,-447.87C86.03,-438.34 73.37,-425.66 65,-412 43.33,-376.64 37,-364.47 37,-323 37,-323 37,-323 37,-177 37,-113.23 109.16,-70.52 155.33,-49.72"/>
<polygon fill="black" stroke="black" points="156.98,-52.82 164.75,-45.61 154.18,-46.4 156.98,-52.82"/>
<g id="a_edge17&#45;headlabel"><a xlink:href="dir_000104_000123.html" target="_top" xlink:title="3">
<text text-anchor="middle" x="154.82" y="-54.36" font-family="FreeSans" font-size="10.00">3</text>
</a>
</g>
</g>
<!-- dir_b8ce078ed9f8fd90d71e02c796d93353&#45;&gt;dir_a06008c3e245d1092ba6894d6caedef2 -->
<g id="edge19" class="edge">
<title>dir_b8ce078ed9f8fd90d71e02c796d93353&#45;&gt;dir_a06008c3e245d1092ba6894d6caedef2</title>
<path fill="none" stroke="black" d="M117.97,-447.61C116.54,-423.47 113.94,-378.42 112,-340 110.95,-319.28 109.91,-295.83 109.15,-278.21"/>
<polygon fill="black" stroke="black" points="112.64,-277.91 108.71,-268.06 105.64,-278.21 112.64,-277.91"/>
<g id="a_edge19&#45;headlabel"><a xlink:href="dir_000104_000096.html" target="_top" xlink:title="7">
<text text-anchor="middle" x="115.63" y="-278.88" font-family="FreeSans" font-size="10.00">7</text>
</a>
</g>
</g>
<!-- dir_b8ce078ed9f8fd90d71e02c796d93353&#45;&gt;dir_4546011bd625f1142c4c4ae06dcdb5ba -->
<g id="edge18" class="edge">
<title>dir_b8ce078ed9f8fd90d71e02c796d93353&#45;&gt;dir_4546011bd625f1142c4c4ae06dcdb5ba</title>
<path fill="none" stroke="black" d="M123.52,-447.79C128.37,-429.75 136.53,-400.66 145,-376 148,-367.25 151.61,-357.83 154.98,-349.39"/>
<polygon fill="black" stroke="black" points="158.26,-350.62 158.78,-340.04 151.78,-347.98 158.26,-350.62"/>
<g id="a_edge18&#45;headlabel"><a xlink:href="dir_000104_000089.html" target="_top" xlink:title="4">
<text text-anchor="middle" x="159.54" y="-352.52" font-family="FreeSans" font-size="10.00">4</text>
</a>
</g>
</g>
<!-- dir_91ae3e556fa9cad9030b784323206cc7 -->
<g id="node6" class="node">
<title>dir_91ae3e556fa9cad9030b784323206cc7</title>
<g id="a_node6"><a xlink:href="dir_91ae3e556fa9cad9030b784323206cc7.html" target="_top" xlink:title="Calibration">
<polygon fill="white" stroke="red" points="291,-412 229,-412 229,-376 291,-376 291,-412"/>
<text text-anchor="middle" x="260" y="-391.5" font-family="FreeSans" font-size="10.00">Calibration</text>
</a>
</g>
</g>
<!-- dir_b8ce078ed9f8fd90d71e02c796d93353&#45;&gt;dir_91ae3e556fa9cad9030b784323206cc7 -->
<g id="edge20" class="edge">
<title>dir_b8ce078ed9f8fd90d71e02c796d93353&#45;&gt;dir_91ae3e556fa9cad9030b784323206cc7</title>
<path fill="none" stroke="black" d="M153.13,-448.05C173.15,-438.12 198.56,-425.5 219.58,-415.07"/>
<polygon fill="black" stroke="black" points="221.19,-418.17 228.59,-410.59 218.08,-411.9 221.19,-418.17"/>
<g id="a_edge20&#45;headlabel"><a xlink:href="dir_000104_000102.html" target="_top" xlink:title="17">
<text text-anchor="middle" x="219.23" y="-419.82" font-family="FreeSans" font-size="10.00">17</text>
</a>
</g>
</g>
<!-- dir_91ae3e556fa9cad9030b784323206cc7&#45;&gt;dir_150f406a44a04ce55518da03ec553ece -->
<g id="edge2" class="edge">
<title>dir_91ae3e556fa9cad9030b784323206cc7&#45;&gt;dir_150f406a44a04ce55518da03ec553ece</title>
<path fill="none" stroke="black" d="M257.19,-375.85C251.13,-338.75 236.74,-250.81 229.43,-206.1"/>
<polygon fill="black" stroke="black" points="232.89,-205.54 227.82,-196.23 225.98,-206.67 232.89,-205.54"/>
<g id="a_edge2&#45;headlabel"><a xlink:href="dir_000102_000086.html" target="_top" xlink:title="29">
<text text-anchor="middle" x="236.27" y="-206.13" font-family="FreeSans" font-size="10.00">29</text>
</a>
</g>
</g>
<!-- dir_91ae3e556fa9cad9030b784323206cc7&#45;&gt;dir_32348ece3c89569e6a714937ae854c89 -->
<g id="edge1" class="edge">
<title>dir_91ae3e556fa9cad9030b784323206cc7&#45;&gt;dir_32348ece3c89569e6a714937ae854c89</title>
<path fill="none" stroke="black" d="M266.69,-375.77C284.45,-327.02 327.98,-185.32 275,-88 265.43,-70.41 247.23,-57.77 230.4,-49.26"/>
<polygon fill="black" stroke="black" points="231.8,-46.05 221.26,-44.95 228.81,-52.38 231.8,-46.05"/>
<g id="a_edge1&#45;headlabel"><a xlink:href="dir_000102_000123.html" target="_top" xlink:title="22">
<text text-anchor="middle" x="236.26" y="-42.51" font-family="FreeSans" font-size="10.00">22</text>
</a>
</g>
</g>
<!-- dir_91ae3e556fa9cad9030b784323206cc7&#45;&gt;dir_a06008c3e245d1092ba6894d6caedef2 -->
<g id="edge3" class="edge">
<title>dir_91ae3e556fa9cad9030b784323206cc7&#45;&gt;dir_a06008c3e245d1092ba6894d6caedef2</title>
<path fill="none" stroke="black" d="M252.44,-375.8C243.24,-356.43 226.16,-324.93 204,-304 188.09,-288.97 167.11,-276.75 148.82,-267.85"/>
<polygon fill="black" stroke="black" points="150.08,-264.58 139.54,-263.5 147.11,-270.92 150.08,-264.58"/>
<g id="a_edge3&#45;headlabel"><a xlink:href="dir_000102_000096.html" target="_top" xlink:title="64">
<text text-anchor="middle" x="154.54" y="-261.03" font-family="FreeSans" font-size="10.00">64</text>
</a>
</g>
</g>
<!-- dir_91ae3e556fa9cad9030b784323206cc7&#45;&gt;dir_4546011bd625f1142c4c4ae06dcdb5ba -->
<g id="edge4" class="edge">
<title>dir_91ae3e556fa9cad9030b784323206cc7&#45;&gt;dir_4546011bd625f1142c4c4ae06dcdb5ba</title>
<path fill="none" stroke="black" d="M236.76,-375.7C224.81,-366.8 210.08,-355.82 197.15,-346.2"/>
<polygon fill="black" stroke="black" points="199.08,-343.27 188.97,-340.1 194.9,-348.88 199.08,-343.27"/>
<g id="a_edge4&#45;headlabel"><a xlink:href="dir_000102_000089.html" target="_top" xlink:title="55">
<text text-anchor="middle" x="203.66" y="-340.64" font-family="FreeSans" font-size="10.00">55</text>
</a>
</g>
</g>
<!-- dir_91ae3e556fa9cad9030b784323206cc7&#45;&gt;dir_ff42852cc454de79d2ecb9482f4de9d8 -->
<g id="edge5" class="edge">
<title>dir_91ae3e556fa9cad9030b784323206cc7&#45;&gt;dir_ff42852cc454de79d2ecb9482f4de9d8</title>
<path fill="none" stroke="black" d="M262.39,-375.82C267.31,-336.92 276.81,-239.34 261,-160 259.21,-151.01 255.86,-141.64 252.31,-133.32"/>
<polygon fill="black" stroke="black" points="255.46,-131.77 248.13,-124.12 249.08,-134.67 255.46,-131.77"/>
<g id="a_edge5&#45;headlabel"><a xlink:href="dir_000102_000099.html" target="_top" xlink:title="10">
<text text-anchor="middle" x="259.53" y="-131.37" font-family="FreeSans" font-size="10.00">10</text>
</a>
</g>
</g>
<!-- dir_ff42852cc454de79d2ecb9482f4de9d8&#45;&gt;dir_150f406a44a04ce55518da03ec553ece -->
<g id="edge9" class="edge">
<title>dir_ff42852cc454de79d2ecb9482f4de9d8&#45;&gt;dir_150f406a44a04ce55518da03ec553ece</title>
<path fill="none" stroke="black" d="M241.47,-124.1C240.73,-131.88 239.09,-141.26 237,-149.95"/>
<polygon fill="black" stroke="black" points="233.6,-149.13 234.38,-159.7 240.36,-150.95 233.6,-149.13"/>
<g id="a_edge9&#45;headlabel"><a xlink:href="dir_000099_000086.html" target="_top" xlink:title="1">
<text text-anchor="middle" x="231.79" y="-142.42" font-family="FreeSans" font-size="10.00">1</text>
</a>
</g>
</g>
<!-- dir_ff42852cc454de79d2ecb9482f4de9d8&#45;&gt;dir_32348ece3c89569e6a714937ae854c89 -->
<g id="edge8" class="edge">
<title>dir_ff42852cc454de79d2ecb9482f4de9d8&#45;&gt;dir_32348ece3c89569e6a714937ae854c89</title>
<path fill="none" stroke="black" d="M227.63,-87.7C222.28,-79.56 215.8,-69.69 209.89,-60.7"/>
<polygon fill="black" stroke="black" points="212.66,-58.54 204.24,-52.1 206.81,-62.38 212.66,-58.54"/>
<g id="a_edge8&#45;headlabel"><a xlink:href="dir_000099_000123.html" target="_top" xlink:title="6">
<text text-anchor="middle" x="217" y="-57.48" font-family="FreeSans" font-size="10.00">6</text>
</a>
</g>
</g>
<!-- dir_c845d92bb8a5c5488679fccc6a213ce0 -->
<g id="node8" class="node">
<title>dir_c845d92bb8a5c5488679fccc6a213ce0</title>
<g id="a_node8"><a xlink:href="dir_c845d92bb8a5c5488679fccc6a213ce0.html" target="_top" xlink:title="Control">
<polygon fill="white" stroke="red" points="432,-268 378,-268 378,-232 432,-232 432,-268"/>
<text text-anchor="middle" x="405" y="-247.5" font-family="FreeSans" font-size="10.00">Control</text>
</a>
</g>
</g>
<!-- dir_c845d92bb8a5c5488679fccc6a213ce0&#45;&gt;dir_150f406a44a04ce55518da03ec553ece -->
<g id="edge22" class="edge">
<title>dir_c845d92bb8a5c5488679fccc6a213ce0&#45;&gt;dir_150f406a44a04ce55518da03ec553ece</title>
<path fill="none" stroke="black" d="M377.66,-238.37C346.69,-226.32 296.07,-206.64 261.68,-193.26"/>
<polygon fill="black" stroke="black" points="262.59,-189.86 252.01,-189.5 260.06,-196.39 262.59,-189.86"/>
<g id="a_edge22&#45;headlabel"><a xlink:href="dir_000112_000086.html" target="_top" xlink:title="8">
<text text-anchor="middle" x="266.97" y="-186.02" font-family="FreeSans" font-size="10.00">8</text>
</a>
</g>
</g>
<!-- dir_c845d92bb8a5c5488679fccc6a213ce0&#45;&gt;dir_32348ece3c89569e6a714937ae854c89 -->
<g id="edge21" class="edge">
<title>dir_c845d92bb8a5c5488679fccc6a213ce0&#45;&gt;dir_32348ece3c89569e6a714937ae854c89</title>
<path fill="none" stroke="black" d="M405.74,-231.88C406.18,-199.37 402.34,-128.36 364,-88 329.46,-51.65 270.54,-40.06 231.69,-36.47"/>
<polygon fill="black" stroke="black" points="231.54,-32.95 221.3,-35.65 230.99,-39.93 231.54,-32.95"/>
<g id="a_edge21&#45;headlabel"><a xlink:href="dir_000112_000123.html" target="_top" xlink:title="4">
<text text-anchor="middle" x="235.35" y="-27.9" font-family="FreeSans" font-size="10.00">4</text>
</a>
</g>
</g>
<!-- dir_d14d15cadc30134a390deae00e4dfae9 -->
<g id="node9" class="node">
<title>dir_d14d15cadc30134a390deae00e4dfae9</title>
<text text-anchor="middle" x="290" y="-535.5" font-family="FreeSans" font-size="10.00">Fringe</text>
</g>
<!-- dir_99cb44effd617a0e3e19608eb3eacd49 -->
<g id="node10" class="node">
<title>dir_99cb44effd617a0e3e19608eb3eacd49</title>
<g id="a_node10"><a xlink:href="dir_99cb44effd617a0e3e19608eb3eacd49.html" target="_top" xlink:title="include">
<polygon fill="white" stroke="black" points="245,-484 191,-484 191,-448 245,-448 245,-484"/>
<text text-anchor="middle" x="218" y="-463.5" font-family="FreeSans" font-size="10.00">include</text>
</a>
</g>
</g>
<!-- dir_99cb44effd617a0e3e19608eb3eacd49&#45;&gt;dir_150f406a44a04ce55518da03ec553ece -->
<g id="edge23" class="edge">
<title>dir_99cb44effd617a0e3e19608eb3eacd49&#45;&gt;dir_150f406a44a04ce55518da03ec553ece</title>
<path fill="none" stroke="black" d="M218.37,-447.94C218.76,-430.02 219.4,-401.03 220,-376 221.45,-315.45 223.28,-244.44 224.28,-206.39"/>
<polygon fill="black" stroke="black" points="227.79,-206.22 224.55,-196.13 220.79,-206.03 227.79,-206.22"/>
<g id="a_edge23&#45;headlabel"><a xlink:href="dir_000093_000086.html" target="_top" xlink:title="26">
<text text-anchor="middle" x="230.53" y="-207.38" font-family="FreeSans" font-size="10.00">26</text>
</a>
</g>
</g>
<!-- dir_99cb44effd617a0e3e19608eb3eacd49&#45;&gt;dir_32348ece3c89569e6a714937ae854c89 -->
<g id="edge24" class="edge">
<title>dir_99cb44effd617a0e3e19608eb3eacd49&#45;&gt;dir_32348ece3c89569e6a714937ae854c89</title>
<path fill="none" stroke="black" d="M237.77,-447.78C241.39,-445.01 245.22,-442.3 249,-440 275.54,-423.89 293.92,-436.49 313,-412 342.68,-373.9 328.33,-352.18 325,-304 318.28,-206.76 344.01,-167.06 287,-88 273.25,-68.93 250.4,-55.83 230.67,-47.41"/>
<polygon fill="black" stroke="black" points="231.87,-44.13 221.29,-43.66 229.27,-50.63 231.87,-44.13"/>
<g id="a_edge24&#45;headlabel"><a xlink:href="dir_000093_000123.html" target="_top" xlink:title="12">
<text text-anchor="middle" x="236.27" y="-40.33" font-family="FreeSans" font-size="10.00">12</text>
</a>
</g>
</g>
<!-- dir_99cb44effd617a0e3e19608eb3eacd49&#45;&gt;dir_a06008c3e245d1092ba6894d6caedef2 -->
<g id="edge27" class="edge">
<title>dir_99cb44effd617a0e3e19608eb3eacd49&#45;&gt;dir_a06008c3e245d1092ba6894d6caedef2</title>
<path fill="none" stroke="black" d="M201.83,-447.87C181.24,-425.07 146.04,-382.65 127,-340 118.21,-320.31 113.4,-296.33 110.81,-278.22"/>
<polygon fill="black" stroke="black" points="114.25,-277.53 109.51,-268.05 107.31,-278.42 114.25,-277.53"/>
<g id="a_edge27&#45;headlabel"><a xlink:href="dir_000093_000096.html" target="_top" xlink:title="15">
<text text-anchor="middle" x="117.53" y="-278.23" font-family="FreeSans" font-size="10.00">15</text>
</a>
</g>
</g>
<!-- dir_99cb44effd617a0e3e19608eb3eacd49&#45;&gt;dir_4546011bd625f1142c4c4ae06dcdb5ba -->
<g id="edge25" class="edge">
<title>dir_99cb44effd617a0e3e19608eb3eacd49&#45;&gt;dir_4546011bd625f1142c4c4ae06dcdb5ba</title>
<path fill="none" stroke="black" d="M211.73,-447.87C202.79,-423.46 186.3,-378.43 175.75,-349.64"/>
<polygon fill="black" stroke="black" points="179.02,-348.38 172.29,-340.19 172.45,-350.78 179.02,-348.38"/>
<g id="a_edge25&#45;headlabel"><a xlink:href="dir_000093_000089.html" target="_top" xlink:title="14">
<text text-anchor="middle" x="182.92" y="-348.28" font-family="FreeSans" font-size="10.00">14</text>
</a>
</g>
</g>
<!-- dir_99cb44effd617a0e3e19608eb3eacd49&#45;&gt;dir_b8ce078ed9f8fd90d71e02c796d93353 -->
<g id="edge28" class="edge">
<title>dir_99cb44effd617a0e3e19608eb3eacd49&#45;&gt;dir_b8ce078ed9f8fd90d71e02c796d93353</title>
<path fill="none" stroke="black" d="M190.85,-466C181.59,-466 172.33,-466 163.08,-466"/>
<polygon fill="black" stroke="black" points="163.03,-462.5 153.03,-466 163.03,-469.5 163.03,-462.5"/>
<g id="a_edge28&#45;headlabel"><a xlink:href="dir_000093_000104.html" target="_top" xlink:title="5">
<text text-anchor="middle" x="166.63" y="-457.16" font-family="FreeSans" font-size="10.00">5</text>
</a>
</g>
</g>
<!-- dir_99cb44effd617a0e3e19608eb3eacd49&#45;&gt;dir_91ae3e556fa9cad9030b784323206cc7 -->
<g id="edge26" class="edge">
<title>dir_99cb44effd617a0e3e19608eb3eacd49&#45;&gt;dir_91ae3e556fa9cad9030b784323206cc7</title>
<path fill="none" stroke="black" d="M228.38,-447.7C233.26,-439.56 239.19,-429.69 244.58,-420.7"/>
<polygon fill="black" stroke="black" points="247.59,-422.48 249.74,-412.1 241.59,-418.88 247.59,-422.48"/>
<g id="a_edge26&#45;headlabel"><a xlink:href="dir_000093_000102.html" target="_top" xlink:title="5">
<text text-anchor="middle" x="248.18" y="-424.52" font-family="FreeSans" font-size="10.00">5</text>
</a>
</g>
</g>
<!-- dir_99cb44effd617a0e3e19608eb3eacd49&#45;&gt;dir_ff42852cc454de79d2ecb9482f4de9d8 -->
<g id="edge29" class="edge">
<title>dir_99cb44effd617a0e3e19608eb3eacd49&#45;&gt;dir_ff42852cc454de79d2ecb9482f4de9d8</title>
<path fill="none" stroke="black" d="M238.29,-447.8C241.78,-445.08 245.44,-442.39 249,-440 270.48,-425.61 283.95,-432.27 300,-412 320.62,-385.96 315.51,-372.91 320,-340 330.7,-261.53 283.67,-174.84 256.74,-132.76"/>
<polygon fill="black" stroke="black" points="259.56,-130.69 251.16,-124.24 253.71,-134.52 259.56,-130.69"/>
<g id="a_edge29&#45;headlabel"><a xlink:href="dir_000093_000099.html" target="_top" xlink:title="2">
<text text-anchor="middle" x="263.91" y="-129.64" font-family="FreeSans" font-size="10.00">2</text>
</a>
</g>
</g>
<!-- dir_7b90604c2bb76efaeb493a4bf97a39f0 -->
<g id="node11" class="node">
<title>dir_7b90604c2bb76efaeb493a4bf97a39f0</title>
<g id="a_node11"><a xlink:href="dir_7b90604c2bb76efaeb493a4bf97a39f0.html" target="_top" xlink:title="src">
<polygon fill="white" stroke="black" points="245,-556 191,-556 191,-520 245,-520 245,-556"/>
<text text-anchor="middle" x="218" y="-535.5" font-family="FreeSans" font-size="10.00">src</text>
</a>
</g>
</g>
<!-- dir_7b90604c2bb76efaeb493a4bf97a39f0&#45;&gt;dir_150f406a44a04ce55518da03ec553ece -->
<g id="edge30" class="edge">
<title>dir_7b90604c2bb76efaeb493a4bf97a39f0&#45;&gt;dir_150f406a44a04ce55518da03ec553ece</title>
<path fill="none" stroke="black" d="M234.87,-519.85C255.55,-497.35 289.2,-455.58 300,-412 319.03,-335.17 270.67,-246.8 242.91,-204.35"/>
<polygon fill="black" stroke="black" points="245.8,-202.38 237.33,-196.01 239.98,-206.27 245.8,-202.38"/>
<g id="a_edge30&#45;headlabel"><a xlink:href="dir_000092_000086.html" target="_top" xlink:title="9">
<text text-anchor="middle" x="250.15" y="-201.29" font-family="FreeSans" font-size="10.00">9</text>
</a>
</g>
</g>
<!-- dir_7b90604c2bb76efaeb493a4bf97a39f0&#45;&gt;dir_32348ece3c89569e6a714937ae854c89 -->
<g id="edge31" class="edge">
<title>dir_7b90604c2bb76efaeb493a4bf97a39f0&#45;&gt;dir_32348ece3c89569e6a714937ae854c89</title>
<path fill="none" stroke="black" d="M190.91,-535C155.49,-531.01 93.43,-519.14 55,-484 23.26,-454.97 17,-438.01 17,-395 17,-395 17,-395 17,-177 17,-134.33 22.49,-117.83 53,-88 80.8,-60.82 123.91,-47.31 154.95,-40.77"/>
<polygon fill="black" stroke="black" points="155.83,-44.17 164.97,-38.81 154.49,-37.3 155.83,-44.17"/>
<g id="a_edge31&#45;headlabel"><a xlink:href="dir_000092_000123.html" target="_top" xlink:title="2">
<text text-anchor="middle" x="152.85" y="-45.14" font-family="FreeSans" font-size="10.00">2</text>
</a>
</g>
</g>
<!-- dir_7b90604c2bb76efaeb493a4bf97a39f0&#45;&gt;dir_a06008c3e245d1092ba6894d6caedef2 -->
<g id="edge35" class="edge">
<title>dir_7b90604c2bb76efaeb493a4bf97a39f0&#45;&gt;dir_a06008c3e245d1092ba6894d6caedef2</title>
<path fill="none" stroke="black" d="M190.79,-535.66C157.36,-532.39 101.88,-521.29 76,-484 31.87,-420.43 70.62,-323.29 93.72,-277.12"/>
<polygon fill="black" stroke="black" points="96.91,-278.56 98.38,-268.07 90.69,-275.36 96.91,-278.56"/>
<g id="a_edge35&#45;headlabel"><a xlink:href="dir_000092_000096.html" target="_top" xlink:title="8">
<text text-anchor="middle" x="97.79" y="-280.56" font-family="FreeSans" font-size="10.00">8</text>
</a>
</g>
</g>
<!-- dir_7b90604c2bb76efaeb493a4bf97a39f0&#45;&gt;dir_4546011bd625f1142c4c4ae06dcdb5ba -->
<g id="edge32" class="edge">
<title>dir_7b90604c2bb76efaeb493a4bf97a39f0&#45;&gt;dir_4546011bd625f1142c4c4ae06dcdb5ba</title>
<path fill="none" stroke="black" d="M202.91,-519.6C195.3,-509.81 186.7,-496.97 182,-484 165.74,-439.16 164.01,-382.97 164.69,-350.22"/>
<polygon fill="black" stroke="black" points="168.19,-350.16 165,-340.06 161.2,-349.95 168.19,-350.16"/>
<g id="a_edge32&#45;headlabel"><a xlink:href="dir_000092_000089.html" target="_top" xlink:title="7">
<text text-anchor="middle" x="170.92" y="-351.33" font-family="FreeSans" font-size="10.00">7</text>
</a>
</g>
</g>
<!-- dir_7b90604c2bb76efaeb493a4bf97a39f0&#45;&gt;dir_b8ce078ed9f8fd90d71e02c796d93353 -->
<g id="edge36" class="edge">
<title>dir_7b90604c2bb76efaeb493a4bf97a39f0&#45;&gt;dir_b8ce078ed9f8fd90d71e02c796d93353</title>
<path fill="none" stroke="black" d="M193.78,-519.88C181.08,-510.89 165.34,-499.76 151.58,-490.03"/>
<polygon fill="black" stroke="black" points="153.5,-487.11 143.31,-484.19 149.46,-492.82 153.5,-487.11"/>
<g id="a_edge36&#45;headlabel"><a xlink:href="dir_000092_000104.html" target="_top" xlink:title="7">
<text text-anchor="middle" x="158.07" y="-484.36" font-family="FreeSans" font-size="10.00">7</text>
</a>
</g>
</g>
<!-- dir_7b90604c2bb76efaeb493a4bf97a39f0&#45;&gt;dir_91ae3e556fa9cad9030b784323206cc7 -->
<g id="edge33" class="edge">
<title>dir_7b90604c2bb76efaeb493a4bf97a39f0&#45;&gt;dir_91ae3e556fa9cad9030b784323206cc7</title>
<path fill="none" stroke="black" d="M233.26,-519.66C240.92,-509.88 249.5,-497.04 254,-484 260.85,-464.14 262.12,-440.35 261.81,-422.36"/>
<polygon fill="black" stroke="black" points="265.3,-422.13 261.46,-412.25 258.31,-422.37 265.3,-422.13"/>
<g id="a_edge33&#45;headlabel"><a xlink:href="dir_000092_000102.html" target="_top" xlink:title="9">
<text text-anchor="middle" x="268.26" y="-423.12" font-family="FreeSans" font-size="10.00">9</text>
</a>
</g>
</g>
<!-- dir_7b90604c2bb76efaeb493a4bf97a39f0&#45;&gt;dir_ff42852cc454de79d2ecb9482f4de9d8 -->
<g id="edge38" class="edge">
<title>dir_7b90604c2bb76efaeb493a4bf97a39f0&#45;&gt;dir_ff42852cc454de79d2ecb9482f4de9d8</title>
<path fill="none" stroke="black" d="M243.41,-519.86C255.96,-510.42 270.61,-497.82 281,-484 321.22,-430.52 319.48,-406.69 325,-340 331.74,-258.52 329.97,-229.56 287,-160 280.81,-149.97 272.6,-140.09 264.74,-131.63"/>
<polygon fill="black" stroke="black" points="267.13,-129.07 257.67,-124.3 262.09,-133.93 267.13,-129.07"/>
<g id="a_edge38&#45;headlabel"><a xlink:href="dir_000092_000099.html" target="_top" xlink:title="6">
<text text-anchor="middle" x="271.67" y="-127.19" font-family="FreeSans" font-size="10.00">6</text>
</a>
</g>
</g>
<!-- dir_7b90604c2bb76efaeb493a4bf97a39f0&#45;&gt;dir_c845d92bb8a5c5488679fccc6a213ce0 -->
<g id="edge37" class="edge">
<title>dir_7b90604c2bb76efaeb493a4bf97a39f0&#45;&gt;dir_c845d92bb8a5c5488679fccc6a213ce0</title>
<path fill="none" stroke="black" d="M245.32,-523.54C248.22,-522.28 251.15,-521.07 254,-520 308.51,-499.5 342.49,-528.56 380,-484 429.69,-424.97 419.48,-325.52 410.84,-277.94"/>
<polygon fill="black" stroke="black" points="414.27,-277.23 408.94,-268.08 407.4,-278.56 414.27,-277.23"/>
<g id="a_edge37&#45;headlabel"><a xlink:href="dir_000092_000112.html" target="_top" xlink:title="7">
<text text-anchor="middle" x="417.74" y="-277.72" font-family="FreeSans" font-size="10.00">7</text>
</a>
</g>
</g>
<!-- dir_7b90604c2bb76efaeb493a4bf97a39f0&#45;&gt;dir_99cb44effd617a0e3e19608eb3eacd49 -->
<g id="edge34" class="edge">
<title>dir_7b90604c2bb76efaeb493a4bf97a39f0&#45;&gt;dir_99cb44effd617a0e3e19608eb3eacd49</title>
<path fill="none" stroke="black" d="M218,-519.7C218,-511.98 218,-502.71 218,-494.11"/>
<polygon fill="black" stroke="black" points="221.5,-494.1 218,-484.1 214.5,-494.1 221.5,-494.1"/>
<g id="a_edge34&#45;headlabel"><a xlink:href="dir_000092_000093.html" target="_top" xlink:title="37">
<text text-anchor="middle" x="224.34" y="-495.2" font-family="FreeSans" font-size="10.00">37</text>
</a>
</g>
</g>
</g>
</svg>
