<?xml version="1.0" encoding="UTF-8" standalone="no"?>
<!DOCTYPE svg PUBLIC "-//W3C//DTD SVG 1.1//EN"
 "http://www.w3.org/Graphics/SVG/1.1/DTD/svg11.dtd">
<!-- Generated by graphviz version 2.43.0 (0)
 -->
<!-- Title: src Pages: 1 -->
<svg width="177pt" height="223pt"
 viewBox="0.00 0.00 177.00 223.00" xmlns="http://www.w3.org/2000/svg" xmlns:xlink="http://www.w3.org/1999/xlink">
<g id="graph0" class="graph" transform="scale(1 1) rotate(0) translate(4 219)">
<title>src</title>
<polygon fill="white" stroke="transparent" points="-4,4 -4,-219 173,-219 173,4 -4,4"/>
<g id="clust1" class="cluster">
<title>clusterdir_720c34c34eae56e7048c181fca8a7301</title>
<g id="a_clust1"><a xlink:href="dir_720c34c34eae56e7048c181fca8a7301.html" target="_top" xlink:title="adump">
<polygon fill="#ddddee" stroke="black" points="8,-64 8,-207 78,-207 78,-64 8,-64"/>
<text text-anchor="middle" x="43" y="-195" font-family="FreeSans" font-size="10.00">adump</text>
</a>
</g>
</g>
<!-- dir_efd9a905f7f9d9f65f71aca9ef18ae70 -->
<g id="node1" class="node">
<title>dir_efd9a905f7f9d9f65f71aca9ef18ae70</title>
<g id="a_node1"><a xlink:href="dir_efd9a905f7f9d9f65f71aca9ef18ae70.html" target="_top" xlink:title="include">
<polygon fill="none" stroke="black" points="70,-108 16,-108 16,-72 70,-72 70,-108"/>
<text text-anchor="middle" x="43" y="-87.5" font-family="FreeSans" font-size="10.00">include</text>
</a>
</g>
</g>
<!-- dir_380958c63d952bb3103b4d0780edb576 -->
<g id="node2" class="node">
<title>dir_380958c63d952bb3103b4d0780edb576</title>
<g id="a_node2"><a xlink:href="dir_380958c63d952bb3103b4d0780edb576.html" target="_top" xlink:title="src">
<polygon fill="#eeeeff" stroke="black" points="70,-180 16,-180 16,-144 70,-144 70,-180"/>
<text text-anchor="middle" x="43" y="-159.5" font-family="FreeSans" font-size="10.00">src</text>
</a>
</g>
</g>
<!-- dir_380958c63d952bb3103b4d0780edb576&#45;&gt;dir_efd9a905f7f9d9f65f71aca9ef18ae70 -->
<g id="edge3" class="edge">
<title>dir_380958c63d952bb3103b4d0780edb576&#45;&gt;dir_efd9a905f7f9d9f65f71aca9ef18ae70</title>
<path fill="none" stroke="black" d="M43,-143.7C43,-135.98 43,-126.71 43,-118.11"/>
<polygon fill="black" stroke="black" points="46.5,-118.1 43,-108.1 39.5,-118.1 46.5,-118.1"/>
<g id="a_edge3&#45;headlabel"><a xlink:href="dir_000148_000031.html" target="_top" xlink:title="6">
<text text-anchor="middle" x="49.34" y="-119.2" font-family="FreeSans" font-size="10.00">6</text>
</a>
</g>
</g>
<!-- dir_637a76a7abf5a01e5c2aa724f3c1e96e -->
<g id="node3" class="node">
<title>dir_637a76a7abf5a01e5c2aa724f3c1e96e</title>
<g id="a_node3"><a xlink:href="dir_637a76a7abf5a01e5c2aa724f3c1e96e.html" target="_top" xlink:title="afio">
<polygon fill="white" stroke="red" points="142,-108 88,-108 88,-72 142,-72 142,-108"/>
<text text-anchor="middle" x="115" y="-87.5" font-family="FreeSans" font-size="10.00">afio</text>
</a>
</g>
</g>
<!-- dir_380958c63d952bb3103b4d0780edb576&#45;&gt;dir_637a76a7abf5a01e5c2aa724f3c1e96e -->
<g id="edge1" class="edge">
<title>dir_380958c63d952bb3103b4d0780edb576&#45;&gt;dir_637a76a7abf5a01e5c2aa724f3c1e96e</title>
<path fill="none" stroke="black" d="M60.8,-143.7C69.6,-135.14 80.38,-124.66 90,-115.3"/>
<polygon fill="black" stroke="black" points="92.68,-117.58 97.41,-108.1 87.8,-112.57 92.68,-117.58"/>
<g id="a_edge1&#45;headlabel"><a xlink:href="dir_000148_000022.html" target="_top" xlink:title="6">
<text text-anchor="middle" x="92.08" y="-119.63" font-family="FreeSans" font-size="10.00">6</text>
</a>
</g>
</g>
<!-- dir_cb2d4e92f47691559fc9d122a5e37fac -->
<g id="node4" class="node">
<title>dir_cb2d4e92f47691559fc9d122a5e37fac</title>
<g id="a_node4"><a xlink:href="dir_cb2d4e92f47691559fc9d122a5e37fac.html" target="_top" xlink:title="mk4util">
<polygon fill="white" stroke="red" points="169,-36 115,-36 115,0 169,0 169,-36"/>
<text text-anchor="middle" x="142" y="-15.5" font-family="FreeSans" font-size="10.00">mk4util</text>
</a>
</g>
</g>
<!-- dir_380958c63d952bb3103b4d0780edb576&#45;&gt;dir_cb2d4e92f47691559fc9d122a5e37fac -->
<g id="edge2" class="edge">
<title>dir_380958c63d952bb3103b4d0780edb576&#45;&gt;dir_cb2d4e92f47691559fc9d122a5e37fac</title>
<path fill="none" stroke="black" d="M70.2,-156.08C96.03,-149.8 133.44,-136.18 151,-108 162.5,-89.54 158.73,-64.64 152.94,-45.87"/>
<polygon fill="black" stroke="black" points="156.17,-44.48 149.61,-36.15 149.55,-46.75 156.17,-44.48"/>
<g id="a_edge2&#45;headlabel"><a xlink:href="dir_000148_000014.html" target="_top" xlink:title="6">
<text text-anchor="middle" x="160.02" y="-44.45" font-family="FreeSans" font-size="10.00">6</text>
</a>
</g>
</g>
<!-- dir_637a76a7abf5a01e5c2aa724f3c1e96e&#45;&gt;dir_cb2d4e92f47691559fc9d122a5e37fac -->
<g id="edge4" class="edge">
<title>dir_637a76a7abf5a01e5c2aa724f3c1e96e&#45;&gt;dir_cb2d4e92f47691559fc9d122a5e37fac</title>
<path fill="none" stroke="black" d="M121.67,-71.7C124.71,-63.81 128.38,-54.3 131.76,-45.55"/>
<polygon fill="black" stroke="black" points="135.07,-46.69 135.4,-36.1 128.54,-44.17 135.07,-46.69"/>
<g id="a_edge4&#45;headlabel"><a xlink:href="dir_000022_000014.html" target="_top" xlink:title="17">
<text text-anchor="middle" x="136.42" y="-48.57" font-family="FreeSans" font-size="10.00">17</text>
</a>
</g>
</g>
</g>
</svg>
