<?xml version="1.0" encoding="UTF-8" standalone="no"?>
<!DOCTYPE svg PUBLIC "-//W3C//DTD SVG 1.1//EN"
 "http://www.w3.org/Graphics/SVG/1.1/DTD/svg11.dtd">
<!-- Generated by graphviz version 2.43.0 (0)
 -->
<!-- Title: include Pages: 1 -->
<svg width="477pt" height="583pt"
 viewBox="0.00 0.00 477.00 583.00" xmlns="http://www.w3.org/2000/svg" xmlns:xlink="http://www.w3.org/1999/xlink">
<g id="graph0" class="graph" transform="scale(1 1) rotate(0) translate(4 579)">
<title>include</title>
<polygon fill="white" stroke="transparent" points="-4,4 -4,-579 473,-579 473,4 -4,4"/>
<g id="clust1" class="cluster">
<title>clusterdir_d14d15cadc30134a390deae00e4dfae9</title>
<g id="a_clust1"><a xlink:href="dir_d14d15cadc30134a390deae00e4dfae9.html" target="_top" xlink:title="Fringe">
<polygon fill="#ddddee" stroke="black" points="189,-496 189,-567 259,-567 259,-496 189,-496"/>
<text text-anchor="middle" x="224" y="-555" font-family="FreeSans" font-size="10.00">Fringe</text>
</a>
</g>
</g>
<!-- dir_99cb44effd617a0e3e19608eb3eacd49 -->
<g id="node1" class="node">
<title>dir_99cb44effd617a0e3e19608eb3eacd49</title>
<g id="a_node1"><a xlink:href="dir_99cb44effd617a0e3e19608eb3eacd49.html" target="_top" xlink:title="include">
<polygon fill="#eeeeff" stroke="black" points="251,-540 197,-540 197,-504 251,-504 251,-540"/>
<text text-anchor="middle" x="224" y="-519.5" font-family="FreeSans" font-size="10.00">include</text>
</a>
</g>
</g>
<!-- dir_150f406a44a04ce55518da03ec553ece -->
<g id="node2" class="node">
<title>dir_150f406a44a04ce55518da03ec553ece</title>
<g id="a_node2"><a xlink:href="dir_150f406a44a04ce55518da03ec553ece.html" target="_top" xlink:title="Utilities">
<polygon fill="white" stroke="red" points="304,-180 250,-180 250,-144 304,-144 304,-180"/>
<text text-anchor="middle" x="277" y="-159.5" font-family="FreeSans" font-size="10.00">Utilities</text>
</a>
</g>
</g>
<!-- dir_99cb44effd617a0e3e19608eb3eacd49&#45;&gt;dir_150f406a44a04ce55518da03ec553ece -->
<g id="edge21" class="edge">
<title>dir_99cb44effd617a0e3e19608eb3eacd49&#45;&gt;dir_150f406a44a04ce55518da03ec553ece</title>
<path fill="none" stroke="black" d="M251.16,-518.09C314.94,-509.61 469,-478.8 469,-379 469,-379 469,-379 469,-305 469,-228.7 369.76,-188.71 313.98,-172.26"/>
<polygon fill="black" stroke="black" points="314.68,-168.82 304.1,-169.46 312.77,-175.56 314.68,-168.82"/>
<g id="a_edge21&#45;headlabel"><a xlink:href="dir_000093_000086.html" target="_top" xlink:title="26">
<text text-anchor="middle" x="318.91" y="-164.57" font-family="FreeSans" font-size="10.00">26</text>
</a>
</g>
</g>
<!-- dir_32348ece3c89569e6a714937ae854c89 -->
<g id="node3" class="node">
<title>dir_32348ece3c89569e6a714937ae854c89</title>
<g id="a_node3"><a xlink:href="dir_32348ece3c89569e6a714937ae854c89.html" target="_top" xlink:title="Message">
<polygon fill="white" stroke="red" points="250,-36 194,-36 194,0 250,0 250,-36"/>
<text text-anchor="middle" x="222" y="-15.5" font-family="FreeSans" font-size="10.00">Message</text>
</a>
</g>
</g>
<!-- dir_99cb44effd617a0e3e19608eb3eacd49&#45;&gt;dir_32348ece3c89569e6a714937ae854c89 -->
<g id="edge22" class="edge">
<title>dir_99cb44effd617a0e3e19608eb3eacd49&#45;&gt;dir_32348ece3c89569e6a714937ae854c89</title>
<path fill="none" stroke="black" d="M196.98,-516.89C137.4,-506.13 0,-471.32 0,-379 0,-379 0,-379 0,-161 0,-74.76 120.37,-38.53 183.84,-25.42"/>
<polygon fill="black" stroke="black" points="184.75,-28.81 193.88,-23.44 183.4,-21.94 184.75,-28.81"/>
<g id="a_edge22&#45;headlabel"><a xlink:href="dir_000093_000123.html" target="_top" xlink:title="12">
<text text-anchor="middle" x="181.77" y="-29.79" font-family="FreeSans" font-size="10.00">12</text>
</a>
</g>
</g>
<!-- dir_4546011bd625f1142c4c4ae06dcdb5ba -->
<g id="node4" class="node">
<title>dir_4546011bd625f1142c4c4ae06dcdb5ba</title>
<g id="a_node4"><a xlink:href="dir_4546011bd625f1142c4c4ae06dcdb5ba.html" target="_top" xlink:title="Operators">
<polygon fill="white" stroke="red" points="250.5,-324 191.5,-324 191.5,-288 250.5,-288 250.5,-324"/>
<text text-anchor="middle" x="221" y="-303.5" font-family="FreeSans" font-size="10.00">Operators</text>
</a>
</g>
</g>
<!-- dir_99cb44effd617a0e3e19608eb3eacd49&#45;&gt;dir_4546011bd625f1142c4c4ae06dcdb5ba -->
<g id="edge23" class="edge">
<title>dir_99cb44effd617a0e3e19608eb3eacd49&#45;&gt;dir_4546011bd625f1142c4c4ae06dcdb5ba</title>
<path fill="none" stroke="black" d="M223.76,-503.85C223.24,-466.83 222.01,-379.18 221.38,-334.39"/>
<polygon fill="black" stroke="black" points="224.88,-334.18 221.24,-324.23 217.88,-334.28 224.88,-334.18"/>
<g id="a_edge23&#45;headlabel"><a xlink:href="dir_000093_000089.html" target="_top" xlink:title="14">
<text text-anchor="middle" x="227.77" y="-335.24" font-family="FreeSans" font-size="10.00">14</text>
</a>
</g>
</g>
<!-- dir_91ae3e556fa9cad9030b784323206cc7 -->
<g id="node5" class="node">
<title>dir_91ae3e556fa9cad9030b784323206cc7</title>
<g id="a_node5"><a xlink:href="dir_91ae3e556fa9cad9030b784323206cc7.html" target="_top" xlink:title="Calibration">
<polygon fill="white" stroke="red" points="196,-396 134,-396 134,-360 196,-360 196,-396"/>
<text text-anchor="middle" x="165" y="-375.5" font-family="FreeSans" font-size="10.00">Calibration</text>
</a>
</g>
</g>
<!-- dir_99cb44effd617a0e3e19608eb3eacd49&#45;&gt;dir_91ae3e556fa9cad9030b784323206cc7 -->
<g id="edge24" class="edge">
<title>dir_99cb44effd617a0e3e19608eb3eacd49&#45;&gt;dir_91ae3e556fa9cad9030b784323206cc7</title>
<path fill="none" stroke="black" d="M216.88,-503.87C206.74,-479.46 188.03,-434.43 176.07,-405.64"/>
<polygon fill="black" stroke="black" points="179.21,-404.08 172.14,-396.19 172.75,-406.77 179.21,-404.08"/>
<g id="a_edge24&#45;headlabel"><a xlink:href="dir_000093_000102.html" target="_top" xlink:title="5">
<text text-anchor="middle" x="183.21" y="-403.81" font-family="FreeSans" font-size="10.00">5</text>
</a>
</g>
</g>
<!-- dir_a06008c3e245d1092ba6894d6caedef2 -->
<g id="node6" class="node">
<title>dir_a06008c3e245d1092ba6894d6caedef2</title>
<g id="a_node6"><a xlink:href="dir_a06008c3e245d1092ba6894d6caedef2.html" target="_top" xlink:title="Containers">
<polygon fill="white" stroke="red" points="357.5,-252 294.5,-252 294.5,-216 357.5,-216 357.5,-252"/>
<text text-anchor="middle" x="326" y="-231.5" font-family="FreeSans" font-size="10.00">Containers</text>
</a>
</g>
</g>
<!-- dir_99cb44effd617a0e3e19608eb3eacd49&#45;&gt;dir_a06008c3e245d1092ba6894d6caedef2 -->
<g id="edge25" class="edge">
<title>dir_99cb44effd617a0e3e19608eb3eacd49&#45;&gt;dir_a06008c3e245d1092ba6894d6caedef2</title>
<path fill="none" stroke="black" d="M251.2,-516.08C277.03,-509.8 314.44,-496.18 332,-468 372.29,-403.35 350.08,-307.78 335.5,-261.73"/>
<polygon fill="black" stroke="black" points="338.8,-260.57 332.35,-252.16 332.15,-262.76 338.8,-260.57"/>
<g id="a_edge25&#45;headlabel"><a xlink:href="dir_000093_000096.html" target="_top" xlink:title="15">
<text text-anchor="middle" x="342.62" y="-260.6" font-family="FreeSans" font-size="10.00">15</text>
</a>
</g>
</g>
<!-- dir_b8ce078ed9f8fd90d71e02c796d93353 -->
<g id="node7" class="node">
<title>dir_b8ce078ed9f8fd90d71e02c796d93353</title>
<g id="a_node7"><a xlink:href="dir_b8ce078ed9f8fd90d71e02c796d93353.html" target="_top" xlink:title="Initialization">
<polygon fill="white" stroke="red" points="323,-468 255,-468 255,-432 323,-432 323,-468"/>
<text text-anchor="middle" x="289" y="-447.5" font-family="FreeSans" font-size="10.00">Initialization</text>
</a>
</g>
</g>
<!-- dir_99cb44effd617a0e3e19608eb3eacd49&#45;&gt;dir_b8ce078ed9f8fd90d71e02c796d93353 -->
<g id="edge26" class="edge">
<title>dir_99cb44effd617a0e3e19608eb3eacd49&#45;&gt;dir_b8ce078ed9f8fd90d71e02c796d93353</title>
<path fill="none" stroke="black" d="M240.07,-503.7C247.94,-495.22 257.56,-484.86 266.17,-475.58"/>
<polygon fill="black" stroke="black" points="268.88,-477.81 273.12,-468.1 263.75,-473.05 268.88,-477.81"/>
<g id="a_edge26&#45;headlabel"><a xlink:href="dir_000093_000104.html" target="_top" xlink:title="5">
<text text-anchor="middle" x="268.51" y="-479.88" font-family="FreeSans" font-size="10.00">5</text>
</a>
</g>
</g>
<!-- dir_ff42852cc454de79d2ecb9482f4de9d8 -->
<g id="node8" class="node">
<title>dir_ff42852cc454de79d2ecb9482f4de9d8</title>
<g id="a_node8"><a xlink:href="dir_ff42852cc454de79d2ecb9482f4de9d8.html" target="_top" xlink:title="Math">
<polygon fill="white" stroke="red" points="249,-108 195,-108 195,-72 249,-72 249,-108"/>
<text text-anchor="middle" x="222" y="-87.5" font-family="FreeSans" font-size="10.00">Math</text>
</a>
</g>
</g>
<!-- dir_99cb44effd617a0e3e19608eb3eacd49&#45;&gt;dir_ff42852cc454de79d2ecb9482f4de9d8 -->
<g id="edge27" class="edge">
<title>dir_99cb44effd617a0e3e19608eb3eacd49&#45;&gt;dir_ff42852cc454de79d2ecb9482f4de9d8</title>
<path fill="none" stroke="black" d="M204.07,-503.98C179.96,-481.94 140.65,-440.97 125,-396 89.26,-293.31 164.83,-169.41 202.43,-116.72"/>
<polygon fill="black" stroke="black" points="205.49,-118.45 208.54,-108.31 199.83,-114.34 205.49,-118.45"/>
<g id="a_edge27&#45;headlabel"><a xlink:href="dir_000093_000099.html" target="_top" xlink:title="2">
<text text-anchor="middle" x="205.68" y="-120.53" font-family="FreeSans" font-size="10.00">2</text>
</a>
</g>
</g>
<!-- dir_150f406a44a04ce55518da03ec553ece&#45;&gt;dir_32348ece3c89569e6a714937ae854c89 -->
<g id="edge14" class="edge">
<title>dir_150f406a44a04ce55518da03ec553ece&#45;&gt;dir_32348ece3c89569e6a714937ae854c89</title>
<path fill="none" stroke="black" d="M275.3,-143.67C273.05,-125.29 268.11,-95.69 258,-72 253.92,-62.43 248.01,-52.78 242.16,-44.39"/>
<polygon fill="black" stroke="black" points="244.88,-42.17 236.16,-36.15 239.22,-46.29 244.88,-42.17"/>
<g id="a_edge14&#45;headlabel"><a xlink:href="dir_000086_000123.html" target="_top" xlink:title="13">
<text text-anchor="middle" x="249.29" y="-40.91" font-family="FreeSans" font-size="10.00">13</text>
</a>
</g>
</g>
<!-- dir_150f406a44a04ce55518da03ec553ece&#45;&gt;dir_ff42852cc454de79d2ecb9482f4de9d8 -->
<g id="edge15" class="edge">
<title>dir_150f406a44a04ce55518da03ec553ece&#45;&gt;dir_ff42852cc454de79d2ecb9482f4de9d8</title>
<path fill="none" stroke="black" d="M257.49,-143.7C250.18,-135.47 242.13,-125.48 235.45,-116.42"/>
<polygon fill="black" stroke="black" points="238.19,-114.23 229.54,-108.1 232.48,-118.28 238.19,-114.23"/>
<g id="a_edge15&#45;headlabel"><a xlink:href="dir_000086_000099.html" target="_top" xlink:title="1">
<text text-anchor="middle" x="242.59" y="-113.01" font-family="FreeSans" font-size="10.00">1</text>
</a>
</g>
</g>
<!-- dir_4546011bd625f1142c4c4ae06dcdb5ba&#45;&gt;dir_150f406a44a04ce55518da03ec553ece -->
<g id="edge10" class="edge">
<title>dir_4546011bd625f1142c4c4ae06dcdb5ba&#45;&gt;dir_150f406a44a04ce55518da03ec553ece</title>
<path fill="none" stroke="black" d="M227.82,-287.82C231.93,-277.45 237.28,-263.97 242,-252 250.26,-231.09 259.57,-207.39 266.51,-189.71"/>
<polygon fill="black" stroke="black" points="269.91,-190.65 270.3,-180.07 263.39,-188.1 269.91,-190.65"/>
<g id="a_edge10&#45;headlabel"><a xlink:href="dir_000089_000086.html" target="_top" xlink:title="5">
<text text-anchor="middle" x="271.24" y="-192.54" font-family="FreeSans" font-size="10.00">5</text>
</a>
</g>
</g>
<!-- dir_4546011bd625f1142c4c4ae06dcdb5ba&#45;&gt;dir_32348ece3c89569e6a714937ae854c89 -->
<g id="edge11" class="edge">
<title>dir_4546011bd625f1142c4c4ae06dcdb5ba&#45;&gt;dir_32348ece3c89569e6a714937ae854c89</title>
<path fill="none" stroke="black" d="M213.38,-287.95C197.02,-248.91 161.89,-150.39 186,-72 189.01,-62.22 194.51,-52.62 200.32,-44.33"/>
<polygon fill="black" stroke="black" points="203.19,-46.33 206.39,-36.23 197.59,-42.13 203.19,-46.33"/>
<g id="a_edge11&#45;headlabel"><a xlink:href="dir_000089_000123.html" target="_top" xlink:title="12">
<text text-anchor="middle" x="203.31" y="-48.41" font-family="FreeSans" font-size="10.00">12</text>
</a>
</g>
</g>
<!-- dir_4546011bd625f1142c4c4ae06dcdb5ba&#45;&gt;dir_a06008c3e245d1092ba6894d6caedef2 -->
<g id="edge12" class="edge">
<title>dir_4546011bd625f1142c4c4ae06dcdb5ba&#45;&gt;dir_a06008c3e245d1092ba6894d6caedef2</title>
<path fill="none" stroke="black" d="M246.69,-287.88C260.29,-278.81 277.17,-267.55 291.86,-257.76"/>
<polygon fill="black" stroke="black" points="293.84,-260.65 300.22,-252.19 289.95,-254.82 293.84,-260.65"/>
<g id="a_edge12&#45;headlabel"><a xlink:href="dir_000089_000096.html" target="_top" xlink:title="22">
<text text-anchor="middle" x="292.42" y="-262.51" font-family="FreeSans" font-size="10.00">22</text>
</a>
</g>
</g>
<!-- dir_4546011bd625f1142c4c4ae06dcdb5ba&#45;&gt;dir_ff42852cc454de79d2ecb9482f4de9d8 -->
<g id="edge13" class="edge">
<title>dir_4546011bd625f1142c4c4ae06dcdb5ba&#45;&gt;dir_ff42852cc454de79d2ecb9482f4de9d8</title>
<path fill="none" stroke="black" d="M221.08,-287.85C221.25,-250.83 221.66,-163.18 221.87,-118.39"/>
<polygon fill="black" stroke="black" points="225.37,-118.25 221.92,-108.23 218.37,-118.22 225.37,-118.25"/>
<g id="a_edge13&#45;headlabel"><a xlink:href="dir_000089_000099.html" target="_top" xlink:title="8">
<text text-anchor="middle" x="228.2" y="-119.36" font-family="FreeSans" font-size="10.00">8</text>
</a>
</g>
</g>
<!-- dir_91ae3e556fa9cad9030b784323206cc7&#45;&gt;dir_150f406a44a04ce55518da03ec553ece -->
<g id="edge2" class="edge">
<title>dir_91ae3e556fa9cad9030b784323206cc7&#45;&gt;dir_150f406a44a04ce55518da03ec553ece</title>
<path fill="none" stroke="black" d="M165.94,-359.91C167.47,-341.46 171.5,-311.56 182,-288 199.25,-249.3 230.57,-211.52 252.52,-187.8"/>
<polygon fill="black" stroke="black" points="255.26,-190 259.57,-180.32 250.17,-185.2 255.26,-190"/>
<g id="a_edge2&#45;headlabel"><a xlink:href="dir_000102_000086.html" target="_top" xlink:title="29">
<text text-anchor="middle" x="254.86" y="-192.06" font-family="FreeSans" font-size="10.00">29</text>
</a>
</g>
</g>
<!-- dir_91ae3e556fa9cad9030b784323206cc7&#45;&gt;dir_32348ece3c89569e6a714937ae854c89 -->
<g id="edge1" class="edge">
<title>dir_91ae3e556fa9cad9030b784323206cc7&#45;&gt;dir_32348ece3c89569e6a714937ae854c89</title>
<path fill="none" stroke="black" d="M161.64,-359.94C153.04,-312.2 133.79,-174.09 176,-72 180.3,-61.59 187.5,-51.79 194.94,-43.51"/>
<polygon fill="black" stroke="black" points="197.67,-45.72 202.05,-36.07 192.61,-40.88 197.67,-45.72"/>
<g id="a_edge1&#45;headlabel"><a xlink:href="dir_000102_000123.html" target="_top" xlink:title="22">
<text text-anchor="middle" x="197.23" y="-47.78" font-family="FreeSans" font-size="10.00">22</text>
</a>
</g>
</g>
<!-- dir_91ae3e556fa9cad9030b784323206cc7&#45;&gt;dir_4546011bd625f1142c4c4ae06dcdb5ba -->
<g id="edge4" class="edge">
<title>dir_91ae3e556fa9cad9030b784323206cc7&#45;&gt;dir_4546011bd625f1142c4c4ae06dcdb5ba</title>
<path fill="none" stroke="black" d="M178.84,-359.7C185.49,-351.39 193.58,-341.28 200.89,-332.14"/>
<polygon fill="black" stroke="black" points="203.8,-334.1 207.32,-324.1 198.34,-329.73 203.8,-334.1"/>
<g id="a_edge4&#45;headlabel"><a xlink:href="dir_000102_000089.html" target="_top" xlink:title="55">
<text text-anchor="middle" x="203.77" y="-336.18" font-family="FreeSans" font-size="10.00">55</text>
</a>
</g>
</g>
<!-- dir_91ae3e556fa9cad9030b784323206cc7&#45;&gt;dir_a06008c3e245d1092ba6894d6caedef2 -->
<g id="edge3" class="edge">
<title>dir_91ae3e556fa9cad9030b784323206cc7&#45;&gt;dir_a06008c3e245d1092ba6894d6caedef2</title>
<path fill="none" stroke="black" d="M196.27,-363.42C215.62,-354.08 240.26,-340.42 259,-324 279.97,-305.63 298.57,-279.72 310.82,-260.59"/>
<polygon fill="black" stroke="black" points="313.81,-262.41 316.15,-252.07 307.88,-258.7 313.81,-262.41"/>
<g id="a_edge3&#45;headlabel"><a xlink:href="dir_000102_000096.html" target="_top" xlink:title="64">
<text text-anchor="middle" x="314.32" y="-264.46" font-family="FreeSans" font-size="10.00">64</text>
</a>
</g>
</g>
<!-- dir_91ae3e556fa9cad9030b784323206cc7&#45;&gt;dir_ff42852cc454de79d2ecb9482f4de9d8 -->
<g id="edge5" class="edge">
<title>dir_91ae3e556fa9cad9030b784323206cc7&#45;&gt;dir_ff42852cc454de79d2ecb9482f4de9d8</title>
<path fill="none" stroke="black" d="M164.4,-359.83C164.04,-341.82 164.24,-312.76 168,-288 177.44,-225.83 199.71,-155.26 212.51,-117.76"/>
<polygon fill="black" stroke="black" points="215.89,-118.69 215.85,-108.1 209.27,-116.41 215.89,-118.69"/>
<g id="a_edge5&#45;headlabel"><a xlink:href="dir_000102_000099.html" target="_top" xlink:title="10">
<text text-anchor="middle" x="217.4" y="-120.52" font-family="FreeSans" font-size="10.00">10</text>
</a>
</g>
</g>
<!-- dir_a06008c3e245d1092ba6894d6caedef2&#45;&gt;dir_150f406a44a04ce55518da03ec553ece -->
<g id="edge6" class="edge">
<title>dir_a06008c3e245d1092ba6894d6caedef2&#45;&gt;dir_150f406a44a04ce55518da03ec553ece</title>
<path fill="none" stroke="black" d="M313.89,-215.7C308.13,-207.47 301.14,-197.48 294.79,-188.42"/>
<polygon fill="black" stroke="black" points="297.58,-186.29 288.97,-180.1 291.84,-190.3 297.58,-186.29"/>
<g id="a_edge6&#45;headlabel"><a xlink:href="dir_000096_000086.html" target="_top" xlink:title="42">
<text text-anchor="middle" x="301.96" y="-185.11" font-family="FreeSans" font-size="10.00">42</text>
</a>
</g>
</g>
<!-- dir_a06008c3e245d1092ba6894d6caedef2&#45;&gt;dir_32348ece3c89569e6a714937ae854c89 -->
<g id="edge7" class="edge">
<title>dir_a06008c3e245d1092ba6894d6caedef2&#45;&gt;dir_32348ece3c89569e6a714937ae854c89</title>
<path fill="none" stroke="black" d="M325.07,-215.93C323.71,-197.76 320.49,-168.33 313,-144 302.53,-110 299.04,-100.69 278,-72 270.33,-61.54 260.45,-51.41 251.12,-42.85"/>
<polygon fill="black" stroke="black" points="253.28,-40.09 243.48,-36.07 248.63,-45.32 253.28,-40.09"/>
<g id="a_edge7&#45;headlabel"><a xlink:href="dir_000096_000123.html" target="_top" xlink:title="9">
<text text-anchor="middle" x="257.86" y="-37.86" font-family="FreeSans" font-size="10.00">9</text>
</a>
</g>
</g>
<!-- dir_b8ce078ed9f8fd90d71e02c796d93353&#45;&gt;dir_150f406a44a04ce55518da03ec553ece -->
<g id="edge16" class="edge">
<title>dir_b8ce078ed9f8fd90d71e02c796d93353&#45;&gt;dir_150f406a44a04ce55518da03ec553ece</title>
<path fill="none" stroke="black" d="M303.9,-431.96C336.84,-392.13 409.66,-290.62 367,-216 355.61,-196.07 333.47,-182.89 314,-174.66"/>
<polygon fill="black" stroke="black" points="315.02,-171.29 304.43,-170.9 312.46,-177.81 315.02,-171.29"/>
<g id="a_edge16&#45;headlabel"><a xlink:href="dir_000104_000086.html" target="_top" xlink:title="44">
<text text-anchor="middle" x="319.4" y="-167.46" font-family="FreeSans" font-size="10.00">44</text>
</a>
</g>
</g>
<!-- dir_b8ce078ed9f8fd90d71e02c796d93353&#45;&gt;dir_32348ece3c89569e6a714937ae854c89 -->
<g id="edge17" class="edge">
<title>dir_b8ce078ed9f8fd90d71e02c796d93353&#45;&gt;dir_32348ece3c89569e6a714937ae854c89</title>
<path fill="none" stroke="black" d="M323.01,-433.49C365.02,-411.71 431,-367.84 431,-307 431,-307 431,-307 431,-161 431,-79.31 320.4,-41.33 260.11,-26.69"/>
<polygon fill="black" stroke="black" points="260.72,-23.24 250.19,-24.38 259.13,-30.06 260.72,-23.24"/>
<g id="a_edge17&#45;headlabel"><a xlink:href="dir_000104_000123.html" target="_top" xlink:title="3">
<text text-anchor="middle" x="264.86" y="-18.79" font-family="FreeSans" font-size="10.00">3</text>
</a>
</g>
</g>
<!-- dir_b8ce078ed9f8fd90d71e02c796d93353&#45;&gt;dir_4546011bd625f1142c4c4ae06dcdb5ba -->
<g id="edge18" class="edge">
<title>dir_b8ce078ed9f8fd90d71e02c796d93353&#45;&gt;dir_4546011bd625f1142c4c4ae06dcdb5ba</title>
<path fill="none" stroke="black" d="M280.8,-431.87C269.06,-407.35 247.35,-362.03 233.57,-333.26"/>
<polygon fill="black" stroke="black" points="236.71,-331.7 229.23,-324.19 230.39,-334.72 236.71,-331.7"/>
<g id="a_edge18&#45;headlabel"><a xlink:href="dir_000104_000089.html" target="_top" xlink:title="4">
<text text-anchor="middle" x="240.82" y="-331.21" font-family="FreeSans" font-size="10.00">4</text>
</a>
</g>
</g>
<!-- dir_b8ce078ed9f8fd90d71e02c796d93353&#45;&gt;dir_91ae3e556fa9cad9030b784323206cc7 -->
<g id="edge20" class="edge">
<title>dir_b8ce078ed9f8fd90d71e02c796d93353&#45;&gt;dir_91ae3e556fa9cad9030b784323206cc7</title>
<path fill="none" stroke="black" d="M258.67,-431.88C242.3,-422.64 221.92,-411.13 204.35,-401.21"/>
<polygon fill="black" stroke="black" points="205.88,-398.06 195.45,-396.19 202.44,-404.15 205.88,-398.06"/>
<g id="a_edge20&#45;headlabel"><a xlink:href="dir_000104_000102.html" target="_top" xlink:title="17">
<text text-anchor="middle" x="210.41" y="-394.85" font-family="FreeSans" font-size="10.00">17</text>
</a>
</g>
</g>
<!-- dir_b8ce078ed9f8fd90d71e02c796d93353&#45;&gt;dir_a06008c3e245d1092ba6894d6caedef2 -->
<g id="edge19" class="edge">
<title>dir_b8ce078ed9f8fd90d71e02c796d93353&#45;&gt;dir_a06008c3e245d1092ba6894d6caedef2</title>
<path fill="none" stroke="black" d="M291.97,-431.85C298.38,-394.75 313.58,-306.81 321.31,-262.1"/>
<polygon fill="black" stroke="black" points="324.77,-262.68 323.02,-252.23 317.87,-261.49 324.77,-262.68"/>
<g id="a_edge19&#45;headlabel"><a xlink:href="dir_000104_000096.html" target="_top" xlink:title="7">
<text text-anchor="middle" x="326.95" y="-264.21" font-family="FreeSans" font-size="10.00">7</text>
</a>
</g>
</g>
<!-- dir_ff42852cc454de79d2ecb9482f4de9d8&#45;&gt;dir_150f406a44a04ce55518da03ec553ece -->
<g id="edge9" class="edge">
<title>dir_ff42852cc454de79d2ecb9482f4de9d8&#45;&gt;dir_150f406a44a04ce55518da03ec553ece</title>
<path fill="none" stroke="black" d="M241.33,-108.1C248.63,-116.3 256.69,-126.28 263.38,-135.36"/>
<polygon fill="black" stroke="black" points="260.67,-137.58 269.32,-143.7 266.37,-133.52 260.67,-137.58"/>
<g id="a_edge9&#45;headlabel"><a xlink:href="dir_000099_000086.html" target="_top" xlink:title="1">
<text text-anchor="middle" x="256.27" y="-133.8" font-family="FreeSans" font-size="10.00">1</text>
</a>
</g>
</g>
<!-- dir_ff42852cc454de79d2ecb9482f4de9d8&#45;&gt;dir_32348ece3c89569e6a714937ae854c89 -->
<g id="edge8" class="edge">
<title>dir_ff42852cc454de79d2ecb9482f4de9d8&#45;&gt;dir_32348ece3c89569e6a714937ae854c89</title>
<path fill="none" stroke="black" d="M222,-71.7C222,-63.98 222,-54.71 222,-46.11"/>
<polygon fill="black" stroke="black" points="225.5,-46.1 222,-36.1 218.5,-46.1 225.5,-46.1"/>
<g id="a_edge8&#45;headlabel"><a xlink:href="dir_000099_000123.html" target="_top" xlink:title="6">
<text text-anchor="middle" x="228.34" y="-47.2" font-family="FreeSans" font-size="10.00">6</text>
</a>
</g>
</g>
</g>
</svg>
