<?xml version="1.0" encoding="UTF-8" standalone="no"?>
<!DOCTYPE svg PUBLIC "-//W3C//DTD SVG 1.1//EN"
 "http://www.w3.org/Graphics/SVG/1.1/DTD/svg11.dtd">
<!-- Generated by graphviz version 2.43.0 (0)
 -->
<!-- Title: adump Pages: 1 -->
<svg width="291pt" height="303pt"
 viewBox="0.00 0.00 291.00 303.00" xmlns="http://www.w3.org/2000/svg" xmlns:xlink="http://www.w3.org/1999/xlink">
<g id="graph0" class="graph" transform="scale(1 1) rotate(0) translate(4 299)">
<title>adump</title>
<polygon fill="white" stroke="transparent" points="-4,4 -4,-299 287,-299 287,4 -4,4"/>
<g id="clust1" class="cluster">
<title>clusterdir_9de42bc92121356a26b664e34e3ff194</title>
<g id="a_clust1"><a xlink:href="dir_9de42bc92121356a26b664e34e3ff194.html" target="_top" xlink:title="applications">
<polygon fill="#ddddee" stroke="black" points="8,-128 8,-287 166,-287 166,-128 8,-128"/>
<text text-anchor="middle" x="87" y="-275" font-family="FreeSans" font-size="10.00">applications</text>
</a>
</g>
</g>
<g id="clust2" class="cluster">
<title>clusterdir_720c34c34eae56e7048c181fca8a7301</title>
<g id="a_clust2"><a xlink:href="dir_720c34c34eae56e7048c181fca8a7301.html" target="_top">
<polygon fill="#eeeeff" stroke="black" points="16,-136 16,-260 158,-260 158,-136 16,-136"/>
</a>
</g>
</g>
<!-- dir_720c34c34eae56e7048c181fca8a7301 -->
<g id="node1" class="node">
<title>dir_720c34c34eae56e7048c181fca8a7301</title>
<text text-anchor="middle" x="123" y="-231.5" font-family="FreeSans" font-size="10.00">adump</text>
</g>
<!-- dir_efd9a905f7f9d9f65f71aca9ef18ae70 -->
<g id="node2" class="node">
<title>dir_efd9a905f7f9d9f65f71aca9ef18ae70</title>
<g id="a_node2"><a xlink:href="dir_efd9a905f7f9d9f65f71aca9ef18ae70.html" target="_top" xlink:title="include">
<polygon fill="white" stroke="black" points="88,-180 34,-180 34,-144 88,-144 88,-180"/>
<text text-anchor="middle" x="61" y="-159.5" font-family="FreeSans" font-size="10.00">include</text>
</a>
</g>
</g>
<!-- dir_720c34c34eae56e7048c181fca8a7301&#45;&gt;dir_efd9a905f7f9d9f65f71aca9ef18ae70 -->
<g id="edge10" class="edge">
<title>dir_720c34c34eae56e7048c181fca8a7301&#45;&gt;dir_efd9a905f7f9d9f65f71aca9ef18ae70</title>
<path fill="none" stroke="black" d="M107.67,-215.7C100.24,-207.3 91.18,-197.07 83.02,-187.86"/>
<polygon fill="black" stroke="black" points="85.4,-185.27 76.15,-180.1 80.16,-189.91 85.4,-185.27"/>
<g id="a_edge10&#45;headlabel"><a xlink:href="dir_000030_000031.html" target="_top" xlink:title="7">
<text text-anchor="middle" x="89.91" y="-183.58" font-family="FreeSans" font-size="10.00">7</text>
</a>
</g>
</g>
<!-- dir_637a76a7abf5a01e5c2aa724f3c1e96e -->
<g id="node4" class="node">
<title>dir_637a76a7abf5a01e5c2aa724f3c1e96e</title>
<g id="a_node4"><a xlink:href="dir_637a76a7abf5a01e5c2aa724f3c1e96e.html" target="_top" xlink:title="afio">
<polygon fill="white" stroke="red" points="228,-180 174,-180 174,-144 228,-144 228,-180"/>
<text text-anchor="middle" x="201" y="-159.5" font-family="FreeSans" font-size="10.00">afio</text>
</a>
</g>
</g>
<!-- dir_720c34c34eae56e7048c181fca8a7301&#45;&gt;dir_637a76a7abf5a01e5c2aa724f3c1e96e -->
<g id="edge7" class="edge">
<title>dir_720c34c34eae56e7048c181fca8a7301&#45;&gt;dir_637a76a7abf5a01e5c2aa724f3c1e96e</title>
<path fill="none" stroke="black" d="M142.28,-215.7C151.92,-207.05 163.73,-196.45 174.23,-187.03"/>
<polygon fill="black" stroke="black" points="176.84,-189.39 181.94,-180.1 172.16,-184.18 176.84,-189.39"/>
<g id="a_edge7&#45;headlabel"><a xlink:href="dir_000030_000022.html" target="_top" xlink:title="7">
<text text-anchor="middle" x="176.06" y="-191.4" font-family="FreeSans" font-size="10.00">7</text>
</a>
</g>
</g>
<!-- dir_758df28fbdbb54fb46d6d3d6484a4984 -->
<g id="node5" class="node">
<title>dir_758df28fbdbb54fb46d6d3d6484a4984</title>
<g id="a_node5"><a xlink:href="dir_758df28fbdbb54fb46d6d3d6484a4984.html" target="_top" xlink:title="msg">
<polygon fill="white" stroke="red" points="283,-36 229,-36 229,0 283,0 283,-36"/>
<text text-anchor="middle" x="256" y="-15.5" font-family="FreeSans" font-size="10.00">msg</text>
</a>
</g>
</g>
<!-- dir_720c34c34eae56e7048c181fca8a7301&#45;&gt;dir_758df28fbdbb54fb46d6d3d6484a4984 -->
<g id="edge8" class="edge">
<title>dir_720c34c34eae56e7048c181fca8a7301&#45;&gt;dir_758df28fbdbb54fb46d6d3d6484a4984</title>
<path fill="none" stroke="black" d="M150.19,-230.56C181.13,-226.17 230.42,-213.95 254,-180 281.67,-140.16 272.75,-80.34 264.12,-45.95"/>
<polygon fill="black" stroke="black" points="267.47,-44.89 261.5,-36.14 260.7,-46.7 267.47,-44.89"/>
<g id="a_edge8&#45;headlabel"><a xlink:href="dir_000030_000144.html" target="_top" xlink:title="1">
<text text-anchor="middle" x="271.14" y="-45.13" font-family="FreeSans" font-size="10.00">1</text>
</a>
</g>
</g>
<!-- dir_cb2d4e92f47691559fc9d122a5e37fac -->
<g id="node6" class="node">
<title>dir_cb2d4e92f47691559fc9d122a5e37fac</title>
<g id="a_node6"><a xlink:href="dir_cb2d4e92f47691559fc9d122a5e37fac.html" target="_top" xlink:title="mk4util">
<polygon fill="white" stroke="red" points="228,-108 174,-108 174,-72 228,-72 228,-108"/>
<text text-anchor="middle" x="201" y="-87.5" font-family="FreeSans" font-size="10.00">mk4util</text>
</a>
</g>
</g>
<!-- dir_720c34c34eae56e7048c181fca8a7301&#45;&gt;dir_cb2d4e92f47691559fc9d122a5e37fac -->
<g id="edge9" class="edge">
<title>dir_720c34c34eae56e7048c181fca8a7301&#45;&gt;dir_cb2d4e92f47691559fc9d122a5e37fac</title>
<path fill="none" stroke="black" d="M150.13,-228.87C177.38,-223.12 217.98,-209.81 237,-180 249.43,-160.52 245.7,-149.41 237,-128 235.24,-123.68 232.72,-119.59 229.8,-115.81"/>
<polygon fill="black" stroke="black" points="232.2,-113.24 222.95,-108.07 226.96,-117.88 232.2,-113.24"/>
<g id="a_edge9&#45;headlabel"><a xlink:href="dir_000030_000014.html" target="_top" xlink:title="7">
<text text-anchor="middle" x="236.71" y="-111.55" font-family="FreeSans" font-size="10.00">7</text>
</a>
</g>
</g>
<!-- dir_380958c63d952bb3103b4d0780edb576 -->
<g id="node3" class="node">
<title>dir_380958c63d952bb3103b4d0780edb576</title>
<g id="a_node3"><a xlink:href="dir_380958c63d952bb3103b4d0780edb576.html" target="_top" xlink:title="src">
<polygon fill="white" stroke="black" points="78,-252 24,-252 24,-216 78,-216 78,-252"/>
<text text-anchor="middle" x="51" y="-231.5" font-family="FreeSans" font-size="10.00">src</text>
</a>
</g>
</g>
<!-- dir_380958c63d952bb3103b4d0780edb576&#45;&gt;dir_efd9a905f7f9d9f65f71aca9ef18ae70 -->
<g id="edge3" class="edge">
<title>dir_380958c63d952bb3103b4d0780edb576&#45;&gt;dir_efd9a905f7f9d9f65f71aca9ef18ae70</title>
<path fill="none" stroke="black" d="M53.47,-215.7C54.57,-207.98 55.9,-198.71 57.13,-190.11"/>
<polygon fill="black" stroke="black" points="60.61,-190.5 58.56,-180.1 53.68,-189.51 60.61,-190.5"/>
<g id="a_edge3&#45;headlabel"><a xlink:href="dir_000148_000031.html" target="_top" xlink:title="6">
<text text-anchor="middle" x="62.91" y="-191.96" font-family="FreeSans" font-size="10.00">6</text>
</a>
</g>
</g>
<!-- dir_380958c63d952bb3103b4d0780edb576&#45;&gt;dir_637a76a7abf5a01e5c2aa724f3c1e96e -->
<g id="edge1" class="edge">
<title>dir_380958c63d952bb3103b4d0780edb576&#45;&gt;dir_637a76a7abf5a01e5c2aa724f3c1e96e</title>
<path fill="none" stroke="black" d="M78.12,-220.17C81.11,-218.76 84.12,-217.35 87,-216 112.94,-203.85 142.25,-190.22 164.65,-179.83"/>
<polygon fill="black" stroke="black" points="166.2,-182.97 173.8,-175.59 163.25,-176.62 166.2,-182.97"/>
<g id="a_edge1&#45;headlabel"><a xlink:href="dir_000148_000022.html" target="_top" xlink:title="6">
<text text-anchor="middle" x="164.13" y="-184.56" font-family="FreeSans" font-size="10.00">6</text>
</a>
</g>
</g>
<!-- dir_380958c63d952bb3103b4d0780edb576&#45;&gt;dir_cb2d4e92f47691559fc9d122a5e37fac -->
<g id="edge2" class="edge">
<title>dir_380958c63d952bb3103b4d0780edb576&#45;&gt;dir_cb2d4e92f47691559fc9d122a5e37fac</title>
<path fill="none" stroke="black" d="M69.09,-215.87C95.56,-190.82 144.96,-144.05 175.22,-115.41"/>
<polygon fill="black" stroke="black" points="177.99,-117.61 182.84,-108.19 173.17,-112.52 177.99,-117.61"/>
<g id="a_edge2&#45;headlabel"><a xlink:href="dir_000148_000014.html" target="_top" xlink:title="6">
<text text-anchor="middle" x="177.33" y="-119.64" font-family="FreeSans" font-size="10.00">6</text>
</a>
</g>
</g>
<!-- dir_637a76a7abf5a01e5c2aa724f3c1e96e&#45;&gt;dir_758df28fbdbb54fb46d6d3d6484a4984 -->
<g id="edge6" class="edge">
<title>dir_637a76a7abf5a01e5c2aa724f3c1e96e&#45;&gt;dir_758df28fbdbb54fb46d6d3d6484a4984</title>
<path fill="none" stroke="black" d="M215.16,-143.85C222.69,-133.93 231.5,-120.89 237,-108 245.41,-88.29 250.24,-64.49 252.93,-46.46"/>
<polygon fill="black" stroke="black" points="256.43,-46.71 254.3,-36.33 249.49,-45.76 256.43,-46.71"/>
<g id="a_edge6&#45;headlabel"><a xlink:href="dir_000022_000144.html" target="_top" xlink:title="1">
<text text-anchor="middle" x="258.76" y="-48.15" font-family="FreeSans" font-size="10.00">1</text>
</a>
</g>
</g>
<!-- dir_637a76a7abf5a01e5c2aa724f3c1e96e&#45;&gt;dir_cb2d4e92f47691559fc9d122a5e37fac -->
<g id="edge5" class="edge">
<title>dir_637a76a7abf5a01e5c2aa724f3c1e96e&#45;&gt;dir_cb2d4e92f47691559fc9d122a5e37fac</title>
<path fill="none" stroke="black" d="M201,-143.7C201,-135.98 201,-126.71 201,-118.11"/>
<polygon fill="black" stroke="black" points="204.5,-118.1 201,-108.1 197.5,-118.1 204.5,-118.1"/>
<g id="a_edge5&#45;headlabel"><a xlink:href="dir_000022_000014.html" target="_top" xlink:title="17">
<text text-anchor="middle" x="207.34" y="-119.2" font-family="FreeSans" font-size="10.00">17</text>
</a>
</g>
</g>
<!-- dir_cb2d4e92f47691559fc9d122a5e37fac&#45;&gt;dir_758df28fbdbb54fb46d6d3d6484a4984 -->
<g id="edge4" class="edge">
<title>dir_cb2d4e92f47691559fc9d122a5e37fac&#45;&gt;dir_758df28fbdbb54fb46d6d3d6484a4984</title>
<path fill="none" stroke="black" d="M214.6,-71.7C221.12,-63.39 229.07,-53.28 236.25,-44.14"/>
<polygon fill="black" stroke="black" points="239.13,-46.13 242.56,-36.1 233.63,-41.81 239.13,-46.13"/>
<g id="a_edge4&#45;headlabel"><a xlink:href="dir_000014_000144.html" target="_top" xlink:title="3">
<text text-anchor="middle" x="239.15" y="-48.21" font-family="FreeSans" font-size="10.00">3</text>
</a>
</g>
</g>
</g>
</svg>
