<?xml version="1.0" encoding="UTF-8" standalone="no"?>
<!DOCTYPE svg PUBLIC "-//W3C//DTD SVG 1.1//EN"
 "http://www.w3.org/Graphics/SVG/1.1/DTD/svg11.dtd">
<!-- Generated by graphviz version 2.43.0 (0)
 -->
<!-- Title: Containers Pages: 1 -->
<svg width="192pt" height="319pt"
 viewBox="0.00 0.00 192.00 319.00" xmlns="http://www.w3.org/2000/svg" xmlns:xlink="http://www.w3.org/1999/xlink">
<g id="graph0" class="graph" transform="scale(1 1) rotate(0) translate(4 315)">
<title>Containers</title>
<polygon fill="white" stroke="transparent" points="-4,4 -4,-315 188,-315 188,4 -4,4"/>
<g id="clust1" class="cluster">
<title>clusterdir_730935399589b544a579302a37a46c03</title>
<g id="a_clust1"><a xlink:href="dir_730935399589b544a579302a37a46c03.html" target="_top" xlink:title="cpp_src">
<polygon fill="#ddddee" stroke="black" points="8,-8 8,-303 176,-303 176,-8 8,-8"/>
<text text-anchor="middle" x="92" y="-291" font-family="FreeSans" font-size="10.00">cpp_src</text>
</a>
</g>
</g>
<g id="clust2" class="cluster">
<title>clusterdir_a06008c3e245d1092ba6894d6caedef2</title>
<g id="a_clust2"><a xlink:href="dir_a06008c3e245d1092ba6894d6caedef2.html" target="_top">
<polygon fill="#eeeeff" stroke="black" points="16,-152 16,-276 168,-276 168,-152 16,-152"/>
</a>
</g>
</g>
<!-- dir_150f406a44a04ce55518da03ec553ece -->
<g id="node1" class="node">
<title>dir_150f406a44a04ce55518da03ec553ece</title>
<g id="a_node1"><a xlink:href="dir_150f406a44a04ce55518da03ec553ece.html" target="_top" xlink:title="Utilities">
<polygon fill="white" stroke="red" points="124,-124 70,-124 70,-88 124,-88 124,-124"/>
<text text-anchor="middle" x="97" y="-103.5" font-family="FreeSans" font-size="10.00">Utilities</text>
</a>
</g>
</g>
<!-- dir_32348ece3c89569e6a714937ae854c89 -->
<g id="node2" class="node">
<title>dir_32348ece3c89569e6a714937ae854c89</title>
<g id="a_node2"><a xlink:href="dir_32348ece3c89569e6a714937ae854c89.html" target="_top" xlink:title="Message">
<polygon fill="white" stroke="red" points="102,-52 46,-52 46,-16 102,-16 102,-52"/>
<text text-anchor="middle" x="74" y="-31.5" font-family="FreeSans" font-size="10.00">Message</text>
</a>
</g>
</g>
<!-- dir_150f406a44a04ce55518da03ec553ece&#45;&gt;dir_32348ece3c89569e6a714937ae854c89 -->
<g id="edge1" class="edge">
<title>dir_150f406a44a04ce55518da03ec553ece&#45;&gt;dir_32348ece3c89569e6a714937ae854c89</title>
<path fill="none" stroke="black" d="M91.31,-87.7C88.75,-79.9 85.67,-70.51 82.82,-61.83"/>
<polygon fill="black" stroke="black" points="86.07,-60.51 79.62,-52.1 79.42,-62.7 86.07,-60.51"/>
<g id="a_edge1&#45;headlabel"><a xlink:href="dir_000086_000123.html" target="_top" xlink:title="13">
<text text-anchor="middle" x="89.89" y="-60.54" font-family="FreeSans" font-size="10.00">13</text>
</a>
</g>
</g>
<!-- dir_a06008c3e245d1092ba6894d6caedef2 -->
<g id="node3" class="node">
<title>dir_a06008c3e245d1092ba6894d6caedef2</title>
<text text-anchor="middle" x="128" y="-247.5" font-family="FreeSans" font-size="10.00">Containers</text>
</g>
<!-- dir_d96ffed6ffa43f352b53294eba873c74 -->
<g id="node4" class="node">
<title>dir_d96ffed6ffa43f352b53294eba873c74</title>
<g id="a_node4"><a xlink:href="dir_d96ffed6ffa43f352b53294eba873c74.html" target="_top" xlink:title="include">
<polygon fill="white" stroke="black" points="78,-196 24,-196 24,-160 78,-160 78,-196"/>
<text text-anchor="middle" x="51" y="-175.5" font-family="FreeSans" font-size="10.00">include</text>
</a>
</g>
</g>
<!-- dir_d96ffed6ffa43f352b53294eba873c74&#45;&gt;dir_150f406a44a04ce55518da03ec553ece -->
<g id="edge2" class="edge">
<title>dir_d96ffed6ffa43f352b53294eba873c74&#45;&gt;dir_150f406a44a04ce55518da03ec553ece</title>
<path fill="none" stroke="black" d="M62.37,-159.7C67.72,-151.56 74.2,-141.69 80.11,-132.7"/>
<polygon fill="black" stroke="black" points="83.19,-134.38 85.76,-124.1 77.34,-130.54 83.19,-134.38"/>
<g id="a_edge2&#45;headlabel"><a xlink:href="dir_000097_000086.html" target="_top" xlink:title="39">
<text text-anchor="middle" x="83.59" y="-136.45" font-family="FreeSans" font-size="10.00">39</text>
</a>
</g>
</g>
<!-- dir_d96ffed6ffa43f352b53294eba873c74&#45;&gt;dir_32348ece3c89569e6a714937ae854c89 -->
<g id="edge3" class="edge">
<title>dir_d96ffed6ffa43f352b53294eba873c74&#45;&gt;dir_32348ece3c89569e6a714937ae854c89</title>
<path fill="none" stroke="black" d="M52.27,-159.84C53.75,-141.85 56.58,-112.8 61,-88 62.52,-79.47 64.61,-70.28 66.67,-61.98"/>
<polygon fill="black" stroke="black" points="70.12,-62.62 69.22,-52.07 63.34,-60.88 70.12,-62.62"/>
<g id="a_edge3&#45;headlabel"><a xlink:href="dir_000097_000123.html" target="_top" xlink:title="9">
<text text-anchor="middle" x="71.97" y="-64.31" font-family="FreeSans" font-size="10.00">9</text>
</a>
</g>
</g>
<!-- dir_008fc8a7b3a56a37b15760ff3b717164 -->
<g id="node5" class="node">
<title>dir_008fc8a7b3a56a37b15760ff3b717164</title>
<g id="a_node5"><a xlink:href="dir_008fc8a7b3a56a37b15760ff3b717164.html" target="_top" xlink:title="src">
<polygon fill="white" stroke="black" points="78,-268 24,-268 24,-232 78,-232 78,-268"/>
<text text-anchor="middle" x="51" y="-247.5" font-family="FreeSans" font-size="10.00">src</text>
</a>
</g>
</g>
<!-- dir_008fc8a7b3a56a37b15760ff3b717164&#45;&gt;dir_150f406a44a04ce55518da03ec553ece -->
<g id="edge4" class="edge">
<title>dir_008fc8a7b3a56a37b15760ff3b717164&#45;&gt;dir_150f406a44a04ce55518da03ec553ece</title>
<path fill="none" stroke="black" d="M66.03,-231.58C73.62,-221.78 82.22,-208.94 87,-196 94.32,-176.22 96.69,-152.42 97.3,-134.41"/>
<polygon fill="black" stroke="black" points="100.8,-134.35 97.48,-124.29 93.8,-134.23 100.8,-134.35"/>
<g id="a_edge4&#45;headlabel"><a xlink:href="dir_000110_000086.html" target="_top" xlink:title="3">
<text text-anchor="middle" x="103.57" y="-135.5" font-family="FreeSans" font-size="10.00">3</text>
</a>
</g>
</g>
<!-- dir_008fc8a7b3a56a37b15760ff3b717164&#45;&gt;dir_d96ffed6ffa43f352b53294eba873c74 -->
<g id="edge5" class="edge">
<title>dir_008fc8a7b3a56a37b15760ff3b717164&#45;&gt;dir_d96ffed6ffa43f352b53294eba873c74</title>
<path fill="none" stroke="black" d="M51,-231.7C51,-223.98 51,-214.71 51,-206.11"/>
<polygon fill="black" stroke="black" points="54.5,-206.1 51,-196.1 47.5,-206.1 54.5,-206.1"/>
<g id="a_edge5&#45;headlabel"><a xlink:href="dir_000110_000097.html" target="_top" xlink:title="7">
<text text-anchor="middle" x="57.34" y="-207.2" font-family="FreeSans" font-size="10.00">7</text>
</a>
</g>
</g>
</g>
</svg>
